<?xml version="1.0" standalone="no"?>
 <!DOCTYPE svg PUBLIC "-//W3C//DTD SVG 1.1//EN" 
 "http://www.w3.org/Graphics/SVG/1.1/DTD/svg11.dtd"> 
<svg
  xmlns:svg="http://www.w3.org/2000/svg"
  xmlns="http://www.w3.org/2000/svg"
  xmlns:xlink="http://www.w3.org/1999/xlink"
  version="1.1"
  width="406.2984mm" height="148.2852mm" viewBox="0.0000 0.0000 406.2984 148.2852">
<title>SVG Image created as pteranodon-Edge_Cuts.svg date 2024/10/28 19:22:23 </title>
  <desc>Image generated by PCBNEW </desc>
<g style="fill:#000000; fill-opacity:1.0000;stroke:#000000; stroke-opacity:1.0000;
stroke-linecap:round; stroke-linejoin:round;"
 transform="translate(0 0) scale(1 1)">
</g>
<g style="fill:none; 
stroke:#D0D2CD; stroke-width:0.2000; stroke-opacity:1; 
stroke-linecap:round; stroke-linejoin:round;">
<path d="M272.3659 36.9910
L373.2320 6.1512
" />
<path d="M6.8881 93.2541 A2.9999 2.9999 0.0 0 0 8.8799 97.0001" />
<path d="M36.6552 6.1512 A2.9999 2.9999 0.0 0 0 32.9092 8.1430" />
<path d="M401.0073 97.0001 A2.9999 2.9999 0.0 0 0 402.9991 93.2541" />
<path d="M376.9780 8.1430
L402.9991 93.2541
" />
<path d="M195.7996 14.0970
L214.0876 14.0970
" />
<path d="M376.9780 8.1430 A3.0000 3.0000 0.0 0 0 373.2320 6.1512" />
<path d="M214.0876 14.0970
L226.7488 35.6421
" />
<path d="M195.7996 14.0970
L183.2087 35.6361
" />
<path d="M138.3457 37.1221
L180.6188 37.1221
" />
<path d="M401.0073 97.0001
L258.0458 140.6990
" />
<path d="M137.4681 36.9909 A3.0003 3.0003 0.0 0 0 138.3457 37.1221" />
<path d="M36.6552 6.1512
L137.4681 36.9909
" />
<path d="M8.8799 97.0001
L151.7783 140.6989
" />
<path d="M180.6188 37.1221 A2.9999 2.9999 0.0 0 0 183.2087 35.6361" />
<path d="M257.1688 140.8300
L152.6556 140.8300
" />
<path d="M151.7783 140.6989 A3.0001 3.0001 0.0 0 0 152.6556 140.8300" />
<path d="M257.1688 140.8300 A2.9998 2.9998 0.0 0 0 258.0458 140.6990" />
<path d="M226.7489 35.6421 A3.0000 3.0000 0.0 0 0 229.3353 37.1222" />
<path d="M6.8881 93.2541
L32.9092 8.1430
" />
<path d="M271.4887 37.1221
L229.3353 37.1222
" />
<path d="M271.4887 37.1222 A3.0000 3.0000 0.0 0 0 272.3659 36.9910" />
</g>
<g style="fill:none; 
stroke:#D0D2CD; stroke-width:0.2000; stroke-opacity:1; 
stroke-linecap:round; stroke-linejoin:round;">
<path d="M272.3659 36.9910
L373.2320 6.1512
" />
<path d="M6.8881 93.2541 A2.9999 2.9999 0.0 0 0 8.8799 97.0001" />
<path d="M36.6552 6.1512 A2.9999 2.9999 0.0 0 0 32.9092 8.1430" />
<path d="M401.0073 97.0001 A2.9999 2.9999 0.0 0 0 402.9991 93.2541" />
<path d="M376.9780 8.1430
L402.9991 93.2541
" />
<path d="M195.7996 14.0970
L214.0876 14.0970
" />
<path d="M376.9780 8.1430 A3.0000 3.0000 0.0 0 0 373.2320 6.1512" />
<path d="M214.0876 14.0970
L226.7488 35.6421
" />
<path d="M195.7996 14.0970
L183.2087 35.6361
" />
<path d="M138.3457 37.1221
L180.6188 37.1221
" />
<path d="M401.0073 97.0001
L258.0458 140.6990
" />
<path d="M137.4681 36.9909 A3.0003 3.0003 0.0 0 0 138.3457 37.1221" />
<path d="M36.6552 6.1512
L137.4681 36.9909
" />
<path d="M8.8799 97.0001
L151.7783 140.6989
" />
<path d="M180.6188 37.1221 A2.9999 2.9999 0.0 0 0 183.2087 35.6361" />
<path d="M257.1688 140.8300
L152.6556 140.8300
" />
<path d="M151.7783 140.6989 A3.0001 3.0001 0.0 0 0 152.6556 140.8300" />
<path d="M257.1688 140.8300 A2.9998 2.9998 0.0 0 0 258.0458 140.6990" />
<path d="M226.7489 35.6421 A3.0000 3.0000 0.0 0 0 229.3353 37.1222" />
<path d="M6.8881 93.2541
L32.9092 8.1430
" />
<path d="M271.4887 37.1221
L229.3353 37.1222
" />
<path d="M271.4887 37.1222 A3.0000 3.0000 0.0 0 0 272.3659 36.9910" />
</g> 
</svg>
