%TF.GenerationSoftware,KiCad,Pcbnew,8.0.1*%
%TF.CreationDate,2024-05-03T20:41:22+02:00*%
%TF.ProjectId,boomerang,626f6f6d-6572-4616-9e67-2e6b69636164,rev?*%
%TF.SameCoordinates,Original*%
%TF.FileFunction,Drillmap*%
%TF.FilePolarity,Positive*%
%FSLAX45Y45*%
G04 Gerber Fmt 4.5, Leading zero omitted, Abs format (unit mm)*
G04 Created by KiCad (PCBNEW 8.0.1) date 2024-05-03 20:41:22*
%MOMM*%
%LPD*%
G01*
G04 APERTURE LIST*
%ADD10C,0.100000*%
%ADD11C,0.200000*%
%ADD12C,0.109220*%
%ADD13C,0.220000*%
G04 APERTURE END LIST*
D10*
X20120000Y-21360000D02*
X3680000Y-14310000D01*
X3680000Y-14310000D02*
X7560000Y-4800000D01*
X18300000Y-8750000D02*
X18650000Y-7200000D01*
X22230000Y-8820000D02*
X32750000Y-4770000D01*
X7560000Y-4800000D02*
X18300000Y-8750000D01*
X18650000Y-7200000D02*
X21690000Y-7180000D01*
X36450000Y-14360000D02*
X20120000Y-21360000D01*
X32750000Y-4770000D02*
X36450000Y-14360000D01*
X21690000Y-7180000D02*
X22230000Y-8820000D01*
D11*
D10*
X5925670Y-10861582D02*
X5965670Y-10901582D01*
X5965670Y-10861582D02*
X5925670Y-10901582D01*
X17470000Y-15220000D02*
X17510000Y-15260000D01*
X17510000Y-15220000D02*
X17470000Y-15260000D01*
X17470000Y-17000000D02*
X17510000Y-17040000D01*
X17510000Y-17000000D02*
X17470000Y-17040000D01*
X17480000Y-13450000D02*
X17520000Y-13490000D01*
X17520000Y-13450000D02*
X17480000Y-13490000D01*
X18551971Y-18315797D02*
X18591971Y-18355797D01*
X18591971Y-18315797D02*
X18551971Y-18355797D01*
X18822345Y-14037143D02*
X18862345Y-14077143D01*
X18862345Y-14037143D02*
X18822345Y-14077143D01*
X18928956Y-17466533D02*
X18968956Y-17506533D01*
X18968956Y-17466533D02*
X18928956Y-17506533D01*
X18932345Y-14109643D02*
X18972345Y-14149643D01*
X18972345Y-14109643D02*
X18932345Y-14149643D01*
X19422345Y-13807143D02*
X19462345Y-13847143D01*
X19462345Y-13807143D02*
X19422345Y-13847143D01*
X19422345Y-15587143D02*
X19462345Y-15627143D01*
X19462345Y-15587143D02*
X19422345Y-15627143D01*
X20619706Y-17539033D02*
X20659706Y-17579033D01*
X20659706Y-17539033D02*
X20619706Y-17579033D01*
X21152345Y-13807143D02*
X21192345Y-13847143D01*
X21192345Y-13807143D02*
X21152345Y-13847143D01*
X21162345Y-15597143D02*
X21202345Y-15637143D01*
X21202345Y-15597143D02*
X21162345Y-15637143D01*
X23114460Y-11660117D02*
X23154460Y-11700117D01*
X23154460Y-11660117D02*
X23114460Y-11700117D01*
X23801957Y-13388425D02*
X23841957Y-13428425D01*
X23841957Y-13388425D02*
X23801957Y-13428425D01*
X24517455Y-15159346D02*
X24557455Y-15199346D01*
X24557455Y-15159346D02*
X24517455Y-15199346D01*
X24833123Y-10868664D02*
X24873123Y-10908664D01*
X24873123Y-10868664D02*
X24833123Y-10908664D01*
X25236700Y-16939540D02*
X25276700Y-16979540D01*
X25276700Y-16939540D02*
X25236700Y-16979540D01*
X25591608Y-12719286D02*
X25631608Y-12759286D01*
X25631608Y-12719286D02*
X25591608Y-12759286D01*
X26282850Y-14456866D02*
X26322850Y-14496866D01*
X26322850Y-14456866D02*
X26282850Y-14496866D01*
X26622774Y-10199525D02*
X26662774Y-10239525D01*
X26662774Y-10199525D02*
X26622774Y-10239525D01*
X26996383Y-16196225D02*
X27036383Y-16236225D01*
X27036383Y-16196225D02*
X26996383Y-16236225D01*
X27349511Y-11998261D02*
X27389511Y-12038261D01*
X27389511Y-11998261D02*
X27349511Y-12038261D01*
X28046280Y-13722823D02*
X28086280Y-13762823D01*
X28086280Y-13722823D02*
X28046280Y-13762823D01*
X28393696Y-9484026D02*
X28433696Y-9524026D01*
X28433696Y-9484026D02*
X28393696Y-9524026D01*
X28758032Y-15484473D02*
X28798032Y-15524473D01*
X28798032Y-15484473D02*
X28758032Y-15524473D01*
X29137196Y-11297560D02*
X29177196Y-11337560D01*
X29177196Y-11297560D02*
X29137196Y-11337560D01*
X29820947Y-13016597D02*
X29860947Y-13056597D01*
X29860947Y-13016597D02*
X29820947Y-13056597D01*
X30151599Y-8763002D02*
X30191599Y-8803002D01*
X30191599Y-8763002D02*
X30151599Y-8803002D01*
X30536445Y-14787518D02*
X30576445Y-14827518D01*
X30576445Y-14787518D02*
X30536445Y-14827518D01*
X30874590Y-10552467D02*
X30914590Y-10592467D01*
X30914590Y-10552467D02*
X30874590Y-10592467D01*
X32298095Y-14075765D02*
X32338095Y-14115765D01*
X32338095Y-14075765D02*
X32298095Y-14115765D01*
X5442246Y-12517749D02*
G75*
G02*
X5362246Y-12517749I-40000J0D01*
G01*
X5362246Y-12517749D02*
G75*
G02*
X5442246Y-12517749I40000J0D01*
G01*
X6148760Y-12803199D02*
G75*
G02*
X6068760Y-12803199I-40000J0D01*
G01*
X6068760Y-12803199D02*
G75*
G02*
X6148760Y-12803199I40000J0D01*
G01*
X6153641Y-10756984D02*
G75*
G02*
X6073641Y-10756984I-40000J0D01*
G01*
X6073641Y-10756984D02*
G75*
G02*
X6153641Y-10756984I40000J0D01*
G01*
X6257121Y-14132544D02*
G75*
G02*
X6177121Y-14132544I-40000J0D01*
G01*
X6177121Y-14132544D02*
G75*
G02*
X6257121Y-14132544I40000J0D01*
G01*
X6542572Y-13426030D02*
G75*
G02*
X6462572Y-13426030I-40000J0D01*
G01*
X6462572Y-13426030D02*
G75*
G02*
X6542572Y-13426030I40000J0D01*
G01*
X6860155Y-11042434D02*
G75*
G02*
X6780155Y-11042434I-40000J0D01*
G01*
X6780155Y-11042434D02*
G75*
G02*
X6860155Y-11042434I40000J0D01*
G01*
X6869139Y-8986063D02*
G75*
G02*
X6789139Y-8986063I-40000J0D01*
G01*
X6789139Y-8986063D02*
G75*
G02*
X6869139Y-8986063I40000J0D01*
G01*
X6968874Y-12370894D02*
G75*
G02*
X6888874Y-12370894I-40000J0D01*
G01*
X6888874Y-12370894D02*
G75*
G02*
X6968874Y-12370894I40000J0D01*
G01*
X7138992Y-13203279D02*
G75*
G02*
X7058992Y-13203279I-40000J0D01*
G01*
X7058992Y-13203279D02*
G75*
G02*
X7138992Y-13203279I40000J0D01*
G01*
X7254324Y-11664380D02*
G75*
G02*
X7174324Y-11664380I-40000J0D01*
G01*
X7174324Y-11664380D02*
G75*
G02*
X7254324Y-11664380I40000J0D01*
G01*
X7575654Y-9271513D02*
G75*
G02*
X7495654Y-9271513I-40000J0D01*
G01*
X7495654Y-9271513D02*
G75*
G02*
X7575654Y-9271513I40000J0D01*
G01*
X7583122Y-7218893D02*
G75*
G02*
X7503122Y-7218893I-40000J0D01*
G01*
X7503122Y-7218893D02*
G75*
G02*
X7583122Y-7218893I40000J0D01*
G01*
X7684372Y-10599973D02*
G75*
G02*
X7604372Y-10599973I-40000J0D01*
G01*
X7604372Y-10599973D02*
G75*
G02*
X7684372Y-10599973I40000J0D01*
G01*
X7845506Y-13488729D02*
G75*
G02*
X7765506Y-13488729I-40000J0D01*
G01*
X7765506Y-13488729D02*
G75*
G02*
X7845506Y-13488729I40000J0D01*
G01*
X7969823Y-9893459D02*
G75*
G02*
X7889823Y-9893459I-40000J0D01*
G01*
X7889823Y-9893459D02*
G75*
G02*
X7969823Y-9893459I40000J0D01*
G01*
X8023406Y-14846169D02*
G75*
G02*
X7943406Y-14846169I-40000J0D01*
G01*
X7943406Y-14846169D02*
G75*
G02*
X8023406Y-14846169I40000J0D01*
G01*
X8289636Y-7504343D02*
G75*
G02*
X8209636Y-7504343I-40000J0D01*
G01*
X8209636Y-7504343D02*
G75*
G02*
X8289636Y-7504343I40000J0D01*
G01*
X8308857Y-14139655D02*
G75*
G02*
X8228857Y-14139655I-40000J0D01*
G01*
X8228857Y-14139655D02*
G75*
G02*
X8308857Y-14139655I40000J0D01*
G01*
X8395750Y-8839251D02*
G75*
G02*
X8315750Y-8839251I-40000J0D01*
G01*
X8315750Y-8839251D02*
G75*
G02*
X8395750Y-8839251I40000J0D01*
G01*
X8681200Y-8132737D02*
G75*
G02*
X8601200Y-8132737I-40000J0D01*
G01*
X8601200Y-8132737D02*
G75*
G02*
X8681200Y-8132737I40000J0D01*
G01*
X8735159Y-13084520D02*
G75*
G02*
X8655159Y-13084520I-40000J0D01*
G01*
X8655159Y-13084520D02*
G75*
G02*
X8735159Y-13084520I40000J0D01*
G01*
X9020609Y-12378006D02*
G75*
G02*
X8940609Y-12378006I-40000J0D01*
G01*
X8940609Y-12378006D02*
G75*
G02*
X9020609Y-12378006I40000J0D01*
G01*
X9111624Y-7067403D02*
G75*
G02*
X9031624Y-7067403I-40000J0D01*
G01*
X9031624Y-7067403D02*
G75*
G02*
X9111624Y-7067403I40000J0D01*
G01*
X9397074Y-6360888D02*
G75*
G02*
X9317074Y-6360888I-40000J0D01*
G01*
X9317074Y-6360888D02*
G75*
G02*
X9397074Y-6360888I40000J0D01*
G01*
X9450658Y-11313599D02*
G75*
G02*
X9370658Y-11313599I-40000J0D01*
G01*
X9370658Y-11313599D02*
G75*
G02*
X9450658Y-11313599I40000J0D01*
G01*
X9736108Y-10607085D02*
G75*
G02*
X9656108Y-10607085I-40000J0D01*
G01*
X9656108Y-10607085D02*
G75*
G02*
X9736108Y-10607085I40000J0D01*
G01*
X9789692Y-15559795D02*
G75*
G02*
X9709692Y-15559795I-40000J0D01*
G01*
X9709692Y-15559795D02*
G75*
G02*
X9789692Y-15559795I40000J0D01*
G01*
X10075142Y-14853281D02*
G75*
G02*
X9995142Y-14853281I-40000J0D01*
G01*
X9995142Y-14853281D02*
G75*
G02*
X10075142Y-14853281I40000J0D01*
G01*
X10162036Y-9552877D02*
G75*
G02*
X10082036Y-9552877I-40000J0D01*
G01*
X10082036Y-9552877D02*
G75*
G02*
X10162036Y-9552877I40000J0D01*
G01*
X10447486Y-8846363D02*
G75*
G02*
X10367486Y-8846363I-40000J0D01*
G01*
X10367486Y-8846363D02*
G75*
G02*
X10447486Y-8846363I40000J0D01*
G01*
X10501445Y-13798146D02*
G75*
G02*
X10421445Y-13798146I-40000J0D01*
G01*
X10421445Y-13798146D02*
G75*
G02*
X10501445Y-13798146I40000J0D01*
G01*
X10786895Y-13091631D02*
G75*
G02*
X10706895Y-13091631I-40000J0D01*
G01*
X10706895Y-13091631D02*
G75*
G02*
X10786895Y-13091631I40000J0D01*
G01*
X10877909Y-7781028D02*
G75*
G02*
X10797909Y-7781028I-40000J0D01*
G01*
X10797909Y-7781028D02*
G75*
G02*
X10877909Y-7781028I40000J0D01*
G01*
X11163359Y-7074514D02*
G75*
G02*
X11083359Y-7074514I-40000J0D01*
G01*
X11083359Y-7074514D02*
G75*
G02*
X11163359Y-7074514I40000J0D01*
G01*
X11216943Y-12027224D02*
G75*
G02*
X11136943Y-12027224I-40000J0D01*
G01*
X11136943Y-12027224D02*
G75*
G02*
X11216943Y-12027224I40000J0D01*
G01*
X11502393Y-11320710D02*
G75*
G02*
X11422393Y-11320710I-40000J0D01*
G01*
X11422393Y-11320710D02*
G75*
G02*
X11502393Y-11320710I40000J0D01*
G01*
X11555977Y-16273420D02*
G75*
G02*
X11475977Y-16273420I-40000J0D01*
G01*
X11475977Y-16273420D02*
G75*
G02*
X11555977Y-16273420I40000J0D01*
G01*
X11841427Y-15566906D02*
G75*
G02*
X11761427Y-15566906I-40000J0D01*
G01*
X11761427Y-15566906D02*
G75*
G02*
X11841427Y-15566906I40000J0D01*
G01*
X11928321Y-10266502D02*
G75*
G02*
X11848321Y-10266502I-40000J0D01*
G01*
X11848321Y-10266502D02*
G75*
G02*
X11928321Y-10266502I40000J0D01*
G01*
X12213771Y-9559988D02*
G75*
G02*
X12133771Y-9559988I-40000J0D01*
G01*
X12133771Y-9559988D02*
G75*
G02*
X12213771Y-9559988I40000J0D01*
G01*
X12267729Y-14511771D02*
G75*
G02*
X12187729Y-14511771I-40000J0D01*
G01*
X12187729Y-14511771D02*
G75*
G02*
X12267729Y-14511771I40000J0D01*
G01*
X12553180Y-13805257D02*
G75*
G02*
X12473180Y-13805257I-40000J0D01*
G01*
X12473180Y-13805257D02*
G75*
G02*
X12553180Y-13805257I40000J0D01*
G01*
X12644194Y-8494654D02*
G75*
G02*
X12564194Y-8494654I-40000J0D01*
G01*
X12564194Y-8494654D02*
G75*
G02*
X12644194Y-8494654I40000J0D01*
G01*
X12929644Y-7788140D02*
G75*
G02*
X12849644Y-7788140I-40000J0D01*
G01*
X12849644Y-7788140D02*
G75*
G02*
X12929644Y-7788140I40000J0D01*
G01*
X12983228Y-12740850D02*
G75*
G02*
X12903228Y-12740850I-40000J0D01*
G01*
X12903228Y-12740850D02*
G75*
G02*
X12983228Y-12740850I40000J0D01*
G01*
X13268678Y-12034336D02*
G75*
G02*
X13188678Y-12034336I-40000J0D01*
G01*
X13188678Y-12034336D02*
G75*
G02*
X13268678Y-12034336I40000J0D01*
G01*
X13322262Y-16987046D02*
G75*
G02*
X13242262Y-16987046I-40000J0D01*
G01*
X13242262Y-16987046D02*
G75*
G02*
X13322262Y-16987046I40000J0D01*
G01*
X13607712Y-16280532D02*
G75*
G02*
X13527712Y-16280532I-40000J0D01*
G01*
X13527712Y-16280532D02*
G75*
G02*
X13607712Y-16280532I40000J0D01*
G01*
X13694606Y-10980128D02*
G75*
G02*
X13614606Y-10980128I-40000J0D01*
G01*
X13614606Y-10980128D02*
G75*
G02*
X13694606Y-10980128I40000J0D01*
G01*
X13980056Y-10273614D02*
G75*
G02*
X13900056Y-10273614I-40000J0D01*
G01*
X13900056Y-10273614D02*
G75*
G02*
X13980056Y-10273614I40000J0D01*
G01*
X14034015Y-15225397D02*
G75*
G02*
X13954015Y-15225397I-40000J0D01*
G01*
X13954015Y-15225397D02*
G75*
G02*
X14034015Y-15225397I40000J0D01*
G01*
X14319465Y-14518882D02*
G75*
G02*
X14239465Y-14518882I-40000J0D01*
G01*
X14239465Y-14518882D02*
G75*
G02*
X14319465Y-14518882I40000J0D01*
G01*
X14410479Y-9208279D02*
G75*
G02*
X14330479Y-9208279I-40000J0D01*
G01*
X14330479Y-9208279D02*
G75*
G02*
X14410479Y-9208279I40000J0D01*
G01*
X14695929Y-8501765D02*
G75*
G02*
X14615929Y-8501765I-40000J0D01*
G01*
X14615929Y-8501765D02*
G75*
G02*
X14695929Y-8501765I40000J0D01*
G01*
X14749513Y-13454475D02*
G75*
G02*
X14669513Y-13454475I-40000J0D01*
G01*
X14669513Y-13454475D02*
G75*
G02*
X14749513Y-13454475I40000J0D01*
G01*
X15034964Y-12747961D02*
G75*
G02*
X14954964Y-12747961I-40000J0D01*
G01*
X14954964Y-12747961D02*
G75*
G02*
X15034964Y-12747961I40000J0D01*
G01*
X15460891Y-11693753D02*
G75*
G02*
X15380891Y-11693753I-40000J0D01*
G01*
X15380891Y-11693753D02*
G75*
G02*
X15460891Y-11693753I40000J0D01*
G01*
X15746341Y-10987239D02*
G75*
G02*
X15666341Y-10987239I-40000J0D01*
G01*
X15666341Y-10987239D02*
G75*
G02*
X15746341Y-10987239I40000J0D01*
G01*
X16176765Y-9921905D02*
G75*
G02*
X16096765Y-9921905I-40000J0D01*
G01*
X16096765Y-9921905D02*
G75*
G02*
X16176765Y-9921905I40000J0D01*
G01*
X16462215Y-9215391D02*
G75*
G02*
X16382215Y-9215391I-40000J0D01*
G01*
X16382215Y-9215391D02*
G75*
G02*
X16462215Y-9215391I40000J0D01*
G01*
X18522346Y-11506143D02*
G75*
G02*
X18442346Y-11506143I-40000J0D01*
G01*
X18442346Y-11506143D02*
G75*
G02*
X18522346Y-11506143I40000J0D01*
G01*
X18522346Y-12268143D02*
G75*
G02*
X18442346Y-12268143I-40000J0D01*
G01*
X18442346Y-12268143D02*
G75*
G02*
X18522346Y-12268143I40000J0D01*
G01*
X18852346Y-11506143D02*
G75*
G02*
X18772346Y-11506143I-40000J0D01*
G01*
X18772346Y-11506143D02*
G75*
G02*
X18852346Y-11506143I40000J0D01*
G01*
X18852346Y-12268143D02*
G75*
G02*
X18772346Y-12268143I-40000J0D01*
G01*
X18772346Y-12268143D02*
G75*
G02*
X18852346Y-12268143I40000J0D01*
G01*
X19182346Y-11506143D02*
G75*
G02*
X19102346Y-11506143I-40000J0D01*
G01*
X19102346Y-11506143D02*
G75*
G02*
X19182346Y-11506143I40000J0D01*
G01*
X19182346Y-12268143D02*
G75*
G02*
X19102346Y-12268143I-40000J0D01*
G01*
X19102346Y-12268143D02*
G75*
G02*
X19182346Y-12268143I40000J0D01*
G01*
X19512346Y-11506143D02*
G75*
G02*
X19432346Y-11506143I-40000J0D01*
G01*
X19432346Y-11506143D02*
G75*
G02*
X19512346Y-11506143I40000J0D01*
G01*
X19512346Y-12268143D02*
G75*
G02*
X19432346Y-12268143I-40000J0D01*
G01*
X19432346Y-12268143D02*
G75*
G02*
X19512346Y-12268143I40000J0D01*
G01*
X19842346Y-11506143D02*
G75*
G02*
X19762346Y-11506143I-40000J0D01*
G01*
X19762346Y-11506143D02*
G75*
G02*
X19842346Y-11506143I40000J0D01*
G01*
X19842346Y-12268143D02*
G75*
G02*
X19762346Y-12268143I-40000J0D01*
G01*
X19762346Y-12268143D02*
G75*
G02*
X19842346Y-12268143I40000J0D01*
G01*
X20172345Y-11506143D02*
G75*
G02*
X20092345Y-11506143I-40000J0D01*
G01*
X20092345Y-11506143D02*
G75*
G02*
X20172345Y-11506143I40000J0D01*
G01*
X20172345Y-12268143D02*
G75*
G02*
X20092345Y-12268143I-40000J0D01*
G01*
X20092345Y-12268143D02*
G75*
G02*
X20172345Y-12268143I40000J0D01*
G01*
X20502345Y-11506143D02*
G75*
G02*
X20422345Y-11506143I-40000J0D01*
G01*
X20422345Y-11506143D02*
G75*
G02*
X20502345Y-11506143I40000J0D01*
G01*
X20502345Y-12268143D02*
G75*
G02*
X20422345Y-12268143I-40000J0D01*
G01*
X20422345Y-12268143D02*
G75*
G02*
X20502345Y-12268143I40000J0D01*
G01*
X20832345Y-11506143D02*
G75*
G02*
X20752345Y-11506143I-40000J0D01*
G01*
X20752345Y-11506143D02*
G75*
G02*
X20832345Y-11506143I40000J0D01*
G01*
X20832345Y-12268143D02*
G75*
G02*
X20752345Y-12268143I-40000J0D01*
G01*
X20752345Y-12268143D02*
G75*
G02*
X20832345Y-12268143I40000J0D01*
G01*
X21162345Y-11506143D02*
G75*
G02*
X21082345Y-11506143I-40000J0D01*
G01*
X21082345Y-11506143D02*
G75*
G02*
X21162345Y-11506143I40000J0D01*
G01*
X21162345Y-12268143D02*
G75*
G02*
X21082345Y-12268143I-40000J0D01*
G01*
X21082345Y-12268143D02*
G75*
G02*
X21162345Y-12268143I40000J0D01*
G01*
X21492345Y-11506143D02*
G75*
G02*
X21412345Y-11506143I-40000J0D01*
G01*
X21412345Y-11506143D02*
G75*
G02*
X21492345Y-11506143I40000J0D01*
G01*
X21492345Y-12268143D02*
G75*
G02*
X21412345Y-12268143I-40000J0D01*
G01*
X21412345Y-12268143D02*
G75*
G02*
X21492345Y-12268143I40000J0D01*
G01*
X21822345Y-11506143D02*
G75*
G02*
X21742345Y-11506143I-40000J0D01*
G01*
X21742345Y-11506143D02*
G75*
G02*
X21822345Y-11506143I40000J0D01*
G01*
X21822345Y-12268143D02*
G75*
G02*
X21742345Y-12268143I-40000J0D01*
G01*
X21742345Y-12268143D02*
G75*
G02*
X21822345Y-12268143I40000J0D01*
G01*
X24009426Y-9215310D02*
G75*
G02*
X23929426Y-9215310I-40000J0D01*
G01*
X23929426Y-9215310D02*
G75*
G02*
X24009426Y-9215310I40000J0D01*
G01*
X24294876Y-9921824D02*
G75*
G02*
X24214876Y-9921824I-40000J0D01*
G01*
X24214876Y-9921824D02*
G75*
G02*
X24294876Y-9921824I40000J0D01*
G01*
X24725299Y-10987158D02*
G75*
G02*
X24645299Y-10987158I-40000J0D01*
G01*
X24645299Y-10987158D02*
G75*
G02*
X24725299Y-10987158I40000J0D01*
G01*
X25010749Y-11693672D02*
G75*
G02*
X24930749Y-11693672I-40000J0D01*
G01*
X24930749Y-11693672D02*
G75*
G02*
X25010749Y-11693672I40000J0D01*
G01*
X25436677Y-12747880D02*
G75*
G02*
X25356677Y-12747880I-40000J0D01*
G01*
X25356677Y-12747880D02*
G75*
G02*
X25436677Y-12747880I40000J0D01*
G01*
X25722127Y-13454394D02*
G75*
G02*
X25642127Y-13454394I-40000J0D01*
G01*
X25642127Y-13454394D02*
G75*
G02*
X25722127Y-13454394I40000J0D01*
G01*
X25775711Y-8501684D02*
G75*
G02*
X25695711Y-8501684I-40000J0D01*
G01*
X25695711Y-8501684D02*
G75*
G02*
X25775711Y-8501684I40000J0D01*
G01*
X26061161Y-9208198D02*
G75*
G02*
X25981161Y-9208198I-40000J0D01*
G01*
X25981161Y-9208198D02*
G75*
G02*
X26061161Y-9208198I40000J0D01*
G01*
X26152176Y-14518801D02*
G75*
G02*
X26072176Y-14518801I-40000J0D01*
G01*
X26072176Y-14518801D02*
G75*
G02*
X26152176Y-14518801I40000J0D01*
G01*
X26437626Y-15225315D02*
G75*
G02*
X26357626Y-15225315I-40000J0D01*
G01*
X26357626Y-15225315D02*
G75*
G02*
X26437626Y-15225315I40000J0D01*
G01*
X26491584Y-10273532D02*
G75*
G02*
X26411584Y-10273532I-40000J0D01*
G01*
X26411584Y-10273532D02*
G75*
G02*
X26491584Y-10273532I40000J0D01*
G01*
X26777034Y-10980046D02*
G75*
G02*
X26697034Y-10980046I-40000J0D01*
G01*
X26697034Y-10980046D02*
G75*
G02*
X26777034Y-10980046I40000J0D01*
G01*
X26863928Y-16280450D02*
G75*
G02*
X26783928Y-16280450I-40000J0D01*
G01*
X26783928Y-16280450D02*
G75*
G02*
X26863928Y-16280450I40000J0D01*
G01*
X27149378Y-16986965D02*
G75*
G02*
X27069378Y-16986965I-40000J0D01*
G01*
X27069378Y-16986965D02*
G75*
G02*
X27149378Y-16986965I40000J0D01*
G01*
X27202962Y-12034254D02*
G75*
G02*
X27122962Y-12034254I-40000J0D01*
G01*
X27122962Y-12034254D02*
G75*
G02*
X27202962Y-12034254I40000J0D01*
G01*
X27488412Y-12740769D02*
G75*
G02*
X27408412Y-12740769I-40000J0D01*
G01*
X27408412Y-12740769D02*
G75*
G02*
X27488412Y-12740769I40000J0D01*
G01*
X27541996Y-7788058D02*
G75*
G02*
X27461996Y-7788058I-40000J0D01*
G01*
X27461996Y-7788058D02*
G75*
G02*
X27541996Y-7788058I40000J0D01*
G01*
X27827447Y-8494573D02*
G75*
G02*
X27747447Y-8494573I-40000J0D01*
G01*
X27747447Y-8494573D02*
G75*
G02*
X27827447Y-8494573I40000J0D01*
G01*
X27918461Y-13805176D02*
G75*
G02*
X27838461Y-13805176I-40000J0D01*
G01*
X27838461Y-13805176D02*
G75*
G02*
X27918461Y-13805176I40000J0D01*
G01*
X28203911Y-14511690D02*
G75*
G02*
X28123911Y-14511690I-40000J0D01*
G01*
X28123911Y-14511690D02*
G75*
G02*
X28203911Y-14511690I40000J0D01*
G01*
X28257869Y-9559907D02*
G75*
G02*
X28177869Y-9559907I-40000J0D01*
G01*
X28177869Y-9559907D02*
G75*
G02*
X28257869Y-9559907I40000J0D01*
G01*
X28543320Y-10266421D02*
G75*
G02*
X28463320Y-10266421I-40000J0D01*
G01*
X28463320Y-10266421D02*
G75*
G02*
X28543320Y-10266421I40000J0D01*
G01*
X28630213Y-15566825D02*
G75*
G02*
X28550213Y-15566825I-40000J0D01*
G01*
X28550213Y-15566825D02*
G75*
G02*
X28630213Y-15566825I40000J0D01*
G01*
X28915664Y-16273339D02*
G75*
G02*
X28835664Y-16273339I-40000J0D01*
G01*
X28835664Y-16273339D02*
G75*
G02*
X28915664Y-16273339I40000J0D01*
G01*
X28969247Y-11320629D02*
G75*
G02*
X28889247Y-11320629I-40000J0D01*
G01*
X28889247Y-11320629D02*
G75*
G02*
X28969247Y-11320629I40000J0D01*
G01*
X29254698Y-12027143D02*
G75*
G02*
X29174698Y-12027143I-40000J0D01*
G01*
X29174698Y-12027143D02*
G75*
G02*
X29254698Y-12027143I40000J0D01*
G01*
X29308282Y-7074433D02*
G75*
G02*
X29228282Y-7074433I-40000J0D01*
G01*
X29228282Y-7074433D02*
G75*
G02*
X29308282Y-7074433I40000J0D01*
G01*
X29593732Y-7780947D02*
G75*
G02*
X29513732Y-7780947I-40000J0D01*
G01*
X29513732Y-7780947D02*
G75*
G02*
X29593732Y-7780947I40000J0D01*
G01*
X29684746Y-13091550D02*
G75*
G02*
X29604746Y-13091550I-40000J0D01*
G01*
X29604746Y-13091550D02*
G75*
G02*
X29684746Y-13091550I40000J0D01*
G01*
X29970196Y-13798064D02*
G75*
G02*
X29890196Y-13798064I-40000J0D01*
G01*
X29890196Y-13798064D02*
G75*
G02*
X29970196Y-13798064I40000J0D01*
G01*
X30024155Y-8846281D02*
G75*
G02*
X29944155Y-8846281I-40000J0D01*
G01*
X29944155Y-8846281D02*
G75*
G02*
X30024155Y-8846281I40000J0D01*
G01*
X30309605Y-9552795D02*
G75*
G02*
X30229605Y-9552795I-40000J0D01*
G01*
X30229605Y-9552795D02*
G75*
G02*
X30309605Y-9552795I40000J0D01*
G01*
X30396499Y-14853199D02*
G75*
G02*
X30316499Y-14853199I-40000J0D01*
G01*
X30316499Y-14853199D02*
G75*
G02*
X30396499Y-14853199I40000J0D01*
G01*
X30681949Y-15559713D02*
G75*
G02*
X30601949Y-15559713I-40000J0D01*
G01*
X30601949Y-15559713D02*
G75*
G02*
X30681949Y-15559713I40000J0D01*
G01*
X30735533Y-10607003D02*
G75*
G02*
X30655533Y-10607003I-40000J0D01*
G01*
X30655533Y-10607003D02*
G75*
G02*
X30735533Y-10607003I40000J0D01*
G01*
X31020983Y-11313517D02*
G75*
G02*
X30940983Y-11313517I-40000J0D01*
G01*
X30940983Y-11313517D02*
G75*
G02*
X31020983Y-11313517I40000J0D01*
G01*
X31056904Y-6367944D02*
G75*
G02*
X30976904Y-6367944I-40000J0D01*
G01*
X30976904Y-6367944D02*
G75*
G02*
X31056904Y-6367944I40000J0D01*
G01*
X31342354Y-7074458D02*
G75*
G02*
X31262354Y-7074458I-40000J0D01*
G01*
X31262354Y-7074458D02*
G75*
G02*
X31342354Y-7074458I40000J0D01*
G01*
X31451031Y-12377924D02*
G75*
G02*
X31371031Y-12377924I-40000J0D01*
G01*
X31371031Y-12377924D02*
G75*
G02*
X31451031Y-12377924I40000J0D01*
G01*
X31736481Y-13084439D02*
G75*
G02*
X31656481Y-13084439I-40000J0D01*
G01*
X31656481Y-13084439D02*
G75*
G02*
X31736481Y-13084439I40000J0D01*
G01*
X31790440Y-8132656D02*
G75*
G02*
X31710440Y-8132656I-40000J0D01*
G01*
X31710440Y-8132656D02*
G75*
G02*
X31790440Y-8132656I40000J0D01*
G01*
X32075890Y-8839170D02*
G75*
G02*
X31995890Y-8839170I-40000J0D01*
G01*
X31995890Y-8839170D02*
G75*
G02*
X32075890Y-8839170I40000J0D01*
G01*
X32157014Y-7514359D02*
G75*
G02*
X32077014Y-7514359I-40000J0D01*
G01*
X32077014Y-7514359D02*
G75*
G02*
X32157014Y-7514359I40000J0D01*
G01*
X32162784Y-14139574D02*
G75*
G02*
X32082784Y-14139574I-40000J0D01*
G01*
X32082784Y-14139574D02*
G75*
G02*
X32162784Y-14139574I40000J0D01*
G01*
X32419741Y-13572036D02*
G75*
G02*
X32339741Y-13572036I-40000J0D01*
G01*
X32339741Y-13572036D02*
G75*
G02*
X32419741Y-13572036I40000J0D01*
G01*
X32448234Y-14846088D02*
G75*
G02*
X32368234Y-14846088I-40000J0D01*
G01*
X32368234Y-14846088D02*
G75*
G02*
X32448234Y-14846088I40000J0D01*
G01*
X32501818Y-9893378D02*
G75*
G02*
X32421818Y-9893378I-40000J0D01*
G01*
X32421818Y-9893378D02*
G75*
G02*
X32501818Y-9893378I40000J0D01*
G01*
X32787268Y-10599892D02*
G75*
G02*
X32707268Y-10599892I-40000J0D01*
G01*
X32707268Y-10599892D02*
G75*
G02*
X32787268Y-10599892I40000J0D01*
G01*
X32863528Y-7228908D02*
G75*
G02*
X32783528Y-7228908I-40000J0D01*
G01*
X32783528Y-7228908D02*
G75*
G02*
X32863528Y-7228908I40000J0D01*
G01*
X32867310Y-9272401D02*
G75*
G02*
X32787310Y-9272401I-40000J0D01*
G01*
X32787310Y-9272401D02*
G75*
G02*
X32867310Y-9272401I40000J0D01*
G01*
X33126255Y-13286586D02*
G75*
G02*
X33046255Y-13286586I-40000J0D01*
G01*
X33046255Y-13286586D02*
G75*
G02*
X33126255Y-13286586I40000J0D01*
G01*
X33217317Y-11664299D02*
G75*
G02*
X33137317Y-11664299I-40000J0D01*
G01*
X33137317Y-11664299D02*
G75*
G02*
X33217317Y-11664299I40000J0D01*
G01*
X33502767Y-12370813D02*
G75*
G02*
X33422767Y-12370813I-40000J0D01*
G01*
X33422767Y-12370813D02*
G75*
G02*
X33502767Y-12370813I40000J0D01*
G01*
X33573824Y-8986951D02*
G75*
G02*
X33493824Y-8986951I-40000J0D01*
G01*
X33493824Y-8986951D02*
G75*
G02*
X33573824Y-8986951I40000J0D01*
G01*
X33584266Y-11046929D02*
G75*
G02*
X33504265Y-11046929I-40000J0D01*
G01*
X33504265Y-11046929D02*
G75*
G02*
X33584266Y-11046929I40000J0D01*
G01*
X33929069Y-13425948D02*
G75*
G02*
X33849069Y-13425948I-40000J0D01*
G01*
X33849069Y-13425948D02*
G75*
G02*
X33929069Y-13425948I40000J0D01*
G01*
X34214519Y-14132462D02*
G75*
G02*
X34134519Y-14132462I-40000J0D01*
G01*
X34134519Y-14132462D02*
G75*
G02*
X34214519Y-14132462I40000J0D01*
G01*
X34290780Y-10761479D02*
G75*
G02*
X34210780Y-10761479I-40000J0D01*
G01*
X34210780Y-10761479D02*
G75*
G02*
X34290780Y-10761479I40000J0D01*
G01*
X34297891Y-12813214D02*
G75*
G02*
X34217891Y-12813214I-40000J0D01*
G01*
X34217891Y-12813214D02*
G75*
G02*
X34297891Y-12813214I40000J0D01*
G01*
X35004405Y-12527764D02*
G75*
G02*
X34924405Y-12527764I-40000J0D01*
G01*
X34924405Y-12527764D02*
G75*
G02*
X35004405Y-12527764I40000J0D01*
G01*
X20275221Y-18755143D02*
X20275221Y-18855143D01*
X20225221Y-18805143D02*
X20325221Y-18805143D01*
X20275221Y-19005143D02*
X20275221Y-19105143D01*
X20225221Y-19055143D02*
X20325221Y-19055143D01*
X20275221Y-19255143D02*
X20275221Y-19355143D01*
X20225221Y-19305143D02*
X20325221Y-19305143D01*
X21725221Y-18755143D02*
X21725221Y-18855143D01*
X21675221Y-18805143D02*
X21775221Y-18805143D01*
X21725221Y-19255143D02*
X21725221Y-19355143D01*
X21675221Y-19305143D02*
X21775221Y-19305143D01*
X22245000Y-18825000D02*
X22245000Y-18925000D01*
X22195000Y-18875000D02*
X22295000Y-18875000D01*
X22245000Y-19275000D02*
X22245000Y-19375000D01*
X22195000Y-19325000D02*
X22295000Y-19325000D01*
X22895000Y-18825000D02*
X22895000Y-18925000D01*
X22845000Y-18875000D02*
X22945000Y-18875000D01*
X22895000Y-19275000D02*
X22895000Y-19375000D01*
X22845000Y-19325000D02*
X22945000Y-19325000D01*
X24104495Y-12735150D02*
X24104495Y-12835150D01*
X24054495Y-12785150D02*
X24154495Y-12785150D01*
X24340000Y-12640000D02*
X24340000Y-12740000D01*
X24290000Y-12690000D02*
X24390000Y-12690000D01*
X24575505Y-12544850D02*
X24575505Y-12644850D01*
X24525505Y-12594850D02*
X24625505Y-12594850D01*
D12*
X19408961Y-8345759D02*
X19408961Y-8268528D01*
X19331730Y-8268528D01*
X19331730Y-8345759D01*
X19408961Y-8345759D01*
X19408961Y-8599759D02*
X19408961Y-8522528D01*
X19331730Y-8522528D01*
X19331730Y-8599759D01*
X19408961Y-8599759D01*
X19408961Y-8853759D02*
X19408961Y-8776528D01*
X19331730Y-8776528D01*
X19331730Y-8853759D01*
X19408961Y-8853759D01*
X19408961Y-9107759D02*
X19408961Y-9030528D01*
X19331730Y-9030528D01*
X19331730Y-9107759D01*
X19408961Y-9107759D01*
X19408961Y-9361759D02*
X19408961Y-9284528D01*
X19331730Y-9284528D01*
X19331730Y-9361759D01*
X19408961Y-9361759D01*
X19408961Y-9615759D02*
X19408961Y-9538528D01*
X19331730Y-9538528D01*
X19331730Y-9615759D01*
X19408961Y-9615759D01*
X19408961Y-9869759D02*
X19408961Y-9792528D01*
X19331730Y-9792528D01*
X19331730Y-9869759D01*
X19408961Y-9869759D01*
X19408961Y-10123759D02*
X19408961Y-10046528D01*
X19331730Y-10046528D01*
X19331730Y-10123759D01*
X19408961Y-10123759D01*
X19408961Y-10377759D02*
X19408961Y-10300528D01*
X19331730Y-10300528D01*
X19331730Y-10377759D01*
X19408961Y-10377759D01*
X19408961Y-10631759D02*
X19408961Y-10554528D01*
X19331730Y-10554528D01*
X19331730Y-10631759D01*
X19408961Y-10631759D01*
X19408961Y-10885759D02*
X19408961Y-10808528D01*
X19331730Y-10808528D01*
X19331730Y-10885759D01*
X19408961Y-10885759D01*
X19408961Y-11139759D02*
X19408961Y-11062528D01*
X19331730Y-11062528D01*
X19331730Y-11139759D01*
X19408961Y-11139759D01*
X20932961Y-8345759D02*
X20932961Y-8268528D01*
X20855730Y-8268528D01*
X20855730Y-8345759D01*
X20932961Y-8345759D01*
X20932961Y-8599759D02*
X20932961Y-8522528D01*
X20855730Y-8522528D01*
X20855730Y-8599759D01*
X20932961Y-8599759D01*
X20932961Y-8853759D02*
X20932961Y-8776528D01*
X20855730Y-8776528D01*
X20855730Y-8853759D01*
X20932961Y-8853759D01*
X20932961Y-9107759D02*
X20932961Y-9030528D01*
X20855730Y-9030528D01*
X20855730Y-9107759D01*
X20932961Y-9107759D01*
X20932961Y-9361759D02*
X20932961Y-9284528D01*
X20855730Y-9284528D01*
X20855730Y-9361759D01*
X20932961Y-9361759D01*
X20932961Y-9615759D02*
X20932961Y-9538528D01*
X20855730Y-9538528D01*
X20855730Y-9615759D01*
X20932961Y-9615759D01*
X20932961Y-9869759D02*
X20932961Y-9792528D01*
X20855730Y-9792528D01*
X20855730Y-9869759D01*
X20932961Y-9869759D01*
X20932961Y-10123759D02*
X20932961Y-10046528D01*
X20855730Y-10046528D01*
X20855730Y-10123759D01*
X20932961Y-10123759D01*
X20932961Y-10377759D02*
X20932961Y-10300528D01*
X20855730Y-10300528D01*
X20855730Y-10377759D01*
X20932961Y-10377759D01*
X20932961Y-10631759D02*
X20932961Y-10554528D01*
X20855730Y-10554528D01*
X20855730Y-10631759D01*
X20932961Y-10631759D01*
X20932961Y-10885759D02*
X20932961Y-10808528D01*
X20855730Y-10808528D01*
X20855730Y-10885759D01*
X20932961Y-10885759D01*
X20932961Y-11139759D02*
X20932961Y-11062528D01*
X20855730Y-11062528D01*
X20855730Y-11139759D01*
X20932961Y-11139759D01*
D13*
X6663635Y-13137383D02*
X6773635Y-13027383D01*
X6663635Y-12917383D01*
X6553635Y-13027383D01*
X6663635Y-13137383D01*
X8804512Y-7838527D02*
X8914512Y-7728527D01*
X8804512Y-7618527D01*
X8694512Y-7728527D01*
X8804512Y-7838527D01*
X13728776Y-15991886D02*
X13838776Y-15881886D01*
X13728776Y-15771886D01*
X13618776Y-15881886D01*
X13728776Y-15991886D01*
X15869653Y-10693030D02*
X15979653Y-10583030D01*
X15869653Y-10473030D01*
X15759653Y-10583030D01*
X15869653Y-10693030D01*
X24521988Y-10692949D02*
X24631988Y-10582949D01*
X24521988Y-10472949D01*
X24411988Y-10582949D01*
X24521988Y-10692949D01*
X26662865Y-15991804D02*
X26772865Y-15881804D01*
X26662865Y-15771804D01*
X26552865Y-15881804D01*
X26662865Y-15991804D01*
X31587129Y-7838446D02*
X31697129Y-7728446D01*
X31587129Y-7618446D01*
X31477129Y-7728446D01*
X31587129Y-7838446D01*
X33728006Y-13137302D02*
X33838006Y-13027302D01*
X33728006Y-12917302D01*
X33618006Y-13027302D01*
X33728006Y-13137302D01*
D11*
X3935777Y-21676484D02*
X3935777Y-21476484D01*
X3935777Y-21476484D02*
X3983396Y-21476484D01*
X3983396Y-21476484D02*
X4011967Y-21486008D01*
X4011967Y-21486008D02*
X4031015Y-21505055D01*
X4031015Y-21505055D02*
X4040539Y-21524103D01*
X4040539Y-21524103D02*
X4050062Y-21562198D01*
X4050062Y-21562198D02*
X4050062Y-21590770D01*
X4050062Y-21590770D02*
X4040539Y-21628865D01*
X4040539Y-21628865D02*
X4031015Y-21647912D01*
X4031015Y-21647912D02*
X4011967Y-21666960D01*
X4011967Y-21666960D02*
X3983396Y-21676484D01*
X3983396Y-21676484D02*
X3935777Y-21676484D01*
X4135777Y-21676484D02*
X4135777Y-21543150D01*
X4135777Y-21581246D02*
X4145301Y-21562198D01*
X4145301Y-21562198D02*
X4154824Y-21552674D01*
X4154824Y-21552674D02*
X4173872Y-21543150D01*
X4173872Y-21543150D02*
X4192920Y-21543150D01*
X4259586Y-21676484D02*
X4259586Y-21543150D01*
X4259586Y-21476484D02*
X4250063Y-21486008D01*
X4250063Y-21486008D02*
X4259586Y-21495531D01*
X4259586Y-21495531D02*
X4269110Y-21486008D01*
X4269110Y-21486008D02*
X4259586Y-21476484D01*
X4259586Y-21476484D02*
X4259586Y-21495531D01*
X4383396Y-21676484D02*
X4364348Y-21666960D01*
X4364348Y-21666960D02*
X4354824Y-21647912D01*
X4354824Y-21647912D02*
X4354824Y-21476484D01*
X4488158Y-21676484D02*
X4469110Y-21666960D01*
X4469110Y-21666960D02*
X4459586Y-21647912D01*
X4459586Y-21647912D02*
X4459586Y-21476484D01*
X4716729Y-21676484D02*
X4716729Y-21476484D01*
X4716729Y-21476484D02*
X4783396Y-21619341D01*
X4783396Y-21619341D02*
X4850063Y-21476484D01*
X4850063Y-21476484D02*
X4850063Y-21676484D01*
X5031015Y-21676484D02*
X5031015Y-21571722D01*
X5031015Y-21571722D02*
X5021491Y-21552674D01*
X5021491Y-21552674D02*
X5002444Y-21543150D01*
X5002444Y-21543150D02*
X4964348Y-21543150D01*
X4964348Y-21543150D02*
X4945301Y-21552674D01*
X5031015Y-21666960D02*
X5011967Y-21676484D01*
X5011967Y-21676484D02*
X4964348Y-21676484D01*
X4964348Y-21676484D02*
X4945301Y-21666960D01*
X4945301Y-21666960D02*
X4935777Y-21647912D01*
X4935777Y-21647912D02*
X4935777Y-21628865D01*
X4935777Y-21628865D02*
X4945301Y-21609817D01*
X4945301Y-21609817D02*
X4964348Y-21600293D01*
X4964348Y-21600293D02*
X5011967Y-21600293D01*
X5011967Y-21600293D02*
X5031015Y-21590770D01*
X5126253Y-21543150D02*
X5126253Y-21743150D01*
X5126253Y-21552674D02*
X5145301Y-21543150D01*
X5145301Y-21543150D02*
X5183396Y-21543150D01*
X5183396Y-21543150D02*
X5202444Y-21552674D01*
X5202444Y-21552674D02*
X5211967Y-21562198D01*
X5211967Y-21562198D02*
X5221491Y-21581246D01*
X5221491Y-21581246D02*
X5221491Y-21638389D01*
X5221491Y-21638389D02*
X5211967Y-21657436D01*
X5211967Y-21657436D02*
X5202444Y-21666960D01*
X5202444Y-21666960D02*
X5183396Y-21676484D01*
X5183396Y-21676484D02*
X5145301Y-21676484D01*
X5145301Y-21676484D02*
X5126253Y-21666960D01*
X5307205Y-21657436D02*
X5316729Y-21666960D01*
X5316729Y-21666960D02*
X5307205Y-21676484D01*
X5307205Y-21676484D02*
X5297682Y-21666960D01*
X5297682Y-21666960D02*
X5307205Y-21657436D01*
X5307205Y-21657436D02*
X5307205Y-21676484D01*
X5307205Y-21552674D02*
X5316729Y-21562198D01*
X5316729Y-21562198D02*
X5307205Y-21571722D01*
X5307205Y-21571722D02*
X5297682Y-21562198D01*
X5297682Y-21562198D02*
X5307205Y-21552674D01*
X5307205Y-21552674D02*
X5307205Y-21571722D01*
D10*
X3635000Y-21985000D02*
X3675000Y-22025000D01*
X3675000Y-21985000D02*
X3635000Y-22025000D01*
D11*
X3973872Y-21896484D02*
X3992920Y-21896484D01*
X3992920Y-21896484D02*
X4011967Y-21906008D01*
X4011967Y-21906008D02*
X4021491Y-21915531D01*
X4021491Y-21915531D02*
X4031015Y-21934579D01*
X4031015Y-21934579D02*
X4040539Y-21972674D01*
X4040539Y-21972674D02*
X4040539Y-22020293D01*
X4040539Y-22020293D02*
X4031015Y-22058389D01*
X4031015Y-22058389D02*
X4021491Y-22077436D01*
X4021491Y-22077436D02*
X4011967Y-22086960D01*
X4011967Y-22086960D02*
X3992920Y-22096484D01*
X3992920Y-22096484D02*
X3973872Y-22096484D01*
X3973872Y-22096484D02*
X3954824Y-22086960D01*
X3954824Y-22086960D02*
X3945301Y-22077436D01*
X3945301Y-22077436D02*
X3935777Y-22058389D01*
X3935777Y-22058389D02*
X3926253Y-22020293D01*
X3926253Y-22020293D02*
X3926253Y-21972674D01*
X3926253Y-21972674D02*
X3935777Y-21934579D01*
X3935777Y-21934579D02*
X3945301Y-21915531D01*
X3945301Y-21915531D02*
X3954824Y-21906008D01*
X3954824Y-21906008D02*
X3973872Y-21896484D01*
X4126253Y-22077436D02*
X4135777Y-22086960D01*
X4135777Y-22086960D02*
X4126253Y-22096484D01*
X4126253Y-22096484D02*
X4116729Y-22086960D01*
X4116729Y-22086960D02*
X4126253Y-22077436D01*
X4126253Y-22077436D02*
X4126253Y-22096484D01*
X4307205Y-21963150D02*
X4307205Y-22096484D01*
X4259586Y-21886960D02*
X4211967Y-22029817D01*
X4211967Y-22029817D02*
X4335777Y-22029817D01*
X4450063Y-21896484D02*
X4469110Y-21896484D01*
X4469110Y-21896484D02*
X4488158Y-21906008D01*
X4488158Y-21906008D02*
X4497682Y-21915531D01*
X4497682Y-21915531D02*
X4507205Y-21934579D01*
X4507205Y-21934579D02*
X4516729Y-21972674D01*
X4516729Y-21972674D02*
X4516729Y-22020293D01*
X4516729Y-22020293D02*
X4507205Y-22058389D01*
X4507205Y-22058389D02*
X4497682Y-22077436D01*
X4497682Y-22077436D02*
X4488158Y-22086960D01*
X4488158Y-22086960D02*
X4469110Y-22096484D01*
X4469110Y-22096484D02*
X4450063Y-22096484D01*
X4450063Y-22096484D02*
X4431015Y-22086960D01*
X4431015Y-22086960D02*
X4421491Y-22077436D01*
X4421491Y-22077436D02*
X4411967Y-22058389D01*
X4411967Y-22058389D02*
X4402444Y-22020293D01*
X4402444Y-22020293D02*
X4402444Y-21972674D01*
X4402444Y-21972674D02*
X4411967Y-21934579D01*
X4411967Y-21934579D02*
X4421491Y-21915531D01*
X4421491Y-21915531D02*
X4431015Y-21906008D01*
X4431015Y-21906008D02*
X4450063Y-21896484D01*
X4640539Y-21896484D02*
X4659586Y-21896484D01*
X4659586Y-21896484D02*
X4678634Y-21906008D01*
X4678634Y-21906008D02*
X4688158Y-21915531D01*
X4688158Y-21915531D02*
X4697682Y-21934579D01*
X4697682Y-21934579D02*
X4707205Y-21972674D01*
X4707205Y-21972674D02*
X4707205Y-22020293D01*
X4707205Y-22020293D02*
X4697682Y-22058389D01*
X4697682Y-22058389D02*
X4688158Y-22077436D01*
X4688158Y-22077436D02*
X4678634Y-22086960D01*
X4678634Y-22086960D02*
X4659586Y-22096484D01*
X4659586Y-22096484D02*
X4640539Y-22096484D01*
X4640539Y-22096484D02*
X4621491Y-22086960D01*
X4621491Y-22086960D02*
X4611967Y-22077436D01*
X4611967Y-22077436D02*
X4602444Y-22058389D01*
X4602444Y-22058389D02*
X4592920Y-22020293D01*
X4592920Y-22020293D02*
X4592920Y-21972674D01*
X4592920Y-21972674D02*
X4602444Y-21934579D01*
X4602444Y-21934579D02*
X4611967Y-21915531D01*
X4611967Y-21915531D02*
X4621491Y-21906008D01*
X4621491Y-21906008D02*
X4640539Y-21896484D01*
X4792920Y-22096484D02*
X4792920Y-21963150D01*
X4792920Y-21982198D02*
X4802444Y-21972674D01*
X4802444Y-21972674D02*
X4821491Y-21963150D01*
X4821491Y-21963150D02*
X4850063Y-21963150D01*
X4850063Y-21963150D02*
X4869110Y-21972674D01*
X4869110Y-21972674D02*
X4878634Y-21991722D01*
X4878634Y-21991722D02*
X4878634Y-22096484D01*
X4878634Y-21991722D02*
X4888158Y-21972674D01*
X4888158Y-21972674D02*
X4907205Y-21963150D01*
X4907205Y-21963150D02*
X4935777Y-21963150D01*
X4935777Y-21963150D02*
X4954825Y-21972674D01*
X4954825Y-21972674D02*
X4964348Y-21991722D01*
X4964348Y-21991722D02*
X4964348Y-22096484D01*
X5059586Y-22096484D02*
X5059586Y-21963150D01*
X5059586Y-21982198D02*
X5069110Y-21972674D01*
X5069110Y-21972674D02*
X5088158Y-21963150D01*
X5088158Y-21963150D02*
X5116729Y-21963150D01*
X5116729Y-21963150D02*
X5135777Y-21972674D01*
X5135777Y-21972674D02*
X5145301Y-21991722D01*
X5145301Y-21991722D02*
X5145301Y-22096484D01*
X5145301Y-21991722D02*
X5154825Y-21972674D01*
X5154825Y-21972674D02*
X5173872Y-21963150D01*
X5173872Y-21963150D02*
X5202444Y-21963150D01*
X5202444Y-21963150D02*
X5221491Y-21972674D01*
X5221491Y-21972674D02*
X5231015Y-21991722D01*
X5231015Y-21991722D02*
X5231015Y-22096484D01*
X5621491Y-21886960D02*
X5450063Y-22144103D01*
X5878634Y-21896484D02*
X5897682Y-21896484D01*
X5897682Y-21896484D02*
X5916729Y-21906008D01*
X5916729Y-21906008D02*
X5926253Y-21915531D01*
X5926253Y-21915531D02*
X5935777Y-21934579D01*
X5935777Y-21934579D02*
X5945301Y-21972674D01*
X5945301Y-21972674D02*
X5945301Y-22020293D01*
X5945301Y-22020293D02*
X5935777Y-22058389D01*
X5935777Y-22058389D02*
X5926253Y-22077436D01*
X5926253Y-22077436D02*
X5916729Y-22086960D01*
X5916729Y-22086960D02*
X5897682Y-22096484D01*
X5897682Y-22096484D02*
X5878634Y-22096484D01*
X5878634Y-22096484D02*
X5859586Y-22086960D01*
X5859586Y-22086960D02*
X5850063Y-22077436D01*
X5850063Y-22077436D02*
X5840539Y-22058389D01*
X5840539Y-22058389D02*
X5831015Y-22020293D01*
X5831015Y-22020293D02*
X5831015Y-21972674D01*
X5831015Y-21972674D02*
X5840539Y-21934579D01*
X5840539Y-21934579D02*
X5850063Y-21915531D01*
X5850063Y-21915531D02*
X5859586Y-21906008D01*
X5859586Y-21906008D02*
X5878634Y-21896484D01*
X6031015Y-22077436D02*
X6040539Y-22086960D01*
X6040539Y-22086960D02*
X6031015Y-22096484D01*
X6031015Y-22096484D02*
X6021491Y-22086960D01*
X6021491Y-22086960D02*
X6031015Y-22077436D01*
X6031015Y-22077436D02*
X6031015Y-22096484D01*
X6164348Y-21896484D02*
X6183396Y-21896484D01*
X6183396Y-21896484D02*
X6202444Y-21906008D01*
X6202444Y-21906008D02*
X6211967Y-21915531D01*
X6211967Y-21915531D02*
X6221491Y-21934579D01*
X6221491Y-21934579D02*
X6231015Y-21972674D01*
X6231015Y-21972674D02*
X6231015Y-22020293D01*
X6231015Y-22020293D02*
X6221491Y-22058389D01*
X6221491Y-22058389D02*
X6211967Y-22077436D01*
X6211967Y-22077436D02*
X6202444Y-22086960D01*
X6202444Y-22086960D02*
X6183396Y-22096484D01*
X6183396Y-22096484D02*
X6164348Y-22096484D01*
X6164348Y-22096484D02*
X6145301Y-22086960D01*
X6145301Y-22086960D02*
X6135777Y-22077436D01*
X6135777Y-22077436D02*
X6126253Y-22058389D01*
X6126253Y-22058389D02*
X6116729Y-22020293D01*
X6116729Y-22020293D02*
X6116729Y-21972674D01*
X6116729Y-21972674D02*
X6126253Y-21934579D01*
X6126253Y-21934579D02*
X6135777Y-21915531D01*
X6135777Y-21915531D02*
X6145301Y-21906008D01*
X6145301Y-21906008D02*
X6164348Y-21896484D01*
X6421491Y-22096484D02*
X6307206Y-22096484D01*
X6364348Y-22096484D02*
X6364348Y-21896484D01*
X6364348Y-21896484D02*
X6345301Y-21925055D01*
X6345301Y-21925055D02*
X6326253Y-21944103D01*
X6326253Y-21944103D02*
X6307206Y-21953627D01*
X6602444Y-21896484D02*
X6507206Y-21896484D01*
X6507206Y-21896484D02*
X6497682Y-21991722D01*
X6497682Y-21991722D02*
X6507206Y-21982198D01*
X6507206Y-21982198D02*
X6526253Y-21972674D01*
X6526253Y-21972674D02*
X6573872Y-21972674D01*
X6573872Y-21972674D02*
X6592920Y-21982198D01*
X6592920Y-21982198D02*
X6602444Y-21991722D01*
X6602444Y-21991722D02*
X6611967Y-22010770D01*
X6611967Y-22010770D02*
X6611967Y-22058389D01*
X6611967Y-22058389D02*
X6602444Y-22077436D01*
X6602444Y-22077436D02*
X6592920Y-22086960D01*
X6592920Y-22086960D02*
X6573872Y-22096484D01*
X6573872Y-22096484D02*
X6526253Y-22096484D01*
X6526253Y-22096484D02*
X6507206Y-22086960D01*
X6507206Y-22086960D02*
X6497682Y-22077436D01*
X6678634Y-21896484D02*
X6811967Y-21896484D01*
X6811967Y-21896484D02*
X6726253Y-22096484D01*
X6878634Y-21896484D02*
X6878634Y-21934579D01*
X6954825Y-21896484D02*
X6954825Y-21934579D01*
X7250063Y-22172674D02*
X7240539Y-22163150D01*
X7240539Y-22163150D02*
X7221491Y-22134579D01*
X7221491Y-22134579D02*
X7211968Y-22115531D01*
X7211968Y-22115531D02*
X7202444Y-22086960D01*
X7202444Y-22086960D02*
X7192920Y-22039341D01*
X7192920Y-22039341D02*
X7192920Y-22001246D01*
X7192920Y-22001246D02*
X7202444Y-21953627D01*
X7202444Y-21953627D02*
X7211968Y-21925055D01*
X7211968Y-21925055D02*
X7221491Y-21906008D01*
X7221491Y-21906008D02*
X7240539Y-21877436D01*
X7240539Y-21877436D02*
X7250063Y-21867912D01*
X7307206Y-21896484D02*
X7431015Y-21896484D01*
X7431015Y-21896484D02*
X7364348Y-21972674D01*
X7364348Y-21972674D02*
X7392920Y-21972674D01*
X7392920Y-21972674D02*
X7411968Y-21982198D01*
X7411968Y-21982198D02*
X7421491Y-21991722D01*
X7421491Y-21991722D02*
X7431015Y-22010770D01*
X7431015Y-22010770D02*
X7431015Y-22058389D01*
X7431015Y-22058389D02*
X7421491Y-22077436D01*
X7421491Y-22077436D02*
X7411968Y-22086960D01*
X7411968Y-22086960D02*
X7392920Y-22096484D01*
X7392920Y-22096484D02*
X7335777Y-22096484D01*
X7335777Y-22096484D02*
X7316729Y-22086960D01*
X7316729Y-22086960D02*
X7307206Y-22077436D01*
X7507206Y-21915531D02*
X7516729Y-21906008D01*
X7516729Y-21906008D02*
X7535777Y-21896484D01*
X7535777Y-21896484D02*
X7583396Y-21896484D01*
X7583396Y-21896484D02*
X7602444Y-21906008D01*
X7602444Y-21906008D02*
X7611968Y-21915531D01*
X7611968Y-21915531D02*
X7621491Y-21934579D01*
X7621491Y-21934579D02*
X7621491Y-21953627D01*
X7621491Y-21953627D02*
X7611968Y-21982198D01*
X7611968Y-21982198D02*
X7497682Y-22096484D01*
X7497682Y-22096484D02*
X7621491Y-22096484D01*
X7859587Y-22096484D02*
X7859587Y-21896484D01*
X7945301Y-22096484D02*
X7945301Y-21991722D01*
X7945301Y-21991722D02*
X7935777Y-21972674D01*
X7935777Y-21972674D02*
X7916730Y-21963150D01*
X7916730Y-21963150D02*
X7888158Y-21963150D01*
X7888158Y-21963150D02*
X7869110Y-21972674D01*
X7869110Y-21972674D02*
X7859587Y-21982198D01*
X8069110Y-22096484D02*
X8050063Y-22086960D01*
X8050063Y-22086960D02*
X8040539Y-22077436D01*
X8040539Y-22077436D02*
X8031015Y-22058389D01*
X8031015Y-22058389D02*
X8031015Y-22001246D01*
X8031015Y-22001246D02*
X8040539Y-21982198D01*
X8040539Y-21982198D02*
X8050063Y-21972674D01*
X8050063Y-21972674D02*
X8069110Y-21963150D01*
X8069110Y-21963150D02*
X8097682Y-21963150D01*
X8097682Y-21963150D02*
X8116730Y-21972674D01*
X8116730Y-21972674D02*
X8126253Y-21982198D01*
X8126253Y-21982198D02*
X8135777Y-22001246D01*
X8135777Y-22001246D02*
X8135777Y-22058389D01*
X8135777Y-22058389D02*
X8126253Y-22077436D01*
X8126253Y-22077436D02*
X8116730Y-22086960D01*
X8116730Y-22086960D02*
X8097682Y-22096484D01*
X8097682Y-22096484D02*
X8069110Y-22096484D01*
X8250063Y-22096484D02*
X8231015Y-22086960D01*
X8231015Y-22086960D02*
X8221491Y-22067912D01*
X8221491Y-22067912D02*
X8221491Y-21896484D01*
X8402444Y-22086960D02*
X8383396Y-22096484D01*
X8383396Y-22096484D02*
X8345301Y-22096484D01*
X8345301Y-22096484D02*
X8326253Y-22086960D01*
X8326253Y-22086960D02*
X8316730Y-22067912D01*
X8316730Y-22067912D02*
X8316730Y-21991722D01*
X8316730Y-21991722D02*
X8326253Y-21972674D01*
X8326253Y-21972674D02*
X8345301Y-21963150D01*
X8345301Y-21963150D02*
X8383396Y-21963150D01*
X8383396Y-21963150D02*
X8402444Y-21972674D01*
X8402444Y-21972674D02*
X8411968Y-21991722D01*
X8411968Y-21991722D02*
X8411968Y-22010770D01*
X8411968Y-22010770D02*
X8316730Y-22029817D01*
X8488158Y-22086960D02*
X8507206Y-22096484D01*
X8507206Y-22096484D02*
X8545301Y-22096484D01*
X8545301Y-22096484D02*
X8564349Y-22086960D01*
X8564349Y-22086960D02*
X8573873Y-22067912D01*
X8573873Y-22067912D02*
X8573873Y-22058389D01*
X8573873Y-22058389D02*
X8564349Y-22039341D01*
X8564349Y-22039341D02*
X8545301Y-22029817D01*
X8545301Y-22029817D02*
X8516730Y-22029817D01*
X8516730Y-22029817D02*
X8497682Y-22020293D01*
X8497682Y-22020293D02*
X8488158Y-22001246D01*
X8488158Y-22001246D02*
X8488158Y-21991722D01*
X8488158Y-21991722D02*
X8497682Y-21972674D01*
X8497682Y-21972674D02*
X8516730Y-21963150D01*
X8516730Y-21963150D02*
X8545301Y-21963150D01*
X8545301Y-21963150D02*
X8564349Y-21972674D01*
X8640539Y-22172674D02*
X8650063Y-22163150D01*
X8650063Y-22163150D02*
X8669111Y-22134579D01*
X8669111Y-22134579D02*
X8678634Y-22115531D01*
X8678634Y-22115531D02*
X8688158Y-22086960D01*
X8688158Y-22086960D02*
X8697682Y-22039341D01*
X8697682Y-22039341D02*
X8697682Y-22001246D01*
X8697682Y-22001246D02*
X8688158Y-21953627D01*
X8688158Y-21953627D02*
X8678634Y-21925055D01*
X8678634Y-21925055D02*
X8669111Y-21906008D01*
X8669111Y-21906008D02*
X8650063Y-21877436D01*
X8650063Y-21877436D02*
X8640539Y-21867912D01*
D10*
X3675000Y-22269000D02*
G75*
G02*
X3595000Y-22269000I-40000J0D01*
G01*
X3595000Y-22269000D02*
G75*
G02*
X3675000Y-22269000I40000J0D01*
G01*
D11*
X3973872Y-22160484D02*
X3992920Y-22160484D01*
X3992920Y-22160484D02*
X4011967Y-22170008D01*
X4011967Y-22170008D02*
X4021491Y-22179531D01*
X4021491Y-22179531D02*
X4031015Y-22198579D01*
X4031015Y-22198579D02*
X4040539Y-22236674D01*
X4040539Y-22236674D02*
X4040539Y-22284293D01*
X4040539Y-22284293D02*
X4031015Y-22322389D01*
X4031015Y-22322389D02*
X4021491Y-22341436D01*
X4021491Y-22341436D02*
X4011967Y-22350960D01*
X4011967Y-22350960D02*
X3992920Y-22360484D01*
X3992920Y-22360484D02*
X3973872Y-22360484D01*
X3973872Y-22360484D02*
X3954824Y-22350960D01*
X3954824Y-22350960D02*
X3945301Y-22341436D01*
X3945301Y-22341436D02*
X3935777Y-22322389D01*
X3935777Y-22322389D02*
X3926253Y-22284293D01*
X3926253Y-22284293D02*
X3926253Y-22236674D01*
X3926253Y-22236674D02*
X3935777Y-22198579D01*
X3935777Y-22198579D02*
X3945301Y-22179531D01*
X3945301Y-22179531D02*
X3954824Y-22170008D01*
X3954824Y-22170008D02*
X3973872Y-22160484D01*
X4126253Y-22341436D02*
X4135777Y-22350960D01*
X4135777Y-22350960D02*
X4126253Y-22360484D01*
X4126253Y-22360484D02*
X4116729Y-22350960D01*
X4116729Y-22350960D02*
X4126253Y-22341436D01*
X4126253Y-22341436D02*
X4126253Y-22360484D01*
X4250063Y-22246198D02*
X4231015Y-22236674D01*
X4231015Y-22236674D02*
X4221491Y-22227150D01*
X4221491Y-22227150D02*
X4211967Y-22208103D01*
X4211967Y-22208103D02*
X4211967Y-22198579D01*
X4211967Y-22198579D02*
X4221491Y-22179531D01*
X4221491Y-22179531D02*
X4231015Y-22170008D01*
X4231015Y-22170008D02*
X4250063Y-22160484D01*
X4250063Y-22160484D02*
X4288158Y-22160484D01*
X4288158Y-22160484D02*
X4307205Y-22170008D01*
X4307205Y-22170008D02*
X4316729Y-22179531D01*
X4316729Y-22179531D02*
X4326253Y-22198579D01*
X4326253Y-22198579D02*
X4326253Y-22208103D01*
X4326253Y-22208103D02*
X4316729Y-22227150D01*
X4316729Y-22227150D02*
X4307205Y-22236674D01*
X4307205Y-22236674D02*
X4288158Y-22246198D01*
X4288158Y-22246198D02*
X4250063Y-22246198D01*
X4250063Y-22246198D02*
X4231015Y-22255722D01*
X4231015Y-22255722D02*
X4221491Y-22265246D01*
X4221491Y-22265246D02*
X4211967Y-22284293D01*
X4211967Y-22284293D02*
X4211967Y-22322389D01*
X4211967Y-22322389D02*
X4221491Y-22341436D01*
X4221491Y-22341436D02*
X4231015Y-22350960D01*
X4231015Y-22350960D02*
X4250063Y-22360484D01*
X4250063Y-22360484D02*
X4288158Y-22360484D01*
X4288158Y-22360484D02*
X4307205Y-22350960D01*
X4307205Y-22350960D02*
X4316729Y-22341436D01*
X4316729Y-22341436D02*
X4326253Y-22322389D01*
X4326253Y-22322389D02*
X4326253Y-22284293D01*
X4326253Y-22284293D02*
X4316729Y-22265246D01*
X4316729Y-22265246D02*
X4307205Y-22255722D01*
X4307205Y-22255722D02*
X4288158Y-22246198D01*
X4450063Y-22160484D02*
X4469110Y-22160484D01*
X4469110Y-22160484D02*
X4488158Y-22170008D01*
X4488158Y-22170008D02*
X4497682Y-22179531D01*
X4497682Y-22179531D02*
X4507205Y-22198579D01*
X4507205Y-22198579D02*
X4516729Y-22236674D01*
X4516729Y-22236674D02*
X4516729Y-22284293D01*
X4516729Y-22284293D02*
X4507205Y-22322389D01*
X4507205Y-22322389D02*
X4497682Y-22341436D01*
X4497682Y-22341436D02*
X4488158Y-22350960D01*
X4488158Y-22350960D02*
X4469110Y-22360484D01*
X4469110Y-22360484D02*
X4450063Y-22360484D01*
X4450063Y-22360484D02*
X4431015Y-22350960D01*
X4431015Y-22350960D02*
X4421491Y-22341436D01*
X4421491Y-22341436D02*
X4411967Y-22322389D01*
X4411967Y-22322389D02*
X4402444Y-22284293D01*
X4402444Y-22284293D02*
X4402444Y-22236674D01*
X4402444Y-22236674D02*
X4411967Y-22198579D01*
X4411967Y-22198579D02*
X4421491Y-22179531D01*
X4421491Y-22179531D02*
X4431015Y-22170008D01*
X4431015Y-22170008D02*
X4450063Y-22160484D01*
X4640539Y-22160484D02*
X4659586Y-22160484D01*
X4659586Y-22160484D02*
X4678634Y-22170008D01*
X4678634Y-22170008D02*
X4688158Y-22179531D01*
X4688158Y-22179531D02*
X4697682Y-22198579D01*
X4697682Y-22198579D02*
X4707205Y-22236674D01*
X4707205Y-22236674D02*
X4707205Y-22284293D01*
X4707205Y-22284293D02*
X4697682Y-22322389D01*
X4697682Y-22322389D02*
X4688158Y-22341436D01*
X4688158Y-22341436D02*
X4678634Y-22350960D01*
X4678634Y-22350960D02*
X4659586Y-22360484D01*
X4659586Y-22360484D02*
X4640539Y-22360484D01*
X4640539Y-22360484D02*
X4621491Y-22350960D01*
X4621491Y-22350960D02*
X4611967Y-22341436D01*
X4611967Y-22341436D02*
X4602444Y-22322389D01*
X4602444Y-22322389D02*
X4592920Y-22284293D01*
X4592920Y-22284293D02*
X4592920Y-22236674D01*
X4592920Y-22236674D02*
X4602444Y-22198579D01*
X4602444Y-22198579D02*
X4611967Y-22179531D01*
X4611967Y-22179531D02*
X4621491Y-22170008D01*
X4621491Y-22170008D02*
X4640539Y-22160484D01*
X4792920Y-22360484D02*
X4792920Y-22227150D01*
X4792920Y-22246198D02*
X4802444Y-22236674D01*
X4802444Y-22236674D02*
X4821491Y-22227150D01*
X4821491Y-22227150D02*
X4850063Y-22227150D01*
X4850063Y-22227150D02*
X4869110Y-22236674D01*
X4869110Y-22236674D02*
X4878634Y-22255722D01*
X4878634Y-22255722D02*
X4878634Y-22360484D01*
X4878634Y-22255722D02*
X4888158Y-22236674D01*
X4888158Y-22236674D02*
X4907205Y-22227150D01*
X4907205Y-22227150D02*
X4935777Y-22227150D01*
X4935777Y-22227150D02*
X4954825Y-22236674D01*
X4954825Y-22236674D02*
X4964348Y-22255722D01*
X4964348Y-22255722D02*
X4964348Y-22360484D01*
X5059586Y-22360484D02*
X5059586Y-22227150D01*
X5059586Y-22246198D02*
X5069110Y-22236674D01*
X5069110Y-22236674D02*
X5088158Y-22227150D01*
X5088158Y-22227150D02*
X5116729Y-22227150D01*
X5116729Y-22227150D02*
X5135777Y-22236674D01*
X5135777Y-22236674D02*
X5145301Y-22255722D01*
X5145301Y-22255722D02*
X5145301Y-22360484D01*
X5145301Y-22255722D02*
X5154825Y-22236674D01*
X5154825Y-22236674D02*
X5173872Y-22227150D01*
X5173872Y-22227150D02*
X5202444Y-22227150D01*
X5202444Y-22227150D02*
X5221491Y-22236674D01*
X5221491Y-22236674D02*
X5231015Y-22255722D01*
X5231015Y-22255722D02*
X5231015Y-22360484D01*
X5621491Y-22150960D02*
X5450063Y-22408103D01*
X5878634Y-22160484D02*
X5897682Y-22160484D01*
X5897682Y-22160484D02*
X5916729Y-22170008D01*
X5916729Y-22170008D02*
X5926253Y-22179531D01*
X5926253Y-22179531D02*
X5935777Y-22198579D01*
X5935777Y-22198579D02*
X5945301Y-22236674D01*
X5945301Y-22236674D02*
X5945301Y-22284293D01*
X5945301Y-22284293D02*
X5935777Y-22322389D01*
X5935777Y-22322389D02*
X5926253Y-22341436D01*
X5926253Y-22341436D02*
X5916729Y-22350960D01*
X5916729Y-22350960D02*
X5897682Y-22360484D01*
X5897682Y-22360484D02*
X5878634Y-22360484D01*
X5878634Y-22360484D02*
X5859586Y-22350960D01*
X5859586Y-22350960D02*
X5850063Y-22341436D01*
X5850063Y-22341436D02*
X5840539Y-22322389D01*
X5840539Y-22322389D02*
X5831015Y-22284293D01*
X5831015Y-22284293D02*
X5831015Y-22236674D01*
X5831015Y-22236674D02*
X5840539Y-22198579D01*
X5840539Y-22198579D02*
X5850063Y-22179531D01*
X5850063Y-22179531D02*
X5859586Y-22170008D01*
X5859586Y-22170008D02*
X5878634Y-22160484D01*
X6031015Y-22341436D02*
X6040539Y-22350960D01*
X6040539Y-22350960D02*
X6031015Y-22360484D01*
X6031015Y-22360484D02*
X6021491Y-22350960D01*
X6021491Y-22350960D02*
X6031015Y-22341436D01*
X6031015Y-22341436D02*
X6031015Y-22360484D01*
X6164348Y-22160484D02*
X6183396Y-22160484D01*
X6183396Y-22160484D02*
X6202444Y-22170008D01*
X6202444Y-22170008D02*
X6211967Y-22179531D01*
X6211967Y-22179531D02*
X6221491Y-22198579D01*
X6221491Y-22198579D02*
X6231015Y-22236674D01*
X6231015Y-22236674D02*
X6231015Y-22284293D01*
X6231015Y-22284293D02*
X6221491Y-22322389D01*
X6221491Y-22322389D02*
X6211967Y-22341436D01*
X6211967Y-22341436D02*
X6202444Y-22350960D01*
X6202444Y-22350960D02*
X6183396Y-22360484D01*
X6183396Y-22360484D02*
X6164348Y-22360484D01*
X6164348Y-22360484D02*
X6145301Y-22350960D01*
X6145301Y-22350960D02*
X6135777Y-22341436D01*
X6135777Y-22341436D02*
X6126253Y-22322389D01*
X6126253Y-22322389D02*
X6116729Y-22284293D01*
X6116729Y-22284293D02*
X6116729Y-22236674D01*
X6116729Y-22236674D02*
X6126253Y-22198579D01*
X6126253Y-22198579D02*
X6135777Y-22179531D01*
X6135777Y-22179531D02*
X6145301Y-22170008D01*
X6145301Y-22170008D02*
X6164348Y-22160484D01*
X6297682Y-22160484D02*
X6421491Y-22160484D01*
X6421491Y-22160484D02*
X6354825Y-22236674D01*
X6354825Y-22236674D02*
X6383396Y-22236674D01*
X6383396Y-22236674D02*
X6402444Y-22246198D01*
X6402444Y-22246198D02*
X6411967Y-22255722D01*
X6411967Y-22255722D02*
X6421491Y-22274770D01*
X6421491Y-22274770D02*
X6421491Y-22322389D01*
X6421491Y-22322389D02*
X6411967Y-22341436D01*
X6411967Y-22341436D02*
X6402444Y-22350960D01*
X6402444Y-22350960D02*
X6383396Y-22360484D01*
X6383396Y-22360484D02*
X6326253Y-22360484D01*
X6326253Y-22360484D02*
X6307206Y-22350960D01*
X6307206Y-22350960D02*
X6297682Y-22341436D01*
X6611967Y-22360484D02*
X6497682Y-22360484D01*
X6554825Y-22360484D02*
X6554825Y-22160484D01*
X6554825Y-22160484D02*
X6535777Y-22189055D01*
X6535777Y-22189055D02*
X6516729Y-22208103D01*
X6516729Y-22208103D02*
X6497682Y-22217627D01*
X6792920Y-22160484D02*
X6697682Y-22160484D01*
X6697682Y-22160484D02*
X6688158Y-22255722D01*
X6688158Y-22255722D02*
X6697682Y-22246198D01*
X6697682Y-22246198D02*
X6716729Y-22236674D01*
X6716729Y-22236674D02*
X6764348Y-22236674D01*
X6764348Y-22236674D02*
X6783396Y-22246198D01*
X6783396Y-22246198D02*
X6792920Y-22255722D01*
X6792920Y-22255722D02*
X6802444Y-22274770D01*
X6802444Y-22274770D02*
X6802444Y-22322389D01*
X6802444Y-22322389D02*
X6792920Y-22341436D01*
X6792920Y-22341436D02*
X6783396Y-22350960D01*
X6783396Y-22350960D02*
X6764348Y-22360484D01*
X6764348Y-22360484D02*
X6716729Y-22360484D01*
X6716729Y-22360484D02*
X6697682Y-22350960D01*
X6697682Y-22350960D02*
X6688158Y-22341436D01*
X6878634Y-22160484D02*
X6878634Y-22198579D01*
X6954825Y-22160484D02*
X6954825Y-22198579D01*
X7250063Y-22436674D02*
X7240539Y-22427150D01*
X7240539Y-22427150D02*
X7221491Y-22398579D01*
X7221491Y-22398579D02*
X7211968Y-22379531D01*
X7211968Y-22379531D02*
X7202444Y-22350960D01*
X7202444Y-22350960D02*
X7192920Y-22303341D01*
X7192920Y-22303341D02*
X7192920Y-22265246D01*
X7192920Y-22265246D02*
X7202444Y-22217627D01*
X7202444Y-22217627D02*
X7211968Y-22189055D01*
X7211968Y-22189055D02*
X7221491Y-22170008D01*
X7221491Y-22170008D02*
X7240539Y-22141436D01*
X7240539Y-22141436D02*
X7250063Y-22131912D01*
X7431015Y-22360484D02*
X7316729Y-22360484D01*
X7373872Y-22360484D02*
X7373872Y-22160484D01*
X7373872Y-22160484D02*
X7354825Y-22189055D01*
X7354825Y-22189055D02*
X7335777Y-22208103D01*
X7335777Y-22208103D02*
X7316729Y-22217627D01*
X7602444Y-22227150D02*
X7602444Y-22360484D01*
X7554825Y-22150960D02*
X7507206Y-22293817D01*
X7507206Y-22293817D02*
X7631015Y-22293817D01*
X7697682Y-22179531D02*
X7707206Y-22170008D01*
X7707206Y-22170008D02*
X7726253Y-22160484D01*
X7726253Y-22160484D02*
X7773872Y-22160484D01*
X7773872Y-22160484D02*
X7792920Y-22170008D01*
X7792920Y-22170008D02*
X7802444Y-22179531D01*
X7802444Y-22179531D02*
X7811968Y-22198579D01*
X7811968Y-22198579D02*
X7811968Y-22217627D01*
X7811968Y-22217627D02*
X7802444Y-22246198D01*
X7802444Y-22246198D02*
X7688158Y-22360484D01*
X7688158Y-22360484D02*
X7811968Y-22360484D01*
X8050063Y-22360484D02*
X8050063Y-22160484D01*
X8135777Y-22360484D02*
X8135777Y-22255722D01*
X8135777Y-22255722D02*
X8126253Y-22236674D01*
X8126253Y-22236674D02*
X8107206Y-22227150D01*
X8107206Y-22227150D02*
X8078634Y-22227150D01*
X8078634Y-22227150D02*
X8059587Y-22236674D01*
X8059587Y-22236674D02*
X8050063Y-22246198D01*
X8259587Y-22360484D02*
X8240539Y-22350960D01*
X8240539Y-22350960D02*
X8231015Y-22341436D01*
X8231015Y-22341436D02*
X8221491Y-22322389D01*
X8221491Y-22322389D02*
X8221491Y-22265246D01*
X8221491Y-22265246D02*
X8231015Y-22246198D01*
X8231015Y-22246198D02*
X8240539Y-22236674D01*
X8240539Y-22236674D02*
X8259587Y-22227150D01*
X8259587Y-22227150D02*
X8288158Y-22227150D01*
X8288158Y-22227150D02*
X8307206Y-22236674D01*
X8307206Y-22236674D02*
X8316730Y-22246198D01*
X8316730Y-22246198D02*
X8326253Y-22265246D01*
X8326253Y-22265246D02*
X8326253Y-22322389D01*
X8326253Y-22322389D02*
X8316730Y-22341436D01*
X8316730Y-22341436D02*
X8307206Y-22350960D01*
X8307206Y-22350960D02*
X8288158Y-22360484D01*
X8288158Y-22360484D02*
X8259587Y-22360484D01*
X8440539Y-22360484D02*
X8421492Y-22350960D01*
X8421492Y-22350960D02*
X8411968Y-22331912D01*
X8411968Y-22331912D02*
X8411968Y-22160484D01*
X8592920Y-22350960D02*
X8573873Y-22360484D01*
X8573873Y-22360484D02*
X8535777Y-22360484D01*
X8535777Y-22360484D02*
X8516730Y-22350960D01*
X8516730Y-22350960D02*
X8507206Y-22331912D01*
X8507206Y-22331912D02*
X8507206Y-22255722D01*
X8507206Y-22255722D02*
X8516730Y-22236674D01*
X8516730Y-22236674D02*
X8535777Y-22227150D01*
X8535777Y-22227150D02*
X8573873Y-22227150D01*
X8573873Y-22227150D02*
X8592920Y-22236674D01*
X8592920Y-22236674D02*
X8602444Y-22255722D01*
X8602444Y-22255722D02*
X8602444Y-22274770D01*
X8602444Y-22274770D02*
X8507206Y-22293817D01*
X8678634Y-22350960D02*
X8697682Y-22360484D01*
X8697682Y-22360484D02*
X8735777Y-22360484D01*
X8735777Y-22360484D02*
X8754825Y-22350960D01*
X8754825Y-22350960D02*
X8764349Y-22331912D01*
X8764349Y-22331912D02*
X8764349Y-22322389D01*
X8764349Y-22322389D02*
X8754825Y-22303341D01*
X8754825Y-22303341D02*
X8735777Y-22293817D01*
X8735777Y-22293817D02*
X8707206Y-22293817D01*
X8707206Y-22293817D02*
X8688158Y-22284293D01*
X8688158Y-22284293D02*
X8678634Y-22265246D01*
X8678634Y-22265246D02*
X8678634Y-22255722D01*
X8678634Y-22255722D02*
X8688158Y-22236674D01*
X8688158Y-22236674D02*
X8707206Y-22227150D01*
X8707206Y-22227150D02*
X8735777Y-22227150D01*
X8735777Y-22227150D02*
X8754825Y-22236674D01*
X8831015Y-22436674D02*
X8840539Y-22427150D01*
X8840539Y-22427150D02*
X8859587Y-22398579D01*
X8859587Y-22398579D02*
X8869111Y-22379531D01*
X8869111Y-22379531D02*
X8878634Y-22350960D01*
X8878634Y-22350960D02*
X8888158Y-22303341D01*
X8888158Y-22303341D02*
X8888158Y-22265246D01*
X8888158Y-22265246D02*
X8878634Y-22217627D01*
X8878634Y-22217627D02*
X8869111Y-22189055D01*
X8869111Y-22189055D02*
X8859587Y-22170008D01*
X8859587Y-22170008D02*
X8840539Y-22141436D01*
X8840539Y-22141436D02*
X8831015Y-22131912D01*
D10*
X3625000Y-22483000D02*
X3625000Y-22583000D01*
X3575000Y-22533000D02*
X3675000Y-22533000D01*
D11*
X4040539Y-22624484D02*
X3926253Y-22624484D01*
X3983396Y-22624484D02*
X3983396Y-22424484D01*
X3983396Y-22424484D02*
X3964348Y-22453055D01*
X3964348Y-22453055D02*
X3945301Y-22472103D01*
X3945301Y-22472103D02*
X3926253Y-22481627D01*
X4126253Y-22605436D02*
X4135777Y-22614960D01*
X4135777Y-22614960D02*
X4126253Y-22624484D01*
X4126253Y-22624484D02*
X4116729Y-22614960D01*
X4116729Y-22614960D02*
X4126253Y-22605436D01*
X4126253Y-22605436D02*
X4126253Y-22624484D01*
X4259586Y-22424484D02*
X4278634Y-22424484D01*
X4278634Y-22424484D02*
X4297682Y-22434008D01*
X4297682Y-22434008D02*
X4307205Y-22443531D01*
X4307205Y-22443531D02*
X4316729Y-22462579D01*
X4316729Y-22462579D02*
X4326253Y-22500674D01*
X4326253Y-22500674D02*
X4326253Y-22548293D01*
X4326253Y-22548293D02*
X4316729Y-22586388D01*
X4316729Y-22586388D02*
X4307205Y-22605436D01*
X4307205Y-22605436D02*
X4297682Y-22614960D01*
X4297682Y-22614960D02*
X4278634Y-22624484D01*
X4278634Y-22624484D02*
X4259586Y-22624484D01*
X4259586Y-22624484D02*
X4240539Y-22614960D01*
X4240539Y-22614960D02*
X4231015Y-22605436D01*
X4231015Y-22605436D02*
X4221491Y-22586388D01*
X4221491Y-22586388D02*
X4211967Y-22548293D01*
X4211967Y-22548293D02*
X4211967Y-22500674D01*
X4211967Y-22500674D02*
X4221491Y-22462579D01*
X4221491Y-22462579D02*
X4231015Y-22443531D01*
X4231015Y-22443531D02*
X4240539Y-22434008D01*
X4240539Y-22434008D02*
X4259586Y-22424484D01*
X4450063Y-22424484D02*
X4469110Y-22424484D01*
X4469110Y-22424484D02*
X4488158Y-22434008D01*
X4488158Y-22434008D02*
X4497682Y-22443531D01*
X4497682Y-22443531D02*
X4507205Y-22462579D01*
X4507205Y-22462579D02*
X4516729Y-22500674D01*
X4516729Y-22500674D02*
X4516729Y-22548293D01*
X4516729Y-22548293D02*
X4507205Y-22586388D01*
X4507205Y-22586388D02*
X4497682Y-22605436D01*
X4497682Y-22605436D02*
X4488158Y-22614960D01*
X4488158Y-22614960D02*
X4469110Y-22624484D01*
X4469110Y-22624484D02*
X4450063Y-22624484D01*
X4450063Y-22624484D02*
X4431015Y-22614960D01*
X4431015Y-22614960D02*
X4421491Y-22605436D01*
X4421491Y-22605436D02*
X4411967Y-22586388D01*
X4411967Y-22586388D02*
X4402444Y-22548293D01*
X4402444Y-22548293D02*
X4402444Y-22500674D01*
X4402444Y-22500674D02*
X4411967Y-22462579D01*
X4411967Y-22462579D02*
X4421491Y-22443531D01*
X4421491Y-22443531D02*
X4431015Y-22434008D01*
X4431015Y-22434008D02*
X4450063Y-22424484D01*
X4640539Y-22424484D02*
X4659586Y-22424484D01*
X4659586Y-22424484D02*
X4678634Y-22434008D01*
X4678634Y-22434008D02*
X4688158Y-22443531D01*
X4688158Y-22443531D02*
X4697682Y-22462579D01*
X4697682Y-22462579D02*
X4707205Y-22500674D01*
X4707205Y-22500674D02*
X4707205Y-22548293D01*
X4707205Y-22548293D02*
X4697682Y-22586388D01*
X4697682Y-22586388D02*
X4688158Y-22605436D01*
X4688158Y-22605436D02*
X4678634Y-22614960D01*
X4678634Y-22614960D02*
X4659586Y-22624484D01*
X4659586Y-22624484D02*
X4640539Y-22624484D01*
X4640539Y-22624484D02*
X4621491Y-22614960D01*
X4621491Y-22614960D02*
X4611967Y-22605436D01*
X4611967Y-22605436D02*
X4602444Y-22586388D01*
X4602444Y-22586388D02*
X4592920Y-22548293D01*
X4592920Y-22548293D02*
X4592920Y-22500674D01*
X4592920Y-22500674D02*
X4602444Y-22462579D01*
X4602444Y-22462579D02*
X4611967Y-22443531D01*
X4611967Y-22443531D02*
X4621491Y-22434008D01*
X4621491Y-22434008D02*
X4640539Y-22424484D01*
X4792920Y-22624484D02*
X4792920Y-22491150D01*
X4792920Y-22510198D02*
X4802444Y-22500674D01*
X4802444Y-22500674D02*
X4821491Y-22491150D01*
X4821491Y-22491150D02*
X4850063Y-22491150D01*
X4850063Y-22491150D02*
X4869110Y-22500674D01*
X4869110Y-22500674D02*
X4878634Y-22519722D01*
X4878634Y-22519722D02*
X4878634Y-22624484D01*
X4878634Y-22519722D02*
X4888158Y-22500674D01*
X4888158Y-22500674D02*
X4907205Y-22491150D01*
X4907205Y-22491150D02*
X4935777Y-22491150D01*
X4935777Y-22491150D02*
X4954825Y-22500674D01*
X4954825Y-22500674D02*
X4964348Y-22519722D01*
X4964348Y-22519722D02*
X4964348Y-22624484D01*
X5059586Y-22624484D02*
X5059586Y-22491150D01*
X5059586Y-22510198D02*
X5069110Y-22500674D01*
X5069110Y-22500674D02*
X5088158Y-22491150D01*
X5088158Y-22491150D02*
X5116729Y-22491150D01*
X5116729Y-22491150D02*
X5135777Y-22500674D01*
X5135777Y-22500674D02*
X5145301Y-22519722D01*
X5145301Y-22519722D02*
X5145301Y-22624484D01*
X5145301Y-22519722D02*
X5154825Y-22500674D01*
X5154825Y-22500674D02*
X5173872Y-22491150D01*
X5173872Y-22491150D02*
X5202444Y-22491150D01*
X5202444Y-22491150D02*
X5221491Y-22500674D01*
X5221491Y-22500674D02*
X5231015Y-22519722D01*
X5231015Y-22519722D02*
X5231015Y-22624484D01*
X5621491Y-22414960D02*
X5450063Y-22672103D01*
X5878634Y-22424484D02*
X5897682Y-22424484D01*
X5897682Y-22424484D02*
X5916729Y-22434008D01*
X5916729Y-22434008D02*
X5926253Y-22443531D01*
X5926253Y-22443531D02*
X5935777Y-22462579D01*
X5935777Y-22462579D02*
X5945301Y-22500674D01*
X5945301Y-22500674D02*
X5945301Y-22548293D01*
X5945301Y-22548293D02*
X5935777Y-22586388D01*
X5935777Y-22586388D02*
X5926253Y-22605436D01*
X5926253Y-22605436D02*
X5916729Y-22614960D01*
X5916729Y-22614960D02*
X5897682Y-22624484D01*
X5897682Y-22624484D02*
X5878634Y-22624484D01*
X5878634Y-22624484D02*
X5859586Y-22614960D01*
X5859586Y-22614960D02*
X5850063Y-22605436D01*
X5850063Y-22605436D02*
X5840539Y-22586388D01*
X5840539Y-22586388D02*
X5831015Y-22548293D01*
X5831015Y-22548293D02*
X5831015Y-22500674D01*
X5831015Y-22500674D02*
X5840539Y-22462579D01*
X5840539Y-22462579D02*
X5850063Y-22443531D01*
X5850063Y-22443531D02*
X5859586Y-22434008D01*
X5859586Y-22434008D02*
X5878634Y-22424484D01*
X6031015Y-22605436D02*
X6040539Y-22614960D01*
X6040539Y-22614960D02*
X6031015Y-22624484D01*
X6031015Y-22624484D02*
X6021491Y-22614960D01*
X6021491Y-22614960D02*
X6031015Y-22605436D01*
X6031015Y-22605436D02*
X6031015Y-22624484D01*
X6164348Y-22424484D02*
X6183396Y-22424484D01*
X6183396Y-22424484D02*
X6202444Y-22434008D01*
X6202444Y-22434008D02*
X6211967Y-22443531D01*
X6211967Y-22443531D02*
X6221491Y-22462579D01*
X6221491Y-22462579D02*
X6231015Y-22500674D01*
X6231015Y-22500674D02*
X6231015Y-22548293D01*
X6231015Y-22548293D02*
X6221491Y-22586388D01*
X6221491Y-22586388D02*
X6211967Y-22605436D01*
X6211967Y-22605436D02*
X6202444Y-22614960D01*
X6202444Y-22614960D02*
X6183396Y-22624484D01*
X6183396Y-22624484D02*
X6164348Y-22624484D01*
X6164348Y-22624484D02*
X6145301Y-22614960D01*
X6145301Y-22614960D02*
X6135777Y-22605436D01*
X6135777Y-22605436D02*
X6126253Y-22586388D01*
X6126253Y-22586388D02*
X6116729Y-22548293D01*
X6116729Y-22548293D02*
X6116729Y-22500674D01*
X6116729Y-22500674D02*
X6126253Y-22462579D01*
X6126253Y-22462579D02*
X6135777Y-22443531D01*
X6135777Y-22443531D02*
X6145301Y-22434008D01*
X6145301Y-22434008D02*
X6164348Y-22424484D01*
X6297682Y-22424484D02*
X6421491Y-22424484D01*
X6421491Y-22424484D02*
X6354825Y-22500674D01*
X6354825Y-22500674D02*
X6383396Y-22500674D01*
X6383396Y-22500674D02*
X6402444Y-22510198D01*
X6402444Y-22510198D02*
X6411967Y-22519722D01*
X6411967Y-22519722D02*
X6421491Y-22538769D01*
X6421491Y-22538769D02*
X6421491Y-22586388D01*
X6421491Y-22586388D02*
X6411967Y-22605436D01*
X6411967Y-22605436D02*
X6402444Y-22614960D01*
X6402444Y-22614960D02*
X6383396Y-22624484D01*
X6383396Y-22624484D02*
X6326253Y-22624484D01*
X6326253Y-22624484D02*
X6307206Y-22614960D01*
X6307206Y-22614960D02*
X6297682Y-22605436D01*
X6516729Y-22624484D02*
X6554825Y-22624484D01*
X6554825Y-22624484D02*
X6573872Y-22614960D01*
X6573872Y-22614960D02*
X6583396Y-22605436D01*
X6583396Y-22605436D02*
X6602444Y-22576865D01*
X6602444Y-22576865D02*
X6611967Y-22538769D01*
X6611967Y-22538769D02*
X6611967Y-22462579D01*
X6611967Y-22462579D02*
X6602444Y-22443531D01*
X6602444Y-22443531D02*
X6592920Y-22434008D01*
X6592920Y-22434008D02*
X6573872Y-22424484D01*
X6573872Y-22424484D02*
X6535777Y-22424484D01*
X6535777Y-22424484D02*
X6516729Y-22434008D01*
X6516729Y-22434008D02*
X6507206Y-22443531D01*
X6507206Y-22443531D02*
X6497682Y-22462579D01*
X6497682Y-22462579D02*
X6497682Y-22510198D01*
X6497682Y-22510198D02*
X6507206Y-22529246D01*
X6507206Y-22529246D02*
X6516729Y-22538769D01*
X6516729Y-22538769D02*
X6535777Y-22548293D01*
X6535777Y-22548293D02*
X6573872Y-22548293D01*
X6573872Y-22548293D02*
X6592920Y-22538769D01*
X6592920Y-22538769D02*
X6602444Y-22529246D01*
X6602444Y-22529246D02*
X6611967Y-22510198D01*
X6783396Y-22491150D02*
X6783396Y-22624484D01*
X6735777Y-22414960D02*
X6688158Y-22557817D01*
X6688158Y-22557817D02*
X6811967Y-22557817D01*
X6878634Y-22424484D02*
X6878634Y-22462579D01*
X6954825Y-22424484D02*
X6954825Y-22462579D01*
X7250063Y-22700674D02*
X7240539Y-22691150D01*
X7240539Y-22691150D02*
X7221491Y-22662579D01*
X7221491Y-22662579D02*
X7211968Y-22643531D01*
X7211968Y-22643531D02*
X7202444Y-22614960D01*
X7202444Y-22614960D02*
X7192920Y-22567341D01*
X7192920Y-22567341D02*
X7192920Y-22529246D01*
X7192920Y-22529246D02*
X7202444Y-22481627D01*
X7202444Y-22481627D02*
X7211968Y-22453055D01*
X7211968Y-22453055D02*
X7221491Y-22434008D01*
X7221491Y-22434008D02*
X7240539Y-22405436D01*
X7240539Y-22405436D02*
X7250063Y-22395912D01*
X7431015Y-22624484D02*
X7316729Y-22624484D01*
X7373872Y-22624484D02*
X7373872Y-22424484D01*
X7373872Y-22424484D02*
X7354825Y-22453055D01*
X7354825Y-22453055D02*
X7335777Y-22472103D01*
X7335777Y-22472103D02*
X7316729Y-22481627D01*
X7507206Y-22443531D02*
X7516729Y-22434008D01*
X7516729Y-22434008D02*
X7535777Y-22424484D01*
X7535777Y-22424484D02*
X7583396Y-22424484D01*
X7583396Y-22424484D02*
X7602444Y-22434008D01*
X7602444Y-22434008D02*
X7611968Y-22443531D01*
X7611968Y-22443531D02*
X7621491Y-22462579D01*
X7621491Y-22462579D02*
X7621491Y-22481627D01*
X7621491Y-22481627D02*
X7611968Y-22510198D01*
X7611968Y-22510198D02*
X7497682Y-22624484D01*
X7497682Y-22624484D02*
X7621491Y-22624484D01*
X7859587Y-22624484D02*
X7859587Y-22424484D01*
X7945301Y-22624484D02*
X7945301Y-22519722D01*
X7945301Y-22519722D02*
X7935777Y-22500674D01*
X7935777Y-22500674D02*
X7916730Y-22491150D01*
X7916730Y-22491150D02*
X7888158Y-22491150D01*
X7888158Y-22491150D02*
X7869110Y-22500674D01*
X7869110Y-22500674D02*
X7859587Y-22510198D01*
X8069110Y-22624484D02*
X8050063Y-22614960D01*
X8050063Y-22614960D02*
X8040539Y-22605436D01*
X8040539Y-22605436D02*
X8031015Y-22586388D01*
X8031015Y-22586388D02*
X8031015Y-22529246D01*
X8031015Y-22529246D02*
X8040539Y-22510198D01*
X8040539Y-22510198D02*
X8050063Y-22500674D01*
X8050063Y-22500674D02*
X8069110Y-22491150D01*
X8069110Y-22491150D02*
X8097682Y-22491150D01*
X8097682Y-22491150D02*
X8116730Y-22500674D01*
X8116730Y-22500674D02*
X8126253Y-22510198D01*
X8126253Y-22510198D02*
X8135777Y-22529246D01*
X8135777Y-22529246D02*
X8135777Y-22586388D01*
X8135777Y-22586388D02*
X8126253Y-22605436D01*
X8126253Y-22605436D02*
X8116730Y-22614960D01*
X8116730Y-22614960D02*
X8097682Y-22624484D01*
X8097682Y-22624484D02*
X8069110Y-22624484D01*
X8250063Y-22624484D02*
X8231015Y-22614960D01*
X8231015Y-22614960D02*
X8221491Y-22595912D01*
X8221491Y-22595912D02*
X8221491Y-22424484D01*
X8402444Y-22614960D02*
X8383396Y-22624484D01*
X8383396Y-22624484D02*
X8345301Y-22624484D01*
X8345301Y-22624484D02*
X8326253Y-22614960D01*
X8326253Y-22614960D02*
X8316730Y-22595912D01*
X8316730Y-22595912D02*
X8316730Y-22519722D01*
X8316730Y-22519722D02*
X8326253Y-22500674D01*
X8326253Y-22500674D02*
X8345301Y-22491150D01*
X8345301Y-22491150D02*
X8383396Y-22491150D01*
X8383396Y-22491150D02*
X8402444Y-22500674D01*
X8402444Y-22500674D02*
X8411968Y-22519722D01*
X8411968Y-22519722D02*
X8411968Y-22538769D01*
X8411968Y-22538769D02*
X8316730Y-22557817D01*
X8488158Y-22614960D02*
X8507206Y-22624484D01*
X8507206Y-22624484D02*
X8545301Y-22624484D01*
X8545301Y-22624484D02*
X8564349Y-22614960D01*
X8564349Y-22614960D02*
X8573873Y-22595912D01*
X8573873Y-22595912D02*
X8573873Y-22586388D01*
X8573873Y-22586388D02*
X8564349Y-22567341D01*
X8564349Y-22567341D02*
X8545301Y-22557817D01*
X8545301Y-22557817D02*
X8516730Y-22557817D01*
X8516730Y-22557817D02*
X8497682Y-22548293D01*
X8497682Y-22548293D02*
X8488158Y-22529246D01*
X8488158Y-22529246D02*
X8488158Y-22519722D01*
X8488158Y-22519722D02*
X8497682Y-22500674D01*
X8497682Y-22500674D02*
X8516730Y-22491150D01*
X8516730Y-22491150D02*
X8545301Y-22491150D01*
X8545301Y-22491150D02*
X8564349Y-22500674D01*
X8640539Y-22700674D02*
X8650063Y-22691150D01*
X8650063Y-22691150D02*
X8669111Y-22662579D01*
X8669111Y-22662579D02*
X8678634Y-22643531D01*
X8678634Y-22643531D02*
X8688158Y-22614960D01*
X8688158Y-22614960D02*
X8697682Y-22567341D01*
X8697682Y-22567341D02*
X8697682Y-22529246D01*
X8697682Y-22529246D02*
X8688158Y-22481627D01*
X8688158Y-22481627D02*
X8678634Y-22453055D01*
X8678634Y-22453055D02*
X8669111Y-22434008D01*
X8669111Y-22434008D02*
X8650063Y-22405436D01*
X8650063Y-22405436D02*
X8640539Y-22395912D01*
D12*
X3659005Y-22835615D02*
X3659005Y-22758384D01*
X3581774Y-22758384D01*
X3581774Y-22835615D01*
X3659005Y-22835615D01*
D11*
X4040539Y-22888484D02*
X3926253Y-22888484D01*
X3983396Y-22888484D02*
X3983396Y-22688484D01*
X3983396Y-22688484D02*
X3964348Y-22717055D01*
X3964348Y-22717055D02*
X3945301Y-22736103D01*
X3945301Y-22736103D02*
X3926253Y-22745627D01*
X4126253Y-22869436D02*
X4135777Y-22878960D01*
X4135777Y-22878960D02*
X4126253Y-22888484D01*
X4126253Y-22888484D02*
X4116729Y-22878960D01*
X4116729Y-22878960D02*
X4126253Y-22869436D01*
X4126253Y-22869436D02*
X4126253Y-22888484D01*
X4259586Y-22688484D02*
X4278634Y-22688484D01*
X4278634Y-22688484D02*
X4297682Y-22698008D01*
X4297682Y-22698008D02*
X4307205Y-22707531D01*
X4307205Y-22707531D02*
X4316729Y-22726579D01*
X4316729Y-22726579D02*
X4326253Y-22764674D01*
X4326253Y-22764674D02*
X4326253Y-22812293D01*
X4326253Y-22812293D02*
X4316729Y-22850388D01*
X4316729Y-22850388D02*
X4307205Y-22869436D01*
X4307205Y-22869436D02*
X4297682Y-22878960D01*
X4297682Y-22878960D02*
X4278634Y-22888484D01*
X4278634Y-22888484D02*
X4259586Y-22888484D01*
X4259586Y-22888484D02*
X4240539Y-22878960D01*
X4240539Y-22878960D02*
X4231015Y-22869436D01*
X4231015Y-22869436D02*
X4221491Y-22850388D01*
X4221491Y-22850388D02*
X4211967Y-22812293D01*
X4211967Y-22812293D02*
X4211967Y-22764674D01*
X4211967Y-22764674D02*
X4221491Y-22726579D01*
X4221491Y-22726579D02*
X4231015Y-22707531D01*
X4231015Y-22707531D02*
X4240539Y-22698008D01*
X4240539Y-22698008D02*
X4259586Y-22688484D01*
X4421491Y-22888484D02*
X4459586Y-22888484D01*
X4459586Y-22888484D02*
X4478634Y-22878960D01*
X4478634Y-22878960D02*
X4488158Y-22869436D01*
X4488158Y-22869436D02*
X4507205Y-22840865D01*
X4507205Y-22840865D02*
X4516729Y-22802769D01*
X4516729Y-22802769D02*
X4516729Y-22726579D01*
X4516729Y-22726579D02*
X4507205Y-22707531D01*
X4507205Y-22707531D02*
X4497682Y-22698008D01*
X4497682Y-22698008D02*
X4478634Y-22688484D01*
X4478634Y-22688484D02*
X4440539Y-22688484D01*
X4440539Y-22688484D02*
X4421491Y-22698008D01*
X4421491Y-22698008D02*
X4411967Y-22707531D01*
X4411967Y-22707531D02*
X4402444Y-22726579D01*
X4402444Y-22726579D02*
X4402444Y-22774198D01*
X4402444Y-22774198D02*
X4411967Y-22793246D01*
X4411967Y-22793246D02*
X4421491Y-22802769D01*
X4421491Y-22802769D02*
X4440539Y-22812293D01*
X4440539Y-22812293D02*
X4478634Y-22812293D01*
X4478634Y-22812293D02*
X4497682Y-22802769D01*
X4497682Y-22802769D02*
X4507205Y-22793246D01*
X4507205Y-22793246D02*
X4516729Y-22774198D01*
X4592920Y-22707531D02*
X4602444Y-22698008D01*
X4602444Y-22698008D02*
X4621491Y-22688484D01*
X4621491Y-22688484D02*
X4669110Y-22688484D01*
X4669110Y-22688484D02*
X4688158Y-22698008D01*
X4688158Y-22698008D02*
X4697682Y-22707531D01*
X4697682Y-22707531D02*
X4707205Y-22726579D01*
X4707205Y-22726579D02*
X4707205Y-22745627D01*
X4707205Y-22745627D02*
X4697682Y-22774198D01*
X4697682Y-22774198D02*
X4583396Y-22888484D01*
X4583396Y-22888484D02*
X4707205Y-22888484D01*
X4792920Y-22888484D02*
X4792920Y-22755150D01*
X4792920Y-22774198D02*
X4802444Y-22764674D01*
X4802444Y-22764674D02*
X4821491Y-22755150D01*
X4821491Y-22755150D02*
X4850063Y-22755150D01*
X4850063Y-22755150D02*
X4869110Y-22764674D01*
X4869110Y-22764674D02*
X4878634Y-22783722D01*
X4878634Y-22783722D02*
X4878634Y-22888484D01*
X4878634Y-22783722D02*
X4888158Y-22764674D01*
X4888158Y-22764674D02*
X4907205Y-22755150D01*
X4907205Y-22755150D02*
X4935777Y-22755150D01*
X4935777Y-22755150D02*
X4954825Y-22764674D01*
X4954825Y-22764674D02*
X4964348Y-22783722D01*
X4964348Y-22783722D02*
X4964348Y-22888484D01*
X5059586Y-22888484D02*
X5059586Y-22755150D01*
X5059586Y-22774198D02*
X5069110Y-22764674D01*
X5069110Y-22764674D02*
X5088158Y-22755150D01*
X5088158Y-22755150D02*
X5116729Y-22755150D01*
X5116729Y-22755150D02*
X5135777Y-22764674D01*
X5135777Y-22764674D02*
X5145301Y-22783722D01*
X5145301Y-22783722D02*
X5145301Y-22888484D01*
X5145301Y-22783722D02*
X5154825Y-22764674D01*
X5154825Y-22764674D02*
X5173872Y-22755150D01*
X5173872Y-22755150D02*
X5202444Y-22755150D01*
X5202444Y-22755150D02*
X5221491Y-22764674D01*
X5221491Y-22764674D02*
X5231015Y-22783722D01*
X5231015Y-22783722D02*
X5231015Y-22888484D01*
X5621491Y-22678960D02*
X5450063Y-22936103D01*
X5878634Y-22688484D02*
X5897682Y-22688484D01*
X5897682Y-22688484D02*
X5916729Y-22698008D01*
X5916729Y-22698008D02*
X5926253Y-22707531D01*
X5926253Y-22707531D02*
X5935777Y-22726579D01*
X5935777Y-22726579D02*
X5945301Y-22764674D01*
X5945301Y-22764674D02*
X5945301Y-22812293D01*
X5945301Y-22812293D02*
X5935777Y-22850388D01*
X5935777Y-22850388D02*
X5926253Y-22869436D01*
X5926253Y-22869436D02*
X5916729Y-22878960D01*
X5916729Y-22878960D02*
X5897682Y-22888484D01*
X5897682Y-22888484D02*
X5878634Y-22888484D01*
X5878634Y-22888484D02*
X5859586Y-22878960D01*
X5859586Y-22878960D02*
X5850063Y-22869436D01*
X5850063Y-22869436D02*
X5840539Y-22850388D01*
X5840539Y-22850388D02*
X5831015Y-22812293D01*
X5831015Y-22812293D02*
X5831015Y-22764674D01*
X5831015Y-22764674D02*
X5840539Y-22726579D01*
X5840539Y-22726579D02*
X5850063Y-22707531D01*
X5850063Y-22707531D02*
X5859586Y-22698008D01*
X5859586Y-22698008D02*
X5878634Y-22688484D01*
X6031015Y-22869436D02*
X6040539Y-22878960D01*
X6040539Y-22878960D02*
X6031015Y-22888484D01*
X6031015Y-22888484D02*
X6021491Y-22878960D01*
X6021491Y-22878960D02*
X6031015Y-22869436D01*
X6031015Y-22869436D02*
X6031015Y-22888484D01*
X6164348Y-22688484D02*
X6183396Y-22688484D01*
X6183396Y-22688484D02*
X6202444Y-22698008D01*
X6202444Y-22698008D02*
X6211967Y-22707531D01*
X6211967Y-22707531D02*
X6221491Y-22726579D01*
X6221491Y-22726579D02*
X6231015Y-22764674D01*
X6231015Y-22764674D02*
X6231015Y-22812293D01*
X6231015Y-22812293D02*
X6221491Y-22850388D01*
X6221491Y-22850388D02*
X6211967Y-22869436D01*
X6211967Y-22869436D02*
X6202444Y-22878960D01*
X6202444Y-22878960D02*
X6183396Y-22888484D01*
X6183396Y-22888484D02*
X6164348Y-22888484D01*
X6164348Y-22888484D02*
X6145301Y-22878960D01*
X6145301Y-22878960D02*
X6135777Y-22869436D01*
X6135777Y-22869436D02*
X6126253Y-22850388D01*
X6126253Y-22850388D02*
X6116729Y-22812293D01*
X6116729Y-22812293D02*
X6116729Y-22764674D01*
X6116729Y-22764674D02*
X6126253Y-22726579D01*
X6126253Y-22726579D02*
X6135777Y-22707531D01*
X6135777Y-22707531D02*
X6145301Y-22698008D01*
X6145301Y-22698008D02*
X6164348Y-22688484D01*
X6402444Y-22755150D02*
X6402444Y-22888484D01*
X6354825Y-22678960D02*
X6307206Y-22821817D01*
X6307206Y-22821817D02*
X6431015Y-22821817D01*
X6488158Y-22688484D02*
X6611967Y-22688484D01*
X6611967Y-22688484D02*
X6545301Y-22764674D01*
X6545301Y-22764674D02*
X6573872Y-22764674D01*
X6573872Y-22764674D02*
X6592920Y-22774198D01*
X6592920Y-22774198D02*
X6602444Y-22783722D01*
X6602444Y-22783722D02*
X6611967Y-22802769D01*
X6611967Y-22802769D02*
X6611967Y-22850388D01*
X6611967Y-22850388D02*
X6602444Y-22869436D01*
X6602444Y-22869436D02*
X6592920Y-22878960D01*
X6592920Y-22878960D02*
X6573872Y-22888484D01*
X6573872Y-22888484D02*
X6516729Y-22888484D01*
X6516729Y-22888484D02*
X6497682Y-22878960D01*
X6497682Y-22878960D02*
X6488158Y-22869436D01*
X6735777Y-22688484D02*
X6754825Y-22688484D01*
X6754825Y-22688484D02*
X6773872Y-22698008D01*
X6773872Y-22698008D02*
X6783396Y-22707531D01*
X6783396Y-22707531D02*
X6792920Y-22726579D01*
X6792920Y-22726579D02*
X6802444Y-22764674D01*
X6802444Y-22764674D02*
X6802444Y-22812293D01*
X6802444Y-22812293D02*
X6792920Y-22850388D01*
X6792920Y-22850388D02*
X6783396Y-22869436D01*
X6783396Y-22869436D02*
X6773872Y-22878960D01*
X6773872Y-22878960D02*
X6754825Y-22888484D01*
X6754825Y-22888484D02*
X6735777Y-22888484D01*
X6735777Y-22888484D02*
X6716729Y-22878960D01*
X6716729Y-22878960D02*
X6707206Y-22869436D01*
X6707206Y-22869436D02*
X6697682Y-22850388D01*
X6697682Y-22850388D02*
X6688158Y-22812293D01*
X6688158Y-22812293D02*
X6688158Y-22764674D01*
X6688158Y-22764674D02*
X6697682Y-22726579D01*
X6697682Y-22726579D02*
X6707206Y-22707531D01*
X6707206Y-22707531D02*
X6716729Y-22698008D01*
X6716729Y-22698008D02*
X6735777Y-22688484D01*
X6878634Y-22688484D02*
X6878634Y-22726579D01*
X6954825Y-22688484D02*
X6954825Y-22726579D01*
X7250063Y-22964674D02*
X7240539Y-22955150D01*
X7240539Y-22955150D02*
X7221491Y-22926579D01*
X7221491Y-22926579D02*
X7211968Y-22907531D01*
X7211968Y-22907531D02*
X7202444Y-22878960D01*
X7202444Y-22878960D02*
X7192920Y-22831341D01*
X7192920Y-22831341D02*
X7192920Y-22793246D01*
X7192920Y-22793246D02*
X7202444Y-22745627D01*
X7202444Y-22745627D02*
X7211968Y-22717055D01*
X7211968Y-22717055D02*
X7221491Y-22698008D01*
X7221491Y-22698008D02*
X7240539Y-22669436D01*
X7240539Y-22669436D02*
X7250063Y-22659912D01*
X7316729Y-22707531D02*
X7326253Y-22698008D01*
X7326253Y-22698008D02*
X7345301Y-22688484D01*
X7345301Y-22688484D02*
X7392920Y-22688484D01*
X7392920Y-22688484D02*
X7411968Y-22698008D01*
X7411968Y-22698008D02*
X7421491Y-22707531D01*
X7421491Y-22707531D02*
X7431015Y-22726579D01*
X7431015Y-22726579D02*
X7431015Y-22745627D01*
X7431015Y-22745627D02*
X7421491Y-22774198D01*
X7421491Y-22774198D02*
X7307206Y-22888484D01*
X7307206Y-22888484D02*
X7431015Y-22888484D01*
X7602444Y-22755150D02*
X7602444Y-22888484D01*
X7554825Y-22678960D02*
X7507206Y-22821817D01*
X7507206Y-22821817D02*
X7631015Y-22821817D01*
X7859587Y-22888484D02*
X7859587Y-22688484D01*
X7945301Y-22888484D02*
X7945301Y-22783722D01*
X7945301Y-22783722D02*
X7935777Y-22764674D01*
X7935777Y-22764674D02*
X7916730Y-22755150D01*
X7916730Y-22755150D02*
X7888158Y-22755150D01*
X7888158Y-22755150D02*
X7869110Y-22764674D01*
X7869110Y-22764674D02*
X7859587Y-22774198D01*
X8069110Y-22888484D02*
X8050063Y-22878960D01*
X8050063Y-22878960D02*
X8040539Y-22869436D01*
X8040539Y-22869436D02*
X8031015Y-22850388D01*
X8031015Y-22850388D02*
X8031015Y-22793246D01*
X8031015Y-22793246D02*
X8040539Y-22774198D01*
X8040539Y-22774198D02*
X8050063Y-22764674D01*
X8050063Y-22764674D02*
X8069110Y-22755150D01*
X8069110Y-22755150D02*
X8097682Y-22755150D01*
X8097682Y-22755150D02*
X8116730Y-22764674D01*
X8116730Y-22764674D02*
X8126253Y-22774198D01*
X8126253Y-22774198D02*
X8135777Y-22793246D01*
X8135777Y-22793246D02*
X8135777Y-22850388D01*
X8135777Y-22850388D02*
X8126253Y-22869436D01*
X8126253Y-22869436D02*
X8116730Y-22878960D01*
X8116730Y-22878960D02*
X8097682Y-22888484D01*
X8097682Y-22888484D02*
X8069110Y-22888484D01*
X8250063Y-22888484D02*
X8231015Y-22878960D01*
X8231015Y-22878960D02*
X8221491Y-22859912D01*
X8221491Y-22859912D02*
X8221491Y-22688484D01*
X8402444Y-22878960D02*
X8383396Y-22888484D01*
X8383396Y-22888484D02*
X8345301Y-22888484D01*
X8345301Y-22888484D02*
X8326253Y-22878960D01*
X8326253Y-22878960D02*
X8316730Y-22859912D01*
X8316730Y-22859912D02*
X8316730Y-22783722D01*
X8316730Y-22783722D02*
X8326253Y-22764674D01*
X8326253Y-22764674D02*
X8345301Y-22755150D01*
X8345301Y-22755150D02*
X8383396Y-22755150D01*
X8383396Y-22755150D02*
X8402444Y-22764674D01*
X8402444Y-22764674D02*
X8411968Y-22783722D01*
X8411968Y-22783722D02*
X8411968Y-22802769D01*
X8411968Y-22802769D02*
X8316730Y-22821817D01*
X8488158Y-22878960D02*
X8507206Y-22888484D01*
X8507206Y-22888484D02*
X8545301Y-22888484D01*
X8545301Y-22888484D02*
X8564349Y-22878960D01*
X8564349Y-22878960D02*
X8573873Y-22859912D01*
X8573873Y-22859912D02*
X8573873Y-22850388D01*
X8573873Y-22850388D02*
X8564349Y-22831341D01*
X8564349Y-22831341D02*
X8545301Y-22821817D01*
X8545301Y-22821817D02*
X8516730Y-22821817D01*
X8516730Y-22821817D02*
X8497682Y-22812293D01*
X8497682Y-22812293D02*
X8488158Y-22793246D01*
X8488158Y-22793246D02*
X8488158Y-22783722D01*
X8488158Y-22783722D02*
X8497682Y-22764674D01*
X8497682Y-22764674D02*
X8516730Y-22755150D01*
X8516730Y-22755150D02*
X8545301Y-22755150D01*
X8545301Y-22755150D02*
X8564349Y-22764674D01*
X8640539Y-22964674D02*
X8650063Y-22955150D01*
X8650063Y-22955150D02*
X8669111Y-22926579D01*
X8669111Y-22926579D02*
X8678634Y-22907531D01*
X8678634Y-22907531D02*
X8688158Y-22878960D01*
X8688158Y-22878960D02*
X8697682Y-22831341D01*
X8697682Y-22831341D02*
X8697682Y-22793246D01*
X8697682Y-22793246D02*
X8688158Y-22745627D01*
X8688158Y-22745627D02*
X8678634Y-22717055D01*
X8678634Y-22717055D02*
X8669111Y-22698008D01*
X8669111Y-22698008D02*
X8650063Y-22669436D01*
X8650063Y-22669436D02*
X8640539Y-22659912D01*
X3575000Y-23161000D02*
X3675000Y-23061000D01*
X3575000Y-22961000D01*
X3475000Y-23061000D01*
X3575000Y-23161000D01*
X3926253Y-22971531D02*
X3935777Y-22962008D01*
X3935777Y-22962008D02*
X3954824Y-22952484D01*
X3954824Y-22952484D02*
X4002443Y-22952484D01*
X4002443Y-22952484D02*
X4021491Y-22962008D01*
X4021491Y-22962008D02*
X4031015Y-22971531D01*
X4031015Y-22971531D02*
X4040539Y-22990579D01*
X4040539Y-22990579D02*
X4040539Y-23009627D01*
X4040539Y-23009627D02*
X4031015Y-23038198D01*
X4031015Y-23038198D02*
X3916729Y-23152484D01*
X3916729Y-23152484D02*
X4040539Y-23152484D01*
X4126253Y-23133436D02*
X4135777Y-23142960D01*
X4135777Y-23142960D02*
X4126253Y-23152484D01*
X4126253Y-23152484D02*
X4116729Y-23142960D01*
X4116729Y-23142960D02*
X4126253Y-23133436D01*
X4126253Y-23133436D02*
X4126253Y-23152484D01*
X4211967Y-22971531D02*
X4221491Y-22962008D01*
X4221491Y-22962008D02*
X4240539Y-22952484D01*
X4240539Y-22952484D02*
X4288158Y-22952484D01*
X4288158Y-22952484D02*
X4307205Y-22962008D01*
X4307205Y-22962008D02*
X4316729Y-22971531D01*
X4316729Y-22971531D02*
X4326253Y-22990579D01*
X4326253Y-22990579D02*
X4326253Y-23009627D01*
X4326253Y-23009627D02*
X4316729Y-23038198D01*
X4316729Y-23038198D02*
X4202444Y-23152484D01*
X4202444Y-23152484D02*
X4326253Y-23152484D01*
X4450063Y-22952484D02*
X4469110Y-22952484D01*
X4469110Y-22952484D02*
X4488158Y-22962008D01*
X4488158Y-22962008D02*
X4497682Y-22971531D01*
X4497682Y-22971531D02*
X4507205Y-22990579D01*
X4507205Y-22990579D02*
X4516729Y-23028674D01*
X4516729Y-23028674D02*
X4516729Y-23076293D01*
X4516729Y-23076293D02*
X4507205Y-23114388D01*
X4507205Y-23114388D02*
X4497682Y-23133436D01*
X4497682Y-23133436D02*
X4488158Y-23142960D01*
X4488158Y-23142960D02*
X4469110Y-23152484D01*
X4469110Y-23152484D02*
X4450063Y-23152484D01*
X4450063Y-23152484D02*
X4431015Y-23142960D01*
X4431015Y-23142960D02*
X4421491Y-23133436D01*
X4421491Y-23133436D02*
X4411967Y-23114388D01*
X4411967Y-23114388D02*
X4402444Y-23076293D01*
X4402444Y-23076293D02*
X4402444Y-23028674D01*
X4402444Y-23028674D02*
X4411967Y-22990579D01*
X4411967Y-22990579D02*
X4421491Y-22971531D01*
X4421491Y-22971531D02*
X4431015Y-22962008D01*
X4431015Y-22962008D02*
X4450063Y-22952484D01*
X4640539Y-22952484D02*
X4659586Y-22952484D01*
X4659586Y-22952484D02*
X4678634Y-22962008D01*
X4678634Y-22962008D02*
X4688158Y-22971531D01*
X4688158Y-22971531D02*
X4697682Y-22990579D01*
X4697682Y-22990579D02*
X4707205Y-23028674D01*
X4707205Y-23028674D02*
X4707205Y-23076293D01*
X4707205Y-23076293D02*
X4697682Y-23114388D01*
X4697682Y-23114388D02*
X4688158Y-23133436D01*
X4688158Y-23133436D02*
X4678634Y-23142960D01*
X4678634Y-23142960D02*
X4659586Y-23152484D01*
X4659586Y-23152484D02*
X4640539Y-23152484D01*
X4640539Y-23152484D02*
X4621491Y-23142960D01*
X4621491Y-23142960D02*
X4611967Y-23133436D01*
X4611967Y-23133436D02*
X4602444Y-23114388D01*
X4602444Y-23114388D02*
X4592920Y-23076293D01*
X4592920Y-23076293D02*
X4592920Y-23028674D01*
X4592920Y-23028674D02*
X4602444Y-22990579D01*
X4602444Y-22990579D02*
X4611967Y-22971531D01*
X4611967Y-22971531D02*
X4621491Y-22962008D01*
X4621491Y-22962008D02*
X4640539Y-22952484D01*
X4792920Y-23152484D02*
X4792920Y-23019150D01*
X4792920Y-23038198D02*
X4802444Y-23028674D01*
X4802444Y-23028674D02*
X4821491Y-23019150D01*
X4821491Y-23019150D02*
X4850063Y-23019150D01*
X4850063Y-23019150D02*
X4869110Y-23028674D01*
X4869110Y-23028674D02*
X4878634Y-23047722D01*
X4878634Y-23047722D02*
X4878634Y-23152484D01*
X4878634Y-23047722D02*
X4888158Y-23028674D01*
X4888158Y-23028674D02*
X4907205Y-23019150D01*
X4907205Y-23019150D02*
X4935777Y-23019150D01*
X4935777Y-23019150D02*
X4954825Y-23028674D01*
X4954825Y-23028674D02*
X4964348Y-23047722D01*
X4964348Y-23047722D02*
X4964348Y-23152484D01*
X5059586Y-23152484D02*
X5059586Y-23019150D01*
X5059586Y-23038198D02*
X5069110Y-23028674D01*
X5069110Y-23028674D02*
X5088158Y-23019150D01*
X5088158Y-23019150D02*
X5116729Y-23019150D01*
X5116729Y-23019150D02*
X5135777Y-23028674D01*
X5135777Y-23028674D02*
X5145301Y-23047722D01*
X5145301Y-23047722D02*
X5145301Y-23152484D01*
X5145301Y-23047722D02*
X5154825Y-23028674D01*
X5154825Y-23028674D02*
X5173872Y-23019150D01*
X5173872Y-23019150D02*
X5202444Y-23019150D01*
X5202444Y-23019150D02*
X5221491Y-23028674D01*
X5221491Y-23028674D02*
X5231015Y-23047722D01*
X5231015Y-23047722D02*
X5231015Y-23152484D01*
X5621491Y-22942960D02*
X5450063Y-23200103D01*
X5878634Y-22952484D02*
X5897682Y-22952484D01*
X5897682Y-22952484D02*
X5916729Y-22962008D01*
X5916729Y-22962008D02*
X5926253Y-22971531D01*
X5926253Y-22971531D02*
X5935777Y-22990579D01*
X5935777Y-22990579D02*
X5945301Y-23028674D01*
X5945301Y-23028674D02*
X5945301Y-23076293D01*
X5945301Y-23076293D02*
X5935777Y-23114388D01*
X5935777Y-23114388D02*
X5926253Y-23133436D01*
X5926253Y-23133436D02*
X5916729Y-23142960D01*
X5916729Y-23142960D02*
X5897682Y-23152484D01*
X5897682Y-23152484D02*
X5878634Y-23152484D01*
X5878634Y-23152484D02*
X5859586Y-23142960D01*
X5859586Y-23142960D02*
X5850063Y-23133436D01*
X5850063Y-23133436D02*
X5840539Y-23114388D01*
X5840539Y-23114388D02*
X5831015Y-23076293D01*
X5831015Y-23076293D02*
X5831015Y-23028674D01*
X5831015Y-23028674D02*
X5840539Y-22990579D01*
X5840539Y-22990579D02*
X5850063Y-22971531D01*
X5850063Y-22971531D02*
X5859586Y-22962008D01*
X5859586Y-22962008D02*
X5878634Y-22952484D01*
X6031015Y-23133436D02*
X6040539Y-23142960D01*
X6040539Y-23142960D02*
X6031015Y-23152484D01*
X6031015Y-23152484D02*
X6021491Y-23142960D01*
X6021491Y-23142960D02*
X6031015Y-23133436D01*
X6031015Y-23133436D02*
X6031015Y-23152484D01*
X6164348Y-22952484D02*
X6183396Y-22952484D01*
X6183396Y-22952484D02*
X6202444Y-22962008D01*
X6202444Y-22962008D02*
X6211967Y-22971531D01*
X6211967Y-22971531D02*
X6221491Y-22990579D01*
X6221491Y-22990579D02*
X6231015Y-23028674D01*
X6231015Y-23028674D02*
X6231015Y-23076293D01*
X6231015Y-23076293D02*
X6221491Y-23114388D01*
X6221491Y-23114388D02*
X6211967Y-23133436D01*
X6211967Y-23133436D02*
X6202444Y-23142960D01*
X6202444Y-23142960D02*
X6183396Y-23152484D01*
X6183396Y-23152484D02*
X6164348Y-23152484D01*
X6164348Y-23152484D02*
X6145301Y-23142960D01*
X6145301Y-23142960D02*
X6135777Y-23133436D01*
X6135777Y-23133436D02*
X6126253Y-23114388D01*
X6126253Y-23114388D02*
X6116729Y-23076293D01*
X6116729Y-23076293D02*
X6116729Y-23028674D01*
X6116729Y-23028674D02*
X6126253Y-22990579D01*
X6126253Y-22990579D02*
X6135777Y-22971531D01*
X6135777Y-22971531D02*
X6145301Y-22962008D01*
X6145301Y-22962008D02*
X6164348Y-22952484D01*
X6345301Y-23038198D02*
X6326253Y-23028674D01*
X6326253Y-23028674D02*
X6316729Y-23019150D01*
X6316729Y-23019150D02*
X6307206Y-23000103D01*
X6307206Y-23000103D02*
X6307206Y-22990579D01*
X6307206Y-22990579D02*
X6316729Y-22971531D01*
X6316729Y-22971531D02*
X6326253Y-22962008D01*
X6326253Y-22962008D02*
X6345301Y-22952484D01*
X6345301Y-22952484D02*
X6383396Y-22952484D01*
X6383396Y-22952484D02*
X6402444Y-22962008D01*
X6402444Y-22962008D02*
X6411967Y-22971531D01*
X6411967Y-22971531D02*
X6421491Y-22990579D01*
X6421491Y-22990579D02*
X6421491Y-23000103D01*
X6421491Y-23000103D02*
X6411967Y-23019150D01*
X6411967Y-23019150D02*
X6402444Y-23028674D01*
X6402444Y-23028674D02*
X6383396Y-23038198D01*
X6383396Y-23038198D02*
X6345301Y-23038198D01*
X6345301Y-23038198D02*
X6326253Y-23047722D01*
X6326253Y-23047722D02*
X6316729Y-23057246D01*
X6316729Y-23057246D02*
X6307206Y-23076293D01*
X6307206Y-23076293D02*
X6307206Y-23114388D01*
X6307206Y-23114388D02*
X6316729Y-23133436D01*
X6316729Y-23133436D02*
X6326253Y-23142960D01*
X6326253Y-23142960D02*
X6345301Y-23152484D01*
X6345301Y-23152484D02*
X6383396Y-23152484D01*
X6383396Y-23152484D02*
X6402444Y-23142960D01*
X6402444Y-23142960D02*
X6411967Y-23133436D01*
X6411967Y-23133436D02*
X6421491Y-23114388D01*
X6421491Y-23114388D02*
X6421491Y-23076293D01*
X6421491Y-23076293D02*
X6411967Y-23057246D01*
X6411967Y-23057246D02*
X6402444Y-23047722D01*
X6402444Y-23047722D02*
X6383396Y-23038198D01*
X6592920Y-22952484D02*
X6554825Y-22952484D01*
X6554825Y-22952484D02*
X6535777Y-22962008D01*
X6535777Y-22962008D02*
X6526253Y-22971531D01*
X6526253Y-22971531D02*
X6507206Y-23000103D01*
X6507206Y-23000103D02*
X6497682Y-23038198D01*
X6497682Y-23038198D02*
X6497682Y-23114388D01*
X6497682Y-23114388D02*
X6507206Y-23133436D01*
X6507206Y-23133436D02*
X6516729Y-23142960D01*
X6516729Y-23142960D02*
X6535777Y-23152484D01*
X6535777Y-23152484D02*
X6573872Y-23152484D01*
X6573872Y-23152484D02*
X6592920Y-23142960D01*
X6592920Y-23142960D02*
X6602444Y-23133436D01*
X6602444Y-23133436D02*
X6611967Y-23114388D01*
X6611967Y-23114388D02*
X6611967Y-23066769D01*
X6611967Y-23066769D02*
X6602444Y-23047722D01*
X6602444Y-23047722D02*
X6592920Y-23038198D01*
X6592920Y-23038198D02*
X6573872Y-23028674D01*
X6573872Y-23028674D02*
X6535777Y-23028674D01*
X6535777Y-23028674D02*
X6516729Y-23038198D01*
X6516729Y-23038198D02*
X6507206Y-23047722D01*
X6507206Y-23047722D02*
X6497682Y-23066769D01*
X6783396Y-22952484D02*
X6745301Y-22952484D01*
X6745301Y-22952484D02*
X6726253Y-22962008D01*
X6726253Y-22962008D02*
X6716729Y-22971531D01*
X6716729Y-22971531D02*
X6697682Y-23000103D01*
X6697682Y-23000103D02*
X6688158Y-23038198D01*
X6688158Y-23038198D02*
X6688158Y-23114388D01*
X6688158Y-23114388D02*
X6697682Y-23133436D01*
X6697682Y-23133436D02*
X6707206Y-23142960D01*
X6707206Y-23142960D02*
X6726253Y-23152484D01*
X6726253Y-23152484D02*
X6764348Y-23152484D01*
X6764348Y-23152484D02*
X6783396Y-23142960D01*
X6783396Y-23142960D02*
X6792920Y-23133436D01*
X6792920Y-23133436D02*
X6802444Y-23114388D01*
X6802444Y-23114388D02*
X6802444Y-23066769D01*
X6802444Y-23066769D02*
X6792920Y-23047722D01*
X6792920Y-23047722D02*
X6783396Y-23038198D01*
X6783396Y-23038198D02*
X6764348Y-23028674D01*
X6764348Y-23028674D02*
X6726253Y-23028674D01*
X6726253Y-23028674D02*
X6707206Y-23038198D01*
X6707206Y-23038198D02*
X6697682Y-23047722D01*
X6697682Y-23047722D02*
X6688158Y-23066769D01*
X6878634Y-22952484D02*
X6878634Y-22990579D01*
X6954825Y-22952484D02*
X6954825Y-22990579D01*
X7250063Y-23228674D02*
X7240539Y-23219150D01*
X7240539Y-23219150D02*
X7221491Y-23190579D01*
X7221491Y-23190579D02*
X7211968Y-23171531D01*
X7211968Y-23171531D02*
X7202444Y-23142960D01*
X7202444Y-23142960D02*
X7192920Y-23095341D01*
X7192920Y-23095341D02*
X7192920Y-23057246D01*
X7192920Y-23057246D02*
X7202444Y-23009627D01*
X7202444Y-23009627D02*
X7211968Y-22981055D01*
X7211968Y-22981055D02*
X7221491Y-22962008D01*
X7221491Y-22962008D02*
X7240539Y-22933436D01*
X7240539Y-22933436D02*
X7250063Y-22923912D01*
X7354825Y-23038198D02*
X7335777Y-23028674D01*
X7335777Y-23028674D02*
X7326253Y-23019150D01*
X7326253Y-23019150D02*
X7316729Y-23000103D01*
X7316729Y-23000103D02*
X7316729Y-22990579D01*
X7316729Y-22990579D02*
X7326253Y-22971531D01*
X7326253Y-22971531D02*
X7335777Y-22962008D01*
X7335777Y-22962008D02*
X7354825Y-22952484D01*
X7354825Y-22952484D02*
X7392920Y-22952484D01*
X7392920Y-22952484D02*
X7411968Y-22962008D01*
X7411968Y-22962008D02*
X7421491Y-22971531D01*
X7421491Y-22971531D02*
X7431015Y-22990579D01*
X7431015Y-22990579D02*
X7431015Y-23000103D01*
X7431015Y-23000103D02*
X7421491Y-23019150D01*
X7421491Y-23019150D02*
X7411968Y-23028674D01*
X7411968Y-23028674D02*
X7392920Y-23038198D01*
X7392920Y-23038198D02*
X7354825Y-23038198D01*
X7354825Y-23038198D02*
X7335777Y-23047722D01*
X7335777Y-23047722D02*
X7326253Y-23057246D01*
X7326253Y-23057246D02*
X7316729Y-23076293D01*
X7316729Y-23076293D02*
X7316729Y-23114388D01*
X7316729Y-23114388D02*
X7326253Y-23133436D01*
X7326253Y-23133436D02*
X7335777Y-23142960D01*
X7335777Y-23142960D02*
X7354825Y-23152484D01*
X7354825Y-23152484D02*
X7392920Y-23152484D01*
X7392920Y-23152484D02*
X7411968Y-23142960D01*
X7411968Y-23142960D02*
X7421491Y-23133436D01*
X7421491Y-23133436D02*
X7431015Y-23114388D01*
X7431015Y-23114388D02*
X7431015Y-23076293D01*
X7431015Y-23076293D02*
X7421491Y-23057246D01*
X7421491Y-23057246D02*
X7411968Y-23047722D01*
X7411968Y-23047722D02*
X7392920Y-23038198D01*
X7669110Y-23152484D02*
X7669110Y-22952484D01*
X7754825Y-23152484D02*
X7754825Y-23047722D01*
X7754825Y-23047722D02*
X7745301Y-23028674D01*
X7745301Y-23028674D02*
X7726253Y-23019150D01*
X7726253Y-23019150D02*
X7697682Y-23019150D01*
X7697682Y-23019150D02*
X7678634Y-23028674D01*
X7678634Y-23028674D02*
X7669110Y-23038198D01*
X7878634Y-23152484D02*
X7859587Y-23142960D01*
X7859587Y-23142960D02*
X7850063Y-23133436D01*
X7850063Y-23133436D02*
X7840539Y-23114388D01*
X7840539Y-23114388D02*
X7840539Y-23057246D01*
X7840539Y-23057246D02*
X7850063Y-23038198D01*
X7850063Y-23038198D02*
X7859587Y-23028674D01*
X7859587Y-23028674D02*
X7878634Y-23019150D01*
X7878634Y-23019150D02*
X7907206Y-23019150D01*
X7907206Y-23019150D02*
X7926253Y-23028674D01*
X7926253Y-23028674D02*
X7935777Y-23038198D01*
X7935777Y-23038198D02*
X7945301Y-23057246D01*
X7945301Y-23057246D02*
X7945301Y-23114388D01*
X7945301Y-23114388D02*
X7935777Y-23133436D01*
X7935777Y-23133436D02*
X7926253Y-23142960D01*
X7926253Y-23142960D02*
X7907206Y-23152484D01*
X7907206Y-23152484D02*
X7878634Y-23152484D01*
X8059587Y-23152484D02*
X8040539Y-23142960D01*
X8040539Y-23142960D02*
X8031015Y-23123912D01*
X8031015Y-23123912D02*
X8031015Y-22952484D01*
X8211968Y-23142960D02*
X8192920Y-23152484D01*
X8192920Y-23152484D02*
X8154825Y-23152484D01*
X8154825Y-23152484D02*
X8135777Y-23142960D01*
X8135777Y-23142960D02*
X8126253Y-23123912D01*
X8126253Y-23123912D02*
X8126253Y-23047722D01*
X8126253Y-23047722D02*
X8135777Y-23028674D01*
X8135777Y-23028674D02*
X8154825Y-23019150D01*
X8154825Y-23019150D02*
X8192920Y-23019150D01*
X8192920Y-23019150D02*
X8211968Y-23028674D01*
X8211968Y-23028674D02*
X8221491Y-23047722D01*
X8221491Y-23047722D02*
X8221491Y-23066769D01*
X8221491Y-23066769D02*
X8126253Y-23085817D01*
X8297682Y-23142960D02*
X8316730Y-23152484D01*
X8316730Y-23152484D02*
X8354825Y-23152484D01*
X8354825Y-23152484D02*
X8373872Y-23142960D01*
X8373872Y-23142960D02*
X8383396Y-23123912D01*
X8383396Y-23123912D02*
X8383396Y-23114388D01*
X8383396Y-23114388D02*
X8373872Y-23095341D01*
X8373872Y-23095341D02*
X8354825Y-23085817D01*
X8354825Y-23085817D02*
X8326253Y-23085817D01*
X8326253Y-23085817D02*
X8307206Y-23076293D01*
X8307206Y-23076293D02*
X8297682Y-23057246D01*
X8297682Y-23057246D02*
X8297682Y-23047722D01*
X8297682Y-23047722D02*
X8307206Y-23028674D01*
X8307206Y-23028674D02*
X8326253Y-23019150D01*
X8326253Y-23019150D02*
X8354825Y-23019150D01*
X8354825Y-23019150D02*
X8373872Y-23028674D01*
X8450063Y-23228674D02*
X8459587Y-23219150D01*
X8459587Y-23219150D02*
X8478634Y-23190579D01*
X8478634Y-23190579D02*
X8488158Y-23171531D01*
X8488158Y-23171531D02*
X8497682Y-23142960D01*
X8497682Y-23142960D02*
X8507206Y-23095341D01*
X8507206Y-23095341D02*
X8507206Y-23057246D01*
X8507206Y-23057246D02*
X8497682Y-23009627D01*
X8497682Y-23009627D02*
X8488158Y-22981055D01*
X8488158Y-22981055D02*
X8478634Y-22962008D01*
X8478634Y-22962008D02*
X8459587Y-22933436D01*
X8459587Y-22933436D02*
X8450063Y-22923912D01*
M02*
