M48
; DRILL file {KiCad 8.0.1} date 2024-05-03T20:41:23+0200
; FORMAT={-:-/ absolute / inch / decimal}
; #@! TF.CreationDate,2024-05-03T20:41:23+02:00
; #@! TF.GenerationSoftware,Kicad,Pcbnew,8.0.1
; #@! TF.FileFunction,NonPlated,1,2,NPTH
FMAT,2
INCH
; #@! TA.AperFunction,NonPlated,NPTH,ComponentDrill
T1C0.0591
; #@! TA.AperFunction,NonPlated,NPTH,ComponentDrill
T2C0.0670
; #@! TA.AperFunction,NonPlated,NPTH,ComponentDrill
T3C0.1181
; #@! TA.AperFunction,NonPlated,NPTH,ComponentDrill
T4C0.1570
%
G90
G05
T2
X1.9499Y-5.2612
X2.2308Y-4.5658
X2.3207Y-5.411
X2.5118Y-3.8704
X2.6017Y-4.7156
X2.6453Y-5.5421
X2.7927Y-3.175
X2.8827Y-4.0203
X2.9262Y-4.8468
X3.0161Y-5.692
X3.0737Y-2.4796
X3.1636Y-3.3249
X3.2072Y-4.1514
X3.2971Y-4.9966
X3.3406Y-5.8231
X3.4446Y-2.6295
X3.4881Y-3.456
X3.578Y-4.3012
X3.6216Y-5.1277
X3.7115Y-5.9729
X3.7691Y-2.7606
X3.859Y-3.6058
X3.9026Y-4.4323
X3.9925Y-5.2776
X4.036Y-6.1041
X4.14Y-2.9104
X4.1835Y-3.7369
X4.2734Y-4.5822
X4.317Y-5.4087
X4.4069Y-6.2539
X4.4645Y-3.0415
X4.5544Y-3.8868
X4.5979Y-4.7133
X4.6879Y-5.5585
X4.7314Y-6.385
X4.8353Y-3.1914
X4.8789Y-4.0179
X4.9688Y-4.8631
X5.0124Y-5.6896
X5.1023Y-6.5348
X5.1599Y-3.3225
X5.2498Y-4.1677
X5.2933Y-4.9942
X5.3833Y-5.8395
X5.4268Y-6.666
X5.5307Y-3.4723
X5.5743Y-4.2988
X5.6642Y-5.1441
X5.7078Y-5.9706
X5.7977Y-6.8158
X5.8552Y-3.6035
X5.9452Y-4.4487
X5.9887Y-5.2752
X6.0786Y-6.1204
X6.2261Y-3.7533
X6.2697Y-4.5798
X6.3596Y-5.425
X6.5506Y-3.8844
X6.6405Y-4.7296
X6.9215Y-4.0343
X7.0678Y-5.402
X7.0678Y-6.102
X7.0678Y-6.802
X7.4094Y-7.502
X7.4678Y-5.402
X7.4678Y-6.102
X7.4678Y-6.802
X7.7511Y-5.402
X7.7511Y-6.102
X7.7511Y-6.802
X7.8094Y-7.502
X8.1511Y-5.402
X8.1511Y-6.102
X8.1511Y-6.802
X8.4345Y-5.402
X8.4345Y-6.102
X8.4345Y-6.802
X8.8345Y-5.402
X8.8345Y-6.102
X8.8345Y-6.802
X8.9807Y-4.0342
X9.2617Y-4.7296
X9.3516Y-3.8844
X9.5426Y-5.425
X9.6325Y-4.5798
X9.6761Y-3.7533
X9.8236Y-6.1204
X9.9135Y-5.2752
X9.9571Y-4.4487
X10.047Y-3.6034
X10.1045Y-6.8158
X10.1945Y-5.9705
X10.238Y-5.144
X10.3279Y-4.2988
X10.3715Y-3.4723
X10.4754Y-6.6659
X10.519Y-5.8394
X10.6089Y-4.9942
X10.6524Y-4.1677
X10.7424Y-3.3225
X10.7999Y-6.5348
X10.8898Y-5.6896
X10.9334Y-4.8631
X11.0233Y-4.0179
X11.0669Y-3.1914
X11.1708Y-6.385
X11.2144Y-5.5585
X11.3043Y-4.7132
X11.3478Y-3.8867
X11.4378Y-3.0415
X11.4953Y-6.2539
X11.5852Y-5.4086
X11.6288Y-4.5821
X11.7187Y-3.7369
X11.7623Y-2.9104
X11.8662Y-6.104
X11.9097Y-5.2775
X11.9997Y-4.4323
X12.0432Y-3.6058
X12.1331Y-2.7606
X12.1907Y-5.9729
X12.2806Y-5.1277
X12.3242Y-4.3012
X12.4141Y-3.4559
X12.4577Y-2.6294
X12.5616Y-5.8231
X12.6051Y-4.9966
X12.6951Y-4.1513
X12.7386Y-3.3248
X12.8285Y-2.4796
X12.8861Y-5.692
X12.976Y-4.8467
X13.0196Y-4.0202
X13.1095Y-3.175
X13.257Y-5.5421
X13.3005Y-4.7156
X13.3904Y-3.8704
X13.5815Y-5.411
X13.6714Y-4.5658
X13.9524Y-5.2612
T3
X2.0337Y-5.1872
X2.3029Y-5.1881
X2.3146Y-4.4918
X2.5839Y-4.4927
X2.5956Y-3.7964
X2.7291Y-5.4682
X2.8649Y-3.7974
X2.8766Y-3.101
X2.9983Y-5.4691
X3.01Y-4.7728
X3.1458Y-3.102
X3.1575Y-2.4056
X3.2793Y-4.7737
X3.291Y-4.0774
X3.4245Y-5.7491
X3.4268Y-2.4066
X3.5602Y-4.0783
X3.5719Y-3.382
X3.6937Y-5.75
X3.7054Y-5.0537
X3.8412Y-3.3829
X3.8529Y-2.6866
X3.9747Y-5.0547
X3.9864Y-4.3583
X4.1199Y-6.0301
X4.1222Y-2.6875
X4.2556Y-4.3593
X4.2673Y-3.6629
X4.3891Y-6.031
X4.4008Y-5.3347
X4.5366Y-3.6639
X4.5483Y-2.9676
X4.6701Y-5.3356
X4.6818Y-4.6393
X4.8152Y-6.311
X4.8175Y-2.9685
X4.951Y-4.6402
X4.9627Y-3.9439
X5.0845Y-6.312
X5.0962Y-5.6156
X5.232Y-3.9448
X5.2437Y-3.2485
X5.3655Y-5.6166
X5.3772Y-4.9202
X5.5106Y-6.592
X5.5129Y-3.2494
X5.6464Y-4.9212
X5.6581Y-4.2249
X5.7799Y-6.5929
X5.7916Y-5.8966
X5.9274Y-4.2258
X5.9391Y-3.5295
X6.0608Y-5.8975
X6.0725Y-5.2012
X6.2083Y-3.5304
X6.3418Y-5.2021
X6.3535Y-4.5058
X6.6228Y-4.5067
X6.6344Y-3.8104
X6.9037Y-3.8114
X7.1178Y-5.302
X7.1178Y-6.002
X7.1178Y-6.702
X7.3678Y-5.202
X7.3678Y-5.902
X7.3678Y-6.602
X7.4594Y-7.402
X7.7094Y-7.302
X7.8011Y-5.302
X7.8011Y-6.002
X7.8011Y-6.702
X8.0511Y-5.202
X8.0511Y-5.902
X8.0511Y-6.602
X8.4845Y-5.302
X8.4845Y-6.002
X8.4845Y-6.702
X8.7345Y-5.202
X8.7345Y-5.902
X8.7345Y-6.602
X8.9896Y-3.9228
X9.184Y-3.7364
X9.2706Y-4.6182
X9.4649Y-4.4318
X9.5515Y-5.3135
X9.685Y-3.6418
X9.7459Y-5.1272
X9.8325Y-6.0089
X9.8793Y-3.4554
X9.966Y-4.3372
X10.0268Y-5.8226
X10.1134Y-6.7043
X10.1603Y-4.1508
X10.2469Y-5.0326
X10.3078Y-6.518
X10.3804Y-3.3609
X10.4412Y-4.8462
X10.5279Y-5.728
X10.5747Y-3.1745
X10.6613Y-4.0562
X10.7222Y-5.5416
X10.8088Y-6.4234
X10.8557Y-3.8699
X10.9423Y-4.7516
X11.0032Y-6.237
X11.0758Y-3.0799
X11.1366Y-4.5653
X11.2233Y-5.447
X11.2701Y-2.8935
X11.3567Y-3.7753
X11.4176Y-5.2607
X11.5042Y-6.1424
X11.5511Y-3.5889
X11.6377Y-4.4707
X11.6985Y-5.956
X11.7712Y-2.799
X11.832Y-4.2843
X11.9186Y-5.1661
X11.9655Y-2.6126
X12.0521Y-3.4943
X12.113Y-4.9797
X12.1996Y-5.8615
X12.2465Y-3.308
X12.3331Y-4.1897
X12.3939Y-5.6751
X12.4666Y-2.518
X12.5274Y-4.0034
X12.614Y-4.8851
X12.6609Y-2.3316
X12.7475Y-3.2134
X12.8084Y-4.6987
X12.895Y-5.5805
X12.9418Y-3.027
X13.0285Y-3.9088
X13.0893Y-5.3941
X13.2228Y-3.7224
X13.3094Y-4.6042
X13.5038Y-4.4178
X13.5904Y-5.2995
X13.7847Y-5.1132
T4
X2.1353Y-5.3361
X2.4163Y-4.6407
X2.6972Y-3.9453
X2.8307Y-5.6171
X2.9782Y-3.2499
X3.1116Y-4.9217
X3.2591Y-2.5546
X3.3926Y-4.2263
X3.5261Y-5.898
X3.6736Y-3.5309
X3.807Y-5.2026
X3.9545Y-2.8355
X4.088Y-4.5072
X4.2215Y-6.179
X4.3689Y-3.8119
X4.5024Y-5.4836
X4.6499Y-3.1165
X4.7834Y-4.7882
X4.9169Y-6.4599
X5.0643Y-4.0928
X5.1978Y-5.7645
X5.3453Y-3.3974
X5.4788Y-5.0692
X5.6122Y-6.7409
X5.7597Y-4.3738
X5.8932Y-6.0455
X6.0407Y-3.6784
X6.1742Y-5.3501
X6.4551Y-4.6547
X6.7361Y-3.9593
X7.2678Y-5.402
X7.2678Y-6.102
X7.2678Y-6.802
X7.6094Y-7.502
X7.9511Y-5.402
X7.9511Y-6.102
X7.9511Y-6.802
X8.6345Y-5.402
X8.6345Y-6.102
X8.6345Y-6.802
X9.1662Y-3.9593
X9.4471Y-4.6547
X9.7281Y-5.3501
X9.8615Y-3.6783
X10.009Y-6.0455
X10.1425Y-4.3737
X10.29Y-6.7409
X10.4235Y-5.0691
X10.5569Y-3.3974
X10.7044Y-5.7645
X10.8379Y-4.0928
X10.9854Y-6.4599
X11.1188Y-4.7882
X11.2523Y-3.1164
X11.3998Y-5.4836
X11.5333Y-3.8118
X11.6808Y-6.1789
X11.8142Y-4.5072
X11.9477Y-2.8355
X12.0952Y-5.2026
X12.2287Y-3.5309
X12.3761Y-5.898
X12.5096Y-4.2263
X12.6431Y-2.5545
X12.7906Y-4.9216
X12.924Y-3.2499
X13.0715Y-5.617
X13.205Y-3.9453
X13.486Y-4.6407
X13.7669Y-5.3361
T1
G00X8.2521Y-7.2816
M15
G01X8.3032Y-7.2816
M16
G05
G00X8.2521Y-7.7225
M15
G01X8.3032Y-7.7225
M16
G05
M30
