G04 #@! TF.GenerationSoftware,KiCad,Pcbnew,8.0.6*
G04 #@! TF.CreationDate,2024-10-27T19:10:16+01:00*
G04 #@! TF.ProjectId,pterodactyl,70746572-6f64-4616-9374-796c2e6b6963,rev?*
G04 #@! TF.SameCoordinates,Original*
G04 #@! TF.FileFunction,Copper,L2,Bot*
G04 #@! TF.FilePolarity,Positive*
%FSLAX46Y46*%
G04 Gerber Fmt 4.6, Leading zero omitted, Abs format (unit mm)*
G04 Created by KiCad (PCBNEW 8.0.6) date 2024-10-27 19:10:16*
%MOMM*%
%LPD*%
G01*
G04 APERTURE LIST*
G04 Aperture macros list*
%AMHorizOval*
0 Thick line with rounded ends*
0 $1 width*
0 $2 $3 position (X,Y) of the first rounded end (center of the circle)*
0 $4 $5 position (X,Y) of the second rounded end (center of the circle)*
0 Add line between two ends*
20,1,$1,$2,$3,$4,$5,0*
0 Add two circle primitives to create the rounded ends*
1,1,$1,$2,$3*
1,1,$1,$4,$5*%
%AMRotRect*
0 Rectangle, with rotation*
0 The origin of the aperture is its center*
0 $1 length*
0 $2 width*
0 $3 Rotation angle, in degrees counterclockwise*
0 Add horizontal line*
21,1,$1,$2,0,0,$3*%
G04 Aperture macros list end*
G04 #@! TA.AperFunction,SMDPad,CuDef*
%ADD10RotRect,2.550000X2.500000X17.000000*%
G04 #@! TD*
G04 #@! TA.AperFunction,ComponentPad*
%ADD11RotRect,1.600000X1.600000X73.000000*%
G04 #@! TD*
G04 #@! TA.AperFunction,ComponentPad*
%ADD12HorizOval,1.600000X0.000000X0.000000X0.000000X0.000000X0*%
G04 #@! TD*
G04 #@! TA.AperFunction,SMDPad,CuDef*
%ADD13RotRect,2.550000X2.500000X343.000000*%
G04 #@! TD*
G04 #@! TA.AperFunction,ComponentPad*
%ADD14R,1.600000X1.600000*%
G04 #@! TD*
G04 #@! TA.AperFunction,ComponentPad*
%ADD15O,1.600000X1.600000*%
G04 #@! TD*
G04 #@! TA.AperFunction,ComponentPad*
%ADD16RotRect,1.600000X1.600000X197.000000*%
G04 #@! TD*
G04 #@! TA.AperFunction,ComponentPad*
%ADD17HorizOval,1.600000X0.000000X0.000000X0.000000X0.000000X0*%
G04 #@! TD*
G04 #@! TA.AperFunction,ComponentPad*
%ADD18RotRect,1.600000X1.600000X107.000000*%
G04 #@! TD*
G04 #@! TA.AperFunction,ComponentPad*
%ADD19HorizOval,1.600000X0.000000X0.000000X0.000000X0.000000X0*%
G04 #@! TD*
G04 #@! TA.AperFunction,SMDPad,CuDef*
%ADD20R,2.550000X2.500000*%
G04 #@! TD*
G04 #@! TA.AperFunction,ComponentPad*
%ADD21RotRect,1.600000X1.600000X163.000000*%
G04 #@! TD*
G04 #@! TA.AperFunction,ComponentPad*
%ADD22HorizOval,1.600000X0.000000X0.000000X0.000000X0.000000X0*%
G04 #@! TD*
G04 #@! TA.AperFunction,WasherPad*
%ADD23O,3.200000X2.000000*%
G04 #@! TD*
G04 #@! TA.AperFunction,ComponentPad*
%ADD24R,2.000000X2.000000*%
G04 #@! TD*
G04 #@! TA.AperFunction,ComponentPad*
%ADD25C,2.000000*%
G04 #@! TD*
G04 #@! TA.AperFunction,ComponentPad*
%ADD26C,1.752600*%
G04 #@! TD*
G04 #@! TA.AperFunction,ComponentPad*
%ADD27R,1.752600X1.752600*%
G04 #@! TD*
G04 #@! TA.AperFunction,ComponentPad*
%ADD28R,1.700000X1.700000*%
G04 #@! TD*
G04 #@! TA.AperFunction,ComponentPad*
%ADD29O,1.700000X1.700000*%
G04 #@! TD*
G04 #@! TA.AperFunction,ComponentPad*
%ADD30C,1.800000*%
G04 #@! TD*
G04 #@! TA.AperFunction,ViaPad*
%ADD31C,0.800000*%
G04 #@! TD*
G04 #@! TA.AperFunction,Conductor*
%ADD32C,0.250000*%
G04 #@! TD*
G04 #@! TA.AperFunction,Conductor*
%ADD33C,0.508000*%
G04 #@! TD*
G04 APERTURE END LIST*
D10*
X292768577Y-197639821D03*
X280266380Y-204118183D03*
D11*
X69979179Y-110122702D03*
D12*
X72207051Y-102835660D03*
D13*
X119312521Y-135748603D03*
X105325076Y-134128269D03*
D10*
X323748570Y-168328900D03*
X311246373Y-174807262D03*
D13*
X95501993Y-148308381D03*
X81514548Y-146688047D03*
X143123053Y-123188829D03*
X129135608Y-121568495D03*
D10*
X287221554Y-179496330D03*
X274719357Y-185974692D03*
D14*
X212029191Y-139140000D03*
D15*
X212029191Y-146760000D03*
D11*
X124769705Y-126873845D03*
D12*
X126997577Y-119586803D03*
D11*
X120764794Y-205006969D03*
D12*
X122992666Y-197719927D03*
D13*
X113765499Y-153892095D03*
X99778054Y-152271761D03*
X53427951Y-155284444D03*
X39440506Y-153664110D03*
D16*
X295670886Y-152466143D03*
D17*
X288383844Y-154694015D03*
D18*
X310584219Y-181649845D03*
D19*
X308356347Y-174362803D03*
D11*
X29527584Y-177112953D03*
D12*
X31755456Y-169825911D03*
D10*
X312654527Y-132041916D03*
X300152330Y-138520278D03*
X305485063Y-173912613D03*
X292982866Y-180390975D03*
D13*
X88332528Y-106437682D03*
X74345083Y-104817348D03*
D11*
X40621628Y-140825969D03*
D12*
X42849500Y-133538927D03*
D18*
X323281960Y-157928367D03*
D19*
X321054088Y-150641325D03*
D13*
X35164445Y-149700728D03*
X21177000Y-148080394D03*
D10*
X361823055Y-97170200D03*
X349320858Y-103648562D03*
X311032085Y-192056105D03*
X298529888Y-198534467D03*
X396708885Y-146022693D03*
X384206688Y-152501055D03*
D11*
X88242686Y-115706414D03*
D12*
X90470558Y-108419372D03*
D18*
X383563276Y-159337906D03*
D19*
X381335404Y-152050864D03*
D20*
X227348000Y-205372500D03*
X213498000Y-207912500D03*
D14*
X220956463Y-139140000D03*
D15*
X220956463Y-146760000D03*
D13*
X40711466Y-131557236D03*
X26724021Y-129936902D03*
D11*
X102581615Y-199447812D03*
D12*
X104809487Y-192160770D03*
D18*
X389110297Y-177481399D03*
D19*
X386882425Y-170194357D03*
D20*
X208250000Y-186400000D03*
X194400000Y-188940000D03*
D10*
X325333525Y-108326170D03*
X312831328Y-114804532D03*
D13*
X124859544Y-117605112D03*
X110872099Y-115984778D03*
D10*
X318201549Y-150185408D03*
X305699352Y-156663770D03*
D13*
X46258487Y-113413745D03*
X32271042Y-111793411D03*
D18*
X330432682Y-116063401D03*
D19*
X328204810Y-108776359D03*
D11*
X58885135Y-146409685D03*
D12*
X61113007Y-139122643D03*
D21*
X44567863Y-108289289D03*
D22*
X37280821Y-106061417D03*
D13*
X139104752Y-201317857D03*
X125117307Y-199697523D03*
D10*
X402255906Y-164166185D03*
X389753709Y-170644547D03*
D18*
X366922211Y-104907431D03*
D19*
X364694339Y-97620389D03*
D18*
X316131241Y-199793336D03*
D19*
X313903369Y-192506294D03*
D13*
X132029007Y-159475810D03*
X118041562Y-157855476D03*
D18*
X335979704Y-134206893D03*
D19*
X333751832Y-126919851D03*
D14*
X189711011Y-139140000D03*
D15*
X189711011Y-146760000D03*
D18*
X352620769Y-188637369D03*
D19*
X350392897Y-181350327D03*
D18*
X305037197Y-163506353D03*
D19*
X302809325Y-156219311D03*
D18*
X341526726Y-152350385D03*
D19*
X339298854Y-145063343D03*
D18*
X312187917Y-121641384D03*
D19*
X309960045Y-114354342D03*
D13*
X58974974Y-137140952D03*
X44987529Y-135520618D03*
D14*
X229883735Y-139140000D03*
D15*
X229883735Y-146760000D03*
D10*
X299938041Y-155769122D03*
X287435844Y-162247484D03*
D14*
X185247375Y-139140000D03*
D15*
X185247375Y-146760000D03*
D13*
X66144438Y-179011652D03*
X52156993Y-177391318D03*
D18*
X317734939Y-139784876D03*
D19*
X315507067Y-132497834D03*
D10*
X360275585Y-157161469D03*
X347773388Y-163639831D03*
D11*
X106506197Y-121290131D03*
D12*
X108734069Y-114003089D03*
D10*
X380067819Y-91592217D03*
X367565622Y-98070579D03*
X330918035Y-126458201D03*
X318415838Y-132936563D03*
D18*
X299490174Y-145362862D03*
D19*
X297262302Y-138075820D03*
D13*
X108218478Y-172035589D03*
X94231033Y-170415255D03*
D18*
X372469233Y-123050923D03*
D19*
X370241361Y-115763881D03*
D20*
X227348000Y-167427500D03*
X213498000Y-169967500D03*
D21*
X33626219Y-144077798D03*
D22*
X26339177Y-141849926D03*
D13*
X101049014Y-130164891D03*
X87061569Y-128544557D03*
D21*
X39029248Y-126405287D03*
D22*
X31742206Y-124177415D03*
D18*
X365318513Y-164915892D03*
D19*
X363090641Y-157628850D03*
D14*
X234347375Y-139140000D03*
D15*
X234347375Y-146760000D03*
D11*
X113675660Y-163160828D03*
D12*
X115903532Y-155873786D03*
D18*
X378016254Y-141194414D03*
D19*
X375788382Y-133907372D03*
D18*
X359771490Y-146772401D03*
D19*
X357543618Y-139485359D03*
D11*
X82695664Y-133849906D03*
D12*
X84923536Y-126562864D03*
D13*
X126481986Y-177619302D03*
X112494541Y-175998968D03*
D20*
X246446000Y-186400000D03*
X232596000Y-188940000D03*
D18*
X292330081Y-187230694D03*
D19*
X290102209Y-179943652D03*
D10*
X391161864Y-127879201D03*
X378659667Y-134357563D03*
D16*
X290123864Y-134322651D03*
D17*
X282836822Y-136550523D03*
D10*
X343578288Y-102748186D03*
X331076091Y-109226548D03*
X288843995Y-119482139D03*
X276341798Y-125960501D03*
D18*
X328828982Y-176071859D03*
D19*
X326601110Y-168784817D03*
D13*
X82785507Y-124581174D03*
X68798062Y-122960840D03*
D20*
X208250000Y-205372500D03*
X194400000Y-207912500D03*
D11*
X119222683Y-145017337D03*
D12*
X121450555Y-137730295D03*
D18*
X370865535Y-183059383D03*
D19*
X368637663Y-175772341D03*
D10*
X347559101Y-180888677D03*
X335056904Y-187367039D03*
D18*
X297877102Y-205374186D03*
D19*
X295649230Y-198087144D03*
D13*
X29617423Y-167844220D03*
X15629978Y-166223886D03*
D11*
X66054598Y-188280385D03*
D12*
X68282470Y-180993343D03*
D10*
X365822610Y-175304962D03*
X353320413Y-181783324D03*
D13*
X77238485Y-142724666D03*
X63251040Y-141104332D03*
D14*
X225420099Y-139140000D03*
D15*
X225420099Y-146760000D03*
D10*
X367445051Y-115290771D03*
X354942854Y-121769133D03*
D13*
X144651778Y-183174365D03*
X130664333Y-181554031D03*
X47880931Y-173427935D03*
X33893486Y-171807601D03*
X120934964Y-195762795D03*
X106947519Y-194142461D03*
D10*
X307088761Y-113904153D03*
X294586564Y-120382515D03*
D11*
X84318107Y-193864097D03*
D12*
X86545979Y-186577055D03*
D11*
X47791092Y-182696667D03*
D12*
X50018964Y-175409625D03*
D13*
X84407949Y-184595365D03*
X70420504Y-182975031D03*
X102671456Y-190179081D03*
X88684011Y-188558747D03*
D20*
X227348000Y-186400000D03*
X213498000Y-188940000D03*
X189152000Y-205372500D03*
X175302000Y-207912500D03*
D10*
X378539096Y-151577754D03*
X366036899Y-158056116D03*
D11*
X95412149Y-157577114D03*
D12*
X97640021Y-150290072D03*
D10*
X384086118Y-169721246D03*
X371583921Y-176199608D03*
X329295591Y-186472392D03*
X316793394Y-192950754D03*
D21*
X46375593Y-167697422D03*
D22*
X39088551Y-165469550D03*
D14*
X203101919Y-139140000D03*
D15*
X203101919Y-146760000D03*
D11*
X108128635Y-181304321D03*
D12*
X110356507Y-174017279D03*
D14*
X198638283Y-139140000D03*
D15*
X198638283Y-146760000D03*
D20*
X208250000Y-167427500D03*
X194400000Y-169967500D03*
D18*
X347073746Y-170493877D03*
D19*
X344845874Y-163206835D03*
D20*
X189152000Y-186400000D03*
X175302000Y-188940000D03*
D10*
X372992071Y-133434262D03*
X360489874Y-139912624D03*
D11*
X100959173Y-139433621D03*
D12*
X103187045Y-132146579D03*
D13*
X89954971Y-166451873D03*
X75967526Y-164831539D03*
D18*
X334376006Y-194215353D03*
D19*
X332148134Y-186928311D03*
D11*
X64432157Y-128266193D03*
D12*
X66660029Y-120979151D03*
D14*
X194174647Y-139140000D03*
D15*
X194174647Y-146760000D03*
D11*
X51715672Y-104538985D03*
D12*
X53943544Y-97251943D03*
D16*
X301217909Y-170609635D03*
D17*
X293930867Y-172837507D03*
D23*
X182477000Y-166907500D03*
X182477000Y-178107500D03*
D24*
X174977000Y-170007500D03*
D25*
X174977000Y-175007500D03*
X174977000Y-172507500D03*
X189477000Y-175007500D03*
X189477000Y-170007500D03*
D11*
X53338114Y-164553175D03*
D12*
X55565986Y-157266133D03*
D21*
X28112087Y-162113707D03*
D22*
X20825045Y-159885835D03*
D14*
X207565555Y-139140000D03*
D15*
X207565555Y-146760000D03*
D18*
X354224468Y-128628909D03*
D19*
X351996596Y-121341867D03*
D13*
X51805512Y-95270254D03*
X37818067Y-93649920D03*
D11*
X89865129Y-175720605D03*
D12*
X92093001Y-168433563D03*
D10*
X349181542Y-120874486D03*
X336679345Y-127352848D03*
D11*
X126311817Y-186863476D03*
D12*
X128539689Y-179576434D03*
D13*
X70069021Y-100853968D03*
X56081576Y-99233634D03*
D18*
X348677444Y-110485417D03*
D19*
X346449572Y-103198375D03*
D16*
X306764932Y-188753127D03*
D17*
X299477890Y-190980999D03*
D10*
X354728564Y-139017977D03*
X342226367Y-145496339D03*
D14*
X216492827Y-139140000D03*
D15*
X216492827Y-146760000D03*
D11*
X35074603Y-158969462D03*
D12*
X37302475Y-151682420D03*
D13*
X64521999Y-118997460D03*
X50534554Y-117377126D03*
D11*
X46168650Y-122682477D03*
D12*
X48396522Y-115395435D03*
D26*
X214874596Y-126590000D03*
X212334596Y-126590000D03*
X209794596Y-126590000D03*
X207254596Y-126590000D03*
X204714596Y-126590000D03*
X217414596Y-98650000D03*
X217414596Y-101190000D03*
X217414596Y-103730000D03*
X217414596Y-106270000D03*
X217414596Y-108810000D03*
X217414596Y-111350000D03*
X217414596Y-113890000D03*
X217414596Y-116430000D03*
X217414596Y-118970000D03*
X217414596Y-121510000D03*
X217414596Y-124050000D03*
X217414596Y-126590000D03*
X202403196Y-126590000D03*
X202174596Y-124050000D03*
X202174596Y-121510000D03*
X202174596Y-118970000D03*
X202174596Y-116430000D03*
X202174596Y-113890000D03*
X202174596Y-111350000D03*
X202174596Y-108810000D03*
X202174596Y-106270000D03*
X202174596Y-103730000D03*
X202174596Y-101190000D03*
D27*
X202174596Y-98650000D03*
D20*
X246446000Y-167427500D03*
X232596000Y-169967500D03*
D10*
X385614842Y-109735709D03*
X373112645Y-116214071D03*
X342012077Y-162745185D03*
X329509880Y-169223547D03*
D16*
X288501423Y-194336839D03*
D17*
X281214381Y-196564711D03*
D18*
X293943151Y-127219370D03*
D19*
X291715279Y-119932328D03*
D13*
X137576031Y-141332321D03*
X123588586Y-139711987D03*
D11*
X77148643Y-151993399D03*
D12*
X79376515Y-144706357D03*
D13*
X106596036Y-112021399D03*
X92608591Y-110401065D03*
D10*
X294391018Y-137625631D03*
X281888821Y-144103993D03*
D13*
X71691462Y-160868158D03*
X57704017Y-159247824D03*
D20*
X246446000Y-205372500D03*
X232596000Y-207912500D03*
D10*
X336465056Y-144601693D03*
X323962859Y-151080055D03*
D11*
X71601621Y-170136891D03*
D12*
X73829493Y-162849849D03*
D28*
X209794596Y-113575000D03*
D29*
X209794596Y-111035000D03*
X209794596Y-108495000D03*
D30*
X212044596Y-101200000D03*
X207544596Y-107700000D03*
X207544596Y-101200000D03*
X212044596Y-107700000D03*
D31*
X145225000Y-121097897D03*
X274700000Y-121075000D03*
X194410000Y-182290000D03*
X213520000Y-182280000D03*
X232590000Y-181555000D03*
X175300000Y-200080000D03*
X194370000Y-201660000D03*
X213510000Y-200770000D03*
X232720000Y-200100000D03*
X190775000Y-219650000D03*
X209375000Y-220375000D03*
X213460000Y-220370000D03*
X232570000Y-219650000D03*
X294975000Y-194850000D03*
X291125000Y-208700000D03*
D32*
X29637278Y-167833664D02*
X29617423Y-167844220D01*
X51805513Y-95270253D02*
X54146781Y-94025378D01*
X54146781Y-94025378D02*
X68824145Y-98512700D01*
X202174596Y-98825404D02*
X202174596Y-98650000D01*
X70069021Y-100853968D02*
X70079577Y-100873821D01*
X47900786Y-173417379D02*
X47880930Y-173427936D01*
X51805513Y-95270253D02*
X51816069Y-95290106D01*
X68824145Y-98512700D02*
X70069021Y-100853968D01*
X51816069Y-95290106D02*
X29637278Y-167833664D01*
X70079577Y-100873821D02*
X47900786Y-173417379D01*
X88332528Y-106437683D02*
X88343085Y-106457537D01*
X88343085Y-106457537D02*
X66164293Y-179001093D01*
X105351162Y-109680129D02*
X106596036Y-112021399D01*
X84427800Y-184584810D02*
X84407949Y-184595365D01*
X66164293Y-179001093D02*
X66144438Y-179011650D01*
X88332528Y-106437683D02*
X90673795Y-105192808D01*
X90673795Y-105192808D02*
X105351162Y-109680129D01*
X106606593Y-112041253D02*
X84427800Y-184584810D01*
X106596036Y-112021399D02*
X106606593Y-112041253D01*
X143133610Y-123208682D02*
X120954818Y-195752238D01*
X144034224Y-124100000D02*
X143123053Y-123188829D01*
X124870100Y-117624965D02*
X102691309Y-190168525D01*
X141878179Y-120847559D02*
X143123054Y-123188829D01*
X145213985Y-121097897D02*
X145225000Y-121097897D01*
X127200811Y-116360238D02*
X141878179Y-120847559D01*
X124859544Y-117605111D02*
X124870100Y-117624965D01*
X143123053Y-123188829D02*
X145213985Y-121097897D01*
X143123054Y-123188829D02*
X143133610Y-123208682D01*
X120954818Y-195752238D02*
X120934964Y-195762794D01*
X124859544Y-117605111D02*
X127200811Y-116360238D01*
X102691309Y-190168525D02*
X102671456Y-190179080D01*
X189477000Y-170007500D02*
X188152000Y-171332500D01*
X193932000Y-165552500D02*
X194120000Y-165552500D01*
X208265900Y-205356600D02*
X208250000Y-205372500D01*
X188152000Y-185400000D02*
X189152000Y-186400000D01*
X139124610Y-201307300D02*
X139104753Y-201317857D01*
X183525000Y-155145500D02*
X183525000Y-129999596D01*
X144662334Y-183194220D02*
X139124610Y-201307300D01*
X189167900Y-186415900D02*
X189167900Y-205356600D01*
X183525000Y-129999596D02*
X202174596Y-111350000D01*
X208265900Y-167443400D02*
X208265900Y-205356600D01*
X193932000Y-165552500D02*
X183525000Y-155145500D01*
X189477000Y-170007500D02*
X193932000Y-165552500D01*
X194120000Y-165552500D02*
X206375000Y-165552500D01*
X206375000Y-165552500D02*
X208250000Y-167427500D01*
X185926365Y-183174365D02*
X189152000Y-186400000D01*
X144651778Y-183174365D02*
X144662334Y-183194220D01*
X189152000Y-186400000D02*
X189167900Y-186415900D01*
X208250000Y-167427500D02*
X208265900Y-167443400D01*
X189167900Y-205356600D02*
X189152000Y-205372500D01*
X144651778Y-183174365D02*
X185926365Y-183174365D01*
X188152000Y-171332500D02*
X188152000Y-185400000D01*
X246461900Y-205356600D02*
X246446000Y-205372500D01*
X227348000Y-167427500D02*
X227363900Y-167443400D01*
X287221552Y-179496329D02*
X287241406Y-179506886D01*
X215520500Y-155600000D02*
X227348000Y-167427500D01*
X286442948Y-178717724D02*
X287221554Y-179496330D01*
X195678366Y-155600000D02*
X215520500Y-155600000D01*
X246461900Y-167443400D02*
X246461900Y-205356600D01*
X227348000Y-167427500D02*
X229223000Y-165552500D01*
X227363900Y-205356600D02*
X227348000Y-205372500D01*
X227363900Y-167443400D02*
X227363900Y-205356600D01*
X183975000Y-132089596D02*
X183975000Y-143896634D01*
X202174596Y-113890000D02*
X183975000Y-132089596D01*
X244571000Y-165552500D02*
X246446000Y-167427500D01*
X246446000Y-167427500D02*
X246461900Y-167443400D01*
X287241406Y-179506886D02*
X292779131Y-197619968D01*
X292779131Y-197619968D02*
X292768577Y-197639821D01*
X246446000Y-186400000D02*
X254128276Y-178717724D01*
X254128276Y-178717724D02*
X286442948Y-178717724D01*
X183975000Y-143896634D02*
X195678366Y-155600000D01*
X229223000Y-165552500D02*
X244571000Y-165552500D01*
X288843995Y-119482139D02*
X288863849Y-119492695D01*
X307088759Y-113904153D02*
X304747492Y-112659279D01*
X329306149Y-186452536D02*
X329295592Y-186472392D01*
X226024596Y-122500000D02*
X217414596Y-113890000D01*
X288843995Y-119482139D02*
X288843995Y-120789254D01*
X307088759Y-113904153D02*
X307133088Y-113927723D01*
X287133249Y-122500000D02*
X226024596Y-122500000D01*
X304747492Y-112659279D02*
X290088869Y-117140869D01*
X288843995Y-120789254D02*
X287133249Y-122500000D01*
X290088869Y-117140869D02*
X288843995Y-119482139D01*
X307133088Y-113927723D02*
X329306149Y-186452536D01*
X288863849Y-119492695D02*
X311042640Y-192036253D01*
X311042640Y-192036253D02*
X311032085Y-192056106D01*
X322430350Y-106782525D02*
X296019676Y-114857079D01*
X227864596Y-121800000D02*
X217414596Y-111350000D01*
X326578399Y-105984902D02*
X325333523Y-108326170D01*
X343671566Y-102797782D02*
X365833166Y-175285108D01*
X341237021Y-101503311D02*
X326578399Y-105984902D01*
X343578289Y-102748186D02*
X343671566Y-102797782D01*
X278732790Y-120142210D02*
X277075000Y-121800000D01*
X325333524Y-108326170D02*
X322430350Y-106782525D01*
X325402328Y-108362753D02*
X347569657Y-180868822D01*
X296019673Y-114857079D02*
X289787578Y-116762422D01*
X325333523Y-108326170D02*
X325402328Y-108362753D01*
X277075000Y-121800000D02*
X227864596Y-121800000D01*
X347569657Y-180868822D02*
X347559099Y-180888677D01*
X289787577Y-116762422D02*
X278732790Y-120142210D01*
X343578289Y-102748186D02*
X341237021Y-101503311D01*
X289787578Y-116762422D02*
X289787577Y-116762422D01*
X296019676Y-114857079D02*
X296019673Y-114857079D01*
X365833166Y-175285108D02*
X365822608Y-175304962D01*
X402266464Y-164146331D02*
X402255907Y-164166185D01*
X274700000Y-121075000D02*
X277163604Y-121075000D01*
X384096674Y-169701392D02*
X384086116Y-169721246D01*
X361940805Y-97232809D02*
X384096674Y-169701392D01*
X277163604Y-121061859D02*
X278475000Y-119750463D01*
X377726550Y-90347341D02*
X363067928Y-94828933D01*
X277163604Y-121075000D02*
X277163604Y-121061859D01*
X310988160Y-109810192D02*
X278475000Y-119750463D01*
X380067817Y-91592217D02*
X377726550Y-90347341D01*
X363067928Y-94828933D02*
X361823053Y-97170200D01*
X361823053Y-97170200D02*
X361940805Y-97232809D01*
X380087672Y-91602772D02*
X402266464Y-164146331D01*
X380067817Y-91592217D02*
X380087672Y-91602772D01*
X358357977Y-95327786D02*
X310988160Y-109810192D01*
X361823054Y-97170200D02*
X358357977Y-95327786D01*
X269169882Y-173962507D02*
X297865037Y-173962507D01*
X189711011Y-133973585D02*
X202174596Y-121510000D01*
X234347375Y-139140000D02*
X269169882Y-173962507D01*
X189711011Y-139140000D02*
X189711011Y-133973585D01*
X297865037Y-173962507D02*
X301217909Y-170609635D01*
X174977000Y-170007500D02*
X174977000Y-136848701D01*
X174977000Y-136848701D02*
X201677001Y-110148700D01*
X204714596Y-112164596D02*
X204714596Y-126590000D01*
X201677001Y-110148700D02*
X202698700Y-110148700D01*
X202698700Y-110148700D02*
X204714596Y-112164596D01*
X202672191Y-107608700D02*
X207254596Y-112191105D01*
X201677001Y-107608700D02*
X202672191Y-107608700D01*
X173652000Y-135633701D02*
X201677001Y-107608700D01*
X174977000Y-175007500D02*
X173652000Y-173682500D01*
X173652000Y-173682500D02*
X173652000Y-135633701D01*
X207254596Y-112191105D02*
X207254596Y-126590000D01*
X297409739Y-194870625D02*
X299477888Y-190980999D01*
X298529888Y-198534467D02*
X297409739Y-194870625D01*
X209794596Y-113575000D02*
X209794596Y-126590000D01*
D33*
X176431000Y-175609767D02*
X175579267Y-176461500D01*
X173986500Y-176461500D02*
X172875000Y-175350000D01*
X176431000Y-173961500D02*
X176431000Y-175609767D01*
X175579267Y-176461500D02*
X173986500Y-176461500D01*
X172875000Y-135569596D02*
X202174596Y-106270000D01*
X172875000Y-175350000D02*
X172875000Y-135569596D01*
X174977000Y-172507500D02*
X176431000Y-173961500D01*
D32*
X216213296Y-117631300D02*
X216213296Y-119467595D01*
X216213296Y-119467595D02*
X211133296Y-124547595D01*
X217167827Y-140715000D02*
X217625000Y-140257827D01*
X213244191Y-137925000D02*
X212029191Y-139140000D01*
X217625000Y-140257827D02*
X217625000Y-138150000D01*
X204676919Y-140715000D02*
X217167827Y-140715000D01*
X217414596Y-116430000D02*
X216213296Y-117631300D01*
X203101919Y-139140000D02*
X204676919Y-140715000D01*
X217400000Y-137925000D02*
X213244191Y-137925000D01*
X217625000Y-138150000D02*
X217400000Y-137925000D01*
X211133296Y-124547595D02*
X211133296Y-138244105D01*
X211133296Y-138244105D02*
X212029191Y-139140000D01*
X207565555Y-139140000D02*
X206440555Y-138015000D01*
X199088283Y-137138283D02*
X199088283Y-128206018D01*
X206440555Y-138015000D02*
X199965000Y-138015000D01*
X203875000Y-124048491D02*
X203875000Y-118130404D01*
X199965000Y-138015000D02*
X199088283Y-137138283D01*
X216492827Y-139140000D02*
X215367827Y-140265000D01*
X202672191Y-125251300D02*
X203875000Y-124048491D01*
X202043001Y-125251300D02*
X202672191Y-125251300D01*
X208690555Y-140265000D02*
X207565555Y-139140000D01*
X199088283Y-128206018D02*
X202043001Y-125251300D01*
X203875000Y-118130404D02*
X202174596Y-116430000D01*
X215367827Y-140265000D02*
X208690555Y-140265000D01*
X366036899Y-158056117D02*
X363517907Y-158056117D01*
X363517907Y-158056117D02*
X363090641Y-157628851D01*
X201609692Y-122711300D02*
X202713700Y-122711300D01*
X203375896Y-120171300D02*
X202174596Y-118970000D01*
X225420099Y-139140000D02*
X226545099Y-138015000D01*
X283134015Y-138015000D02*
X287400000Y-142280985D01*
X287400000Y-145211699D02*
X294654444Y-152466143D01*
X287400000Y-142280985D02*
X287400000Y-145211699D01*
X198638283Y-125682709D02*
X201609692Y-122711300D01*
X202713700Y-122711300D02*
X203375896Y-122049104D01*
X226545099Y-138015000D02*
X283134015Y-138015000D01*
X203375896Y-122049104D02*
X203375896Y-120171300D01*
X294654444Y-152466143D02*
X295670886Y-152466143D01*
X198638283Y-139140000D02*
X198638283Y-125682709D01*
X187722375Y-141615000D02*
X227408735Y-141615000D01*
X224295099Y-128390503D02*
X217414596Y-121510000D01*
X229883735Y-139140000D02*
X228758735Y-140265000D01*
X185247375Y-139140000D02*
X187722375Y-141615000D01*
X224295099Y-140265000D02*
X224295099Y-128390503D01*
X228758735Y-140265000D02*
X224295099Y-140265000D01*
X227408735Y-141615000D02*
X229883735Y-139140000D01*
X37818068Y-105524171D02*
X37280821Y-106061416D01*
X37818068Y-93649919D02*
X37818068Y-105524171D01*
X56081576Y-99233633D02*
X54099884Y-97251945D01*
X54099884Y-97251945D02*
X53943543Y-97251945D01*
X74345083Y-104817350D02*
X72363393Y-102835658D01*
X72363393Y-102835658D02*
X72207050Y-102835658D01*
X90626900Y-108419374D02*
X90470559Y-108419372D01*
X92608590Y-110401063D02*
X90626900Y-108419374D01*
X110872099Y-115984777D02*
X108890408Y-114003089D01*
X108890408Y-114003089D02*
X108734069Y-114003088D01*
X127153916Y-119586803D02*
X126997577Y-119586802D01*
X129135609Y-121568495D02*
X127153916Y-119586803D01*
X194400000Y-182280000D02*
X194410000Y-182290000D01*
X194400000Y-169967500D02*
X194400000Y-182280000D01*
X213498000Y-182258000D02*
X213520000Y-182280000D01*
X213498000Y-169967500D02*
X213498000Y-182258000D01*
X232596000Y-169967500D02*
X232596000Y-181549000D01*
X232596000Y-181549000D02*
X232590000Y-181555000D01*
X278947196Y-134482372D02*
X282836823Y-136550523D01*
X276341797Y-125960501D02*
X278947196Y-134482372D01*
X292165467Y-120382515D02*
X291715280Y-119932327D01*
X294586564Y-120382515D02*
X292165467Y-120382515D01*
X312831328Y-114804532D02*
X310410232Y-114804532D01*
X310410232Y-114804532D02*
X309960045Y-114354343D01*
X331076091Y-109226548D02*
X328654999Y-109226548D01*
X328654999Y-109226548D02*
X328204808Y-108776359D01*
X346899761Y-103648562D02*
X346449574Y-103198374D01*
X349320858Y-103648562D02*
X346899761Y-103648562D01*
X365144526Y-98070579D02*
X364694339Y-97620390D01*
X367565622Y-98070579D02*
X365144526Y-98070579D01*
X32271044Y-123648578D02*
X31742206Y-124177417D01*
X32271044Y-111793410D02*
X32271044Y-123648578D01*
X48552863Y-115395437D02*
X48396522Y-115395437D01*
X50534554Y-117377125D02*
X48552863Y-115395437D01*
X66816371Y-120979149D02*
X66660028Y-120979149D01*
X68798062Y-122960840D02*
X66816371Y-120979149D01*
X87061569Y-128544557D02*
X85079878Y-126562866D01*
X85079878Y-126562866D02*
X84923537Y-126562864D01*
X105325077Y-134128269D02*
X103343387Y-132146581D01*
X103343387Y-132146581D02*
X103187045Y-132146581D01*
X123588586Y-139711985D02*
X121606895Y-137730296D01*
X121606895Y-137730296D02*
X121450555Y-137730294D01*
X175302000Y-200078000D02*
X175300000Y-200080000D01*
X175302000Y-188940000D02*
X175302000Y-200078000D01*
X194370000Y-201660000D02*
X194400000Y-201630000D01*
X194400000Y-201630000D02*
X194400000Y-188940000D01*
X213498000Y-200758000D02*
X213510000Y-200770000D01*
X213498000Y-188940000D02*
X213498000Y-200758000D01*
X232596000Y-199976000D02*
X232720000Y-200100000D01*
X232596000Y-188940000D02*
X232596000Y-199976000D01*
X281888821Y-144103993D02*
X284494218Y-152625863D01*
X284494218Y-152625863D02*
X288383845Y-154694015D01*
X299707872Y-138075820D02*
X300152330Y-138520278D01*
X297262301Y-138075819D02*
X299707872Y-138075820D01*
X315945795Y-132936563D02*
X315507067Y-132497835D01*
X318415838Y-132936563D02*
X315945795Y-132936563D01*
X336679346Y-127352848D02*
X334184827Y-127352847D01*
X334184827Y-127352847D02*
X333751832Y-126919851D01*
X354942852Y-121769133D02*
X352423863Y-121769134D01*
X352423863Y-121769134D02*
X351996595Y-121341866D01*
X373112645Y-116214071D02*
X370691548Y-116214071D01*
X370691548Y-116214071D02*
X370241361Y-115763882D01*
X26724022Y-141465083D02*
X26339176Y-141849928D01*
X26724020Y-129936903D02*
X26724022Y-141465083D01*
X44987529Y-135520619D02*
X43005840Y-133538928D01*
X43005840Y-133538928D02*
X42849500Y-133538928D01*
X61269349Y-139122641D02*
X61113006Y-139122641D01*
X63251040Y-141104332D02*
X61269349Y-139122641D01*
X384206689Y-152501055D02*
X381785594Y-152501055D01*
X381785594Y-152501055D02*
X381335405Y-152050866D01*
X97796365Y-150290073D02*
X97640021Y-150290073D01*
X99778054Y-152271761D02*
X97796365Y-150290073D01*
X118041563Y-157855476D02*
X116059873Y-155873788D01*
X116059873Y-155873788D02*
X115903533Y-155873786D01*
X175302000Y-209706184D02*
X175302000Y-207912500D01*
X190775000Y-219650000D02*
X185245816Y-219650000D01*
X185245816Y-219650000D02*
X175302000Y-209706184D01*
X194400000Y-209706184D02*
X205068816Y-220375000D01*
X209375000Y-220375000D02*
X209100000Y-220100000D01*
X205068816Y-220375000D02*
X209375000Y-220375000D01*
X194400000Y-207912500D02*
X194400000Y-209706184D01*
X213498000Y-220332000D02*
X213498000Y-207912500D01*
X213460000Y-220370000D02*
X213498000Y-220332000D01*
X232596000Y-219624000D02*
X232596000Y-207912500D01*
X232570000Y-219650000D02*
X232596000Y-219624000D01*
X305699352Y-156663770D02*
X303253782Y-156663770D01*
X303253782Y-156663770D02*
X302809325Y-156219312D01*
X321492817Y-151080055D02*
X321054089Y-150641327D01*
X323962860Y-151080055D02*
X321492817Y-151080055D01*
X342226367Y-145496339D02*
X339731851Y-145496339D01*
X339731851Y-145496339D02*
X339298854Y-145063343D01*
X360489875Y-139912624D02*
X357970883Y-139912624D01*
X357970883Y-139912624D02*
X357543617Y-139485358D01*
X378659667Y-134357563D02*
X376238572Y-134357563D01*
X376238572Y-134357563D02*
X375788383Y-133907374D01*
X21177000Y-148080394D02*
X21176999Y-159533881D01*
X21176999Y-159533881D02*
X20825045Y-159885834D01*
X39440507Y-153664111D02*
X37458818Y-151682420D01*
X37458818Y-151682420D02*
X37302477Y-151682420D01*
X55722326Y-157266133D02*
X55565986Y-157266135D01*
X57704015Y-159247826D02*
X55722326Y-157266133D01*
X75967526Y-164831540D02*
X73985835Y-162849848D01*
X73985835Y-162849848D02*
X73829491Y-162849849D01*
X94231033Y-170415254D02*
X92249343Y-168433565D01*
X92249343Y-168433565D02*
X92093000Y-168433565D01*
X112494539Y-175998969D02*
X110512851Y-174017280D01*
X110512851Y-174017280D02*
X110356509Y-174017279D01*
X128686736Y-179576434D02*
X128539689Y-179576436D01*
X130664333Y-181554031D02*
X128686736Y-179576434D01*
X274719357Y-185974692D02*
X277324754Y-194496561D01*
X277324754Y-194496561D02*
X281214381Y-196564713D01*
X290549534Y-180390977D02*
X290102210Y-179943653D01*
X292982866Y-180390976D02*
X290549534Y-180390977D01*
X311246374Y-174807262D02*
X308800803Y-174807262D01*
X308800803Y-174807262D02*
X308356347Y-174362804D01*
X329509880Y-169223547D02*
X327039839Y-169223547D01*
X327039839Y-169223547D02*
X326601111Y-168784819D01*
X345278873Y-163639831D02*
X344845876Y-163206834D01*
X347773389Y-163639830D02*
X345278873Y-163639831D01*
X290041240Y-170769356D02*
X293930867Y-172837507D01*
X287435844Y-162247484D02*
X290041240Y-170769356D01*
X294975000Y-189875613D02*
X294975000Y-194850000D01*
X292330081Y-187230694D02*
X294975000Y-189875613D01*
X16631038Y-165222826D02*
X21854630Y-165222826D01*
X15629978Y-166223886D02*
X16631038Y-165222826D01*
X26457715Y-169825911D02*
X31755456Y-169825911D01*
X21854630Y-165222826D02*
X26457715Y-169825911D01*
X35198926Y-167537699D02*
X39088551Y-165469548D01*
X33893486Y-171807602D02*
X35198926Y-167537699D01*
X50175302Y-175409627D02*
X50018964Y-175409627D01*
X52156993Y-177391316D02*
X50175302Y-175409627D01*
X70420504Y-182975031D02*
X68438813Y-180993341D01*
X68438813Y-180993341D02*
X68282472Y-180993342D01*
X88684011Y-188558746D02*
X86702320Y-186577057D01*
X86702320Y-186577057D02*
X86545978Y-186577057D01*
X104965829Y-192160772D02*
X104809486Y-192160770D01*
X106947519Y-194142460D02*
X104965829Y-192160772D01*
X125117308Y-199697523D02*
X123139710Y-197719926D01*
X123139710Y-197719926D02*
X122992665Y-197719925D01*
X280266380Y-204118183D02*
X281511253Y-201776915D01*
X287477018Y-199952998D02*
X288993723Y-200759444D01*
X281511253Y-201776915D02*
X287477018Y-199952998D01*
X295244464Y-198848401D02*
X295649231Y-198087144D01*
X288993723Y-200759444D02*
X295244464Y-198848401D01*
X196199647Y-141165000D02*
X194174647Y-139140000D01*
X218931463Y-141165000D02*
X196199647Y-141165000D01*
X213673296Y-122711300D02*
X217414596Y-118970000D01*
X213673296Y-131856833D02*
X213673296Y-122711300D01*
X220956463Y-139140000D02*
X218931463Y-141165000D01*
X220956463Y-139140000D02*
X213673296Y-131856833D01*
X81514548Y-146688048D02*
X79532857Y-144706356D01*
X79532857Y-144706356D02*
X79376515Y-144706356D01*
X300241031Y-198214723D02*
X300241031Y-195277028D01*
X291150000Y-208725000D02*
X291125000Y-208700000D01*
X291206335Y-208725000D02*
X300613154Y-199318181D01*
X300241031Y-195277028D02*
X306764932Y-188753127D01*
X300613154Y-199318181D02*
X300613154Y-198586846D01*
X300613154Y-198586846D02*
X300241031Y-198214723D01*
X291206335Y-208725000D02*
X291150000Y-208725000D01*
X314347827Y-192950754D02*
X313903369Y-192506295D01*
X316793394Y-192950754D02*
X314347827Y-192950754D01*
X335056904Y-187367039D02*
X332586861Y-187367038D01*
X332586861Y-187367038D02*
X332148132Y-186928311D01*
X353320413Y-181783324D02*
X350825895Y-181783323D01*
X350825895Y-181783323D02*
X350392898Y-181350326D01*
X371583921Y-176199608D02*
X369064929Y-176199608D01*
X369064929Y-176199608D02*
X368637663Y-175772342D01*
X387332616Y-170644547D02*
X386882425Y-170194358D01*
X389753709Y-170644547D02*
X387332616Y-170644547D01*
X214574596Y-103730000D02*
X217414596Y-103730000D01*
X212044596Y-101200000D02*
X214574596Y-103730000D01*
X200400000Y-102964596D02*
X202174596Y-101190000D01*
X187252869Y-120372897D02*
X200400000Y-107225766D01*
X200400000Y-107225766D02*
X200400000Y-102964596D01*
X133764860Y-117896507D02*
X141864761Y-120372897D01*
X141864761Y-120372897D02*
X187252869Y-120372897D01*
X109499209Y-110477753D02*
X133764860Y-117896507D01*
X106596036Y-112021399D02*
X109499209Y-110477753D01*
X187111132Y-119878238D02*
X199950000Y-107039370D01*
X141785941Y-119878238D02*
X187111132Y-119878238D01*
X199950000Y-107039370D02*
X199950000Y-100874596D01*
X131582168Y-116758631D02*
X141785941Y-119878238D01*
X199950000Y-100874596D02*
X202174596Y-98650000D01*
X73534097Y-99011555D02*
X131582168Y-116758631D01*
X70069021Y-100853968D02*
X73534097Y-99011555D01*
M02*
