M48
; DRILL file {KiCad 8.0.6} date 2024-10-28T13:21:30+0100
; FORMAT={-:-/ absolute / metric / decimal}
; #@! TF.CreationDate,2024-10-28T13:21:30+01:00
; #@! TF.GenerationSoftware,Kicad,Pcbnew,8.0.6
; #@! TF.FileFunction,Plated,1,2,PTH
FMAT,2
METRIC
; #@! TA.AperFunction,Plated,PTH,ViaDrill
T1C0.400
; #@! TA.AperFunction,Plated,PTH,ComponentDrill
T2C0.800
; #@! TA.AperFunction,Plated,PTH,ComponentDrill
T3C1.000
; #@! TA.AperFunction,Plated,PTH,ComponentDrill
T4C1.092
; #@! TA.AperFunction,Plated,PTH,ComponentDrill
T5C2.200
%
G90
G05
T1
X144.95Y-119.008
X175.025Y-197.99
X190.5Y-217.56
X194.095Y-199.57
X194.135Y-180.2
X209.1Y-218.285
X213.185Y-218.28
X214.02Y-180.21
X214.13Y-198.83
X232.295Y-217.56
X232.315Y-179.465
X232.445Y-198.01
X274.425Y-118.985
X290.85Y-206.61
X294.7Y-192.76
T2
X20.55Y-157.796
X26.064Y-139.76
X27.837Y-160.023
X29.252Y-175.023
X31.467Y-122.087
X31.48Y-167.736
X33.351Y-141.988
X34.799Y-156.879
X37.005Y-103.971
X37.027Y-149.592
X38.754Y-124.315
X38.813Y-163.379
X40.346Y-138.736
X42.574Y-131.449
X44.292Y-106.199
X45.893Y-120.592
X46.1Y-165.607
X47.516Y-180.606
X48.121Y-113.305
X49.743Y-173.319
X51.44Y-102.449
X53.063Y-162.463
X53.668Y-95.162
X55.291Y-155.176
X58.61Y-144.319
X60.838Y-137.032
X64.157Y-126.176
X65.779Y-186.19
X66.385Y-118.889
X68.007Y-178.903
X69.704Y-108.032
X71.326Y-168.047
X71.932Y-100.745
X73.554Y-160.76
X76.873Y-149.903
X79.101Y-142.616
X82.42Y-131.76
X84.043Y-191.774
X84.648Y-124.473
X86.271Y-184.487
X87.967Y-113.616
X89.59Y-173.63
X90.195Y-106.329
X91.818Y-166.343
X95.137Y-155.487
X97.365Y-148.2
X100.684Y-137.343
X102.306Y-197.358
X102.912Y-130.056
X104.534Y-190.071
X106.231Y-119.2
X107.853Y-179.214
X108.459Y-111.913
X110.081Y-171.927
X113.4Y-161.071
X115.628Y-153.784
X118.947Y-142.927
X120.489Y-202.917
X121.175Y-135.64
X122.717Y-195.63
X124.494Y-124.784
X126.036Y-184.773
X126.722Y-117.497
X128.264Y-177.486
X184.972Y-137.05
X184.972Y-144.67
X189.436Y-137.05
X189.436Y-144.67
X193.899Y-137.05
X193.899Y-144.67
X198.363Y-137.05
X198.363Y-144.67
X202.826Y-137.05
X202.826Y-144.67
X207.29Y-137.05
X207.29Y-144.67
X211.754Y-137.05
X211.754Y-144.67
X216.217Y-137.05
X216.217Y-144.67
X220.681Y-137.05
X220.681Y-144.67
X225.145Y-137.05
X225.145Y-144.67
X229.608Y-137.05
X229.608Y-144.67
X234.072Y-137.05
X234.072Y-144.67
X280.939Y-194.474
X282.561Y-134.46
X288.108Y-152.604
X288.226Y-192.247
X289.827Y-177.853
X289.848Y-132.232
X291.44Y-117.842
X292.055Y-185.14
X293.655Y-170.747
X293.668Y-125.129
X295.374Y-195.997
X295.395Y-150.376
X296.987Y-135.986
X297.602Y-203.284
X299.202Y-188.891
X299.215Y-143.273
X300.942Y-168.519
X302.534Y-154.129
X304.762Y-161.416
X306.489Y-186.663
X308.081Y-172.273
X309.685Y-112.264
X310.309Y-179.56
X311.912Y-119.551
X313.628Y-190.416
X315.232Y-130.408
X315.856Y-197.703
X317.459Y-137.695
X320.779Y-148.551
X323.006Y-155.838
X326.326Y-166.695
X327.929Y-106.686
X328.554Y-173.982
X330.157Y-113.973
X331.873Y-184.838
X333.476Y-124.83
X334.101Y-192.125
X335.704Y-132.117
X339.023Y-142.973
X341.251Y-150.26
X344.57Y-161.117
X346.174Y-101.108
X346.798Y-168.404
X348.402Y-108.395
X350.117Y-179.26
X351.721Y-119.252
X352.345Y-186.547
X353.949Y-126.539
X357.268Y-137.395
X359.496Y-144.682
X362.815Y-155.539
X364.419Y-95.53
X365.043Y-162.826
X366.647Y-102.817
X368.362Y-173.682
X369.966Y-113.674
X370.59Y-180.969
X372.194Y-120.961
X375.513Y-131.817
X377.741Y-139.104
X381.06Y-149.961
X383.288Y-157.248
X386.607Y-168.104
X388.835Y-175.391
T3
X174.702Y-167.917
X174.702Y-170.417
X174.702Y-172.917
X189.202Y-167.917
X189.202Y-172.917
X207.269Y-99.11
X207.269Y-105.61
X209.519Y-106.405
X209.519Y-108.945
X209.519Y-111.485
X211.769Y-99.11
X211.769Y-105.61
T4
X201.899Y-96.56
X201.899Y-99.1
X201.899Y-101.64
X201.899Y-104.18
X201.899Y-106.72
X201.899Y-109.26
X201.899Y-111.8
X201.899Y-114.34
X201.899Y-116.88
X201.899Y-119.42
X201.899Y-121.96
X202.128Y-124.5
X204.439Y-124.5
X206.979Y-124.5
X209.519Y-124.5
X212.059Y-124.5
X214.599Y-124.5
X217.139Y-96.56
X217.139Y-99.1
X217.139Y-101.64
X217.139Y-104.18
X217.139Y-106.72
X217.139Y-109.26
X217.139Y-111.8
X217.139Y-114.34
X217.139Y-116.88
X217.139Y-119.42
X217.139Y-121.96
X217.139Y-124.5
T5
X33.747Y-162.493
X50.388Y-108.063
X106.801Y-184.828
X123.442Y-130.398
X211.234Y-179.904
X211.234Y-198.876
X295.935Y-130.372
X312.576Y-184.802
X368.914Y-108.06
X385.555Y-162.49
M30
