M48
; DRILL file {KiCad 8.0.6} date 2024-10-27T19:10:13+0100
; FORMAT={-:-/ absolute / inch / decimal}
; #@! TF.CreationDate,2024-10-27T19:10:13+01:00
; #@! TF.GenerationSoftware,Kicad,Pcbnew,8.0.6
; #@! TF.FileFunction,NonPlated,1,2,NPTH
FMAT,2
INCH
; #@! TA.AperFunction,NonPlated,NPTH,ComponentDrill
T1C0.0591
; #@! TA.AperFunction,NonPlated,NPTH,ComponentDrill
T2C0.0670
; #@! TA.AperFunction,NonPlated,NPTH,ComponentDrill
T3C0.1181
; #@! TA.AperFunction,NonPlated,NPTH,ComponentDrill
T4C0.1570
%
G90
G05
T2
X0.6795Y-6.6684
X0.8979Y-5.9541
X1.062Y-6.7854
X1.1163Y-5.2398
X1.2804Y-6.0711
X1.3346Y-4.5255
X1.3985Y-6.8883
X1.4988Y-5.3568
X1.553Y-3.8112
X1.6169Y-6.1739
X1.7172Y-4.6424
X1.781Y-7.0052
X1.8353Y-5.4596
X1.9356Y-3.9281
X1.9994Y-6.2909
X2.0537Y-4.7453
X2.1176Y-7.1081
X2.2178Y-5.5766
X2.2721Y-4.031
X2.3359Y-6.3938
X2.4362Y-4.8623
X2.5001Y-7.225
X2.5543Y-5.6795
X2.6546Y-4.148
X2.7185Y-6.5107
X2.7727Y-4.9652
X2.8366Y-7.3279
X2.9369Y-5.7964
X2.9911Y-4.2508
X3.055Y-6.6136
X3.1552Y-5.0821
X3.2191Y-7.4449
X3.2734Y-5.8993
X3.3736Y-4.3678
X3.4375Y-6.7306
X3.4918Y-5.185
X3.5556Y-7.5477
X3.6559Y-6.0162
X3.7101Y-4.4707
X3.774Y-6.8334
X3.8743Y-5.3019
X3.9382Y-7.6647
X3.9924Y-6.1191
X4.0927Y-4.5876
X4.1565Y-6.9504
X4.2108Y-5.4048
X4.2747Y-7.7676
X4.3749Y-6.2361
X4.4292Y-4.6905
X4.4931Y-7.0533
X4.5933Y-5.5218
X4.6572Y-7.8845
X4.7114Y-6.339
X4.8117Y-4.8075
X4.8756Y-7.1702
X4.9298Y-5.6246
X4.99Y-7.9863
X5.094Y-6.4559
X5.1482Y-4.9103
X5.2084Y-7.272
X5.3123Y-5.7416
X5.3725Y-8.1032
X5.5307Y-5.0273
X5.5909Y-7.3889
X6.9993Y-7.5386
X6.9993Y-8.2855
X7.3993Y-7.5386
X7.3993Y-8.2855
X7.7512Y-6.7916
X7.7512Y-7.5386
X7.7512Y-8.2855
X8.1512Y-6.7916
X8.1512Y-7.5386
X8.1512Y-8.2855
X8.5031Y-6.7916
X8.5031Y-7.5386
X8.5031Y-8.2855
X8.9031Y-6.7916
X8.9031Y-7.5386
X8.9031Y-8.2855
X9.255Y-6.7916
X9.255Y-7.5386
X9.255Y-8.2855
X9.655Y-6.7916
X9.655Y-7.5386
X9.655Y-8.2855
X10.9383Y-7.3889
X11.0022Y-5.0262
X11.1567Y-8.1032
X11.2206Y-5.7405
X11.3209Y-7.272
X11.3847Y-4.9092
X11.439Y-6.4548
X11.5392Y-7.9863
X11.6031Y-5.6235
X11.6574Y-7.1691
X11.7205Y-4.8066
X11.8215Y-6.3378
X11.8758Y-7.8834
X11.9396Y-5.5206
X12.0399Y-7.0521
X12.103Y-4.6896
X12.158Y-6.2349
X12.2583Y-7.7665
X12.3222Y-5.4037
X12.3764Y-6.9493
X12.4388Y-4.5869
X12.5405Y-6.118
X12.5948Y-7.6636
X12.6587Y-5.3008
X12.7589Y-6.8323
X12.8213Y-4.47
X12.8771Y-6.0151
X12.9773Y-7.5466
X13.0412Y-5.1839
X13.0954Y-6.7294
X13.1571Y-4.3673
X13.2596Y-5.8982
X13.3138Y-7.4437
X13.3777Y-5.081
X13.478Y-6.6125
X13.5396Y-4.2504
X13.5961Y-5.7953
X13.6963Y-7.3268
X13.7602Y-4.964
X13.8145Y-6.5096
X13.8754Y-4.1477
X13.9786Y-5.6783
X14.0329Y-7.2239
X14.0967Y-4.8611
X14.197Y-6.3926
X14.2579Y-4.0308
X14.3151Y-5.5755
X14.4154Y-7.107
X14.4793Y-4.7442
X14.5335Y-6.2898
X14.5937Y-3.9281
X14.6976Y-5.4585
X14.7519Y-7.0041
X14.8121Y-4.6424
X14.916Y-6.1728
X14.9762Y-3.8112
X15.0305Y-5.3568
X15.1344Y-6.8871
X15.1946Y-4.5255
X15.2489Y-6.0711
X15.413Y-5.2398
X15.4672Y-6.7854
X15.6314Y-5.9541
X15.8498Y-6.6684
T3
X0.7565Y-6.5874
X0.9749Y-5.8731
X1.0249Y-6.5649
X1.1933Y-5.1588
X1.2432Y-5.8506
X1.4117Y-4.4445
X1.4616Y-5.1363
X1.4756Y-6.8072
X1.6301Y-3.7302
X1.68Y-4.4219
X1.694Y-6.0929
X1.7439Y-6.7847
X1.8984Y-3.7076
X1.9123Y-5.3786
X1.9623Y-6.0704
X2.1307Y-4.6643
X2.1807Y-5.3561
X2.1946Y-7.0271
X2.3491Y-3.95
X2.399Y-4.6418
X2.413Y-6.3128
X2.4629Y-7.0045
X2.6174Y-3.9275
X2.6314Y-5.5985
X2.6813Y-6.2902
X2.8498Y-4.8841
X2.8997Y-5.5759
X2.9136Y-7.2469
X3.0682Y-4.1698
X3.1181Y-4.8616
X3.132Y-6.5326
X3.182Y-7.2244
X3.3365Y-4.1473
X3.3504Y-5.8183
X3.4003Y-6.5101
X3.5688Y-5.104
X3.6187Y-5.7957
X3.6327Y-7.4667
X3.7872Y-4.3897
X3.8371Y-5.0814
X3.8511Y-6.7524
X3.901Y-7.4442
X4.0555Y-4.3671
X4.0695Y-6.0381
X4.1194Y-6.7299
X4.2878Y-5.3238
X4.3378Y-6.0156
X4.3517Y-7.6866
X4.5062Y-4.6095
X4.5562Y-5.3013
X4.5701Y-6.9723
X4.62Y-7.664
X4.7745Y-4.587
X4.7885Y-6.2579
X4.8384Y-6.9497
X5.0069Y-5.5436
X5.0568Y-6.2354
X5.0671Y-7.9053
X5.2253Y-4.8293
X5.2752Y-5.5211
X5.2855Y-7.191
X5.3354Y-7.8827
X5.4936Y-4.8068
X5.5538Y-7.1684
X7.0493Y-7.4386
X7.0493Y-8.1855
X7.2993Y-7.3386
X7.2993Y-8.0855
X7.8012Y-6.6916
X7.8012Y-7.4386
X7.8012Y-8.1855
X8.0512Y-6.5916
X8.0512Y-7.3386
X8.0512Y-8.0855
X8.5531Y-6.6916
X8.5531Y-7.4386
X8.5531Y-8.1855
X8.8031Y-6.5916
X8.8031Y-7.3386
X8.8031Y-8.0855
X9.305Y-6.6916
X9.305Y-7.4386
X9.305Y-8.1855
X9.555Y-6.5916
X9.555Y-7.3386
X9.555Y-8.0855
X10.9569Y-7.2787
X11.0208Y-4.9159
X11.1667Y-7.1099
X11.1753Y-7.993
X11.2306Y-4.7472
X11.2392Y-5.6302
X11.3851Y-7.8243
X11.449Y-5.4615
X11.4576Y-6.3445
X11.6674Y-6.1758
X11.6759Y-7.0588
X11.7391Y-4.6963
X11.8858Y-6.8901
X11.8943Y-7.7732
X11.9489Y-4.5276
X11.9582Y-5.4104
X12.1042Y-7.6044
X12.168Y-5.2417
X12.1766Y-6.1247
X12.3864Y-5.956
X12.395Y-6.839
X12.4574Y-4.4767
X12.6048Y-6.6703
X12.6134Y-7.5533
X12.6672Y-4.308
X12.6772Y-5.1906
X12.8232Y-7.3846
X12.8871Y-5.0218
X12.8956Y-5.9049
X13.1055Y-5.7361
X13.114Y-6.6192
X13.1757Y-4.2571
X13.3239Y-6.4505
X13.3324Y-7.3335
X13.3855Y-4.0884
X13.3963Y-4.9707
X13.5422Y-7.1648
X13.6061Y-4.802
X13.6147Y-5.685
X13.8245Y-5.5163
X13.8331Y-6.3993
X13.894Y-4.0375
X14.0429Y-6.2306
X14.0514Y-7.1137
X14.1038Y-3.8688
X14.1153Y-4.7509
X14.2613Y-6.9449
X14.3252Y-4.5822
X14.3337Y-5.4652
X14.5435Y-5.2965
X14.5521Y-6.1795
X14.6123Y-3.8179
X14.7619Y-6.0108
X14.7705Y-6.8938
X14.8221Y-3.6492
X14.8307Y-4.5322
X14.9803Y-6.7251
X15.0405Y-4.3635
X15.049Y-5.2465
X15.2589Y-5.0778
X15.2674Y-5.9608
X15.4773Y-5.7921
X15.4858Y-6.6751
X15.6957Y-6.5064
T4
X0.8707Y-6.7269
X1.0891Y-6.0126
X1.3075Y-5.2983
X1.5259Y-4.584
X1.5898Y-6.9467
X1.7443Y-3.8697
X1.8082Y-6.2324
X2.0266Y-5.5181
X2.2449Y-4.8038
X2.3088Y-7.1666
X2.4633Y-4.0895
X2.5272Y-6.4523
X2.7456Y-5.7379
X2.964Y-5.0236
X3.0279Y-7.3864
X3.1824Y-4.3093
X3.2462Y-6.6721
X3.4646Y-5.9578
X3.683Y-5.2435
X3.7469Y-7.6062
X3.9014Y-4.5291
X3.9653Y-6.8919
X4.1837Y-6.1776
X4.4021Y-5.4633
X4.4659Y-7.8261
X4.6204Y-4.749
X4.6843Y-7.1117
X4.9027Y-6.3974
X5.1211Y-5.6831
X5.1813Y-8.0448
X5.3395Y-4.9688
X5.3997Y-7.3304
X7.1993Y-7.5386
X7.1993Y-8.2855
X7.9512Y-6.7916
X7.9512Y-7.5386
X7.9512Y-8.2855
X8.7031Y-6.7916
X8.7031Y-7.5386
X8.7031Y-8.2855
X9.455Y-6.7916
X9.455Y-7.5386
X9.455Y-8.2855
X11.1296Y-7.3304
X11.1935Y-4.9677
X11.348Y-8.0448
X11.4119Y-5.682
X11.6302Y-6.3963
X11.8486Y-7.1106
X11.9118Y-4.7481
X12.067Y-7.8249
X12.1309Y-5.4622
X12.3493Y-6.1765
X12.5677Y-6.8908
X12.6301Y-4.5285
X12.7861Y-7.6051
X12.8499Y-5.2423
X13.0683Y-5.9566
X13.2867Y-6.671
X13.3484Y-4.3089
X13.5051Y-7.3853
X13.569Y-5.0225
X13.7873Y-5.7368
X14.0057Y-6.4511
X14.0667Y-4.0893
X14.2241Y-7.1654
X14.288Y-4.8027
X14.5064Y-5.517
X14.7248Y-6.2313
X14.785Y-3.8697
X14.9432Y-6.9456
X15.0033Y-4.584
X15.2217Y-5.2983
X15.4401Y-6.0126
X15.6585Y-6.7269
T1
G00X7.1585Y-6.5712
M15
G01X7.2097Y-6.5712
M16
G05
G00X7.1585Y-7.0121
M15
G01X7.2097Y-7.0121
M16
G05
M30
