G04 #@! TF.GenerationSoftware,KiCad,Pcbnew,8.0.6*
G04 #@! TF.CreationDate,2024-10-28T13:20:39+01:00*
G04 #@! TF.ProjectId,pteranodon,70746572-616e-46f6-946f-6e2e6b696361,rev?*
G04 #@! TF.SameCoordinates,Original*
G04 #@! TF.FileFunction,Paste,Bot*
G04 #@! TF.FilePolarity,Positive*
%FSLAX46Y46*%
G04 Gerber Fmt 4.6, Leading zero omitted, Abs format (unit mm)*
G04 Created by KiCad (PCBNEW 8.0.6) date 2024-10-28 13:20:39*
%MOMM*%
%LPD*%
G01*
G04 APERTURE LIST*
G04 Aperture macros list*
%AMRotRect*
0 Rectangle, with rotation*
0 The origin of the aperture is its center*
0 $1 length*
0 $2 width*
0 $3 Rotation angle, in degrees counterclockwise*
0 Add horizontal line*
21,1,$1,$2,0,0,$3*%
G04 Aperture macros list end*
%ADD10R,2.550000X2.500000*%
%ADD11RotRect,2.550000X2.500000X17.000000*%
%ADD12RotRect,2.550000X2.500000X343.000000*%
G04 APERTURE END LIST*
D10*
X246170521Y-165337278D03*
X232320521Y-167877278D03*
X246170522Y-203282278D03*
X232320522Y-205822278D03*
D11*
X292493099Y-195549600D03*
X279990902Y-202027962D03*
D12*
X119037043Y-133658381D03*
X105049598Y-132038047D03*
D11*
X323473092Y-166238679D03*
X310970895Y-172717041D03*
D12*
X95226514Y-146218159D03*
X81239069Y-144597825D03*
X142847575Y-121098607D03*
X128860130Y-119478273D03*
D11*
X286946075Y-177406108D03*
X274443878Y-183884470D03*
D12*
X113490021Y-151801873D03*
X99502576Y-150181539D03*
X53152472Y-153194222D03*
X39165027Y-151573888D03*
D11*
X312379049Y-129951695D03*
X299876852Y-136430057D03*
X305209585Y-171822392D03*
X292707388Y-178300754D03*
D12*
X88057049Y-104347460D03*
X74069604Y-102727126D03*
X34888966Y-147610506D03*
X20901521Y-145990172D03*
D11*
X361547576Y-95079980D03*
X349045379Y-101558342D03*
X310756607Y-189965883D03*
X298254410Y-196444245D03*
X396433407Y-143932472D03*
X383931210Y-150410834D03*
D10*
X227072523Y-203282278D03*
X213222523Y-205822278D03*
D12*
X40435988Y-129467015D03*
X26448543Y-127846681D03*
D10*
X207974522Y-184309778D03*
X194124522Y-186849778D03*
D11*
X325058046Y-106235949D03*
X312555849Y-112714311D03*
D12*
X124584066Y-115514890D03*
X110596621Y-113894556D03*
D11*
X317926071Y-148095186D03*
X305423874Y-154573548D03*
D12*
X45983009Y-111323523D03*
X31995564Y-109703189D03*
X138829274Y-199227636D03*
X124841829Y-197607302D03*
D11*
X401980428Y-162075963D03*
X389478231Y-168554325D03*
D12*
X131753528Y-157385588D03*
X117766083Y-155765254D03*
X58699496Y-135050730D03*
X44712051Y-133430396D03*
D11*
X299662563Y-153678900D03*
X287160366Y-160157262D03*
D12*
X65868960Y-176921430D03*
X51881515Y-175301096D03*
D11*
X360000107Y-155071248D03*
X347497910Y-161549610D03*
X379792340Y-89501996D03*
X367290143Y-95980358D03*
X330642557Y-124367979D03*
X318140360Y-130846341D03*
D12*
X107943000Y-169945367D03*
X93955555Y-168325033D03*
D10*
X227072521Y-165337278D03*
X213222521Y-167877278D03*
D12*
X100773535Y-128074669D03*
X86786090Y-126454335D03*
X126206508Y-175529080D03*
X112219063Y-173908746D03*
D10*
X246170521Y-184309778D03*
X232320521Y-186849778D03*
D11*
X390886386Y-125788979D03*
X378384189Y-132267341D03*
X343302810Y-100657965D03*
X330800613Y-107136327D03*
X288568517Y-117391917D03*
X276066320Y-123870279D03*
D12*
X82510029Y-122490953D03*
X68522584Y-120870619D03*
D10*
X207974522Y-203282278D03*
X194124522Y-205822278D03*
D11*
X347283623Y-178798456D03*
X334781426Y-185276818D03*
D12*
X29341945Y-165753998D03*
X15354500Y-164133664D03*
D11*
X365547131Y-173214740D03*
X353044934Y-179693102D03*
D12*
X76963007Y-140634444D03*
X62975562Y-139014110D03*
D11*
X367169573Y-113200549D03*
X354667376Y-119678911D03*
D12*
X144376300Y-181084143D03*
X130388855Y-179463809D03*
X47605452Y-171337713D03*
X33618007Y-169717379D03*
X120659486Y-193672572D03*
X106672041Y-192052238D03*
D11*
X306813282Y-111813932D03*
X294311085Y-118292294D03*
D12*
X84132471Y-182505143D03*
X70145026Y-180884809D03*
X102395978Y-188088859D03*
X88408533Y-186468525D03*
D10*
X227072521Y-184309778D03*
X213222521Y-186849778D03*
X188876522Y-203282278D03*
X175026522Y-205822278D03*
D11*
X378263618Y-149487533D03*
X365761421Y-155965895D03*
X383810640Y-167631024D03*
X371308443Y-174109386D03*
X329020113Y-184382171D03*
X316517916Y-190860533D03*
D10*
X207974522Y-165337278D03*
X194124522Y-167877278D03*
X188876522Y-184309779D03*
X175026522Y-186849779D03*
D11*
X372716593Y-131344040D03*
X360214396Y-137822402D03*
D12*
X89679493Y-164361652D03*
X75692048Y-162741318D03*
X51530033Y-93180032D03*
X37542588Y-91559698D03*
D11*
X348906064Y-118784264D03*
X336403867Y-125262626D03*
D12*
X69793543Y-98763746D03*
X55806098Y-97143412D03*
D11*
X354453086Y-136927755D03*
X341950889Y-143406117D03*
D12*
X64246521Y-116907238D03*
X50259076Y-115286904D03*
D11*
X385339364Y-107645487D03*
X372837167Y-114123849D03*
X341736599Y-160654963D03*
X329234402Y-167133325D03*
D12*
X137300553Y-139242099D03*
X123313108Y-137621765D03*
X106320558Y-109931177D03*
X92333113Y-108310843D03*
D11*
X294115539Y-135535409D03*
X281613342Y-142013771D03*
D12*
X71415983Y-158777936D03*
X57428538Y-157157602D03*
D11*
X336189578Y-142511472D03*
X323687381Y-148989834D03*
M02*
