G04 #@! TF.GenerationSoftware,KiCad,Pcbnew,8.0.2*
G04 #@! TF.CreationDate,2024-05-12T11:37:13+02:00*
G04 #@! TF.ProjectId,pterodactyl,70746572-6f64-4616-9374-796c2e6b6963,rev?*
G04 #@! TF.SameCoordinates,Original*
G04 #@! TF.FileFunction,Profile,NP*
%FSLAX46Y46*%
G04 Gerber Fmt 4.6, Leading zero omitted, Abs format (unit mm)*
G04 Created by KiCad (PCBNEW 8.0.2) date 2024-05-12 11:37:13*
%MOMM*%
%LPD*%
G01*
G04 APERTURE LIST*
G04 #@! TA.AperFunction,Profile*
%ADD10C,0.100000*%
G04 #@! TD*
G04 APERTURE END LIST*
D10*
X201400000Y-79000000D02*
X201250000Y-79000000D01*
X183550000Y-80500000D02*
G75*
G02*
X185050000Y-79000000I1500001J-1D01*
G01*
X183550000Y-80500000D02*
X183550000Y-91700000D01*
X201250000Y-79000000D02*
X185050000Y-79000000D01*
X217600000Y-79000000D02*
G75*
G02*
X219100000Y-80500000I0J-1500000D01*
G01*
X70732691Y-58456424D02*
G75*
G02*
X81033107Y-52797642I7979613J-2320843D01*
G01*
X201320000Y-209990000D02*
X44905525Y-146632603D01*
X183266884Y-94202392D02*
X81033117Y-52797607D01*
X44905525Y-146632603D02*
G75*
G02*
X39246674Y-136332167I2320779J7979636D01*
G01*
X183550000Y-91700000D02*
X183550000Y-94300000D01*
X70732691Y-58456424D02*
X39246708Y-136332177D01*
X201320000Y-209990000D02*
X357744475Y-146632603D01*
X363403292Y-136332177D02*
G75*
G02*
X357744475Y-146632603I-7979624J-2320803D01*
G01*
X331917309Y-58456424D02*
X363403292Y-136332177D01*
X219383116Y-94202392D02*
X219100000Y-94300000D01*
X219100000Y-91700000D02*
X219100000Y-94300000D01*
X321616883Y-52797607D02*
G75*
G02*
X331917308Y-58456424I2320804J-7979621D01*
G01*
X219383116Y-94202392D02*
X321616883Y-52797607D01*
X219100000Y-80500000D02*
X219100000Y-91700000D01*
X201400000Y-79000000D02*
X217600000Y-79000000D01*
X183550000Y-94300000D02*
X183266884Y-94202392D01*
M02*
