%TF.GenerationSoftware,KiCad,Pcbnew,8.0.6*%
%TF.CreationDate,2024-10-28T13:21:29+01:00*%
%TF.ProjectId,pteranodon,70746572-616e-46f6-946f-6e2e6b696361,rev?*%
%TF.SameCoordinates,Original*%
%TF.FileFunction,Drillmap*%
%TF.FilePolarity,Positive*%
%FSLAX45Y45*%
G04 Gerber Fmt 4.5, Leading zero omitted, Abs format (unit mm)*
G04 Created by KiCad (PCBNEW 8.0.6) date 2024-10-28 13:21:29*
%MOMM*%
%LPD*%
G01*
G04 APERTURE LIST*
%ADD10C,0.200000*%
%ADD11C,0.150000*%
%ADD12C,0.100000*%
%ADD13C,0.170180*%
%ADD14C,0.300000*%
%ADD15C,0.398780*%
G04 APERTURE END LIST*
D10*
X27694138Y-11524378D02*
X37780750Y-8440391D01*
X1345539Y-17525286D02*
G75*
G02*
X1146352Y-17150681I87713J286898D01*
G01*
X3748467Y-8639571D02*
G75*
G02*
X4123070Y-8440391I286886J-87701D01*
G01*
X40757461Y-17150683D02*
G75*
G02*
X40558282Y-17525288I-286889J-87715D01*
G01*
X38155353Y-8639571D02*
X40757461Y-17150683D01*
X20037512Y-9234978D02*
X21866312Y-9234978D01*
X37780750Y-8440391D02*
G75*
G02*
X38155357Y-8639570I87712J-286897D01*
G01*
X21866312Y-9234978D02*
X23132434Y-11389485D01*
X20037512Y-9234978D02*
X18778419Y-11388887D01*
X14292120Y-11537488D02*
X18519424Y-11537488D01*
X40558281Y-17525286D02*
X26262129Y-21895174D01*
X14292120Y-11537488D02*
G75*
G02*
X14204362Y-11524365I2J300000D01*
G01*
X4123070Y-8440391D02*
X14204362Y-11524365D01*
X1345539Y-17525286D02*
X15635375Y-21895163D01*
X18778419Y-11388887D02*
G75*
G02*
X18519424Y-11537490I-258997J151399D01*
G01*
X26174433Y-21908278D02*
X15723105Y-21908278D01*
X15723105Y-21908278D02*
G75*
G02*
X15635375Y-21895162I-3J299950D01*
G01*
X26262129Y-21895174D02*
G75*
G02*
X26174433Y-21908278I-87697J286897D01*
G01*
X23391079Y-11537489D02*
G75*
G02*
X23132431Y-11389486I4J300011D01*
G01*
X1146359Y-17150683D02*
X3748467Y-8639571D01*
X27606422Y-11537488D02*
X23391079Y-11537489D01*
X27694138Y-11524378D02*
G75*
G02*
X27606422Y-11537488I-87717J286890D01*
G01*
D11*
X18145152Y-16406728D02*
X18295152Y-16556728D01*
X18295152Y-16406728D02*
X18145152Y-16556728D01*
D12*
X18155152Y-16556728D02*
X18285152Y-16556728D01*
X18285152Y-16406728D02*
G75*
G02*
X18285152Y-16556728I0J-75000D01*
G01*
X18285152Y-16406728D02*
X18155152Y-16406728D01*
X18155152Y-16406728D02*
G75*
G03*
X18155152Y-16556728I0J-75000D01*
G01*
D11*
X18145152Y-17526728D02*
X18295152Y-17676728D01*
X18295152Y-17526728D02*
X18145152Y-17676728D01*
D12*
X18155152Y-17676728D02*
X18285152Y-17676728D01*
X18285152Y-17526728D02*
G75*
G02*
X18285152Y-17676728I0J-75000D01*
G01*
X18285152Y-17526728D02*
X18155152Y-17526728D01*
X18155152Y-17526728D02*
G75*
G03*
X18155152Y-17676728I0J-75000D01*
G01*
D13*
X1783441Y-16728776D02*
G75*
G02*
X1613261Y-16728776I-85090J0D01*
G01*
X1613261Y-16728776D02*
G75*
G02*
X1783441Y-16728776I85090J0D01*
G01*
X2338143Y-14914427D02*
G75*
G02*
X2167963Y-14914427I-85090J0D01*
G01*
X2167963Y-14914427D02*
G75*
G02*
X2338143Y-14914427I85090J0D01*
G01*
X2755047Y-17025826D02*
G75*
G02*
X2584867Y-17025826I-85090J0D01*
G01*
X2584867Y-17025826D02*
G75*
G02*
X2755047Y-17025826I85090J0D01*
G01*
X2892845Y-13100078D02*
G75*
G02*
X2722666Y-13100078I-85090J0D01*
G01*
X2722666Y-13100078D02*
G75*
G02*
X2892845Y-13100078I85090J0D01*
G01*
X3309749Y-15211476D02*
G75*
G02*
X3139569Y-15211476I-85090J0D01*
G01*
X3139569Y-15211476D02*
G75*
G02*
X3309749Y-15211476I85090J0D01*
G01*
X3447548Y-11285728D02*
G75*
G02*
X3277368Y-11285728I-85090J0D01*
G01*
X3277368Y-11285728D02*
G75*
G02*
X3447548Y-11285728I85090J0D01*
G01*
X3609792Y-17287148D02*
G75*
G02*
X3439612Y-17287148I-85090J0D01*
G01*
X3439612Y-17287148D02*
G75*
G02*
X3609792Y-17287148I85090J0D01*
G01*
X3864451Y-13397127D02*
G75*
G02*
X3694271Y-13397127I-85090J0D01*
G01*
X3694271Y-13397127D02*
G75*
G02*
X3864451Y-13397127I85090J0D01*
G01*
X4002250Y-9471379D02*
G75*
G02*
X3832070Y-9471379I-85090J0D01*
G01*
X3832070Y-9471379D02*
G75*
G02*
X4002250Y-9471379I85090J0D01*
G01*
X4164494Y-15472798D02*
G75*
G02*
X3994314Y-15472798I-85090J0D01*
G01*
X3994314Y-15472798D02*
G75*
G02*
X4164494Y-15472798I85090J0D01*
G01*
X4419153Y-11582778D02*
G75*
G02*
X4248973Y-11582778I-85090J0D01*
G01*
X4248973Y-11582778D02*
G75*
G02*
X4419153Y-11582778I85090J0D01*
G01*
X4581398Y-17584197D02*
G75*
G02*
X4411218Y-17584197I-85090J0D01*
G01*
X4411218Y-17584197D02*
G75*
G02*
X4581398Y-17584197I85090J0D01*
G01*
X4719196Y-13658449D02*
G75*
G02*
X4549016Y-13658449I-85090J0D01*
G01*
X4549016Y-13658449D02*
G75*
G02*
X4719196Y-13658449I85090J0D01*
G01*
X4973856Y-9768429D02*
G75*
G02*
X4803676Y-9768429I-85090J0D01*
G01*
X4803676Y-9768429D02*
G75*
G02*
X4973856Y-9768429I85090J0D01*
G01*
X5136100Y-15769848D02*
G75*
G02*
X4965920Y-15769848I-85090J0D01*
G01*
X4965920Y-15769848D02*
G75*
G02*
X5136100Y-15769848I85090J0D01*
G01*
X5273899Y-11844100D02*
G75*
G02*
X5103719Y-11844100I-85090J0D01*
G01*
X5103719Y-11844100D02*
G75*
G02*
X5273899Y-11844100I85090J0D01*
G01*
X5436143Y-17845519D02*
G75*
G02*
X5265963Y-17845519I-85090J0D01*
G01*
X5265963Y-17845519D02*
G75*
G02*
X5436143Y-17845519I85090J0D01*
G01*
X5690802Y-13955499D02*
G75*
G02*
X5520622Y-13955499I-85090J0D01*
G01*
X5520622Y-13955499D02*
G75*
G02*
X5690802Y-13955499I85090J0D01*
G01*
X5828601Y-10029751D02*
G75*
G02*
X5658421Y-10029751I-85090J0D01*
G01*
X5658421Y-10029751D02*
G75*
G02*
X5828601Y-10029751I85090J0D01*
G01*
X5990845Y-16031170D02*
G75*
G02*
X5820665Y-16031170I-85090J0D01*
G01*
X5820665Y-16031170D02*
G75*
G02*
X5990845Y-16031170I85090J0D01*
G01*
X6245504Y-12141150D02*
G75*
G02*
X6075324Y-12141150I-85090J0D01*
G01*
X6075324Y-12141150D02*
G75*
G02*
X6245504Y-12141150I85090J0D01*
G01*
X6407748Y-18142569D02*
G75*
G02*
X6237568Y-18142569I-85090J0D01*
G01*
X6237568Y-18142569D02*
G75*
G02*
X6407748Y-18142569I85090J0D01*
G01*
X6545547Y-14216821D02*
G75*
G02*
X6375367Y-14216821I-85090J0D01*
G01*
X6375367Y-14216821D02*
G75*
G02*
X6545547Y-14216821I85090J0D01*
G01*
X6800207Y-10326800D02*
G75*
G02*
X6630027Y-10326800I-85090J0D01*
G01*
X6630027Y-10326800D02*
G75*
G02*
X6800207Y-10326800I85090J0D01*
G01*
X6962451Y-16328219D02*
G75*
G02*
X6792271Y-16328219I-85090J0D01*
G01*
X6792271Y-16328219D02*
G75*
G02*
X6962451Y-16328219I85090J0D01*
G01*
X7100250Y-12402471D02*
G75*
G02*
X6930070Y-12402471I-85090J0D01*
G01*
X6930070Y-12402471D02*
G75*
G02*
X7100250Y-12402471I85090J0D01*
G01*
X7262494Y-18403891D02*
G75*
G02*
X7092314Y-18403891I-85090J0D01*
G01*
X7092314Y-18403891D02*
G75*
G02*
X7262494Y-18403891I85090J0D01*
G01*
X7517153Y-14513870D02*
G75*
G02*
X7346973Y-14513870I-85090J0D01*
G01*
X7346973Y-14513870D02*
G75*
G02*
X7517153Y-14513870I85090J0D01*
G01*
X7654952Y-10588122D02*
G75*
G02*
X7484772Y-10588122I-85090J0D01*
G01*
X7484772Y-10588122D02*
G75*
G02*
X7654952Y-10588122I85090J0D01*
G01*
X7817196Y-16589541D02*
G75*
G02*
X7647016Y-16589541I-85090J0D01*
G01*
X7647016Y-16589541D02*
G75*
G02*
X7817196Y-16589541I85090J0D01*
G01*
X8071855Y-12699521D02*
G75*
G02*
X7901675Y-12699521I-85090J0D01*
G01*
X7901675Y-12699521D02*
G75*
G02*
X8071855Y-12699521I85090J0D01*
G01*
X8234099Y-18700940D02*
G75*
G02*
X8063919Y-18700940I-85090J0D01*
G01*
X8063919Y-18700940D02*
G75*
G02*
X8234099Y-18700940I85090J0D01*
G01*
X8371898Y-14775192D02*
G75*
G02*
X8201718Y-14775192I-85090J0D01*
G01*
X8201718Y-14775192D02*
G75*
G02*
X8371898Y-14775192I85090J0D01*
G01*
X8626557Y-10885172D02*
G75*
G02*
X8456377Y-10885172I-85090J0D01*
G01*
X8456377Y-10885172D02*
G75*
G02*
X8626557Y-10885172I85090J0D01*
G01*
X8788802Y-16886591D02*
G75*
G02*
X8618622Y-16886591I-85090J0D01*
G01*
X8618622Y-16886591D02*
G75*
G02*
X8788802Y-16886591I85090J0D01*
G01*
X8926600Y-12960843D02*
G75*
G02*
X8756420Y-12960843I-85090J0D01*
G01*
X8756420Y-12960843D02*
G75*
G02*
X8926600Y-12960843I85090J0D01*
G01*
X9088845Y-18962262D02*
G75*
G02*
X8918665Y-18962262I-85090J0D01*
G01*
X8918665Y-18962262D02*
G75*
G02*
X9088845Y-18962262I85090J0D01*
G01*
X9343504Y-15072242D02*
G75*
G02*
X9173324Y-15072242I-85090J0D01*
G01*
X9173324Y-15072242D02*
G75*
G02*
X9343504Y-15072242I85090J0D01*
G01*
X9481303Y-11146494D02*
G75*
G02*
X9311123Y-11146494I-85090J0D01*
G01*
X9311123Y-11146494D02*
G75*
G02*
X9481303Y-11146494I85090J0D01*
G01*
X9643547Y-17147913D02*
G75*
G02*
X9473367Y-17147913I-85090J0D01*
G01*
X9473367Y-17147913D02*
G75*
G02*
X9643547Y-17147913I85090J0D01*
G01*
X9898206Y-13257893D02*
G75*
G02*
X9728026Y-13257893I-85090J0D01*
G01*
X9728026Y-13257893D02*
G75*
G02*
X9898206Y-13257893I85090J0D01*
G01*
X10060450Y-19259312D02*
G75*
G02*
X9890270Y-19259312I-85090J0D01*
G01*
X9890270Y-19259312D02*
G75*
G02*
X10060450Y-19259312I85090J0D01*
G01*
X10198249Y-15333563D02*
G75*
G02*
X10028069Y-15333563I-85090J0D01*
G01*
X10028069Y-15333563D02*
G75*
G02*
X10198249Y-15333563I85090J0D01*
G01*
X10452908Y-11443543D02*
G75*
G02*
X10282728Y-11443543I-85090J0D01*
G01*
X10282728Y-11443543D02*
G75*
G02*
X10452908Y-11443543I85090J0D01*
G01*
X10615152Y-17444963D02*
G75*
G02*
X10444972Y-17444963I-85090J0D01*
G01*
X10444972Y-17444963D02*
G75*
G02*
X10615152Y-17444963I85090J0D01*
G01*
X10752951Y-13519214D02*
G75*
G02*
X10582771Y-13519214I-85090J0D01*
G01*
X10582771Y-13519214D02*
G75*
G02*
X10752951Y-13519214I85090J0D01*
G01*
X10915195Y-19520633D02*
G75*
G02*
X10745015Y-19520633I-85090J0D01*
G01*
X10745015Y-19520633D02*
G75*
G02*
X10915195Y-19520633I85090J0D01*
G01*
X11169854Y-15630613D02*
G75*
G02*
X10999674Y-15630613I-85090J0D01*
G01*
X10999674Y-15630613D02*
G75*
G02*
X11169854Y-15630613I85090J0D01*
G01*
X11307653Y-11704865D02*
G75*
G02*
X11137473Y-11704865I-85090J0D01*
G01*
X11137473Y-11704865D02*
G75*
G02*
X11307653Y-11704865I85090J0D01*
G01*
X11469897Y-17706284D02*
G75*
G02*
X11299717Y-17706284I-85090J0D01*
G01*
X11299717Y-17706284D02*
G75*
G02*
X11469897Y-17706284I85090J0D01*
G01*
X11724557Y-13816264D02*
G75*
G02*
X11554377Y-13816264I-85090J0D01*
G01*
X11554377Y-13816264D02*
G75*
G02*
X11724557Y-13816264I85090J0D01*
G01*
X11886801Y-19817683D02*
G75*
G02*
X11716621Y-19817683I-85090J0D01*
G01*
X11716621Y-19817683D02*
G75*
G02*
X11886801Y-19817683I85090J0D01*
G01*
X12024599Y-15891935D02*
G75*
G02*
X11854419Y-15891935I-85090J0D01*
G01*
X11854419Y-15891935D02*
G75*
G02*
X12024599Y-15891935I85090J0D01*
G01*
X12279259Y-12001915D02*
G75*
G02*
X12109079Y-12001915I-85090J0D01*
G01*
X12109079Y-12001915D02*
G75*
G02*
X12279259Y-12001915I85090J0D01*
G01*
X12441503Y-18003334D02*
G75*
G02*
X12271323Y-18003334I-85090J0D01*
G01*
X12271323Y-18003334D02*
G75*
G02*
X12441503Y-18003334I85090J0D01*
G01*
X12579302Y-14077586D02*
G75*
G02*
X12409122Y-14077586I-85090J0D01*
G01*
X12409122Y-14077586D02*
G75*
G02*
X12579302Y-14077586I85090J0D01*
G01*
X12732174Y-20076140D02*
G75*
G02*
X12561994Y-20076140I-85090J0D01*
G01*
X12561994Y-20076140D02*
G75*
G02*
X12732174Y-20076140I85090J0D01*
G01*
X12996205Y-16188985D02*
G75*
G02*
X12826025Y-16188985I-85090J0D01*
G01*
X12826025Y-16188985D02*
G75*
G02*
X12996205Y-16188985I85090J0D01*
G01*
X13134004Y-12263237D02*
G75*
G02*
X12963824Y-12263237I-85090J0D01*
G01*
X12963824Y-12263237D02*
G75*
G02*
X13134004Y-12263237I85090J0D01*
G01*
X13286877Y-18261791D02*
G75*
G02*
X13116697Y-18261791I-85090J0D01*
G01*
X13116697Y-18261791D02*
G75*
G02*
X13286877Y-18261791I85090J0D01*
G01*
X13550908Y-14374636D02*
G75*
G02*
X13380728Y-14374636I-85090J0D01*
G01*
X13380728Y-14374636D02*
G75*
G02*
X13550908Y-14374636I85090J0D01*
G01*
X13703780Y-20373189D02*
G75*
G02*
X13533600Y-20373189I-85090J0D01*
G01*
X13533600Y-20373189D02*
G75*
G02*
X13703780Y-20373189I85090J0D01*
G01*
X14105610Y-12560286D02*
G75*
G02*
X13935430Y-12560286I-85090J0D01*
G01*
X13935430Y-12560286D02*
G75*
G02*
X14105610Y-12560286I85090J0D01*
G01*
X14258482Y-18558840D02*
G75*
G02*
X14088302Y-18558840I-85090J0D01*
G01*
X14088302Y-18558840D02*
G75*
G02*
X14258482Y-18558840I85090J0D01*
G01*
X17835742Y-18938978D02*
G75*
G02*
X17665562Y-18938978I-85090J0D01*
G01*
X17665562Y-18938978D02*
G75*
G02*
X17835742Y-18938978I85090J0D01*
G01*
X17835742Y-20836228D02*
G75*
G02*
X17665562Y-20836228I-85090J0D01*
G01*
X17665562Y-20836228D02*
G75*
G02*
X17835742Y-20836228I85090J0D01*
G01*
X18851742Y-18938978D02*
G75*
G02*
X18681562Y-18938978I-85090J0D01*
G01*
X18681562Y-18938978D02*
G75*
G02*
X18851742Y-18938978I85090J0D01*
G01*
X18851742Y-20836228D02*
G75*
G02*
X18681562Y-20836228I-85090J0D01*
G01*
X18681562Y-20836228D02*
G75*
G02*
X18851742Y-20836228I85090J0D01*
G01*
X19745542Y-17041728D02*
G75*
G02*
X19575362Y-17041728I-85090J0D01*
G01*
X19575362Y-17041728D02*
G75*
G02*
X19745542Y-17041728I85090J0D01*
G01*
X19745542Y-18938978D02*
G75*
G02*
X19575362Y-18938978I-85090J0D01*
G01*
X19575362Y-18938978D02*
G75*
G02*
X19745542Y-18938978I85090J0D01*
G01*
X19745542Y-20836228D02*
G75*
G02*
X19575362Y-20836228I-85090J0D01*
G01*
X19575362Y-20836228D02*
G75*
G02*
X19745542Y-20836228I85090J0D01*
G01*
X20761542Y-17041728D02*
G75*
G02*
X20591362Y-17041728I-85090J0D01*
G01*
X20591362Y-17041728D02*
G75*
G02*
X20761542Y-17041728I85090J0D01*
G01*
X20761542Y-18938978D02*
G75*
G02*
X20591362Y-18938978I-85090J0D01*
G01*
X20591362Y-18938978D02*
G75*
G02*
X20761542Y-18938978I85090J0D01*
G01*
X20761542Y-20836228D02*
G75*
G02*
X20591362Y-20836228I-85090J0D01*
G01*
X20591362Y-20836228D02*
G75*
G02*
X20761542Y-20836228I85090J0D01*
G01*
X21655342Y-17041728D02*
G75*
G02*
X21485162Y-17041728I-85090J0D01*
G01*
X21485162Y-17041728D02*
G75*
G02*
X21655342Y-17041728I85090J0D01*
G01*
X21655342Y-18938978D02*
G75*
G02*
X21485162Y-18938978I-85090J0D01*
G01*
X21485162Y-18938978D02*
G75*
G02*
X21655342Y-18938978I85090J0D01*
G01*
X21655342Y-20836228D02*
G75*
G02*
X21485162Y-20836228I-85090J0D01*
G01*
X21485162Y-20836228D02*
G75*
G02*
X21655342Y-20836228I85090J0D01*
G01*
X22671342Y-17041728D02*
G75*
G02*
X22501162Y-17041728I-85090J0D01*
G01*
X22501162Y-17041728D02*
G75*
G02*
X22671342Y-17041728I85090J0D01*
G01*
X22671342Y-18938978D02*
G75*
G02*
X22501162Y-18938978I-85090J0D01*
G01*
X22501162Y-18938978D02*
G75*
G02*
X22671342Y-18938978I85090J0D01*
G01*
X22671342Y-20836228D02*
G75*
G02*
X22501162Y-20836228I-85090J0D01*
G01*
X22501162Y-20836228D02*
G75*
G02*
X22671342Y-20836228I85090J0D01*
G01*
X23565142Y-17041728D02*
G75*
G02*
X23394962Y-17041728I-85090J0D01*
G01*
X23394962Y-17041728D02*
G75*
G02*
X23565142Y-17041728I85090J0D01*
G01*
X23565142Y-18938978D02*
G75*
G02*
X23394962Y-18938978I-85090J0D01*
G01*
X23394962Y-18938978D02*
G75*
G02*
X23565142Y-18938978I85090J0D01*
G01*
X23565142Y-20836228D02*
G75*
G02*
X23394962Y-20836228I-85090J0D01*
G01*
X23394962Y-20836228D02*
G75*
G02*
X23565142Y-20836228I85090J0D01*
G01*
X24581142Y-17041728D02*
G75*
G02*
X24410962Y-17041728I-85090J0D01*
G01*
X24410962Y-17041728D02*
G75*
G02*
X24581142Y-17041728I85090J0D01*
G01*
X24581142Y-18938978D02*
G75*
G02*
X24410962Y-18938978I-85090J0D01*
G01*
X24410962Y-18938978D02*
G75*
G02*
X24581142Y-18938978I85090J0D01*
G01*
X24581142Y-20836228D02*
G75*
G02*
X24410962Y-20836228I-85090J0D01*
G01*
X24410962Y-20836228D02*
G75*
G02*
X24581142Y-20836228I85090J0D01*
G01*
X27840904Y-18558840D02*
G75*
G02*
X27670724Y-18558840I-85090J0D01*
G01*
X27670724Y-18558840D02*
G75*
G02*
X27840904Y-18558840I85090J0D01*
G01*
X28003148Y-12557421D02*
G75*
G02*
X27832968Y-12557421I-85090J0D01*
G01*
X27832968Y-12557421D02*
G75*
G02*
X28003148Y-12557421I85090J0D01*
G01*
X28395606Y-20373189D02*
G75*
G02*
X28225426Y-20373189I-85090J0D01*
G01*
X28225426Y-20373189D02*
G75*
G02*
X28395606Y-20373189I85090J0D01*
G01*
X28557850Y-14371770D02*
G75*
G02*
X28387670Y-14371770I-85090J0D01*
G01*
X28387670Y-14371770D02*
G75*
G02*
X28557850Y-14371770I85090J0D01*
G01*
X28812509Y-18261791D02*
G75*
G02*
X28642329Y-18261791I-85090J0D01*
G01*
X28642329Y-18261791D02*
G75*
G02*
X28812509Y-18261791I85090J0D01*
G01*
X28974754Y-12260371D02*
G75*
G02*
X28804574Y-12260371I-85090J0D01*
G01*
X28804574Y-12260371D02*
G75*
G02*
X28974754Y-12260371I85090J0D01*
G01*
X29112553Y-16186119D02*
G75*
G02*
X28942373Y-16186119I-85090J0D01*
G01*
X28942373Y-16186119D02*
G75*
G02*
X29112553Y-16186119I85090J0D01*
G01*
X29367212Y-20076140D02*
G75*
G02*
X29197032Y-20076140I-85090J0D01*
G01*
X29197032Y-20076140D02*
G75*
G02*
X29367212Y-20076140I85090J0D01*
G01*
X29529456Y-14074721D02*
G75*
G02*
X29359276Y-14074721I-85090J0D01*
G01*
X29359276Y-14074721D02*
G75*
G02*
X29529456Y-14074721I85090J0D01*
G01*
X29667255Y-18000469D02*
G75*
G02*
X29497075Y-18000469I-85090J0D01*
G01*
X29497075Y-18000469D02*
G75*
G02*
X29667255Y-18000469I85090J0D01*
G01*
X29827624Y-11999623D02*
G75*
G02*
X29657444Y-11999623I-85090J0D01*
G01*
X29657444Y-11999623D02*
G75*
G02*
X29827624Y-11999623I85090J0D01*
G01*
X30084158Y-15889070D02*
G75*
G02*
X29913978Y-15889070I-85090J0D01*
G01*
X29913978Y-15889070D02*
G75*
G02*
X30084158Y-15889070I85090J0D01*
G01*
X30221957Y-19814818D02*
G75*
G02*
X30051777Y-19814818I-85090J0D01*
G01*
X30051777Y-19814818D02*
G75*
G02*
X30221957Y-19814818I85090J0D01*
G01*
X30384201Y-13813399D02*
G75*
G02*
X30214021Y-13813399I-85090J0D01*
G01*
X30214021Y-13813399D02*
G75*
G02*
X30384201Y-13813399I85090J0D01*
G01*
X30638860Y-17703419D02*
G75*
G02*
X30468680Y-17703419I-85090J0D01*
G01*
X30468680Y-17703419D02*
G75*
G02*
X30638860Y-17703419I85090J0D01*
G01*
X30799230Y-11702573D02*
G75*
G02*
X30629050Y-11702573I-85090J0D01*
G01*
X30629050Y-11702573D02*
G75*
G02*
X30799230Y-11702573I85090J0D01*
G01*
X30938903Y-15627748D02*
G75*
G02*
X30768723Y-15627748I-85090J0D01*
G01*
X30768723Y-15627748D02*
G75*
G02*
X30938903Y-15627748I85090J0D01*
G01*
X31193563Y-19517768D02*
G75*
G02*
X31023383Y-19517768I-85090J0D01*
G01*
X31023383Y-19517768D02*
G75*
G02*
X31193563Y-19517768I85090J0D01*
G01*
X31355807Y-13516349D02*
G75*
G02*
X31185627Y-13516349I-85090J0D01*
G01*
X31185627Y-13516349D02*
G75*
G02*
X31355807Y-13516349I85090J0D01*
G01*
X31493605Y-17442097D02*
G75*
G02*
X31323425Y-17442097I-85090J0D01*
G01*
X31323425Y-17442097D02*
G75*
G02*
X31493605Y-17442097I85090J0D01*
G01*
X31652101Y-11441824D02*
G75*
G02*
X31481921Y-11441824I-85090J0D01*
G01*
X31481921Y-11441824D02*
G75*
G02*
X31652101Y-11441824I85090J0D01*
G01*
X31910509Y-15330698D02*
G75*
G02*
X31740329Y-15330698I-85090J0D01*
G01*
X31740329Y-15330698D02*
G75*
G02*
X31910509Y-15330698I85090J0D01*
G01*
X32048308Y-19256447D02*
G75*
G02*
X31878128Y-19256447I-85090J0D01*
G01*
X31878128Y-19256447D02*
G75*
G02*
X32048308Y-19256447I85090J0D01*
G01*
X32210552Y-13255027D02*
G75*
G02*
X32040372Y-13255027I-85090J0D01*
G01*
X32040372Y-13255027D02*
G75*
G02*
X32210552Y-13255027I85090J0D01*
G01*
X32465211Y-17145048D02*
G75*
G02*
X32295031Y-17145048I-85090J0D01*
G01*
X32295031Y-17145048D02*
G75*
G02*
X32465211Y-17145048I85090J0D01*
G01*
X32623706Y-11144775D02*
G75*
G02*
X32453526Y-11144775I-85090J0D01*
G01*
X32453526Y-11144775D02*
G75*
G02*
X32623706Y-11144775I85090J0D01*
G01*
X32765254Y-15069377D02*
G75*
G02*
X32595074Y-15069377I-85090J0D01*
G01*
X32595074Y-15069377D02*
G75*
G02*
X32765254Y-15069377I85090J0D01*
G01*
X33019913Y-18959397D02*
G75*
G02*
X32849733Y-18959397I-85090J0D01*
G01*
X32849733Y-18959397D02*
G75*
G02*
X33019913Y-18959397I85090J0D01*
G01*
X33182158Y-12957978D02*
G75*
G02*
X33011978Y-12957978I-85090J0D01*
G01*
X33011978Y-12957978D02*
G75*
G02*
X33182158Y-12957978I85090J0D01*
G01*
X33319956Y-16883726D02*
G75*
G02*
X33149776Y-16883726I-85090J0D01*
G01*
X33149776Y-16883726D02*
G75*
G02*
X33319956Y-16883726I85090J0D01*
G01*
X33476577Y-10884026D02*
G75*
G02*
X33306397Y-10884026I-85090J0D01*
G01*
X33306397Y-10884026D02*
G75*
G02*
X33476577Y-10884026I85090J0D01*
G01*
X33736860Y-14772327D02*
G75*
G02*
X33566680Y-14772327I-85090J0D01*
G01*
X33566680Y-14772327D02*
G75*
G02*
X33736860Y-14772327I85090J0D01*
G01*
X33874659Y-18698075D02*
G75*
G02*
X33704479Y-18698075I-85090J0D01*
G01*
X33704479Y-18698075D02*
G75*
G02*
X33874659Y-18698075I85090J0D01*
G01*
X34036903Y-12696656D02*
G75*
G02*
X33866723Y-12696656I-85090J0D01*
G01*
X33866723Y-12696656D02*
G75*
G02*
X34036903Y-12696656I85090J0D01*
G01*
X34291562Y-16586676D02*
G75*
G02*
X34121382Y-16586676I-85090J0D01*
G01*
X34121382Y-16586676D02*
G75*
G02*
X34291562Y-16586676I85090J0D01*
G01*
X34448183Y-10586976D02*
G75*
G02*
X34278003Y-10586976I-85090J0D01*
G01*
X34278003Y-10586976D02*
G75*
G02*
X34448183Y-10586976I85090J0D01*
G01*
X34591605Y-14511005D02*
G75*
G02*
X34421425Y-14511005I-85090J0D01*
G01*
X34421425Y-14511005D02*
G75*
G02*
X34591605Y-14511005I85090J0D01*
G01*
X34846264Y-18401025D02*
G75*
G02*
X34676084Y-18401025I-85090J0D01*
G01*
X34676084Y-18401025D02*
G75*
G02*
X34846264Y-18401025I85090J0D01*
G01*
X35008508Y-12399606D02*
G75*
G02*
X34838328Y-12399606I-85090J0D01*
G01*
X34838328Y-12399606D02*
G75*
G02*
X35008508Y-12399606I85090J0D01*
G01*
X35146307Y-16325354D02*
G75*
G02*
X34976127Y-16325354I-85090J0D01*
G01*
X34976127Y-16325354D02*
G75*
G02*
X35146307Y-16325354I85090J0D01*
G01*
X35301054Y-10326227D02*
G75*
G02*
X35130874Y-10326227I-85090J0D01*
G01*
X35130874Y-10326227D02*
G75*
G02*
X35301054Y-10326227I85090J0D01*
G01*
X35563211Y-14213955D02*
G75*
G02*
X35393031Y-14213955I-85090J0D01*
G01*
X35393031Y-14213955D02*
G75*
G02*
X35563211Y-14213955I85090J0D01*
G01*
X35701009Y-18139703D02*
G75*
G02*
X35530829Y-18139703I-85090J0D01*
G01*
X35530829Y-18139703D02*
G75*
G02*
X35701009Y-18139703I85090J0D01*
G01*
X35863254Y-12138284D02*
G75*
G02*
X35693074Y-12138284I-85090J0D01*
G01*
X35693074Y-12138284D02*
G75*
G02*
X35863254Y-12138284I85090J0D01*
G01*
X36117913Y-16028305D02*
G75*
G02*
X35947733Y-16028305I-85090J0D01*
G01*
X35947733Y-16028305D02*
G75*
G02*
X36117913Y-16028305I85090J0D01*
G01*
X36272660Y-10029178D02*
G75*
G02*
X36102480Y-10029178I-85090J0D01*
G01*
X36102480Y-10029178D02*
G75*
G02*
X36272660Y-10029178I85090J0D01*
G01*
X36417956Y-13952633D02*
G75*
G02*
X36247776Y-13952633I-85090J0D01*
G01*
X36247776Y-13952633D02*
G75*
G02*
X36417956Y-13952633I85090J0D01*
G01*
X36672615Y-17842654D02*
G75*
G02*
X36502435Y-17842654I-85090J0D01*
G01*
X36502435Y-17842654D02*
G75*
G02*
X36672615Y-17842654I85090J0D01*
G01*
X36834859Y-11841235D02*
G75*
G02*
X36664679Y-11841235I-85090J0D01*
G01*
X36664679Y-11841235D02*
G75*
G02*
X36834859Y-11841235I85090J0D01*
G01*
X36972658Y-15766983D02*
G75*
G02*
X36802478Y-15766983I-85090J0D01*
G01*
X36802478Y-15766983D02*
G75*
G02*
X36972658Y-15766983I85090J0D01*
G01*
X37125530Y-9768429D02*
G75*
G02*
X36955350Y-9768429I-85090J0D01*
G01*
X36955350Y-9768429D02*
G75*
G02*
X37125530Y-9768429I85090J0D01*
G01*
X37389561Y-13655584D02*
G75*
G02*
X37219381Y-13655584I-85090J0D01*
G01*
X37219381Y-13655584D02*
G75*
G02*
X37389561Y-13655584I85090J0D01*
G01*
X37527360Y-17581332D02*
G75*
G02*
X37357180Y-17581332I-85090J0D01*
G01*
X37357180Y-17581332D02*
G75*
G02*
X37527360Y-17581332I85090J0D01*
G01*
X37680233Y-11582778D02*
G75*
G02*
X37510053Y-11582778I-85090J0D01*
G01*
X37510053Y-11582778D02*
G75*
G02*
X37680233Y-11582778I85090J0D01*
G01*
X37944264Y-15469933D02*
G75*
G02*
X37774084Y-15469933I-85090J0D01*
G01*
X37774084Y-15469933D02*
G75*
G02*
X37944264Y-15469933I85090J0D01*
G01*
X38097136Y-9471379D02*
G75*
G02*
X37926956Y-9471379I-85090J0D01*
G01*
X37926956Y-9471379D02*
G75*
G02*
X38097136Y-9471379I85090J0D01*
G01*
X38234935Y-13397127D02*
G75*
G02*
X38064755Y-13397127I-85090J0D01*
G01*
X38064755Y-13397127D02*
G75*
G02*
X38234935Y-13397127I85090J0D01*
G01*
X38498966Y-17284282D02*
G75*
G02*
X38328786Y-17284282I-85090J0D01*
G01*
X38328786Y-17284282D02*
G75*
G02*
X38498966Y-17284282I85090J0D01*
G01*
X38651838Y-11285728D02*
G75*
G02*
X38481658Y-11285728I-85090J0D01*
G01*
X38481658Y-11285728D02*
G75*
G02*
X38651838Y-11285728I85090J0D01*
G01*
X38789637Y-15211477D02*
G75*
G02*
X38619457Y-15211477I-85090J0D01*
G01*
X38619457Y-15211477D02*
G75*
G02*
X38789637Y-15211477I85090J0D01*
G01*
X39206541Y-13100078D02*
G75*
G02*
X39036361Y-13100078I-85090J0D01*
G01*
X39036361Y-13100078D02*
G75*
G02*
X39206541Y-13100078I85090J0D01*
G01*
X39344339Y-17025826D02*
G75*
G02*
X39174159Y-17025826I-85090J0D01*
G01*
X39174159Y-17025826D02*
G75*
G02*
X39344339Y-17025826I85090J0D01*
G01*
X39761243Y-14914427D02*
G75*
G02*
X39591063Y-14914427I-85090J0D01*
G01*
X39591063Y-14914427D02*
G75*
G02*
X39761243Y-14914427I85090J0D01*
G01*
X40315945Y-16728776D02*
G75*
G02*
X40145765Y-16728776I-85090J0D01*
G01*
X40145765Y-16728776D02*
G75*
G02*
X40315945Y-16728776I85090J0D01*
G01*
D14*
X1894064Y-16373006D02*
X1894064Y-16673006D01*
X1744064Y-16523006D02*
X2044064Y-16523006D01*
X2448766Y-14558657D02*
X2448766Y-14858657D01*
X2298766Y-14708657D02*
X2598766Y-14708657D01*
X2575580Y-16315760D02*
X2575580Y-16615760D01*
X2425580Y-16465760D02*
X2725580Y-16465760D01*
X3003469Y-12744307D02*
X3003469Y-13044307D01*
X2853469Y-12894307D02*
X3153469Y-12894307D01*
X3130282Y-14501411D02*
X3130282Y-14801411D01*
X2980282Y-14651411D02*
X3280282Y-14651411D01*
X3558171Y-10929958D02*
X3558171Y-11229958D01*
X3408171Y-11079958D02*
X3708171Y-11079958D01*
X3684984Y-12687062D02*
X3684984Y-12987062D01*
X3534984Y-12837062D02*
X3834984Y-12837062D01*
X3720415Y-16931377D02*
X3720415Y-17231377D01*
X3570415Y-17081377D02*
X3870415Y-17081377D01*
X4112873Y-9115609D02*
X4112873Y-9415609D01*
X3962873Y-9265609D02*
X4262873Y-9265609D01*
X4239687Y-10872713D02*
X4239687Y-11172713D01*
X4089687Y-11022713D02*
X4389687Y-11022713D01*
X4275117Y-15117028D02*
X4275117Y-15417028D01*
X4125117Y-15267028D02*
X4425117Y-15267028D01*
X4401931Y-16874132D02*
X4401931Y-17174132D01*
X4251931Y-17024132D02*
X4551931Y-17024132D01*
X4794389Y-9058364D02*
X4794389Y-9358364D01*
X4644389Y-9208364D02*
X4944389Y-9208364D01*
X4829819Y-13302679D02*
X4829819Y-13602679D01*
X4679819Y-13452679D02*
X4979819Y-13452679D01*
X4956633Y-15059783D02*
X4956633Y-15359783D01*
X4806633Y-15209783D02*
X5106633Y-15209783D01*
X5384522Y-11488330D02*
X5384522Y-11788330D01*
X5234522Y-11638330D02*
X5534522Y-11638330D01*
X5511335Y-13245434D02*
X5511335Y-13545434D01*
X5361335Y-13395434D02*
X5661335Y-13395434D01*
X5546766Y-17489749D02*
X5546766Y-17789749D01*
X5396766Y-17639749D02*
X5696766Y-17639749D01*
X5939224Y-9673981D02*
X5939224Y-9973981D01*
X5789224Y-9823981D02*
X6089224Y-9823981D01*
X6066038Y-11431084D02*
X6066038Y-11731084D01*
X5916038Y-11581084D02*
X6216038Y-11581084D01*
X6101468Y-15675400D02*
X6101468Y-15975400D01*
X5951468Y-15825400D02*
X6251468Y-15825400D01*
X6228282Y-17432504D02*
X6228282Y-17732504D01*
X6078282Y-17582504D02*
X6378282Y-17582504D01*
X6620740Y-9616735D02*
X6620740Y-9916735D01*
X6470740Y-9766735D02*
X6770740Y-9766735D01*
X6656170Y-13861050D02*
X6656170Y-14161050D01*
X6506170Y-14011050D02*
X6806170Y-14011050D01*
X6782984Y-15618154D02*
X6782984Y-15918154D01*
X6632984Y-15768154D02*
X6932984Y-15768154D01*
X7210873Y-12046701D02*
X7210873Y-12346701D01*
X7060873Y-12196701D02*
X7360873Y-12196701D01*
X7337686Y-13803805D02*
X7337686Y-14103805D01*
X7187686Y-13953805D02*
X7487686Y-13953805D01*
X7373117Y-18048120D02*
X7373117Y-18348120D01*
X7223117Y-18198120D02*
X7523117Y-18198120D01*
X7765575Y-10232352D02*
X7765575Y-10532352D01*
X7615575Y-10382352D02*
X7915575Y-10382352D01*
X7892389Y-11989456D02*
X7892389Y-12289456D01*
X7742389Y-12139456D02*
X8042389Y-12139456D01*
X7927819Y-16233771D02*
X7927819Y-16533771D01*
X7777819Y-16383771D02*
X8077819Y-16383771D01*
X8054633Y-17990875D02*
X8054633Y-18290875D01*
X7904633Y-18140875D02*
X8204633Y-18140875D01*
X8447091Y-10175107D02*
X8447091Y-10475107D01*
X8297091Y-10325107D02*
X8597091Y-10325107D01*
X8482521Y-14419422D02*
X8482521Y-14719422D01*
X8332521Y-14569422D02*
X8632521Y-14569422D01*
X8609335Y-16176526D02*
X8609335Y-16476526D01*
X8459335Y-16326526D02*
X8759335Y-16326526D01*
X9037223Y-12605073D02*
X9037223Y-12905073D01*
X8887223Y-12755073D02*
X9187223Y-12755073D01*
X9164037Y-14362176D02*
X9164037Y-14662176D01*
X9014037Y-14512176D02*
X9314037Y-14512176D01*
X9199468Y-18606492D02*
X9199468Y-18906492D01*
X9049468Y-18756492D02*
X9349468Y-18756492D01*
X9591926Y-10790724D02*
X9591926Y-11090724D01*
X9441926Y-10940724D02*
X9741926Y-10940724D01*
X9718739Y-12547827D02*
X9718739Y-12847827D01*
X9568739Y-12697827D02*
X9868739Y-12697827D01*
X9754170Y-16792143D02*
X9754170Y-17092143D01*
X9604170Y-16942143D02*
X9904170Y-16942143D01*
X9880984Y-18549247D02*
X9880984Y-18849247D01*
X9730984Y-18699247D02*
X10030984Y-18699247D01*
X10273442Y-10733478D02*
X10273442Y-11033478D01*
X10123442Y-10883478D02*
X10423442Y-10883478D01*
X10308872Y-14977793D02*
X10308872Y-15277793D01*
X10158872Y-15127793D02*
X10458872Y-15127793D01*
X10435686Y-16734897D02*
X10435686Y-17034897D01*
X10285686Y-16884897D02*
X10585686Y-16884897D01*
X10863574Y-13163444D02*
X10863574Y-13463444D01*
X10713574Y-13313444D02*
X11013574Y-13313444D01*
X10990388Y-14920548D02*
X10990388Y-15220548D01*
X10840388Y-15070548D02*
X11140388Y-15070548D01*
X11025818Y-19164863D02*
X11025818Y-19464863D01*
X10875818Y-19314863D02*
X11175818Y-19314863D01*
X11418276Y-11349095D02*
X11418276Y-11649095D01*
X11268276Y-11499095D02*
X11568276Y-11499095D01*
X11545090Y-13106199D02*
X11545090Y-13406199D01*
X11395090Y-13256199D02*
X11695090Y-13256199D01*
X11580521Y-17350514D02*
X11580521Y-17650514D01*
X11430521Y-17500514D02*
X11730521Y-17500514D01*
X11707334Y-19107618D02*
X11707334Y-19407618D01*
X11557334Y-19257618D02*
X11857334Y-19257618D01*
X12099792Y-11291850D02*
X12099792Y-11591850D01*
X11949792Y-11441850D02*
X12249792Y-11441850D01*
X12135223Y-15536165D02*
X12135223Y-15836165D01*
X11985223Y-15686165D02*
X12285223Y-15686165D01*
X12262036Y-17293269D02*
X12262036Y-17593269D01*
X12112036Y-17443269D02*
X12412036Y-17443269D01*
X12689925Y-13721816D02*
X12689925Y-14021816D01*
X12539925Y-13871816D02*
X12839925Y-13871816D01*
X12816738Y-15478919D02*
X12816738Y-15778919D01*
X12666738Y-15628919D02*
X12966738Y-15628919D01*
X12842797Y-19720370D02*
X12842797Y-20020370D01*
X12692797Y-19870370D02*
X12992797Y-19870370D01*
X13244627Y-11907467D02*
X13244627Y-12207467D01*
X13094627Y-12057467D02*
X13394627Y-12057467D01*
X13371441Y-13664570D02*
X13371441Y-13964570D01*
X13221441Y-13814570D02*
X13521441Y-13814570D01*
X13397500Y-17906020D02*
X13397500Y-18206020D01*
X13247500Y-18056020D02*
X13547500Y-18056020D01*
X13524313Y-19663124D02*
X13524313Y-19963124D01*
X13374313Y-19813124D02*
X13674313Y-19813124D01*
X13926143Y-11850221D02*
X13926143Y-12150221D01*
X13776143Y-12000221D02*
X14076143Y-12000221D01*
X14079016Y-17848775D02*
X14079016Y-18148775D01*
X13929016Y-17998775D02*
X14229016Y-17998775D01*
X17877652Y-18534978D02*
X17877652Y-18834978D01*
X17727652Y-18684978D02*
X18027652Y-18684978D01*
X17877652Y-20432228D02*
X17877652Y-20732228D01*
X17727652Y-20582228D02*
X18027652Y-20582228D01*
X18512652Y-18280978D02*
X18512652Y-18580978D01*
X18362652Y-18430978D02*
X18662652Y-18430978D01*
X18512652Y-20178228D02*
X18512652Y-20478228D01*
X18362652Y-20328228D02*
X18662652Y-20328228D01*
X19787452Y-16637728D02*
X19787452Y-16937728D01*
X19637452Y-16787728D02*
X19937452Y-16787728D01*
X19787452Y-18534978D02*
X19787452Y-18834978D01*
X19637452Y-18684978D02*
X19937452Y-18684978D01*
X19787452Y-20432228D02*
X19787452Y-20732228D01*
X19637452Y-20582228D02*
X19937452Y-20582228D01*
X20422452Y-16383728D02*
X20422452Y-16683728D01*
X20272452Y-16533728D02*
X20572452Y-16533728D01*
X20422452Y-18280978D02*
X20422452Y-18580978D01*
X20272452Y-18430978D02*
X20572452Y-18430978D01*
X20422452Y-20178228D02*
X20422452Y-20478228D01*
X20272452Y-20328228D02*
X20572452Y-20328228D01*
X21697252Y-16637728D02*
X21697252Y-16937728D01*
X21547252Y-16787728D02*
X21847252Y-16787728D01*
X21697252Y-18534978D02*
X21697252Y-18834978D01*
X21547252Y-18684978D02*
X21847252Y-18684978D01*
X21697252Y-20432228D02*
X21697252Y-20732228D01*
X21547252Y-20582228D02*
X21847252Y-20582228D01*
X22332252Y-16383728D02*
X22332252Y-16683728D01*
X22182252Y-16533728D02*
X22482252Y-16533728D01*
X22332252Y-18280978D02*
X22332252Y-18580978D01*
X22182252Y-18430978D02*
X22482252Y-18430978D01*
X22332252Y-20178228D02*
X22332252Y-20478228D01*
X22182252Y-20328228D02*
X22482252Y-20328228D01*
X23607052Y-16637728D02*
X23607052Y-16937728D01*
X23457052Y-16787728D02*
X23757052Y-16787728D01*
X23607052Y-18534978D02*
X23607052Y-18834978D01*
X23457052Y-18684978D02*
X23757052Y-18684978D01*
X23607052Y-20432228D02*
X23607052Y-20732228D01*
X23457052Y-20582228D02*
X23757052Y-20582228D01*
X24242052Y-16383728D02*
X24242052Y-16683728D01*
X24092052Y-16533728D02*
X24392052Y-16533728D01*
X24242052Y-18280978D02*
X24242052Y-18580978D01*
X24092052Y-18430978D02*
X24392052Y-18430978D01*
X24242052Y-20178228D02*
X24242052Y-20478228D01*
X24092052Y-20328228D02*
X24392052Y-20328228D01*
X27803002Y-18128808D02*
X27803002Y-18428808D01*
X27653002Y-18278808D02*
X27953002Y-18278808D01*
X27965246Y-12127388D02*
X27965246Y-12427388D01*
X27815246Y-12277388D02*
X28115246Y-12277388D01*
X28335993Y-17700250D02*
X28335993Y-18000250D01*
X28185993Y-17850250D02*
X28485993Y-17850250D01*
X28357704Y-19943157D02*
X28357704Y-20243157D01*
X28207704Y-20093157D02*
X28507704Y-20093157D01*
X28498237Y-11698831D02*
X28498237Y-11998831D01*
X28348237Y-11848831D02*
X28648237Y-11848831D01*
X28519948Y-13941738D02*
X28519948Y-14241738D01*
X28369948Y-14091738D02*
X28669948Y-14091738D01*
X28890696Y-19514599D02*
X28890696Y-19814599D01*
X28740696Y-19664599D02*
X29040696Y-19664599D01*
X29052940Y-13513180D02*
X29052940Y-13813180D01*
X28902940Y-13663180D02*
X29202940Y-13663180D01*
X29074651Y-15756087D02*
X29074651Y-16056087D01*
X28924651Y-15906087D02*
X29224651Y-15906087D01*
X29607642Y-15327529D02*
X29607642Y-15627529D01*
X29457642Y-15477529D02*
X29757642Y-15477529D01*
X29629353Y-17570436D02*
X29629353Y-17870436D01*
X29479353Y-17720436D02*
X29779353Y-17720436D01*
X29789723Y-11569590D02*
X29789723Y-11869590D01*
X29639723Y-11719590D02*
X29939723Y-11719590D01*
X30162344Y-17141879D02*
X30162344Y-17441879D01*
X30012344Y-17291879D02*
X30312344Y-17291879D01*
X30184055Y-19384785D02*
X30184055Y-19684785D01*
X30034055Y-19534785D02*
X30334055Y-19534785D01*
X30322714Y-11141033D02*
X30322714Y-11441033D01*
X30172714Y-11291033D02*
X30472714Y-11291033D01*
X30346299Y-13383366D02*
X30346299Y-13683366D01*
X30196299Y-13533366D02*
X30496299Y-13533366D01*
X30717046Y-18956228D02*
X30717046Y-19256228D01*
X30567046Y-19106228D02*
X30867046Y-19106228D01*
X30879291Y-12954809D02*
X30879291Y-13254809D01*
X30729291Y-13104809D02*
X31029291Y-13104809D01*
X30901002Y-15197715D02*
X30901002Y-15497715D01*
X30751002Y-15347715D02*
X31051002Y-15347715D01*
X31433993Y-14769158D02*
X31433993Y-15069158D01*
X31283993Y-14919158D02*
X31583993Y-14919158D01*
X31455704Y-17012065D02*
X31455704Y-17312065D01*
X31305704Y-17162065D02*
X31605704Y-17162065D01*
X31614199Y-11011792D02*
X31614199Y-11311792D01*
X31464199Y-11161792D02*
X31764199Y-11161792D01*
X31988695Y-16583507D02*
X31988695Y-16883507D01*
X31838695Y-16733507D02*
X32138695Y-16733507D01*
X32010406Y-18826414D02*
X32010406Y-19126414D01*
X31860406Y-18976414D02*
X32160406Y-18976414D01*
X32147190Y-10583234D02*
X32147190Y-10883234D01*
X31997190Y-10733234D02*
X32297190Y-10733234D01*
X32172650Y-12824995D02*
X32172650Y-13124995D01*
X32022650Y-12974995D02*
X32322650Y-12974995D01*
X32543397Y-18397857D02*
X32543397Y-18697857D01*
X32393397Y-18547857D02*
X32693397Y-18547857D01*
X32705641Y-12396437D02*
X32705641Y-12696437D01*
X32555641Y-12546437D02*
X32855641Y-12546437D01*
X32727352Y-14639344D02*
X32727352Y-14939344D01*
X32577352Y-14789344D02*
X32877352Y-14789344D01*
X33260343Y-14210787D02*
X33260343Y-14510787D01*
X33110343Y-14360787D02*
X33410343Y-14360787D01*
X33282054Y-16453693D02*
X33282054Y-16753693D01*
X33132054Y-16603693D02*
X33432054Y-16603693D01*
X33438676Y-10453993D02*
X33438676Y-10753993D01*
X33288676Y-10603993D02*
X33588676Y-10603993D01*
X33815046Y-16025136D02*
X33815046Y-16325136D01*
X33665046Y-16175136D02*
X33965046Y-16175136D01*
X33836757Y-18268042D02*
X33836757Y-18568042D01*
X33686757Y-18418042D02*
X33986757Y-18418042D01*
X33971667Y-10025436D02*
X33971667Y-10325436D01*
X33821667Y-10175436D02*
X34121667Y-10175436D01*
X33999001Y-12266623D02*
X33999001Y-12566623D01*
X33849001Y-12416623D02*
X34149001Y-12416623D01*
X34369748Y-17839485D02*
X34369748Y-18139485D01*
X34219748Y-17989485D02*
X34519748Y-17989485D01*
X34531992Y-11838066D02*
X34531992Y-12138066D01*
X34381992Y-11988066D02*
X34681992Y-11988066D01*
X34553703Y-14080972D02*
X34553703Y-14380972D01*
X34403703Y-14230972D02*
X34703703Y-14230972D01*
X35086694Y-13652415D02*
X35086694Y-13952415D01*
X34936694Y-13802415D02*
X35236694Y-13802415D01*
X35108405Y-15895322D02*
X35108405Y-16195322D01*
X34958405Y-16045322D02*
X35258405Y-16045322D01*
X35263152Y-9896195D02*
X35263152Y-10196195D01*
X35113152Y-10046195D02*
X35413152Y-10046195D01*
X35641396Y-15466764D02*
X35641396Y-15766764D01*
X35491396Y-15616764D02*
X35791396Y-15616764D01*
X35663108Y-17709671D02*
X35663108Y-18009671D01*
X35513108Y-17859671D02*
X35813108Y-17859671D01*
X35796143Y-9467637D02*
X35796143Y-9767637D01*
X35646143Y-9617637D02*
X35946143Y-9617637D01*
X35825352Y-11708252D02*
X35825352Y-12008252D01*
X35675352Y-11858252D02*
X35975352Y-11858252D01*
X36196099Y-17281113D02*
X36196099Y-17581113D01*
X36046099Y-17431113D02*
X36346099Y-17431113D01*
X36358343Y-11279694D02*
X36358343Y-11579694D01*
X36208343Y-11429694D02*
X36508343Y-11429694D01*
X36380054Y-13522601D02*
X36380054Y-13822601D01*
X36230054Y-13672601D02*
X36530054Y-13672601D01*
X36913045Y-13094043D02*
X36913045Y-13394043D01*
X36763045Y-13244043D02*
X37063045Y-13244043D01*
X36934756Y-15336950D02*
X36934756Y-15636950D01*
X36784756Y-15486950D02*
X37084756Y-15486950D01*
X37087629Y-9338396D02*
X37087629Y-9638396D01*
X36937629Y-9488396D02*
X37237629Y-9488396D01*
X37467748Y-14908393D02*
X37467748Y-15208393D01*
X37317748Y-15058393D02*
X37617748Y-15058393D01*
X37489459Y-17151299D02*
X37489459Y-17451299D01*
X37339459Y-17301299D02*
X37639459Y-17301299D01*
X37620620Y-8909839D02*
X37620620Y-9209839D01*
X37470620Y-9059839D02*
X37770620Y-9059839D01*
X37642331Y-11152746D02*
X37642331Y-11452745D01*
X37492331Y-11302745D02*
X37792331Y-11302745D01*
X38022450Y-16722742D02*
X38022450Y-17022742D01*
X37872450Y-16872742D02*
X38172450Y-16872742D01*
X38175322Y-10724188D02*
X38175322Y-11024188D01*
X38025322Y-10874188D02*
X38325322Y-10874188D01*
X38197033Y-12967095D02*
X38197033Y-13267095D01*
X38047033Y-13117095D02*
X38347033Y-13117095D01*
X38730024Y-12538537D02*
X38730024Y-12838537D01*
X38580024Y-12688537D02*
X38880024Y-12688537D01*
X38751735Y-14781444D02*
X38751735Y-15081444D01*
X38601735Y-14931444D02*
X38901735Y-14931444D01*
X39284726Y-14352887D02*
X39284726Y-14652887D01*
X39134726Y-14502887D02*
X39434726Y-14502887D01*
X39306437Y-16595793D02*
X39306437Y-16895793D01*
X39156437Y-16745793D02*
X39456437Y-16745793D01*
X39839429Y-16167236D02*
X39839429Y-16467236D01*
X39689429Y-16317236D02*
X39989429Y-16317236D01*
D15*
X2325145Y-17018292D02*
X2325145Y-16736309D01*
X2043163Y-16736309D01*
X2043163Y-17018292D01*
X2325145Y-17018292D01*
X2879847Y-15203943D02*
X2879847Y-14921960D01*
X2597865Y-14921960D01*
X2597865Y-15203943D01*
X2879847Y-15203943D01*
X3434550Y-13389594D02*
X3434550Y-13107611D01*
X3152567Y-13107611D01*
X3152567Y-13389594D01*
X3434550Y-13389594D01*
X3989252Y-11575245D02*
X3989252Y-11293262D01*
X3707269Y-11293262D01*
X3707269Y-11575245D01*
X3989252Y-11575245D01*
X4151496Y-17576664D02*
X4151496Y-17294681D01*
X3869513Y-17294681D01*
X3869513Y-17576664D01*
X4151496Y-17576664D01*
X4543954Y-9760896D02*
X4543954Y-9478913D01*
X4261971Y-9478913D01*
X4261971Y-9760896D01*
X4543954Y-9760896D01*
X4706198Y-15762315D02*
X4706198Y-15480332D01*
X4424215Y-15480332D01*
X4424215Y-15762315D01*
X4706198Y-15762315D01*
X5260901Y-13947965D02*
X5260901Y-13665983D01*
X4978918Y-13665983D01*
X4978918Y-13947965D01*
X5260901Y-13947965D01*
X5815603Y-12133616D02*
X5815603Y-11851633D01*
X5533620Y-11851633D01*
X5533620Y-12133616D01*
X5815603Y-12133616D01*
X5977847Y-18135035D02*
X5977847Y-17853053D01*
X5695864Y-17853053D01*
X5695864Y-18135035D01*
X5977847Y-18135035D01*
X6370305Y-10319267D02*
X6370305Y-10037284D01*
X6088322Y-10037284D01*
X6088322Y-10319267D01*
X6370305Y-10319267D01*
X6532549Y-16320686D02*
X6532549Y-16038703D01*
X6250566Y-16038703D01*
X6250566Y-16320686D01*
X6532549Y-16320686D01*
X7087252Y-14506337D02*
X7087252Y-14224354D01*
X6805269Y-14224354D01*
X6805269Y-14506337D01*
X7087252Y-14506337D01*
X7641954Y-12691988D02*
X7641954Y-12410005D01*
X7359971Y-12410005D01*
X7359971Y-12691988D01*
X7641954Y-12691988D01*
X7804198Y-18693407D02*
X7804198Y-18411424D01*
X7522215Y-18411424D01*
X7522215Y-18693407D01*
X7804198Y-18693407D01*
X8196656Y-10877638D02*
X8196656Y-10595656D01*
X7914673Y-10595656D01*
X7914673Y-10877638D01*
X8196656Y-10877638D01*
X8358900Y-16879058D02*
X8358900Y-16597075D01*
X8076917Y-16597075D01*
X8076917Y-16879058D01*
X8358900Y-16879058D01*
X8913602Y-15064708D02*
X8913602Y-14782725D01*
X8631620Y-14782725D01*
X8631620Y-15064708D01*
X8913602Y-15064708D01*
X9468304Y-13250359D02*
X9468304Y-12968376D01*
X9186322Y-12968376D01*
X9186322Y-13250359D01*
X9468304Y-13250359D01*
X9630549Y-19251778D02*
X9630549Y-18969796D01*
X9348566Y-18969796D01*
X9348566Y-19251778D01*
X9630549Y-19251778D01*
X10023007Y-11436010D02*
X10023007Y-11154027D01*
X9741024Y-11154027D01*
X9741024Y-11436010D01*
X10023007Y-11436010D01*
X10185251Y-17437429D02*
X10185251Y-17155446D01*
X9903268Y-17155446D01*
X9903268Y-17437429D01*
X10185251Y-17437429D01*
X10739953Y-15623080D02*
X10739953Y-15341097D01*
X10457970Y-15341097D01*
X10457970Y-15623080D01*
X10739953Y-15623080D01*
X11294655Y-13808730D02*
X11294655Y-13526748D01*
X11012672Y-13526748D01*
X11012672Y-13808730D01*
X11294655Y-13808730D01*
X11456899Y-19810150D02*
X11456899Y-19528167D01*
X11174917Y-19528167D01*
X11174917Y-19810150D01*
X11456899Y-19810150D01*
X11849357Y-11994381D02*
X11849357Y-11712399D01*
X11567375Y-11712399D01*
X11567375Y-11994381D01*
X11849357Y-11994381D01*
X12011602Y-17995800D02*
X12011602Y-17713818D01*
X11729619Y-17713818D01*
X11729619Y-17995800D01*
X12011602Y-17995800D01*
X12566304Y-16181451D02*
X12566304Y-15899468D01*
X12284321Y-15899468D01*
X12284321Y-16181451D01*
X12566304Y-16181451D01*
X13121006Y-14367102D02*
X13121006Y-14085119D01*
X12839023Y-14085119D01*
X12839023Y-14367102D01*
X13121006Y-14367102D01*
X13273878Y-20365656D02*
X13273878Y-20083673D01*
X12991895Y-20083673D01*
X12991895Y-20365656D01*
X13273878Y-20365656D01*
X13675708Y-12552753D02*
X13675708Y-12270770D01*
X13393726Y-12270770D01*
X13393726Y-12552753D01*
X13675708Y-12552753D01*
X13828581Y-18551307D02*
X13828581Y-18269324D01*
X13546598Y-18269324D01*
X13546598Y-18551307D01*
X13828581Y-18551307D01*
X18399644Y-19079969D02*
X18399644Y-18797987D01*
X18117661Y-18797987D01*
X18117661Y-19079969D01*
X18399644Y-19079969D01*
X18399644Y-20977219D02*
X18399644Y-20695236D01*
X18117661Y-20695236D01*
X18117661Y-20977219D01*
X18399644Y-20977219D01*
X20309444Y-17182719D02*
X20309444Y-16900736D01*
X20027461Y-16900736D01*
X20027461Y-17182719D01*
X20309444Y-17182719D01*
X20309444Y-19079969D02*
X20309444Y-18797986D01*
X20027461Y-18797986D01*
X20027461Y-19079969D01*
X20309444Y-19079969D01*
X20309444Y-20977219D02*
X20309444Y-20695236D01*
X20027461Y-20695236D01*
X20027461Y-20977219D01*
X20309444Y-20977219D01*
X22219244Y-17182719D02*
X22219244Y-16900736D01*
X21937261Y-16900736D01*
X21937261Y-17182719D01*
X22219244Y-17182719D01*
X22219244Y-19079969D02*
X22219244Y-18797986D01*
X21937261Y-18797986D01*
X21937261Y-19079969D01*
X22219244Y-19079969D01*
X22219244Y-20977219D02*
X22219244Y-20695236D01*
X21937261Y-20695236D01*
X21937261Y-20977219D01*
X22219244Y-20977219D01*
X24129043Y-17182719D02*
X24129043Y-16900736D01*
X23847061Y-16900736D01*
X23847061Y-17182719D01*
X24129043Y-17182719D01*
X24129043Y-19079969D02*
X24129043Y-18797986D01*
X23847061Y-18797986D01*
X23847061Y-19079969D01*
X24129043Y-19079969D01*
X24129044Y-20977219D02*
X24129044Y-20695236D01*
X23847061Y-20695236D01*
X23847061Y-20977219D01*
X24129044Y-20977219D01*
X28382608Y-18551307D02*
X28382608Y-18269324D01*
X28100625Y-18269324D01*
X28100625Y-18551307D01*
X28382608Y-18551307D01*
X28544852Y-12549888D02*
X28544852Y-12267905D01*
X28262869Y-12267905D01*
X28262869Y-12549888D01*
X28544852Y-12549888D01*
X28937310Y-20365656D02*
X28937310Y-20083673D01*
X28655328Y-20083673D01*
X28655328Y-20365656D01*
X28937310Y-20365656D01*
X29099554Y-14364237D02*
X29099554Y-14082254D01*
X28817572Y-14082254D01*
X28817572Y-14364237D01*
X29099554Y-14364237D01*
X29654257Y-16178586D02*
X29654257Y-15896603D01*
X29372274Y-15896603D01*
X29372274Y-16178586D01*
X29654257Y-16178586D01*
X30208959Y-17992935D02*
X30208959Y-17710952D01*
X29926976Y-17710952D01*
X29926976Y-17992935D01*
X30208959Y-17992935D01*
X30369329Y-11992089D02*
X30369329Y-11710106D01*
X30087346Y-11710106D01*
X30087346Y-11992089D01*
X30369329Y-11992089D01*
X30763661Y-19807284D02*
X30763661Y-19525302D01*
X30481678Y-19525302D01*
X30481678Y-19807284D01*
X30763661Y-19807284D01*
X30925905Y-13805865D02*
X30925905Y-13523883D01*
X30643923Y-13523883D01*
X30643923Y-13805865D01*
X30925905Y-13805865D01*
X31480608Y-15620215D02*
X31480608Y-15338232D01*
X31198625Y-15338232D01*
X31198625Y-15620215D01*
X31480608Y-15620215D01*
X32035310Y-17434564D02*
X32035310Y-17152581D01*
X31753327Y-17152581D01*
X31753327Y-17434564D01*
X32035310Y-17434564D01*
X32193805Y-11434291D02*
X32193805Y-11152308D01*
X31911822Y-11152308D01*
X31911822Y-11434291D01*
X32193805Y-11434291D01*
X32590012Y-19248913D02*
X32590012Y-18966930D01*
X32308029Y-18966930D01*
X32308029Y-19248913D01*
X32590012Y-19248913D01*
X32752256Y-13247494D02*
X32752256Y-12965511D01*
X32470273Y-12965511D01*
X32470273Y-13247494D01*
X32752256Y-13247494D01*
X33306958Y-15061843D02*
X33306958Y-14779860D01*
X33024975Y-14779860D01*
X33024975Y-15061843D01*
X33306958Y-15061843D01*
X33861660Y-16876192D02*
X33861660Y-16594209D01*
X33579678Y-16594209D01*
X33579678Y-16876192D01*
X33861660Y-16876192D01*
X34018282Y-10876493D02*
X34018282Y-10594510D01*
X33736299Y-10594510D01*
X33736299Y-10876493D01*
X34018282Y-10876493D01*
X34416363Y-18690542D02*
X34416363Y-18408559D01*
X34134380Y-18408559D01*
X34134380Y-18690542D01*
X34416363Y-18690542D01*
X34578607Y-12689122D02*
X34578607Y-12407140D01*
X34296624Y-12407140D01*
X34296624Y-12689122D01*
X34578607Y-12689122D01*
X35133309Y-14503471D02*
X35133309Y-14221489D01*
X34851326Y-14221489D01*
X34851326Y-14503471D01*
X35133309Y-14503471D01*
X35688011Y-16317821D02*
X35688011Y-16035838D01*
X35406028Y-16035838D01*
X35406028Y-16317821D01*
X35688011Y-16317821D01*
X35842758Y-10318694D02*
X35842758Y-10036711D01*
X35560775Y-10036711D01*
X35560775Y-10318694D01*
X35842758Y-10318694D01*
X36242714Y-18132170D02*
X36242714Y-17850187D01*
X35960731Y-17850187D01*
X35960731Y-18132170D01*
X36242714Y-18132170D01*
X36404958Y-12130751D02*
X36404958Y-11848768D01*
X36122975Y-11848768D01*
X36122975Y-12130751D01*
X36404958Y-12130751D01*
X36959660Y-13945100D02*
X36959660Y-13663117D01*
X36677677Y-13663117D01*
X36677677Y-13945100D01*
X36959660Y-13945100D01*
X37514362Y-15759449D02*
X37514362Y-15477466D01*
X37232380Y-15477466D01*
X37232380Y-15759449D01*
X37514362Y-15759449D01*
X37667235Y-9760896D02*
X37667235Y-9478913D01*
X37385252Y-9478913D01*
X37385252Y-9760896D01*
X37667235Y-9760896D01*
X38069065Y-17573798D02*
X38069065Y-17291816D01*
X37787082Y-17291816D01*
X37787082Y-17573798D01*
X38069065Y-17573798D01*
X38221937Y-11575245D02*
X38221937Y-11293262D01*
X37939954Y-11293262D01*
X37939954Y-11575245D01*
X38221937Y-11575245D01*
X38776639Y-13389594D02*
X38776639Y-13107611D01*
X38494656Y-13107611D01*
X38494656Y-13389594D01*
X38776639Y-13389594D01*
X39331341Y-15203943D02*
X39331341Y-14921960D01*
X39049358Y-14921960D01*
X39049358Y-15203943D01*
X39331341Y-15203943D01*
X39886043Y-17018292D02*
X39886043Y-16736309D01*
X39604061Y-16736309D01*
X39604061Y-17018292D01*
X39886043Y-17018292D01*
D10*
X1384022Y-22229762D02*
X1384022Y-22029762D01*
X1384022Y-22029762D02*
X1431641Y-22029762D01*
X1431641Y-22029762D02*
X1460212Y-22039285D01*
X1460212Y-22039285D02*
X1479260Y-22058333D01*
X1479260Y-22058333D02*
X1488784Y-22077381D01*
X1488784Y-22077381D02*
X1498307Y-22115476D01*
X1498307Y-22115476D02*
X1498307Y-22144047D01*
X1498307Y-22144047D02*
X1488784Y-22182143D01*
X1488784Y-22182143D02*
X1479260Y-22201190D01*
X1479260Y-22201190D02*
X1460212Y-22220238D01*
X1460212Y-22220238D02*
X1431641Y-22229762D01*
X1431641Y-22229762D02*
X1384022Y-22229762D01*
X1584022Y-22229762D02*
X1584022Y-22096428D01*
X1584022Y-22134524D02*
X1593546Y-22115476D01*
X1593546Y-22115476D02*
X1603069Y-22105952D01*
X1603069Y-22105952D02*
X1622117Y-22096428D01*
X1622117Y-22096428D02*
X1641165Y-22096428D01*
X1707831Y-22229762D02*
X1707831Y-22096428D01*
X1707831Y-22029762D02*
X1698307Y-22039285D01*
X1698307Y-22039285D02*
X1707831Y-22048809D01*
X1707831Y-22048809D02*
X1717355Y-22039285D01*
X1717355Y-22039285D02*
X1707831Y-22029762D01*
X1707831Y-22029762D02*
X1707831Y-22048809D01*
X1831641Y-22229762D02*
X1812593Y-22220238D01*
X1812593Y-22220238D02*
X1803069Y-22201190D01*
X1803069Y-22201190D02*
X1803069Y-22029762D01*
X1936403Y-22229762D02*
X1917355Y-22220238D01*
X1917355Y-22220238D02*
X1907831Y-22201190D01*
X1907831Y-22201190D02*
X1907831Y-22029762D01*
X2164974Y-22229762D02*
X2164974Y-22029762D01*
X2164974Y-22029762D02*
X2231641Y-22172619D01*
X2231641Y-22172619D02*
X2298308Y-22029762D01*
X2298308Y-22029762D02*
X2298308Y-22229762D01*
X2479260Y-22229762D02*
X2479260Y-22125000D01*
X2479260Y-22125000D02*
X2469736Y-22105952D01*
X2469736Y-22105952D02*
X2450689Y-22096428D01*
X2450689Y-22096428D02*
X2412593Y-22096428D01*
X2412593Y-22096428D02*
X2393546Y-22105952D01*
X2479260Y-22220238D02*
X2460212Y-22229762D01*
X2460212Y-22229762D02*
X2412593Y-22229762D01*
X2412593Y-22229762D02*
X2393546Y-22220238D01*
X2393546Y-22220238D02*
X2384022Y-22201190D01*
X2384022Y-22201190D02*
X2384022Y-22182143D01*
X2384022Y-22182143D02*
X2393546Y-22163095D01*
X2393546Y-22163095D02*
X2412593Y-22153571D01*
X2412593Y-22153571D02*
X2460212Y-22153571D01*
X2460212Y-22153571D02*
X2479260Y-22144047D01*
X2574498Y-22096428D02*
X2574498Y-22296428D01*
X2574498Y-22105952D02*
X2593546Y-22096428D01*
X2593546Y-22096428D02*
X2631641Y-22096428D01*
X2631641Y-22096428D02*
X2650689Y-22105952D01*
X2650689Y-22105952D02*
X2660212Y-22115476D01*
X2660212Y-22115476D02*
X2669736Y-22134524D01*
X2669736Y-22134524D02*
X2669736Y-22191666D01*
X2669736Y-22191666D02*
X2660212Y-22210714D01*
X2660212Y-22210714D02*
X2650689Y-22220238D01*
X2650689Y-22220238D02*
X2631641Y-22229762D01*
X2631641Y-22229762D02*
X2593546Y-22229762D01*
X2593546Y-22229762D02*
X2574498Y-22220238D01*
X2755450Y-22210714D02*
X2764974Y-22220238D01*
X2764974Y-22220238D02*
X2755450Y-22229762D01*
X2755450Y-22229762D02*
X2745927Y-22220238D01*
X2745927Y-22220238D02*
X2755450Y-22210714D01*
X2755450Y-22210714D02*
X2755450Y-22229762D01*
X2755450Y-22105952D02*
X2764974Y-22115476D01*
X2764974Y-22115476D02*
X2755450Y-22125000D01*
X2755450Y-22125000D02*
X2745927Y-22115476D01*
X2745927Y-22115476D02*
X2755450Y-22105952D01*
X2755450Y-22105952D02*
X2755450Y-22125000D01*
D11*
X973245Y-22483278D02*
X1123245Y-22633278D01*
X1123245Y-22483278D02*
X973245Y-22633278D01*
D10*
X1488784Y-22649762D02*
X1374498Y-22649762D01*
X1431641Y-22649762D02*
X1431641Y-22449762D01*
X1431641Y-22449762D02*
X1412593Y-22478333D01*
X1412593Y-22478333D02*
X1393546Y-22497381D01*
X1393546Y-22497381D02*
X1374498Y-22506904D01*
X1574498Y-22630714D02*
X1584022Y-22640238D01*
X1584022Y-22640238D02*
X1574498Y-22649762D01*
X1574498Y-22649762D02*
X1564974Y-22640238D01*
X1564974Y-22640238D02*
X1574498Y-22630714D01*
X1574498Y-22630714D02*
X1574498Y-22649762D01*
X1764974Y-22449762D02*
X1669736Y-22449762D01*
X1669736Y-22449762D02*
X1660212Y-22545000D01*
X1660212Y-22545000D02*
X1669736Y-22535476D01*
X1669736Y-22535476D02*
X1688784Y-22525952D01*
X1688784Y-22525952D02*
X1736403Y-22525952D01*
X1736403Y-22525952D02*
X1755450Y-22535476D01*
X1755450Y-22535476D02*
X1764974Y-22545000D01*
X1764974Y-22545000D02*
X1774498Y-22564047D01*
X1774498Y-22564047D02*
X1774498Y-22611666D01*
X1774498Y-22611666D02*
X1764974Y-22630714D01*
X1764974Y-22630714D02*
X1755450Y-22640238D01*
X1755450Y-22640238D02*
X1736403Y-22649762D01*
X1736403Y-22649762D02*
X1688784Y-22649762D01*
X1688784Y-22649762D02*
X1669736Y-22640238D01*
X1669736Y-22640238D02*
X1660212Y-22630714D01*
X1898307Y-22449762D02*
X1917355Y-22449762D01*
X1917355Y-22449762D02*
X1936403Y-22459285D01*
X1936403Y-22459285D02*
X1945927Y-22468809D01*
X1945927Y-22468809D02*
X1955450Y-22487857D01*
X1955450Y-22487857D02*
X1964974Y-22525952D01*
X1964974Y-22525952D02*
X1964974Y-22573571D01*
X1964974Y-22573571D02*
X1955450Y-22611666D01*
X1955450Y-22611666D02*
X1945927Y-22630714D01*
X1945927Y-22630714D02*
X1936403Y-22640238D01*
X1936403Y-22640238D02*
X1917355Y-22649762D01*
X1917355Y-22649762D02*
X1898307Y-22649762D01*
X1898307Y-22649762D02*
X1879260Y-22640238D01*
X1879260Y-22640238D02*
X1869736Y-22630714D01*
X1869736Y-22630714D02*
X1860212Y-22611666D01*
X1860212Y-22611666D02*
X1850688Y-22573571D01*
X1850688Y-22573571D02*
X1850688Y-22525952D01*
X1850688Y-22525952D02*
X1860212Y-22487857D01*
X1860212Y-22487857D02*
X1869736Y-22468809D01*
X1869736Y-22468809D02*
X1879260Y-22459285D01*
X1879260Y-22459285D02*
X1898307Y-22449762D01*
X2088784Y-22449762D02*
X2107831Y-22449762D01*
X2107831Y-22449762D02*
X2126879Y-22459285D01*
X2126879Y-22459285D02*
X2136403Y-22468809D01*
X2136403Y-22468809D02*
X2145927Y-22487857D01*
X2145927Y-22487857D02*
X2155450Y-22525952D01*
X2155450Y-22525952D02*
X2155450Y-22573571D01*
X2155450Y-22573571D02*
X2145927Y-22611666D01*
X2145927Y-22611666D02*
X2136403Y-22630714D01*
X2136403Y-22630714D02*
X2126879Y-22640238D01*
X2126879Y-22640238D02*
X2107831Y-22649762D01*
X2107831Y-22649762D02*
X2088784Y-22649762D01*
X2088784Y-22649762D02*
X2069736Y-22640238D01*
X2069736Y-22640238D02*
X2060212Y-22630714D01*
X2060212Y-22630714D02*
X2050688Y-22611666D01*
X2050688Y-22611666D02*
X2041165Y-22573571D01*
X2041165Y-22573571D02*
X2041165Y-22525952D01*
X2041165Y-22525952D02*
X2050688Y-22487857D01*
X2050688Y-22487857D02*
X2060212Y-22468809D01*
X2060212Y-22468809D02*
X2069736Y-22459285D01*
X2069736Y-22459285D02*
X2088784Y-22449762D01*
X2241165Y-22649762D02*
X2241165Y-22516428D01*
X2241165Y-22535476D02*
X2250689Y-22525952D01*
X2250689Y-22525952D02*
X2269736Y-22516428D01*
X2269736Y-22516428D02*
X2298308Y-22516428D01*
X2298308Y-22516428D02*
X2317355Y-22525952D01*
X2317355Y-22525952D02*
X2326879Y-22545000D01*
X2326879Y-22545000D02*
X2326879Y-22649762D01*
X2326879Y-22545000D02*
X2336403Y-22525952D01*
X2336403Y-22525952D02*
X2355450Y-22516428D01*
X2355450Y-22516428D02*
X2384022Y-22516428D01*
X2384022Y-22516428D02*
X2403070Y-22525952D01*
X2403070Y-22525952D02*
X2412593Y-22545000D01*
X2412593Y-22545000D02*
X2412593Y-22649762D01*
X2507831Y-22649762D02*
X2507831Y-22516428D01*
X2507831Y-22535476D02*
X2517355Y-22525952D01*
X2517355Y-22525952D02*
X2536403Y-22516428D01*
X2536403Y-22516428D02*
X2564974Y-22516428D01*
X2564974Y-22516428D02*
X2584022Y-22525952D01*
X2584022Y-22525952D02*
X2593546Y-22545000D01*
X2593546Y-22545000D02*
X2593546Y-22649762D01*
X2593546Y-22545000D02*
X2603070Y-22525952D01*
X2603070Y-22525952D02*
X2622117Y-22516428D01*
X2622117Y-22516428D02*
X2650689Y-22516428D01*
X2650689Y-22516428D02*
X2669736Y-22525952D01*
X2669736Y-22525952D02*
X2679260Y-22545000D01*
X2679260Y-22545000D02*
X2679260Y-22649762D01*
X3069736Y-22440238D02*
X2898308Y-22697381D01*
X3326879Y-22449762D02*
X3345927Y-22449762D01*
X3345927Y-22449762D02*
X3364974Y-22459285D01*
X3364974Y-22459285D02*
X3374498Y-22468809D01*
X3374498Y-22468809D02*
X3384022Y-22487857D01*
X3384022Y-22487857D02*
X3393546Y-22525952D01*
X3393546Y-22525952D02*
X3393546Y-22573571D01*
X3393546Y-22573571D02*
X3384022Y-22611666D01*
X3384022Y-22611666D02*
X3374498Y-22630714D01*
X3374498Y-22630714D02*
X3364974Y-22640238D01*
X3364974Y-22640238D02*
X3345927Y-22649762D01*
X3345927Y-22649762D02*
X3326879Y-22649762D01*
X3326879Y-22649762D02*
X3307831Y-22640238D01*
X3307831Y-22640238D02*
X3298308Y-22630714D01*
X3298308Y-22630714D02*
X3288784Y-22611666D01*
X3288784Y-22611666D02*
X3279260Y-22573571D01*
X3279260Y-22573571D02*
X3279260Y-22525952D01*
X3279260Y-22525952D02*
X3288784Y-22487857D01*
X3288784Y-22487857D02*
X3298308Y-22468809D01*
X3298308Y-22468809D02*
X3307831Y-22459285D01*
X3307831Y-22459285D02*
X3326879Y-22449762D01*
X3479260Y-22630714D02*
X3488784Y-22640238D01*
X3488784Y-22640238D02*
X3479260Y-22649762D01*
X3479260Y-22649762D02*
X3469736Y-22640238D01*
X3469736Y-22640238D02*
X3479260Y-22630714D01*
X3479260Y-22630714D02*
X3479260Y-22649762D01*
X3612593Y-22449762D02*
X3631641Y-22449762D01*
X3631641Y-22449762D02*
X3650689Y-22459285D01*
X3650689Y-22459285D02*
X3660212Y-22468809D01*
X3660212Y-22468809D02*
X3669736Y-22487857D01*
X3669736Y-22487857D02*
X3679260Y-22525952D01*
X3679260Y-22525952D02*
X3679260Y-22573571D01*
X3679260Y-22573571D02*
X3669736Y-22611666D01*
X3669736Y-22611666D02*
X3660212Y-22630714D01*
X3660212Y-22630714D02*
X3650689Y-22640238D01*
X3650689Y-22640238D02*
X3631641Y-22649762D01*
X3631641Y-22649762D02*
X3612593Y-22649762D01*
X3612593Y-22649762D02*
X3593546Y-22640238D01*
X3593546Y-22640238D02*
X3584022Y-22630714D01*
X3584022Y-22630714D02*
X3574498Y-22611666D01*
X3574498Y-22611666D02*
X3564974Y-22573571D01*
X3564974Y-22573571D02*
X3564974Y-22525952D01*
X3564974Y-22525952D02*
X3574498Y-22487857D01*
X3574498Y-22487857D02*
X3584022Y-22468809D01*
X3584022Y-22468809D02*
X3593546Y-22459285D01*
X3593546Y-22459285D02*
X3612593Y-22449762D01*
X3860212Y-22449762D02*
X3764974Y-22449762D01*
X3764974Y-22449762D02*
X3755451Y-22545000D01*
X3755451Y-22545000D02*
X3764974Y-22535476D01*
X3764974Y-22535476D02*
X3784022Y-22525952D01*
X3784022Y-22525952D02*
X3831641Y-22525952D01*
X3831641Y-22525952D02*
X3850689Y-22535476D01*
X3850689Y-22535476D02*
X3860212Y-22545000D01*
X3860212Y-22545000D02*
X3869736Y-22564047D01*
X3869736Y-22564047D02*
X3869736Y-22611666D01*
X3869736Y-22611666D02*
X3860212Y-22630714D01*
X3860212Y-22630714D02*
X3850689Y-22640238D01*
X3850689Y-22640238D02*
X3831641Y-22649762D01*
X3831641Y-22649762D02*
X3784022Y-22649762D01*
X3784022Y-22649762D02*
X3764974Y-22640238D01*
X3764974Y-22640238D02*
X3755451Y-22630714D01*
X3964974Y-22649762D02*
X4003070Y-22649762D01*
X4003070Y-22649762D02*
X4022117Y-22640238D01*
X4022117Y-22640238D02*
X4031641Y-22630714D01*
X4031641Y-22630714D02*
X4050689Y-22602142D01*
X4050689Y-22602142D02*
X4060212Y-22564047D01*
X4060212Y-22564047D02*
X4060212Y-22487857D01*
X4060212Y-22487857D02*
X4050689Y-22468809D01*
X4050689Y-22468809D02*
X4041165Y-22459285D01*
X4041165Y-22459285D02*
X4022117Y-22449762D01*
X4022117Y-22449762D02*
X3984022Y-22449762D01*
X3984022Y-22449762D02*
X3964974Y-22459285D01*
X3964974Y-22459285D02*
X3955451Y-22468809D01*
X3955451Y-22468809D02*
X3945927Y-22487857D01*
X3945927Y-22487857D02*
X3945927Y-22535476D01*
X3945927Y-22535476D02*
X3955451Y-22554523D01*
X3955451Y-22554523D02*
X3964974Y-22564047D01*
X3964974Y-22564047D02*
X3984022Y-22573571D01*
X3984022Y-22573571D02*
X4022117Y-22573571D01*
X4022117Y-22573571D02*
X4041165Y-22564047D01*
X4041165Y-22564047D02*
X4050689Y-22554523D01*
X4050689Y-22554523D02*
X4060212Y-22535476D01*
X4250689Y-22649762D02*
X4136403Y-22649762D01*
X4193546Y-22649762D02*
X4193546Y-22449762D01*
X4193546Y-22449762D02*
X4174498Y-22478333D01*
X4174498Y-22478333D02*
X4155451Y-22497381D01*
X4155451Y-22497381D02*
X4136403Y-22506904D01*
X4326879Y-22449762D02*
X4326879Y-22487857D01*
X4403070Y-22449762D02*
X4403070Y-22487857D01*
X4698308Y-22725952D02*
X4688784Y-22716428D01*
X4688784Y-22716428D02*
X4669736Y-22687857D01*
X4669736Y-22687857D02*
X4660213Y-22668809D01*
X4660213Y-22668809D02*
X4650689Y-22640238D01*
X4650689Y-22640238D02*
X4641165Y-22592619D01*
X4641165Y-22592619D02*
X4641165Y-22554523D01*
X4641165Y-22554523D02*
X4650689Y-22506904D01*
X4650689Y-22506904D02*
X4660213Y-22478333D01*
X4660213Y-22478333D02*
X4669736Y-22459285D01*
X4669736Y-22459285D02*
X4688784Y-22430714D01*
X4688784Y-22430714D02*
X4698308Y-22421190D01*
X4812594Y-22449762D02*
X4831641Y-22449762D01*
X4831641Y-22449762D02*
X4850689Y-22459285D01*
X4850689Y-22459285D02*
X4860213Y-22468809D01*
X4860213Y-22468809D02*
X4869736Y-22487857D01*
X4869736Y-22487857D02*
X4879260Y-22525952D01*
X4879260Y-22525952D02*
X4879260Y-22573571D01*
X4879260Y-22573571D02*
X4869736Y-22611666D01*
X4869736Y-22611666D02*
X4860213Y-22630714D01*
X4860213Y-22630714D02*
X4850689Y-22640238D01*
X4850689Y-22640238D02*
X4831641Y-22649762D01*
X4831641Y-22649762D02*
X4812594Y-22649762D01*
X4812594Y-22649762D02*
X4793546Y-22640238D01*
X4793546Y-22640238D02*
X4784022Y-22630714D01*
X4784022Y-22630714D02*
X4774498Y-22611666D01*
X4774498Y-22611666D02*
X4764975Y-22573571D01*
X4764975Y-22573571D02*
X4764975Y-22525952D01*
X4764975Y-22525952D02*
X4774498Y-22487857D01*
X4774498Y-22487857D02*
X4784022Y-22468809D01*
X4784022Y-22468809D02*
X4793546Y-22459285D01*
X4793546Y-22459285D02*
X4812594Y-22449762D01*
X5117356Y-22649762D02*
X5117356Y-22449762D01*
X5203070Y-22649762D02*
X5203070Y-22545000D01*
X5203070Y-22545000D02*
X5193546Y-22525952D01*
X5193546Y-22525952D02*
X5174498Y-22516428D01*
X5174498Y-22516428D02*
X5145927Y-22516428D01*
X5145927Y-22516428D02*
X5126879Y-22525952D01*
X5126879Y-22525952D02*
X5117356Y-22535476D01*
X5326879Y-22649762D02*
X5307832Y-22640238D01*
X5307832Y-22640238D02*
X5298308Y-22630714D01*
X5298308Y-22630714D02*
X5288784Y-22611666D01*
X5288784Y-22611666D02*
X5288784Y-22554523D01*
X5288784Y-22554523D02*
X5298308Y-22535476D01*
X5298308Y-22535476D02*
X5307832Y-22525952D01*
X5307832Y-22525952D02*
X5326879Y-22516428D01*
X5326879Y-22516428D02*
X5355451Y-22516428D01*
X5355451Y-22516428D02*
X5374498Y-22525952D01*
X5374498Y-22525952D02*
X5384022Y-22535476D01*
X5384022Y-22535476D02*
X5393546Y-22554523D01*
X5393546Y-22554523D02*
X5393546Y-22611666D01*
X5393546Y-22611666D02*
X5384022Y-22630714D01*
X5384022Y-22630714D02*
X5374498Y-22640238D01*
X5374498Y-22640238D02*
X5355451Y-22649762D01*
X5355451Y-22649762D02*
X5326879Y-22649762D01*
X5507832Y-22649762D02*
X5488784Y-22640238D01*
X5488784Y-22640238D02*
X5479260Y-22621190D01*
X5479260Y-22621190D02*
X5479260Y-22449762D01*
X5660213Y-22640238D02*
X5641165Y-22649762D01*
X5641165Y-22649762D02*
X5603070Y-22649762D01*
X5603070Y-22649762D02*
X5584022Y-22640238D01*
X5584022Y-22640238D02*
X5574498Y-22621190D01*
X5574498Y-22621190D02*
X5574498Y-22545000D01*
X5574498Y-22545000D02*
X5584022Y-22525952D01*
X5584022Y-22525952D02*
X5603070Y-22516428D01*
X5603070Y-22516428D02*
X5641165Y-22516428D01*
X5641165Y-22516428D02*
X5660213Y-22525952D01*
X5660213Y-22525952D02*
X5669736Y-22545000D01*
X5669736Y-22545000D02*
X5669736Y-22564047D01*
X5669736Y-22564047D02*
X5574498Y-22583095D01*
X5745927Y-22640238D02*
X5764975Y-22649762D01*
X5764975Y-22649762D02*
X5803070Y-22649762D01*
X5803070Y-22649762D02*
X5822117Y-22640238D01*
X5822117Y-22640238D02*
X5831641Y-22621190D01*
X5831641Y-22621190D02*
X5831641Y-22611666D01*
X5831641Y-22611666D02*
X5822117Y-22592619D01*
X5822117Y-22592619D02*
X5803070Y-22583095D01*
X5803070Y-22583095D02*
X5774498Y-22583095D01*
X5774498Y-22583095D02*
X5755451Y-22573571D01*
X5755451Y-22573571D02*
X5745927Y-22554523D01*
X5745927Y-22554523D02*
X5745927Y-22545000D01*
X5745927Y-22545000D02*
X5755451Y-22525952D01*
X5755451Y-22525952D02*
X5774498Y-22516428D01*
X5774498Y-22516428D02*
X5803070Y-22516428D01*
X5803070Y-22516428D02*
X5822117Y-22525952D01*
X6069737Y-22573571D02*
X6222118Y-22573571D01*
X6145927Y-22649762D02*
X6145927Y-22497381D01*
X6460213Y-22468809D02*
X6469737Y-22459285D01*
X6469737Y-22459285D02*
X6488784Y-22449762D01*
X6488784Y-22449762D02*
X6536403Y-22449762D01*
X6536403Y-22449762D02*
X6555451Y-22459285D01*
X6555451Y-22459285D02*
X6564975Y-22468809D01*
X6564975Y-22468809D02*
X6574498Y-22487857D01*
X6574498Y-22487857D02*
X6574498Y-22506904D01*
X6574498Y-22506904D02*
X6564975Y-22535476D01*
X6564975Y-22535476D02*
X6450689Y-22649762D01*
X6450689Y-22649762D02*
X6574498Y-22649762D01*
X6803070Y-22640238D02*
X6822118Y-22649762D01*
X6822118Y-22649762D02*
X6860213Y-22649762D01*
X6860213Y-22649762D02*
X6879260Y-22640238D01*
X6879260Y-22640238D02*
X6888784Y-22621190D01*
X6888784Y-22621190D02*
X6888784Y-22611666D01*
X6888784Y-22611666D02*
X6879260Y-22592619D01*
X6879260Y-22592619D02*
X6860213Y-22583095D01*
X6860213Y-22583095D02*
X6831641Y-22583095D01*
X6831641Y-22583095D02*
X6812594Y-22573571D01*
X6812594Y-22573571D02*
X6803070Y-22554523D01*
X6803070Y-22554523D02*
X6803070Y-22545000D01*
X6803070Y-22545000D02*
X6812594Y-22525952D01*
X6812594Y-22525952D02*
X6831641Y-22516428D01*
X6831641Y-22516428D02*
X6860213Y-22516428D01*
X6860213Y-22516428D02*
X6879260Y-22525952D01*
X7003070Y-22649762D02*
X6984022Y-22640238D01*
X6984022Y-22640238D02*
X6974499Y-22621190D01*
X6974499Y-22621190D02*
X6974499Y-22449762D01*
X7107832Y-22649762D02*
X7088784Y-22640238D01*
X7088784Y-22640238D02*
X7079260Y-22630714D01*
X7079260Y-22630714D02*
X7069737Y-22611666D01*
X7069737Y-22611666D02*
X7069737Y-22554523D01*
X7069737Y-22554523D02*
X7079260Y-22535476D01*
X7079260Y-22535476D02*
X7088784Y-22525952D01*
X7088784Y-22525952D02*
X7107832Y-22516428D01*
X7107832Y-22516428D02*
X7136403Y-22516428D01*
X7136403Y-22516428D02*
X7155451Y-22525952D01*
X7155451Y-22525952D02*
X7164975Y-22535476D01*
X7164975Y-22535476D02*
X7174499Y-22554523D01*
X7174499Y-22554523D02*
X7174499Y-22611666D01*
X7174499Y-22611666D02*
X7164975Y-22630714D01*
X7164975Y-22630714D02*
X7155451Y-22640238D01*
X7155451Y-22640238D02*
X7136403Y-22649762D01*
X7136403Y-22649762D02*
X7107832Y-22649762D01*
X7231641Y-22516428D02*
X7307832Y-22516428D01*
X7260213Y-22449762D02*
X7260213Y-22621190D01*
X7260213Y-22621190D02*
X7269737Y-22640238D01*
X7269737Y-22640238D02*
X7288784Y-22649762D01*
X7288784Y-22649762D02*
X7307832Y-22649762D01*
X7364975Y-22640238D02*
X7384022Y-22649762D01*
X7384022Y-22649762D02*
X7422118Y-22649762D01*
X7422118Y-22649762D02*
X7441165Y-22640238D01*
X7441165Y-22640238D02*
X7450689Y-22621190D01*
X7450689Y-22621190D02*
X7450689Y-22611666D01*
X7450689Y-22611666D02*
X7441165Y-22592619D01*
X7441165Y-22592619D02*
X7422118Y-22583095D01*
X7422118Y-22583095D02*
X7393546Y-22583095D01*
X7393546Y-22583095D02*
X7374499Y-22573571D01*
X7374499Y-22573571D02*
X7364975Y-22554523D01*
X7364975Y-22554523D02*
X7364975Y-22545000D01*
X7364975Y-22545000D02*
X7374499Y-22525952D01*
X7374499Y-22525952D02*
X7393546Y-22516428D01*
X7393546Y-22516428D02*
X7422118Y-22516428D01*
X7422118Y-22516428D02*
X7441165Y-22525952D01*
X7517356Y-22725952D02*
X7526880Y-22716428D01*
X7526880Y-22716428D02*
X7545927Y-22687857D01*
X7545927Y-22687857D02*
X7555451Y-22668809D01*
X7555451Y-22668809D02*
X7564975Y-22640238D01*
X7564975Y-22640238D02*
X7574499Y-22592619D01*
X7574499Y-22592619D02*
X7574499Y-22554523D01*
X7574499Y-22554523D02*
X7564975Y-22506904D01*
X7564975Y-22506904D02*
X7555451Y-22478333D01*
X7555451Y-22478333D02*
X7545927Y-22459285D01*
X7545927Y-22459285D02*
X7526880Y-22430714D01*
X7526880Y-22430714D02*
X7517356Y-22421190D01*
X7879261Y-22725952D02*
X7869737Y-22716428D01*
X7869737Y-22716428D02*
X7850689Y-22687857D01*
X7850689Y-22687857D02*
X7841165Y-22668809D01*
X7841165Y-22668809D02*
X7831641Y-22640238D01*
X7831641Y-22640238D02*
X7822118Y-22592619D01*
X7822118Y-22592619D02*
X7822118Y-22554523D01*
X7822118Y-22554523D02*
X7831641Y-22506904D01*
X7831641Y-22506904D02*
X7841165Y-22478333D01*
X7841165Y-22478333D02*
X7850689Y-22459285D01*
X7850689Y-22459285D02*
X7869737Y-22430714D01*
X7869737Y-22430714D02*
X7879261Y-22421190D01*
X7955451Y-22516428D02*
X7955451Y-22649762D01*
X7955451Y-22535476D02*
X7964975Y-22525952D01*
X7964975Y-22525952D02*
X7984022Y-22516428D01*
X7984022Y-22516428D02*
X8012594Y-22516428D01*
X8012594Y-22516428D02*
X8031641Y-22525952D01*
X8031641Y-22525952D02*
X8041165Y-22545000D01*
X8041165Y-22545000D02*
X8041165Y-22649762D01*
X8164975Y-22649762D02*
X8145927Y-22640238D01*
X8145927Y-22640238D02*
X8136403Y-22630714D01*
X8136403Y-22630714D02*
X8126880Y-22611666D01*
X8126880Y-22611666D02*
X8126880Y-22554523D01*
X8126880Y-22554523D02*
X8136403Y-22535476D01*
X8136403Y-22535476D02*
X8145927Y-22525952D01*
X8145927Y-22525952D02*
X8164975Y-22516428D01*
X8164975Y-22516428D02*
X8193546Y-22516428D01*
X8193546Y-22516428D02*
X8212594Y-22525952D01*
X8212594Y-22525952D02*
X8222118Y-22535476D01*
X8222118Y-22535476D02*
X8231641Y-22554523D01*
X8231641Y-22554523D02*
X8231641Y-22611666D01*
X8231641Y-22611666D02*
X8222118Y-22630714D01*
X8222118Y-22630714D02*
X8212594Y-22640238D01*
X8212594Y-22640238D02*
X8193546Y-22649762D01*
X8193546Y-22649762D02*
X8164975Y-22649762D01*
X8288784Y-22516428D02*
X8364975Y-22516428D01*
X8317356Y-22449762D02*
X8317356Y-22621190D01*
X8317356Y-22621190D02*
X8326880Y-22640238D01*
X8326880Y-22640238D02*
X8345927Y-22649762D01*
X8345927Y-22649762D02*
X8364975Y-22649762D01*
X8584023Y-22516428D02*
X8584023Y-22716428D01*
X8584023Y-22525952D02*
X8603070Y-22516428D01*
X8603070Y-22516428D02*
X8641165Y-22516428D01*
X8641165Y-22516428D02*
X8660213Y-22525952D01*
X8660213Y-22525952D02*
X8669737Y-22535476D01*
X8669737Y-22535476D02*
X8679261Y-22554523D01*
X8679261Y-22554523D02*
X8679261Y-22611666D01*
X8679261Y-22611666D02*
X8669737Y-22630714D01*
X8669737Y-22630714D02*
X8660213Y-22640238D01*
X8660213Y-22640238D02*
X8641165Y-22649762D01*
X8641165Y-22649762D02*
X8603070Y-22649762D01*
X8603070Y-22649762D02*
X8584023Y-22640238D01*
X8793546Y-22649762D02*
X8774499Y-22640238D01*
X8774499Y-22640238D02*
X8764975Y-22621190D01*
X8764975Y-22621190D02*
X8764975Y-22449762D01*
X8955451Y-22649762D02*
X8955451Y-22545000D01*
X8955451Y-22545000D02*
X8945927Y-22525952D01*
X8945927Y-22525952D02*
X8926880Y-22516428D01*
X8926880Y-22516428D02*
X8888784Y-22516428D01*
X8888784Y-22516428D02*
X8869737Y-22525952D01*
X8955451Y-22640238D02*
X8936404Y-22649762D01*
X8936404Y-22649762D02*
X8888784Y-22649762D01*
X8888784Y-22649762D02*
X8869737Y-22640238D01*
X8869737Y-22640238D02*
X8860213Y-22621190D01*
X8860213Y-22621190D02*
X8860213Y-22602142D01*
X8860213Y-22602142D02*
X8869737Y-22583095D01*
X8869737Y-22583095D02*
X8888784Y-22573571D01*
X8888784Y-22573571D02*
X8936404Y-22573571D01*
X8936404Y-22573571D02*
X8955451Y-22564047D01*
X9022118Y-22516428D02*
X9098308Y-22516428D01*
X9050689Y-22449762D02*
X9050689Y-22621190D01*
X9050689Y-22621190D02*
X9060213Y-22640238D01*
X9060213Y-22640238D02*
X9079261Y-22649762D01*
X9079261Y-22649762D02*
X9098308Y-22649762D01*
X9241165Y-22640238D02*
X9222118Y-22649762D01*
X9222118Y-22649762D02*
X9184023Y-22649762D01*
X9184023Y-22649762D02*
X9164975Y-22640238D01*
X9164975Y-22640238D02*
X9155451Y-22621190D01*
X9155451Y-22621190D02*
X9155451Y-22545000D01*
X9155451Y-22545000D02*
X9164975Y-22525952D01*
X9164975Y-22525952D02*
X9184023Y-22516428D01*
X9184023Y-22516428D02*
X9222118Y-22516428D01*
X9222118Y-22516428D02*
X9241165Y-22525952D01*
X9241165Y-22525952D02*
X9250689Y-22545000D01*
X9250689Y-22545000D02*
X9250689Y-22564047D01*
X9250689Y-22564047D02*
X9155451Y-22583095D01*
X9422118Y-22649762D02*
X9422118Y-22449762D01*
X9422118Y-22640238D02*
X9403070Y-22649762D01*
X9403070Y-22649762D02*
X9364975Y-22649762D01*
X9364975Y-22649762D02*
X9345927Y-22640238D01*
X9345927Y-22640238D02*
X9336404Y-22630714D01*
X9336404Y-22630714D02*
X9326880Y-22611666D01*
X9326880Y-22611666D02*
X9326880Y-22554523D01*
X9326880Y-22554523D02*
X9336404Y-22535476D01*
X9336404Y-22535476D02*
X9345927Y-22525952D01*
X9345927Y-22525952D02*
X9364975Y-22516428D01*
X9364975Y-22516428D02*
X9403070Y-22516428D01*
X9403070Y-22516428D02*
X9422118Y-22525952D01*
X9498308Y-22725952D02*
X9507832Y-22716428D01*
X9507832Y-22716428D02*
X9526880Y-22687857D01*
X9526880Y-22687857D02*
X9536404Y-22668809D01*
X9536404Y-22668809D02*
X9545927Y-22640238D01*
X9545927Y-22640238D02*
X9555451Y-22592619D01*
X9555451Y-22592619D02*
X9555451Y-22554523D01*
X9555451Y-22554523D02*
X9545927Y-22506904D01*
X9545927Y-22506904D02*
X9536404Y-22478333D01*
X9536404Y-22478333D02*
X9526880Y-22459285D01*
X9526880Y-22459285D02*
X9507832Y-22430714D01*
X9507832Y-22430714D02*
X9498308Y-22421190D01*
D13*
X1123245Y-22828278D02*
G75*
G02*
X953065Y-22828278I-85090J0D01*
G01*
X953065Y-22828278D02*
G75*
G02*
X1123245Y-22828278I85090J0D01*
G01*
D10*
X1488784Y-22919762D02*
X1374498Y-22919762D01*
X1431641Y-22919762D02*
X1431641Y-22719762D01*
X1431641Y-22719762D02*
X1412593Y-22748333D01*
X1412593Y-22748333D02*
X1393546Y-22767381D01*
X1393546Y-22767381D02*
X1374498Y-22776904D01*
X1574498Y-22900714D02*
X1584022Y-22910238D01*
X1584022Y-22910238D02*
X1574498Y-22919762D01*
X1574498Y-22919762D02*
X1564974Y-22910238D01*
X1564974Y-22910238D02*
X1574498Y-22900714D01*
X1574498Y-22900714D02*
X1574498Y-22919762D01*
X1650688Y-22719762D02*
X1784022Y-22719762D01*
X1784022Y-22719762D02*
X1698307Y-22919762D01*
X1898307Y-22719762D02*
X1917355Y-22719762D01*
X1917355Y-22719762D02*
X1936403Y-22729285D01*
X1936403Y-22729285D02*
X1945927Y-22738809D01*
X1945927Y-22738809D02*
X1955450Y-22757857D01*
X1955450Y-22757857D02*
X1964974Y-22795952D01*
X1964974Y-22795952D02*
X1964974Y-22843571D01*
X1964974Y-22843571D02*
X1955450Y-22881666D01*
X1955450Y-22881666D02*
X1945927Y-22900714D01*
X1945927Y-22900714D02*
X1936403Y-22910238D01*
X1936403Y-22910238D02*
X1917355Y-22919762D01*
X1917355Y-22919762D02*
X1898307Y-22919762D01*
X1898307Y-22919762D02*
X1879260Y-22910238D01*
X1879260Y-22910238D02*
X1869736Y-22900714D01*
X1869736Y-22900714D02*
X1860212Y-22881666D01*
X1860212Y-22881666D02*
X1850688Y-22843571D01*
X1850688Y-22843571D02*
X1850688Y-22795952D01*
X1850688Y-22795952D02*
X1860212Y-22757857D01*
X1860212Y-22757857D02*
X1869736Y-22738809D01*
X1869736Y-22738809D02*
X1879260Y-22729285D01*
X1879260Y-22729285D02*
X1898307Y-22719762D01*
X2041165Y-22738809D02*
X2050688Y-22729285D01*
X2050688Y-22729285D02*
X2069736Y-22719762D01*
X2069736Y-22719762D02*
X2117355Y-22719762D01*
X2117355Y-22719762D02*
X2136403Y-22729285D01*
X2136403Y-22729285D02*
X2145927Y-22738809D01*
X2145927Y-22738809D02*
X2155450Y-22757857D01*
X2155450Y-22757857D02*
X2155450Y-22776904D01*
X2155450Y-22776904D02*
X2145927Y-22805476D01*
X2145927Y-22805476D02*
X2031641Y-22919762D01*
X2031641Y-22919762D02*
X2155450Y-22919762D01*
X2241165Y-22919762D02*
X2241165Y-22786428D01*
X2241165Y-22805476D02*
X2250689Y-22795952D01*
X2250689Y-22795952D02*
X2269736Y-22786428D01*
X2269736Y-22786428D02*
X2298308Y-22786428D01*
X2298308Y-22786428D02*
X2317355Y-22795952D01*
X2317355Y-22795952D02*
X2326879Y-22815000D01*
X2326879Y-22815000D02*
X2326879Y-22919762D01*
X2326879Y-22815000D02*
X2336403Y-22795952D01*
X2336403Y-22795952D02*
X2355450Y-22786428D01*
X2355450Y-22786428D02*
X2384022Y-22786428D01*
X2384022Y-22786428D02*
X2403070Y-22795952D01*
X2403070Y-22795952D02*
X2412593Y-22815000D01*
X2412593Y-22815000D02*
X2412593Y-22919762D01*
X2507831Y-22919762D02*
X2507831Y-22786428D01*
X2507831Y-22805476D02*
X2517355Y-22795952D01*
X2517355Y-22795952D02*
X2536403Y-22786428D01*
X2536403Y-22786428D02*
X2564974Y-22786428D01*
X2564974Y-22786428D02*
X2584022Y-22795952D01*
X2584022Y-22795952D02*
X2593546Y-22815000D01*
X2593546Y-22815000D02*
X2593546Y-22919762D01*
X2593546Y-22815000D02*
X2603070Y-22795952D01*
X2603070Y-22795952D02*
X2622117Y-22786428D01*
X2622117Y-22786428D02*
X2650689Y-22786428D01*
X2650689Y-22786428D02*
X2669736Y-22795952D01*
X2669736Y-22795952D02*
X2679260Y-22815000D01*
X2679260Y-22815000D02*
X2679260Y-22919762D01*
X3069736Y-22710238D02*
X2898308Y-22967381D01*
X3326879Y-22719762D02*
X3345927Y-22719762D01*
X3345927Y-22719762D02*
X3364974Y-22729285D01*
X3364974Y-22729285D02*
X3374498Y-22738809D01*
X3374498Y-22738809D02*
X3384022Y-22757857D01*
X3384022Y-22757857D02*
X3393546Y-22795952D01*
X3393546Y-22795952D02*
X3393546Y-22843571D01*
X3393546Y-22843571D02*
X3384022Y-22881666D01*
X3384022Y-22881666D02*
X3374498Y-22900714D01*
X3374498Y-22900714D02*
X3364974Y-22910238D01*
X3364974Y-22910238D02*
X3345927Y-22919762D01*
X3345927Y-22919762D02*
X3326879Y-22919762D01*
X3326879Y-22919762D02*
X3307831Y-22910238D01*
X3307831Y-22910238D02*
X3298308Y-22900714D01*
X3298308Y-22900714D02*
X3288784Y-22881666D01*
X3288784Y-22881666D02*
X3279260Y-22843571D01*
X3279260Y-22843571D02*
X3279260Y-22795952D01*
X3279260Y-22795952D02*
X3288784Y-22757857D01*
X3288784Y-22757857D02*
X3298308Y-22738809D01*
X3298308Y-22738809D02*
X3307831Y-22729285D01*
X3307831Y-22729285D02*
X3326879Y-22719762D01*
X3479260Y-22900714D02*
X3488784Y-22910238D01*
X3488784Y-22910238D02*
X3479260Y-22919762D01*
X3479260Y-22919762D02*
X3469736Y-22910238D01*
X3469736Y-22910238D02*
X3479260Y-22900714D01*
X3479260Y-22900714D02*
X3479260Y-22919762D01*
X3612593Y-22719762D02*
X3631641Y-22719762D01*
X3631641Y-22719762D02*
X3650689Y-22729285D01*
X3650689Y-22729285D02*
X3660212Y-22738809D01*
X3660212Y-22738809D02*
X3669736Y-22757857D01*
X3669736Y-22757857D02*
X3679260Y-22795952D01*
X3679260Y-22795952D02*
X3679260Y-22843571D01*
X3679260Y-22843571D02*
X3669736Y-22881666D01*
X3669736Y-22881666D02*
X3660212Y-22900714D01*
X3660212Y-22900714D02*
X3650689Y-22910238D01*
X3650689Y-22910238D02*
X3631641Y-22919762D01*
X3631641Y-22919762D02*
X3612593Y-22919762D01*
X3612593Y-22919762D02*
X3593546Y-22910238D01*
X3593546Y-22910238D02*
X3584022Y-22900714D01*
X3584022Y-22900714D02*
X3574498Y-22881666D01*
X3574498Y-22881666D02*
X3564974Y-22843571D01*
X3564974Y-22843571D02*
X3564974Y-22795952D01*
X3564974Y-22795952D02*
X3574498Y-22757857D01*
X3574498Y-22757857D02*
X3584022Y-22738809D01*
X3584022Y-22738809D02*
X3593546Y-22729285D01*
X3593546Y-22729285D02*
X3612593Y-22719762D01*
X3850689Y-22719762D02*
X3812593Y-22719762D01*
X3812593Y-22719762D02*
X3793546Y-22729285D01*
X3793546Y-22729285D02*
X3784022Y-22738809D01*
X3784022Y-22738809D02*
X3764974Y-22767381D01*
X3764974Y-22767381D02*
X3755451Y-22805476D01*
X3755451Y-22805476D02*
X3755451Y-22881666D01*
X3755451Y-22881666D02*
X3764974Y-22900714D01*
X3764974Y-22900714D02*
X3774498Y-22910238D01*
X3774498Y-22910238D02*
X3793546Y-22919762D01*
X3793546Y-22919762D02*
X3831641Y-22919762D01*
X3831641Y-22919762D02*
X3850689Y-22910238D01*
X3850689Y-22910238D02*
X3860212Y-22900714D01*
X3860212Y-22900714D02*
X3869736Y-22881666D01*
X3869736Y-22881666D02*
X3869736Y-22834047D01*
X3869736Y-22834047D02*
X3860212Y-22815000D01*
X3860212Y-22815000D02*
X3850689Y-22805476D01*
X3850689Y-22805476D02*
X3831641Y-22795952D01*
X3831641Y-22795952D02*
X3793546Y-22795952D01*
X3793546Y-22795952D02*
X3774498Y-22805476D01*
X3774498Y-22805476D02*
X3764974Y-22815000D01*
X3764974Y-22815000D02*
X3755451Y-22834047D01*
X3936403Y-22719762D02*
X4069736Y-22719762D01*
X4069736Y-22719762D02*
X3984022Y-22919762D01*
X4184022Y-22719762D02*
X4203070Y-22719762D01*
X4203070Y-22719762D02*
X4222117Y-22729285D01*
X4222117Y-22729285D02*
X4231641Y-22738809D01*
X4231641Y-22738809D02*
X4241165Y-22757857D01*
X4241165Y-22757857D02*
X4250689Y-22795952D01*
X4250689Y-22795952D02*
X4250689Y-22843571D01*
X4250689Y-22843571D02*
X4241165Y-22881666D01*
X4241165Y-22881666D02*
X4231641Y-22900714D01*
X4231641Y-22900714D02*
X4222117Y-22910238D01*
X4222117Y-22910238D02*
X4203070Y-22919762D01*
X4203070Y-22919762D02*
X4184022Y-22919762D01*
X4184022Y-22919762D02*
X4164974Y-22910238D01*
X4164974Y-22910238D02*
X4155451Y-22900714D01*
X4155451Y-22900714D02*
X4145927Y-22881666D01*
X4145927Y-22881666D02*
X4136403Y-22843571D01*
X4136403Y-22843571D02*
X4136403Y-22795952D01*
X4136403Y-22795952D02*
X4145927Y-22757857D01*
X4145927Y-22757857D02*
X4155451Y-22738809D01*
X4155451Y-22738809D02*
X4164974Y-22729285D01*
X4164974Y-22729285D02*
X4184022Y-22719762D01*
X4326879Y-22719762D02*
X4326879Y-22757857D01*
X4403070Y-22719762D02*
X4403070Y-22757857D01*
X4698308Y-22995952D02*
X4688784Y-22986428D01*
X4688784Y-22986428D02*
X4669736Y-22957857D01*
X4669736Y-22957857D02*
X4660213Y-22938809D01*
X4660213Y-22938809D02*
X4650689Y-22910238D01*
X4650689Y-22910238D02*
X4641165Y-22862619D01*
X4641165Y-22862619D02*
X4641165Y-22824523D01*
X4641165Y-22824523D02*
X4650689Y-22776904D01*
X4650689Y-22776904D02*
X4660213Y-22748333D01*
X4660213Y-22748333D02*
X4669736Y-22729285D01*
X4669736Y-22729285D02*
X4688784Y-22700714D01*
X4688784Y-22700714D02*
X4698308Y-22691190D01*
X4879260Y-22919762D02*
X4764975Y-22919762D01*
X4822117Y-22919762D02*
X4822117Y-22719762D01*
X4822117Y-22719762D02*
X4803070Y-22748333D01*
X4803070Y-22748333D02*
X4784022Y-22767381D01*
X4784022Y-22767381D02*
X4764975Y-22776904D01*
X5060213Y-22719762D02*
X4964975Y-22719762D01*
X4964975Y-22719762D02*
X4955451Y-22815000D01*
X4955451Y-22815000D02*
X4964975Y-22805476D01*
X4964975Y-22805476D02*
X4984022Y-22795952D01*
X4984022Y-22795952D02*
X5031641Y-22795952D01*
X5031641Y-22795952D02*
X5050689Y-22805476D01*
X5050689Y-22805476D02*
X5060213Y-22815000D01*
X5060213Y-22815000D02*
X5069736Y-22834047D01*
X5069736Y-22834047D02*
X5069736Y-22881666D01*
X5069736Y-22881666D02*
X5060213Y-22900714D01*
X5060213Y-22900714D02*
X5050689Y-22910238D01*
X5050689Y-22910238D02*
X5031641Y-22919762D01*
X5031641Y-22919762D02*
X4984022Y-22919762D01*
X4984022Y-22919762D02*
X4964975Y-22910238D01*
X4964975Y-22910238D02*
X4955451Y-22900714D01*
X5193546Y-22719762D02*
X5212594Y-22719762D01*
X5212594Y-22719762D02*
X5231641Y-22729285D01*
X5231641Y-22729285D02*
X5241165Y-22738809D01*
X5241165Y-22738809D02*
X5250689Y-22757857D01*
X5250689Y-22757857D02*
X5260213Y-22795952D01*
X5260213Y-22795952D02*
X5260213Y-22843571D01*
X5260213Y-22843571D02*
X5250689Y-22881666D01*
X5250689Y-22881666D02*
X5241165Y-22900714D01*
X5241165Y-22900714D02*
X5231641Y-22910238D01*
X5231641Y-22910238D02*
X5212594Y-22919762D01*
X5212594Y-22919762D02*
X5193546Y-22919762D01*
X5193546Y-22919762D02*
X5174498Y-22910238D01*
X5174498Y-22910238D02*
X5164975Y-22900714D01*
X5164975Y-22900714D02*
X5155451Y-22881666D01*
X5155451Y-22881666D02*
X5145927Y-22843571D01*
X5145927Y-22843571D02*
X5145927Y-22795952D01*
X5145927Y-22795952D02*
X5155451Y-22757857D01*
X5155451Y-22757857D02*
X5164975Y-22738809D01*
X5164975Y-22738809D02*
X5174498Y-22729285D01*
X5174498Y-22729285D02*
X5193546Y-22719762D01*
X5498308Y-22919762D02*
X5498308Y-22719762D01*
X5584022Y-22919762D02*
X5584022Y-22815000D01*
X5584022Y-22815000D02*
X5574498Y-22795952D01*
X5574498Y-22795952D02*
X5555451Y-22786428D01*
X5555451Y-22786428D02*
X5526879Y-22786428D01*
X5526879Y-22786428D02*
X5507832Y-22795952D01*
X5507832Y-22795952D02*
X5498308Y-22805476D01*
X5707832Y-22919762D02*
X5688784Y-22910238D01*
X5688784Y-22910238D02*
X5679260Y-22900714D01*
X5679260Y-22900714D02*
X5669736Y-22881666D01*
X5669736Y-22881666D02*
X5669736Y-22824523D01*
X5669736Y-22824523D02*
X5679260Y-22805476D01*
X5679260Y-22805476D02*
X5688784Y-22795952D01*
X5688784Y-22795952D02*
X5707832Y-22786428D01*
X5707832Y-22786428D02*
X5736403Y-22786428D01*
X5736403Y-22786428D02*
X5755451Y-22795952D01*
X5755451Y-22795952D02*
X5764975Y-22805476D01*
X5764975Y-22805476D02*
X5774498Y-22824523D01*
X5774498Y-22824523D02*
X5774498Y-22881666D01*
X5774498Y-22881666D02*
X5764975Y-22900714D01*
X5764975Y-22900714D02*
X5755451Y-22910238D01*
X5755451Y-22910238D02*
X5736403Y-22919762D01*
X5736403Y-22919762D02*
X5707832Y-22919762D01*
X5888784Y-22919762D02*
X5869736Y-22910238D01*
X5869736Y-22910238D02*
X5860213Y-22891190D01*
X5860213Y-22891190D02*
X5860213Y-22719762D01*
X6041165Y-22910238D02*
X6022117Y-22919762D01*
X6022117Y-22919762D02*
X5984022Y-22919762D01*
X5984022Y-22919762D02*
X5964975Y-22910238D01*
X5964975Y-22910238D02*
X5955451Y-22891190D01*
X5955451Y-22891190D02*
X5955451Y-22815000D01*
X5955451Y-22815000D02*
X5964975Y-22795952D01*
X5964975Y-22795952D02*
X5984022Y-22786428D01*
X5984022Y-22786428D02*
X6022117Y-22786428D01*
X6022117Y-22786428D02*
X6041165Y-22795952D01*
X6041165Y-22795952D02*
X6050689Y-22815000D01*
X6050689Y-22815000D02*
X6050689Y-22834047D01*
X6050689Y-22834047D02*
X5955451Y-22853095D01*
X6126879Y-22910238D02*
X6145927Y-22919762D01*
X6145927Y-22919762D02*
X6184022Y-22919762D01*
X6184022Y-22919762D02*
X6203070Y-22910238D01*
X6203070Y-22910238D02*
X6212594Y-22891190D01*
X6212594Y-22891190D02*
X6212594Y-22881666D01*
X6212594Y-22881666D02*
X6203070Y-22862619D01*
X6203070Y-22862619D02*
X6184022Y-22853095D01*
X6184022Y-22853095D02*
X6155451Y-22853095D01*
X6155451Y-22853095D02*
X6136403Y-22843571D01*
X6136403Y-22843571D02*
X6126879Y-22824523D01*
X6126879Y-22824523D02*
X6126879Y-22815000D01*
X6126879Y-22815000D02*
X6136403Y-22795952D01*
X6136403Y-22795952D02*
X6155451Y-22786428D01*
X6155451Y-22786428D02*
X6184022Y-22786428D01*
X6184022Y-22786428D02*
X6203070Y-22795952D01*
X6279260Y-22995952D02*
X6288784Y-22986428D01*
X6288784Y-22986428D02*
X6307832Y-22957857D01*
X6307832Y-22957857D02*
X6317356Y-22938809D01*
X6317356Y-22938809D02*
X6326879Y-22910238D01*
X6326879Y-22910238D02*
X6336403Y-22862619D01*
X6336403Y-22862619D02*
X6336403Y-22824523D01*
X6336403Y-22824523D02*
X6326879Y-22776904D01*
X6326879Y-22776904D02*
X6317356Y-22748333D01*
X6317356Y-22748333D02*
X6307832Y-22729285D01*
X6307832Y-22729285D02*
X6288784Y-22700714D01*
X6288784Y-22700714D02*
X6279260Y-22691190D01*
X6641165Y-22995952D02*
X6631641Y-22986428D01*
X6631641Y-22986428D02*
X6612594Y-22957857D01*
X6612594Y-22957857D02*
X6603070Y-22938809D01*
X6603070Y-22938809D02*
X6593546Y-22910238D01*
X6593546Y-22910238D02*
X6584022Y-22862619D01*
X6584022Y-22862619D02*
X6584022Y-22824523D01*
X6584022Y-22824523D02*
X6593546Y-22776904D01*
X6593546Y-22776904D02*
X6603070Y-22748333D01*
X6603070Y-22748333D02*
X6612594Y-22729285D01*
X6612594Y-22729285D02*
X6631641Y-22700714D01*
X6631641Y-22700714D02*
X6641165Y-22691190D01*
X6717356Y-22786428D02*
X6717356Y-22919762D01*
X6717356Y-22805476D02*
X6726879Y-22795952D01*
X6726879Y-22795952D02*
X6745927Y-22786428D01*
X6745927Y-22786428D02*
X6774498Y-22786428D01*
X6774498Y-22786428D02*
X6793546Y-22795952D01*
X6793546Y-22795952D02*
X6803070Y-22815000D01*
X6803070Y-22815000D02*
X6803070Y-22919762D01*
X6926879Y-22919762D02*
X6907832Y-22910238D01*
X6907832Y-22910238D02*
X6898308Y-22900714D01*
X6898308Y-22900714D02*
X6888784Y-22881666D01*
X6888784Y-22881666D02*
X6888784Y-22824523D01*
X6888784Y-22824523D02*
X6898308Y-22805476D01*
X6898308Y-22805476D02*
X6907832Y-22795952D01*
X6907832Y-22795952D02*
X6926879Y-22786428D01*
X6926879Y-22786428D02*
X6955451Y-22786428D01*
X6955451Y-22786428D02*
X6974498Y-22795952D01*
X6974498Y-22795952D02*
X6984022Y-22805476D01*
X6984022Y-22805476D02*
X6993546Y-22824523D01*
X6993546Y-22824523D02*
X6993546Y-22881666D01*
X6993546Y-22881666D02*
X6984022Y-22900714D01*
X6984022Y-22900714D02*
X6974498Y-22910238D01*
X6974498Y-22910238D02*
X6955451Y-22919762D01*
X6955451Y-22919762D02*
X6926879Y-22919762D01*
X7050689Y-22786428D02*
X7126879Y-22786428D01*
X7079260Y-22719762D02*
X7079260Y-22891190D01*
X7079260Y-22891190D02*
X7088784Y-22910238D01*
X7088784Y-22910238D02*
X7107832Y-22919762D01*
X7107832Y-22919762D02*
X7126879Y-22919762D01*
X7345927Y-22786428D02*
X7345927Y-22986428D01*
X7345927Y-22795952D02*
X7364975Y-22786428D01*
X7364975Y-22786428D02*
X7403070Y-22786428D01*
X7403070Y-22786428D02*
X7422118Y-22795952D01*
X7422118Y-22795952D02*
X7431641Y-22805476D01*
X7431641Y-22805476D02*
X7441165Y-22824523D01*
X7441165Y-22824523D02*
X7441165Y-22881666D01*
X7441165Y-22881666D02*
X7431641Y-22900714D01*
X7431641Y-22900714D02*
X7422118Y-22910238D01*
X7422118Y-22910238D02*
X7403070Y-22919762D01*
X7403070Y-22919762D02*
X7364975Y-22919762D01*
X7364975Y-22919762D02*
X7345927Y-22910238D01*
X7555451Y-22919762D02*
X7536403Y-22910238D01*
X7536403Y-22910238D02*
X7526879Y-22891190D01*
X7526879Y-22891190D02*
X7526879Y-22719762D01*
X7717356Y-22919762D02*
X7717356Y-22815000D01*
X7717356Y-22815000D02*
X7707832Y-22795952D01*
X7707832Y-22795952D02*
X7688784Y-22786428D01*
X7688784Y-22786428D02*
X7650689Y-22786428D01*
X7650689Y-22786428D02*
X7631641Y-22795952D01*
X7717356Y-22910238D02*
X7698308Y-22919762D01*
X7698308Y-22919762D02*
X7650689Y-22919762D01*
X7650689Y-22919762D02*
X7631641Y-22910238D01*
X7631641Y-22910238D02*
X7622118Y-22891190D01*
X7622118Y-22891190D02*
X7622118Y-22872142D01*
X7622118Y-22872142D02*
X7631641Y-22853095D01*
X7631641Y-22853095D02*
X7650689Y-22843571D01*
X7650689Y-22843571D02*
X7698308Y-22843571D01*
X7698308Y-22843571D02*
X7717356Y-22834047D01*
X7784022Y-22786428D02*
X7860213Y-22786428D01*
X7812594Y-22719762D02*
X7812594Y-22891190D01*
X7812594Y-22891190D02*
X7822118Y-22910238D01*
X7822118Y-22910238D02*
X7841165Y-22919762D01*
X7841165Y-22919762D02*
X7860213Y-22919762D01*
X8003070Y-22910238D02*
X7984022Y-22919762D01*
X7984022Y-22919762D02*
X7945927Y-22919762D01*
X7945927Y-22919762D02*
X7926879Y-22910238D01*
X7926879Y-22910238D02*
X7917356Y-22891190D01*
X7917356Y-22891190D02*
X7917356Y-22815000D01*
X7917356Y-22815000D02*
X7926879Y-22795952D01*
X7926879Y-22795952D02*
X7945927Y-22786428D01*
X7945927Y-22786428D02*
X7984022Y-22786428D01*
X7984022Y-22786428D02*
X8003070Y-22795952D01*
X8003070Y-22795952D02*
X8012594Y-22815000D01*
X8012594Y-22815000D02*
X8012594Y-22834047D01*
X8012594Y-22834047D02*
X7917356Y-22853095D01*
X8184022Y-22919762D02*
X8184022Y-22719762D01*
X8184022Y-22910238D02*
X8164975Y-22919762D01*
X8164975Y-22919762D02*
X8126879Y-22919762D01*
X8126879Y-22919762D02*
X8107832Y-22910238D01*
X8107832Y-22910238D02*
X8098308Y-22900714D01*
X8098308Y-22900714D02*
X8088784Y-22881666D01*
X8088784Y-22881666D02*
X8088784Y-22824523D01*
X8088784Y-22824523D02*
X8098308Y-22805476D01*
X8098308Y-22805476D02*
X8107832Y-22795952D01*
X8107832Y-22795952D02*
X8126879Y-22786428D01*
X8126879Y-22786428D02*
X8164975Y-22786428D01*
X8164975Y-22786428D02*
X8184022Y-22795952D01*
X8260213Y-22995952D02*
X8269737Y-22986428D01*
X8269737Y-22986428D02*
X8288784Y-22957857D01*
X8288784Y-22957857D02*
X8298308Y-22938809D01*
X8298308Y-22938809D02*
X8307832Y-22910238D01*
X8307832Y-22910238D02*
X8317356Y-22862619D01*
X8317356Y-22862619D02*
X8317356Y-22824523D01*
X8317356Y-22824523D02*
X8307832Y-22776904D01*
X8307832Y-22776904D02*
X8298308Y-22748333D01*
X8298308Y-22748333D02*
X8288784Y-22729285D01*
X8288784Y-22729285D02*
X8269737Y-22700714D01*
X8269737Y-22700714D02*
X8260213Y-22691190D01*
X1023245Y-23018458D02*
X1023245Y-23218458D01*
X923245Y-23118458D02*
X1123245Y-23118458D01*
X1364974Y-23009942D02*
X1488784Y-23009942D01*
X1488784Y-23009942D02*
X1422117Y-23086132D01*
X1422117Y-23086132D02*
X1450688Y-23086132D01*
X1450688Y-23086132D02*
X1469736Y-23095656D01*
X1469736Y-23095656D02*
X1479260Y-23105180D01*
X1479260Y-23105180D02*
X1488784Y-23124227D01*
X1488784Y-23124227D02*
X1488784Y-23171846D01*
X1488784Y-23171846D02*
X1479260Y-23190894D01*
X1479260Y-23190894D02*
X1469736Y-23200418D01*
X1469736Y-23200418D02*
X1450688Y-23209942D01*
X1450688Y-23209942D02*
X1393546Y-23209942D01*
X1393546Y-23209942D02*
X1374498Y-23200418D01*
X1374498Y-23200418D02*
X1364974Y-23190894D01*
X1574498Y-23190894D02*
X1584022Y-23200418D01*
X1584022Y-23200418D02*
X1574498Y-23209942D01*
X1574498Y-23209942D02*
X1564974Y-23200418D01*
X1564974Y-23200418D02*
X1574498Y-23190894D01*
X1574498Y-23190894D02*
X1574498Y-23209942D01*
X1707831Y-23009942D02*
X1726879Y-23009942D01*
X1726879Y-23009942D02*
X1745927Y-23019465D01*
X1745927Y-23019465D02*
X1755450Y-23028989D01*
X1755450Y-23028989D02*
X1764974Y-23048037D01*
X1764974Y-23048037D02*
X1774498Y-23086132D01*
X1774498Y-23086132D02*
X1774498Y-23133751D01*
X1774498Y-23133751D02*
X1764974Y-23171846D01*
X1764974Y-23171846D02*
X1755450Y-23190894D01*
X1755450Y-23190894D02*
X1745927Y-23200418D01*
X1745927Y-23200418D02*
X1726879Y-23209942D01*
X1726879Y-23209942D02*
X1707831Y-23209942D01*
X1707831Y-23209942D02*
X1688784Y-23200418D01*
X1688784Y-23200418D02*
X1679260Y-23190894D01*
X1679260Y-23190894D02*
X1669736Y-23171846D01*
X1669736Y-23171846D02*
X1660212Y-23133751D01*
X1660212Y-23133751D02*
X1660212Y-23086132D01*
X1660212Y-23086132D02*
X1669736Y-23048037D01*
X1669736Y-23048037D02*
X1679260Y-23028989D01*
X1679260Y-23028989D02*
X1688784Y-23019465D01*
X1688784Y-23019465D02*
X1707831Y-23009942D01*
X1898307Y-23009942D02*
X1917355Y-23009942D01*
X1917355Y-23009942D02*
X1936403Y-23019465D01*
X1936403Y-23019465D02*
X1945927Y-23028989D01*
X1945927Y-23028989D02*
X1955450Y-23048037D01*
X1955450Y-23048037D02*
X1964974Y-23086132D01*
X1964974Y-23086132D02*
X1964974Y-23133751D01*
X1964974Y-23133751D02*
X1955450Y-23171846D01*
X1955450Y-23171846D02*
X1945927Y-23190894D01*
X1945927Y-23190894D02*
X1936403Y-23200418D01*
X1936403Y-23200418D02*
X1917355Y-23209942D01*
X1917355Y-23209942D02*
X1898307Y-23209942D01*
X1898307Y-23209942D02*
X1879260Y-23200418D01*
X1879260Y-23200418D02*
X1869736Y-23190894D01*
X1869736Y-23190894D02*
X1860212Y-23171846D01*
X1860212Y-23171846D02*
X1850688Y-23133751D01*
X1850688Y-23133751D02*
X1850688Y-23086132D01*
X1850688Y-23086132D02*
X1860212Y-23048037D01*
X1860212Y-23048037D02*
X1869736Y-23028989D01*
X1869736Y-23028989D02*
X1879260Y-23019465D01*
X1879260Y-23019465D02*
X1898307Y-23009942D01*
X2088784Y-23009942D02*
X2107831Y-23009942D01*
X2107831Y-23009942D02*
X2126879Y-23019465D01*
X2126879Y-23019465D02*
X2136403Y-23028989D01*
X2136403Y-23028989D02*
X2145927Y-23048037D01*
X2145927Y-23048037D02*
X2155450Y-23086132D01*
X2155450Y-23086132D02*
X2155450Y-23133751D01*
X2155450Y-23133751D02*
X2145927Y-23171846D01*
X2145927Y-23171846D02*
X2136403Y-23190894D01*
X2136403Y-23190894D02*
X2126879Y-23200418D01*
X2126879Y-23200418D02*
X2107831Y-23209942D01*
X2107831Y-23209942D02*
X2088784Y-23209942D01*
X2088784Y-23209942D02*
X2069736Y-23200418D01*
X2069736Y-23200418D02*
X2060212Y-23190894D01*
X2060212Y-23190894D02*
X2050688Y-23171846D01*
X2050688Y-23171846D02*
X2041165Y-23133751D01*
X2041165Y-23133751D02*
X2041165Y-23086132D01*
X2041165Y-23086132D02*
X2050688Y-23048037D01*
X2050688Y-23048037D02*
X2060212Y-23028989D01*
X2060212Y-23028989D02*
X2069736Y-23019465D01*
X2069736Y-23019465D02*
X2088784Y-23009942D01*
X2241165Y-23209942D02*
X2241165Y-23076608D01*
X2241165Y-23095656D02*
X2250689Y-23086132D01*
X2250689Y-23086132D02*
X2269736Y-23076608D01*
X2269736Y-23076608D02*
X2298308Y-23076608D01*
X2298308Y-23076608D02*
X2317355Y-23086132D01*
X2317355Y-23086132D02*
X2326879Y-23105180D01*
X2326879Y-23105180D02*
X2326879Y-23209942D01*
X2326879Y-23105180D02*
X2336403Y-23086132D01*
X2336403Y-23086132D02*
X2355450Y-23076608D01*
X2355450Y-23076608D02*
X2384022Y-23076608D01*
X2384022Y-23076608D02*
X2403070Y-23086132D01*
X2403070Y-23086132D02*
X2412593Y-23105180D01*
X2412593Y-23105180D02*
X2412593Y-23209942D01*
X2507831Y-23209942D02*
X2507831Y-23076608D01*
X2507831Y-23095656D02*
X2517355Y-23086132D01*
X2517355Y-23086132D02*
X2536403Y-23076608D01*
X2536403Y-23076608D02*
X2564974Y-23076608D01*
X2564974Y-23076608D02*
X2584022Y-23086132D01*
X2584022Y-23086132D02*
X2593546Y-23105180D01*
X2593546Y-23105180D02*
X2593546Y-23209942D01*
X2593546Y-23105180D02*
X2603070Y-23086132D01*
X2603070Y-23086132D02*
X2622117Y-23076608D01*
X2622117Y-23076608D02*
X2650689Y-23076608D01*
X2650689Y-23076608D02*
X2669736Y-23086132D01*
X2669736Y-23086132D02*
X2679260Y-23105180D01*
X2679260Y-23105180D02*
X2679260Y-23209942D01*
X3069736Y-23000418D02*
X2898308Y-23257561D01*
X3326879Y-23009942D02*
X3345927Y-23009942D01*
X3345927Y-23009942D02*
X3364974Y-23019465D01*
X3364974Y-23019465D02*
X3374498Y-23028989D01*
X3374498Y-23028989D02*
X3384022Y-23048037D01*
X3384022Y-23048037D02*
X3393546Y-23086132D01*
X3393546Y-23086132D02*
X3393546Y-23133751D01*
X3393546Y-23133751D02*
X3384022Y-23171846D01*
X3384022Y-23171846D02*
X3374498Y-23190894D01*
X3374498Y-23190894D02*
X3364974Y-23200418D01*
X3364974Y-23200418D02*
X3345927Y-23209942D01*
X3345927Y-23209942D02*
X3326879Y-23209942D01*
X3326879Y-23209942D02*
X3307831Y-23200418D01*
X3307831Y-23200418D02*
X3298308Y-23190894D01*
X3298308Y-23190894D02*
X3288784Y-23171846D01*
X3288784Y-23171846D02*
X3279260Y-23133751D01*
X3279260Y-23133751D02*
X3279260Y-23086132D01*
X3279260Y-23086132D02*
X3288784Y-23048037D01*
X3288784Y-23048037D02*
X3298308Y-23028989D01*
X3298308Y-23028989D02*
X3307831Y-23019465D01*
X3307831Y-23019465D02*
X3326879Y-23009942D01*
X3479260Y-23190894D02*
X3488784Y-23200418D01*
X3488784Y-23200418D02*
X3479260Y-23209942D01*
X3479260Y-23209942D02*
X3469736Y-23200418D01*
X3469736Y-23200418D02*
X3479260Y-23190894D01*
X3479260Y-23190894D02*
X3479260Y-23209942D01*
X3679260Y-23209942D02*
X3564974Y-23209942D01*
X3622117Y-23209942D02*
X3622117Y-23009942D01*
X3622117Y-23009942D02*
X3603070Y-23038513D01*
X3603070Y-23038513D02*
X3584022Y-23057561D01*
X3584022Y-23057561D02*
X3564974Y-23067084D01*
X3869736Y-23209942D02*
X3755451Y-23209942D01*
X3812593Y-23209942D02*
X3812593Y-23009942D01*
X3812593Y-23009942D02*
X3793546Y-23038513D01*
X3793546Y-23038513D02*
X3774498Y-23057561D01*
X3774498Y-23057561D02*
X3755451Y-23067084D01*
X3984022Y-23095656D02*
X3964974Y-23086132D01*
X3964974Y-23086132D02*
X3955451Y-23076608D01*
X3955451Y-23076608D02*
X3945927Y-23057561D01*
X3945927Y-23057561D02*
X3945927Y-23048037D01*
X3945927Y-23048037D02*
X3955451Y-23028989D01*
X3955451Y-23028989D02*
X3964974Y-23019465D01*
X3964974Y-23019465D02*
X3984022Y-23009942D01*
X3984022Y-23009942D02*
X4022117Y-23009942D01*
X4022117Y-23009942D02*
X4041165Y-23019465D01*
X4041165Y-23019465D02*
X4050689Y-23028989D01*
X4050689Y-23028989D02*
X4060212Y-23048037D01*
X4060212Y-23048037D02*
X4060212Y-23057561D01*
X4060212Y-23057561D02*
X4050689Y-23076608D01*
X4050689Y-23076608D02*
X4041165Y-23086132D01*
X4041165Y-23086132D02*
X4022117Y-23095656D01*
X4022117Y-23095656D02*
X3984022Y-23095656D01*
X3984022Y-23095656D02*
X3964974Y-23105180D01*
X3964974Y-23105180D02*
X3955451Y-23114703D01*
X3955451Y-23114703D02*
X3945927Y-23133751D01*
X3945927Y-23133751D02*
X3945927Y-23171846D01*
X3945927Y-23171846D02*
X3955451Y-23190894D01*
X3955451Y-23190894D02*
X3964974Y-23200418D01*
X3964974Y-23200418D02*
X3984022Y-23209942D01*
X3984022Y-23209942D02*
X4022117Y-23209942D01*
X4022117Y-23209942D02*
X4041165Y-23200418D01*
X4041165Y-23200418D02*
X4050689Y-23190894D01*
X4050689Y-23190894D02*
X4060212Y-23171846D01*
X4060212Y-23171846D02*
X4060212Y-23133751D01*
X4060212Y-23133751D02*
X4050689Y-23114703D01*
X4050689Y-23114703D02*
X4041165Y-23105180D01*
X4041165Y-23105180D02*
X4022117Y-23095656D01*
X4250689Y-23209942D02*
X4136403Y-23209942D01*
X4193546Y-23209942D02*
X4193546Y-23009942D01*
X4193546Y-23009942D02*
X4174498Y-23038513D01*
X4174498Y-23038513D02*
X4155451Y-23057561D01*
X4155451Y-23057561D02*
X4136403Y-23067084D01*
X4326879Y-23009942D02*
X4326879Y-23048037D01*
X4403070Y-23009942D02*
X4403070Y-23048037D01*
X4698308Y-23286132D02*
X4688784Y-23276608D01*
X4688784Y-23276608D02*
X4669736Y-23248037D01*
X4669736Y-23248037D02*
X4660213Y-23228989D01*
X4660213Y-23228989D02*
X4650689Y-23200418D01*
X4650689Y-23200418D02*
X4641165Y-23152799D01*
X4641165Y-23152799D02*
X4641165Y-23114703D01*
X4641165Y-23114703D02*
X4650689Y-23067084D01*
X4650689Y-23067084D02*
X4660213Y-23038513D01*
X4660213Y-23038513D02*
X4669736Y-23019465D01*
X4669736Y-23019465D02*
X4688784Y-22990894D01*
X4688784Y-22990894D02*
X4698308Y-22981370D01*
X4879260Y-23209942D02*
X4764975Y-23209942D01*
X4822117Y-23209942D02*
X4822117Y-23009942D01*
X4822117Y-23009942D02*
X4803070Y-23038513D01*
X4803070Y-23038513D02*
X4784022Y-23057561D01*
X4784022Y-23057561D02*
X4764975Y-23067084D01*
X5060213Y-23009942D02*
X4964975Y-23009942D01*
X4964975Y-23009942D02*
X4955451Y-23105180D01*
X4955451Y-23105180D02*
X4964975Y-23095656D01*
X4964975Y-23095656D02*
X4984022Y-23086132D01*
X4984022Y-23086132D02*
X5031641Y-23086132D01*
X5031641Y-23086132D02*
X5050689Y-23095656D01*
X5050689Y-23095656D02*
X5060213Y-23105180D01*
X5060213Y-23105180D02*
X5069736Y-23124227D01*
X5069736Y-23124227D02*
X5069736Y-23171846D01*
X5069736Y-23171846D02*
X5060213Y-23190894D01*
X5060213Y-23190894D02*
X5050689Y-23200418D01*
X5050689Y-23200418D02*
X5031641Y-23209942D01*
X5031641Y-23209942D02*
X4984022Y-23209942D01*
X4984022Y-23209942D02*
X4964975Y-23200418D01*
X4964975Y-23200418D02*
X4955451Y-23190894D01*
X5193546Y-23009942D02*
X5212594Y-23009942D01*
X5212594Y-23009942D02*
X5231641Y-23019465D01*
X5231641Y-23019465D02*
X5241165Y-23028989D01*
X5241165Y-23028989D02*
X5250689Y-23048037D01*
X5250689Y-23048037D02*
X5260213Y-23086132D01*
X5260213Y-23086132D02*
X5260213Y-23133751D01*
X5260213Y-23133751D02*
X5250689Y-23171846D01*
X5250689Y-23171846D02*
X5241165Y-23190894D01*
X5241165Y-23190894D02*
X5231641Y-23200418D01*
X5231641Y-23200418D02*
X5212594Y-23209942D01*
X5212594Y-23209942D02*
X5193546Y-23209942D01*
X5193546Y-23209942D02*
X5174498Y-23200418D01*
X5174498Y-23200418D02*
X5164975Y-23190894D01*
X5164975Y-23190894D02*
X5155451Y-23171846D01*
X5155451Y-23171846D02*
X5145927Y-23133751D01*
X5145927Y-23133751D02*
X5145927Y-23086132D01*
X5145927Y-23086132D02*
X5155451Y-23048037D01*
X5155451Y-23048037D02*
X5164975Y-23028989D01*
X5164975Y-23028989D02*
X5174498Y-23019465D01*
X5174498Y-23019465D02*
X5193546Y-23009942D01*
X5498308Y-23209942D02*
X5498308Y-23009942D01*
X5584022Y-23209942D02*
X5584022Y-23105180D01*
X5584022Y-23105180D02*
X5574498Y-23086132D01*
X5574498Y-23086132D02*
X5555451Y-23076608D01*
X5555451Y-23076608D02*
X5526879Y-23076608D01*
X5526879Y-23076608D02*
X5507832Y-23086132D01*
X5507832Y-23086132D02*
X5498308Y-23095656D01*
X5707832Y-23209942D02*
X5688784Y-23200418D01*
X5688784Y-23200418D02*
X5679260Y-23190894D01*
X5679260Y-23190894D02*
X5669736Y-23171846D01*
X5669736Y-23171846D02*
X5669736Y-23114703D01*
X5669736Y-23114703D02*
X5679260Y-23095656D01*
X5679260Y-23095656D02*
X5688784Y-23086132D01*
X5688784Y-23086132D02*
X5707832Y-23076608D01*
X5707832Y-23076608D02*
X5736403Y-23076608D01*
X5736403Y-23076608D02*
X5755451Y-23086132D01*
X5755451Y-23086132D02*
X5764975Y-23095656D01*
X5764975Y-23095656D02*
X5774498Y-23114703D01*
X5774498Y-23114703D02*
X5774498Y-23171846D01*
X5774498Y-23171846D02*
X5764975Y-23190894D01*
X5764975Y-23190894D02*
X5755451Y-23200418D01*
X5755451Y-23200418D02*
X5736403Y-23209942D01*
X5736403Y-23209942D02*
X5707832Y-23209942D01*
X5888784Y-23209942D02*
X5869736Y-23200418D01*
X5869736Y-23200418D02*
X5860213Y-23181370D01*
X5860213Y-23181370D02*
X5860213Y-23009942D01*
X6041165Y-23200418D02*
X6022117Y-23209942D01*
X6022117Y-23209942D02*
X5984022Y-23209942D01*
X5984022Y-23209942D02*
X5964975Y-23200418D01*
X5964975Y-23200418D02*
X5955451Y-23181370D01*
X5955451Y-23181370D02*
X5955451Y-23105180D01*
X5955451Y-23105180D02*
X5964975Y-23086132D01*
X5964975Y-23086132D02*
X5984022Y-23076608D01*
X5984022Y-23076608D02*
X6022117Y-23076608D01*
X6022117Y-23076608D02*
X6041165Y-23086132D01*
X6041165Y-23086132D02*
X6050689Y-23105180D01*
X6050689Y-23105180D02*
X6050689Y-23124227D01*
X6050689Y-23124227D02*
X5955451Y-23143275D01*
X6126879Y-23200418D02*
X6145927Y-23209942D01*
X6145927Y-23209942D02*
X6184022Y-23209942D01*
X6184022Y-23209942D02*
X6203070Y-23200418D01*
X6203070Y-23200418D02*
X6212594Y-23181370D01*
X6212594Y-23181370D02*
X6212594Y-23171846D01*
X6212594Y-23171846D02*
X6203070Y-23152799D01*
X6203070Y-23152799D02*
X6184022Y-23143275D01*
X6184022Y-23143275D02*
X6155451Y-23143275D01*
X6155451Y-23143275D02*
X6136403Y-23133751D01*
X6136403Y-23133751D02*
X6126879Y-23114703D01*
X6126879Y-23114703D02*
X6126879Y-23105180D01*
X6126879Y-23105180D02*
X6136403Y-23086132D01*
X6136403Y-23086132D02*
X6155451Y-23076608D01*
X6155451Y-23076608D02*
X6184022Y-23076608D01*
X6184022Y-23076608D02*
X6203070Y-23086132D01*
X6279260Y-23286132D02*
X6288784Y-23276608D01*
X6288784Y-23276608D02*
X6307832Y-23248037D01*
X6307832Y-23248037D02*
X6317356Y-23228989D01*
X6317356Y-23228989D02*
X6326879Y-23200418D01*
X6326879Y-23200418D02*
X6336403Y-23152799D01*
X6336403Y-23152799D02*
X6336403Y-23114703D01*
X6336403Y-23114703D02*
X6326879Y-23067084D01*
X6326879Y-23067084D02*
X6317356Y-23038513D01*
X6317356Y-23038513D02*
X6307832Y-23019465D01*
X6307832Y-23019465D02*
X6288784Y-22990894D01*
X6288784Y-22990894D02*
X6279260Y-22981370D01*
X6641165Y-23286132D02*
X6631641Y-23276608D01*
X6631641Y-23276608D02*
X6612594Y-23248037D01*
X6612594Y-23248037D02*
X6603070Y-23228989D01*
X6603070Y-23228989D02*
X6593546Y-23200418D01*
X6593546Y-23200418D02*
X6584022Y-23152799D01*
X6584022Y-23152799D02*
X6584022Y-23114703D01*
X6584022Y-23114703D02*
X6593546Y-23067084D01*
X6593546Y-23067084D02*
X6603070Y-23038513D01*
X6603070Y-23038513D02*
X6612594Y-23019465D01*
X6612594Y-23019465D02*
X6631641Y-22990894D01*
X6631641Y-22990894D02*
X6641165Y-22981370D01*
X6717356Y-23076608D02*
X6717356Y-23209942D01*
X6717356Y-23095656D02*
X6726879Y-23086132D01*
X6726879Y-23086132D02*
X6745927Y-23076608D01*
X6745927Y-23076608D02*
X6774498Y-23076608D01*
X6774498Y-23076608D02*
X6793546Y-23086132D01*
X6793546Y-23086132D02*
X6803070Y-23105180D01*
X6803070Y-23105180D02*
X6803070Y-23209942D01*
X6926879Y-23209942D02*
X6907832Y-23200418D01*
X6907832Y-23200418D02*
X6898308Y-23190894D01*
X6898308Y-23190894D02*
X6888784Y-23171846D01*
X6888784Y-23171846D02*
X6888784Y-23114703D01*
X6888784Y-23114703D02*
X6898308Y-23095656D01*
X6898308Y-23095656D02*
X6907832Y-23086132D01*
X6907832Y-23086132D02*
X6926879Y-23076608D01*
X6926879Y-23076608D02*
X6955451Y-23076608D01*
X6955451Y-23076608D02*
X6974498Y-23086132D01*
X6974498Y-23086132D02*
X6984022Y-23095656D01*
X6984022Y-23095656D02*
X6993546Y-23114703D01*
X6993546Y-23114703D02*
X6993546Y-23171846D01*
X6993546Y-23171846D02*
X6984022Y-23190894D01*
X6984022Y-23190894D02*
X6974498Y-23200418D01*
X6974498Y-23200418D02*
X6955451Y-23209942D01*
X6955451Y-23209942D02*
X6926879Y-23209942D01*
X7050689Y-23076608D02*
X7126879Y-23076608D01*
X7079260Y-23009942D02*
X7079260Y-23181370D01*
X7079260Y-23181370D02*
X7088784Y-23200418D01*
X7088784Y-23200418D02*
X7107832Y-23209942D01*
X7107832Y-23209942D02*
X7126879Y-23209942D01*
X7345927Y-23076608D02*
X7345927Y-23276608D01*
X7345927Y-23086132D02*
X7364975Y-23076608D01*
X7364975Y-23076608D02*
X7403070Y-23076608D01*
X7403070Y-23076608D02*
X7422118Y-23086132D01*
X7422118Y-23086132D02*
X7431641Y-23095656D01*
X7431641Y-23095656D02*
X7441165Y-23114703D01*
X7441165Y-23114703D02*
X7441165Y-23171846D01*
X7441165Y-23171846D02*
X7431641Y-23190894D01*
X7431641Y-23190894D02*
X7422118Y-23200418D01*
X7422118Y-23200418D02*
X7403070Y-23209942D01*
X7403070Y-23209942D02*
X7364975Y-23209942D01*
X7364975Y-23209942D02*
X7345927Y-23200418D01*
X7555451Y-23209942D02*
X7536403Y-23200418D01*
X7536403Y-23200418D02*
X7526879Y-23181370D01*
X7526879Y-23181370D02*
X7526879Y-23009942D01*
X7717356Y-23209942D02*
X7717356Y-23105180D01*
X7717356Y-23105180D02*
X7707832Y-23086132D01*
X7707832Y-23086132D02*
X7688784Y-23076608D01*
X7688784Y-23076608D02*
X7650689Y-23076608D01*
X7650689Y-23076608D02*
X7631641Y-23086132D01*
X7717356Y-23200418D02*
X7698308Y-23209942D01*
X7698308Y-23209942D02*
X7650689Y-23209942D01*
X7650689Y-23209942D02*
X7631641Y-23200418D01*
X7631641Y-23200418D02*
X7622118Y-23181370D01*
X7622118Y-23181370D02*
X7622118Y-23162322D01*
X7622118Y-23162322D02*
X7631641Y-23143275D01*
X7631641Y-23143275D02*
X7650689Y-23133751D01*
X7650689Y-23133751D02*
X7698308Y-23133751D01*
X7698308Y-23133751D02*
X7717356Y-23124227D01*
X7784022Y-23076608D02*
X7860213Y-23076608D01*
X7812594Y-23009942D02*
X7812594Y-23181370D01*
X7812594Y-23181370D02*
X7822118Y-23200418D01*
X7822118Y-23200418D02*
X7841165Y-23209942D01*
X7841165Y-23209942D02*
X7860213Y-23209942D01*
X8003070Y-23200418D02*
X7984022Y-23209942D01*
X7984022Y-23209942D02*
X7945927Y-23209942D01*
X7945927Y-23209942D02*
X7926879Y-23200418D01*
X7926879Y-23200418D02*
X7917356Y-23181370D01*
X7917356Y-23181370D02*
X7917356Y-23105180D01*
X7917356Y-23105180D02*
X7926879Y-23086132D01*
X7926879Y-23086132D02*
X7945927Y-23076608D01*
X7945927Y-23076608D02*
X7984022Y-23076608D01*
X7984022Y-23076608D02*
X8003070Y-23086132D01*
X8003070Y-23086132D02*
X8012594Y-23105180D01*
X8012594Y-23105180D02*
X8012594Y-23124227D01*
X8012594Y-23124227D02*
X7917356Y-23143275D01*
X8184022Y-23209942D02*
X8184022Y-23009942D01*
X8184022Y-23200418D02*
X8164975Y-23209942D01*
X8164975Y-23209942D02*
X8126879Y-23209942D01*
X8126879Y-23209942D02*
X8107832Y-23200418D01*
X8107832Y-23200418D02*
X8098308Y-23190894D01*
X8098308Y-23190894D02*
X8088784Y-23171846D01*
X8088784Y-23171846D02*
X8088784Y-23114703D01*
X8088784Y-23114703D02*
X8098308Y-23095656D01*
X8098308Y-23095656D02*
X8107832Y-23086132D01*
X8107832Y-23086132D02*
X8126879Y-23076608D01*
X8126879Y-23076608D02*
X8164975Y-23076608D01*
X8164975Y-23076608D02*
X8184022Y-23086132D01*
X8260213Y-23286132D02*
X8269737Y-23276608D01*
X8269737Y-23276608D02*
X8288784Y-23248037D01*
X8288784Y-23248037D02*
X8298308Y-23228989D01*
X8298308Y-23228989D02*
X8307832Y-23200418D01*
X8307832Y-23200418D02*
X8317356Y-23152799D01*
X8317356Y-23152799D02*
X8317356Y-23114703D01*
X8317356Y-23114703D02*
X8307832Y-23067084D01*
X8307832Y-23067084D02*
X8298308Y-23038513D01*
X8298308Y-23038513D02*
X8288784Y-23019465D01*
X8288784Y-23019465D02*
X8269737Y-22990894D01*
X8269737Y-22990894D02*
X8260213Y-22981370D01*
X1093956Y-23509169D02*
X1093956Y-23367746D01*
X952534Y-23367746D01*
X952534Y-23509169D01*
X1093956Y-23509169D01*
X1364974Y-23329942D02*
X1488784Y-23329942D01*
X1488784Y-23329942D02*
X1422117Y-23406132D01*
X1422117Y-23406132D02*
X1450688Y-23406132D01*
X1450688Y-23406132D02*
X1469736Y-23415656D01*
X1469736Y-23415656D02*
X1479260Y-23425180D01*
X1479260Y-23425180D02*
X1488784Y-23444227D01*
X1488784Y-23444227D02*
X1488784Y-23491846D01*
X1488784Y-23491846D02*
X1479260Y-23510894D01*
X1479260Y-23510894D02*
X1469736Y-23520418D01*
X1469736Y-23520418D02*
X1450688Y-23529942D01*
X1450688Y-23529942D02*
X1393546Y-23529942D01*
X1393546Y-23529942D02*
X1374498Y-23520418D01*
X1374498Y-23520418D02*
X1364974Y-23510894D01*
X1574498Y-23510894D02*
X1584022Y-23520418D01*
X1584022Y-23520418D02*
X1574498Y-23529942D01*
X1574498Y-23529942D02*
X1564974Y-23520418D01*
X1564974Y-23520418D02*
X1574498Y-23510894D01*
X1574498Y-23510894D02*
X1574498Y-23529942D01*
X1679260Y-23529942D02*
X1717355Y-23529942D01*
X1717355Y-23529942D02*
X1736403Y-23520418D01*
X1736403Y-23520418D02*
X1745927Y-23510894D01*
X1745927Y-23510894D02*
X1764974Y-23482322D01*
X1764974Y-23482322D02*
X1774498Y-23444227D01*
X1774498Y-23444227D02*
X1774498Y-23368037D01*
X1774498Y-23368037D02*
X1764974Y-23348989D01*
X1764974Y-23348989D02*
X1755450Y-23339465D01*
X1755450Y-23339465D02*
X1736403Y-23329942D01*
X1736403Y-23329942D02*
X1698307Y-23329942D01*
X1698307Y-23329942D02*
X1679260Y-23339465D01*
X1679260Y-23339465D02*
X1669736Y-23348989D01*
X1669736Y-23348989D02*
X1660212Y-23368037D01*
X1660212Y-23368037D02*
X1660212Y-23415656D01*
X1660212Y-23415656D02*
X1669736Y-23434703D01*
X1669736Y-23434703D02*
X1679260Y-23444227D01*
X1679260Y-23444227D02*
X1698307Y-23453751D01*
X1698307Y-23453751D02*
X1736403Y-23453751D01*
X1736403Y-23453751D02*
X1755450Y-23444227D01*
X1755450Y-23444227D02*
X1764974Y-23434703D01*
X1764974Y-23434703D02*
X1774498Y-23415656D01*
X1888784Y-23415656D02*
X1869736Y-23406132D01*
X1869736Y-23406132D02*
X1860212Y-23396608D01*
X1860212Y-23396608D02*
X1850688Y-23377561D01*
X1850688Y-23377561D02*
X1850688Y-23368037D01*
X1850688Y-23368037D02*
X1860212Y-23348989D01*
X1860212Y-23348989D02*
X1869736Y-23339465D01*
X1869736Y-23339465D02*
X1888784Y-23329942D01*
X1888784Y-23329942D02*
X1926879Y-23329942D01*
X1926879Y-23329942D02*
X1945927Y-23339465D01*
X1945927Y-23339465D02*
X1955450Y-23348989D01*
X1955450Y-23348989D02*
X1964974Y-23368037D01*
X1964974Y-23368037D02*
X1964974Y-23377561D01*
X1964974Y-23377561D02*
X1955450Y-23396608D01*
X1955450Y-23396608D02*
X1945927Y-23406132D01*
X1945927Y-23406132D02*
X1926879Y-23415656D01*
X1926879Y-23415656D02*
X1888784Y-23415656D01*
X1888784Y-23415656D02*
X1869736Y-23425180D01*
X1869736Y-23425180D02*
X1860212Y-23434703D01*
X1860212Y-23434703D02*
X1850688Y-23453751D01*
X1850688Y-23453751D02*
X1850688Y-23491846D01*
X1850688Y-23491846D02*
X1860212Y-23510894D01*
X1860212Y-23510894D02*
X1869736Y-23520418D01*
X1869736Y-23520418D02*
X1888784Y-23529942D01*
X1888784Y-23529942D02*
X1926879Y-23529942D01*
X1926879Y-23529942D02*
X1945927Y-23520418D01*
X1945927Y-23520418D02*
X1955450Y-23510894D01*
X1955450Y-23510894D02*
X1964974Y-23491846D01*
X1964974Y-23491846D02*
X1964974Y-23453751D01*
X1964974Y-23453751D02*
X1955450Y-23434703D01*
X1955450Y-23434703D02*
X1945927Y-23425180D01*
X1945927Y-23425180D02*
X1926879Y-23415656D01*
X2079260Y-23415656D02*
X2060212Y-23406132D01*
X2060212Y-23406132D02*
X2050688Y-23396608D01*
X2050688Y-23396608D02*
X2041165Y-23377561D01*
X2041165Y-23377561D02*
X2041165Y-23368037D01*
X2041165Y-23368037D02*
X2050688Y-23348989D01*
X2050688Y-23348989D02*
X2060212Y-23339465D01*
X2060212Y-23339465D02*
X2079260Y-23329942D01*
X2079260Y-23329942D02*
X2117355Y-23329942D01*
X2117355Y-23329942D02*
X2136403Y-23339465D01*
X2136403Y-23339465D02*
X2145927Y-23348989D01*
X2145927Y-23348989D02*
X2155450Y-23368037D01*
X2155450Y-23368037D02*
X2155450Y-23377561D01*
X2155450Y-23377561D02*
X2145927Y-23396608D01*
X2145927Y-23396608D02*
X2136403Y-23406132D01*
X2136403Y-23406132D02*
X2117355Y-23415656D01*
X2117355Y-23415656D02*
X2079260Y-23415656D01*
X2079260Y-23415656D02*
X2060212Y-23425180D01*
X2060212Y-23425180D02*
X2050688Y-23434703D01*
X2050688Y-23434703D02*
X2041165Y-23453751D01*
X2041165Y-23453751D02*
X2041165Y-23491846D01*
X2041165Y-23491846D02*
X2050688Y-23510894D01*
X2050688Y-23510894D02*
X2060212Y-23520418D01*
X2060212Y-23520418D02*
X2079260Y-23529942D01*
X2079260Y-23529942D02*
X2117355Y-23529942D01*
X2117355Y-23529942D02*
X2136403Y-23520418D01*
X2136403Y-23520418D02*
X2145927Y-23510894D01*
X2145927Y-23510894D02*
X2155450Y-23491846D01*
X2155450Y-23491846D02*
X2155450Y-23453751D01*
X2155450Y-23453751D02*
X2145927Y-23434703D01*
X2145927Y-23434703D02*
X2136403Y-23425180D01*
X2136403Y-23425180D02*
X2117355Y-23415656D01*
X2241165Y-23529942D02*
X2241165Y-23396608D01*
X2241165Y-23415656D02*
X2250689Y-23406132D01*
X2250689Y-23406132D02*
X2269736Y-23396608D01*
X2269736Y-23396608D02*
X2298308Y-23396608D01*
X2298308Y-23396608D02*
X2317355Y-23406132D01*
X2317355Y-23406132D02*
X2326879Y-23425180D01*
X2326879Y-23425180D02*
X2326879Y-23529942D01*
X2326879Y-23425180D02*
X2336403Y-23406132D01*
X2336403Y-23406132D02*
X2355450Y-23396608D01*
X2355450Y-23396608D02*
X2384022Y-23396608D01*
X2384022Y-23396608D02*
X2403070Y-23406132D01*
X2403070Y-23406132D02*
X2412593Y-23425180D01*
X2412593Y-23425180D02*
X2412593Y-23529942D01*
X2507831Y-23529942D02*
X2507831Y-23396608D01*
X2507831Y-23415656D02*
X2517355Y-23406132D01*
X2517355Y-23406132D02*
X2536403Y-23396608D01*
X2536403Y-23396608D02*
X2564974Y-23396608D01*
X2564974Y-23396608D02*
X2584022Y-23406132D01*
X2584022Y-23406132D02*
X2593546Y-23425180D01*
X2593546Y-23425180D02*
X2593546Y-23529942D01*
X2593546Y-23425180D02*
X2603070Y-23406132D01*
X2603070Y-23406132D02*
X2622117Y-23396608D01*
X2622117Y-23396608D02*
X2650689Y-23396608D01*
X2650689Y-23396608D02*
X2669736Y-23406132D01*
X2669736Y-23406132D02*
X2679260Y-23425180D01*
X2679260Y-23425180D02*
X2679260Y-23529942D01*
X3069736Y-23320418D02*
X2898308Y-23577561D01*
X3326879Y-23329942D02*
X3345927Y-23329942D01*
X3345927Y-23329942D02*
X3364974Y-23339465D01*
X3364974Y-23339465D02*
X3374498Y-23348989D01*
X3374498Y-23348989D02*
X3384022Y-23368037D01*
X3384022Y-23368037D02*
X3393546Y-23406132D01*
X3393546Y-23406132D02*
X3393546Y-23453751D01*
X3393546Y-23453751D02*
X3384022Y-23491846D01*
X3384022Y-23491846D02*
X3374498Y-23510894D01*
X3374498Y-23510894D02*
X3364974Y-23520418D01*
X3364974Y-23520418D02*
X3345927Y-23529942D01*
X3345927Y-23529942D02*
X3326879Y-23529942D01*
X3326879Y-23529942D02*
X3307831Y-23520418D01*
X3307831Y-23520418D02*
X3298308Y-23510894D01*
X3298308Y-23510894D02*
X3288784Y-23491846D01*
X3288784Y-23491846D02*
X3279260Y-23453751D01*
X3279260Y-23453751D02*
X3279260Y-23406132D01*
X3279260Y-23406132D02*
X3288784Y-23368037D01*
X3288784Y-23368037D02*
X3298308Y-23348989D01*
X3298308Y-23348989D02*
X3307831Y-23339465D01*
X3307831Y-23339465D02*
X3326879Y-23329942D01*
X3479260Y-23510894D02*
X3488784Y-23520418D01*
X3488784Y-23520418D02*
X3479260Y-23529942D01*
X3479260Y-23529942D02*
X3469736Y-23520418D01*
X3469736Y-23520418D02*
X3479260Y-23510894D01*
X3479260Y-23510894D02*
X3479260Y-23529942D01*
X3679260Y-23529942D02*
X3564974Y-23529942D01*
X3622117Y-23529942D02*
X3622117Y-23329942D01*
X3622117Y-23329942D02*
X3603070Y-23358513D01*
X3603070Y-23358513D02*
X3584022Y-23377561D01*
X3584022Y-23377561D02*
X3564974Y-23387084D01*
X3860212Y-23329942D02*
X3764974Y-23329942D01*
X3764974Y-23329942D02*
X3755451Y-23425180D01*
X3755451Y-23425180D02*
X3764974Y-23415656D01*
X3764974Y-23415656D02*
X3784022Y-23406132D01*
X3784022Y-23406132D02*
X3831641Y-23406132D01*
X3831641Y-23406132D02*
X3850689Y-23415656D01*
X3850689Y-23415656D02*
X3860212Y-23425180D01*
X3860212Y-23425180D02*
X3869736Y-23444227D01*
X3869736Y-23444227D02*
X3869736Y-23491846D01*
X3869736Y-23491846D02*
X3860212Y-23510894D01*
X3860212Y-23510894D02*
X3850689Y-23520418D01*
X3850689Y-23520418D02*
X3831641Y-23529942D01*
X3831641Y-23529942D02*
X3784022Y-23529942D01*
X3784022Y-23529942D02*
X3764974Y-23520418D01*
X3764974Y-23520418D02*
X3755451Y-23510894D01*
X3936403Y-23329942D02*
X4069736Y-23329942D01*
X4069736Y-23329942D02*
X3984022Y-23529942D01*
X4184022Y-23329942D02*
X4203070Y-23329942D01*
X4203070Y-23329942D02*
X4222117Y-23339465D01*
X4222117Y-23339465D02*
X4231641Y-23348989D01*
X4231641Y-23348989D02*
X4241165Y-23368037D01*
X4241165Y-23368037D02*
X4250689Y-23406132D01*
X4250689Y-23406132D02*
X4250689Y-23453751D01*
X4250689Y-23453751D02*
X4241165Y-23491846D01*
X4241165Y-23491846D02*
X4231641Y-23510894D01*
X4231641Y-23510894D02*
X4222117Y-23520418D01*
X4222117Y-23520418D02*
X4203070Y-23529942D01*
X4203070Y-23529942D02*
X4184022Y-23529942D01*
X4184022Y-23529942D02*
X4164974Y-23520418D01*
X4164974Y-23520418D02*
X4155451Y-23510894D01*
X4155451Y-23510894D02*
X4145927Y-23491846D01*
X4145927Y-23491846D02*
X4136403Y-23453751D01*
X4136403Y-23453751D02*
X4136403Y-23406132D01*
X4136403Y-23406132D02*
X4145927Y-23368037D01*
X4145927Y-23368037D02*
X4155451Y-23348989D01*
X4155451Y-23348989D02*
X4164974Y-23339465D01*
X4164974Y-23339465D02*
X4184022Y-23329942D01*
X4326879Y-23329942D02*
X4326879Y-23368037D01*
X4403070Y-23329942D02*
X4403070Y-23368037D01*
X4698308Y-23606132D02*
X4688784Y-23596608D01*
X4688784Y-23596608D02*
X4669736Y-23568037D01*
X4669736Y-23568037D02*
X4660213Y-23548989D01*
X4660213Y-23548989D02*
X4650689Y-23520418D01*
X4650689Y-23520418D02*
X4641165Y-23472799D01*
X4641165Y-23472799D02*
X4641165Y-23434703D01*
X4641165Y-23434703D02*
X4650689Y-23387084D01*
X4650689Y-23387084D02*
X4660213Y-23358513D01*
X4660213Y-23358513D02*
X4669736Y-23339465D01*
X4669736Y-23339465D02*
X4688784Y-23310894D01*
X4688784Y-23310894D02*
X4698308Y-23301370D01*
X4755451Y-23329942D02*
X4888784Y-23329942D01*
X4888784Y-23329942D02*
X4803070Y-23529942D01*
X5060213Y-23329942D02*
X4964975Y-23329942D01*
X4964975Y-23329942D02*
X4955451Y-23425180D01*
X4955451Y-23425180D02*
X4964975Y-23415656D01*
X4964975Y-23415656D02*
X4984022Y-23406132D01*
X4984022Y-23406132D02*
X5031641Y-23406132D01*
X5031641Y-23406132D02*
X5050689Y-23415656D01*
X5050689Y-23415656D02*
X5060213Y-23425180D01*
X5060213Y-23425180D02*
X5069736Y-23444227D01*
X5069736Y-23444227D02*
X5069736Y-23491846D01*
X5069736Y-23491846D02*
X5060213Y-23510894D01*
X5060213Y-23510894D02*
X5050689Y-23520418D01*
X5050689Y-23520418D02*
X5031641Y-23529942D01*
X5031641Y-23529942D02*
X4984022Y-23529942D01*
X4984022Y-23529942D02*
X4964975Y-23520418D01*
X4964975Y-23520418D02*
X4955451Y-23510894D01*
X5307832Y-23529942D02*
X5307832Y-23329942D01*
X5393546Y-23529942D02*
X5393546Y-23425180D01*
X5393546Y-23425180D02*
X5384022Y-23406132D01*
X5384022Y-23406132D02*
X5364975Y-23396608D01*
X5364975Y-23396608D02*
X5336403Y-23396608D01*
X5336403Y-23396608D02*
X5317356Y-23406132D01*
X5317356Y-23406132D02*
X5307832Y-23415656D01*
X5517356Y-23529942D02*
X5498308Y-23520418D01*
X5498308Y-23520418D02*
X5488784Y-23510894D01*
X5488784Y-23510894D02*
X5479260Y-23491846D01*
X5479260Y-23491846D02*
X5479260Y-23434703D01*
X5479260Y-23434703D02*
X5488784Y-23415656D01*
X5488784Y-23415656D02*
X5498308Y-23406132D01*
X5498308Y-23406132D02*
X5517356Y-23396608D01*
X5517356Y-23396608D02*
X5545927Y-23396608D01*
X5545927Y-23396608D02*
X5564975Y-23406132D01*
X5564975Y-23406132D02*
X5574498Y-23415656D01*
X5574498Y-23415656D02*
X5584022Y-23434703D01*
X5584022Y-23434703D02*
X5584022Y-23491846D01*
X5584022Y-23491846D02*
X5574498Y-23510894D01*
X5574498Y-23510894D02*
X5564975Y-23520418D01*
X5564975Y-23520418D02*
X5545927Y-23529942D01*
X5545927Y-23529942D02*
X5517356Y-23529942D01*
X5698308Y-23529942D02*
X5679260Y-23520418D01*
X5679260Y-23520418D02*
X5669736Y-23501370D01*
X5669736Y-23501370D02*
X5669736Y-23329942D01*
X5850689Y-23520418D02*
X5831641Y-23529942D01*
X5831641Y-23529942D02*
X5793546Y-23529942D01*
X5793546Y-23529942D02*
X5774498Y-23520418D01*
X5774498Y-23520418D02*
X5764975Y-23501370D01*
X5764975Y-23501370D02*
X5764975Y-23425180D01*
X5764975Y-23425180D02*
X5774498Y-23406132D01*
X5774498Y-23406132D02*
X5793546Y-23396608D01*
X5793546Y-23396608D02*
X5831641Y-23396608D01*
X5831641Y-23396608D02*
X5850689Y-23406132D01*
X5850689Y-23406132D02*
X5860213Y-23425180D01*
X5860213Y-23425180D02*
X5860213Y-23444227D01*
X5860213Y-23444227D02*
X5764975Y-23463275D01*
X5936403Y-23520418D02*
X5955451Y-23529942D01*
X5955451Y-23529942D02*
X5993546Y-23529942D01*
X5993546Y-23529942D02*
X6012594Y-23520418D01*
X6012594Y-23520418D02*
X6022117Y-23501370D01*
X6022117Y-23501370D02*
X6022117Y-23491846D01*
X6022117Y-23491846D02*
X6012594Y-23472799D01*
X6012594Y-23472799D02*
X5993546Y-23463275D01*
X5993546Y-23463275D02*
X5964975Y-23463275D01*
X5964975Y-23463275D02*
X5945927Y-23453751D01*
X5945927Y-23453751D02*
X5936403Y-23434703D01*
X5936403Y-23434703D02*
X5936403Y-23425180D01*
X5936403Y-23425180D02*
X5945927Y-23406132D01*
X5945927Y-23406132D02*
X5964975Y-23396608D01*
X5964975Y-23396608D02*
X5993546Y-23396608D01*
X5993546Y-23396608D02*
X6012594Y-23406132D01*
X6088784Y-23606132D02*
X6098308Y-23596608D01*
X6098308Y-23596608D02*
X6117356Y-23568037D01*
X6117356Y-23568037D02*
X6126879Y-23548989D01*
X6126879Y-23548989D02*
X6136403Y-23520418D01*
X6136403Y-23520418D02*
X6145927Y-23472799D01*
X6145927Y-23472799D02*
X6145927Y-23434703D01*
X6145927Y-23434703D02*
X6136403Y-23387084D01*
X6136403Y-23387084D02*
X6126879Y-23358513D01*
X6126879Y-23358513D02*
X6117356Y-23339465D01*
X6117356Y-23339465D02*
X6098308Y-23310894D01*
X6098308Y-23310894D02*
X6088784Y-23301370D01*
X6450689Y-23606132D02*
X6441165Y-23596608D01*
X6441165Y-23596608D02*
X6422117Y-23568037D01*
X6422117Y-23568037D02*
X6412594Y-23548989D01*
X6412594Y-23548989D02*
X6403070Y-23520418D01*
X6403070Y-23520418D02*
X6393546Y-23472799D01*
X6393546Y-23472799D02*
X6393546Y-23434703D01*
X6393546Y-23434703D02*
X6403070Y-23387084D01*
X6403070Y-23387084D02*
X6412594Y-23358513D01*
X6412594Y-23358513D02*
X6422117Y-23339465D01*
X6422117Y-23339465D02*
X6441165Y-23310894D01*
X6441165Y-23310894D02*
X6450689Y-23301370D01*
X6526879Y-23396608D02*
X6526879Y-23529942D01*
X6526879Y-23415656D02*
X6536403Y-23406132D01*
X6536403Y-23406132D02*
X6555451Y-23396608D01*
X6555451Y-23396608D02*
X6584022Y-23396608D01*
X6584022Y-23396608D02*
X6603070Y-23406132D01*
X6603070Y-23406132D02*
X6612594Y-23425180D01*
X6612594Y-23425180D02*
X6612594Y-23529942D01*
X6736403Y-23529942D02*
X6717356Y-23520418D01*
X6717356Y-23520418D02*
X6707832Y-23510894D01*
X6707832Y-23510894D02*
X6698308Y-23491846D01*
X6698308Y-23491846D02*
X6698308Y-23434703D01*
X6698308Y-23434703D02*
X6707832Y-23415656D01*
X6707832Y-23415656D02*
X6717356Y-23406132D01*
X6717356Y-23406132D02*
X6736403Y-23396608D01*
X6736403Y-23396608D02*
X6764975Y-23396608D01*
X6764975Y-23396608D02*
X6784022Y-23406132D01*
X6784022Y-23406132D02*
X6793546Y-23415656D01*
X6793546Y-23415656D02*
X6803070Y-23434703D01*
X6803070Y-23434703D02*
X6803070Y-23491846D01*
X6803070Y-23491846D02*
X6793546Y-23510894D01*
X6793546Y-23510894D02*
X6784022Y-23520418D01*
X6784022Y-23520418D02*
X6764975Y-23529942D01*
X6764975Y-23529942D02*
X6736403Y-23529942D01*
X6860213Y-23396608D02*
X6936403Y-23396608D01*
X6888784Y-23329942D02*
X6888784Y-23501370D01*
X6888784Y-23501370D02*
X6898308Y-23520418D01*
X6898308Y-23520418D02*
X6917356Y-23529942D01*
X6917356Y-23529942D02*
X6936403Y-23529942D01*
X7155451Y-23396608D02*
X7155451Y-23596608D01*
X7155451Y-23406132D02*
X7174498Y-23396608D01*
X7174498Y-23396608D02*
X7212594Y-23396608D01*
X7212594Y-23396608D02*
X7231641Y-23406132D01*
X7231641Y-23406132D02*
X7241165Y-23415656D01*
X7241165Y-23415656D02*
X7250689Y-23434703D01*
X7250689Y-23434703D02*
X7250689Y-23491846D01*
X7250689Y-23491846D02*
X7241165Y-23510894D01*
X7241165Y-23510894D02*
X7231641Y-23520418D01*
X7231641Y-23520418D02*
X7212594Y-23529942D01*
X7212594Y-23529942D02*
X7174498Y-23529942D01*
X7174498Y-23529942D02*
X7155451Y-23520418D01*
X7364975Y-23529942D02*
X7345927Y-23520418D01*
X7345927Y-23520418D02*
X7336403Y-23501370D01*
X7336403Y-23501370D02*
X7336403Y-23329942D01*
X7526879Y-23529942D02*
X7526879Y-23425180D01*
X7526879Y-23425180D02*
X7517356Y-23406132D01*
X7517356Y-23406132D02*
X7498308Y-23396608D01*
X7498308Y-23396608D02*
X7460213Y-23396608D01*
X7460213Y-23396608D02*
X7441165Y-23406132D01*
X7526879Y-23520418D02*
X7507832Y-23529942D01*
X7507832Y-23529942D02*
X7460213Y-23529942D01*
X7460213Y-23529942D02*
X7441165Y-23520418D01*
X7441165Y-23520418D02*
X7431641Y-23501370D01*
X7431641Y-23501370D02*
X7431641Y-23482322D01*
X7431641Y-23482322D02*
X7441165Y-23463275D01*
X7441165Y-23463275D02*
X7460213Y-23453751D01*
X7460213Y-23453751D02*
X7507832Y-23453751D01*
X7507832Y-23453751D02*
X7526879Y-23444227D01*
X7593546Y-23396608D02*
X7669737Y-23396608D01*
X7622118Y-23329942D02*
X7622118Y-23501370D01*
X7622118Y-23501370D02*
X7631641Y-23520418D01*
X7631641Y-23520418D02*
X7650689Y-23529942D01*
X7650689Y-23529942D02*
X7669737Y-23529942D01*
X7812594Y-23520418D02*
X7793546Y-23529942D01*
X7793546Y-23529942D02*
X7755451Y-23529942D01*
X7755451Y-23529942D02*
X7736403Y-23520418D01*
X7736403Y-23520418D02*
X7726879Y-23501370D01*
X7726879Y-23501370D02*
X7726879Y-23425180D01*
X7726879Y-23425180D02*
X7736403Y-23406132D01*
X7736403Y-23406132D02*
X7755451Y-23396608D01*
X7755451Y-23396608D02*
X7793546Y-23396608D01*
X7793546Y-23396608D02*
X7812594Y-23406132D01*
X7812594Y-23406132D02*
X7822118Y-23425180D01*
X7822118Y-23425180D02*
X7822118Y-23444227D01*
X7822118Y-23444227D02*
X7726879Y-23463275D01*
X7993546Y-23529942D02*
X7993546Y-23329942D01*
X7993546Y-23520418D02*
X7974499Y-23529942D01*
X7974499Y-23529942D02*
X7936403Y-23529942D01*
X7936403Y-23529942D02*
X7917356Y-23520418D01*
X7917356Y-23520418D02*
X7907832Y-23510894D01*
X7907832Y-23510894D02*
X7898308Y-23491846D01*
X7898308Y-23491846D02*
X7898308Y-23434703D01*
X7898308Y-23434703D02*
X7907832Y-23415656D01*
X7907832Y-23415656D02*
X7917356Y-23406132D01*
X7917356Y-23406132D02*
X7936403Y-23396608D01*
X7936403Y-23396608D02*
X7974499Y-23396608D01*
X7974499Y-23396608D02*
X7993546Y-23406132D01*
X8069737Y-23606132D02*
X8079260Y-23596608D01*
X8079260Y-23596608D02*
X8098308Y-23568037D01*
X8098308Y-23568037D02*
X8107832Y-23548989D01*
X8107832Y-23548989D02*
X8117356Y-23520418D01*
X8117356Y-23520418D02*
X8126879Y-23472799D01*
X8126879Y-23472799D02*
X8126879Y-23434703D01*
X8126879Y-23434703D02*
X8117356Y-23387084D01*
X8117356Y-23387084D02*
X8107832Y-23358513D01*
X8107832Y-23358513D02*
X8098308Y-23339465D01*
X8098308Y-23339465D02*
X8079260Y-23310894D01*
X8079260Y-23310894D02*
X8069737Y-23301370D01*
M02*
