%TF.GenerationSoftware,KiCad,Pcbnew,8.0.6*%
%TF.CreationDate,2024-10-28T13:21:29+01:00*%
%TF.ProjectId,pteranodon,70746572-616e-46f6-946f-6e2e6b696361,rev?*%
%TF.SameCoordinates,Original*%
%TF.FileFunction,Drillmap*%
%TF.FilePolarity,Positive*%
%FSLAX45Y45*%
G04 Gerber Fmt 4.5, Leading zero omitted, Abs format (unit mm)*
G04 Created by KiCad (PCBNEW 8.0.6) date 2024-10-28 13:21:29*
%MOMM*%
%LPD*%
G01*
G04 APERTURE LIST*
%ADD10C,0.200000*%
%ADD11C,0.100000*%
%ADD12C,0.109220*%
%ADD13C,0.220000*%
G04 APERTURE END LIST*
D10*
X27694138Y-11524378D02*
X37780750Y-8440391D01*
X1345539Y-17525286D02*
G75*
G02*
X1146352Y-17150681I87713J286898D01*
G01*
X3748467Y-8639571D02*
G75*
G02*
X4123070Y-8440391I286886J-87701D01*
G01*
X40757461Y-17150683D02*
G75*
G02*
X40558282Y-17525288I-286889J-87715D01*
G01*
X38155353Y-8639571D02*
X40757461Y-17150683D01*
X20037512Y-9234978D02*
X21866312Y-9234978D01*
X37780750Y-8440391D02*
G75*
G02*
X38155357Y-8639570I87712J-286897D01*
G01*
X21866312Y-9234978D02*
X23132434Y-11389485D01*
X20037512Y-9234978D02*
X18778419Y-11388887D01*
X14292120Y-11537488D02*
X18519424Y-11537488D01*
X40558281Y-17525286D02*
X26262129Y-21895174D01*
X14292120Y-11537488D02*
G75*
G02*
X14204362Y-11524365I2J300000D01*
G01*
X4123070Y-8440391D02*
X14204362Y-11524365D01*
X1345539Y-17525286D02*
X15635375Y-21895163D01*
X18778419Y-11388887D02*
G75*
G02*
X18519424Y-11537490I-258997J151399D01*
G01*
X26174433Y-21908278D02*
X15723105Y-21908278D01*
X15723105Y-21908278D02*
G75*
G02*
X15635375Y-21895162I-3J299950D01*
G01*
X26262129Y-21895174D02*
G75*
G02*
X26174433Y-21908278I-87697J286897D01*
G01*
X23391079Y-11537489D02*
G75*
G02*
X23132431Y-11389486I4J300011D01*
G01*
X1146359Y-17150683D02*
X3748467Y-8639571D01*
X27606422Y-11537488D02*
X23391079Y-11537489D01*
X27694138Y-11524378D02*
G75*
G02*
X27606422Y-11537488I-87717J286890D01*
G01*
D11*
X14474952Y-11880767D02*
X14514952Y-11920767D01*
X14514952Y-11880767D02*
X14474952Y-11920767D01*
X17482452Y-19778978D02*
X17522452Y-19818978D01*
X17522452Y-19778978D02*
X17482452Y-19818978D01*
X19029952Y-21735978D02*
X19069952Y-21775978D01*
X19069952Y-21735978D02*
X19029952Y-21775978D01*
X19389452Y-19936978D02*
X19429452Y-19976978D01*
X19429452Y-19936978D02*
X19389452Y-19976978D01*
X19393452Y-17999978D02*
X19433452Y-18039978D01*
X19433452Y-17999978D02*
X19393452Y-18039978D01*
X20889952Y-21808478D02*
X20929952Y-21848478D01*
X20929952Y-21808478D02*
X20889952Y-21848478D01*
X21298452Y-21807978D02*
X21338452Y-21847978D01*
X21338452Y-21807978D02*
X21298452Y-21847978D01*
X21382000Y-18001000D02*
X21422000Y-18041000D01*
X21422000Y-18001000D02*
X21382000Y-18041000D01*
X21393000Y-19863000D02*
X21433000Y-19903000D01*
X21433000Y-19863000D02*
X21393000Y-19903000D01*
X23209452Y-21735978D02*
X23249452Y-21775978D01*
X23249452Y-21735978D02*
X23209452Y-21775978D01*
X23211452Y-17926478D02*
X23251452Y-17966478D01*
X23251452Y-17926478D02*
X23211452Y-17966478D01*
X23224452Y-19780978D02*
X23264452Y-19820978D01*
X23264452Y-19780978D02*
X23224452Y-19820978D01*
X27422452Y-11878478D02*
X27462452Y-11918478D01*
X27462452Y-11878478D02*
X27422452Y-11918478D01*
X29064952Y-20640978D02*
X29104952Y-20680978D01*
X29104952Y-20640978D02*
X29064952Y-20680978D01*
X29449952Y-19255978D02*
X29489952Y-19295978D01*
X29489952Y-19255978D02*
X29449952Y-19295978D01*
X2094957Y-15779561D02*
G75*
G02*
X2014957Y-15779561I-40000J0D01*
G01*
X2014957Y-15779561D02*
G75*
G02*
X2094957Y-15779561I40000J0D01*
G01*
X2646370Y-13975970D02*
G75*
G02*
X2566370Y-13975970I-40000J0D01*
G01*
X2566370Y-13975970D02*
G75*
G02*
X2646370Y-13975970I40000J0D01*
G01*
X2823661Y-16002348D02*
G75*
G02*
X2743661Y-16002348I-40000J0D01*
G01*
X2743661Y-16002348D02*
G75*
G02*
X2823661Y-16002348I40000J0D01*
G01*
X2965210Y-17502273D02*
G75*
G02*
X2885210Y-17502273I-40000J0D01*
G01*
X2885210Y-17502273D02*
G75*
G02*
X2965210Y-17502273I40000J0D01*
G01*
X3186673Y-12208719D02*
G75*
G02*
X3106673Y-12208719I-40000J0D01*
G01*
X3106673Y-12208719D02*
G75*
G02*
X3186673Y-12208719I40000J0D01*
G01*
X3187998Y-16773569D02*
G75*
G02*
X3107998Y-16773569I-40000J0D01*
G01*
X3107998Y-16773569D02*
G75*
G02*
X3187998Y-16773569I40000J0D01*
G01*
X3375074Y-14198758D02*
G75*
G02*
X3295074Y-14198758I-40000J0D01*
G01*
X3295074Y-14198758D02*
G75*
G02*
X3375074Y-14198758I40000J0D01*
G01*
X3519912Y-15687924D02*
G75*
G02*
X3439912Y-15687924I-40000J0D01*
G01*
X3439912Y-15687924D02*
G75*
G02*
X3519912Y-15687924I40000J0D01*
G01*
X3740534Y-10397120D02*
G75*
G02*
X3660534Y-10397120I-40000J0D01*
G01*
X3660534Y-10397120D02*
G75*
G02*
X3740534Y-10397120I40000J0D01*
G01*
X3742700Y-14959220D02*
G75*
G02*
X3662700Y-14959220I-40000J0D01*
G01*
X3662700Y-14959220D02*
G75*
G02*
X3742700Y-14959220I40000J0D01*
G01*
X3915377Y-12431506D02*
G75*
G02*
X3835377Y-12431506I-40000J0D01*
G01*
X3835377Y-12431506D02*
G75*
G02*
X3915377Y-12431506I40000J0D01*
G01*
X3921307Y-16337933D02*
G75*
G02*
X3841307Y-16337933I-40000J0D01*
G01*
X3841307Y-16337933D02*
G75*
G02*
X3921307Y-16337933I40000J0D01*
G01*
X4074615Y-13873575D02*
G75*
G02*
X3994615Y-13873575I-40000J0D01*
G01*
X3994615Y-13873575D02*
G75*
G02*
X4074615Y-13873575I40000J0D01*
G01*
X4297402Y-13144870D02*
G75*
G02*
X4217402Y-13144870I-40000J0D01*
G01*
X4217402Y-13144870D02*
G75*
G02*
X4297402Y-13144870I40000J0D01*
G01*
X4469239Y-10619907D02*
G75*
G02*
X4389239Y-10619907I-40000J0D01*
G01*
X4389239Y-10619907D02*
G75*
G02*
X4469239Y-10619907I40000J0D01*
G01*
X4629317Y-12059225D02*
G75*
G02*
X4549317Y-12059225I-40000J0D01*
G01*
X4549317Y-12059225D02*
G75*
G02*
X4629317Y-12059225I40000J0D01*
G01*
X4650011Y-16560720D02*
G75*
G02*
X4570011Y-16560720I-40000J0D01*
G01*
X4570011Y-16560720D02*
G75*
G02*
X4650011Y-16560720I40000J0D01*
G01*
X4791561Y-18060645D02*
G75*
G02*
X4711561Y-18060645I-40000J0D01*
G01*
X4711561Y-18060645D02*
G75*
G02*
X4791561Y-18060645I40000J0D01*
G01*
X4852104Y-11330521D02*
G75*
G02*
X4772104Y-11330521I-40000J0D01*
G01*
X4772104Y-11330521D02*
G75*
G02*
X4852104Y-11330521I40000J0D01*
G01*
X5014349Y-17331940D02*
G75*
G02*
X4934349Y-17331940I-40000J0D01*
G01*
X4934349Y-17331940D02*
G75*
G02*
X5014349Y-17331940I40000J0D01*
G01*
X5184019Y-10244876D02*
G75*
G02*
X5104019Y-10244876I-40000J0D01*
G01*
X5104019Y-10244876D02*
G75*
G02*
X5184019Y-10244876I40000J0D01*
G01*
X5346264Y-16246295D02*
G75*
G02*
X5266264Y-16246295I-40000J0D01*
G01*
X5266264Y-16246295D02*
G75*
G02*
X5346264Y-16246295I40000J0D01*
G01*
X5406807Y-9516172D02*
G75*
G02*
X5326807Y-9516172I-40000J0D01*
G01*
X5326807Y-9516172D02*
G75*
G02*
X5406807Y-9516172I40000J0D01*
G01*
X5569051Y-15517591D02*
G75*
G02*
X5489051Y-15517591I-40000J0D01*
G01*
X5489051Y-15517591D02*
G75*
G02*
X5569051Y-15517591I40000J0D01*
G01*
X5900966Y-14431946D02*
G75*
G02*
X5820966Y-14431946I-40000J0D01*
G01*
X5820966Y-14431946D02*
G75*
G02*
X5900966Y-14431946I40000J0D01*
G01*
X6123753Y-13703242D02*
G75*
G02*
X6043753Y-13703242I-40000J0D01*
G01*
X6043753Y-13703242D02*
G75*
G02*
X6123753Y-13703242I40000J0D01*
G01*
X6455668Y-12617597D02*
G75*
G02*
X6375668Y-12617597I-40000J0D01*
G01*
X6375668Y-12617597D02*
G75*
G02*
X6455668Y-12617597I40000J0D01*
G01*
X6617912Y-18619016D02*
G75*
G02*
X6537912Y-18619016I-40000J0D01*
G01*
X6537912Y-18619016D02*
G75*
G02*
X6617912Y-18619016I40000J0D01*
G01*
X6678455Y-11888893D02*
G75*
G02*
X6598455Y-11888893I-40000J0D01*
G01*
X6598455Y-11888893D02*
G75*
G02*
X6678455Y-11888893I40000J0D01*
G01*
X6840699Y-17890312D02*
G75*
G02*
X6760699Y-17890312I-40000J0D01*
G01*
X6760699Y-17890312D02*
G75*
G02*
X6840699Y-17890312I40000J0D01*
G01*
X7010370Y-10803248D02*
G75*
G02*
X6930370Y-10803248I-40000J0D01*
G01*
X6930370Y-10803248D02*
G75*
G02*
X7010370Y-10803248I40000J0D01*
G01*
X7172614Y-16804667D02*
G75*
G02*
X7092614Y-16804667I-40000J0D01*
G01*
X7092614Y-16804667D02*
G75*
G02*
X7172614Y-16804667I40000J0D01*
G01*
X7233157Y-10074544D02*
G75*
G02*
X7153157Y-10074544I-40000J0D01*
G01*
X7153157Y-10074544D02*
G75*
G02*
X7233157Y-10074544I40000J0D01*
G01*
X7395401Y-16075963D02*
G75*
G02*
X7315401Y-16075963I-40000J0D01*
G01*
X7315401Y-16075963D02*
G75*
G02*
X7395401Y-16075963I40000J0D01*
G01*
X7727316Y-14990318D02*
G75*
G02*
X7647316Y-14990318I-40000J0D01*
G01*
X7647316Y-14990318D02*
G75*
G02*
X7727316Y-14990318I40000J0D01*
G01*
X7950104Y-14261613D02*
G75*
G02*
X7870104Y-14261613I-40000J0D01*
G01*
X7870104Y-14261613D02*
G75*
G02*
X7950104Y-14261613I40000J0D01*
G01*
X8282019Y-13175968D02*
G75*
G02*
X8202019Y-13175968I-40000J0D01*
G01*
X8202019Y-13175968D02*
G75*
G02*
X8282019Y-13175968I40000J0D01*
G01*
X8444263Y-19177388D02*
G75*
G02*
X8364263Y-19177388I-40000J0D01*
G01*
X8364263Y-19177388D02*
G75*
G02*
X8444263Y-19177388I40000J0D01*
G01*
X8504806Y-12447264D02*
G75*
G02*
X8424806Y-12447264I-40000J0D01*
G01*
X8424806Y-12447264D02*
G75*
G02*
X8504806Y-12447264I40000J0D01*
G01*
X8667050Y-18448683D02*
G75*
G02*
X8587050Y-18448683I-40000J0D01*
G01*
X8587050Y-18448683D02*
G75*
G02*
X8667050Y-18448683I40000J0D01*
G01*
X8836721Y-11361619D02*
G75*
G02*
X8756721Y-11361619I-40000J0D01*
G01*
X8756721Y-11361619D02*
G75*
G02*
X8836721Y-11361619I40000J0D01*
G01*
X8998965Y-17363038D02*
G75*
G02*
X8918965Y-17363038I-40000J0D01*
G01*
X8918965Y-17363038D02*
G75*
G02*
X8998965Y-17363038I40000J0D01*
G01*
X9059508Y-10632915D02*
G75*
G02*
X8979508Y-10632915I-40000J0D01*
G01*
X8979508Y-10632915D02*
G75*
G02*
X9059508Y-10632915I40000J0D01*
G01*
X9221752Y-16634334D02*
G75*
G02*
X9141752Y-16634334I-40000J0D01*
G01*
X9141752Y-16634334D02*
G75*
G02*
X9221752Y-16634334I40000J0D01*
G01*
X9553667Y-15548689D02*
G75*
G02*
X9473667Y-15548689I-40000J0D01*
G01*
X9473667Y-15548689D02*
G75*
G02*
X9553667Y-15548689I40000J0D01*
G01*
X9776454Y-14819985D02*
G75*
G02*
X9696454Y-14819985I-40000J0D01*
G01*
X9696454Y-14819985D02*
G75*
G02*
X9776454Y-14819985I40000J0D01*
G01*
X10108370Y-13734340D02*
G75*
G02*
X10028370Y-13734340I-40000J0D01*
G01*
X10028370Y-13734340D02*
G75*
G02*
X10108370Y-13734340I40000J0D01*
G01*
X10270614Y-19735759D02*
G75*
G02*
X10190614Y-19735759I-40000J0D01*
G01*
X10190614Y-19735759D02*
G75*
G02*
X10270614Y-19735759I40000J0D01*
G01*
X10331157Y-13005636D02*
G75*
G02*
X10251157Y-13005636I-40000J0D01*
G01*
X10251157Y-13005636D02*
G75*
G02*
X10331157Y-13005636I40000J0D01*
G01*
X10493401Y-19007055D02*
G75*
G02*
X10413401Y-19007055I-40000J0D01*
G01*
X10413401Y-19007055D02*
G75*
G02*
X10493401Y-19007055I40000J0D01*
G01*
X10663072Y-11919991D02*
G75*
G02*
X10583072Y-11919991I-40000J0D01*
G01*
X10583072Y-11919991D02*
G75*
G02*
X10663072Y-11919991I40000J0D01*
G01*
X10825316Y-17921410D02*
G75*
G02*
X10745316Y-17921410I-40000J0D01*
G01*
X10745316Y-17921410D02*
G75*
G02*
X10825316Y-17921410I40000J0D01*
G01*
X10885859Y-11191287D02*
G75*
G02*
X10805859Y-11191287I-40000J0D01*
G01*
X10805859Y-11191287D02*
G75*
G02*
X10885859Y-11191287I40000J0D01*
G01*
X11048103Y-17192706D02*
G75*
G02*
X10968103Y-17192706I-40000J0D01*
G01*
X10968103Y-17192706D02*
G75*
G02*
X11048103Y-17192706I40000J0D01*
G01*
X11380018Y-16107061D02*
G75*
G02*
X11300018Y-16107061I-40000J0D01*
G01*
X11300018Y-16107061D02*
G75*
G02*
X11380018Y-16107061I40000J0D01*
G01*
X11602805Y-15378356D02*
G75*
G02*
X11522805Y-15378356I-40000J0D01*
G01*
X11522805Y-15378356D02*
G75*
G02*
X11602805Y-15378356I40000J0D01*
G01*
X11934720Y-14292711D02*
G75*
G02*
X11854720Y-14292711I-40000J0D01*
G01*
X11854720Y-14292711D02*
G75*
G02*
X11934720Y-14292711I40000J0D01*
G01*
X12088931Y-20291675D02*
G75*
G02*
X12008931Y-20291675I-40000J0D01*
G01*
X12008931Y-20291675D02*
G75*
G02*
X12088931Y-20291675I40000J0D01*
G01*
X12157508Y-13564007D02*
G75*
G02*
X12077508Y-13564007I-40000J0D01*
G01*
X12077508Y-13564007D02*
G75*
G02*
X12157508Y-13564007I40000J0D01*
G01*
X12311719Y-19562971D02*
G75*
G02*
X12231719Y-19562971I-40000J0D01*
G01*
X12231719Y-19562971D02*
G75*
G02*
X12311719Y-19562971I40000J0D01*
G01*
X12489423Y-12478362D02*
G75*
G02*
X12409423Y-12478362I-40000J0D01*
G01*
X12409423Y-12478362D02*
G75*
G02*
X12489423Y-12478362I40000J0D01*
G01*
X12643634Y-18477325D02*
G75*
G02*
X12563634Y-18477325I-40000J0D01*
G01*
X12563634Y-18477325D02*
G75*
G02*
X12643634Y-18477325I40000J0D01*
G01*
X12712210Y-11749658D02*
G75*
G02*
X12632210Y-11749658I-40000J0D01*
G01*
X12632210Y-11749658D02*
G75*
G02*
X12712210Y-11749658I40000J0D01*
G01*
X12866421Y-17748621D02*
G75*
G02*
X12786421Y-17748621I-40000J0D01*
G01*
X12786421Y-17748621D02*
G75*
G02*
X12866421Y-17748621I40000J0D01*
G01*
X18537190Y-13704978D02*
G75*
G02*
X18457190Y-13704978I-40000J0D01*
G01*
X18457190Y-13704978D02*
G75*
G02*
X18537190Y-13704978I40000J0D01*
G01*
X18537190Y-14466978D02*
G75*
G02*
X18457190Y-14466978I-40000J0D01*
G01*
X18457190Y-14466978D02*
G75*
G02*
X18537190Y-14466978I40000J0D01*
G01*
X18983553Y-13704978D02*
G75*
G02*
X18903553Y-13704978I-40000J0D01*
G01*
X18903553Y-13704978D02*
G75*
G02*
X18983553Y-13704978I40000J0D01*
G01*
X18983553Y-14466978D02*
G75*
G02*
X18903553Y-14466978I-40000J0D01*
G01*
X18903553Y-14466978D02*
G75*
G02*
X18983553Y-14466978I40000J0D01*
G01*
X19429917Y-13704978D02*
G75*
G02*
X19349917Y-13704978I-40000J0D01*
G01*
X19349917Y-13704978D02*
G75*
G02*
X19429917Y-13704978I40000J0D01*
G01*
X19429917Y-14466978D02*
G75*
G02*
X19349917Y-14466978I-40000J0D01*
G01*
X19349917Y-14466978D02*
G75*
G02*
X19429917Y-14466978I40000J0D01*
G01*
X19876281Y-13704978D02*
G75*
G02*
X19796281Y-13704978I-40000J0D01*
G01*
X19796281Y-13704978D02*
G75*
G02*
X19876281Y-13704978I40000J0D01*
G01*
X19876281Y-14466978D02*
G75*
G02*
X19796281Y-14466978I-40000J0D01*
G01*
X19796281Y-14466978D02*
G75*
G02*
X19876281Y-14466978I40000J0D01*
G01*
X20322644Y-13704978D02*
G75*
G02*
X20242644Y-13704978I-40000J0D01*
G01*
X20242644Y-13704978D02*
G75*
G02*
X20322644Y-13704978I40000J0D01*
G01*
X20322644Y-14466978D02*
G75*
G02*
X20242644Y-14466978I-40000J0D01*
G01*
X20242644Y-14466978D02*
G75*
G02*
X20322644Y-14466978I40000J0D01*
G01*
X20769008Y-13704978D02*
G75*
G02*
X20689008Y-13704978I-40000J0D01*
G01*
X20689008Y-13704978D02*
G75*
G02*
X20769008Y-13704978I40000J0D01*
G01*
X20769008Y-14466978D02*
G75*
G02*
X20689008Y-14466978I-40000J0D01*
G01*
X20689008Y-14466978D02*
G75*
G02*
X20769008Y-14466978I40000J0D01*
G01*
X21215371Y-13704978D02*
G75*
G02*
X21135371Y-13704978I-40000J0D01*
G01*
X21135371Y-13704978D02*
G75*
G02*
X21215371Y-13704978I40000J0D01*
G01*
X21215371Y-14466978D02*
G75*
G02*
X21135371Y-14466978I-40000J0D01*
G01*
X21135371Y-14466978D02*
G75*
G02*
X21215371Y-14466978I40000J0D01*
G01*
X21661735Y-13704978D02*
G75*
G02*
X21581735Y-13704978I-40000J0D01*
G01*
X21581735Y-13704978D02*
G75*
G02*
X21661735Y-13704978I40000J0D01*
G01*
X21661735Y-14466978D02*
G75*
G02*
X21581735Y-14466978I-40000J0D01*
G01*
X21581735Y-14466978D02*
G75*
G02*
X21661735Y-14466978I40000J0D01*
G01*
X22108099Y-13704978D02*
G75*
G02*
X22028099Y-13704978I-40000J0D01*
G01*
X22028099Y-13704978D02*
G75*
G02*
X22108099Y-13704978I40000J0D01*
G01*
X22108099Y-14466978D02*
G75*
G02*
X22028099Y-14466978I-40000J0D01*
G01*
X22028099Y-14466978D02*
G75*
G02*
X22108099Y-14466978I40000J0D01*
G01*
X22554462Y-13704978D02*
G75*
G02*
X22474462Y-13704978I-40000J0D01*
G01*
X22474462Y-13704978D02*
G75*
G02*
X22554462Y-13704978I40000J0D01*
G01*
X22554462Y-14466978D02*
G75*
G02*
X22474462Y-14466978I-40000J0D01*
G01*
X22474462Y-14466978D02*
G75*
G02*
X22554462Y-14466978I40000J0D01*
G01*
X23000826Y-13704978D02*
G75*
G02*
X22920826Y-13704978I-40000J0D01*
G01*
X22920826Y-13704978D02*
G75*
G02*
X23000826Y-13704978I40000J0D01*
G01*
X23000826Y-14466978D02*
G75*
G02*
X22920826Y-14466978I-40000J0D01*
G01*
X22920826Y-14466978D02*
G75*
G02*
X23000826Y-14466978I40000J0D01*
G01*
X23447190Y-13704978D02*
G75*
G02*
X23367190Y-13704978I-40000J0D01*
G01*
X23367190Y-13704978D02*
G75*
G02*
X23447190Y-13704978I40000J0D01*
G01*
X23447190Y-14466978D02*
G75*
G02*
X23367190Y-14466978I-40000J0D01*
G01*
X23367190Y-14466978D02*
G75*
G02*
X23447190Y-14466978I40000J0D01*
G01*
X28133890Y-19447449D02*
G75*
G02*
X28053890Y-19447449I-40000J0D01*
G01*
X28053890Y-19447449D02*
G75*
G02*
X28133890Y-19447449I40000J0D01*
G01*
X28296134Y-13446030D02*
G75*
G02*
X28216134Y-13446030I-40000J0D01*
G01*
X28216134Y-13446030D02*
G75*
G02*
X28296134Y-13446030I40000J0D01*
G01*
X28850837Y-15260379D02*
G75*
G02*
X28770837Y-15260379I-40000J0D01*
G01*
X28770837Y-15260379D02*
G75*
G02*
X28850837Y-15260379I40000J0D01*
G01*
X28862594Y-19224662D02*
G75*
G02*
X28782594Y-19224662I-40000J0D01*
G01*
X28782594Y-19224662D02*
G75*
G02*
X28862594Y-19224662I40000J0D01*
G01*
X29022673Y-17785343D02*
G75*
G02*
X28942673Y-17785343I-40000J0D01*
G01*
X28942673Y-17785343D02*
G75*
G02*
X29022673Y-17785343I40000J0D01*
G01*
X29024839Y-13223243D02*
G75*
G02*
X28944839Y-13223243I-40000J0D01*
G01*
X28944839Y-13223243D02*
G75*
G02*
X29024839Y-13223243I40000J0D01*
G01*
X29183980Y-11784211D02*
G75*
G02*
X29103980Y-11784211I-40000J0D01*
G01*
X29103980Y-11784211D02*
G75*
G02*
X29183980Y-11784211I40000J0D01*
G01*
X29245460Y-18514047D02*
G75*
G02*
X29165460Y-18514047I-40000J0D01*
G01*
X29165460Y-18514047D02*
G75*
G02*
X29245460Y-18514047I40000J0D01*
G01*
X29405539Y-17074729D02*
G75*
G02*
X29325539Y-17074729I-40000J0D01*
G01*
X29325539Y-17074729D02*
G75*
G02*
X29405539Y-17074729I40000J0D01*
G01*
X29406767Y-12512915D02*
G75*
G02*
X29326767Y-12512915I-40000J0D01*
G01*
X29326767Y-12512915D02*
G75*
G02*
X29406767Y-12512915I40000J0D01*
G01*
X29577375Y-19599692D02*
G75*
G02*
X29497375Y-19599692I-40000J0D01*
G01*
X29497375Y-19599692D02*
G75*
G02*
X29577375Y-19599692I40000J0D01*
G01*
X29579541Y-15037592D02*
G75*
G02*
X29499541Y-15037592I-40000J0D01*
G01*
X29499541Y-15037592D02*
G75*
G02*
X29579541Y-15037592I40000J0D01*
G01*
X29738682Y-13598560D02*
G75*
G02*
X29658682Y-13598560I-40000J0D01*
G01*
X29658682Y-13598560D02*
G75*
G02*
X29738682Y-13598560I40000J0D01*
G01*
X29800162Y-20328396D02*
G75*
G02*
X29720162Y-20328396I-40000J0D01*
G01*
X29720162Y-20328396D02*
G75*
G02*
X29800162Y-20328396I40000J0D01*
G01*
X29960241Y-18889078D02*
G75*
G02*
X29880241Y-18889078I-40000J0D01*
G01*
X29880241Y-18889078D02*
G75*
G02*
X29960241Y-18889078I40000J0D01*
G01*
X29961469Y-14327264D02*
G75*
G02*
X29881469Y-14327264I-40000J0D01*
G01*
X29881469Y-14327264D02*
G75*
G02*
X29961469Y-14327264I40000J0D01*
G01*
X30134243Y-16851941D02*
G75*
G02*
X30054243Y-16851941I-40000J0D01*
G01*
X30054243Y-16851941D02*
G75*
G02*
X30134243Y-16851941I40000J0D01*
G01*
X30293385Y-15412909D02*
G75*
G02*
X30213385Y-15412909I-40000J0D01*
G01*
X30213385Y-15412909D02*
G75*
G02*
X30293385Y-15412909I40000J0D01*
G01*
X30516172Y-16141613D02*
G75*
G02*
X30436172Y-16141613I-40000J0D01*
G01*
X30436172Y-16141613D02*
G75*
G02*
X30516172Y-16141613I40000J0D01*
G01*
X30688945Y-18666291D02*
G75*
G02*
X30608945Y-18666291I-40000J0D01*
G01*
X30608945Y-18666291D02*
G75*
G02*
X30688945Y-18666291I40000J0D01*
G01*
X30848087Y-17227258D02*
G75*
G02*
X30768087Y-17227258I-40000J0D01*
G01*
X30768087Y-17227258D02*
G75*
G02*
X30848087Y-17227258I40000J0D01*
G01*
X31008457Y-11226412D02*
G75*
G02*
X30928457Y-11226412I-40000J0D01*
G01*
X30928457Y-11226412D02*
G75*
G02*
X31008457Y-11226412I40000J0D01*
G01*
X31070874Y-17955962D02*
G75*
G02*
X30990874Y-17955962I-40000J0D01*
G01*
X30990874Y-17955962D02*
G75*
G02*
X31070874Y-17955962I40000J0D01*
G01*
X31231244Y-11955116D02*
G75*
G02*
X31151244Y-11955116I-40000J0D01*
G01*
X31151244Y-11955116D02*
G75*
G02*
X31231244Y-11955116I40000J0D01*
G01*
X31402789Y-19041607D02*
G75*
G02*
X31322789Y-19041607I-40000J0D01*
G01*
X31322789Y-19041607D02*
G75*
G02*
X31402789Y-19041607I40000J0D01*
G01*
X31563159Y-13040761D02*
G75*
G02*
X31483159Y-13040761I-40000J0D01*
G01*
X31483159Y-13040761D02*
G75*
G02*
X31563159Y-13040761I40000J0D01*
G01*
X31625576Y-19770311D02*
G75*
G02*
X31545576Y-19770311I-40000J0D01*
G01*
X31545576Y-19770311D02*
G75*
G02*
X31625576Y-19770311I40000J0D01*
G01*
X31785946Y-13769465D02*
G75*
G02*
X31705946Y-13769465I-40000J0D01*
G01*
X31705946Y-13769465D02*
G75*
G02*
X31785946Y-13769465I40000J0D01*
G01*
X32117861Y-14855110D02*
G75*
G02*
X32037861Y-14855110I-40000J0D01*
G01*
X32037861Y-14855110D02*
G75*
G02*
X32117861Y-14855110I40000J0D01*
G01*
X32340648Y-15583814D02*
G75*
G02*
X32260648Y-15583814I-40000J0D01*
G01*
X32260648Y-15583814D02*
G75*
G02*
X32340648Y-15583814I40000J0D01*
G01*
X32672563Y-16669460D02*
G75*
G02*
X32592563Y-16669460I-40000J0D01*
G01*
X32592563Y-16669460D02*
G75*
G02*
X32672563Y-16669460I40000J0D01*
G01*
X32832933Y-10668614D02*
G75*
G02*
X32752933Y-10668614I-40000J0D01*
G01*
X32752933Y-10668614D02*
G75*
G02*
X32832933Y-10668614I40000J0D01*
G01*
X32895350Y-17398164D02*
G75*
G02*
X32815350Y-17398164I-40000J0D01*
G01*
X32815350Y-17398164D02*
G75*
G02*
X32895350Y-17398164I40000J0D01*
G01*
X33055720Y-11397318D02*
G75*
G02*
X32975720Y-11397318I-40000J0D01*
G01*
X32975720Y-11397318D02*
G75*
G02*
X33055720Y-11397318I40000J0D01*
G01*
X33227265Y-18483809D02*
G75*
G02*
X33147265Y-18483809I-40000J0D01*
G01*
X33147265Y-18483809D02*
G75*
G02*
X33227265Y-18483809I40000J0D01*
G01*
X33387635Y-12482963D02*
G75*
G02*
X33307635Y-12482963I-40000J0D01*
G01*
X33307635Y-12482963D02*
G75*
G02*
X33387635Y-12482963I40000J0D01*
G01*
X33450053Y-19212513D02*
G75*
G02*
X33370053Y-19212513I-40000J0D01*
G01*
X33370053Y-19212513D02*
G75*
G02*
X33450053Y-19212513I40000J0D01*
G01*
X33610423Y-13211667D02*
G75*
G02*
X33530423Y-13211667I-40000J0D01*
G01*
X33530423Y-13211667D02*
G75*
G02*
X33610423Y-13211667I40000J0D01*
G01*
X33942338Y-14297312D02*
G75*
G02*
X33862338Y-14297312I-40000J0D01*
G01*
X33862338Y-14297312D02*
G75*
G02*
X33942338Y-14297312I40000J0D01*
G01*
X34165125Y-15026016D02*
G75*
G02*
X34085125Y-15026016I-40000J0D01*
G01*
X34085125Y-15026016D02*
G75*
G02*
X34165125Y-15026016I40000J0D01*
G01*
X34497040Y-16111661D02*
G75*
G02*
X34417040Y-16111661I-40000J0D01*
G01*
X34417040Y-16111661D02*
G75*
G02*
X34497040Y-16111661I40000J0D01*
G01*
X34657409Y-10110815D02*
G75*
G02*
X34577409Y-10110815I-40000J0D01*
G01*
X34577409Y-10110815D02*
G75*
G02*
X34657409Y-10110815I40000J0D01*
G01*
X34719827Y-16840366D02*
G75*
G02*
X34639827Y-16840366I-40000J0D01*
G01*
X34639827Y-16840366D02*
G75*
G02*
X34719827Y-16840366I40000J0D01*
G01*
X34880197Y-10839520D02*
G75*
G02*
X34800197Y-10839520I-40000J0D01*
G01*
X34800197Y-10839520D02*
G75*
G02*
X34880197Y-10839520I40000J0D01*
G01*
X35051742Y-17926011D02*
G75*
G02*
X34971742Y-17926011I-40000J0D01*
G01*
X34971742Y-17926011D02*
G75*
G02*
X35051742Y-17926011I40000J0D01*
G01*
X35212112Y-11925164D02*
G75*
G02*
X35132112Y-11925164I-40000J0D01*
G01*
X35132112Y-11925164D02*
G75*
G02*
X35212112Y-11925164I40000J0D01*
G01*
X35274529Y-18654715D02*
G75*
G02*
X35194529Y-18654715I-40000J0D01*
G01*
X35194529Y-18654715D02*
G75*
G02*
X35274529Y-18654715I40000J0D01*
G01*
X35434899Y-12653869D02*
G75*
G02*
X35354899Y-12653869I-40000J0D01*
G01*
X35354899Y-12653869D02*
G75*
G02*
X35434899Y-12653869I40000J0D01*
G01*
X35766814Y-13739514D02*
G75*
G02*
X35686814Y-13739514I-40000J0D01*
G01*
X35686814Y-13739514D02*
G75*
G02*
X35766814Y-13739514I40000J0D01*
G01*
X35989601Y-14468218D02*
G75*
G02*
X35909601Y-14468218I-40000J0D01*
G01*
X35909601Y-14468218D02*
G75*
G02*
X35989601Y-14468218I40000J0D01*
G01*
X36321516Y-15553863D02*
G75*
G02*
X36241516Y-15553863I-40000J0D01*
G01*
X36241516Y-15553863D02*
G75*
G02*
X36321516Y-15553863I40000J0D01*
G01*
X36481886Y-9553017D02*
G75*
G02*
X36401886Y-9553017I-40000J0D01*
G01*
X36401886Y-9553017D02*
G75*
G02*
X36481886Y-9553017I40000J0D01*
G01*
X36544303Y-16282567D02*
G75*
G02*
X36464303Y-16282567I-40000J0D01*
G01*
X36464303Y-16282567D02*
G75*
G02*
X36544303Y-16282567I40000J0D01*
G01*
X36704673Y-10281721D02*
G75*
G02*
X36624673Y-10281721I-40000J0D01*
G01*
X36624673Y-10281721D02*
G75*
G02*
X36704673Y-10281721I40000J0D01*
G01*
X36876219Y-17368212D02*
G75*
G02*
X36796219Y-17368212I-40000J0D01*
G01*
X36796219Y-17368212D02*
G75*
G02*
X36876219Y-17368212I40000J0D01*
G01*
X37036588Y-11367366D02*
G75*
G02*
X36956588Y-11367366I-40000J0D01*
G01*
X36956588Y-11367366D02*
G75*
G02*
X37036588Y-11367366I40000J0D01*
G01*
X37099006Y-18096916D02*
G75*
G02*
X37019006Y-18096916I-40000J0D01*
G01*
X37019006Y-18096916D02*
G75*
G02*
X37099006Y-18096916I40000J0D01*
G01*
X37259376Y-12096070D02*
G75*
G02*
X37179376Y-12096070I-40000J0D01*
G01*
X37179376Y-12096070D02*
G75*
G02*
X37259376Y-12096070I40000J0D01*
G01*
X37591290Y-13181715D02*
G75*
G02*
X37511290Y-13181715I-40000J0D01*
G01*
X37511290Y-13181715D02*
G75*
G02*
X37591290Y-13181715I40000J0D01*
G01*
X37814078Y-13910419D02*
G75*
G02*
X37734078Y-13910419I-40000J0D01*
G01*
X37734078Y-13910419D02*
G75*
G02*
X37814078Y-13910419I40000J0D01*
G01*
X38145993Y-14996064D02*
G75*
G02*
X38065993Y-14996064I-40000J0D01*
G01*
X38065993Y-14996064D02*
G75*
G02*
X38145993Y-14996064I40000J0D01*
G01*
X38368780Y-15724768D02*
G75*
G02*
X38288780Y-15724768I-40000J0D01*
G01*
X38288780Y-15724768D02*
G75*
G02*
X38368780Y-15724768I40000J0D01*
G01*
X38700695Y-16810414D02*
G75*
G02*
X38620695Y-16810414I-40000J0D01*
G01*
X38620695Y-16810414D02*
G75*
G02*
X38700695Y-16810414I40000J0D01*
G01*
X38923482Y-17539118D02*
G75*
G02*
X38843482Y-17539118I-40000J0D01*
G01*
X38843482Y-17539118D02*
G75*
G02*
X38923482Y-17539118I40000J0D01*
G01*
X17470152Y-16741728D02*
X17470152Y-16841728D01*
X17420152Y-16791728D02*
X17520152Y-16791728D01*
X17470152Y-16991728D02*
X17470152Y-17091728D01*
X17420152Y-17041728D02*
X17520152Y-17041728D01*
X17470152Y-17241728D02*
X17470152Y-17341728D01*
X17420152Y-17291728D02*
X17520152Y-17291728D01*
X18920152Y-16741728D02*
X18920152Y-16841728D01*
X18870152Y-16791728D02*
X18970152Y-16791728D01*
X18920152Y-17241728D02*
X18920152Y-17341728D01*
X18870152Y-17291728D02*
X18970152Y-17291728D01*
X20726912Y-9860978D02*
X20726912Y-9960978D01*
X20676912Y-9910978D02*
X20776912Y-9910978D01*
X20726912Y-10510978D02*
X20726912Y-10610978D01*
X20676912Y-10560978D02*
X20776912Y-10560978D01*
X20951912Y-10590478D02*
X20951912Y-10690478D01*
X20901912Y-10640478D02*
X21001912Y-10640478D01*
X20951912Y-10844478D02*
X20951912Y-10944478D01*
X20901912Y-10894478D02*
X21001912Y-10894478D01*
X20951912Y-11098478D02*
X20951912Y-11198478D01*
X20901912Y-11148478D02*
X21001912Y-11148478D01*
X21176912Y-9860978D02*
X21176912Y-9960978D01*
X21126912Y-9910978D02*
X21226912Y-9910978D01*
X21176912Y-10510978D02*
X21176912Y-10610978D01*
X21126912Y-10560978D02*
X21226912Y-10560978D01*
D12*
X20228527Y-9694593D02*
X20228527Y-9617362D01*
X20151296Y-9617362D01*
X20151296Y-9694593D01*
X20228527Y-9694593D01*
X20228527Y-9948593D02*
X20228527Y-9871362D01*
X20151296Y-9871362D01*
X20151296Y-9948593D01*
X20228527Y-9948593D01*
X20228527Y-10202593D02*
X20228527Y-10125362D01*
X20151296Y-10125362D01*
X20151296Y-10202593D01*
X20228527Y-10202593D01*
X20228527Y-10456593D02*
X20228527Y-10379362D01*
X20151296Y-10379362D01*
X20151296Y-10456593D01*
X20228527Y-10456593D01*
X20228527Y-10710593D02*
X20228527Y-10633362D01*
X20151296Y-10633362D01*
X20151296Y-10710593D01*
X20228527Y-10710593D01*
X20228527Y-10964593D02*
X20228527Y-10887362D01*
X20151296Y-10887362D01*
X20151296Y-10964593D01*
X20228527Y-10964593D01*
X20228527Y-11218593D02*
X20228527Y-11141362D01*
X20151296Y-11141362D01*
X20151296Y-11218593D01*
X20228527Y-11218593D01*
X20228527Y-11472593D02*
X20228527Y-11395362D01*
X20151296Y-11395362D01*
X20151296Y-11472593D01*
X20228527Y-11472593D01*
X20228527Y-11726593D02*
X20228527Y-11649362D01*
X20151296Y-11649362D01*
X20151296Y-11726593D01*
X20228527Y-11726593D01*
X20228527Y-11980593D02*
X20228527Y-11903362D01*
X20151296Y-11903362D01*
X20151296Y-11980593D01*
X20228527Y-11980593D01*
X20228527Y-12234593D02*
X20228527Y-12157362D01*
X20151296Y-12157362D01*
X20151296Y-12234593D01*
X20228527Y-12234593D01*
X20251387Y-12488593D02*
X20251387Y-12411362D01*
X20174156Y-12411362D01*
X20174156Y-12488593D01*
X20251387Y-12488593D01*
X20482527Y-12488593D02*
X20482527Y-12411362D01*
X20405296Y-12411362D01*
X20405296Y-12488593D01*
X20482527Y-12488593D01*
X20736527Y-12488593D02*
X20736527Y-12411362D01*
X20659296Y-12411362D01*
X20659296Y-12488593D01*
X20736527Y-12488593D01*
X20990527Y-12488593D02*
X20990527Y-12411362D01*
X20913296Y-12411362D01*
X20913296Y-12488593D01*
X20990527Y-12488593D01*
X21244527Y-12488593D02*
X21244527Y-12411362D01*
X21167296Y-12411362D01*
X21167296Y-12488593D01*
X21244527Y-12488593D01*
X21498527Y-12488593D02*
X21498527Y-12411362D01*
X21421296Y-12411362D01*
X21421296Y-12488593D01*
X21498527Y-12488593D01*
X21752527Y-9694593D02*
X21752527Y-9617362D01*
X21675296Y-9617362D01*
X21675296Y-9694593D01*
X21752527Y-9694593D01*
X21752527Y-9948593D02*
X21752527Y-9871362D01*
X21675296Y-9871362D01*
X21675296Y-9948593D01*
X21752527Y-9948593D01*
X21752527Y-10202593D02*
X21752527Y-10125362D01*
X21675296Y-10125362D01*
X21675296Y-10202593D01*
X21752527Y-10202593D01*
X21752527Y-10456593D02*
X21752527Y-10379362D01*
X21675296Y-10379362D01*
X21675296Y-10456593D01*
X21752527Y-10456593D01*
X21752527Y-10710593D02*
X21752527Y-10633362D01*
X21675296Y-10633362D01*
X21675296Y-10710593D01*
X21752527Y-10710593D01*
X21752527Y-10964593D02*
X21752527Y-10887362D01*
X21675296Y-10887362D01*
X21675296Y-10964593D01*
X21752527Y-10964593D01*
X21752527Y-11218593D02*
X21752527Y-11141362D01*
X21675296Y-11141362D01*
X21675296Y-11218593D01*
X21752527Y-11218593D01*
X21752527Y-11472593D02*
X21752527Y-11395362D01*
X21675296Y-11395362D01*
X21675296Y-11472593D01*
X21752527Y-11472593D01*
X21752527Y-11726593D02*
X21752527Y-11649362D01*
X21675296Y-11649362D01*
X21675296Y-11726593D01*
X21752527Y-11726593D01*
X21752527Y-11980593D02*
X21752527Y-11903362D01*
X21675296Y-11903362D01*
X21675296Y-11980593D01*
X21752527Y-11980593D01*
X21752527Y-12234593D02*
X21752527Y-12157362D01*
X21675296Y-12157362D01*
X21675296Y-12234593D01*
X21752527Y-12234593D01*
X21752527Y-12488593D02*
X21752527Y-12411362D01*
X21675296Y-12411362D01*
X21675296Y-12488593D01*
X21752527Y-12488593D01*
D13*
X3374680Y-16359312D02*
X3484680Y-16249312D01*
X3374680Y-16139312D01*
X3264680Y-16249312D01*
X3374680Y-16359312D01*
X5038787Y-10916264D02*
X5148787Y-10806264D01*
X5038787Y-10696264D01*
X4928787Y-10806264D01*
X5038787Y-10916264D01*
X10680084Y-18592798D02*
X10790084Y-18482798D01*
X10680084Y-18372798D01*
X10570084Y-18482798D01*
X10680084Y-18592798D01*
X12344190Y-13149750D02*
X12454190Y-13039750D01*
X12344190Y-12929750D01*
X12234190Y-13039750D01*
X12344190Y-13149750D01*
X21123352Y-18100353D02*
X21233352Y-17990353D01*
X21123352Y-17880353D01*
X21013352Y-17990353D01*
X21123352Y-18100353D01*
X21123352Y-19997603D02*
X21233352Y-19887603D01*
X21123352Y-19777603D01*
X21013352Y-19887603D01*
X21123352Y-19997603D01*
X29593450Y-13147172D02*
X29703450Y-13037172D01*
X29593450Y-12927172D01*
X29483450Y-13037172D01*
X29593450Y-13147172D01*
X31257557Y-18590219D02*
X31367557Y-18480219D01*
X31257557Y-18370219D01*
X31147557Y-18480219D01*
X31257557Y-18590219D01*
X36891356Y-10915978D02*
X37001356Y-10805978D01*
X36891356Y-10695978D01*
X36781356Y-10805978D01*
X36891356Y-10915978D01*
X38555463Y-16359025D02*
X38665463Y-16249025D01*
X38555463Y-16139025D01*
X38445463Y-16249025D01*
X38555463Y-16359025D01*
D10*
X1384022Y-22229762D02*
X1384022Y-22029762D01*
X1384022Y-22029762D02*
X1431641Y-22029762D01*
X1431641Y-22029762D02*
X1460212Y-22039285D01*
X1460212Y-22039285D02*
X1479260Y-22058333D01*
X1479260Y-22058333D02*
X1488784Y-22077381D01*
X1488784Y-22077381D02*
X1498307Y-22115476D01*
X1498307Y-22115476D02*
X1498307Y-22144047D01*
X1498307Y-22144047D02*
X1488784Y-22182143D01*
X1488784Y-22182143D02*
X1479260Y-22201190D01*
X1479260Y-22201190D02*
X1460212Y-22220238D01*
X1460212Y-22220238D02*
X1431641Y-22229762D01*
X1431641Y-22229762D02*
X1384022Y-22229762D01*
X1584022Y-22229762D02*
X1584022Y-22096428D01*
X1584022Y-22134524D02*
X1593546Y-22115476D01*
X1593546Y-22115476D02*
X1603069Y-22105952D01*
X1603069Y-22105952D02*
X1622117Y-22096428D01*
X1622117Y-22096428D02*
X1641165Y-22096428D01*
X1707831Y-22229762D02*
X1707831Y-22096428D01*
X1707831Y-22029762D02*
X1698307Y-22039285D01*
X1698307Y-22039285D02*
X1707831Y-22048809D01*
X1707831Y-22048809D02*
X1717355Y-22039285D01*
X1717355Y-22039285D02*
X1707831Y-22029762D01*
X1707831Y-22029762D02*
X1707831Y-22048809D01*
X1831641Y-22229762D02*
X1812593Y-22220238D01*
X1812593Y-22220238D02*
X1803069Y-22201190D01*
X1803069Y-22201190D02*
X1803069Y-22029762D01*
X1936403Y-22229762D02*
X1917355Y-22220238D01*
X1917355Y-22220238D02*
X1907831Y-22201190D01*
X1907831Y-22201190D02*
X1907831Y-22029762D01*
X2164974Y-22229762D02*
X2164974Y-22029762D01*
X2164974Y-22029762D02*
X2231641Y-22172619D01*
X2231641Y-22172619D02*
X2298308Y-22029762D01*
X2298308Y-22029762D02*
X2298308Y-22229762D01*
X2479260Y-22229762D02*
X2479260Y-22125000D01*
X2479260Y-22125000D02*
X2469736Y-22105952D01*
X2469736Y-22105952D02*
X2450689Y-22096428D01*
X2450689Y-22096428D02*
X2412593Y-22096428D01*
X2412593Y-22096428D02*
X2393546Y-22105952D01*
X2479260Y-22220238D02*
X2460212Y-22229762D01*
X2460212Y-22229762D02*
X2412593Y-22229762D01*
X2412593Y-22229762D02*
X2393546Y-22220238D01*
X2393546Y-22220238D02*
X2384022Y-22201190D01*
X2384022Y-22201190D02*
X2384022Y-22182143D01*
X2384022Y-22182143D02*
X2393546Y-22163095D01*
X2393546Y-22163095D02*
X2412593Y-22153571D01*
X2412593Y-22153571D02*
X2460212Y-22153571D01*
X2460212Y-22153571D02*
X2479260Y-22144047D01*
X2574498Y-22096428D02*
X2574498Y-22296428D01*
X2574498Y-22105952D02*
X2593546Y-22096428D01*
X2593546Y-22096428D02*
X2631641Y-22096428D01*
X2631641Y-22096428D02*
X2650689Y-22105952D01*
X2650689Y-22105952D02*
X2660212Y-22115476D01*
X2660212Y-22115476D02*
X2669736Y-22134524D01*
X2669736Y-22134524D02*
X2669736Y-22191666D01*
X2669736Y-22191666D02*
X2660212Y-22210714D01*
X2660212Y-22210714D02*
X2650689Y-22220238D01*
X2650689Y-22220238D02*
X2631641Y-22229762D01*
X2631641Y-22229762D02*
X2593546Y-22229762D01*
X2593546Y-22229762D02*
X2574498Y-22220238D01*
X2755450Y-22210714D02*
X2764974Y-22220238D01*
X2764974Y-22220238D02*
X2755450Y-22229762D01*
X2755450Y-22229762D02*
X2745927Y-22220238D01*
X2745927Y-22220238D02*
X2755450Y-22210714D01*
X2755450Y-22210714D02*
X2755450Y-22229762D01*
X2755450Y-22105952D02*
X2764974Y-22115476D01*
X2764974Y-22115476D02*
X2755450Y-22125000D01*
X2755450Y-22125000D02*
X2745927Y-22115476D01*
X2745927Y-22115476D02*
X2755450Y-22105952D01*
X2755450Y-22105952D02*
X2755450Y-22125000D01*
D11*
X1083245Y-22538278D02*
X1123245Y-22578278D01*
X1123245Y-22538278D02*
X1083245Y-22578278D01*
D10*
X1422117Y-22449762D02*
X1441165Y-22449762D01*
X1441165Y-22449762D02*
X1460212Y-22459285D01*
X1460212Y-22459285D02*
X1469736Y-22468809D01*
X1469736Y-22468809D02*
X1479260Y-22487857D01*
X1479260Y-22487857D02*
X1488784Y-22525952D01*
X1488784Y-22525952D02*
X1488784Y-22573571D01*
X1488784Y-22573571D02*
X1479260Y-22611666D01*
X1479260Y-22611666D02*
X1469736Y-22630714D01*
X1469736Y-22630714D02*
X1460212Y-22640238D01*
X1460212Y-22640238D02*
X1441165Y-22649762D01*
X1441165Y-22649762D02*
X1422117Y-22649762D01*
X1422117Y-22649762D02*
X1403069Y-22640238D01*
X1403069Y-22640238D02*
X1393546Y-22630714D01*
X1393546Y-22630714D02*
X1384022Y-22611666D01*
X1384022Y-22611666D02*
X1374498Y-22573571D01*
X1374498Y-22573571D02*
X1374498Y-22525952D01*
X1374498Y-22525952D02*
X1384022Y-22487857D01*
X1384022Y-22487857D02*
X1393546Y-22468809D01*
X1393546Y-22468809D02*
X1403069Y-22459285D01*
X1403069Y-22459285D02*
X1422117Y-22449762D01*
X1574498Y-22630714D02*
X1584022Y-22640238D01*
X1584022Y-22640238D02*
X1574498Y-22649762D01*
X1574498Y-22649762D02*
X1564974Y-22640238D01*
X1564974Y-22640238D02*
X1574498Y-22630714D01*
X1574498Y-22630714D02*
X1574498Y-22649762D01*
X1755450Y-22516428D02*
X1755450Y-22649762D01*
X1707831Y-22440238D02*
X1660212Y-22583095D01*
X1660212Y-22583095D02*
X1784022Y-22583095D01*
X1898307Y-22449762D02*
X1917355Y-22449762D01*
X1917355Y-22449762D02*
X1936403Y-22459285D01*
X1936403Y-22459285D02*
X1945927Y-22468809D01*
X1945927Y-22468809D02*
X1955450Y-22487857D01*
X1955450Y-22487857D02*
X1964974Y-22525952D01*
X1964974Y-22525952D02*
X1964974Y-22573571D01*
X1964974Y-22573571D02*
X1955450Y-22611666D01*
X1955450Y-22611666D02*
X1945927Y-22630714D01*
X1945927Y-22630714D02*
X1936403Y-22640238D01*
X1936403Y-22640238D02*
X1917355Y-22649762D01*
X1917355Y-22649762D02*
X1898307Y-22649762D01*
X1898307Y-22649762D02*
X1879260Y-22640238D01*
X1879260Y-22640238D02*
X1869736Y-22630714D01*
X1869736Y-22630714D02*
X1860212Y-22611666D01*
X1860212Y-22611666D02*
X1850688Y-22573571D01*
X1850688Y-22573571D02*
X1850688Y-22525952D01*
X1850688Y-22525952D02*
X1860212Y-22487857D01*
X1860212Y-22487857D02*
X1869736Y-22468809D01*
X1869736Y-22468809D02*
X1879260Y-22459285D01*
X1879260Y-22459285D02*
X1898307Y-22449762D01*
X2088784Y-22449762D02*
X2107831Y-22449762D01*
X2107831Y-22449762D02*
X2126879Y-22459285D01*
X2126879Y-22459285D02*
X2136403Y-22468809D01*
X2136403Y-22468809D02*
X2145927Y-22487857D01*
X2145927Y-22487857D02*
X2155450Y-22525952D01*
X2155450Y-22525952D02*
X2155450Y-22573571D01*
X2155450Y-22573571D02*
X2145927Y-22611666D01*
X2145927Y-22611666D02*
X2136403Y-22630714D01*
X2136403Y-22630714D02*
X2126879Y-22640238D01*
X2126879Y-22640238D02*
X2107831Y-22649762D01*
X2107831Y-22649762D02*
X2088784Y-22649762D01*
X2088784Y-22649762D02*
X2069736Y-22640238D01*
X2069736Y-22640238D02*
X2060212Y-22630714D01*
X2060212Y-22630714D02*
X2050688Y-22611666D01*
X2050688Y-22611666D02*
X2041165Y-22573571D01*
X2041165Y-22573571D02*
X2041165Y-22525952D01*
X2041165Y-22525952D02*
X2050688Y-22487857D01*
X2050688Y-22487857D02*
X2060212Y-22468809D01*
X2060212Y-22468809D02*
X2069736Y-22459285D01*
X2069736Y-22459285D02*
X2088784Y-22449762D01*
X2241165Y-22649762D02*
X2241165Y-22516428D01*
X2241165Y-22535476D02*
X2250689Y-22525952D01*
X2250689Y-22525952D02*
X2269736Y-22516428D01*
X2269736Y-22516428D02*
X2298308Y-22516428D01*
X2298308Y-22516428D02*
X2317355Y-22525952D01*
X2317355Y-22525952D02*
X2326879Y-22545000D01*
X2326879Y-22545000D02*
X2326879Y-22649762D01*
X2326879Y-22545000D02*
X2336403Y-22525952D01*
X2336403Y-22525952D02*
X2355450Y-22516428D01*
X2355450Y-22516428D02*
X2384022Y-22516428D01*
X2384022Y-22516428D02*
X2403070Y-22525952D01*
X2403070Y-22525952D02*
X2412593Y-22545000D01*
X2412593Y-22545000D02*
X2412593Y-22649762D01*
X2507831Y-22649762D02*
X2507831Y-22516428D01*
X2507831Y-22535476D02*
X2517355Y-22525952D01*
X2517355Y-22525952D02*
X2536403Y-22516428D01*
X2536403Y-22516428D02*
X2564974Y-22516428D01*
X2564974Y-22516428D02*
X2584022Y-22525952D01*
X2584022Y-22525952D02*
X2593546Y-22545000D01*
X2593546Y-22545000D02*
X2593546Y-22649762D01*
X2593546Y-22545000D02*
X2603070Y-22525952D01*
X2603070Y-22525952D02*
X2622117Y-22516428D01*
X2622117Y-22516428D02*
X2650689Y-22516428D01*
X2650689Y-22516428D02*
X2669736Y-22525952D01*
X2669736Y-22525952D02*
X2679260Y-22545000D01*
X2679260Y-22545000D02*
X2679260Y-22649762D01*
X3069736Y-22440238D02*
X2898308Y-22697381D01*
X3326879Y-22449762D02*
X3345927Y-22449762D01*
X3345927Y-22449762D02*
X3364974Y-22459285D01*
X3364974Y-22459285D02*
X3374498Y-22468809D01*
X3374498Y-22468809D02*
X3384022Y-22487857D01*
X3384022Y-22487857D02*
X3393546Y-22525952D01*
X3393546Y-22525952D02*
X3393546Y-22573571D01*
X3393546Y-22573571D02*
X3384022Y-22611666D01*
X3384022Y-22611666D02*
X3374498Y-22630714D01*
X3374498Y-22630714D02*
X3364974Y-22640238D01*
X3364974Y-22640238D02*
X3345927Y-22649762D01*
X3345927Y-22649762D02*
X3326879Y-22649762D01*
X3326879Y-22649762D02*
X3307831Y-22640238D01*
X3307831Y-22640238D02*
X3298308Y-22630714D01*
X3298308Y-22630714D02*
X3288784Y-22611666D01*
X3288784Y-22611666D02*
X3279260Y-22573571D01*
X3279260Y-22573571D02*
X3279260Y-22525952D01*
X3279260Y-22525952D02*
X3288784Y-22487857D01*
X3288784Y-22487857D02*
X3298308Y-22468809D01*
X3298308Y-22468809D02*
X3307831Y-22459285D01*
X3307831Y-22459285D02*
X3326879Y-22449762D01*
X3479260Y-22630714D02*
X3488784Y-22640238D01*
X3488784Y-22640238D02*
X3479260Y-22649762D01*
X3479260Y-22649762D02*
X3469736Y-22640238D01*
X3469736Y-22640238D02*
X3479260Y-22630714D01*
X3479260Y-22630714D02*
X3479260Y-22649762D01*
X3612593Y-22449762D02*
X3631641Y-22449762D01*
X3631641Y-22449762D02*
X3650689Y-22459285D01*
X3650689Y-22459285D02*
X3660212Y-22468809D01*
X3660212Y-22468809D02*
X3669736Y-22487857D01*
X3669736Y-22487857D02*
X3679260Y-22525952D01*
X3679260Y-22525952D02*
X3679260Y-22573571D01*
X3679260Y-22573571D02*
X3669736Y-22611666D01*
X3669736Y-22611666D02*
X3660212Y-22630714D01*
X3660212Y-22630714D02*
X3650689Y-22640238D01*
X3650689Y-22640238D02*
X3631641Y-22649762D01*
X3631641Y-22649762D02*
X3612593Y-22649762D01*
X3612593Y-22649762D02*
X3593546Y-22640238D01*
X3593546Y-22640238D02*
X3584022Y-22630714D01*
X3584022Y-22630714D02*
X3574498Y-22611666D01*
X3574498Y-22611666D02*
X3564974Y-22573571D01*
X3564974Y-22573571D02*
X3564974Y-22525952D01*
X3564974Y-22525952D02*
X3574498Y-22487857D01*
X3574498Y-22487857D02*
X3584022Y-22468809D01*
X3584022Y-22468809D02*
X3593546Y-22459285D01*
X3593546Y-22459285D02*
X3612593Y-22449762D01*
X3869736Y-22649762D02*
X3755451Y-22649762D01*
X3812593Y-22649762D02*
X3812593Y-22449762D01*
X3812593Y-22449762D02*
X3793546Y-22478333D01*
X3793546Y-22478333D02*
X3774498Y-22497381D01*
X3774498Y-22497381D02*
X3755451Y-22506904D01*
X4050689Y-22449762D02*
X3955451Y-22449762D01*
X3955451Y-22449762D02*
X3945927Y-22545000D01*
X3945927Y-22545000D02*
X3955451Y-22535476D01*
X3955451Y-22535476D02*
X3974498Y-22525952D01*
X3974498Y-22525952D02*
X4022117Y-22525952D01*
X4022117Y-22525952D02*
X4041165Y-22535476D01*
X4041165Y-22535476D02*
X4050689Y-22545000D01*
X4050689Y-22545000D02*
X4060212Y-22564047D01*
X4060212Y-22564047D02*
X4060212Y-22611666D01*
X4060212Y-22611666D02*
X4050689Y-22630714D01*
X4050689Y-22630714D02*
X4041165Y-22640238D01*
X4041165Y-22640238D02*
X4022117Y-22649762D01*
X4022117Y-22649762D02*
X3974498Y-22649762D01*
X3974498Y-22649762D02*
X3955451Y-22640238D01*
X3955451Y-22640238D02*
X3945927Y-22630714D01*
X4126879Y-22449762D02*
X4260213Y-22449762D01*
X4260213Y-22449762D02*
X4174498Y-22649762D01*
X4326879Y-22449762D02*
X4326879Y-22487857D01*
X4403070Y-22449762D02*
X4403070Y-22487857D01*
X4698308Y-22725952D02*
X4688784Y-22716428D01*
X4688784Y-22716428D02*
X4669736Y-22687857D01*
X4669736Y-22687857D02*
X4660213Y-22668809D01*
X4660213Y-22668809D02*
X4650689Y-22640238D01*
X4650689Y-22640238D02*
X4641165Y-22592619D01*
X4641165Y-22592619D02*
X4641165Y-22554523D01*
X4641165Y-22554523D02*
X4650689Y-22506904D01*
X4650689Y-22506904D02*
X4660213Y-22478333D01*
X4660213Y-22478333D02*
X4669736Y-22459285D01*
X4669736Y-22459285D02*
X4688784Y-22430714D01*
X4688784Y-22430714D02*
X4698308Y-22421190D01*
X4879260Y-22649762D02*
X4764975Y-22649762D01*
X4822117Y-22649762D02*
X4822117Y-22449762D01*
X4822117Y-22449762D02*
X4803070Y-22478333D01*
X4803070Y-22478333D02*
X4784022Y-22497381D01*
X4784022Y-22497381D02*
X4764975Y-22506904D01*
X5060213Y-22449762D02*
X4964975Y-22449762D01*
X4964975Y-22449762D02*
X4955451Y-22545000D01*
X4955451Y-22545000D02*
X4964975Y-22535476D01*
X4964975Y-22535476D02*
X4984022Y-22525952D01*
X4984022Y-22525952D02*
X5031641Y-22525952D01*
X5031641Y-22525952D02*
X5050689Y-22535476D01*
X5050689Y-22535476D02*
X5060213Y-22545000D01*
X5060213Y-22545000D02*
X5069736Y-22564047D01*
X5069736Y-22564047D02*
X5069736Y-22611666D01*
X5069736Y-22611666D02*
X5060213Y-22630714D01*
X5060213Y-22630714D02*
X5050689Y-22640238D01*
X5050689Y-22640238D02*
X5031641Y-22649762D01*
X5031641Y-22649762D02*
X4984022Y-22649762D01*
X4984022Y-22649762D02*
X4964975Y-22640238D01*
X4964975Y-22640238D02*
X4955451Y-22630714D01*
X5307832Y-22649762D02*
X5307832Y-22449762D01*
X5393546Y-22649762D02*
X5393546Y-22545000D01*
X5393546Y-22545000D02*
X5384022Y-22525952D01*
X5384022Y-22525952D02*
X5364975Y-22516428D01*
X5364975Y-22516428D02*
X5336403Y-22516428D01*
X5336403Y-22516428D02*
X5317356Y-22525952D01*
X5317356Y-22525952D02*
X5307832Y-22535476D01*
X5517356Y-22649762D02*
X5498308Y-22640238D01*
X5498308Y-22640238D02*
X5488784Y-22630714D01*
X5488784Y-22630714D02*
X5479260Y-22611666D01*
X5479260Y-22611666D02*
X5479260Y-22554523D01*
X5479260Y-22554523D02*
X5488784Y-22535476D01*
X5488784Y-22535476D02*
X5498308Y-22525952D01*
X5498308Y-22525952D02*
X5517356Y-22516428D01*
X5517356Y-22516428D02*
X5545927Y-22516428D01*
X5545927Y-22516428D02*
X5564975Y-22525952D01*
X5564975Y-22525952D02*
X5574498Y-22535476D01*
X5574498Y-22535476D02*
X5584022Y-22554523D01*
X5584022Y-22554523D02*
X5584022Y-22611666D01*
X5584022Y-22611666D02*
X5574498Y-22630714D01*
X5574498Y-22630714D02*
X5564975Y-22640238D01*
X5564975Y-22640238D02*
X5545927Y-22649762D01*
X5545927Y-22649762D02*
X5517356Y-22649762D01*
X5698308Y-22649762D02*
X5679260Y-22640238D01*
X5679260Y-22640238D02*
X5669736Y-22621190D01*
X5669736Y-22621190D02*
X5669736Y-22449762D01*
X5850689Y-22640238D02*
X5831641Y-22649762D01*
X5831641Y-22649762D02*
X5793546Y-22649762D01*
X5793546Y-22649762D02*
X5774498Y-22640238D01*
X5774498Y-22640238D02*
X5764975Y-22621190D01*
X5764975Y-22621190D02*
X5764975Y-22545000D01*
X5764975Y-22545000D02*
X5774498Y-22525952D01*
X5774498Y-22525952D02*
X5793546Y-22516428D01*
X5793546Y-22516428D02*
X5831641Y-22516428D01*
X5831641Y-22516428D02*
X5850689Y-22525952D01*
X5850689Y-22525952D02*
X5860213Y-22545000D01*
X5860213Y-22545000D02*
X5860213Y-22564047D01*
X5860213Y-22564047D02*
X5764975Y-22583095D01*
X5936403Y-22640238D02*
X5955451Y-22649762D01*
X5955451Y-22649762D02*
X5993546Y-22649762D01*
X5993546Y-22649762D02*
X6012594Y-22640238D01*
X6012594Y-22640238D02*
X6022117Y-22621190D01*
X6022117Y-22621190D02*
X6022117Y-22611666D01*
X6022117Y-22611666D02*
X6012594Y-22592619D01*
X6012594Y-22592619D02*
X5993546Y-22583095D01*
X5993546Y-22583095D02*
X5964975Y-22583095D01*
X5964975Y-22583095D02*
X5945927Y-22573571D01*
X5945927Y-22573571D02*
X5936403Y-22554523D01*
X5936403Y-22554523D02*
X5936403Y-22545000D01*
X5936403Y-22545000D02*
X5945927Y-22525952D01*
X5945927Y-22525952D02*
X5964975Y-22516428D01*
X5964975Y-22516428D02*
X5993546Y-22516428D01*
X5993546Y-22516428D02*
X6012594Y-22525952D01*
X6088784Y-22725952D02*
X6098308Y-22716428D01*
X6098308Y-22716428D02*
X6117356Y-22687857D01*
X6117356Y-22687857D02*
X6126879Y-22668809D01*
X6126879Y-22668809D02*
X6136403Y-22640238D01*
X6136403Y-22640238D02*
X6145927Y-22592619D01*
X6145927Y-22592619D02*
X6145927Y-22554523D01*
X6145927Y-22554523D02*
X6136403Y-22506904D01*
X6136403Y-22506904D02*
X6126879Y-22478333D01*
X6126879Y-22478333D02*
X6117356Y-22459285D01*
X6117356Y-22459285D02*
X6098308Y-22430714D01*
X6098308Y-22430714D02*
X6088784Y-22421190D01*
D11*
X1123245Y-22822278D02*
G75*
G02*
X1043245Y-22822278I-40000J0D01*
G01*
X1043245Y-22822278D02*
G75*
G02*
X1123245Y-22822278I40000J0D01*
G01*
D10*
X1422117Y-22713762D02*
X1441165Y-22713762D01*
X1441165Y-22713762D02*
X1460212Y-22723285D01*
X1460212Y-22723285D02*
X1469736Y-22732809D01*
X1469736Y-22732809D02*
X1479260Y-22751857D01*
X1479260Y-22751857D02*
X1488784Y-22789952D01*
X1488784Y-22789952D02*
X1488784Y-22837571D01*
X1488784Y-22837571D02*
X1479260Y-22875666D01*
X1479260Y-22875666D02*
X1469736Y-22894714D01*
X1469736Y-22894714D02*
X1460212Y-22904238D01*
X1460212Y-22904238D02*
X1441165Y-22913762D01*
X1441165Y-22913762D02*
X1422117Y-22913762D01*
X1422117Y-22913762D02*
X1403069Y-22904238D01*
X1403069Y-22904238D02*
X1393546Y-22894714D01*
X1393546Y-22894714D02*
X1384022Y-22875666D01*
X1384022Y-22875666D02*
X1374498Y-22837571D01*
X1374498Y-22837571D02*
X1374498Y-22789952D01*
X1374498Y-22789952D02*
X1384022Y-22751857D01*
X1384022Y-22751857D02*
X1393546Y-22732809D01*
X1393546Y-22732809D02*
X1403069Y-22723285D01*
X1403069Y-22723285D02*
X1422117Y-22713762D01*
X1574498Y-22894714D02*
X1584022Y-22904238D01*
X1584022Y-22904238D02*
X1574498Y-22913762D01*
X1574498Y-22913762D02*
X1564974Y-22904238D01*
X1564974Y-22904238D02*
X1574498Y-22894714D01*
X1574498Y-22894714D02*
X1574498Y-22913762D01*
X1698307Y-22799476D02*
X1679260Y-22789952D01*
X1679260Y-22789952D02*
X1669736Y-22780428D01*
X1669736Y-22780428D02*
X1660212Y-22761381D01*
X1660212Y-22761381D02*
X1660212Y-22751857D01*
X1660212Y-22751857D02*
X1669736Y-22732809D01*
X1669736Y-22732809D02*
X1679260Y-22723285D01*
X1679260Y-22723285D02*
X1698307Y-22713762D01*
X1698307Y-22713762D02*
X1736403Y-22713762D01*
X1736403Y-22713762D02*
X1755450Y-22723285D01*
X1755450Y-22723285D02*
X1764974Y-22732809D01*
X1764974Y-22732809D02*
X1774498Y-22751857D01*
X1774498Y-22751857D02*
X1774498Y-22761381D01*
X1774498Y-22761381D02*
X1764974Y-22780428D01*
X1764974Y-22780428D02*
X1755450Y-22789952D01*
X1755450Y-22789952D02*
X1736403Y-22799476D01*
X1736403Y-22799476D02*
X1698307Y-22799476D01*
X1698307Y-22799476D02*
X1679260Y-22809000D01*
X1679260Y-22809000D02*
X1669736Y-22818523D01*
X1669736Y-22818523D02*
X1660212Y-22837571D01*
X1660212Y-22837571D02*
X1660212Y-22875666D01*
X1660212Y-22875666D02*
X1669736Y-22894714D01*
X1669736Y-22894714D02*
X1679260Y-22904238D01*
X1679260Y-22904238D02*
X1698307Y-22913762D01*
X1698307Y-22913762D02*
X1736403Y-22913762D01*
X1736403Y-22913762D02*
X1755450Y-22904238D01*
X1755450Y-22904238D02*
X1764974Y-22894714D01*
X1764974Y-22894714D02*
X1774498Y-22875666D01*
X1774498Y-22875666D02*
X1774498Y-22837571D01*
X1774498Y-22837571D02*
X1764974Y-22818523D01*
X1764974Y-22818523D02*
X1755450Y-22809000D01*
X1755450Y-22809000D02*
X1736403Y-22799476D01*
X1898307Y-22713762D02*
X1917355Y-22713762D01*
X1917355Y-22713762D02*
X1936403Y-22723285D01*
X1936403Y-22723285D02*
X1945927Y-22732809D01*
X1945927Y-22732809D02*
X1955450Y-22751857D01*
X1955450Y-22751857D02*
X1964974Y-22789952D01*
X1964974Y-22789952D02*
X1964974Y-22837571D01*
X1964974Y-22837571D02*
X1955450Y-22875666D01*
X1955450Y-22875666D02*
X1945927Y-22894714D01*
X1945927Y-22894714D02*
X1936403Y-22904238D01*
X1936403Y-22904238D02*
X1917355Y-22913762D01*
X1917355Y-22913762D02*
X1898307Y-22913762D01*
X1898307Y-22913762D02*
X1879260Y-22904238D01*
X1879260Y-22904238D02*
X1869736Y-22894714D01*
X1869736Y-22894714D02*
X1860212Y-22875666D01*
X1860212Y-22875666D02*
X1850688Y-22837571D01*
X1850688Y-22837571D02*
X1850688Y-22789952D01*
X1850688Y-22789952D02*
X1860212Y-22751857D01*
X1860212Y-22751857D02*
X1869736Y-22732809D01*
X1869736Y-22732809D02*
X1879260Y-22723285D01*
X1879260Y-22723285D02*
X1898307Y-22713762D01*
X2088784Y-22713762D02*
X2107831Y-22713762D01*
X2107831Y-22713762D02*
X2126879Y-22723285D01*
X2126879Y-22723285D02*
X2136403Y-22732809D01*
X2136403Y-22732809D02*
X2145927Y-22751857D01*
X2145927Y-22751857D02*
X2155450Y-22789952D01*
X2155450Y-22789952D02*
X2155450Y-22837571D01*
X2155450Y-22837571D02*
X2145927Y-22875666D01*
X2145927Y-22875666D02*
X2136403Y-22894714D01*
X2136403Y-22894714D02*
X2126879Y-22904238D01*
X2126879Y-22904238D02*
X2107831Y-22913762D01*
X2107831Y-22913762D02*
X2088784Y-22913762D01*
X2088784Y-22913762D02*
X2069736Y-22904238D01*
X2069736Y-22904238D02*
X2060212Y-22894714D01*
X2060212Y-22894714D02*
X2050688Y-22875666D01*
X2050688Y-22875666D02*
X2041165Y-22837571D01*
X2041165Y-22837571D02*
X2041165Y-22789952D01*
X2041165Y-22789952D02*
X2050688Y-22751857D01*
X2050688Y-22751857D02*
X2060212Y-22732809D01*
X2060212Y-22732809D02*
X2069736Y-22723285D01*
X2069736Y-22723285D02*
X2088784Y-22713762D01*
X2241165Y-22913762D02*
X2241165Y-22780428D01*
X2241165Y-22799476D02*
X2250689Y-22789952D01*
X2250689Y-22789952D02*
X2269736Y-22780428D01*
X2269736Y-22780428D02*
X2298308Y-22780428D01*
X2298308Y-22780428D02*
X2317355Y-22789952D01*
X2317355Y-22789952D02*
X2326879Y-22809000D01*
X2326879Y-22809000D02*
X2326879Y-22913762D01*
X2326879Y-22809000D02*
X2336403Y-22789952D01*
X2336403Y-22789952D02*
X2355450Y-22780428D01*
X2355450Y-22780428D02*
X2384022Y-22780428D01*
X2384022Y-22780428D02*
X2403070Y-22789952D01*
X2403070Y-22789952D02*
X2412593Y-22809000D01*
X2412593Y-22809000D02*
X2412593Y-22913762D01*
X2507831Y-22913762D02*
X2507831Y-22780428D01*
X2507831Y-22799476D02*
X2517355Y-22789952D01*
X2517355Y-22789952D02*
X2536403Y-22780428D01*
X2536403Y-22780428D02*
X2564974Y-22780428D01*
X2564974Y-22780428D02*
X2584022Y-22789952D01*
X2584022Y-22789952D02*
X2593546Y-22809000D01*
X2593546Y-22809000D02*
X2593546Y-22913762D01*
X2593546Y-22809000D02*
X2603070Y-22789952D01*
X2603070Y-22789952D02*
X2622117Y-22780428D01*
X2622117Y-22780428D02*
X2650689Y-22780428D01*
X2650689Y-22780428D02*
X2669736Y-22789952D01*
X2669736Y-22789952D02*
X2679260Y-22809000D01*
X2679260Y-22809000D02*
X2679260Y-22913762D01*
X3069736Y-22704238D02*
X2898308Y-22961381D01*
X3326879Y-22713762D02*
X3345927Y-22713762D01*
X3345927Y-22713762D02*
X3364974Y-22723285D01*
X3364974Y-22723285D02*
X3374498Y-22732809D01*
X3374498Y-22732809D02*
X3384022Y-22751857D01*
X3384022Y-22751857D02*
X3393546Y-22789952D01*
X3393546Y-22789952D02*
X3393546Y-22837571D01*
X3393546Y-22837571D02*
X3384022Y-22875666D01*
X3384022Y-22875666D02*
X3374498Y-22894714D01*
X3374498Y-22894714D02*
X3364974Y-22904238D01*
X3364974Y-22904238D02*
X3345927Y-22913762D01*
X3345927Y-22913762D02*
X3326879Y-22913762D01*
X3326879Y-22913762D02*
X3307831Y-22904238D01*
X3307831Y-22904238D02*
X3298308Y-22894714D01*
X3298308Y-22894714D02*
X3288784Y-22875666D01*
X3288784Y-22875666D02*
X3279260Y-22837571D01*
X3279260Y-22837571D02*
X3279260Y-22789952D01*
X3279260Y-22789952D02*
X3288784Y-22751857D01*
X3288784Y-22751857D02*
X3298308Y-22732809D01*
X3298308Y-22732809D02*
X3307831Y-22723285D01*
X3307831Y-22723285D02*
X3326879Y-22713762D01*
X3479260Y-22894714D02*
X3488784Y-22904238D01*
X3488784Y-22904238D02*
X3479260Y-22913762D01*
X3479260Y-22913762D02*
X3469736Y-22904238D01*
X3469736Y-22904238D02*
X3479260Y-22894714D01*
X3479260Y-22894714D02*
X3479260Y-22913762D01*
X3612593Y-22713762D02*
X3631641Y-22713762D01*
X3631641Y-22713762D02*
X3650689Y-22723285D01*
X3650689Y-22723285D02*
X3660212Y-22732809D01*
X3660212Y-22732809D02*
X3669736Y-22751857D01*
X3669736Y-22751857D02*
X3679260Y-22789952D01*
X3679260Y-22789952D02*
X3679260Y-22837571D01*
X3679260Y-22837571D02*
X3669736Y-22875666D01*
X3669736Y-22875666D02*
X3660212Y-22894714D01*
X3660212Y-22894714D02*
X3650689Y-22904238D01*
X3650689Y-22904238D02*
X3631641Y-22913762D01*
X3631641Y-22913762D02*
X3612593Y-22913762D01*
X3612593Y-22913762D02*
X3593546Y-22904238D01*
X3593546Y-22904238D02*
X3584022Y-22894714D01*
X3584022Y-22894714D02*
X3574498Y-22875666D01*
X3574498Y-22875666D02*
X3564974Y-22837571D01*
X3564974Y-22837571D02*
X3564974Y-22789952D01*
X3564974Y-22789952D02*
X3574498Y-22751857D01*
X3574498Y-22751857D02*
X3584022Y-22732809D01*
X3584022Y-22732809D02*
X3593546Y-22723285D01*
X3593546Y-22723285D02*
X3612593Y-22713762D01*
X3745927Y-22713762D02*
X3869736Y-22713762D01*
X3869736Y-22713762D02*
X3803070Y-22789952D01*
X3803070Y-22789952D02*
X3831641Y-22789952D01*
X3831641Y-22789952D02*
X3850689Y-22799476D01*
X3850689Y-22799476D02*
X3860212Y-22809000D01*
X3860212Y-22809000D02*
X3869736Y-22828047D01*
X3869736Y-22828047D02*
X3869736Y-22875666D01*
X3869736Y-22875666D02*
X3860212Y-22894714D01*
X3860212Y-22894714D02*
X3850689Y-22904238D01*
X3850689Y-22904238D02*
X3831641Y-22913762D01*
X3831641Y-22913762D02*
X3774498Y-22913762D01*
X3774498Y-22913762D02*
X3755451Y-22904238D01*
X3755451Y-22904238D02*
X3745927Y-22894714D01*
X4060212Y-22913762D02*
X3945927Y-22913762D01*
X4003070Y-22913762D02*
X4003070Y-22713762D01*
X4003070Y-22713762D02*
X3984022Y-22742333D01*
X3984022Y-22742333D02*
X3964974Y-22761381D01*
X3964974Y-22761381D02*
X3945927Y-22770904D01*
X4241165Y-22713762D02*
X4145927Y-22713762D01*
X4145927Y-22713762D02*
X4136403Y-22809000D01*
X4136403Y-22809000D02*
X4145927Y-22799476D01*
X4145927Y-22799476D02*
X4164974Y-22789952D01*
X4164974Y-22789952D02*
X4212594Y-22789952D01*
X4212594Y-22789952D02*
X4231641Y-22799476D01*
X4231641Y-22799476D02*
X4241165Y-22809000D01*
X4241165Y-22809000D02*
X4250689Y-22828047D01*
X4250689Y-22828047D02*
X4250689Y-22875666D01*
X4250689Y-22875666D02*
X4241165Y-22894714D01*
X4241165Y-22894714D02*
X4231641Y-22904238D01*
X4231641Y-22904238D02*
X4212594Y-22913762D01*
X4212594Y-22913762D02*
X4164974Y-22913762D01*
X4164974Y-22913762D02*
X4145927Y-22904238D01*
X4145927Y-22904238D02*
X4136403Y-22894714D01*
X4326879Y-22713762D02*
X4326879Y-22751857D01*
X4403070Y-22713762D02*
X4403070Y-22751857D01*
X4698308Y-22989952D02*
X4688784Y-22980428D01*
X4688784Y-22980428D02*
X4669736Y-22951857D01*
X4669736Y-22951857D02*
X4660213Y-22932809D01*
X4660213Y-22932809D02*
X4650689Y-22904238D01*
X4650689Y-22904238D02*
X4641165Y-22856619D01*
X4641165Y-22856619D02*
X4641165Y-22818523D01*
X4641165Y-22818523D02*
X4650689Y-22770904D01*
X4650689Y-22770904D02*
X4660213Y-22742333D01*
X4660213Y-22742333D02*
X4669736Y-22723285D01*
X4669736Y-22723285D02*
X4688784Y-22694714D01*
X4688784Y-22694714D02*
X4698308Y-22685190D01*
X4879260Y-22913762D02*
X4764975Y-22913762D01*
X4822117Y-22913762D02*
X4822117Y-22713762D01*
X4822117Y-22713762D02*
X4803070Y-22742333D01*
X4803070Y-22742333D02*
X4784022Y-22761381D01*
X4784022Y-22761381D02*
X4764975Y-22770904D01*
X5060213Y-22713762D02*
X4964975Y-22713762D01*
X4964975Y-22713762D02*
X4955451Y-22809000D01*
X4955451Y-22809000D02*
X4964975Y-22799476D01*
X4964975Y-22799476D02*
X4984022Y-22789952D01*
X4984022Y-22789952D02*
X5031641Y-22789952D01*
X5031641Y-22789952D02*
X5050689Y-22799476D01*
X5050689Y-22799476D02*
X5060213Y-22809000D01*
X5060213Y-22809000D02*
X5069736Y-22828047D01*
X5069736Y-22828047D02*
X5069736Y-22875666D01*
X5069736Y-22875666D02*
X5060213Y-22894714D01*
X5060213Y-22894714D02*
X5050689Y-22904238D01*
X5050689Y-22904238D02*
X5031641Y-22913762D01*
X5031641Y-22913762D02*
X4984022Y-22913762D01*
X4984022Y-22913762D02*
X4964975Y-22904238D01*
X4964975Y-22904238D02*
X4955451Y-22894714D01*
X5145927Y-22732809D02*
X5155451Y-22723285D01*
X5155451Y-22723285D02*
X5174498Y-22713762D01*
X5174498Y-22713762D02*
X5222117Y-22713762D01*
X5222117Y-22713762D02*
X5241165Y-22723285D01*
X5241165Y-22723285D02*
X5250689Y-22732809D01*
X5250689Y-22732809D02*
X5260213Y-22751857D01*
X5260213Y-22751857D02*
X5260213Y-22770904D01*
X5260213Y-22770904D02*
X5250689Y-22799476D01*
X5250689Y-22799476D02*
X5136403Y-22913762D01*
X5136403Y-22913762D02*
X5260213Y-22913762D01*
X5498308Y-22913762D02*
X5498308Y-22713762D01*
X5584022Y-22913762D02*
X5584022Y-22809000D01*
X5584022Y-22809000D02*
X5574498Y-22789952D01*
X5574498Y-22789952D02*
X5555451Y-22780428D01*
X5555451Y-22780428D02*
X5526879Y-22780428D01*
X5526879Y-22780428D02*
X5507832Y-22789952D01*
X5507832Y-22789952D02*
X5498308Y-22799476D01*
X5707832Y-22913762D02*
X5688784Y-22904238D01*
X5688784Y-22904238D02*
X5679260Y-22894714D01*
X5679260Y-22894714D02*
X5669736Y-22875666D01*
X5669736Y-22875666D02*
X5669736Y-22818523D01*
X5669736Y-22818523D02*
X5679260Y-22799476D01*
X5679260Y-22799476D02*
X5688784Y-22789952D01*
X5688784Y-22789952D02*
X5707832Y-22780428D01*
X5707832Y-22780428D02*
X5736403Y-22780428D01*
X5736403Y-22780428D02*
X5755451Y-22789952D01*
X5755451Y-22789952D02*
X5764975Y-22799476D01*
X5764975Y-22799476D02*
X5774498Y-22818523D01*
X5774498Y-22818523D02*
X5774498Y-22875666D01*
X5774498Y-22875666D02*
X5764975Y-22894714D01*
X5764975Y-22894714D02*
X5755451Y-22904238D01*
X5755451Y-22904238D02*
X5736403Y-22913762D01*
X5736403Y-22913762D02*
X5707832Y-22913762D01*
X5888784Y-22913762D02*
X5869736Y-22904238D01*
X5869736Y-22904238D02*
X5860213Y-22885190D01*
X5860213Y-22885190D02*
X5860213Y-22713762D01*
X6041165Y-22904238D02*
X6022117Y-22913762D01*
X6022117Y-22913762D02*
X5984022Y-22913762D01*
X5984022Y-22913762D02*
X5964975Y-22904238D01*
X5964975Y-22904238D02*
X5955451Y-22885190D01*
X5955451Y-22885190D02*
X5955451Y-22809000D01*
X5955451Y-22809000D02*
X5964975Y-22789952D01*
X5964975Y-22789952D02*
X5984022Y-22780428D01*
X5984022Y-22780428D02*
X6022117Y-22780428D01*
X6022117Y-22780428D02*
X6041165Y-22789952D01*
X6041165Y-22789952D02*
X6050689Y-22809000D01*
X6050689Y-22809000D02*
X6050689Y-22828047D01*
X6050689Y-22828047D02*
X5955451Y-22847095D01*
X6126879Y-22904238D02*
X6145927Y-22913762D01*
X6145927Y-22913762D02*
X6184022Y-22913762D01*
X6184022Y-22913762D02*
X6203070Y-22904238D01*
X6203070Y-22904238D02*
X6212594Y-22885190D01*
X6212594Y-22885190D02*
X6212594Y-22875666D01*
X6212594Y-22875666D02*
X6203070Y-22856619D01*
X6203070Y-22856619D02*
X6184022Y-22847095D01*
X6184022Y-22847095D02*
X6155451Y-22847095D01*
X6155451Y-22847095D02*
X6136403Y-22837571D01*
X6136403Y-22837571D02*
X6126879Y-22818523D01*
X6126879Y-22818523D02*
X6126879Y-22809000D01*
X6126879Y-22809000D02*
X6136403Y-22789952D01*
X6136403Y-22789952D02*
X6155451Y-22780428D01*
X6155451Y-22780428D02*
X6184022Y-22780428D01*
X6184022Y-22780428D02*
X6203070Y-22789952D01*
X6279260Y-22989952D02*
X6288784Y-22980428D01*
X6288784Y-22980428D02*
X6307832Y-22951857D01*
X6307832Y-22951857D02*
X6317356Y-22932809D01*
X6317356Y-22932809D02*
X6326879Y-22904238D01*
X6326879Y-22904238D02*
X6336403Y-22856619D01*
X6336403Y-22856619D02*
X6336403Y-22818523D01*
X6336403Y-22818523D02*
X6326879Y-22770904D01*
X6326879Y-22770904D02*
X6317356Y-22742333D01*
X6317356Y-22742333D02*
X6307832Y-22723285D01*
X6307832Y-22723285D02*
X6288784Y-22694714D01*
X6288784Y-22694714D02*
X6279260Y-22685190D01*
D11*
X1073245Y-23036278D02*
X1073245Y-23136278D01*
X1023245Y-23086278D02*
X1123245Y-23086278D01*
D10*
X1488784Y-23177762D02*
X1374498Y-23177762D01*
X1431641Y-23177762D02*
X1431641Y-22977762D01*
X1431641Y-22977762D02*
X1412593Y-23006333D01*
X1412593Y-23006333D02*
X1393546Y-23025381D01*
X1393546Y-23025381D02*
X1374498Y-23034904D01*
X1574498Y-23158714D02*
X1584022Y-23168238D01*
X1584022Y-23168238D02*
X1574498Y-23177762D01*
X1574498Y-23177762D02*
X1564974Y-23168238D01*
X1564974Y-23168238D02*
X1574498Y-23158714D01*
X1574498Y-23158714D02*
X1574498Y-23177762D01*
X1707831Y-22977762D02*
X1726879Y-22977762D01*
X1726879Y-22977762D02*
X1745927Y-22987285D01*
X1745927Y-22987285D02*
X1755450Y-22996809D01*
X1755450Y-22996809D02*
X1764974Y-23015857D01*
X1764974Y-23015857D02*
X1774498Y-23053952D01*
X1774498Y-23053952D02*
X1774498Y-23101571D01*
X1774498Y-23101571D02*
X1764974Y-23139666D01*
X1764974Y-23139666D02*
X1755450Y-23158714D01*
X1755450Y-23158714D02*
X1745927Y-23168238D01*
X1745927Y-23168238D02*
X1726879Y-23177762D01*
X1726879Y-23177762D02*
X1707831Y-23177762D01*
X1707831Y-23177762D02*
X1688784Y-23168238D01*
X1688784Y-23168238D02*
X1679260Y-23158714D01*
X1679260Y-23158714D02*
X1669736Y-23139666D01*
X1669736Y-23139666D02*
X1660212Y-23101571D01*
X1660212Y-23101571D02*
X1660212Y-23053952D01*
X1660212Y-23053952D02*
X1669736Y-23015857D01*
X1669736Y-23015857D02*
X1679260Y-22996809D01*
X1679260Y-22996809D02*
X1688784Y-22987285D01*
X1688784Y-22987285D02*
X1707831Y-22977762D01*
X1898307Y-22977762D02*
X1917355Y-22977762D01*
X1917355Y-22977762D02*
X1936403Y-22987285D01*
X1936403Y-22987285D02*
X1945927Y-22996809D01*
X1945927Y-22996809D02*
X1955450Y-23015857D01*
X1955450Y-23015857D02*
X1964974Y-23053952D01*
X1964974Y-23053952D02*
X1964974Y-23101571D01*
X1964974Y-23101571D02*
X1955450Y-23139666D01*
X1955450Y-23139666D02*
X1945927Y-23158714D01*
X1945927Y-23158714D02*
X1936403Y-23168238D01*
X1936403Y-23168238D02*
X1917355Y-23177762D01*
X1917355Y-23177762D02*
X1898307Y-23177762D01*
X1898307Y-23177762D02*
X1879260Y-23168238D01*
X1879260Y-23168238D02*
X1869736Y-23158714D01*
X1869736Y-23158714D02*
X1860212Y-23139666D01*
X1860212Y-23139666D02*
X1850688Y-23101571D01*
X1850688Y-23101571D02*
X1850688Y-23053952D01*
X1850688Y-23053952D02*
X1860212Y-23015857D01*
X1860212Y-23015857D02*
X1869736Y-22996809D01*
X1869736Y-22996809D02*
X1879260Y-22987285D01*
X1879260Y-22987285D02*
X1898307Y-22977762D01*
X2088784Y-22977762D02*
X2107831Y-22977762D01*
X2107831Y-22977762D02*
X2126879Y-22987285D01*
X2126879Y-22987285D02*
X2136403Y-22996809D01*
X2136403Y-22996809D02*
X2145927Y-23015857D01*
X2145927Y-23015857D02*
X2155450Y-23053952D01*
X2155450Y-23053952D02*
X2155450Y-23101571D01*
X2155450Y-23101571D02*
X2145927Y-23139666D01*
X2145927Y-23139666D02*
X2136403Y-23158714D01*
X2136403Y-23158714D02*
X2126879Y-23168238D01*
X2126879Y-23168238D02*
X2107831Y-23177762D01*
X2107831Y-23177762D02*
X2088784Y-23177762D01*
X2088784Y-23177762D02*
X2069736Y-23168238D01*
X2069736Y-23168238D02*
X2060212Y-23158714D01*
X2060212Y-23158714D02*
X2050688Y-23139666D01*
X2050688Y-23139666D02*
X2041165Y-23101571D01*
X2041165Y-23101571D02*
X2041165Y-23053952D01*
X2041165Y-23053952D02*
X2050688Y-23015857D01*
X2050688Y-23015857D02*
X2060212Y-22996809D01*
X2060212Y-22996809D02*
X2069736Y-22987285D01*
X2069736Y-22987285D02*
X2088784Y-22977762D01*
X2241165Y-23177762D02*
X2241165Y-23044428D01*
X2241165Y-23063476D02*
X2250689Y-23053952D01*
X2250689Y-23053952D02*
X2269736Y-23044428D01*
X2269736Y-23044428D02*
X2298308Y-23044428D01*
X2298308Y-23044428D02*
X2317355Y-23053952D01*
X2317355Y-23053952D02*
X2326879Y-23073000D01*
X2326879Y-23073000D02*
X2326879Y-23177762D01*
X2326879Y-23073000D02*
X2336403Y-23053952D01*
X2336403Y-23053952D02*
X2355450Y-23044428D01*
X2355450Y-23044428D02*
X2384022Y-23044428D01*
X2384022Y-23044428D02*
X2403070Y-23053952D01*
X2403070Y-23053952D02*
X2412593Y-23073000D01*
X2412593Y-23073000D02*
X2412593Y-23177762D01*
X2507831Y-23177762D02*
X2507831Y-23044428D01*
X2507831Y-23063476D02*
X2517355Y-23053952D01*
X2517355Y-23053952D02*
X2536403Y-23044428D01*
X2536403Y-23044428D02*
X2564974Y-23044428D01*
X2564974Y-23044428D02*
X2584022Y-23053952D01*
X2584022Y-23053952D02*
X2593546Y-23073000D01*
X2593546Y-23073000D02*
X2593546Y-23177762D01*
X2593546Y-23073000D02*
X2603070Y-23053952D01*
X2603070Y-23053952D02*
X2622117Y-23044428D01*
X2622117Y-23044428D02*
X2650689Y-23044428D01*
X2650689Y-23044428D02*
X2669736Y-23053952D01*
X2669736Y-23053952D02*
X2679260Y-23073000D01*
X2679260Y-23073000D02*
X2679260Y-23177762D01*
X3069736Y-22968238D02*
X2898308Y-23225381D01*
X3326879Y-22977762D02*
X3345927Y-22977762D01*
X3345927Y-22977762D02*
X3364974Y-22987285D01*
X3364974Y-22987285D02*
X3374498Y-22996809D01*
X3374498Y-22996809D02*
X3384022Y-23015857D01*
X3384022Y-23015857D02*
X3393546Y-23053952D01*
X3393546Y-23053952D02*
X3393546Y-23101571D01*
X3393546Y-23101571D02*
X3384022Y-23139666D01*
X3384022Y-23139666D02*
X3374498Y-23158714D01*
X3374498Y-23158714D02*
X3364974Y-23168238D01*
X3364974Y-23168238D02*
X3345927Y-23177762D01*
X3345927Y-23177762D02*
X3326879Y-23177762D01*
X3326879Y-23177762D02*
X3307831Y-23168238D01*
X3307831Y-23168238D02*
X3298308Y-23158714D01*
X3298308Y-23158714D02*
X3288784Y-23139666D01*
X3288784Y-23139666D02*
X3279260Y-23101571D01*
X3279260Y-23101571D02*
X3279260Y-23053952D01*
X3279260Y-23053952D02*
X3288784Y-23015857D01*
X3288784Y-23015857D02*
X3298308Y-22996809D01*
X3298308Y-22996809D02*
X3307831Y-22987285D01*
X3307831Y-22987285D02*
X3326879Y-22977762D01*
X3479260Y-23158714D02*
X3488784Y-23168238D01*
X3488784Y-23168238D02*
X3479260Y-23177762D01*
X3479260Y-23177762D02*
X3469736Y-23168238D01*
X3469736Y-23168238D02*
X3479260Y-23158714D01*
X3479260Y-23158714D02*
X3479260Y-23177762D01*
X3612593Y-22977762D02*
X3631641Y-22977762D01*
X3631641Y-22977762D02*
X3650689Y-22987285D01*
X3650689Y-22987285D02*
X3660212Y-22996809D01*
X3660212Y-22996809D02*
X3669736Y-23015857D01*
X3669736Y-23015857D02*
X3679260Y-23053952D01*
X3679260Y-23053952D02*
X3679260Y-23101571D01*
X3679260Y-23101571D02*
X3669736Y-23139666D01*
X3669736Y-23139666D02*
X3660212Y-23158714D01*
X3660212Y-23158714D02*
X3650689Y-23168238D01*
X3650689Y-23168238D02*
X3631641Y-23177762D01*
X3631641Y-23177762D02*
X3612593Y-23177762D01*
X3612593Y-23177762D02*
X3593546Y-23168238D01*
X3593546Y-23168238D02*
X3584022Y-23158714D01*
X3584022Y-23158714D02*
X3574498Y-23139666D01*
X3574498Y-23139666D02*
X3564974Y-23101571D01*
X3564974Y-23101571D02*
X3564974Y-23053952D01*
X3564974Y-23053952D02*
X3574498Y-23015857D01*
X3574498Y-23015857D02*
X3584022Y-22996809D01*
X3584022Y-22996809D02*
X3593546Y-22987285D01*
X3593546Y-22987285D02*
X3612593Y-22977762D01*
X3745927Y-22977762D02*
X3869736Y-22977762D01*
X3869736Y-22977762D02*
X3803070Y-23053952D01*
X3803070Y-23053952D02*
X3831641Y-23053952D01*
X3831641Y-23053952D02*
X3850689Y-23063476D01*
X3850689Y-23063476D02*
X3860212Y-23073000D01*
X3860212Y-23073000D02*
X3869736Y-23092047D01*
X3869736Y-23092047D02*
X3869736Y-23139666D01*
X3869736Y-23139666D02*
X3860212Y-23158714D01*
X3860212Y-23158714D02*
X3850689Y-23168238D01*
X3850689Y-23168238D02*
X3831641Y-23177762D01*
X3831641Y-23177762D02*
X3774498Y-23177762D01*
X3774498Y-23177762D02*
X3755451Y-23168238D01*
X3755451Y-23168238D02*
X3745927Y-23158714D01*
X3964974Y-23177762D02*
X4003070Y-23177762D01*
X4003070Y-23177762D02*
X4022117Y-23168238D01*
X4022117Y-23168238D02*
X4031641Y-23158714D01*
X4031641Y-23158714D02*
X4050689Y-23130142D01*
X4050689Y-23130142D02*
X4060212Y-23092047D01*
X4060212Y-23092047D02*
X4060212Y-23015857D01*
X4060212Y-23015857D02*
X4050689Y-22996809D01*
X4050689Y-22996809D02*
X4041165Y-22987285D01*
X4041165Y-22987285D02*
X4022117Y-22977762D01*
X4022117Y-22977762D02*
X3984022Y-22977762D01*
X3984022Y-22977762D02*
X3964974Y-22987285D01*
X3964974Y-22987285D02*
X3955451Y-22996809D01*
X3955451Y-22996809D02*
X3945927Y-23015857D01*
X3945927Y-23015857D02*
X3945927Y-23063476D01*
X3945927Y-23063476D02*
X3955451Y-23082523D01*
X3955451Y-23082523D02*
X3964974Y-23092047D01*
X3964974Y-23092047D02*
X3984022Y-23101571D01*
X3984022Y-23101571D02*
X4022117Y-23101571D01*
X4022117Y-23101571D02*
X4041165Y-23092047D01*
X4041165Y-23092047D02*
X4050689Y-23082523D01*
X4050689Y-23082523D02*
X4060212Y-23063476D01*
X4231641Y-23044428D02*
X4231641Y-23177762D01*
X4184022Y-22968238D02*
X4136403Y-23111095D01*
X4136403Y-23111095D02*
X4260213Y-23111095D01*
X4326879Y-22977762D02*
X4326879Y-23015857D01*
X4403070Y-22977762D02*
X4403070Y-23015857D01*
X4698308Y-23253952D02*
X4688784Y-23244428D01*
X4688784Y-23244428D02*
X4669736Y-23215857D01*
X4669736Y-23215857D02*
X4660213Y-23196809D01*
X4660213Y-23196809D02*
X4650689Y-23168238D01*
X4650689Y-23168238D02*
X4641165Y-23120619D01*
X4641165Y-23120619D02*
X4641165Y-23082523D01*
X4641165Y-23082523D02*
X4650689Y-23034904D01*
X4650689Y-23034904D02*
X4660213Y-23006333D01*
X4660213Y-23006333D02*
X4669736Y-22987285D01*
X4669736Y-22987285D02*
X4688784Y-22958714D01*
X4688784Y-22958714D02*
X4698308Y-22949190D01*
X4879260Y-23177762D02*
X4764975Y-23177762D01*
X4822117Y-23177762D02*
X4822117Y-22977762D01*
X4822117Y-22977762D02*
X4803070Y-23006333D01*
X4803070Y-23006333D02*
X4784022Y-23025381D01*
X4784022Y-23025381D02*
X4764975Y-23034904D01*
X4955451Y-22996809D02*
X4964975Y-22987285D01*
X4964975Y-22987285D02*
X4984022Y-22977762D01*
X4984022Y-22977762D02*
X5031641Y-22977762D01*
X5031641Y-22977762D02*
X5050689Y-22987285D01*
X5050689Y-22987285D02*
X5060213Y-22996809D01*
X5060213Y-22996809D02*
X5069736Y-23015857D01*
X5069736Y-23015857D02*
X5069736Y-23034904D01*
X5069736Y-23034904D02*
X5060213Y-23063476D01*
X5060213Y-23063476D02*
X4945927Y-23177762D01*
X4945927Y-23177762D02*
X5069736Y-23177762D01*
X5307832Y-23177762D02*
X5307832Y-22977762D01*
X5393546Y-23177762D02*
X5393546Y-23073000D01*
X5393546Y-23073000D02*
X5384022Y-23053952D01*
X5384022Y-23053952D02*
X5364975Y-23044428D01*
X5364975Y-23044428D02*
X5336403Y-23044428D01*
X5336403Y-23044428D02*
X5317356Y-23053952D01*
X5317356Y-23053952D02*
X5307832Y-23063476D01*
X5517356Y-23177762D02*
X5498308Y-23168238D01*
X5498308Y-23168238D02*
X5488784Y-23158714D01*
X5488784Y-23158714D02*
X5479260Y-23139666D01*
X5479260Y-23139666D02*
X5479260Y-23082523D01*
X5479260Y-23082523D02*
X5488784Y-23063476D01*
X5488784Y-23063476D02*
X5498308Y-23053952D01*
X5498308Y-23053952D02*
X5517356Y-23044428D01*
X5517356Y-23044428D02*
X5545927Y-23044428D01*
X5545927Y-23044428D02*
X5564975Y-23053952D01*
X5564975Y-23053952D02*
X5574498Y-23063476D01*
X5574498Y-23063476D02*
X5584022Y-23082523D01*
X5584022Y-23082523D02*
X5584022Y-23139666D01*
X5584022Y-23139666D02*
X5574498Y-23158714D01*
X5574498Y-23158714D02*
X5564975Y-23168238D01*
X5564975Y-23168238D02*
X5545927Y-23177762D01*
X5545927Y-23177762D02*
X5517356Y-23177762D01*
X5698308Y-23177762D02*
X5679260Y-23168238D01*
X5679260Y-23168238D02*
X5669736Y-23149190D01*
X5669736Y-23149190D02*
X5669736Y-22977762D01*
X5850689Y-23168238D02*
X5831641Y-23177762D01*
X5831641Y-23177762D02*
X5793546Y-23177762D01*
X5793546Y-23177762D02*
X5774498Y-23168238D01*
X5774498Y-23168238D02*
X5764975Y-23149190D01*
X5764975Y-23149190D02*
X5764975Y-23073000D01*
X5764975Y-23073000D02*
X5774498Y-23053952D01*
X5774498Y-23053952D02*
X5793546Y-23044428D01*
X5793546Y-23044428D02*
X5831641Y-23044428D01*
X5831641Y-23044428D02*
X5850689Y-23053952D01*
X5850689Y-23053952D02*
X5860213Y-23073000D01*
X5860213Y-23073000D02*
X5860213Y-23092047D01*
X5860213Y-23092047D02*
X5764975Y-23111095D01*
X5936403Y-23168238D02*
X5955451Y-23177762D01*
X5955451Y-23177762D02*
X5993546Y-23177762D01*
X5993546Y-23177762D02*
X6012594Y-23168238D01*
X6012594Y-23168238D02*
X6022117Y-23149190D01*
X6022117Y-23149190D02*
X6022117Y-23139666D01*
X6022117Y-23139666D02*
X6012594Y-23120619D01*
X6012594Y-23120619D02*
X5993546Y-23111095D01*
X5993546Y-23111095D02*
X5964975Y-23111095D01*
X5964975Y-23111095D02*
X5945927Y-23101571D01*
X5945927Y-23101571D02*
X5936403Y-23082523D01*
X5936403Y-23082523D02*
X5936403Y-23073000D01*
X5936403Y-23073000D02*
X5945927Y-23053952D01*
X5945927Y-23053952D02*
X5964975Y-23044428D01*
X5964975Y-23044428D02*
X5993546Y-23044428D01*
X5993546Y-23044428D02*
X6012594Y-23053952D01*
X6088784Y-23253952D02*
X6098308Y-23244428D01*
X6098308Y-23244428D02*
X6117356Y-23215857D01*
X6117356Y-23215857D02*
X6126879Y-23196809D01*
X6126879Y-23196809D02*
X6136403Y-23168238D01*
X6136403Y-23168238D02*
X6145927Y-23120619D01*
X6145927Y-23120619D02*
X6145927Y-23082523D01*
X6145927Y-23082523D02*
X6136403Y-23034904D01*
X6136403Y-23034904D02*
X6126879Y-23006333D01*
X6126879Y-23006333D02*
X6117356Y-22987285D01*
X6117356Y-22987285D02*
X6098308Y-22958714D01*
X6098308Y-22958714D02*
X6088784Y-22949190D01*
D12*
X1107251Y-23388893D02*
X1107251Y-23311662D01*
X1030019Y-23311662D01*
X1030019Y-23388893D01*
X1107251Y-23388893D01*
D10*
X1488784Y-23441762D02*
X1374498Y-23441762D01*
X1431641Y-23441762D02*
X1431641Y-23241762D01*
X1431641Y-23241762D02*
X1412593Y-23270333D01*
X1412593Y-23270333D02*
X1393546Y-23289381D01*
X1393546Y-23289381D02*
X1374498Y-23298904D01*
X1574498Y-23422714D02*
X1584022Y-23432238D01*
X1584022Y-23432238D02*
X1574498Y-23441762D01*
X1574498Y-23441762D02*
X1564974Y-23432238D01*
X1564974Y-23432238D02*
X1574498Y-23422714D01*
X1574498Y-23422714D02*
X1574498Y-23441762D01*
X1707831Y-23241762D02*
X1726879Y-23241762D01*
X1726879Y-23241762D02*
X1745927Y-23251285D01*
X1745927Y-23251285D02*
X1755450Y-23260809D01*
X1755450Y-23260809D02*
X1764974Y-23279857D01*
X1764974Y-23279857D02*
X1774498Y-23317952D01*
X1774498Y-23317952D02*
X1774498Y-23365571D01*
X1774498Y-23365571D02*
X1764974Y-23403666D01*
X1764974Y-23403666D02*
X1755450Y-23422714D01*
X1755450Y-23422714D02*
X1745927Y-23432238D01*
X1745927Y-23432238D02*
X1726879Y-23441762D01*
X1726879Y-23441762D02*
X1707831Y-23441762D01*
X1707831Y-23441762D02*
X1688784Y-23432238D01*
X1688784Y-23432238D02*
X1679260Y-23422714D01*
X1679260Y-23422714D02*
X1669736Y-23403666D01*
X1669736Y-23403666D02*
X1660212Y-23365571D01*
X1660212Y-23365571D02*
X1660212Y-23317952D01*
X1660212Y-23317952D02*
X1669736Y-23279857D01*
X1669736Y-23279857D02*
X1679260Y-23260809D01*
X1679260Y-23260809D02*
X1688784Y-23251285D01*
X1688784Y-23251285D02*
X1707831Y-23241762D01*
X1869736Y-23441762D02*
X1907831Y-23441762D01*
X1907831Y-23441762D02*
X1926879Y-23432238D01*
X1926879Y-23432238D02*
X1936403Y-23422714D01*
X1936403Y-23422714D02*
X1955450Y-23394142D01*
X1955450Y-23394142D02*
X1964974Y-23356047D01*
X1964974Y-23356047D02*
X1964974Y-23279857D01*
X1964974Y-23279857D02*
X1955450Y-23260809D01*
X1955450Y-23260809D02*
X1945927Y-23251285D01*
X1945927Y-23251285D02*
X1926879Y-23241762D01*
X1926879Y-23241762D02*
X1888784Y-23241762D01*
X1888784Y-23241762D02*
X1869736Y-23251285D01*
X1869736Y-23251285D02*
X1860212Y-23260809D01*
X1860212Y-23260809D02*
X1850688Y-23279857D01*
X1850688Y-23279857D02*
X1850688Y-23327476D01*
X1850688Y-23327476D02*
X1860212Y-23346523D01*
X1860212Y-23346523D02*
X1869736Y-23356047D01*
X1869736Y-23356047D02*
X1888784Y-23365571D01*
X1888784Y-23365571D02*
X1926879Y-23365571D01*
X1926879Y-23365571D02*
X1945927Y-23356047D01*
X1945927Y-23356047D02*
X1955450Y-23346523D01*
X1955450Y-23346523D02*
X1964974Y-23327476D01*
X2041165Y-23260809D02*
X2050688Y-23251285D01*
X2050688Y-23251285D02*
X2069736Y-23241762D01*
X2069736Y-23241762D02*
X2117355Y-23241762D01*
X2117355Y-23241762D02*
X2136403Y-23251285D01*
X2136403Y-23251285D02*
X2145927Y-23260809D01*
X2145927Y-23260809D02*
X2155450Y-23279857D01*
X2155450Y-23279857D02*
X2155450Y-23298904D01*
X2155450Y-23298904D02*
X2145927Y-23327476D01*
X2145927Y-23327476D02*
X2031641Y-23441762D01*
X2031641Y-23441762D02*
X2155450Y-23441762D01*
X2241165Y-23441762D02*
X2241165Y-23308428D01*
X2241165Y-23327476D02*
X2250689Y-23317952D01*
X2250689Y-23317952D02*
X2269736Y-23308428D01*
X2269736Y-23308428D02*
X2298308Y-23308428D01*
X2298308Y-23308428D02*
X2317355Y-23317952D01*
X2317355Y-23317952D02*
X2326879Y-23337000D01*
X2326879Y-23337000D02*
X2326879Y-23441762D01*
X2326879Y-23337000D02*
X2336403Y-23317952D01*
X2336403Y-23317952D02*
X2355450Y-23308428D01*
X2355450Y-23308428D02*
X2384022Y-23308428D01*
X2384022Y-23308428D02*
X2403070Y-23317952D01*
X2403070Y-23317952D02*
X2412593Y-23337000D01*
X2412593Y-23337000D02*
X2412593Y-23441762D01*
X2507831Y-23441762D02*
X2507831Y-23308428D01*
X2507831Y-23327476D02*
X2517355Y-23317952D01*
X2517355Y-23317952D02*
X2536403Y-23308428D01*
X2536403Y-23308428D02*
X2564974Y-23308428D01*
X2564974Y-23308428D02*
X2584022Y-23317952D01*
X2584022Y-23317952D02*
X2593546Y-23337000D01*
X2593546Y-23337000D02*
X2593546Y-23441762D01*
X2593546Y-23337000D02*
X2603070Y-23317952D01*
X2603070Y-23317952D02*
X2622117Y-23308428D01*
X2622117Y-23308428D02*
X2650689Y-23308428D01*
X2650689Y-23308428D02*
X2669736Y-23317952D01*
X2669736Y-23317952D02*
X2679260Y-23337000D01*
X2679260Y-23337000D02*
X2679260Y-23441762D01*
X3069736Y-23232238D02*
X2898308Y-23489381D01*
X3326879Y-23241762D02*
X3345927Y-23241762D01*
X3345927Y-23241762D02*
X3364974Y-23251285D01*
X3364974Y-23251285D02*
X3374498Y-23260809D01*
X3374498Y-23260809D02*
X3384022Y-23279857D01*
X3384022Y-23279857D02*
X3393546Y-23317952D01*
X3393546Y-23317952D02*
X3393546Y-23365571D01*
X3393546Y-23365571D02*
X3384022Y-23403666D01*
X3384022Y-23403666D02*
X3374498Y-23422714D01*
X3374498Y-23422714D02*
X3364974Y-23432238D01*
X3364974Y-23432238D02*
X3345927Y-23441762D01*
X3345927Y-23441762D02*
X3326879Y-23441762D01*
X3326879Y-23441762D02*
X3307831Y-23432238D01*
X3307831Y-23432238D02*
X3298308Y-23422714D01*
X3298308Y-23422714D02*
X3288784Y-23403666D01*
X3288784Y-23403666D02*
X3279260Y-23365571D01*
X3279260Y-23365571D02*
X3279260Y-23317952D01*
X3279260Y-23317952D02*
X3288784Y-23279857D01*
X3288784Y-23279857D02*
X3298308Y-23260809D01*
X3298308Y-23260809D02*
X3307831Y-23251285D01*
X3307831Y-23251285D02*
X3326879Y-23241762D01*
X3479260Y-23422714D02*
X3488784Y-23432238D01*
X3488784Y-23432238D02*
X3479260Y-23441762D01*
X3479260Y-23441762D02*
X3469736Y-23432238D01*
X3469736Y-23432238D02*
X3479260Y-23422714D01*
X3479260Y-23422714D02*
X3479260Y-23441762D01*
X3612593Y-23241762D02*
X3631641Y-23241762D01*
X3631641Y-23241762D02*
X3650689Y-23251285D01*
X3650689Y-23251285D02*
X3660212Y-23260809D01*
X3660212Y-23260809D02*
X3669736Y-23279857D01*
X3669736Y-23279857D02*
X3679260Y-23317952D01*
X3679260Y-23317952D02*
X3679260Y-23365571D01*
X3679260Y-23365571D02*
X3669736Y-23403666D01*
X3669736Y-23403666D02*
X3660212Y-23422714D01*
X3660212Y-23422714D02*
X3650689Y-23432238D01*
X3650689Y-23432238D02*
X3631641Y-23441762D01*
X3631641Y-23441762D02*
X3612593Y-23441762D01*
X3612593Y-23441762D02*
X3593546Y-23432238D01*
X3593546Y-23432238D02*
X3584022Y-23422714D01*
X3584022Y-23422714D02*
X3574498Y-23403666D01*
X3574498Y-23403666D02*
X3564974Y-23365571D01*
X3564974Y-23365571D02*
X3564974Y-23317952D01*
X3564974Y-23317952D02*
X3574498Y-23279857D01*
X3574498Y-23279857D02*
X3584022Y-23260809D01*
X3584022Y-23260809D02*
X3593546Y-23251285D01*
X3593546Y-23251285D02*
X3612593Y-23241762D01*
X3850689Y-23308428D02*
X3850689Y-23441762D01*
X3803070Y-23232238D02*
X3755451Y-23375095D01*
X3755451Y-23375095D02*
X3879260Y-23375095D01*
X3936403Y-23241762D02*
X4060212Y-23241762D01*
X4060212Y-23241762D02*
X3993546Y-23317952D01*
X3993546Y-23317952D02*
X4022117Y-23317952D01*
X4022117Y-23317952D02*
X4041165Y-23327476D01*
X4041165Y-23327476D02*
X4050689Y-23337000D01*
X4050689Y-23337000D02*
X4060212Y-23356047D01*
X4060212Y-23356047D02*
X4060212Y-23403666D01*
X4060212Y-23403666D02*
X4050689Y-23422714D01*
X4050689Y-23422714D02*
X4041165Y-23432238D01*
X4041165Y-23432238D02*
X4022117Y-23441762D01*
X4022117Y-23441762D02*
X3964974Y-23441762D01*
X3964974Y-23441762D02*
X3945927Y-23432238D01*
X3945927Y-23432238D02*
X3936403Y-23422714D01*
X4184022Y-23241762D02*
X4203070Y-23241762D01*
X4203070Y-23241762D02*
X4222117Y-23251285D01*
X4222117Y-23251285D02*
X4231641Y-23260809D01*
X4231641Y-23260809D02*
X4241165Y-23279857D01*
X4241165Y-23279857D02*
X4250689Y-23317952D01*
X4250689Y-23317952D02*
X4250689Y-23365571D01*
X4250689Y-23365571D02*
X4241165Y-23403666D01*
X4241165Y-23403666D02*
X4231641Y-23422714D01*
X4231641Y-23422714D02*
X4222117Y-23432238D01*
X4222117Y-23432238D02*
X4203070Y-23441762D01*
X4203070Y-23441762D02*
X4184022Y-23441762D01*
X4184022Y-23441762D02*
X4164974Y-23432238D01*
X4164974Y-23432238D02*
X4155451Y-23422714D01*
X4155451Y-23422714D02*
X4145927Y-23403666D01*
X4145927Y-23403666D02*
X4136403Y-23365571D01*
X4136403Y-23365571D02*
X4136403Y-23317952D01*
X4136403Y-23317952D02*
X4145927Y-23279857D01*
X4145927Y-23279857D02*
X4155451Y-23260809D01*
X4155451Y-23260809D02*
X4164974Y-23251285D01*
X4164974Y-23251285D02*
X4184022Y-23241762D01*
X4326879Y-23241762D02*
X4326879Y-23279857D01*
X4403070Y-23241762D02*
X4403070Y-23279857D01*
X4698308Y-23517952D02*
X4688784Y-23508428D01*
X4688784Y-23508428D02*
X4669736Y-23479857D01*
X4669736Y-23479857D02*
X4660213Y-23460809D01*
X4660213Y-23460809D02*
X4650689Y-23432238D01*
X4650689Y-23432238D02*
X4641165Y-23384619D01*
X4641165Y-23384619D02*
X4641165Y-23346523D01*
X4641165Y-23346523D02*
X4650689Y-23298904D01*
X4650689Y-23298904D02*
X4660213Y-23270333D01*
X4660213Y-23270333D02*
X4669736Y-23251285D01*
X4669736Y-23251285D02*
X4688784Y-23222714D01*
X4688784Y-23222714D02*
X4698308Y-23213190D01*
X4764975Y-23260809D02*
X4774498Y-23251285D01*
X4774498Y-23251285D02*
X4793546Y-23241762D01*
X4793546Y-23241762D02*
X4841165Y-23241762D01*
X4841165Y-23241762D02*
X4860213Y-23251285D01*
X4860213Y-23251285D02*
X4869736Y-23260809D01*
X4869736Y-23260809D02*
X4879260Y-23279857D01*
X4879260Y-23279857D02*
X4879260Y-23298904D01*
X4879260Y-23298904D02*
X4869736Y-23327476D01*
X4869736Y-23327476D02*
X4755451Y-23441762D01*
X4755451Y-23441762D02*
X4879260Y-23441762D01*
X4974498Y-23441762D02*
X5012594Y-23441762D01*
X5012594Y-23441762D02*
X5031641Y-23432238D01*
X5031641Y-23432238D02*
X5041165Y-23422714D01*
X5041165Y-23422714D02*
X5060213Y-23394142D01*
X5060213Y-23394142D02*
X5069736Y-23356047D01*
X5069736Y-23356047D02*
X5069736Y-23279857D01*
X5069736Y-23279857D02*
X5060213Y-23260809D01*
X5060213Y-23260809D02*
X5050689Y-23251285D01*
X5050689Y-23251285D02*
X5031641Y-23241762D01*
X5031641Y-23241762D02*
X4993546Y-23241762D01*
X4993546Y-23241762D02*
X4974498Y-23251285D01*
X4974498Y-23251285D02*
X4964975Y-23260809D01*
X4964975Y-23260809D02*
X4955451Y-23279857D01*
X4955451Y-23279857D02*
X4955451Y-23327476D01*
X4955451Y-23327476D02*
X4964975Y-23346523D01*
X4964975Y-23346523D02*
X4974498Y-23356047D01*
X4974498Y-23356047D02*
X4993546Y-23365571D01*
X4993546Y-23365571D02*
X5031641Y-23365571D01*
X5031641Y-23365571D02*
X5050689Y-23356047D01*
X5050689Y-23356047D02*
X5060213Y-23346523D01*
X5060213Y-23346523D02*
X5069736Y-23327476D01*
X5307832Y-23441762D02*
X5307832Y-23241762D01*
X5393546Y-23441762D02*
X5393546Y-23337000D01*
X5393546Y-23337000D02*
X5384022Y-23317952D01*
X5384022Y-23317952D02*
X5364975Y-23308428D01*
X5364975Y-23308428D02*
X5336403Y-23308428D01*
X5336403Y-23308428D02*
X5317356Y-23317952D01*
X5317356Y-23317952D02*
X5307832Y-23327476D01*
X5517356Y-23441762D02*
X5498308Y-23432238D01*
X5498308Y-23432238D02*
X5488784Y-23422714D01*
X5488784Y-23422714D02*
X5479260Y-23403666D01*
X5479260Y-23403666D02*
X5479260Y-23346523D01*
X5479260Y-23346523D02*
X5488784Y-23327476D01*
X5488784Y-23327476D02*
X5498308Y-23317952D01*
X5498308Y-23317952D02*
X5517356Y-23308428D01*
X5517356Y-23308428D02*
X5545927Y-23308428D01*
X5545927Y-23308428D02*
X5564975Y-23317952D01*
X5564975Y-23317952D02*
X5574498Y-23327476D01*
X5574498Y-23327476D02*
X5584022Y-23346523D01*
X5584022Y-23346523D02*
X5584022Y-23403666D01*
X5584022Y-23403666D02*
X5574498Y-23422714D01*
X5574498Y-23422714D02*
X5564975Y-23432238D01*
X5564975Y-23432238D02*
X5545927Y-23441762D01*
X5545927Y-23441762D02*
X5517356Y-23441762D01*
X5698308Y-23441762D02*
X5679260Y-23432238D01*
X5679260Y-23432238D02*
X5669736Y-23413190D01*
X5669736Y-23413190D02*
X5669736Y-23241762D01*
X5850689Y-23432238D02*
X5831641Y-23441762D01*
X5831641Y-23441762D02*
X5793546Y-23441762D01*
X5793546Y-23441762D02*
X5774498Y-23432238D01*
X5774498Y-23432238D02*
X5764975Y-23413190D01*
X5764975Y-23413190D02*
X5764975Y-23337000D01*
X5764975Y-23337000D02*
X5774498Y-23317952D01*
X5774498Y-23317952D02*
X5793546Y-23308428D01*
X5793546Y-23308428D02*
X5831641Y-23308428D01*
X5831641Y-23308428D02*
X5850689Y-23317952D01*
X5850689Y-23317952D02*
X5860213Y-23337000D01*
X5860213Y-23337000D02*
X5860213Y-23356047D01*
X5860213Y-23356047D02*
X5764975Y-23375095D01*
X5936403Y-23432238D02*
X5955451Y-23441762D01*
X5955451Y-23441762D02*
X5993546Y-23441762D01*
X5993546Y-23441762D02*
X6012594Y-23432238D01*
X6012594Y-23432238D02*
X6022117Y-23413190D01*
X6022117Y-23413190D02*
X6022117Y-23403666D01*
X6022117Y-23403666D02*
X6012594Y-23384619D01*
X6012594Y-23384619D02*
X5993546Y-23375095D01*
X5993546Y-23375095D02*
X5964975Y-23375095D01*
X5964975Y-23375095D02*
X5945927Y-23365571D01*
X5945927Y-23365571D02*
X5936403Y-23346523D01*
X5936403Y-23346523D02*
X5936403Y-23337000D01*
X5936403Y-23337000D02*
X5945927Y-23317952D01*
X5945927Y-23317952D02*
X5964975Y-23308428D01*
X5964975Y-23308428D02*
X5993546Y-23308428D01*
X5993546Y-23308428D02*
X6012594Y-23317952D01*
X6088784Y-23517952D02*
X6098308Y-23508428D01*
X6098308Y-23508428D02*
X6117356Y-23479857D01*
X6117356Y-23479857D02*
X6126879Y-23460809D01*
X6126879Y-23460809D02*
X6136403Y-23432238D01*
X6136403Y-23432238D02*
X6145927Y-23384619D01*
X6145927Y-23384619D02*
X6145927Y-23346523D01*
X6145927Y-23346523D02*
X6136403Y-23298904D01*
X6136403Y-23298904D02*
X6126879Y-23270333D01*
X6126879Y-23270333D02*
X6117356Y-23251285D01*
X6117356Y-23251285D02*
X6098308Y-23222714D01*
X6098308Y-23222714D02*
X6088784Y-23213190D01*
X1023245Y-23714278D02*
X1123245Y-23614278D01*
X1023245Y-23514278D01*
X923245Y-23614278D01*
X1023245Y-23714278D01*
X1374498Y-23524809D02*
X1384022Y-23515285D01*
X1384022Y-23515285D02*
X1403069Y-23505762D01*
X1403069Y-23505762D02*
X1450688Y-23505762D01*
X1450688Y-23505762D02*
X1469736Y-23515285D01*
X1469736Y-23515285D02*
X1479260Y-23524809D01*
X1479260Y-23524809D02*
X1488784Y-23543857D01*
X1488784Y-23543857D02*
X1488784Y-23562904D01*
X1488784Y-23562904D02*
X1479260Y-23591476D01*
X1479260Y-23591476D02*
X1364974Y-23705762D01*
X1364974Y-23705762D02*
X1488784Y-23705762D01*
X1574498Y-23686714D02*
X1584022Y-23696238D01*
X1584022Y-23696238D02*
X1574498Y-23705762D01*
X1574498Y-23705762D02*
X1564974Y-23696238D01*
X1564974Y-23696238D02*
X1574498Y-23686714D01*
X1574498Y-23686714D02*
X1574498Y-23705762D01*
X1660212Y-23524809D02*
X1669736Y-23515285D01*
X1669736Y-23515285D02*
X1688784Y-23505762D01*
X1688784Y-23505762D02*
X1736403Y-23505762D01*
X1736403Y-23505762D02*
X1755450Y-23515285D01*
X1755450Y-23515285D02*
X1764974Y-23524809D01*
X1764974Y-23524809D02*
X1774498Y-23543857D01*
X1774498Y-23543857D02*
X1774498Y-23562904D01*
X1774498Y-23562904D02*
X1764974Y-23591476D01*
X1764974Y-23591476D02*
X1650688Y-23705762D01*
X1650688Y-23705762D02*
X1774498Y-23705762D01*
X1898307Y-23505762D02*
X1917355Y-23505762D01*
X1917355Y-23505762D02*
X1936403Y-23515285D01*
X1936403Y-23515285D02*
X1945927Y-23524809D01*
X1945927Y-23524809D02*
X1955450Y-23543857D01*
X1955450Y-23543857D02*
X1964974Y-23581952D01*
X1964974Y-23581952D02*
X1964974Y-23629571D01*
X1964974Y-23629571D02*
X1955450Y-23667666D01*
X1955450Y-23667666D02*
X1945927Y-23686714D01*
X1945927Y-23686714D02*
X1936403Y-23696238D01*
X1936403Y-23696238D02*
X1917355Y-23705762D01*
X1917355Y-23705762D02*
X1898307Y-23705762D01*
X1898307Y-23705762D02*
X1879260Y-23696238D01*
X1879260Y-23696238D02*
X1869736Y-23686714D01*
X1869736Y-23686714D02*
X1860212Y-23667666D01*
X1860212Y-23667666D02*
X1850688Y-23629571D01*
X1850688Y-23629571D02*
X1850688Y-23581952D01*
X1850688Y-23581952D02*
X1860212Y-23543857D01*
X1860212Y-23543857D02*
X1869736Y-23524809D01*
X1869736Y-23524809D02*
X1879260Y-23515285D01*
X1879260Y-23515285D02*
X1898307Y-23505762D01*
X2088784Y-23505762D02*
X2107831Y-23505762D01*
X2107831Y-23505762D02*
X2126879Y-23515285D01*
X2126879Y-23515285D02*
X2136403Y-23524809D01*
X2136403Y-23524809D02*
X2145927Y-23543857D01*
X2145927Y-23543857D02*
X2155450Y-23581952D01*
X2155450Y-23581952D02*
X2155450Y-23629571D01*
X2155450Y-23629571D02*
X2145927Y-23667666D01*
X2145927Y-23667666D02*
X2136403Y-23686714D01*
X2136403Y-23686714D02*
X2126879Y-23696238D01*
X2126879Y-23696238D02*
X2107831Y-23705762D01*
X2107831Y-23705762D02*
X2088784Y-23705762D01*
X2088784Y-23705762D02*
X2069736Y-23696238D01*
X2069736Y-23696238D02*
X2060212Y-23686714D01*
X2060212Y-23686714D02*
X2050688Y-23667666D01*
X2050688Y-23667666D02*
X2041165Y-23629571D01*
X2041165Y-23629571D02*
X2041165Y-23581952D01*
X2041165Y-23581952D02*
X2050688Y-23543857D01*
X2050688Y-23543857D02*
X2060212Y-23524809D01*
X2060212Y-23524809D02*
X2069736Y-23515285D01*
X2069736Y-23515285D02*
X2088784Y-23505762D01*
X2241165Y-23705762D02*
X2241165Y-23572428D01*
X2241165Y-23591476D02*
X2250689Y-23581952D01*
X2250689Y-23581952D02*
X2269736Y-23572428D01*
X2269736Y-23572428D02*
X2298308Y-23572428D01*
X2298308Y-23572428D02*
X2317355Y-23581952D01*
X2317355Y-23581952D02*
X2326879Y-23601000D01*
X2326879Y-23601000D02*
X2326879Y-23705762D01*
X2326879Y-23601000D02*
X2336403Y-23581952D01*
X2336403Y-23581952D02*
X2355450Y-23572428D01*
X2355450Y-23572428D02*
X2384022Y-23572428D01*
X2384022Y-23572428D02*
X2403070Y-23581952D01*
X2403070Y-23581952D02*
X2412593Y-23601000D01*
X2412593Y-23601000D02*
X2412593Y-23705762D01*
X2507831Y-23705762D02*
X2507831Y-23572428D01*
X2507831Y-23591476D02*
X2517355Y-23581952D01*
X2517355Y-23581952D02*
X2536403Y-23572428D01*
X2536403Y-23572428D02*
X2564974Y-23572428D01*
X2564974Y-23572428D02*
X2584022Y-23581952D01*
X2584022Y-23581952D02*
X2593546Y-23601000D01*
X2593546Y-23601000D02*
X2593546Y-23705762D01*
X2593546Y-23601000D02*
X2603070Y-23581952D01*
X2603070Y-23581952D02*
X2622117Y-23572428D01*
X2622117Y-23572428D02*
X2650689Y-23572428D01*
X2650689Y-23572428D02*
X2669736Y-23581952D01*
X2669736Y-23581952D02*
X2679260Y-23601000D01*
X2679260Y-23601000D02*
X2679260Y-23705762D01*
X3069736Y-23496238D02*
X2898308Y-23753381D01*
X3326879Y-23505762D02*
X3345927Y-23505762D01*
X3345927Y-23505762D02*
X3364974Y-23515285D01*
X3364974Y-23515285D02*
X3374498Y-23524809D01*
X3374498Y-23524809D02*
X3384022Y-23543857D01*
X3384022Y-23543857D02*
X3393546Y-23581952D01*
X3393546Y-23581952D02*
X3393546Y-23629571D01*
X3393546Y-23629571D02*
X3384022Y-23667666D01*
X3384022Y-23667666D02*
X3374498Y-23686714D01*
X3374498Y-23686714D02*
X3364974Y-23696238D01*
X3364974Y-23696238D02*
X3345927Y-23705762D01*
X3345927Y-23705762D02*
X3326879Y-23705762D01*
X3326879Y-23705762D02*
X3307831Y-23696238D01*
X3307831Y-23696238D02*
X3298308Y-23686714D01*
X3298308Y-23686714D02*
X3288784Y-23667666D01*
X3288784Y-23667666D02*
X3279260Y-23629571D01*
X3279260Y-23629571D02*
X3279260Y-23581952D01*
X3279260Y-23581952D02*
X3288784Y-23543857D01*
X3288784Y-23543857D02*
X3298308Y-23524809D01*
X3298308Y-23524809D02*
X3307831Y-23515285D01*
X3307831Y-23515285D02*
X3326879Y-23505762D01*
X3479260Y-23686714D02*
X3488784Y-23696238D01*
X3488784Y-23696238D02*
X3479260Y-23705762D01*
X3479260Y-23705762D02*
X3469736Y-23696238D01*
X3469736Y-23696238D02*
X3479260Y-23686714D01*
X3479260Y-23686714D02*
X3479260Y-23705762D01*
X3612593Y-23505762D02*
X3631641Y-23505762D01*
X3631641Y-23505762D02*
X3650689Y-23515285D01*
X3650689Y-23515285D02*
X3660212Y-23524809D01*
X3660212Y-23524809D02*
X3669736Y-23543857D01*
X3669736Y-23543857D02*
X3679260Y-23581952D01*
X3679260Y-23581952D02*
X3679260Y-23629571D01*
X3679260Y-23629571D02*
X3669736Y-23667666D01*
X3669736Y-23667666D02*
X3660212Y-23686714D01*
X3660212Y-23686714D02*
X3650689Y-23696238D01*
X3650689Y-23696238D02*
X3631641Y-23705762D01*
X3631641Y-23705762D02*
X3612593Y-23705762D01*
X3612593Y-23705762D02*
X3593546Y-23696238D01*
X3593546Y-23696238D02*
X3584022Y-23686714D01*
X3584022Y-23686714D02*
X3574498Y-23667666D01*
X3574498Y-23667666D02*
X3564974Y-23629571D01*
X3564974Y-23629571D02*
X3564974Y-23581952D01*
X3564974Y-23581952D02*
X3574498Y-23543857D01*
X3574498Y-23543857D02*
X3584022Y-23524809D01*
X3584022Y-23524809D02*
X3593546Y-23515285D01*
X3593546Y-23515285D02*
X3612593Y-23505762D01*
X3793546Y-23591476D02*
X3774498Y-23581952D01*
X3774498Y-23581952D02*
X3764974Y-23572428D01*
X3764974Y-23572428D02*
X3755451Y-23553381D01*
X3755451Y-23553381D02*
X3755451Y-23543857D01*
X3755451Y-23543857D02*
X3764974Y-23524809D01*
X3764974Y-23524809D02*
X3774498Y-23515285D01*
X3774498Y-23515285D02*
X3793546Y-23505762D01*
X3793546Y-23505762D02*
X3831641Y-23505762D01*
X3831641Y-23505762D02*
X3850689Y-23515285D01*
X3850689Y-23515285D02*
X3860212Y-23524809D01*
X3860212Y-23524809D02*
X3869736Y-23543857D01*
X3869736Y-23543857D02*
X3869736Y-23553381D01*
X3869736Y-23553381D02*
X3860212Y-23572428D01*
X3860212Y-23572428D02*
X3850689Y-23581952D01*
X3850689Y-23581952D02*
X3831641Y-23591476D01*
X3831641Y-23591476D02*
X3793546Y-23591476D01*
X3793546Y-23591476D02*
X3774498Y-23601000D01*
X3774498Y-23601000D02*
X3764974Y-23610523D01*
X3764974Y-23610523D02*
X3755451Y-23629571D01*
X3755451Y-23629571D02*
X3755451Y-23667666D01*
X3755451Y-23667666D02*
X3764974Y-23686714D01*
X3764974Y-23686714D02*
X3774498Y-23696238D01*
X3774498Y-23696238D02*
X3793546Y-23705762D01*
X3793546Y-23705762D02*
X3831641Y-23705762D01*
X3831641Y-23705762D02*
X3850689Y-23696238D01*
X3850689Y-23696238D02*
X3860212Y-23686714D01*
X3860212Y-23686714D02*
X3869736Y-23667666D01*
X3869736Y-23667666D02*
X3869736Y-23629571D01*
X3869736Y-23629571D02*
X3860212Y-23610523D01*
X3860212Y-23610523D02*
X3850689Y-23601000D01*
X3850689Y-23601000D02*
X3831641Y-23591476D01*
X4041165Y-23505762D02*
X4003070Y-23505762D01*
X4003070Y-23505762D02*
X3984022Y-23515285D01*
X3984022Y-23515285D02*
X3974498Y-23524809D01*
X3974498Y-23524809D02*
X3955451Y-23553381D01*
X3955451Y-23553381D02*
X3945927Y-23591476D01*
X3945927Y-23591476D02*
X3945927Y-23667666D01*
X3945927Y-23667666D02*
X3955451Y-23686714D01*
X3955451Y-23686714D02*
X3964974Y-23696238D01*
X3964974Y-23696238D02*
X3984022Y-23705762D01*
X3984022Y-23705762D02*
X4022117Y-23705762D01*
X4022117Y-23705762D02*
X4041165Y-23696238D01*
X4041165Y-23696238D02*
X4050689Y-23686714D01*
X4050689Y-23686714D02*
X4060212Y-23667666D01*
X4060212Y-23667666D02*
X4060212Y-23620047D01*
X4060212Y-23620047D02*
X4050689Y-23601000D01*
X4050689Y-23601000D02*
X4041165Y-23591476D01*
X4041165Y-23591476D02*
X4022117Y-23581952D01*
X4022117Y-23581952D02*
X3984022Y-23581952D01*
X3984022Y-23581952D02*
X3964974Y-23591476D01*
X3964974Y-23591476D02*
X3955451Y-23601000D01*
X3955451Y-23601000D02*
X3945927Y-23620047D01*
X4231641Y-23505762D02*
X4193546Y-23505762D01*
X4193546Y-23505762D02*
X4174498Y-23515285D01*
X4174498Y-23515285D02*
X4164974Y-23524809D01*
X4164974Y-23524809D02*
X4145927Y-23553381D01*
X4145927Y-23553381D02*
X4136403Y-23591476D01*
X4136403Y-23591476D02*
X4136403Y-23667666D01*
X4136403Y-23667666D02*
X4145927Y-23686714D01*
X4145927Y-23686714D02*
X4155451Y-23696238D01*
X4155451Y-23696238D02*
X4174498Y-23705762D01*
X4174498Y-23705762D02*
X4212594Y-23705762D01*
X4212594Y-23705762D02*
X4231641Y-23696238D01*
X4231641Y-23696238D02*
X4241165Y-23686714D01*
X4241165Y-23686714D02*
X4250689Y-23667666D01*
X4250689Y-23667666D02*
X4250689Y-23620047D01*
X4250689Y-23620047D02*
X4241165Y-23601000D01*
X4241165Y-23601000D02*
X4231641Y-23591476D01*
X4231641Y-23591476D02*
X4212594Y-23581952D01*
X4212594Y-23581952D02*
X4174498Y-23581952D01*
X4174498Y-23581952D02*
X4155451Y-23591476D01*
X4155451Y-23591476D02*
X4145927Y-23601000D01*
X4145927Y-23601000D02*
X4136403Y-23620047D01*
X4326879Y-23505762D02*
X4326879Y-23543857D01*
X4403070Y-23505762D02*
X4403070Y-23543857D01*
X4698308Y-23781952D02*
X4688784Y-23772428D01*
X4688784Y-23772428D02*
X4669736Y-23743857D01*
X4669736Y-23743857D02*
X4660213Y-23724809D01*
X4660213Y-23724809D02*
X4650689Y-23696238D01*
X4650689Y-23696238D02*
X4641165Y-23648619D01*
X4641165Y-23648619D02*
X4641165Y-23610523D01*
X4641165Y-23610523D02*
X4650689Y-23562904D01*
X4650689Y-23562904D02*
X4660213Y-23534333D01*
X4660213Y-23534333D02*
X4669736Y-23515285D01*
X4669736Y-23515285D02*
X4688784Y-23486714D01*
X4688784Y-23486714D02*
X4698308Y-23477190D01*
X4879260Y-23705762D02*
X4764975Y-23705762D01*
X4822117Y-23705762D02*
X4822117Y-23505762D01*
X4822117Y-23505762D02*
X4803070Y-23534333D01*
X4803070Y-23534333D02*
X4784022Y-23553381D01*
X4784022Y-23553381D02*
X4764975Y-23562904D01*
X5003070Y-23505762D02*
X5022117Y-23505762D01*
X5022117Y-23505762D02*
X5041165Y-23515285D01*
X5041165Y-23515285D02*
X5050689Y-23524809D01*
X5050689Y-23524809D02*
X5060213Y-23543857D01*
X5060213Y-23543857D02*
X5069736Y-23581952D01*
X5069736Y-23581952D02*
X5069736Y-23629571D01*
X5069736Y-23629571D02*
X5060213Y-23667666D01*
X5060213Y-23667666D02*
X5050689Y-23686714D01*
X5050689Y-23686714D02*
X5041165Y-23696238D01*
X5041165Y-23696238D02*
X5022117Y-23705762D01*
X5022117Y-23705762D02*
X5003070Y-23705762D01*
X5003070Y-23705762D02*
X4984022Y-23696238D01*
X4984022Y-23696238D02*
X4974498Y-23686714D01*
X4974498Y-23686714D02*
X4964975Y-23667666D01*
X4964975Y-23667666D02*
X4955451Y-23629571D01*
X4955451Y-23629571D02*
X4955451Y-23581952D01*
X4955451Y-23581952D02*
X4964975Y-23543857D01*
X4964975Y-23543857D02*
X4974498Y-23524809D01*
X4974498Y-23524809D02*
X4984022Y-23515285D01*
X4984022Y-23515285D02*
X5003070Y-23505762D01*
X5307832Y-23705762D02*
X5307832Y-23505762D01*
X5393546Y-23705762D02*
X5393546Y-23601000D01*
X5393546Y-23601000D02*
X5384022Y-23581952D01*
X5384022Y-23581952D02*
X5364975Y-23572428D01*
X5364975Y-23572428D02*
X5336403Y-23572428D01*
X5336403Y-23572428D02*
X5317356Y-23581952D01*
X5317356Y-23581952D02*
X5307832Y-23591476D01*
X5517356Y-23705762D02*
X5498308Y-23696238D01*
X5498308Y-23696238D02*
X5488784Y-23686714D01*
X5488784Y-23686714D02*
X5479260Y-23667666D01*
X5479260Y-23667666D02*
X5479260Y-23610523D01*
X5479260Y-23610523D02*
X5488784Y-23591476D01*
X5488784Y-23591476D02*
X5498308Y-23581952D01*
X5498308Y-23581952D02*
X5517356Y-23572428D01*
X5517356Y-23572428D02*
X5545927Y-23572428D01*
X5545927Y-23572428D02*
X5564975Y-23581952D01*
X5564975Y-23581952D02*
X5574498Y-23591476D01*
X5574498Y-23591476D02*
X5584022Y-23610523D01*
X5584022Y-23610523D02*
X5584022Y-23667666D01*
X5584022Y-23667666D02*
X5574498Y-23686714D01*
X5574498Y-23686714D02*
X5564975Y-23696238D01*
X5564975Y-23696238D02*
X5545927Y-23705762D01*
X5545927Y-23705762D02*
X5517356Y-23705762D01*
X5698308Y-23705762D02*
X5679260Y-23696238D01*
X5679260Y-23696238D02*
X5669736Y-23677190D01*
X5669736Y-23677190D02*
X5669736Y-23505762D01*
X5850689Y-23696238D02*
X5831641Y-23705762D01*
X5831641Y-23705762D02*
X5793546Y-23705762D01*
X5793546Y-23705762D02*
X5774498Y-23696238D01*
X5774498Y-23696238D02*
X5764975Y-23677190D01*
X5764975Y-23677190D02*
X5764975Y-23601000D01*
X5764975Y-23601000D02*
X5774498Y-23581952D01*
X5774498Y-23581952D02*
X5793546Y-23572428D01*
X5793546Y-23572428D02*
X5831641Y-23572428D01*
X5831641Y-23572428D02*
X5850689Y-23581952D01*
X5850689Y-23581952D02*
X5860213Y-23601000D01*
X5860213Y-23601000D02*
X5860213Y-23620047D01*
X5860213Y-23620047D02*
X5764975Y-23639095D01*
X5936403Y-23696238D02*
X5955451Y-23705762D01*
X5955451Y-23705762D02*
X5993546Y-23705762D01*
X5993546Y-23705762D02*
X6012594Y-23696238D01*
X6012594Y-23696238D02*
X6022117Y-23677190D01*
X6022117Y-23677190D02*
X6022117Y-23667666D01*
X6022117Y-23667666D02*
X6012594Y-23648619D01*
X6012594Y-23648619D02*
X5993546Y-23639095D01*
X5993546Y-23639095D02*
X5964975Y-23639095D01*
X5964975Y-23639095D02*
X5945927Y-23629571D01*
X5945927Y-23629571D02*
X5936403Y-23610523D01*
X5936403Y-23610523D02*
X5936403Y-23601000D01*
X5936403Y-23601000D02*
X5945927Y-23581952D01*
X5945927Y-23581952D02*
X5964975Y-23572428D01*
X5964975Y-23572428D02*
X5993546Y-23572428D01*
X5993546Y-23572428D02*
X6012594Y-23581952D01*
X6088784Y-23781952D02*
X6098308Y-23772428D01*
X6098308Y-23772428D02*
X6117356Y-23743857D01*
X6117356Y-23743857D02*
X6126879Y-23724809D01*
X6126879Y-23724809D02*
X6136403Y-23696238D01*
X6136403Y-23696238D02*
X6145927Y-23648619D01*
X6145927Y-23648619D02*
X6145927Y-23610523D01*
X6145927Y-23610523D02*
X6136403Y-23562904D01*
X6136403Y-23562904D02*
X6126879Y-23534333D01*
X6126879Y-23534333D02*
X6117356Y-23515285D01*
X6117356Y-23515285D02*
X6098308Y-23486714D01*
X6098308Y-23486714D02*
X6088784Y-23477190D01*
M02*
