G04 #@! TF.GenerationSoftware,KiCad,Pcbnew,8.0.6*
G04 #@! TF.CreationDate,2024-10-27T19:10:16+01:00*
G04 #@! TF.ProjectId,pterodactyl,70746572-6f64-4616-9374-796c2e6b6963,rev?*
G04 #@! TF.SameCoordinates,Original*
G04 #@! TF.FileFunction,Soldermask,Bot*
G04 #@! TF.FilePolarity,Negative*
%FSLAX46Y46*%
G04 Gerber Fmt 4.6, Leading zero omitted, Abs format (unit mm)*
G04 Created by KiCad (PCBNEW 8.0.6) date 2024-10-27 19:10:16*
%MOMM*%
%LPD*%
G01*
G04 APERTURE LIST*
G04 Aperture macros list*
%AMHorizOval*
0 Thick line with rounded ends*
0 $1 width*
0 $2 $3 position (X,Y) of the first rounded end (center of the circle)*
0 $4 $5 position (X,Y) of the second rounded end (center of the circle)*
0 Add line between two ends*
20,1,$1,$2,$3,$4,$5,0*
0 Add two circle primitives to create the rounded ends*
1,1,$1,$2,$3*
1,1,$1,$4,$5*%
%AMRotRect*
0 Rectangle, with rotation*
0 The origin of the aperture is its center*
0 $1 length*
0 $2 width*
0 $3 Rotation angle, in degrees counterclockwise*
0 Add horizontal line*
21,1,$1,$2,0,0,$3*%
G04 Aperture macros list end*
%ADD10C,1.701800*%
%ADD11C,3.000000*%
%ADD12C,3.987800*%
%ADD13RotRect,2.550000X2.500000X17.000000*%
%ADD14RotRect,1.600000X1.600000X73.000000*%
%ADD15HorizOval,1.600000X0.000000X0.000000X0.000000X0.000000X0*%
%ADD16RotRect,2.550000X2.500000X343.000000*%
%ADD17R,1.600000X1.600000*%
%ADD18O,1.600000X1.600000*%
%ADD19RotRect,1.600000X1.600000X197.000000*%
%ADD20HorizOval,1.600000X0.000000X0.000000X0.000000X0.000000X0*%
%ADD21RotRect,1.600000X1.600000X107.000000*%
%ADD22HorizOval,1.600000X0.000000X0.000000X0.000000X0.000000X0*%
%ADD23R,2.550000X2.500000*%
%ADD24RotRect,1.600000X1.600000X163.000000*%
%ADD25HorizOval,1.600000X0.000000X0.000000X0.000000X0.000000X0*%
%ADD26O,3.200000X2.000000*%
%ADD27R,2.000000X2.000000*%
%ADD28C,2.000000*%
%ADD29C,1.752600*%
%ADD30R,1.752600X1.752600*%
%ADD31R,1.700000X1.700000*%
%ADD32O,1.700000X1.700000*%
G04 APERTURE END LIST*
D10*
X283380640Y-205822115D03*
D11*
X283852523Y-203021789D03*
D12*
X288238668Y-204336867D03*
D11*
X289182434Y-198736215D03*
D10*
X293096696Y-202851619D03*
D13*
X292768577Y-197639821D03*
X280266380Y-204118183D03*
D14*
X69979179Y-110122702D03*
D15*
X72207051Y-102835660D03*
D10*
X106954088Y-137282365D03*
D11*
X108911219Y-135224663D03*
D12*
X111812116Y-138767613D03*
D11*
X115726378Y-134652209D03*
D10*
X116670144Y-140252861D03*
D16*
X119312521Y-135748603D03*
X105325076Y-134128269D03*
D10*
X314360633Y-176511194D03*
D11*
X314832516Y-173710868D03*
D12*
X319218661Y-175025946D03*
D11*
X320162427Y-169425294D03*
D10*
X324076689Y-173540698D03*
D13*
X323748570Y-168328900D03*
X311246373Y-174807262D03*
D10*
X83143560Y-149842143D03*
D11*
X85100691Y-147784441D03*
D12*
X88001588Y-151327391D03*
D11*
X91915850Y-147211987D03*
D10*
X92859616Y-152812639D03*
D16*
X95501993Y-148308381D03*
X81514548Y-146688047D03*
D10*
X130764620Y-124722591D03*
D11*
X132721751Y-122664889D03*
D12*
X135622648Y-126207839D03*
D11*
X139536910Y-122092435D03*
D10*
X140480676Y-127693087D03*
D16*
X143123053Y-123188829D03*
X129135608Y-121568495D03*
D10*
X277833617Y-187678624D03*
D11*
X278305500Y-184878298D03*
D12*
X282691645Y-186193376D03*
D11*
X283635411Y-180592724D03*
D10*
X287549673Y-184708128D03*
D13*
X287221554Y-179496330D03*
X274719357Y-185974692D03*
D17*
X212029191Y-139140000D03*
D18*
X212029191Y-146760000D03*
D14*
X124769705Y-126873845D03*
D15*
X126997577Y-119586803D03*
D14*
X120764794Y-205006969D03*
D15*
X122992666Y-197719927D03*
D10*
X101407066Y-155425857D03*
D11*
X103364197Y-153368155D03*
D12*
X106265094Y-156911105D03*
D11*
X110179356Y-152795701D03*
D10*
X111123122Y-158396353D03*
D16*
X113765499Y-153892095D03*
X99778054Y-152271761D03*
D10*
X41069518Y-156818206D03*
D11*
X43026649Y-154760504D03*
D12*
X45927546Y-158303454D03*
D11*
X49841808Y-154188050D03*
D10*
X50785574Y-159788702D03*
D16*
X53427951Y-155284444D03*
X39440506Y-153664110D03*
D19*
X295670886Y-152466143D03*
D20*
X288383844Y-154694015D03*
D21*
X310584219Y-181649845D03*
D22*
X308356347Y-174362803D03*
D14*
X29527584Y-177112953D03*
D15*
X31755456Y-169825911D03*
D10*
X303266590Y-140224210D03*
D11*
X303738473Y-137423884D03*
D12*
X308124618Y-138738962D03*
D11*
X309068384Y-133138310D03*
D10*
X312982646Y-137253714D03*
D13*
X312654527Y-132041916D03*
X300152330Y-138520278D03*
D10*
X296097126Y-182094907D03*
D11*
X296569009Y-179294581D03*
D12*
X300955154Y-180609659D03*
D11*
X301898920Y-175009007D03*
D10*
X305813182Y-179124411D03*
D13*
X305485063Y-173912613D03*
X292982866Y-180390975D03*
D10*
X75974095Y-107971444D03*
D11*
X77931226Y-105913742D03*
D12*
X80832123Y-109456692D03*
D11*
X84746385Y-105341288D03*
D10*
X85690151Y-110941940D03*
D16*
X88332528Y-106437682D03*
X74345083Y-104817348D03*
D14*
X40621628Y-140825969D03*
D15*
X42849500Y-133538927D03*
D21*
X323281960Y-157928367D03*
D22*
X321054088Y-150641325D03*
D10*
X22806012Y-151234490D03*
D11*
X24763143Y-149176788D03*
D12*
X27664040Y-152719738D03*
D11*
X31578302Y-148604334D03*
D10*
X32522068Y-154204986D03*
D16*
X35164445Y-149700728D03*
X21177000Y-148080394D03*
D10*
X352435118Y-105352494D03*
D11*
X352907001Y-102552168D03*
D12*
X357293146Y-103867246D03*
D11*
X358236912Y-98266594D03*
D10*
X362151174Y-102381998D03*
D13*
X361823055Y-97170200D03*
X349320858Y-103648562D03*
D10*
X301644148Y-200238399D03*
D11*
X302116031Y-197438073D03*
D12*
X306502176Y-198753151D03*
D11*
X307445942Y-193152499D03*
D10*
X311360204Y-197267903D03*
D13*
X311032085Y-192056105D03*
X298529888Y-198534467D03*
D10*
X387320948Y-154204987D03*
D11*
X387792831Y-151404661D03*
D12*
X392178976Y-152719739D03*
D11*
X393122742Y-147119087D03*
D10*
X397037004Y-151234491D03*
D13*
X396708885Y-146022693D03*
X384206688Y-152501055D03*
D14*
X88242686Y-115706414D03*
D15*
X90470558Y-108419372D03*
D21*
X383563276Y-159337906D03*
D22*
X381335404Y-152050864D03*
D10*
X215978000Y-210452500D03*
D11*
X217248000Y-207912500D03*
D12*
X221058000Y-210452500D03*
D11*
X223598000Y-205372500D03*
D10*
X226138000Y-210452500D03*
D23*
X227348000Y-205372500D03*
X213498000Y-207912500D03*
D17*
X220956463Y-139140000D03*
D18*
X220956463Y-146760000D03*
D10*
X28353033Y-133090998D03*
D11*
X30310164Y-131033296D03*
D12*
X33211061Y-134576246D03*
D11*
X37125323Y-130460842D03*
D10*
X38069089Y-136061494D03*
D16*
X40711466Y-131557236D03*
X26724021Y-129936902D03*
D14*
X102581615Y-199447812D03*
D15*
X104809487Y-192160770D03*
D21*
X389110297Y-177481399D03*
D22*
X386882425Y-170194357D03*
D10*
X196880000Y-191480000D03*
D11*
X198150000Y-188940000D03*
D12*
X201960000Y-191480000D03*
D11*
X204500000Y-186400000D03*
D10*
X207040000Y-191480000D03*
D23*
X208250000Y-186400000D03*
X194400000Y-188940000D03*
D10*
X315945588Y-116508464D03*
D11*
X316417471Y-113708138D03*
D12*
X320803616Y-115023216D03*
D11*
X321747382Y-109422564D03*
D10*
X325661644Y-113537968D03*
D13*
X325333525Y-108326170D03*
X312831328Y-114804532D03*
D10*
X112501111Y-119138874D03*
D11*
X114458242Y-117081172D03*
D12*
X117359139Y-120624122D03*
D11*
X121273401Y-116508718D03*
D10*
X122217167Y-122109370D03*
D16*
X124859544Y-117605112D03*
X110872099Y-115984778D03*
D10*
X308813612Y-158367702D03*
D11*
X309285495Y-155567376D03*
D12*
X313671640Y-156882454D03*
D11*
X314615406Y-151281802D03*
D10*
X318529668Y-155397206D03*
D13*
X318201549Y-150185408D03*
X305699352Y-156663770D03*
D10*
X33900054Y-114947507D03*
D11*
X35857185Y-112889805D03*
D12*
X38758082Y-116432755D03*
D11*
X42672344Y-112317351D03*
D10*
X43616110Y-117918003D03*
D16*
X46258487Y-113413745D03*
X32271042Y-111793411D03*
D21*
X330432682Y-116063401D03*
D22*
X328204810Y-108776359D03*
D14*
X58885135Y-146409685D03*
D15*
X61113007Y-139122643D03*
D24*
X44567863Y-108289289D03*
D25*
X37280821Y-106061417D03*
D10*
X126746319Y-202851619D03*
D11*
X128703450Y-200793917D03*
D12*
X131604347Y-204336867D03*
D11*
X135518609Y-200221463D03*
D10*
X136462375Y-205822115D03*
D16*
X139104752Y-201317857D03*
X125117307Y-199697523D03*
D10*
X392867969Y-172348479D03*
D11*
X393339852Y-169548153D03*
D12*
X397725997Y-170863231D03*
D11*
X398669763Y-165262579D03*
D10*
X402584025Y-169377983D03*
D13*
X402255906Y-164166185D03*
X389753709Y-170644547D03*
D21*
X366922211Y-104907431D03*
D22*
X364694339Y-97620389D03*
D21*
X316131241Y-199793336D03*
D22*
X313903369Y-192506294D03*
D10*
X119670574Y-161009572D03*
D11*
X121627705Y-158951870D03*
D12*
X124528602Y-162494820D03*
D11*
X128442864Y-158379416D03*
D10*
X129386630Y-163980068D03*
D16*
X132029007Y-159475810D03*
X118041562Y-157855476D03*
D21*
X335979704Y-134206893D03*
D22*
X333751832Y-126919851D03*
D17*
X189711011Y-139140000D03*
D18*
X189711011Y-146760000D03*
D21*
X352620769Y-188637369D03*
D22*
X350392897Y-181350327D03*
D21*
X305037197Y-163506353D03*
D22*
X302809325Y-156219311D03*
D21*
X341526726Y-152350385D03*
D22*
X339298854Y-145063343D03*
D21*
X312187917Y-121641384D03*
D22*
X309960045Y-114354342D03*
D10*
X46616541Y-138674714D03*
D11*
X48573672Y-136617012D03*
D12*
X51474569Y-140159962D03*
D11*
X55388831Y-136044558D03*
D10*
X56332597Y-141645210D03*
D16*
X58974974Y-137140952D03*
X44987529Y-135520618D03*
D17*
X229883735Y-139140000D03*
D18*
X229883735Y-146760000D03*
D10*
X290550104Y-163951416D03*
D11*
X291021987Y-161151090D03*
D12*
X295408132Y-162466168D03*
D11*
X296351898Y-156865516D03*
D10*
X300266160Y-160980920D03*
D13*
X299938041Y-155769122D03*
X287435844Y-162247484D03*
D17*
X185247375Y-139140000D03*
D18*
X185247375Y-146760000D03*
D10*
X53786005Y-180545414D03*
D11*
X55743136Y-178487712D03*
D12*
X58644033Y-182030662D03*
D11*
X62558295Y-177915258D03*
D10*
X63502061Y-183515910D03*
D16*
X66144438Y-179011652D03*
X52156993Y-177391318D03*
D21*
X317734939Y-139784876D03*
D22*
X315507067Y-132497834D03*
D10*
X350887648Y-165343763D03*
D11*
X351359531Y-162543437D03*
D12*
X355745676Y-163858515D03*
D11*
X356689442Y-158257863D03*
D10*
X360603704Y-162373267D03*
D13*
X360275585Y-157161469D03*
X347773388Y-163639831D03*
D14*
X106506197Y-121290131D03*
D15*
X108734069Y-114003089D03*
D10*
X370679882Y-99774511D03*
D11*
X371151765Y-96974185D03*
D12*
X375537910Y-98289263D03*
D11*
X376481676Y-92688611D03*
D10*
X380395938Y-96804015D03*
D13*
X380067819Y-91592217D03*
X367565622Y-98070579D03*
D10*
X321530098Y-134640495D03*
D11*
X322001981Y-131840169D03*
D12*
X326388126Y-133155247D03*
D11*
X327331892Y-127554595D03*
D10*
X331246154Y-131669999D03*
D13*
X330918035Y-126458201D03*
X318415838Y-132936563D03*
D21*
X299490174Y-145362862D03*
D22*
X297262302Y-138075820D03*
D10*
X95860045Y-173569351D03*
D11*
X97817176Y-171511649D03*
D12*
X100718073Y-175054599D03*
D11*
X104632335Y-170939195D03*
D10*
X105576101Y-176539847D03*
D16*
X108218478Y-172035589D03*
X94231033Y-170415255D03*
D21*
X372469233Y-123050923D03*
D22*
X370241361Y-115763881D03*
D10*
X215978000Y-172507500D03*
D11*
X217248000Y-169967500D03*
D12*
X221058000Y-172507500D03*
D11*
X223598000Y-167427500D03*
D10*
X226138000Y-172507500D03*
D23*
X227348000Y-167427500D03*
X213498000Y-169967500D03*
D24*
X33626219Y-144077798D03*
D25*
X26339177Y-141849926D03*
D10*
X88690581Y-131698653D03*
D11*
X90647712Y-129640951D03*
D12*
X93548609Y-133183901D03*
D11*
X97462871Y-129068497D03*
D10*
X98406637Y-134669149D03*
D16*
X101049014Y-130164891D03*
X87061569Y-128544557D03*
D24*
X39029248Y-126405287D03*
D25*
X31742206Y-124177415D03*
D21*
X365318513Y-164915892D03*
D22*
X363090641Y-157628850D03*
D17*
X234347375Y-139140000D03*
D18*
X234347375Y-146760000D03*
D14*
X113675660Y-163160828D03*
D15*
X115903532Y-155873786D03*
D21*
X378016254Y-141194414D03*
D22*
X375788382Y-133907372D03*
D21*
X359771490Y-146772401D03*
D22*
X357543618Y-139485359D03*
D14*
X82695664Y-133849906D03*
D15*
X84923536Y-126562864D03*
D10*
X114123553Y-179153064D03*
D11*
X116080684Y-177095362D03*
D12*
X118981581Y-180638312D03*
D11*
X122895843Y-176522908D03*
D10*
X123839609Y-182123560D03*
D16*
X126481986Y-177619302D03*
X112494541Y-175998968D03*
D10*
X235076000Y-191480000D03*
D11*
X236346000Y-188940000D03*
D12*
X240156000Y-191480000D03*
D11*
X242696000Y-186400000D03*
D10*
X245236000Y-191480000D03*
D23*
X246446000Y-186400000D03*
X232596000Y-188940000D03*
D21*
X292330081Y-187230694D03*
D22*
X290102209Y-179943652D03*
D10*
X381773927Y-136061495D03*
D11*
X382245810Y-133261169D03*
D12*
X386631955Y-134576247D03*
D11*
X387575721Y-128975595D03*
D10*
X391489983Y-133090999D03*
D13*
X391161864Y-127879201D03*
X378659667Y-134357563D03*
D19*
X290123864Y-134322651D03*
D20*
X282836822Y-136550523D03*
D10*
X334190351Y-110930480D03*
D11*
X334662234Y-108130154D03*
D12*
X339048379Y-109445232D03*
D11*
X339992145Y-103844580D03*
D10*
X343906407Y-107959984D03*
D13*
X343578288Y-102748186D03*
X331076091Y-109226548D03*
D10*
X279456058Y-127664433D03*
D11*
X279927941Y-124864107D03*
D12*
X284314086Y-126179185D03*
D11*
X285257852Y-120578533D03*
D10*
X289172114Y-124693937D03*
D13*
X288843995Y-119482139D03*
X276341798Y-125960501D03*
D21*
X328828982Y-176071859D03*
D22*
X326601110Y-168784817D03*
D10*
X70427074Y-126114936D03*
D11*
X72384205Y-124057234D03*
D12*
X75285102Y-127600184D03*
D11*
X79199364Y-123484780D03*
D10*
X80143130Y-129085432D03*
D16*
X82785507Y-124581174D03*
X68798062Y-122960840D03*
D10*
X196880000Y-210452500D03*
D11*
X198150000Y-207912500D03*
D12*
X201960000Y-210452500D03*
D11*
X204500000Y-205372500D03*
D10*
X207040000Y-210452500D03*
D23*
X208250000Y-205372500D03*
X194400000Y-207912500D03*
D14*
X119222683Y-145017337D03*
D15*
X121450555Y-137730295D03*
D21*
X370865535Y-183059383D03*
D22*
X368637663Y-175772341D03*
D10*
X338171164Y-189070971D03*
D11*
X338643047Y-186270645D03*
D12*
X343029192Y-187585723D03*
D11*
X343972958Y-181985071D03*
D10*
X347887220Y-186100475D03*
D13*
X347559101Y-180888677D03*
X335056904Y-187367039D03*
D21*
X297877102Y-205374186D03*
D22*
X295649230Y-198087144D03*
D10*
X17258990Y-169377982D03*
D11*
X19216121Y-167320280D03*
D12*
X22117018Y-170863230D03*
D11*
X26031280Y-166747826D03*
D10*
X26975046Y-172348478D03*
D16*
X29617423Y-167844220D03*
X15629978Y-166223886D03*
D14*
X66054598Y-188280385D03*
D15*
X68282470Y-180993343D03*
D10*
X356434673Y-183487256D03*
D11*
X356906556Y-180686930D03*
D12*
X361292701Y-182002008D03*
D11*
X362236467Y-176401356D03*
D10*
X366150729Y-180516760D03*
D13*
X365822610Y-175304962D03*
X353320413Y-181783324D03*
D10*
X64880052Y-144258428D03*
D11*
X66837183Y-142200726D03*
D12*
X69738080Y-145743676D03*
D11*
X73652342Y-141628272D03*
D10*
X74596108Y-147228924D03*
D16*
X77238485Y-142724666D03*
X63251040Y-141104332D03*
D17*
X225420099Y-139140000D03*
D18*
X225420099Y-146760000D03*
D10*
X358057114Y-123473065D03*
D11*
X358528997Y-120672739D03*
D12*
X362915142Y-121987817D03*
D11*
X363858908Y-116387165D03*
D10*
X367773170Y-120502569D03*
D13*
X367445051Y-115290771D03*
X354942854Y-121769133D03*
D10*
X132293345Y-184708127D03*
D11*
X134250476Y-182650425D03*
D12*
X137151373Y-186193375D03*
D11*
X141065635Y-182077971D03*
D10*
X142009401Y-187678623D03*
D16*
X144651778Y-183174365D03*
X130664333Y-181554031D03*
D10*
X35522498Y-174961697D03*
D11*
X37479629Y-172903995D03*
D12*
X40380526Y-176446945D03*
D11*
X44294788Y-172331541D03*
D10*
X45238554Y-177932193D03*
D16*
X47880931Y-173427935D03*
X33893486Y-171807601D03*
D10*
X108576531Y-197296557D03*
D11*
X110533662Y-195238855D03*
D12*
X113434559Y-198781805D03*
D11*
X117348821Y-194666401D03*
D10*
X118292587Y-200267053D03*
D16*
X120934964Y-195762795D03*
X106947519Y-194142461D03*
D10*
X297700824Y-122086447D03*
D11*
X298172707Y-119286121D03*
D12*
X302558852Y-120601199D03*
D11*
X303502618Y-115000547D03*
D10*
X307416880Y-119115951D03*
D13*
X307088761Y-113904153D03*
X294586564Y-120382515D03*
D14*
X84318107Y-193864097D03*
D15*
X86545979Y-186577055D03*
D14*
X47791092Y-182696667D03*
D15*
X50018964Y-175409625D03*
D10*
X72049516Y-186129127D03*
D11*
X74006647Y-184071425D03*
D12*
X76907544Y-187614375D03*
D11*
X80821806Y-183498971D03*
D10*
X81765572Y-189099623D03*
D16*
X84407949Y-184595365D03*
X70420504Y-182975031D03*
D10*
X90313023Y-191712843D03*
D11*
X92270154Y-189655141D03*
D12*
X95171051Y-193198091D03*
D11*
X99085313Y-189082687D03*
D10*
X100029079Y-194683339D03*
D16*
X102671456Y-190179081D03*
X88684011Y-188558747D03*
D10*
X215978000Y-191480000D03*
D11*
X217248000Y-188940000D03*
D12*
X221058000Y-191480000D03*
D11*
X223598000Y-186400000D03*
D10*
X226138000Y-191480000D03*
D23*
X227348000Y-186400000D03*
X213498000Y-188940000D03*
D10*
X177782000Y-210452500D03*
D11*
X179052000Y-207912500D03*
D12*
X182862000Y-210452500D03*
D11*
X185402000Y-205372500D03*
D10*
X187942000Y-210452500D03*
D23*
X189152000Y-205372500D03*
X175302000Y-207912500D03*
D10*
X369151159Y-159760048D03*
D11*
X369623042Y-156959722D03*
D12*
X374009187Y-158274800D03*
D11*
X374952953Y-152674148D03*
D10*
X378867215Y-156789552D03*
D13*
X378539096Y-151577754D03*
X366036899Y-158056116D03*
D14*
X95412149Y-157577114D03*
D15*
X97640021Y-150290072D03*
D10*
X374698181Y-177903540D03*
D11*
X375170064Y-175103214D03*
D12*
X379556209Y-176418292D03*
D11*
X380499975Y-170817640D03*
D10*
X384414237Y-174933044D03*
D13*
X384086118Y-169721246D03*
X371583921Y-176199608D03*
D10*
X319907654Y-194654686D03*
D11*
X320379537Y-191854360D03*
D12*
X324765682Y-193169438D03*
D11*
X325709448Y-187568786D03*
D10*
X329623710Y-191684190D03*
D13*
X329295591Y-186472392D03*
X316793394Y-192950754D03*
D24*
X46375593Y-167697422D03*
D25*
X39088551Y-165469550D03*
D17*
X203101919Y-139140000D03*
D18*
X203101919Y-146760000D03*
D14*
X108128635Y-181304321D03*
D15*
X110356507Y-174017279D03*
D17*
X198638283Y-139140000D03*
D18*
X198638283Y-146760000D03*
D10*
X196880000Y-172507500D03*
D11*
X198150000Y-169967500D03*
D12*
X201960000Y-172507500D03*
D11*
X204500000Y-167427500D03*
D10*
X207040000Y-172507500D03*
D23*
X208250000Y-167427500D03*
X194400000Y-169967500D03*
D21*
X347073746Y-170493877D03*
D22*
X344845874Y-163206835D03*
D10*
X177782000Y-191480000D03*
D11*
X179052000Y-188940000D03*
D12*
X182862000Y-191480000D03*
D11*
X185402000Y-186400000D03*
D10*
X187942000Y-191480000D03*
D23*
X189152000Y-186400000D03*
X175302000Y-188940000D03*
D10*
X363604134Y-141616556D03*
D11*
X364076017Y-138816230D03*
D12*
X368462162Y-140131308D03*
D11*
X369405928Y-134530656D03*
D10*
X373320190Y-138646060D03*
D13*
X372992071Y-133434262D03*
X360489874Y-139912624D03*
D14*
X100959173Y-139433621D03*
D15*
X103187045Y-132146579D03*
D10*
X77596538Y-167985635D03*
D11*
X79553669Y-165927933D03*
D12*
X82454566Y-169470883D03*
D11*
X86368828Y-165355479D03*
D10*
X87312594Y-170956131D03*
D16*
X89954971Y-166451873D03*
X75967526Y-164831539D03*
D21*
X334376006Y-194215353D03*
D22*
X332148134Y-186928311D03*
D14*
X64432157Y-128266193D03*
D15*
X66660029Y-120979151D03*
D17*
X194174647Y-139140000D03*
D18*
X194174647Y-146760000D03*
D14*
X51715672Y-104538985D03*
D15*
X53943544Y-97251943D03*
D19*
X301217909Y-170609635D03*
D20*
X293930867Y-172837507D03*
D26*
X182477000Y-166907500D03*
X182477000Y-178107500D03*
D27*
X174977000Y-170007500D03*
D28*
X174977000Y-175007500D03*
X174977000Y-172507500D03*
X189477000Y-175007500D03*
X189477000Y-170007500D03*
D14*
X53338114Y-164553175D03*
D15*
X55565986Y-157266133D03*
D24*
X28112087Y-162113707D03*
D25*
X20825045Y-159885835D03*
D17*
X207565555Y-139140000D03*
D18*
X207565555Y-146760000D03*
D21*
X354224468Y-128628909D03*
D22*
X351996596Y-121341867D03*
D10*
X39447079Y-96804016D03*
D11*
X41404210Y-94746314D03*
D12*
X44305107Y-98289264D03*
D11*
X48219369Y-94173860D03*
D10*
X49163135Y-99774512D03*
D16*
X51805512Y-95270254D03*
X37818067Y-93649920D03*
D14*
X89865129Y-175720605D03*
D15*
X92093001Y-168433563D03*
D10*
X339793605Y-129056780D03*
D11*
X340265488Y-126256454D03*
D12*
X344651633Y-127571532D03*
D11*
X345595399Y-121970880D03*
D10*
X349509661Y-126086284D03*
D13*
X349181542Y-120874486D03*
X336679345Y-127352848D03*
D14*
X126311817Y-186863476D03*
D15*
X128539689Y-179576434D03*
D10*
X57710588Y-102387730D03*
D11*
X59667719Y-100330028D03*
D12*
X62568616Y-103872978D03*
D11*
X66482878Y-99757574D03*
D10*
X67426644Y-105358226D03*
D16*
X70069021Y-100853968D03*
X56081576Y-99233634D03*
D21*
X348677444Y-110485417D03*
D22*
X346449572Y-103198375D03*
D19*
X306764932Y-188753127D03*
D20*
X299477890Y-190980999D03*
D10*
X345340627Y-147200271D03*
D11*
X345812510Y-144399945D03*
D12*
X350198655Y-145715023D03*
D11*
X351142421Y-140114371D03*
D10*
X355056683Y-144229775D03*
D13*
X354728564Y-139017977D03*
X342226367Y-145496339D03*
D17*
X216492827Y-139140000D03*
D18*
X216492827Y-146760000D03*
D14*
X35074603Y-158969462D03*
D15*
X37302475Y-151682420D03*
D10*
X52163566Y-120531222D03*
D11*
X54120697Y-118473520D03*
D12*
X57021594Y-122016470D03*
D11*
X60935856Y-117901066D03*
D10*
X61879622Y-123501718D03*
D16*
X64521999Y-118997460D03*
X50534554Y-117377126D03*
D14*
X46168650Y-122682477D03*
D15*
X48396522Y-115395435D03*
D29*
X214874596Y-126590000D03*
X212334596Y-126590000D03*
X209794596Y-126590000D03*
X207254596Y-126590000D03*
X204714596Y-126590000D03*
X217414596Y-98650000D03*
X217414596Y-101190000D03*
X217414596Y-103730000D03*
X217414596Y-106270000D03*
X217414596Y-108810000D03*
X217414596Y-111350000D03*
X217414596Y-113890000D03*
X217414596Y-116430000D03*
X217414596Y-118970000D03*
X217414596Y-121510000D03*
X217414596Y-124050000D03*
X217414596Y-126590000D03*
X202403196Y-126590000D03*
X202174596Y-124050000D03*
X202174596Y-121510000D03*
X202174596Y-118970000D03*
X202174596Y-116430000D03*
X202174596Y-113890000D03*
X202174596Y-111350000D03*
X202174596Y-108810000D03*
X202174596Y-106270000D03*
X202174596Y-103730000D03*
X202174596Y-101190000D03*
D30*
X202174596Y-98650000D03*
D10*
X235076000Y-172507500D03*
D11*
X236346000Y-169967500D03*
D12*
X240156000Y-172507500D03*
D11*
X242696000Y-167427500D03*
D10*
X245236000Y-172507500D03*
D23*
X246446000Y-167427500D03*
X232596000Y-169967500D03*
D10*
X376226905Y-117918003D03*
D11*
X376698788Y-115117677D03*
D12*
X381084933Y-116432755D03*
D11*
X382028699Y-110832103D03*
D10*
X385942961Y-114947507D03*
D13*
X385614842Y-109735709D03*
X373112645Y-116214071D03*
D10*
X332624140Y-170927479D03*
D11*
X333096023Y-168127153D03*
D12*
X337482168Y-169442231D03*
D11*
X338425934Y-163841579D03*
D10*
X342340196Y-167956983D03*
D13*
X342012077Y-162745185D03*
X329509880Y-169223547D03*
D19*
X288501423Y-194336839D03*
D20*
X281214381Y-196564711D03*
D21*
X293943151Y-127219370D03*
D22*
X291715279Y-119932328D03*
D10*
X125217598Y-142866083D03*
D11*
X127174729Y-140808381D03*
D12*
X130075626Y-144351331D03*
D11*
X133989888Y-140235927D03*
D10*
X134933654Y-145836579D03*
D16*
X137576031Y-141332321D03*
X123588586Y-139711987D03*
D14*
X77148643Y-151993399D03*
D15*
X79376515Y-144706357D03*
D10*
X94237603Y-113555161D03*
D11*
X96194734Y-111497459D03*
D12*
X99095631Y-115040409D03*
D11*
X103009893Y-110925005D03*
D10*
X103953659Y-116525657D03*
D16*
X106596036Y-112021399D03*
X92608591Y-110401065D03*
D10*
X285003081Y-145807925D03*
D11*
X285474964Y-143007599D03*
D12*
X289861109Y-144322677D03*
D11*
X290804875Y-138722025D03*
D10*
X294719137Y-142837429D03*
D13*
X294391018Y-137625631D03*
X281888821Y-144103993D03*
D10*
X59333029Y-162401920D03*
D11*
X61290160Y-160344218D03*
D12*
X64191057Y-163887168D03*
D11*
X68105319Y-159771764D03*
D10*
X69049085Y-165372416D03*
D16*
X71691462Y-160868158D03*
X57704017Y-159247824D03*
D10*
X235076000Y-210452500D03*
D11*
X236346000Y-207912500D03*
D12*
X240156000Y-210452500D03*
D11*
X242696000Y-205372500D03*
D10*
X245236000Y-210452500D03*
D23*
X246446000Y-205372500D03*
X232596000Y-207912500D03*
D10*
X327077119Y-152783987D03*
D11*
X327549002Y-149983661D03*
D12*
X331935147Y-151298739D03*
D11*
X332878913Y-145698087D03*
D10*
X336793175Y-149813491D03*
D13*
X336465056Y-144601693D03*
X323962859Y-151080055D03*
D14*
X71601621Y-170136891D03*
D15*
X73829493Y-162849849D03*
D31*
X209794596Y-113575000D03*
D32*
X209794596Y-111035000D03*
X209794596Y-108495000D03*
M02*
