M48
; DRILL file {KiCad 8.0.6} date 2024-10-28T13:21:30+0100
; FORMAT={-:-/ absolute / metric / decimal}
; #@! TF.CreationDate,2024-10-28T13:21:30+01:00
; #@! TF.GenerationSoftware,Kicad,Pcbnew,8.0.6
; #@! TF.FileFunction,NonPlated,1,2,NPTH
FMAT,2
METRIC
; #@! TA.AperFunction,NonPlated,NPTH,ComponentDrill
T1C1.500
; #@! TA.AperFunction,NonPlated,NPTH,ComponentDrill
T2C1.702
; #@! TA.AperFunction,NonPlated,NPTH,ComponentDrill
T3C3.000
; #@! TA.AperFunction,NonPlated,NPTH,ComponentDrill
T4C3.988
%
G90
G05
T2
X16.984Y-167.288
X22.531Y-149.144
X26.7Y-170.258
X28.078Y-131.001
X32.247Y-152.115
X33.625Y-112.857
X35.247Y-172.871
X37.794Y-133.971
X39.172Y-94.714
X40.794Y-154.728
X43.341Y-115.828
X44.963Y-175.842
X46.341Y-136.584
X48.888Y-97.684
X50.51Y-157.698
X51.888Y-118.441
X53.511Y-178.455
X56.057Y-139.555
X57.435Y-100.298
X59.058Y-160.312
X61.604Y-121.411
X63.227Y-181.426
X64.605Y-142.168
X67.151Y-103.268
X68.774Y-163.282
X70.152Y-124.025
X71.774Y-184.039
X74.321Y-145.139
X75.699Y-105.881
X77.321Y-165.895
X79.868Y-126.995
X81.49Y-187.009
X82.868Y-147.752
X85.415Y-108.852
X87.037Y-168.866
X88.415Y-129.608
X90.038Y-189.623
X92.584Y-150.722
X93.962Y-111.465
X95.585Y-171.479
X98.131Y-132.579
X99.754Y-192.593
X101.132Y-153.336
X103.678Y-114.435
X105.301Y-174.45
X106.679Y-135.192
X108.301Y-195.206
X110.848Y-156.306
X112.226Y-117.049
X113.848Y-177.063
X116.395Y-138.163
X118.017Y-198.177
X119.395Y-158.919
X121.942Y-120.019
X123.564Y-180.033
X124.942Y-140.776
X126.471Y-200.761
X129.111Y-161.89
X130.489Y-122.632
X132.018Y-182.618
X134.658Y-143.746
X136.187Y-203.732
X140.205Y-125.603
X141.734Y-185.588
X177.507Y-189.39
X177.507Y-208.362
X187.667Y-189.39
X187.667Y-208.362
X196.605Y-170.417
X196.605Y-189.39
X196.605Y-208.362
X206.765Y-170.417
X206.765Y-189.39
X206.765Y-208.362
X215.703Y-170.417
X215.703Y-189.39
X215.703Y-208.362
X225.863Y-170.417
X225.863Y-189.39
X225.863Y-208.362
X234.801Y-170.417
X234.801Y-189.39
X234.801Y-208.362
X244.961Y-170.417
X244.961Y-189.39
X244.961Y-208.362
X277.558Y-185.588
X279.181Y-125.574
X283.105Y-203.732
X284.728Y-143.718
X287.274Y-182.618
X288.897Y-122.604
X290.275Y-161.861
X292.821Y-200.761
X294.444Y-140.747
X295.822Y-180.005
X297.425Y-119.996
X299.991Y-158.891
X301.369Y-198.148
X302.991Y-138.134
X305.538Y-177.034
X307.141Y-117.026
X308.538Y-156.277
X311.085Y-195.178
X312.707Y-135.163
X314.085Y-174.421
X315.67Y-114.418
X318.254Y-153.307
X319.632Y-192.564
X321.255Y-132.55
X323.801Y-171.45
X325.386Y-111.448
X326.802Y-150.694
X329.348Y-189.594
X330.971Y-129.58
X332.349Y-168.837
X333.915Y-108.84
X336.518Y-147.723
X337.896Y-186.981
X339.518Y-126.967
X342.065Y-165.867
X343.631Y-105.87
X345.065Y-145.11
X347.612Y-184.01
X349.234Y-123.996
X350.612Y-163.254
X352.16Y-103.262
X354.781Y-142.14
X356.159Y-181.397
X357.782Y-121.383
X360.328Y-160.283
X361.876Y-100.292
X363.329Y-139.526
X365.875Y-178.427
X367.498Y-118.412
X368.876Y-157.67
X370.404Y-97.684
X373.045Y-136.556
X374.423Y-175.813
X375.951Y-115.828
X378.592Y-154.699
X380.12Y-94.714
X381.498Y-133.971
X384.139Y-172.843
X385.667Y-112.857
X387.045Y-152.115
X391.215Y-131.001
X392.592Y-170.258
X396.762Y-149.144
X402.309Y-167.288
T3
X18.941Y-165.23
X24.488Y-147.087
X25.756Y-164.658
X30.035Y-128.943
X31.303Y-146.514
X35.582Y-110.8
X36.85Y-128.371
X37.204Y-170.814
X41.129Y-92.656
X42.397Y-110.227
X42.751Y-152.67
X44.019Y-170.241
X47.944Y-92.084
X48.298Y-134.527
X49.566Y-152.098
X53.845Y-116.383
X55.113Y-133.954
X55.468Y-176.397
X59.392Y-98.24
X60.66Y-115.811
X61.015Y-158.254
X62.283Y-175.825
X66.207Y-97.667
X66.562Y-140.111
X67.83Y-157.682
X72.109Y-121.967
X73.377Y-139.538
X73.731Y-181.981
X77.656Y-103.824
X78.924Y-121.395
X79.278Y-163.838
X80.546Y-181.409
X84.471Y-103.251
X84.825Y-145.694
X86.093Y-163.265
X90.372Y-127.551
X91.64Y-145.122
X91.995Y-187.565
X95.919Y-109.407
X97.187Y-126.978
X97.542Y-169.421
X98.81Y-186.992
X102.734Y-108.835
X103.089Y-151.278
X104.357Y-168.849
X108.636Y-133.134
X109.904Y-150.705
X110.258Y-193.149
X114.183Y-114.991
X115.451Y-132.562
X115.805Y-175.005
X117.073Y-192.576
X120.998Y-114.418
X121.352Y-156.862
X122.62Y-174.433
X126.899Y-138.718
X128.167Y-156.289
X128.428Y-198.704
X132.446Y-120.575
X133.714Y-138.146
X133.975Y-180.56
X135.243Y-198.131
X139.261Y-120.002
X140.79Y-179.988
X178.777Y-186.85
X178.777Y-205.822
X185.127Y-184.31
X185.127Y-203.282
X197.875Y-167.877
X197.875Y-186.85
X197.875Y-205.822
X204.225Y-165.337
X204.225Y-184.31
X204.225Y-203.282
X216.973Y-167.877
X216.973Y-186.85
X216.973Y-205.822
X223.323Y-165.337
X223.323Y-184.31
X223.323Y-203.282
X236.071Y-167.877
X236.071Y-186.85
X236.071Y-205.822
X242.421Y-165.337
X242.421Y-184.31
X242.421Y-203.282
X278.03Y-182.788
X279.652Y-122.774
X283.36Y-178.503
X283.577Y-200.932
X284.982Y-118.488
X285.199Y-140.917
X288.907Y-196.646
X290.529Y-136.632
X290.747Y-159.061
X296.076Y-154.775
X296.294Y-177.204
X297.897Y-117.196
X301.623Y-172.919
X301.841Y-195.348
X303.227Y-112.91
X303.463Y-135.334
X307.17Y-191.062
X308.793Y-131.048
X309.01Y-153.477
X314.34Y-149.192
X314.557Y-171.621
X316.142Y-111.618
X319.887Y-167.335
X320.104Y-189.764
X321.472Y-107.332
X321.727Y-129.75
X325.434Y-185.479
X327.056Y-125.464
X327.274Y-147.893
X332.603Y-143.608
X332.821Y-166.037
X334.387Y-106.04
X338.15Y-161.751
X338.368Y-184.18
X339.717Y-101.754
X339.99Y-124.166
X343.697Y-179.895
X345.32Y-119.881
X345.537Y-142.31
X350.867Y-138.024
X351.084Y-160.453
X352.632Y-100.462
X356.414Y-156.168
X356.631Y-178.597
X357.961Y-96.176
X358.254Y-118.583
X361.961Y-174.311
X363.583Y-114.297
X363.801Y-136.726
X369.13Y-132.44
X369.348Y-154.87
X370.876Y-94.884
X374.677Y-150.584
X374.895Y-173.013
X376.206Y-90.598
X376.423Y-113.027
X380.224Y-168.727
X381.753Y-108.742
X381.97Y-131.171
X387.3Y-126.885
X387.517Y-149.314
X392.847Y-145.029
X393.064Y-167.458
X398.394Y-163.172
T4
X21.842Y-168.773
X27.389Y-150.63
X32.936Y-132.486
X38.483Y-114.343
X40.105Y-174.357
X44.03Y-96.199
X45.652Y-156.213
X51.199Y-138.07
X56.746Y-119.926
X58.369Y-179.94
X62.293Y-101.783
X63.916Y-161.797
X69.463Y-143.653
X75.01Y-125.51
X76.632Y-185.524
X80.557Y-107.366
X82.179Y-167.381
X87.726Y-149.237
X93.273Y-131.094
X94.896Y-191.108
X98.82Y-112.95
X100.443Y-172.964
X105.99Y-154.821
X111.537Y-136.677
X113.159Y-196.692
X117.084Y-118.534
X118.706Y-178.548
X124.253Y-160.405
X129.8Y-142.261
X131.329Y-202.247
X135.347Y-124.118
X136.876Y-184.103
X182.587Y-189.39
X182.587Y-208.362
X201.685Y-170.417
X201.685Y-189.39
X201.685Y-208.362
X220.783Y-170.417
X220.783Y-189.39
X220.783Y-208.362
X239.881Y-170.417
X239.881Y-189.39
X239.881Y-208.362
X282.416Y-184.103
X284.039Y-124.089
X287.963Y-202.247
X289.586Y-142.232
X295.133Y-160.376
X300.68Y-178.519
X302.283Y-118.511
X306.227Y-196.663
X307.849Y-136.649
X313.396Y-154.792
X318.943Y-172.936
X320.528Y-112.933
X324.49Y-191.079
X326.113Y-131.065
X331.66Y-149.209
X337.207Y-167.352
X338.773Y-107.355
X342.754Y-185.496
X344.376Y-125.481
X349.923Y-143.625
X355.47Y-161.768
X357.018Y-101.777
X361.017Y-179.912
X362.64Y-119.898
X368.187Y-138.041
X373.734Y-156.185
X375.262Y-96.199
X379.281Y-174.328
X380.809Y-114.343
X386.356Y-132.486
X391.903Y-150.63
X397.451Y-168.773
T1
X181.552Y-164.817G85X182.852Y-164.817
G05
X181.552Y-176.017G85X182.852Y-176.017
G05
M30
