G04 #@! TF.GenerationSoftware,KiCad,Pcbnew,8.0.2*
G04 #@! TF.CreationDate,2024-05-12T11:37:13+02:00*
G04 #@! TF.ProjectId,pterodactyl,70746572-6f64-4616-9374-796c2e6b6963,rev?*
G04 #@! TF.SameCoordinates,Original*
G04 #@! TF.FileFunction,Copper,L2,Bot*
G04 #@! TF.FilePolarity,Positive*
%FSLAX46Y46*%
G04 Gerber Fmt 4.6, Leading zero omitted, Abs format (unit mm)*
G04 Created by KiCad (PCBNEW 8.0.2) date 2024-05-12 11:37:13*
%MOMM*%
%LPD*%
G01*
G04 APERTURE LIST*
G04 Aperture macros list*
%AMHorizOval*
0 Thick line with rounded ends*
0 $1 width*
0 $2 $3 position (X,Y) of the first rounded end (center of the circle)*
0 $4 $5 position (X,Y) of the second rounded end (center of the circle)*
0 Add line between two ends*
20,1,$1,$2,$3,$4,$5,0*
0 Add two circle primitives to create the rounded ends*
1,1,$1,$2,$3*
1,1,$1,$4,$5*%
%AMRotRect*
0 Rectangle, with rotation*
0 The origin of the aperture is its center*
0 $1 length*
0 $2 width*
0 $3 Rotation angle, in degrees counterclockwise*
0 Add horizontal line*
21,1,$1,$2,0,0,$3*%
G04 Aperture macros list end*
G04 #@! TA.AperFunction,ComponentPad*
%ADD10R,1.752600X1.752600*%
G04 #@! TD*
G04 #@! TA.AperFunction,ComponentPad*
%ADD11C,1.752600*%
G04 #@! TD*
G04 #@! TA.AperFunction,ComponentPad*
%ADD12RotRect,1.600000X1.600000X68.000000*%
G04 #@! TD*
G04 #@! TA.AperFunction,ComponentPad*
%ADD13HorizOval,1.600000X0.000000X0.000000X0.000000X0.000000X0*%
G04 #@! TD*
G04 #@! TA.AperFunction,SMDPad,CuDef*
%ADD14RotRect,2.550000X2.500000X22.000000*%
G04 #@! TD*
G04 #@! TA.AperFunction,SMDPad,CuDef*
%ADD15R,2.550000X2.500000*%
G04 #@! TD*
G04 #@! TA.AperFunction,ComponentPad*
%ADD16RotRect,1.600000X1.600000X112.000000*%
G04 #@! TD*
G04 #@! TA.AperFunction,ComponentPad*
%ADD17HorizOval,1.600000X0.000000X0.000000X0.000000X0.000000X0*%
G04 #@! TD*
G04 #@! TA.AperFunction,SMDPad,CuDef*
%ADD18RotRect,2.550000X2.500000X338.000000*%
G04 #@! TD*
G04 #@! TA.AperFunction,ComponentPad*
%ADD19R,1.700000X1.700000*%
G04 #@! TD*
G04 #@! TA.AperFunction,ComponentPad*
%ADD20O,1.700000X1.700000*%
G04 #@! TD*
G04 #@! TA.AperFunction,ComponentPad*
%ADD21R,1.600000X1.600000*%
G04 #@! TD*
G04 #@! TA.AperFunction,ComponentPad*
%ADD22O,1.600000X1.600000*%
G04 #@! TD*
G04 #@! TA.AperFunction,ComponentPad*
%ADD23RotRect,1.600000X1.600000X22.000000*%
G04 #@! TD*
G04 #@! TA.AperFunction,ComponentPad*
%ADD24HorizOval,1.600000X0.000000X0.000000X0.000000X0.000000X0*%
G04 #@! TD*
G04 #@! TA.AperFunction,ComponentPad*
%ADD25RotRect,1.600000X1.600000X158.000000*%
G04 #@! TD*
G04 #@! TA.AperFunction,ComponentPad*
%ADD26HorizOval,1.600000X0.000000X0.000000X0.000000X0.000000X0*%
G04 #@! TD*
G04 #@! TA.AperFunction,ComponentPad*
%ADD27C,4.400000*%
G04 #@! TD*
G04 #@! TA.AperFunction,WasherPad*
%ADD28O,3.200000X2.000000*%
G04 #@! TD*
G04 #@! TA.AperFunction,ComponentPad*
%ADD29R,2.000000X2.000000*%
G04 #@! TD*
G04 #@! TA.AperFunction,ComponentPad*
%ADD30C,2.000000*%
G04 #@! TD*
G04 #@! TA.AperFunction,ComponentPad*
%ADD31C,1.800000*%
G04 #@! TD*
G04 #@! TA.AperFunction,ViaPad*
%ADD32C,0.600000*%
G04 #@! TD*
G04 #@! TA.AperFunction,ViaPad*
%ADD33C,0.800000*%
G04 #@! TD*
G04 #@! TA.AperFunction,Conductor*
%ADD34C,0.250000*%
G04 #@! TD*
G04 #@! TA.AperFunction,Conductor*
%ADD35C,0.508000*%
G04 #@! TD*
G04 APERTURE END LIST*
D10*
X193703455Y-83071431D03*
D11*
X193703455Y-85611431D03*
X193703455Y-88151431D03*
X193703455Y-90691431D03*
X193703455Y-93231431D03*
X193703455Y-95771431D03*
X193703455Y-98311431D03*
X193703455Y-100851431D03*
X193703455Y-103391431D03*
X193703455Y-105931431D03*
X193703455Y-108471431D03*
X208943455Y-111011431D03*
X208943455Y-108471431D03*
X208943455Y-105931431D03*
X208943455Y-103391431D03*
X208943455Y-100851431D03*
X208943455Y-98311431D03*
X208943455Y-95771431D03*
X208943455Y-93231431D03*
X208943455Y-90691431D03*
X208943455Y-88151431D03*
X208943455Y-85611431D03*
X193703455Y-111011431D03*
X208943455Y-83071431D03*
D12*
X90716236Y-70674026D03*
D13*
X93570738Y-63608885D03*
D14*
X311146634Y-125079609D03*
X299256638Y-132622957D03*
D15*
X225605955Y-132131431D03*
X211755955Y-134671431D03*
D16*
X313023542Y-70744577D03*
D17*
X310169040Y-63679436D03*
D18*
X86770892Y-122656716D03*
X72977895Y-119823462D03*
D19*
X203848455Y-88640000D03*
D20*
X201308455Y-88640000D03*
X198768455Y-88640000D03*
D16*
X327472682Y-105998919D03*
D17*
X324618180Y-98933778D03*
D14*
X236749309Y-93499819D03*
X224859313Y-101043167D03*
D16*
X292146977Y-120271430D03*
D17*
X289292475Y-113206289D03*
D21*
X217823451Y-115061431D03*
D22*
X217823451Y-122681431D03*
D16*
X341745193Y-141324624D03*
D17*
X338890691Y-134259483D03*
D14*
X346472338Y-110807098D03*
X334582342Y-118350446D03*
D12*
X118883209Y-102665021D03*
D13*
X121737711Y-95599880D03*
D15*
X190890955Y-167691431D03*
X177040955Y-170231431D03*
D14*
X243885566Y-111162671D03*
X231995570Y-118706019D03*
D16*
X263976258Y-152253152D03*
D17*
X261121756Y-145188011D03*
D12*
X139940149Y-152253966D03*
D13*
X142794651Y-145188825D03*
D18*
X136369108Y-101603523D03*
X122576111Y-98770269D03*
X150286047Y-168864592D03*
X136493050Y-166031338D03*
X157422301Y-151201739D03*
X143629304Y-148368485D03*
D12*
X126041941Y-84946539D03*
D13*
X128896443Y-77881398D03*
D14*
X258158077Y-146488376D03*
X246268081Y-154031724D03*
X261548417Y-104026416D03*
X249658421Y-111569764D03*
D18*
X154031963Y-108739779D03*
X140238966Y-105906525D03*
D12*
X122277295Y-145117710D03*
D13*
X125131797Y-138052569D03*
D14*
X275820930Y-139352121D03*
X263930934Y-146895469D03*
D12*
X115159769Y-162734204D03*
D13*
X118014271Y-155669063D03*
D16*
X288756636Y-162733391D03*
D17*
X285902134Y-155668250D03*
D18*
X93907149Y-104993866D03*
X80114152Y-102160612D03*
D14*
X279211271Y-96890160D03*
X267321275Y-104433508D03*
D16*
X295537319Y-77809470D03*
D17*
X292682817Y-70744329D03*
D23*
X342578911Y-128132145D03*
D24*
X349644052Y-125277643D03*
D12*
X62171214Y-141325438D03*
D13*
X65025716Y-134260297D03*
D14*
X254412163Y-86363563D03*
X242522167Y-93906911D03*
D15*
X208248455Y-149911431D03*
X194398455Y-152451431D03*
D16*
X299301962Y-137980641D03*
D17*
X296447460Y-130915500D03*
D18*
X161168215Y-91076927D03*
X147375218Y-88243673D03*
D14*
X293483782Y-132215865D03*
X281593786Y-139759213D03*
D25*
X78055062Y-134887292D03*
D26*
X70989921Y-132032790D03*
D16*
X274484124Y-127407686D03*
D17*
X271629622Y-120342545D03*
D27*
X137287761Y-158818856D03*
D12*
X161367646Y-99219050D03*
D13*
X164222148Y-92153909D03*
D16*
X277874466Y-84945726D03*
D17*
X275019964Y-77880585D03*
D15*
X208248455Y-167691431D03*
X194398455Y-170231431D03*
D12*
X83557502Y-88392511D03*
D13*
X86412004Y-81327370D03*
D21*
X188123458Y-115061431D03*
D22*
X188123458Y-122681431D03*
D18*
X111570000Y-112130119D03*
X97777003Y-109296865D03*
D14*
X321673231Y-100280501D03*
X309783235Y-107823849D03*
D23*
X323797412Y-135720364D03*
D24*
X330862553Y-132865862D03*
D14*
X265294333Y-164151228D03*
X253404337Y-171694576D03*
D25*
X68201550Y-110424343D03*
D26*
X61136409Y-107569841D03*
D16*
X316964815Y-130844386D03*
D17*
X314110313Y-123779245D03*
D14*
X335945743Y-135606206D03*
X324055747Y-143149554D03*
D23*
X328273097Y-92724013D03*
D24*
X335338238Y-89869511D03*
D27*
X88045117Y-77285275D03*
D18*
X178831071Y-98213183D03*
X165038074Y-95379929D03*
D14*
X307400719Y-64954797D03*
X295510723Y-72498145D03*
X289737868Y-72091052D03*
X277847872Y-79634400D03*
D18*
X108179657Y-69668159D03*
X94386660Y-66834905D03*
X97297489Y-147455826D03*
X83504492Y-144622572D03*
D12*
X143704793Y-92082794D03*
D13*
X146559295Y-85017653D03*
D12*
X97496919Y-155597949D03*
D13*
X100351421Y-148532808D03*
D18*
X104433747Y-129792973D03*
X90640750Y-126959719D03*
X146895704Y-126402631D03*
X133102707Y-123569377D03*
D27*
X158696526Y-105830299D03*
D21*
X201323454Y-115061431D03*
D22*
X201323454Y-122681431D03*
D18*
X101043404Y-87331012D03*
X87250407Y-84497758D03*
D14*
X318282890Y-142742461D03*
X306392894Y-150285809D03*
D15*
X190890955Y-149911431D03*
X177040955Y-152451431D03*
D18*
X69108041Y-115520461D03*
X55315044Y-112687207D03*
D16*
X302696050Y-95527952D03*
D17*
X299841548Y-88462811D03*
D25*
X75356536Y-92715131D03*
D26*
X68291395Y-89860629D03*
D21*
X204623453Y-115061431D03*
D22*
X204623453Y-122681431D03*
D14*
X325063573Y-57818541D03*
X313173577Y-65361889D03*
D18*
X90516809Y-62531905D03*
X76723812Y-59698651D03*
D25*
X61087598Y-128031991D03*
D26*
X54022457Y-125177489D03*
D16*
X267370345Y-109800464D03*
D17*
X264515843Y-102735323D03*
D18*
X139759451Y-144065484D03*
X125966454Y-141232230D03*
D16*
X256821273Y-134543942D03*
D17*
X253966771Y-127478801D03*
D12*
X101220357Y-95528767D03*
D13*
X104074859Y-88463626D03*
D14*
X328809487Y-117943353D03*
X316919491Y-125486701D03*
X304010379Y-107416757D03*
X292120383Y-114960105D03*
D28*
X210252205Y-184951431D03*
X210252205Y-196151431D03*
D29*
X202752205Y-188051431D03*
D30*
X202752205Y-193051431D03*
X202752205Y-190551431D03*
X217252205Y-193051431D03*
X217252205Y-188051431D03*
D12*
X147095135Y-134544755D03*
D13*
X149949637Y-127479614D03*
D12*
X76443724Y-105999731D03*
D13*
X79298226Y-98934590D03*
D12*
X79834064Y-148461692D03*
D13*
X82688566Y-141396551D03*
D16*
X285033197Y-102664208D03*
D17*
X282178695Y-95599067D03*
D21*
X211223451Y-115061431D03*
D22*
X211223451Y-122681431D03*
D12*
X132822623Y-169870460D03*
D13*
X135677125Y-162805319D03*
D15*
X190890955Y-132131431D03*
X177040955Y-134671431D03*
D12*
X108379089Y-77810284D03*
D13*
X111233591Y-70745143D03*
D14*
X339336084Y-93144245D03*
X327446088Y-100687593D03*
D15*
X208248455Y-132131431D03*
X194398455Y-134671431D03*
D14*
X272075014Y-79227308D03*
X260185018Y-86770656D03*
D12*
X69288737Y-123708944D03*
D13*
X72143239Y-116643803D03*
D16*
X260211613Y-92081982D03*
D17*
X257357111Y-85016841D03*
D14*
X332199828Y-75481393D03*
X320309832Y-83024741D03*
D21*
X184823459Y-115061431D03*
D22*
X184823459Y-122681431D03*
D27*
X245219878Y-105829486D03*
D18*
X76244296Y-97857609D03*
X62451299Y-95024355D03*
D15*
X199569705Y-185471431D03*
X185719705Y-188011431D03*
D18*
X143505366Y-83940671D03*
X129712369Y-81107417D03*
D14*
X251021822Y-128825523D03*
X239131826Y-136368871D03*
D18*
X79634639Y-140319569D03*
X65841642Y-137486315D03*
D21*
X194723456Y-115061431D03*
D22*
X194723456Y-122681431D03*
D31*
X198073455Y-93521431D03*
X204573455Y-98021431D03*
X198073455Y-98021431D03*
X204573455Y-93521431D03*
D18*
X61971785Y-133183313D03*
X48178788Y-130350059D03*
D21*
X207923452Y-115061431D03*
D22*
X207923452Y-122681431D03*
D27*
X315871289Y-77284464D03*
D18*
X164558559Y-133538887D03*
X150765562Y-130705633D03*
D27*
X266628646Y-158818043D03*
D12*
X129432281Y-127408499D03*
D13*
X132286783Y-120343358D03*
D14*
X286347527Y-114553013D03*
X274457531Y-122096361D03*
D18*
X171694814Y-115876036D03*
X157901817Y-113042782D03*
D21*
X191423457Y-115061431D03*
D22*
X191423457Y-122681431D03*
D12*
X136546061Y-109801278D03*
D13*
X139400563Y-102736137D03*
D15*
X225605955Y-149911431D03*
X211755955Y-152451431D03*
D14*
X353608594Y-128469951D03*
X341718598Y-136013299D03*
D16*
X249707492Y-116936720D03*
D17*
X246852990Y-109871579D03*
D16*
X324082341Y-148460880D03*
D17*
X321227839Y-141395739D03*
D15*
X225605955Y-167691431D03*
X211755955Y-170231431D03*
D21*
X214523450Y-115061431D03*
D22*
X214523450Y-122681431D03*
D16*
X309809829Y-113135175D03*
D17*
X306955327Y-106070034D03*
D12*
X104614445Y-137981456D03*
D13*
X107468947Y-130916315D03*
D12*
X94106576Y-113135988D03*
D13*
X96961078Y-106070847D03*
D18*
X122096596Y-136929227D03*
X108303599Y-134095973D03*
D23*
X335442655Y-110469292D03*
D24*
X342507796Y-107614790D03*
D21*
X198023455Y-115061431D03*
D22*
X198023455Y-122681431D03*
D18*
X132623194Y-161728336D03*
X118830197Y-158895082D03*
D16*
X242548761Y-99218237D03*
D17*
X239694259Y-92153096D03*
D16*
X271093784Y-169869646D03*
D17*
X268239282Y-162804505D03*
D25*
X82496365Y-75043434D03*
D26*
X75431224Y-72188932D03*
D27*
X66636350Y-130273833D03*
D16*
X306419489Y-155597135D03*
D17*
X303564987Y-148531994D03*
D23*
X321170144Y-75143587D03*
D24*
X328235285Y-72289085D03*
D12*
X111769431Y-120272244D03*
D13*
X114623933Y-113207103D03*
D12*
X86951591Y-130845199D03*
D13*
X89806093Y-123780058D03*
D12*
X154208913Y-116937532D03*
D13*
X157063415Y-109872391D03*
D18*
X129232855Y-119266376D03*
X115439858Y-116433122D03*
D14*
X282957185Y-157014973D03*
X271067189Y-164558321D03*
D16*
X320358903Y-88391697D03*
D17*
X317504401Y-81326556D03*
D16*
X281639111Y-145116897D03*
D17*
X278784609Y-138051756D03*
D14*
X314536976Y-82617649D03*
X302646980Y-90160997D03*
D16*
X334627668Y-123708130D03*
D17*
X331773166Y-116642989D03*
D18*
X83380553Y-80194757D03*
X69587556Y-77361503D03*
D14*
X300620038Y-149878717D03*
X288730042Y-157422065D03*
D18*
X118706258Y-94467268D03*
X104913261Y-91634014D03*
X114960343Y-154592081D03*
X101167346Y-151758827D03*
X125842513Y-76804415D03*
X112049516Y-73971161D03*
D14*
X296874122Y-89753905D03*
X284984126Y-97297253D03*
X268684674Y-121689268D03*
X256794678Y-129232616D03*
D27*
X337280055Y-130273022D03*
D32*
X211792954Y-97737046D03*
D33*
X230100000Y-106800000D03*
X266400000Y-93200000D03*
X301500000Y-80300000D03*
X242500000Y-104200000D03*
X207200000Y-118825000D03*
X175000000Y-134700000D03*
X194423451Y-138271431D03*
X211723451Y-138271431D03*
X231344601Y-116801173D03*
X248531230Y-108886643D03*
X266427745Y-102195249D03*
X284136957Y-95040263D03*
X301715989Y-87830019D03*
X174900000Y-152400000D03*
X194423451Y-156071431D03*
X211823451Y-156171431D03*
X238219566Y-134084253D03*
X256116080Y-127392859D03*
X273695113Y-120182615D03*
X291571964Y-113175605D03*
X308945897Y-105724667D03*
X174900000Y-170200000D03*
X189489555Y-174865331D03*
X206397055Y-175590331D03*
X185719705Y-183357973D03*
X59456700Y-108815820D03*
X245374551Y-151793465D03*
X263028505Y-144768658D03*
X280662796Y-137428235D03*
X298409468Y-130365967D03*
X252566998Y-169595395D03*
X270163828Y-162162253D03*
X287780321Y-155044728D03*
X305564454Y-148075179D03*
X323180947Y-140957654D03*
D34*
X203848455Y-88640000D02*
X200192024Y-92296431D01*
X200192024Y-92296431D02*
X197473569Y-92296431D01*
X197473569Y-92296431D02*
X194910000Y-94860000D01*
X194910000Y-94860000D02*
X194910000Y-99644886D01*
X194910000Y-99644886D02*
X193703455Y-100851431D01*
X208943455Y-88151431D02*
X207704180Y-88151431D01*
X202334180Y-93521431D02*
X198073455Y-93521431D01*
X207704180Y-88151431D02*
X202334180Y-93521431D01*
D35*
X193703455Y-88151431D02*
X193703455Y-90691431D01*
X201338455Y-88640000D02*
X200034455Y-87336000D01*
X200034455Y-87336000D02*
X194518886Y-87336000D01*
X194518886Y-87336000D02*
X193703455Y-88151431D01*
X208943455Y-85611431D02*
X204367024Y-85611431D01*
X204367024Y-85611431D02*
X201338455Y-88640000D01*
X211792954Y-97767046D02*
X211792954Y-97737046D01*
X211775427Y-97784573D02*
X211792954Y-97767046D01*
D34*
X202752205Y-193051431D02*
X204673205Y-191130431D01*
X204673205Y-191130431D02*
X217869569Y-191130431D01*
X217869569Y-191130431D02*
X228363955Y-180636045D01*
X228363955Y-180636045D02*
X228363955Y-115457875D01*
X228363955Y-115457875D02*
X214067210Y-101161130D01*
X214067210Y-101161130D02*
X214067210Y-99257526D01*
X214067210Y-99257526D02*
X213199842Y-98390158D01*
X213199842Y-98390158D02*
X213199842Y-97487818D01*
X213199842Y-97487818D02*
X208943455Y-93231431D01*
D35*
X213488210Y-99497356D02*
X211775427Y-97784573D01*
X213488210Y-100510000D02*
X213488210Y-99497356D01*
X214513210Y-102425960D02*
X213488210Y-101400960D01*
X213488210Y-101400960D02*
X213488210Y-100510000D01*
D34*
X202752205Y-188051431D02*
X204400774Y-189700000D01*
X204400774Y-189700000D02*
X217600000Y-189700000D01*
X212909210Y-101640790D02*
X212909210Y-99737186D01*
X217600000Y-189700000D02*
X227205955Y-180094045D01*
X227205955Y-180094045D02*
X227205955Y-115937535D01*
X227205955Y-115937535D02*
X212909210Y-101640790D01*
X212909210Y-99737186D02*
X208943455Y-95771431D01*
X83401251Y-80185971D02*
X83380552Y-80194757D01*
X61992484Y-133174526D02*
X61971785Y-133183313D01*
X163589283Y-89058572D02*
X158914701Y-87158131D01*
X93907148Y-104993866D02*
X93927844Y-104985081D01*
X90516809Y-62531905D02*
X92957666Y-61495823D01*
X193703455Y-93231431D02*
X192427630Y-94507256D01*
X90525595Y-62552603D02*
X83401251Y-80185971D01*
X107143575Y-67227302D02*
X108179657Y-69668159D01*
X83380552Y-80194757D02*
X83389339Y-80215456D01*
X93927844Y-104985081D02*
X108188443Y-69688858D01*
X76244296Y-97857609D02*
X76253082Y-97878308D01*
X86791591Y-122647930D02*
X93915934Y-105014564D01*
X86770891Y-122656717D02*
X86791591Y-122647930D01*
X76253082Y-97878308D02*
X69128738Y-115511676D01*
X69116827Y-115541160D02*
X61992484Y-133174526D01*
X192427630Y-94507256D02*
X177066352Y-94507256D01*
X93915934Y-105014564D02*
X93907148Y-104993866D01*
X79655335Y-140310785D02*
X86779677Y-122677415D01*
X75721307Y-97646308D02*
X76244296Y-97857609D01*
X149825796Y-83463055D02*
X114800000Y-69200000D01*
X69108041Y-115520462D02*
X69116827Y-115541160D01*
X92957666Y-61495823D02*
X107143575Y-67227302D01*
X167920370Y-90812039D02*
X165014618Y-89638039D01*
X158914701Y-87158131D02*
X149825796Y-83463055D01*
X86779677Y-122677415D02*
X86770891Y-122656717D01*
X79634638Y-140319569D02*
X79655335Y-140310785D01*
X83389339Y-80215456D02*
X76264995Y-97848823D01*
X176201816Y-94157961D02*
X167920370Y-90812039D01*
X82866407Y-79987029D02*
X83380552Y-80194757D01*
X69128738Y-115511676D02*
X69108041Y-115520462D01*
X114800000Y-69200000D02*
X108179657Y-69668159D01*
X165014618Y-89638039D02*
X163589283Y-89058572D01*
X108188443Y-69688858D02*
X108179657Y-69668159D01*
X90516809Y-62531905D02*
X90525595Y-62552603D01*
X177066352Y-94507256D02*
X176201816Y-94157961D01*
X76264995Y-97848823D02*
X76244296Y-97857609D01*
X193271431Y-95771431D02*
X193703455Y-95771431D01*
X164845421Y-90055020D02*
X176978880Y-94957256D01*
X125842511Y-76804416D02*
X125851298Y-76825114D01*
X125842513Y-76804416D02*
X128283370Y-75768333D01*
X143505366Y-83940671D02*
X147000000Y-82800000D01*
X143514152Y-83961370D02*
X114981041Y-154583294D01*
X125851298Y-76825114D02*
X97318188Y-147447038D01*
X97318188Y-147447038D02*
X97297488Y-147455825D01*
X192457256Y-94957256D02*
X193271431Y-95771431D01*
X176978880Y-94957256D02*
X192457256Y-94957256D01*
X142469284Y-81499815D02*
X143505366Y-83940672D01*
X143505366Y-83940672D02*
X143514152Y-83961370D01*
X114981041Y-154583294D02*
X114960342Y-154592081D01*
X128283370Y-75768333D02*
X142469284Y-81499815D01*
X147000000Y-82800000D02*
X164845421Y-90055020D01*
X193605207Y-98213183D02*
X193703455Y-98311431D01*
X161177002Y-91097626D02*
X132643892Y-161719550D01*
X178831071Y-98213183D02*
X178854250Y-98222548D01*
X163609074Y-90040844D02*
X177794988Y-95772326D01*
X178839857Y-98233881D02*
X150306747Y-168855806D01*
X161168215Y-91076927D02*
X163609074Y-90040844D01*
X177794988Y-95772326D02*
X178831071Y-98213183D01*
X132643892Y-161719550D02*
X132623193Y-161728336D01*
X178831071Y-98213183D02*
X178839857Y-98233881D01*
X161168215Y-91076927D02*
X161177002Y-91097626D01*
X178831071Y-98213183D02*
X193605207Y-98213183D01*
X150306747Y-168855806D02*
X150286047Y-168864592D01*
X235769889Y-94479239D02*
X235769889Y-101030111D01*
X235769889Y-101030111D02*
X230100000Y-106800000D01*
X254432860Y-86372348D02*
X282965971Y-156994275D01*
X236749309Y-93499819D02*
X235769889Y-94479239D01*
X236749309Y-93499819D02*
X236770008Y-93508604D01*
X254412163Y-86363563D02*
X254432860Y-86372348D01*
X282965971Y-156994275D02*
X282957185Y-157014972D01*
X236770008Y-93508604D02*
X265303118Y-164130531D01*
X265303118Y-164130531D02*
X265294333Y-164151228D01*
X271095594Y-80206728D02*
X271095594Y-88504406D01*
X271095594Y-88504406D02*
X266400000Y-93200000D01*
X272075014Y-79227307D02*
X272095714Y-79236094D01*
X272095714Y-79236094D02*
X300628824Y-149858018D01*
X318291676Y-142721763D02*
X318282890Y-142742461D01*
X289758566Y-72099837D02*
X318291676Y-142721763D01*
X289737868Y-72091051D02*
X289758566Y-72099837D01*
X300628824Y-149858018D02*
X300620038Y-149878717D01*
X272075014Y-79227308D02*
X271095594Y-80206728D01*
X307400719Y-64954796D02*
X307421418Y-64963582D01*
X325063572Y-57818540D02*
X325084271Y-57827326D01*
X307421418Y-64963582D02*
X335954528Y-135585508D01*
X325084271Y-57827326D02*
X353617381Y-128449250D01*
X305840634Y-74759366D02*
X301500000Y-80300000D01*
X305840634Y-66514882D02*
X307400719Y-64954797D01*
X335954528Y-135585508D02*
X335945742Y-135606205D01*
X305840634Y-74759366D02*
X305840634Y-66514882D01*
X353617381Y-128449250D02*
X353608594Y-128469950D01*
X206373455Y-130256431D02*
X208248455Y-132131431D01*
X192765955Y-130256431D02*
X206373455Y-130256431D01*
X190890955Y-132131431D02*
X190906855Y-132147331D01*
X208264355Y-132147331D02*
X208264355Y-167675531D01*
X208248455Y-132131431D02*
X210679886Y-129700000D01*
X190890955Y-132131431D02*
X192765955Y-130256431D01*
X208248455Y-132131431D02*
X208264355Y-132147331D01*
X225155955Y-128444045D02*
X225155955Y-115160327D01*
X210679886Y-129700000D02*
X223900000Y-129700000D01*
X190906855Y-167675531D02*
X190890955Y-167691431D01*
X225155955Y-115160327D02*
X210847059Y-100851431D01*
X190906855Y-132147331D02*
X190906855Y-167675531D01*
X223900000Y-129700000D02*
X225155955Y-128444045D01*
X208264355Y-167675531D02*
X208248455Y-167691431D01*
X210847059Y-100851431D02*
X208943455Y-100851431D01*
X225621855Y-167675531D02*
X225605955Y-167691431D01*
X200374705Y-186276431D02*
X215477205Y-186276431D01*
X225605955Y-132131431D02*
X225605955Y-114973931D01*
X225605955Y-114973931D02*
X208943455Y-98311431D01*
X225605955Y-167691431D02*
X221823451Y-171473935D01*
X199569705Y-185471431D02*
X200374705Y-186276431D01*
X221823451Y-171473935D02*
X221823451Y-183480185D01*
X225605955Y-132131431D02*
X225621855Y-132147331D01*
X221823451Y-183480185D02*
X217252205Y-188051431D01*
X215477205Y-186276431D02*
X217252205Y-188051431D01*
X225621855Y-132147331D02*
X225621855Y-167675531D01*
X341718598Y-136013299D02*
X345578350Y-126920294D01*
X345578350Y-126920294D02*
X349644052Y-125277643D01*
X193703455Y-100096545D02*
X193703455Y-100851431D01*
D35*
X217567399Y-190551431D02*
X227784955Y-180333875D01*
X227784955Y-115697705D02*
X214513210Y-102425960D01*
X202752205Y-190551431D02*
X217567399Y-190551431D01*
X227784955Y-180333875D02*
X227784955Y-115697705D01*
X193794886Y-90600000D02*
X193703455Y-90691431D01*
D34*
X242500000Y-104200000D02*
X242548761Y-99218237D01*
X184823459Y-115061431D02*
X185948459Y-113936431D01*
X185948459Y-113936431D02*
X200198454Y-113936431D01*
X200198454Y-113936431D02*
X201323454Y-115061431D01*
X66111531Y-136818316D02*
X65025715Y-134260296D01*
X65841642Y-137486315D02*
X66111531Y-136818316D01*
X77901646Y-135267010D02*
X78184653Y-134566543D01*
X207200000Y-118825000D02*
X206137022Y-118825000D01*
X194331431Y-105931431D02*
X193703455Y-105931431D01*
X202448454Y-115136432D02*
X202448454Y-114048454D01*
X206137022Y-118825000D02*
X202448454Y-115136432D01*
X202448454Y-114048454D02*
X194331431Y-105931431D01*
X62171214Y-141325438D02*
X59347543Y-134673287D01*
X59347543Y-134673287D02*
X61567265Y-129179280D01*
X61567265Y-129179280D02*
X61084024Y-128040836D01*
X76723812Y-59698650D02*
X75431224Y-72188933D01*
X93570737Y-63608885D02*
X94386660Y-66834905D01*
X111233591Y-70745143D02*
X112049516Y-73971161D01*
X128896442Y-77881398D02*
X129712369Y-81107417D01*
X146559295Y-85017653D02*
X147375219Y-88243673D01*
X164222146Y-92153909D02*
X165038074Y-95379928D01*
X227298942Y-95295762D02*
X237442763Y-91197392D01*
X237442763Y-91197392D02*
X239694259Y-92153096D01*
X224859314Y-101043167D02*
X227298942Y-95295762D01*
X242522167Y-93906911D02*
X244961796Y-88159506D01*
X244961796Y-88159506D02*
X255105615Y-84061137D01*
X255105615Y-84061137D02*
X257357111Y-85016841D01*
X260185019Y-86770656D02*
X262624647Y-81023251D01*
X262624647Y-81023251D02*
X272768468Y-76924881D01*
X272768468Y-76924881D02*
X275019964Y-77880585D01*
X277847872Y-79634400D02*
X280287501Y-73886995D01*
X280287501Y-73886995D02*
X290431320Y-69788626D01*
X290431320Y-69788626D02*
X292682816Y-70744329D01*
X307917543Y-62723733D02*
X310169039Y-63679436D01*
X297950352Y-66750740D02*
X307917543Y-62723733D01*
X295510723Y-72498144D02*
X297950352Y-66750740D01*
X313173577Y-65361888D02*
X313845503Y-67024963D01*
X313845503Y-67024963D02*
X327216604Y-72700659D01*
X327216604Y-72700659D02*
X328235285Y-72289085D01*
X177040955Y-134671431D02*
X175028569Y-134671431D01*
X175028569Y-134671431D02*
X175000000Y-134700000D01*
X194398455Y-134671431D02*
X194398455Y-138246435D01*
X194398455Y-138246435D02*
X194423451Y-138271431D01*
X211755955Y-134671431D02*
X211755955Y-138238927D01*
X211755955Y-138238927D02*
X211723451Y-138271431D01*
X69587556Y-77361503D02*
X68291395Y-89860629D01*
X86412005Y-81327370D02*
X87250406Y-84497758D01*
X104074859Y-88463626D02*
X104913261Y-91634014D01*
X121737712Y-95599881D02*
X122576110Y-98770269D01*
X139400563Y-102736137D02*
X140238966Y-105906526D01*
X157063416Y-109872392D02*
X157901817Y-113042781D01*
X231995570Y-118706019D02*
X231283818Y-116944370D01*
X231283818Y-116944370D02*
X231344601Y-116801173D01*
X248531230Y-108886643D02*
X248583301Y-108908745D01*
X248583301Y-108908745D02*
X249658422Y-111569764D01*
X267321275Y-104433508D02*
X266422219Y-102208266D01*
X266422219Y-102208266D02*
X266427745Y-102195249D01*
X284984127Y-97297252D02*
X284103802Y-95118371D01*
X284103802Y-95118371D02*
X284136957Y-95040263D01*
X301710464Y-87843037D02*
X301715989Y-87830019D01*
X302646980Y-90160996D02*
X301710464Y-87843037D01*
X334237130Y-90314387D02*
X335338238Y-89869511D01*
X320309832Y-83024741D02*
X320981758Y-84687816D01*
X320981758Y-84687816D02*
X334237130Y-90314387D01*
X177040955Y-152451431D02*
X174951431Y-152451431D01*
X174951431Y-152451431D02*
X174900000Y-152400000D01*
X176892386Y-152600000D02*
X177040955Y-152451431D01*
X194398455Y-152451431D02*
X194398455Y-156046435D01*
X194398455Y-156046435D02*
X194423451Y-156071431D01*
X211755955Y-156103935D02*
X211823451Y-156171431D01*
X211755955Y-152451431D02*
X211755955Y-156103935D01*
X62451298Y-95024355D02*
X61136408Y-107569841D01*
X79298225Y-98934591D02*
X80114152Y-102160611D01*
X96961079Y-106070847D02*
X97777002Y-109296866D01*
X114623932Y-113207103D02*
X115439857Y-116433122D01*
X83504492Y-144622571D02*
X83774382Y-143954570D01*
X83774382Y-143954570D02*
X82688567Y-141396552D01*
X149949637Y-127479614D02*
X150765561Y-130705633D01*
X239131826Y-136368871D02*
X238214040Y-134097271D01*
X238214040Y-134097271D02*
X238219566Y-134084253D01*
X256082926Y-127470966D02*
X256116080Y-127392859D01*
X256794678Y-129232616D02*
X256082926Y-127470966D01*
X274457531Y-122096361D02*
X273689587Y-120195633D01*
X273689587Y-120195633D02*
X273695113Y-120182615D01*
X291483552Y-113383892D02*
X291571964Y-113175605D01*
X292120383Y-114960104D02*
X291483552Y-113383892D01*
X308940371Y-105737685D02*
X308945897Y-105724667D01*
X309783236Y-107823849D02*
X308940371Y-105737685D01*
X174931431Y-170231431D02*
X174900000Y-170200000D01*
X177040955Y-170231431D02*
X174931431Y-170231431D01*
X189764555Y-174865331D02*
X189489555Y-174865331D01*
X194398455Y-170231431D02*
X189764555Y-174865331D01*
X211755955Y-170231431D02*
X206397055Y-175590331D01*
X185719705Y-188011431D02*
X185719705Y-183357973D01*
X55315044Y-112687208D02*
X56345643Y-110136386D01*
X56345643Y-110136386D02*
X59456700Y-108815820D01*
X69327706Y-128857998D02*
X70836505Y-132412508D01*
X72977894Y-119823462D02*
X69327706Y-128857998D01*
X142794651Y-145188825D02*
X143880465Y-147746842D01*
X143880465Y-147746842D02*
X143629305Y-148368485D01*
X246268082Y-154031724D02*
X245369026Y-151806482D01*
X245369026Y-151806482D02*
X245374551Y-151793465D01*
X263930934Y-146895469D02*
X263080577Y-144790761D01*
X263080577Y-144790761D02*
X263028505Y-144768658D01*
X281593786Y-139759213D02*
X280657270Y-137441253D01*
X280657270Y-137441253D02*
X280662796Y-137428235D01*
X298376313Y-130444075D02*
X298409468Y-130365967D01*
X299256639Y-132622957D02*
X298376313Y-130444075D01*
X316919491Y-125486701D02*
X317631806Y-127249742D01*
X317631806Y-127249742D02*
X330862553Y-132865861D01*
X334331183Y-117728803D02*
X331773166Y-116642989D01*
X334582343Y-118350446D02*
X334331183Y-117728803D01*
X54018883Y-125186334D02*
X52709641Y-128426826D01*
X52709641Y-128426826D02*
X48178788Y-130350059D01*
X101167345Y-151758826D02*
X101437234Y-151090826D01*
X101437234Y-151090826D02*
X100351421Y-148532808D01*
X119100087Y-158227081D02*
X118014272Y-155669063D01*
X118830197Y-158895082D02*
X119100087Y-158227081D01*
X136493049Y-166031338D02*
X136762939Y-165363337D01*
X136762939Y-165363337D02*
X135677126Y-162805319D01*
X252561472Y-169608412D02*
X252566998Y-169595395D01*
X253404337Y-171694576D02*
X252561472Y-169608412D01*
X271067190Y-164558321D02*
X270130673Y-162240361D01*
X270130673Y-162240361D02*
X270163828Y-162162253D01*
X287774795Y-155057746D02*
X287780321Y-155044728D01*
X288730042Y-157422065D02*
X287774795Y-155057746D01*
X306392894Y-150285809D02*
X305531299Y-148153286D01*
X305531299Y-148153286D02*
X305564454Y-148075179D01*
X324055747Y-143149554D02*
X323175421Y-140970672D01*
X323175421Y-140970672D02*
X323180947Y-140957654D01*
X328118014Y-102350668D02*
X341489115Y-108026364D01*
X327446088Y-100687593D02*
X328118014Y-102350668D01*
X341489115Y-108026364D02*
X342507796Y-107614790D01*
X132286784Y-120343358D02*
X133102707Y-123569377D01*
M02*
