G04 #@! TF.GenerationSoftware,KiCad,Pcbnew,8.0.6*
G04 #@! TF.CreationDate,2024-10-28T13:20:39+01:00*
G04 #@! TF.ProjectId,pteranodon,70746572-616e-46f6-946f-6e2e6b696361,rev?*
G04 #@! TF.SameCoordinates,Original*
G04 #@! TF.FileFunction,Copper,L2,Bot*
G04 #@! TF.FilePolarity,Positive*
%FSLAX46Y46*%
G04 Gerber Fmt 4.6, Leading zero omitted, Abs format (unit mm)*
G04 Created by KiCad (PCBNEW 8.0.6) date 2024-10-28 13:20:39*
%MOMM*%
%LPD*%
G01*
G04 APERTURE LIST*
G04 Aperture macros list*
%AMHorizOval*
0 Thick line with rounded ends*
0 $1 width*
0 $2 $3 position (X,Y) of the first rounded end (center of the circle)*
0 $4 $5 position (X,Y) of the second rounded end (center of the circle)*
0 Add line between two ends*
20,1,$1,$2,$3,$4,$5,0*
0 Add two circle primitives to create the rounded ends*
1,1,$1,$2,$3*
1,1,$1,$4,$5*%
%AMRotRect*
0 Rectangle, with rotation*
0 The origin of the aperture is its center*
0 $1 length*
0 $2 width*
0 $3 Rotation angle, in degrees counterclockwise*
0 Add horizontal line*
21,1,$1,$2,0,0,$3*%
G04 Aperture macros list end*
G04 #@! TA.AperFunction,ComponentPad*
%ADD10R,1.600000X1.600000*%
G04 #@! TD*
G04 #@! TA.AperFunction,ComponentPad*
%ADD11O,1.600000X1.600000*%
G04 #@! TD*
G04 #@! TA.AperFunction,ComponentPad*
%ADD12RotRect,1.600000X1.600000X73.000000*%
G04 #@! TD*
G04 #@! TA.AperFunction,ComponentPad*
%ADD13HorizOval,1.600000X0.000000X0.000000X0.000000X0.000000X0*%
G04 #@! TD*
G04 #@! TA.AperFunction,ComponentPad*
%ADD14RotRect,1.600000X1.600000X197.000000*%
G04 #@! TD*
G04 #@! TA.AperFunction,ComponentPad*
%ADD15HorizOval,1.600000X0.000000X0.000000X0.000000X0.000000X0*%
G04 #@! TD*
G04 #@! TA.AperFunction,ComponentPad*
%ADD16RotRect,1.600000X1.600000X107.000000*%
G04 #@! TD*
G04 #@! TA.AperFunction,ComponentPad*
%ADD17HorizOval,1.600000X0.000000X0.000000X0.000000X0.000000X0*%
G04 #@! TD*
G04 #@! TA.AperFunction,ComponentPad*
%ADD18RotRect,1.600000X1.600000X163.000000*%
G04 #@! TD*
G04 #@! TA.AperFunction,ComponentPad*
%ADD19HorizOval,1.600000X0.000000X0.000000X0.000000X0.000000X0*%
G04 #@! TD*
G04 #@! TA.AperFunction,WasherPad*
%ADD20O,3.200000X2.000000*%
G04 #@! TD*
G04 #@! TA.AperFunction,ComponentPad*
%ADD21R,2.000000X2.000000*%
G04 #@! TD*
G04 #@! TA.AperFunction,ComponentPad*
%ADD22C,2.000000*%
G04 #@! TD*
G04 #@! TA.AperFunction,ComponentPad*
%ADD23R,1.752600X1.752600*%
G04 #@! TD*
G04 #@! TA.AperFunction,ComponentPad*
%ADD24C,1.752600*%
G04 #@! TD*
G04 #@! TA.AperFunction,SMDPad,CuDef*
%ADD25R,2.550000X2.500000*%
G04 #@! TD*
G04 #@! TA.AperFunction,SMDPad,CuDef*
%ADD26RotRect,2.550000X2.500000X17.000000*%
G04 #@! TD*
G04 #@! TA.AperFunction,SMDPad,CuDef*
%ADD27RotRect,2.550000X2.500000X343.000000*%
G04 #@! TD*
G04 #@! TA.AperFunction,ComponentPad*
%ADD28C,4.400000*%
G04 #@! TD*
G04 #@! TA.AperFunction,ComponentPad*
%ADD29R,1.700000X1.700000*%
G04 #@! TD*
G04 #@! TA.AperFunction,ComponentPad*
%ADD30O,1.700000X1.700000*%
G04 #@! TD*
G04 #@! TA.AperFunction,ComponentPad*
%ADD31C,1.800000*%
G04 #@! TD*
G04 #@! TA.AperFunction,ViaPad*
%ADD32C,0.800000*%
G04 #@! TD*
G04 #@! TA.AperFunction,Conductor*
%ADD33C,0.250000*%
G04 #@! TD*
G04 #@! TA.AperFunction,Conductor*
%ADD34C,0.508000*%
G04 #@! TD*
G04 APERTURE END LIST*
D10*
X234071897Y-137049778D03*
D11*
X234071897Y-144669778D03*
D12*
X69703701Y-108032481D03*
D13*
X71931573Y-100745439D03*
D10*
X211753713Y-137049778D03*
D11*
X211753713Y-144669778D03*
D12*
X124494226Y-124783623D03*
D13*
X126722098Y-117496581D03*
D12*
X120489315Y-202916747D03*
D13*
X122717187Y-195629705D03*
D14*
X295395408Y-150375921D03*
D15*
X288108366Y-152603793D03*
D16*
X310308740Y-179559623D03*
D17*
X308080868Y-172272581D03*
D12*
X29252105Y-175022733D03*
D13*
X31479977Y-167735691D03*
D12*
X40346150Y-138735747D03*
D13*
X42574022Y-131448705D03*
D16*
X323006481Y-155838145D03*
D17*
X320778609Y-148551103D03*
D12*
X87967208Y-113616194D03*
D13*
X90195080Y-106329152D03*
D16*
X383287797Y-157247684D03*
D17*
X381059925Y-149960642D03*
D10*
X220680985Y-137049778D03*
D11*
X220680985Y-144669778D03*
D12*
X102306137Y-197357591D03*
D13*
X104534009Y-190070549D03*
D16*
X388834819Y-175391177D03*
D17*
X386606947Y-168104135D03*
D16*
X330157203Y-113973179D03*
D17*
X327929331Y-106686137D03*
D12*
X58609657Y-144319464D03*
D13*
X60837529Y-137032422D03*
D18*
X44292385Y-106199067D03*
D19*
X37005343Y-103971195D03*
D16*
X366646732Y-102817210D03*
D17*
X364418860Y-95530168D03*
D16*
X315855763Y-197703114D03*
D17*
X313627891Y-190416072D03*
D16*
X335704226Y-132116671D03*
D17*
X333476354Y-124829629D03*
D10*
X189435533Y-137049778D03*
D11*
X189435533Y-144669778D03*
D16*
X352345291Y-186547147D03*
D17*
X350117419Y-179260105D03*
D16*
X304761719Y-161416131D03*
D17*
X302533847Y-154129089D03*
D16*
X341251248Y-150260163D03*
D17*
X339023376Y-142973121D03*
D16*
X311912438Y-119551163D03*
D17*
X309684566Y-112264121D03*
D10*
X229608257Y-137049778D03*
D11*
X229608257Y-144669778D03*
D10*
X184971897Y-137049779D03*
D11*
X184971897Y-144669779D03*
D16*
X317459461Y-137694655D03*
D17*
X315231589Y-130407613D03*
D12*
X106230719Y-119199909D03*
D13*
X108458591Y-111912867D03*
D16*
X299214695Y-143272640D03*
D17*
X296986823Y-135985598D03*
D16*
X372193755Y-120960702D03*
D17*
X369965883Y-113673660D03*
D18*
X33350740Y-141987577D03*
D19*
X26063698Y-139759705D03*
D18*
X38753769Y-124315065D03*
D19*
X31466727Y-122087193D03*
D16*
X365043034Y-162825670D03*
D17*
X362815162Y-155538628D03*
D12*
X113400181Y-161070606D03*
D13*
X115628053Y-153783564D03*
D16*
X377740775Y-139104192D03*
D17*
X375512903Y-131817150D03*
D16*
X359496011Y-144682179D03*
D17*
X357268139Y-137395137D03*
D12*
X82420186Y-131759685D03*
D13*
X84648058Y-124472643D03*
D16*
X292054603Y-185140472D03*
D17*
X289826731Y-177853430D03*
D14*
X289848386Y-132232429D03*
D15*
X282561344Y-134460301D03*
D16*
X328553503Y-173981638D03*
D17*
X326325631Y-166694596D03*
D12*
X118947205Y-142927115D03*
D13*
X121175077Y-135640073D03*
D16*
X370590057Y-180969161D03*
D17*
X368362185Y-173682119D03*
D16*
X297601624Y-203283964D03*
D17*
X295373752Y-195996922D03*
D12*
X65779120Y-186190163D03*
D13*
X68006992Y-178903121D03*
D10*
X225144621Y-137049779D03*
D11*
X225144621Y-144669779D03*
D12*
X84042629Y-191773875D03*
D13*
X86270501Y-184486833D03*
D12*
X47515614Y-180606445D03*
D13*
X49743486Y-173319403D03*
D12*
X95136671Y-155486892D03*
D13*
X97364543Y-148199850D03*
D18*
X46100114Y-165607201D03*
D19*
X38813072Y-163379329D03*
D10*
X202826441Y-137049779D03*
D11*
X202826441Y-144669779D03*
D12*
X107853157Y-179214099D03*
D13*
X110081029Y-171927057D03*
D10*
X198362805Y-137049778D03*
D11*
X198362805Y-144669778D03*
D16*
X346798268Y-168403655D03*
D17*
X344570396Y-161116613D03*
D12*
X100683695Y-137343400D03*
D13*
X102911567Y-130056358D03*
D16*
X334100527Y-192125132D03*
D17*
X331872655Y-184838090D03*
D12*
X64156679Y-126175971D03*
D13*
X66384551Y-118888929D03*
D10*
X193899169Y-137049778D03*
D11*
X193899169Y-144669778D03*
D12*
X51440194Y-102448763D03*
D13*
X53668066Y-95161721D03*
D14*
X300942431Y-168519413D03*
D15*
X293655389Y-170747285D03*
D12*
X53062635Y-162462953D03*
D13*
X55290507Y-155175911D03*
D18*
X27836609Y-160023485D03*
D19*
X20549567Y-157795613D03*
D10*
X207290077Y-137049778D03*
D11*
X207290077Y-144669778D03*
D16*
X353948989Y-126538687D03*
D17*
X351721117Y-119251645D03*
D12*
X89589651Y-173630383D03*
D13*
X91817523Y-166343341D03*
D12*
X126036339Y-184773254D03*
D13*
X128264211Y-177486212D03*
D16*
X348401966Y-108395195D03*
D17*
X346174094Y-101108153D03*
D14*
X306489453Y-186662905D03*
D15*
X299202411Y-188890777D03*
D10*
X216217349Y-137049778D03*
D11*
X216217349Y-144669778D03*
D12*
X34799125Y-156879240D03*
D13*
X37026997Y-149592198D03*
D12*
X45893172Y-120592255D03*
D13*
X48121044Y-113305213D03*
D14*
X288225943Y-192246617D03*
D15*
X280938901Y-194474489D03*
D16*
X293667673Y-125129149D03*
D17*
X291439801Y-117842107D03*
D12*
X76873165Y-149903177D03*
D13*
X79101037Y-142616135D03*
D12*
X71326142Y-168046669D03*
D13*
X73554014Y-160759627D03*
D20*
X182201522Y-176017278D03*
X182201522Y-164817278D03*
D21*
X174701522Y-167917278D03*
D22*
X174701522Y-172917278D03*
X174701522Y-170417278D03*
X189201522Y-172917278D03*
X189201522Y-167917278D03*
D23*
X201899118Y-96559778D03*
D24*
X201899118Y-99099778D03*
X201899118Y-101639778D03*
X201899118Y-104179778D03*
X201899118Y-106719778D03*
X201899118Y-109259778D03*
X201899118Y-111799778D03*
X201899118Y-114339778D03*
X201899118Y-116879778D03*
X201899118Y-119419778D03*
X201899118Y-121959778D03*
X217139118Y-124499778D03*
X217139118Y-121959778D03*
X217139118Y-119419778D03*
X217139118Y-116879778D03*
X217139118Y-114339778D03*
X217139118Y-111799778D03*
X217139118Y-109259778D03*
X217139118Y-106719778D03*
X217139118Y-104179778D03*
X217139118Y-101639778D03*
X217139118Y-99099778D03*
X202127718Y-124499778D03*
X217139118Y-96559778D03*
X214599118Y-124499778D03*
X212059118Y-124499778D03*
X209519118Y-124499778D03*
X206979118Y-124499778D03*
X204439118Y-124499778D03*
D25*
X246170521Y-165337278D03*
X232320521Y-167877278D03*
X246170522Y-203282278D03*
X232320522Y-205822278D03*
D26*
X292493099Y-195549600D03*
X279990902Y-202027962D03*
D27*
X119037043Y-133658381D03*
X105049598Y-132038047D03*
D26*
X323473092Y-166238679D03*
X310970895Y-172717041D03*
D27*
X95226514Y-146218159D03*
X81239069Y-144597825D03*
X142847575Y-121098607D03*
X128860130Y-119478273D03*
D26*
X286946075Y-177406108D03*
X274443878Y-183884470D03*
D27*
X113490021Y-151801873D03*
X99502576Y-150181539D03*
X53152472Y-153194222D03*
X39165027Y-151573888D03*
D26*
X312379049Y-129951695D03*
X299876852Y-136430057D03*
X305209585Y-171822392D03*
X292707388Y-178300754D03*
D27*
X88057049Y-104347460D03*
X74069604Y-102727126D03*
X34888966Y-147610506D03*
X20901521Y-145990172D03*
D26*
X361547576Y-95079980D03*
X349045379Y-101558342D03*
X310756607Y-189965883D03*
X298254410Y-196444245D03*
X396433407Y-143932472D03*
X383931210Y-150410834D03*
D25*
X227072523Y-203282278D03*
X213222523Y-205822278D03*
D27*
X40435988Y-129467015D03*
X26448543Y-127846681D03*
D25*
X207974522Y-184309778D03*
X194124522Y-186849778D03*
D26*
X325058046Y-106235949D03*
X312555849Y-112714311D03*
D27*
X124584066Y-115514890D03*
X110596621Y-113894556D03*
D26*
X317926071Y-148095186D03*
X305423874Y-154573548D03*
D27*
X45983009Y-111323523D03*
X31995564Y-109703189D03*
X138829274Y-199227636D03*
X124841829Y-197607302D03*
D26*
X401980428Y-162075963D03*
X389478231Y-168554325D03*
D27*
X131753528Y-157385588D03*
X117766083Y-155765254D03*
X58699496Y-135050730D03*
X44712051Y-133430396D03*
D26*
X299662563Y-153678900D03*
X287160366Y-160157262D03*
D27*
X65868960Y-176921430D03*
X51881515Y-175301096D03*
D26*
X360000107Y-155071248D03*
X347497910Y-161549610D03*
X379792340Y-89501996D03*
X367290143Y-95980358D03*
X330642557Y-124367979D03*
X318140360Y-130846341D03*
D27*
X107943000Y-169945367D03*
X93955555Y-168325033D03*
D25*
X227072521Y-165337278D03*
X213222521Y-167877278D03*
D27*
X100773535Y-128074669D03*
X86786090Y-126454335D03*
X126206508Y-175529080D03*
X112219063Y-173908746D03*
D25*
X246170521Y-184309778D03*
X232320521Y-186849778D03*
D26*
X390886386Y-125788979D03*
X378384189Y-132267341D03*
X343302810Y-100657965D03*
X330800613Y-107136327D03*
X288568517Y-117391917D03*
X276066320Y-123870279D03*
D27*
X82510029Y-122490953D03*
X68522584Y-120870619D03*
D25*
X207974522Y-203282278D03*
X194124522Y-205822278D03*
D26*
X347283623Y-178798456D03*
X334781426Y-185276818D03*
D27*
X29341945Y-165753998D03*
X15354500Y-164133664D03*
D26*
X365547131Y-173214740D03*
X353044934Y-179693102D03*
D27*
X76963007Y-140634444D03*
X62975562Y-139014110D03*
D26*
X367169573Y-113200549D03*
X354667376Y-119678911D03*
D27*
X144376300Y-181084143D03*
X130388855Y-179463809D03*
X47605452Y-171337713D03*
X33618007Y-169717379D03*
X120659486Y-193672572D03*
X106672041Y-192052238D03*
D26*
X306813282Y-111813932D03*
X294311085Y-118292294D03*
D27*
X84132471Y-182505143D03*
X70145026Y-180884809D03*
X102395978Y-188088859D03*
X88408533Y-186468525D03*
D25*
X227072521Y-184309778D03*
X213222521Y-186849778D03*
X188876522Y-203282278D03*
X175026522Y-205822278D03*
D26*
X378263618Y-149487533D03*
X365761421Y-155965895D03*
X383810640Y-167631024D03*
X371308443Y-174109386D03*
X329020113Y-184382171D03*
X316517916Y-190860533D03*
D25*
X207974522Y-165337278D03*
X194124522Y-167877278D03*
X188876522Y-184309779D03*
X175026522Y-186849779D03*
D26*
X372716593Y-131344040D03*
X360214396Y-137822402D03*
D27*
X89679493Y-164361652D03*
X75692048Y-162741318D03*
X51530033Y-93180032D03*
X37542588Y-91559698D03*
D26*
X348906064Y-118784264D03*
X336403867Y-125262626D03*
D27*
X69793543Y-98763746D03*
X55806098Y-97143412D03*
D26*
X354453086Y-136927755D03*
X341950889Y-143406117D03*
D27*
X64246521Y-116907238D03*
X50259076Y-115286904D03*
D26*
X385339364Y-107645487D03*
X372837167Y-114123849D03*
X341736599Y-160654963D03*
X329234402Y-167133325D03*
D27*
X137300553Y-139242099D03*
X123313108Y-137621765D03*
X106320558Y-109931177D03*
X92333113Y-108310843D03*
D26*
X294115539Y-135535409D03*
X281613342Y-142013771D03*
D27*
X71415983Y-158777936D03*
X57428538Y-157157602D03*
D26*
X336189578Y-142511472D03*
X323687381Y-148989834D03*
D28*
X211233521Y-198876028D03*
X211233521Y-179903528D03*
X123441904Y-130397503D03*
X50387870Y-108062644D03*
X33746803Y-162493119D03*
X106800838Y-184827978D03*
X368913559Y-108059780D03*
X295934502Y-130371717D03*
D29*
X209519118Y-111484778D03*
D30*
X209519118Y-108944778D03*
X209519118Y-106404778D03*
D31*
X211769118Y-99109779D03*
X207269118Y-105609779D03*
X207269118Y-99109779D03*
X211769118Y-105609779D03*
D28*
X385554626Y-162490255D03*
X312575568Y-184802193D03*
D32*
X214130000Y-198830000D03*
X214020000Y-180210000D03*
X144949522Y-119007675D03*
X274424522Y-118984778D03*
X194134522Y-180199778D03*
X232314522Y-179464778D03*
X175024522Y-197989778D03*
X194094522Y-199569779D03*
X232444522Y-198009779D03*
X190499522Y-217559779D03*
X209099521Y-218284778D03*
X213184522Y-218279778D03*
X232294522Y-217559778D03*
X294699521Y-192759779D03*
X290849522Y-206609778D03*
D33*
X214130000Y-187757257D02*
X214130000Y-198830000D01*
X213222521Y-186849778D02*
X214130000Y-187757257D01*
X214020000Y-168674757D02*
X214020000Y-180210000D01*
X213222521Y-167877278D02*
X214020000Y-168674757D01*
X29361800Y-165743442D02*
X29341944Y-165753998D01*
X51530035Y-93180031D02*
X53871303Y-91935157D01*
X53871303Y-91935157D02*
X68548667Y-96422478D01*
X201899117Y-96735182D02*
X201899117Y-96559779D01*
X69793543Y-98763747D02*
X73258618Y-96921333D01*
X69793543Y-98763747D02*
X69804097Y-98783599D01*
X131306690Y-114668409D02*
X141510463Y-117788017D01*
X141510463Y-117788017D02*
X186835654Y-117788017D01*
X47625308Y-171327157D02*
X47605451Y-171337714D01*
X51530035Y-93180031D02*
X51540591Y-93199884D01*
X68548667Y-96422478D02*
X69793543Y-98763747D01*
X51540591Y-93199884D02*
X29361800Y-165743442D01*
X73258618Y-96921333D02*
X131306690Y-114668409D01*
X186835654Y-117788017D02*
X199674521Y-104949149D01*
X199674522Y-98784374D02*
X201899117Y-96559779D01*
X199674521Y-104949149D02*
X199674522Y-98784374D01*
X69804097Y-98783599D02*
X47625308Y-171327157D01*
X133489382Y-115806285D02*
X141589283Y-118282675D01*
X88057049Y-104347461D02*
X88067606Y-104367315D01*
X200124522Y-105135544D02*
X200124522Y-100874375D01*
X88067606Y-104367315D02*
X65888814Y-176910871D01*
X105075683Y-107589907D02*
X106320557Y-109931178D01*
X84152322Y-182494588D02*
X84132471Y-182505145D01*
X186977391Y-118282676D02*
X200124522Y-105135544D01*
X65888814Y-176910871D02*
X65868960Y-176921429D01*
X88057049Y-104347461D02*
X90398317Y-103102587D01*
X200124522Y-100874375D02*
X201899118Y-99099779D01*
X90398317Y-103102587D02*
X105075683Y-107589907D01*
X109223731Y-108387531D02*
X133489382Y-115806285D01*
X106320557Y-109931178D02*
X109223731Y-108387531D01*
X106331115Y-109951032D02*
X84152322Y-182494588D01*
X141589283Y-118282675D02*
X186977391Y-118282676D01*
X106320557Y-109931178D02*
X106331115Y-109951032D01*
X142858132Y-121118460D02*
X120679340Y-193662016D01*
X143758745Y-122009778D02*
X142847575Y-121098607D01*
X124594622Y-115534745D02*
X102415831Y-188078303D01*
X141602701Y-118757338D02*
X142847576Y-121098608D01*
X144938506Y-119007675D02*
X144949522Y-119007675D01*
X126925333Y-114270016D02*
X141602701Y-118757338D01*
X124584065Y-115514889D02*
X124594622Y-115534745D01*
X142847575Y-121098607D02*
X144938506Y-119007675D01*
X142847576Y-121098608D02*
X142858132Y-121118460D01*
X120679340Y-193662016D02*
X120659486Y-193672572D01*
X124584065Y-115514889D02*
X126925333Y-114270016D01*
X102415831Y-188078303D02*
X102395977Y-188088858D01*
X189201522Y-167917278D02*
X187876522Y-169242278D01*
X193656522Y-163462278D02*
X193844522Y-163462279D01*
X207990422Y-203266379D02*
X207974522Y-203282278D01*
X187876522Y-183309778D02*
X188876522Y-184309778D01*
X138849132Y-199217078D02*
X138829276Y-199227635D01*
X183249521Y-153055279D02*
X183249521Y-127909374D01*
X144386856Y-181103998D02*
X138849132Y-199217078D01*
X188892421Y-184325678D02*
X188892422Y-203266378D01*
X183249521Y-127909374D02*
X201899118Y-109259778D01*
X207990422Y-165353179D02*
X207990422Y-203266379D01*
X193656522Y-163462278D02*
X183249521Y-153055279D01*
X189201522Y-167917278D02*
X193656522Y-163462278D01*
X193844522Y-163462279D02*
X206099522Y-163462278D01*
X206099522Y-163462278D02*
X207974521Y-165337278D01*
X185650887Y-181084143D02*
X188876522Y-184309778D01*
X144376300Y-181084145D02*
X144386856Y-181103998D01*
X188876522Y-184309778D02*
X188892421Y-184325678D01*
X207974521Y-165337278D02*
X207990422Y-165353179D01*
X188892422Y-203266378D02*
X188876522Y-203282278D01*
X144376300Y-181084145D02*
X185650887Y-181084143D01*
X187876522Y-169242278D02*
X187876522Y-183309778D01*
X246186421Y-203266378D02*
X246170521Y-203282279D01*
X227072522Y-165337278D02*
X227088422Y-165353178D01*
X286946075Y-177406107D02*
X286965928Y-177416665D01*
X215245021Y-153509778D02*
X227072522Y-165337278D01*
X286167470Y-176627504D02*
X286946076Y-177406108D01*
X195402888Y-153509779D02*
X215245021Y-153509778D01*
X246186422Y-165353178D02*
X246186421Y-203266378D01*
X227072522Y-165337278D02*
X228947522Y-163462279D01*
X227088422Y-203266378D02*
X227072522Y-203282278D01*
X227088422Y-165353178D02*
X227088422Y-203266378D01*
X183699521Y-129999374D02*
X183699522Y-141806412D01*
X201899118Y-111799779D02*
X183699521Y-129999374D01*
X244295521Y-163462278D02*
X246170522Y-165337279D01*
X246170522Y-165337279D02*
X246186422Y-165353178D01*
X286965928Y-177416665D02*
X292503653Y-195529746D01*
X292503653Y-195529746D02*
X292493099Y-195549599D01*
X246170522Y-184309779D02*
X253852798Y-176627502D01*
X253852798Y-176627502D02*
X286167470Y-176627504D01*
X183699522Y-141806412D02*
X195402888Y-153509779D01*
X228947522Y-163462279D02*
X244295521Y-163462278D01*
X288568516Y-117391917D02*
X288588370Y-117402474D01*
X306813281Y-111813931D02*
X304472014Y-110569057D01*
X329030671Y-184362314D02*
X329020113Y-184382170D01*
X225749118Y-120409778D02*
X217139118Y-111799778D01*
X288568516Y-117391917D02*
X288568517Y-118699032D01*
X306813281Y-111813931D02*
X306857610Y-111837501D01*
X286857770Y-120409779D02*
X225749118Y-120409778D01*
X304472014Y-110569057D02*
X289813391Y-115050647D01*
X288568517Y-118699032D02*
X286857770Y-120409779D01*
X289813391Y-115050647D02*
X288568516Y-117391917D01*
X306857610Y-111837501D02*
X329030671Y-184362314D01*
X288588370Y-117402474D02*
X310767162Y-189946031D01*
X310767162Y-189946031D02*
X310756606Y-189965885D01*
X322154872Y-104692304D02*
X295744198Y-112766857D01*
X227589118Y-119709778D02*
X217139118Y-109259778D01*
X326302921Y-103894680D02*
X325058045Y-106235948D01*
X343396088Y-100707560D02*
X365557688Y-173194886D01*
X340961542Y-99413090D02*
X326302921Y-103894680D01*
X343302811Y-100657964D02*
X343396088Y-100707560D01*
X278457311Y-118051988D02*
X276799522Y-119709779D01*
X325058046Y-106235948D02*
X322154872Y-104692304D01*
X325126850Y-106272531D02*
X347294178Y-178778600D01*
X295744195Y-112766858D02*
X289512100Y-114672200D01*
X325058045Y-106235948D02*
X325126850Y-106272531D01*
X276799522Y-119709779D02*
X227589118Y-119709778D01*
X347294178Y-178778600D02*
X347283621Y-178798456D01*
X289512098Y-114672201D02*
X278457311Y-118051988D01*
X343302811Y-100657964D02*
X340961542Y-99413090D01*
X289512100Y-114672200D02*
X289512098Y-114672201D01*
X295744198Y-112766857D02*
X295744195Y-112766858D01*
X365557688Y-173194886D02*
X365547130Y-173214741D01*
X401990986Y-162056109D02*
X401980429Y-162075963D01*
X274424522Y-118984778D02*
X276888126Y-118984778D01*
X383821196Y-167611170D02*
X383810638Y-167631024D01*
X361665327Y-95142587D02*
X383821196Y-167611170D01*
X276888126Y-118971637D02*
X278199521Y-117660241D01*
X377451072Y-88257119D02*
X362792450Y-92738711D01*
X276888126Y-118984778D02*
X276888126Y-118971637D01*
X310712682Y-107719971D02*
X278199521Y-117660241D01*
X379792339Y-89501995D02*
X377451072Y-88257119D01*
X362792450Y-92738711D02*
X361547575Y-95079978D01*
X361547575Y-95079978D02*
X361665327Y-95142587D01*
X379812193Y-89512550D02*
X401990986Y-162056109D01*
X379792339Y-89501995D02*
X379812193Y-89512550D01*
X358082499Y-93237565D02*
X310712682Y-107719971D01*
X361547576Y-95079978D02*
X358082499Y-93237565D01*
X268894404Y-171872286D02*
X297589559Y-171872286D01*
X189435533Y-131883363D02*
X201899117Y-119419778D01*
X234071897Y-137049778D02*
X268894404Y-171872286D01*
X189435533Y-137049778D02*
X189435533Y-131883363D01*
X297589559Y-171872286D02*
X300942431Y-168519413D01*
X174701522Y-167917278D02*
X174701522Y-134758480D01*
X174701522Y-134758480D02*
X201401523Y-108058478D01*
X204439118Y-110074374D02*
X204439118Y-124499779D01*
X201401523Y-108058478D02*
X202423222Y-108058478D01*
X202423222Y-108058478D02*
X204439118Y-110074374D01*
X202396713Y-105518478D02*
X206979118Y-110100883D01*
X201401523Y-105518478D02*
X202396713Y-105518478D01*
X173376522Y-133543479D02*
X201401523Y-105518478D01*
X174701522Y-172917279D02*
X173376521Y-171592278D01*
X173376521Y-171592278D02*
X173376522Y-133543479D01*
X206979118Y-110100883D02*
X206979118Y-124499779D01*
X297134261Y-192780403D02*
X299202410Y-188890777D01*
X298254410Y-196444245D02*
X297134261Y-192780403D01*
X209519118Y-111484778D02*
X209519118Y-124499779D01*
D34*
X176155522Y-173519545D02*
X175303789Y-174371278D01*
X173711021Y-174371279D02*
X172599522Y-173259779D01*
X176155522Y-171871278D02*
X176155522Y-173519545D01*
X175303789Y-174371278D02*
X173711021Y-174371279D01*
X172599522Y-133479374D02*
X201899118Y-104179778D01*
X172599522Y-173259779D02*
X172599522Y-133479374D01*
X174701522Y-170417279D02*
X176155522Y-171871278D01*
D33*
X215937818Y-115541078D02*
X215937817Y-117377373D01*
X215937817Y-117377373D02*
X210857818Y-122457373D01*
X216892349Y-138624778D02*
X217349522Y-138167605D01*
X212968713Y-135834778D02*
X211753713Y-137049778D01*
X217349522Y-138167605D02*
X217349522Y-136059778D01*
X204401441Y-138624779D02*
X216892349Y-138624778D01*
X217139118Y-114339778D02*
X215937818Y-115541078D01*
X202826441Y-137049779D02*
X204401441Y-138624779D01*
X217124522Y-135834778D02*
X212968713Y-135834778D01*
X217349522Y-136059778D02*
X217124522Y-135834778D01*
X210857818Y-122457373D02*
X210857817Y-136153883D01*
X210857817Y-136153883D02*
X211753713Y-137049778D01*
X207290077Y-137049778D02*
X206165077Y-135924778D01*
X198812805Y-135048061D02*
X198812805Y-126115797D01*
X206165077Y-135924778D02*
X199689522Y-135924778D01*
X203599522Y-121958269D02*
X203599522Y-116040183D01*
X199689522Y-135924778D02*
X198812805Y-135048061D01*
X216217349Y-137049778D02*
X215092349Y-138174778D01*
X202396713Y-123161078D02*
X203599522Y-121958269D01*
X201767523Y-123161079D02*
X202396713Y-123161078D01*
X208415077Y-138174778D02*
X207290077Y-137049778D01*
X198812805Y-126115797D02*
X201767523Y-123161079D01*
X203599522Y-116040183D02*
X201899118Y-114339779D01*
X215092349Y-138174778D02*
X208415077Y-138174778D01*
X365761420Y-155965897D02*
X363242428Y-155965897D01*
X363242428Y-155965897D02*
X362815162Y-155538631D01*
X201334214Y-120621079D02*
X202438222Y-120621078D01*
X203100418Y-118081078D02*
X201899117Y-116879778D01*
X225144621Y-137049779D02*
X226269621Y-135924778D01*
X282858537Y-135924778D02*
X287124522Y-140190764D01*
X287124521Y-143121477D02*
X294378965Y-150375921D01*
X287124522Y-140190764D02*
X287124521Y-143121477D01*
X198362805Y-123592487D02*
X201334214Y-120621079D01*
X202438222Y-120621078D02*
X203100417Y-119958883D01*
X226269621Y-135924778D02*
X282858537Y-135924778D01*
X203100417Y-119958883D02*
X203100418Y-118081078D01*
X294378965Y-150375921D02*
X295395408Y-150375921D01*
X198362805Y-137049778D02*
X198362805Y-123592487D01*
X187446897Y-139524778D02*
X227133257Y-139524780D01*
X224019621Y-126300281D02*
X217139118Y-119419778D01*
X229608257Y-137049778D02*
X228483257Y-138174778D01*
X184971897Y-137049779D02*
X187446897Y-139524778D01*
X224019621Y-138174778D02*
X224019621Y-126300281D01*
X228483257Y-138174778D02*
X224019621Y-138174778D01*
X227133257Y-139524780D02*
X229608257Y-137049778D01*
X37542590Y-103433949D02*
X37005343Y-103971194D01*
X37542590Y-91559697D02*
X37542590Y-103433949D01*
X55806098Y-97143411D02*
X53824406Y-95161723D01*
X53824406Y-95161723D02*
X53668064Y-95161723D01*
X74069605Y-102727128D02*
X72087915Y-100745437D01*
X72087915Y-100745437D02*
X71931572Y-100745437D01*
X90351422Y-106329152D02*
X90195081Y-106329150D01*
X92333112Y-108310841D02*
X90351422Y-106329152D01*
X110596621Y-113894556D02*
X108614930Y-111912868D01*
X108614930Y-111912868D02*
X108458591Y-111912867D01*
X126878438Y-117496581D02*
X126722099Y-117496581D01*
X128860130Y-119478273D02*
X126878438Y-117496581D01*
X194124522Y-180189779D02*
X194134522Y-180199778D01*
X194124521Y-167877278D02*
X194124522Y-180189779D01*
X232320522Y-167877278D02*
X232320522Y-179458778D01*
X232320522Y-179458778D02*
X232314522Y-179464778D01*
X278671717Y-132392150D02*
X282561345Y-134460302D01*
X276066319Y-123870280D02*
X278671717Y-132392150D01*
X291889989Y-118292293D02*
X291439802Y-117842106D01*
X294311086Y-118292293D02*
X291889989Y-118292293D01*
X312555850Y-112714310D02*
X310134755Y-112714310D01*
X310134755Y-112714310D02*
X309684566Y-112264121D01*
X330800613Y-107136327D02*
X328379521Y-107136326D01*
X328379521Y-107136326D02*
X327929330Y-106686137D01*
X346624283Y-101558340D02*
X346174096Y-101108153D01*
X349045380Y-101558340D02*
X346624283Y-101558340D01*
X364869048Y-95980357D02*
X364418860Y-95530168D01*
X367290143Y-95980357D02*
X364869048Y-95980357D01*
X31995566Y-121558357D02*
X31466728Y-122087197D01*
X31995565Y-109703188D02*
X31995566Y-121558357D01*
X48277385Y-113305215D02*
X48121043Y-113305215D01*
X50259076Y-115286903D02*
X48277385Y-113305215D01*
X66540893Y-118888927D02*
X66384550Y-118888929D01*
X68522584Y-120870619D02*
X66540893Y-118888927D01*
X86786091Y-126454335D02*
X84804399Y-124472644D01*
X84804399Y-124472644D02*
X84648058Y-124472642D01*
X105049599Y-132038047D02*
X103067909Y-130056359D01*
X103067909Y-130056359D02*
X102911567Y-130056359D01*
X123313108Y-137621763D02*
X121331417Y-135640074D01*
X121331417Y-135640074D02*
X121175077Y-135640073D01*
X175026522Y-197987779D02*
X175024522Y-197989778D01*
X175026522Y-186849778D02*
X175026522Y-197987779D01*
X194094522Y-199569779D02*
X194124522Y-199539779D01*
X194124522Y-199539779D02*
X194124522Y-186849778D01*
X232320521Y-197885778D02*
X232444522Y-198009779D01*
X232320522Y-186849779D02*
X232320521Y-197885778D01*
X281613343Y-142013771D02*
X284218739Y-150535641D01*
X284218739Y-150535641D02*
X288108367Y-152603793D01*
X299432394Y-135985598D02*
X299876851Y-136430056D01*
X296986823Y-135985597D02*
X299432394Y-135985598D01*
X315670316Y-130846341D02*
X315231589Y-130407613D01*
X318140360Y-130846341D02*
X315670316Y-130846341D01*
X336403868Y-125262626D02*
X333909349Y-125262625D01*
X333909349Y-125262625D02*
X333476354Y-124829629D01*
X354667374Y-119678911D02*
X352148384Y-119678913D01*
X352148384Y-119678913D02*
X351721117Y-119251644D01*
X372837166Y-114123849D02*
X370416070Y-114123849D01*
X370416070Y-114123849D02*
X369965883Y-113673660D01*
X26448544Y-139374862D02*
X26063697Y-139759707D01*
X26448542Y-127846681D02*
X26448544Y-139374862D01*
X44712051Y-133430397D02*
X42730362Y-131448706D01*
X42730362Y-131448706D02*
X42574022Y-131448706D01*
X60993871Y-137032419D02*
X60837528Y-137032420D01*
X62975562Y-139014111D02*
X60993871Y-137032419D01*
X383931211Y-150410833D02*
X381510114Y-150410833D01*
X381510114Y-150410833D02*
X381059927Y-149960644D01*
X97520886Y-148199851D02*
X97364543Y-148199851D01*
X99502576Y-150181540D02*
X97520886Y-148199851D01*
X117766085Y-155765256D02*
X115784395Y-153783566D01*
X115784395Y-153783566D02*
X115628055Y-153783565D01*
X175026521Y-207615962D02*
X175026522Y-205822278D01*
X190499522Y-217559779D02*
X184970337Y-217559778D01*
X184970337Y-217559778D02*
X175026521Y-207615962D01*
X194124522Y-207615962D02*
X204793338Y-218284778D01*
X209099521Y-218284778D02*
X208824522Y-218009778D01*
X204793338Y-218284778D02*
X209099521Y-218284778D01*
X194124522Y-205822278D02*
X194124522Y-207615962D01*
X213222522Y-218241778D02*
X213222522Y-205822278D01*
X213184522Y-218279778D02*
X213222522Y-218241778D01*
X232320522Y-217533778D02*
X232320521Y-205822279D01*
X232294522Y-217559778D02*
X232320522Y-217533778D01*
X305423874Y-154573548D02*
X302978304Y-154573548D01*
X302978304Y-154573548D02*
X302533847Y-154129091D01*
X321217339Y-148989833D02*
X320778611Y-148551105D01*
X323687382Y-148989834D02*
X321217339Y-148989833D01*
X341950889Y-143406117D02*
X339456372Y-143406118D01*
X339456372Y-143406118D02*
X339023375Y-142973121D01*
X360214397Y-137822403D02*
X357695405Y-137822403D01*
X357695405Y-137822403D02*
X357268139Y-137395137D01*
X378384189Y-132267341D02*
X375963094Y-132267341D01*
X375963094Y-132267341D02*
X375512905Y-131817153D01*
X20901522Y-145990173D02*
X20901521Y-157443659D01*
X20901521Y-157443659D02*
X20549567Y-157795613D01*
X39165029Y-151573890D02*
X37183340Y-149592198D01*
X37183340Y-149592198D02*
X37026999Y-149592199D01*
X55446848Y-155175913D02*
X55290508Y-155175913D01*
X57428537Y-157157604D02*
X55446848Y-155175913D01*
X75692048Y-162741318D02*
X73710357Y-160759626D01*
X73710357Y-160759626D02*
X73554013Y-160759627D01*
X93955555Y-168325032D02*
X91973864Y-166343343D01*
X91973864Y-166343343D02*
X91817522Y-166343343D01*
X112219061Y-173908747D02*
X110237373Y-171927058D01*
X110237373Y-171927058D02*
X110081030Y-171927057D01*
X128411257Y-177486212D02*
X128264211Y-177486214D01*
X130388855Y-179463809D02*
X128411257Y-177486212D01*
X274443878Y-183884470D02*
X277049276Y-192406339D01*
X277049276Y-192406339D02*
X280938903Y-194474491D01*
X290274056Y-178300755D02*
X289826732Y-177853431D01*
X292707387Y-178300754D02*
X290274056Y-178300755D01*
X310970896Y-172717040D02*
X308525325Y-172717040D01*
X308525325Y-172717040D02*
X308080869Y-172272583D01*
X329234402Y-167133326D02*
X326764361Y-167133325D01*
X326764361Y-167133325D02*
X326325633Y-166694598D01*
X345003395Y-161549610D02*
X344570397Y-161116612D01*
X347497910Y-161549609D02*
X345003395Y-161549610D01*
X289765762Y-168679135D02*
X293655389Y-170747285D01*
X287160366Y-160157262D02*
X289765762Y-168679135D01*
X294699522Y-187785392D02*
X294699521Y-192759779D01*
X292054603Y-185140472D02*
X294699522Y-187785392D01*
X16355560Y-163132605D02*
X21579152Y-163132604D01*
X15354500Y-164133665D02*
X16355560Y-163132605D01*
X26182237Y-167735689D02*
X31479978Y-167735689D01*
X21579152Y-163132604D02*
X26182237Y-167735689D01*
X34923448Y-165447478D02*
X38813073Y-163379327D01*
X33618008Y-169717380D02*
X34923448Y-165447478D01*
X49899824Y-173319405D02*
X49743485Y-173319405D01*
X51881514Y-175301095D02*
X49899824Y-173319405D01*
X70145026Y-180884809D02*
X68163335Y-178903120D01*
X68163335Y-178903120D02*
X68006994Y-178903121D01*
X88408533Y-186468524D02*
X86426842Y-184486835D01*
X86426842Y-184486835D02*
X86270500Y-184486835D01*
X104690350Y-190070551D02*
X104534007Y-190070550D01*
X106672041Y-192052239D02*
X104690350Y-190070551D01*
X124841830Y-197607302D02*
X122864232Y-195629704D01*
X122864232Y-195629704D02*
X122717186Y-195629703D01*
X279990901Y-202027962D02*
X281235775Y-199686695D01*
X287201540Y-197862776D02*
X288718245Y-198669223D01*
X281235775Y-199686695D02*
X287201540Y-197862776D01*
X294968986Y-196758179D02*
X295373753Y-195996923D01*
X288718245Y-198669223D02*
X294968986Y-196758179D01*
X195924168Y-139074778D02*
X193899169Y-137049778D01*
X218655985Y-139074778D02*
X195924168Y-139074778D01*
X213397818Y-120621078D02*
X217139117Y-116879778D01*
X213397818Y-129766611D02*
X213397818Y-120621078D01*
X220680985Y-137049778D02*
X218655985Y-139074778D01*
X220680985Y-137049778D02*
X213397818Y-129766611D01*
X81239070Y-144597826D02*
X79257379Y-142616135D01*
X79257379Y-142616135D02*
X79101037Y-142616136D01*
X299965553Y-196124502D02*
X299965553Y-193186806D01*
X290874522Y-206634778D02*
X290849522Y-206609778D01*
X290930857Y-206634778D02*
X300337676Y-197227959D01*
X299965553Y-193186806D02*
X306489453Y-186662905D01*
X300337676Y-197227959D02*
X300337676Y-196496624D01*
X300337676Y-196496624D02*
X299965553Y-196124502D01*
X290930857Y-206634778D02*
X290874522Y-206634778D01*
X314072348Y-190860532D02*
X313627891Y-190416073D01*
X316517916Y-190860533D02*
X314072348Y-190860532D01*
X334781426Y-185276817D02*
X332311383Y-185276816D01*
X332311383Y-185276816D02*
X331872654Y-184838090D01*
X353044934Y-179693102D02*
X350550416Y-179693101D01*
X350550416Y-179693101D02*
X350117418Y-179260104D01*
X371308443Y-174109386D02*
X368789451Y-174109386D01*
X368789451Y-174109386D02*
X368362185Y-173682120D01*
X387057138Y-168554325D02*
X386606947Y-168104136D01*
X389478231Y-168554325D02*
X387057138Y-168554325D01*
X214299118Y-101639778D02*
X217139118Y-101639779D01*
X211769118Y-99109778D02*
X214299118Y-101639778D01*
M02*
