G04 #@! TF.GenerationSoftware,KiCad,Pcbnew,8.0.2*
G04 #@! TF.CreationDate,2024-05-12T11:37:13+02:00*
G04 #@! TF.ProjectId,pterodactyl,70746572-6f64-4616-9374-796c2e6b6963,rev?*
G04 #@! TF.SameCoordinates,Original*
G04 #@! TF.FileFunction,Soldermask,Top*
G04 #@! TF.FilePolarity,Negative*
%FSLAX46Y46*%
G04 Gerber Fmt 4.6, Leading zero omitted, Abs format (unit mm)*
G04 Created by KiCad (PCBNEW 8.0.2) date 2024-05-12 11:37:13*
%MOMM*%
%LPD*%
G01*
G04 APERTURE LIST*
G04 Aperture macros list*
%AMHorizOval*
0 Thick line with rounded ends*
0 $1 width*
0 $2 $3 position (X,Y) of the first rounded end (center of the circle)*
0 $4 $5 position (X,Y) of the second rounded end (center of the circle)*
0 Add line between two ends*
20,1,$1,$2,$3,$4,$5,0*
0 Add two circle primitives to create the rounded ends*
1,1,$1,$2,$3*
1,1,$1,$4,$5*%
%AMRotRect*
0 Rectangle, with rotation*
0 The origin of the aperture is its center*
0 $1 length*
0 $2 width*
0 $3 Rotation angle, in degrees counterclockwise*
0 Add horizontal line*
21,1,$1,$2,0,0,$3*%
G04 Aperture macros list end*
%ADD10R,1.752600X1.752600*%
%ADD11C,1.752600*%
%ADD12RotRect,1.600000X1.600000X68.000000*%
%ADD13HorizOval,1.600000X0.000000X0.000000X0.000000X0.000000X0*%
%ADD14C,1.701800*%
%ADD15C,3.000000*%
%ADD16C,3.987800*%
%ADD17RotRect,1.600000X1.600000X112.000000*%
%ADD18HorizOval,1.600000X0.000000X0.000000X0.000000X0.000000X0*%
%ADD19R,1.700000X1.700000*%
%ADD20O,1.700000X1.700000*%
%ADD21R,1.600000X1.600000*%
%ADD22O,1.600000X1.600000*%
%ADD23RotRect,1.600000X1.600000X22.000000*%
%ADD24HorizOval,1.600000X0.000000X0.000000X0.000000X0.000000X0*%
%ADD25RotRect,1.600000X1.600000X158.000000*%
%ADD26HorizOval,1.600000X0.000000X0.000000X0.000000X0.000000X0*%
%ADD27C,4.400000*%
%ADD28O,3.200000X2.000000*%
%ADD29R,2.000000X2.000000*%
%ADD30C,2.000000*%
%ADD31C,1.800000*%
G04 APERTURE END LIST*
D10*
X193703455Y-83071431D03*
D11*
X193703455Y-85611431D03*
X193703455Y-88151431D03*
X193703455Y-90691431D03*
X193703455Y-93231431D03*
X193703455Y-95771431D03*
X193703455Y-98311431D03*
X193703455Y-100851431D03*
X193703455Y-103391431D03*
X193703455Y-105931431D03*
X193703455Y-108471431D03*
X208943455Y-111011431D03*
X208943455Y-108471431D03*
X208943455Y-105931431D03*
X208943455Y-103391431D03*
X208943455Y-100851431D03*
X208943455Y-98311431D03*
X208943455Y-95771431D03*
X208943455Y-93231431D03*
X208943455Y-90691431D03*
X208943455Y-88151431D03*
X208943455Y-85611431D03*
X193703455Y-111011431D03*
X208943455Y-83071431D03*
D12*
X90716236Y-70674026D03*
D13*
X93570738Y-63608885D03*
D14*
X302507555Y-134048979D03*
D15*
X302733578Y-131218182D03*
D16*
X307217649Y-132145978D03*
D15*
X307669694Y-126484383D03*
D14*
X311927743Y-130242977D03*
X214235955Y-137211431D03*
D15*
X215505955Y-134671431D03*
D16*
X219315955Y-137211431D03*
D15*
X221855955Y-132131431D03*
D14*
X224395955Y-137211431D03*
D17*
X313023542Y-70744577D03*
D18*
X310169040Y-63679436D03*
D14*
X74325810Y-123107534D03*
D15*
X76454834Y-121228237D03*
D16*
X79035904Y-125010535D03*
D15*
X83293952Y-121251942D03*
D14*
X83745998Y-126913536D03*
D19*
X203848455Y-88640000D03*
D20*
X201308455Y-88640000D03*
X198768455Y-88640000D03*
D17*
X327472682Y-105998919D03*
D18*
X324618180Y-98933778D03*
D14*
X228110230Y-102469189D03*
D15*
X228336253Y-99638392D03*
D16*
X232820324Y-100566188D03*
D15*
X233272369Y-94904593D03*
D14*
X237530418Y-98663187D03*
D17*
X292146977Y-120271430D03*
D18*
X289292475Y-113206289D03*
D21*
X217823451Y-115061431D03*
D22*
X217823451Y-122681431D03*
D17*
X341745193Y-141324624D03*
D18*
X338890691Y-134259483D03*
D14*
X337833259Y-119776468D03*
D15*
X338059282Y-116945671D03*
D16*
X342543353Y-117873467D03*
D15*
X342995398Y-112211872D03*
D14*
X347253447Y-115970466D03*
D12*
X118883209Y-102665021D03*
D13*
X121737711Y-95599880D03*
D14*
X179520955Y-172771431D03*
D15*
X180790955Y-170231431D03*
D16*
X184600955Y-172771431D03*
D15*
X187140955Y-167691431D03*
D14*
X189680955Y-172771431D03*
X235246487Y-120132041D03*
D15*
X235472510Y-117301244D03*
D16*
X239956581Y-118229040D03*
D15*
X240408626Y-112567445D03*
D14*
X244666675Y-116326039D03*
D17*
X263976258Y-152253152D03*
D18*
X261121756Y-145188011D03*
D12*
X139940149Y-152253966D03*
D13*
X142794651Y-145188825D03*
D14*
X123924026Y-102054341D03*
D15*
X126053050Y-100175044D03*
D16*
X128634120Y-103957342D03*
D15*
X132892168Y-100198749D03*
D14*
X133344214Y-105860343D03*
X137840965Y-169315410D03*
D15*
X139969989Y-167436113D03*
D16*
X142551059Y-171218411D03*
D15*
X146809107Y-167459818D03*
D14*
X147261153Y-173121412D03*
X144977219Y-151652557D03*
D15*
X147106243Y-149773260D03*
D16*
X149687313Y-153555558D03*
D15*
X153945361Y-149796965D03*
D14*
X154397407Y-155458559D03*
D12*
X126041941Y-84946539D03*
D13*
X128896443Y-77881398D03*
D14*
X249518998Y-155457746D03*
D15*
X249745021Y-152626949D03*
D16*
X254229092Y-153554745D03*
D15*
X254681137Y-147893150D03*
D14*
X258939186Y-151651744D03*
X252909338Y-112995786D03*
D15*
X253135361Y-110164989D03*
D16*
X257619432Y-111092785D03*
D15*
X258071477Y-105431190D03*
D14*
X262329526Y-109189784D03*
X141586881Y-109190597D03*
D15*
X143715905Y-107311300D03*
D16*
X146296975Y-111093598D03*
D15*
X150555023Y-107335005D03*
D14*
X151007069Y-112996599D03*
D12*
X122277295Y-145117710D03*
D13*
X125131797Y-138052569D03*
D14*
X267181851Y-148321491D03*
D15*
X267407874Y-145490694D03*
D16*
X271891945Y-146418490D03*
D15*
X272343990Y-140756895D03*
D14*
X276602039Y-144515489D03*
D12*
X115159769Y-162734204D03*
D13*
X118014271Y-155669063D03*
D17*
X288756636Y-162733391D03*
D18*
X285902134Y-155668250D03*
D14*
X81462067Y-105444684D03*
D15*
X83591091Y-103565387D03*
D16*
X86172161Y-107347685D03*
D15*
X90430209Y-103589092D03*
D14*
X90882255Y-109250686D03*
X270572192Y-105859530D03*
D15*
X270798215Y-103028733D03*
D16*
X275282286Y-103956529D03*
D15*
X275734331Y-98294934D03*
D14*
X279992380Y-102053528D03*
D17*
X295537319Y-77809470D03*
D18*
X292682817Y-70744329D03*
D23*
X342578911Y-128132145D03*
D24*
X349644052Y-125277643D03*
D12*
X62171214Y-141325438D03*
D13*
X65025716Y-134260297D03*
D14*
X245773084Y-95332933D03*
D15*
X245999107Y-92502136D03*
D16*
X250483178Y-93429932D03*
D15*
X250935223Y-87768337D03*
D14*
X255193272Y-91526931D03*
X196878455Y-154991431D03*
D15*
X198148455Y-152451431D03*
D16*
X201958455Y-154991431D03*
D15*
X204498455Y-149911431D03*
D14*
X207038455Y-154991431D03*
D17*
X299301962Y-137980641D03*
D18*
X296447460Y-130915500D03*
D14*
X148723133Y-91527745D03*
D15*
X150852157Y-89648448D03*
D16*
X153433227Y-93430746D03*
D15*
X157691275Y-89672153D03*
D14*
X158143321Y-95333747D03*
X284844703Y-141185235D03*
D15*
X285070726Y-138354438D03*
D16*
X289554797Y-139282234D03*
D15*
X290006842Y-133620639D03*
D14*
X294264891Y-137379233D03*
D25*
X78055062Y-134887292D03*
D26*
X70989921Y-132032790D03*
D17*
X274484124Y-127407686D03*
D18*
X271629622Y-120342545D03*
D27*
X137287761Y-158818856D03*
D12*
X161367646Y-99219050D03*
D13*
X164222148Y-92153909D03*
D17*
X277874466Y-84945726D03*
D18*
X275019964Y-77880585D03*
D14*
X196878455Y-172771431D03*
D15*
X198148455Y-170231431D03*
D16*
X201958455Y-172771431D03*
D15*
X204498455Y-167691431D03*
D14*
X207038455Y-172771431D03*
D12*
X83557502Y-88392511D03*
D13*
X86412004Y-81327370D03*
D21*
X188123458Y-115061431D03*
D22*
X188123458Y-122681431D03*
D14*
X99124918Y-112580937D03*
D15*
X101253942Y-110701640D03*
D16*
X103835012Y-114483938D03*
D15*
X108093060Y-110725345D03*
D14*
X108545106Y-116386939D03*
X313034152Y-109249871D03*
D15*
X313260175Y-106419074D03*
D16*
X317744246Y-107346870D03*
D15*
X318196291Y-101685275D03*
D14*
X322454340Y-105443869D03*
D23*
X323797412Y-135720364D03*
D24*
X330862553Y-132865862D03*
D14*
X256655254Y-173120598D03*
D15*
X256881277Y-170289801D03*
D16*
X261365348Y-171217597D03*
D15*
X261817393Y-165556002D03*
D14*
X266075442Y-169314596D03*
D25*
X68201550Y-110424343D03*
D26*
X61136409Y-107569841D03*
D17*
X316964815Y-130844386D03*
D18*
X314110313Y-123779245D03*
D14*
X327306664Y-144575576D03*
D15*
X327532687Y-141744779D03*
D16*
X332016758Y-142672575D03*
D15*
X332468803Y-137010980D03*
D14*
X336726852Y-140769574D03*
D23*
X328273097Y-92724013D03*
D24*
X335338238Y-89869511D03*
D27*
X88045117Y-77285275D03*
D14*
X166385989Y-98664001D03*
D15*
X168515013Y-96784704D03*
D16*
X171096083Y-100567002D03*
D15*
X175354131Y-96808409D03*
D14*
X175806177Y-102470003D03*
X298761640Y-73924167D03*
D15*
X298987663Y-71093370D03*
D16*
X303471734Y-72021166D03*
D15*
X303923779Y-66359571D03*
D14*
X308181828Y-70118165D03*
X281098789Y-81060422D03*
D15*
X281324812Y-78229625D03*
D16*
X285808883Y-79157421D03*
D15*
X286260928Y-73495826D03*
D14*
X290518977Y-77254420D03*
X95734575Y-70118977D03*
D15*
X97863599Y-68239680D03*
D16*
X100444669Y-72021978D03*
D15*
X104702717Y-68263385D03*
D14*
X105154763Y-73924979D03*
X84852407Y-147906644D03*
D15*
X86981431Y-146027347D03*
D16*
X89562501Y-149809645D03*
D15*
X93820549Y-146051052D03*
D14*
X94272595Y-151712646D03*
D12*
X143704793Y-92082794D03*
D13*
X146559295Y-85017653D03*
D12*
X97496919Y-155597949D03*
D13*
X100351421Y-148532808D03*
D14*
X91988665Y-130243791D03*
D15*
X94117689Y-128364494D03*
D16*
X96698759Y-132146792D03*
D15*
X100956807Y-128388199D03*
D14*
X101408853Y-134049793D03*
X134450622Y-126853449D03*
D15*
X136579646Y-124974152D03*
D16*
X139160716Y-128756450D03*
D15*
X143418764Y-124997857D03*
D14*
X143870810Y-130659451D03*
D27*
X158696526Y-105830299D03*
D21*
X201323454Y-115061431D03*
D22*
X201323454Y-122681431D03*
D14*
X88598322Y-87781830D03*
D15*
X90727346Y-85902533D03*
D16*
X93308416Y-89684831D03*
D15*
X97566464Y-85926238D03*
D14*
X98018510Y-91587832D03*
X309643811Y-151711831D03*
D15*
X309869834Y-148881034D03*
D16*
X314353905Y-149808830D03*
D15*
X314805950Y-144147235D03*
D14*
X319063999Y-147905829D03*
X179520955Y-154991431D03*
D15*
X180790955Y-152451431D03*
D16*
X184600955Y-154991431D03*
D15*
X187140955Y-149911431D03*
D14*
X189680955Y-154991431D03*
X56662959Y-115971279D03*
D15*
X58791983Y-114091982D03*
D16*
X61373053Y-117874280D03*
D15*
X65631101Y-114115687D03*
D14*
X66083147Y-119777281D03*
D17*
X302696050Y-95527952D03*
D18*
X299841548Y-88462811D03*
D25*
X75356536Y-92715131D03*
D26*
X68291395Y-89860629D03*
D21*
X204623453Y-115061431D03*
D22*
X204623453Y-122681431D03*
D14*
X316424494Y-66787911D03*
D15*
X316650517Y-63957114D03*
D16*
X321134588Y-64884910D03*
D15*
X321586633Y-59223315D03*
D14*
X325844682Y-62981909D03*
X78071727Y-62982723D03*
D15*
X80200751Y-61103426D03*
D16*
X82781821Y-64885724D03*
D15*
X87039869Y-61127131D03*
D14*
X87491915Y-66788725D03*
D25*
X61087598Y-128031991D03*
D26*
X54022457Y-125177489D03*
D17*
X267370345Y-109800464D03*
D18*
X264515843Y-102735323D03*
D14*
X127314369Y-144516302D03*
D15*
X129443393Y-142637005D03*
D16*
X132024463Y-146419303D03*
D15*
X136282511Y-142660710D03*
D14*
X136734557Y-148322304D03*
D17*
X256821273Y-134543942D03*
D18*
X253966771Y-127478801D03*
D12*
X101220357Y-95528767D03*
D13*
X104074859Y-88463626D03*
D14*
X320170408Y-126912723D03*
D15*
X320396431Y-124081926D03*
D16*
X324880502Y-125009722D03*
D15*
X325332547Y-119348127D03*
D14*
X329590596Y-123106721D03*
X295371300Y-116386127D03*
D15*
X295597323Y-113555330D03*
D16*
X300081394Y-114483126D03*
D15*
X300533439Y-108821531D03*
D14*
X304791488Y-112580125D03*
D28*
X210252205Y-184951431D03*
X210252205Y-196151431D03*
D29*
X202752205Y-188051431D03*
D30*
X202752205Y-193051431D03*
X202752205Y-190551431D03*
X217252205Y-193051431D03*
X217252205Y-188051431D03*
D12*
X147095135Y-134544755D03*
D13*
X149949637Y-127479614D03*
D12*
X76443724Y-105999731D03*
D13*
X79298226Y-98934590D03*
D12*
X79834064Y-148461692D03*
D13*
X82688566Y-141396551D03*
D17*
X285033197Y-102664208D03*
D18*
X282178695Y-95599067D03*
D21*
X211223451Y-115061431D03*
D22*
X211223451Y-122681431D03*
D12*
X132822623Y-169870460D03*
D13*
X135677125Y-162805319D03*
D14*
X179520955Y-137211431D03*
D15*
X180790955Y-134671431D03*
D16*
X184600955Y-137211431D03*
D15*
X187140955Y-132131431D03*
D14*
X189680955Y-137211431D03*
D12*
X108379089Y-77810284D03*
D13*
X111233591Y-70745143D03*
D14*
X330697005Y-102113615D03*
D15*
X330923028Y-99282818D03*
D16*
X335407099Y-100210614D03*
D15*
X335859144Y-94549019D03*
D14*
X340117193Y-98307613D03*
X196878455Y-137211431D03*
D15*
X198148455Y-134671431D03*
D16*
X201958455Y-137211431D03*
D15*
X204498455Y-132131431D03*
D14*
X207038455Y-137211431D03*
X263435935Y-88196678D03*
D15*
X263661958Y-85365881D03*
D16*
X268146029Y-86293677D03*
D15*
X268598074Y-80632082D03*
D14*
X272856123Y-84390676D03*
D12*
X69288737Y-123708944D03*
D13*
X72143239Y-116643803D03*
D17*
X260211613Y-92081982D03*
D18*
X257357111Y-85016841D03*
D14*
X323560749Y-84450763D03*
D15*
X323786772Y-81619966D03*
D16*
X328270843Y-82547762D03*
D15*
X328722888Y-76886167D03*
D14*
X332980937Y-80644761D03*
D21*
X184823459Y-115061431D03*
D22*
X184823459Y-122681431D03*
D27*
X245219878Y-105829486D03*
D14*
X63799214Y-98308427D03*
D15*
X65928238Y-96429130D03*
D16*
X68509308Y-100211428D03*
D15*
X72767356Y-96452835D03*
D14*
X73219402Y-102114429D03*
X188199705Y-190551431D03*
D15*
X189469705Y-188011431D03*
D16*
X193279705Y-190551431D03*
D15*
X195819705Y-185471431D03*
D14*
X198359705Y-190551431D03*
X131060284Y-84391489D03*
D15*
X133189308Y-82512192D03*
D16*
X135770378Y-86294490D03*
D15*
X140028426Y-82535897D03*
D14*
X140480472Y-88197491D03*
X242382743Y-137794893D03*
D15*
X242608766Y-134964096D03*
D16*
X247092837Y-135891892D03*
D15*
X247544882Y-130230297D03*
D14*
X251802931Y-133988891D03*
X67189557Y-140770387D03*
D15*
X69318581Y-138891090D03*
D16*
X71899651Y-142673388D03*
D15*
X76157699Y-138914795D03*
D14*
X76609745Y-144576389D03*
D21*
X194723456Y-115061431D03*
D22*
X194723456Y-122681431D03*
D31*
X198073455Y-93521431D03*
X204573455Y-98021431D03*
X198073455Y-98021431D03*
X204573455Y-93521431D03*
D14*
X49526703Y-133634131D03*
D15*
X51655727Y-131754834D03*
D16*
X54236797Y-135537132D03*
D15*
X58494845Y-131778539D03*
D14*
X58946891Y-137440133D03*
D21*
X207923452Y-115061431D03*
D22*
X207923452Y-122681431D03*
D27*
X315871289Y-77284464D03*
D14*
X152113477Y-133989705D03*
D15*
X154242501Y-132110408D03*
D16*
X156823571Y-135892706D03*
D15*
X161081619Y-132134113D03*
D14*
X161533665Y-137795707D03*
D27*
X266628646Y-158818043D03*
D12*
X129432281Y-127408499D03*
D13*
X132286783Y-120343358D03*
D14*
X277708448Y-123522383D03*
D15*
X277934471Y-120691586D03*
D16*
X282418542Y-121619382D03*
D15*
X282870587Y-115957787D03*
D14*
X287128636Y-119716381D03*
X159249732Y-116326854D03*
D15*
X161378756Y-114447557D03*
D16*
X163959826Y-118229855D03*
D15*
X168217874Y-114471262D03*
D14*
X168669920Y-120132856D03*
D21*
X191423457Y-115061431D03*
D22*
X191423457Y-122681431D03*
D12*
X136546061Y-109801278D03*
D13*
X139400563Y-102736137D03*
D14*
X214235955Y-154991431D03*
D15*
X215505955Y-152451431D03*
D16*
X219315955Y-154991431D03*
D15*
X221855955Y-149911431D03*
D14*
X224395955Y-154991431D03*
X344969515Y-137439321D03*
D15*
X345195538Y-134608524D03*
D16*
X349679609Y-135536320D03*
D15*
X350131654Y-129874725D03*
D14*
X354389703Y-133633319D03*
D17*
X249707492Y-116936720D03*
D18*
X246852990Y-109871579D03*
D17*
X324082341Y-148460880D03*
D18*
X321227839Y-141395739D03*
D14*
X214235955Y-172771431D03*
D15*
X215505955Y-170231431D03*
D16*
X219315955Y-172771431D03*
D15*
X221855955Y-167691431D03*
D14*
X224395955Y-172771431D03*
D21*
X214523450Y-115061431D03*
D22*
X214523450Y-122681431D03*
D17*
X309809829Y-113135175D03*
D18*
X306955327Y-106070034D03*
D12*
X104614445Y-137981456D03*
D13*
X107468947Y-130916315D03*
D12*
X94106576Y-113135988D03*
D13*
X96961078Y-106070847D03*
D14*
X109651514Y-137380045D03*
D15*
X111780538Y-135500748D03*
D16*
X114361608Y-139283046D03*
D15*
X118619656Y-135524453D03*
D14*
X119071702Y-141186047D03*
D23*
X335442655Y-110469292D03*
D24*
X342507796Y-107614790D03*
D21*
X198023455Y-115061431D03*
D22*
X198023455Y-122681431D03*
D14*
X120178112Y-162179154D03*
D15*
X122307136Y-160299857D03*
D16*
X124888206Y-164082155D03*
D15*
X129146254Y-160323562D03*
D14*
X129598300Y-165985156D03*
D17*
X242548761Y-99218237D03*
D18*
X239694259Y-92153096D03*
D17*
X271093784Y-169869646D03*
D18*
X268239282Y-162804505D03*
D25*
X82496365Y-75043434D03*
D26*
X75431224Y-72188932D03*
D27*
X66636350Y-130273833D03*
D17*
X306419489Y-155597135D03*
D18*
X303564987Y-148531994D03*
D23*
X321170144Y-75143587D03*
D24*
X328235285Y-72289085D03*
D12*
X111769431Y-120272244D03*
D13*
X114623933Y-113207103D03*
D12*
X86951591Y-130845199D03*
D13*
X89806093Y-123780058D03*
D12*
X154208913Y-116937532D03*
D13*
X157063415Y-109872391D03*
D14*
X116787773Y-119717194D03*
D15*
X118916797Y-117837897D03*
D16*
X121497867Y-121620195D03*
D15*
X125755915Y-117861602D03*
D14*
X126207961Y-123523196D03*
X274318106Y-165984343D03*
D15*
X274544129Y-163153546D03*
D16*
X279028200Y-164081342D03*
D15*
X279480245Y-158419747D03*
D14*
X283738294Y-162178341D03*
D17*
X320358903Y-88391697D03*
D18*
X317504401Y-81326556D03*
D17*
X281639111Y-145116897D03*
D18*
X278784609Y-138051756D03*
D14*
X305897897Y-91587019D03*
D15*
X306123920Y-88756222D03*
D16*
X310607991Y-89684018D03*
D15*
X311060036Y-84022423D03*
D14*
X315318085Y-87781017D03*
D17*
X334627668Y-123708130D03*
D18*
X331773166Y-116642989D03*
D14*
X70935471Y-80645575D03*
D15*
X73064495Y-78766278D03*
D16*
X75645565Y-82548576D03*
D15*
X79903613Y-78789983D03*
D14*
X80355659Y-84451577D03*
X291980959Y-158848087D03*
D15*
X292206982Y-156017290D03*
D16*
X296691053Y-156945086D03*
D15*
X297143098Y-151283491D03*
D14*
X301401147Y-155042085D03*
X106261176Y-94918086D03*
D15*
X108390200Y-93038789D03*
D16*
X110971270Y-96821087D03*
D15*
X115229318Y-93062494D03*
D14*
X115681364Y-98724088D03*
X102515261Y-155042899D03*
D15*
X104644285Y-153163602D03*
D16*
X107225355Y-156945900D03*
D15*
X111483403Y-153187307D03*
D14*
X111935449Y-158848901D03*
X113397431Y-77255233D03*
D15*
X115526455Y-75375936D03*
D16*
X118107525Y-79158234D03*
D15*
X122365573Y-75399641D03*
D14*
X122817619Y-81061235D03*
X288235043Y-98723275D03*
D15*
X288461066Y-95892478D03*
D16*
X292945137Y-96820274D03*
D15*
X293397182Y-91158679D03*
D14*
X297655231Y-94917273D03*
X260045595Y-130658638D03*
D15*
X260271618Y-127827841D03*
D16*
X264755689Y-128755637D03*
D15*
X265207734Y-123094042D03*
D14*
X269465783Y-126852636D03*
D27*
X337280055Y-130273022D03*
M02*
