G04 #@! TF.GenerationSoftware,KiCad,Pcbnew,8.0.6*
G04 #@! TF.CreationDate,2024-10-27T19:10:16+01:00*
G04 #@! TF.ProjectId,pterodactyl,70746572-6f64-4616-9374-796c2e6b6963,rev?*
G04 #@! TF.SameCoordinates,Original*
G04 #@! TF.FileFunction,Paste,Bot*
G04 #@! TF.FilePolarity,Positive*
%FSLAX46Y46*%
G04 Gerber Fmt 4.6, Leading zero omitted, Abs format (unit mm)*
G04 Created by KiCad (PCBNEW 8.0.6) date 2024-10-27 19:10:16*
%MOMM*%
%LPD*%
G01*
G04 APERTURE LIST*
G04 Aperture macros list*
%AMRotRect*
0 Rectangle, with rotation*
0 The origin of the aperture is its center*
0 $1 length*
0 $2 width*
0 $3 Rotation angle, in degrees counterclockwise*
0 Add horizontal line*
21,1,$1,$2,0,0,$3*%
G04 Aperture macros list end*
%ADD10RotRect,2.550000X2.500000X17.000000*%
%ADD11RotRect,2.550000X2.500000X343.000000*%
%ADD12R,2.550000X2.500000*%
G04 APERTURE END LIST*
D10*
X292768577Y-197639821D03*
X280266380Y-204118183D03*
D11*
X119312521Y-135748603D03*
X105325076Y-134128269D03*
D10*
X323748570Y-168328900D03*
X311246373Y-174807262D03*
D11*
X95501993Y-148308381D03*
X81514548Y-146688047D03*
X143123053Y-123188829D03*
X129135608Y-121568495D03*
D10*
X287221554Y-179496330D03*
X274719357Y-185974692D03*
D11*
X113765499Y-153892095D03*
X99778054Y-152271761D03*
X53427951Y-155284444D03*
X39440506Y-153664110D03*
D10*
X312654527Y-132041916D03*
X300152330Y-138520278D03*
X305485063Y-173912613D03*
X292982866Y-180390975D03*
D11*
X88332528Y-106437682D03*
X74345083Y-104817348D03*
X35164445Y-149700728D03*
X21177000Y-148080394D03*
D10*
X361823055Y-97170200D03*
X349320858Y-103648562D03*
X311032085Y-192056105D03*
X298529888Y-198534467D03*
X396708885Y-146022693D03*
X384206688Y-152501055D03*
D12*
X227348000Y-205372500D03*
X213498000Y-207912500D03*
D11*
X40711466Y-131557236D03*
X26724021Y-129936902D03*
D12*
X208250000Y-186400000D03*
X194400000Y-188940000D03*
D10*
X325333525Y-108326170D03*
X312831328Y-114804532D03*
D11*
X124859544Y-117605112D03*
X110872099Y-115984778D03*
D10*
X318201549Y-150185408D03*
X305699352Y-156663770D03*
D11*
X46258487Y-113413745D03*
X32271042Y-111793411D03*
X139104752Y-201317857D03*
X125117307Y-199697523D03*
D10*
X402255906Y-164166185D03*
X389753709Y-170644547D03*
D11*
X132029007Y-159475810D03*
X118041562Y-157855476D03*
X58974974Y-137140952D03*
X44987529Y-135520618D03*
D10*
X299938041Y-155769122D03*
X287435844Y-162247484D03*
D11*
X66144438Y-179011652D03*
X52156993Y-177391318D03*
D10*
X360275585Y-157161469D03*
X347773388Y-163639831D03*
X380067819Y-91592217D03*
X367565622Y-98070579D03*
X330918035Y-126458201D03*
X318415838Y-132936563D03*
D11*
X108218478Y-172035589D03*
X94231033Y-170415255D03*
D12*
X227348000Y-167427500D03*
X213498000Y-169967500D03*
D11*
X101049014Y-130164891D03*
X87061569Y-128544557D03*
X126481986Y-177619302D03*
X112494541Y-175998968D03*
D12*
X246446000Y-186400000D03*
X232596000Y-188940000D03*
D10*
X391161864Y-127879201D03*
X378659667Y-134357563D03*
X343578288Y-102748186D03*
X331076091Y-109226548D03*
X288843995Y-119482139D03*
X276341798Y-125960501D03*
D11*
X82785507Y-124581174D03*
X68798062Y-122960840D03*
D12*
X208250000Y-205372500D03*
X194400000Y-207912500D03*
D10*
X347559101Y-180888677D03*
X335056904Y-187367039D03*
D11*
X29617423Y-167844220D03*
X15629978Y-166223886D03*
D10*
X365822610Y-175304962D03*
X353320413Y-181783324D03*
D11*
X77238485Y-142724666D03*
X63251040Y-141104332D03*
D10*
X367445051Y-115290771D03*
X354942854Y-121769133D03*
D11*
X144651778Y-183174365D03*
X130664333Y-181554031D03*
X47880931Y-173427935D03*
X33893486Y-171807601D03*
X120934964Y-195762795D03*
X106947519Y-194142461D03*
D10*
X307088761Y-113904153D03*
X294586564Y-120382515D03*
D11*
X84407949Y-184595365D03*
X70420504Y-182975031D03*
X102671456Y-190179081D03*
X88684011Y-188558747D03*
D12*
X227348000Y-186400000D03*
X213498000Y-188940000D03*
X189152000Y-205372500D03*
X175302000Y-207912500D03*
D10*
X378539096Y-151577754D03*
X366036899Y-158056116D03*
X384086118Y-169721246D03*
X371583921Y-176199608D03*
X329295591Y-186472392D03*
X316793394Y-192950754D03*
D12*
X208250000Y-167427500D03*
X194400000Y-169967500D03*
X189152000Y-186400000D03*
X175302000Y-188940000D03*
D10*
X372992071Y-133434262D03*
X360489874Y-139912624D03*
D11*
X89954971Y-166451873D03*
X75967526Y-164831539D03*
X51805512Y-95270254D03*
X37818067Y-93649920D03*
D10*
X349181542Y-120874486D03*
X336679345Y-127352848D03*
D11*
X70069021Y-100853968D03*
X56081576Y-99233634D03*
D10*
X354728564Y-139017977D03*
X342226367Y-145496339D03*
D11*
X64521999Y-118997460D03*
X50534554Y-117377126D03*
D12*
X246446000Y-167427500D03*
X232596000Y-169967500D03*
D10*
X385614842Y-109735709D03*
X373112645Y-116214071D03*
X342012077Y-162745185D03*
X329509880Y-169223547D03*
D11*
X137576031Y-141332321D03*
X123588586Y-139711987D03*
X106596036Y-112021399D03*
X92608591Y-110401065D03*
D10*
X294391018Y-137625631D03*
X281888821Y-144103993D03*
D11*
X71691462Y-160868158D03*
X57704017Y-159247824D03*
D12*
X246446000Y-205372500D03*
X232596000Y-207912500D03*
D10*
X336465056Y-144601693D03*
X323962859Y-151080055D03*
M02*
