G04 #@! TF.GenerationSoftware,KiCad,Pcbnew,8.0.2*
G04 #@! TF.CreationDate,2024-05-12T11:37:13+02:00*
G04 #@! TF.ProjectId,pterodactyl,70746572-6f64-4616-9374-796c2e6b6963,rev?*
G04 #@! TF.SameCoordinates,Original*
G04 #@! TF.FileFunction,Copper,L1,Top*
G04 #@! TF.FilePolarity,Positive*
%FSLAX46Y46*%
G04 Gerber Fmt 4.6, Leading zero omitted, Abs format (unit mm)*
G04 Created by KiCad (PCBNEW 8.0.2) date 2024-05-12 11:37:13*
%MOMM*%
%LPD*%
G01*
G04 APERTURE LIST*
G04 Aperture macros list*
%AMHorizOval*
0 Thick line with rounded ends*
0 $1 width*
0 $2 $3 position (X,Y) of the first rounded end (center of the circle)*
0 $4 $5 position (X,Y) of the second rounded end (center of the circle)*
0 Add line between two ends*
20,1,$1,$2,$3,$4,$5,0*
0 Add two circle primitives to create the rounded ends*
1,1,$1,$2,$3*
1,1,$1,$4,$5*%
%AMRotRect*
0 Rectangle, with rotation*
0 The origin of the aperture is its center*
0 $1 length*
0 $2 width*
0 $3 Rotation angle, in degrees counterclockwise*
0 Add horizontal line*
21,1,$1,$2,0,0,$3*%
G04 Aperture macros list end*
G04 #@! TA.AperFunction,ComponentPad*
%ADD10R,1.752600X1.752600*%
G04 #@! TD*
G04 #@! TA.AperFunction,ComponentPad*
%ADD11C,1.752600*%
G04 #@! TD*
G04 #@! TA.AperFunction,ComponentPad*
%ADD12RotRect,1.600000X1.600000X68.000000*%
G04 #@! TD*
G04 #@! TA.AperFunction,ComponentPad*
%ADD13HorizOval,1.600000X0.000000X0.000000X0.000000X0.000000X0*%
G04 #@! TD*
G04 #@! TA.AperFunction,ComponentPad*
%ADD14RotRect,1.600000X1.600000X112.000000*%
G04 #@! TD*
G04 #@! TA.AperFunction,ComponentPad*
%ADD15HorizOval,1.600000X0.000000X0.000000X0.000000X0.000000X0*%
G04 #@! TD*
G04 #@! TA.AperFunction,ComponentPad*
%ADD16R,1.700000X1.700000*%
G04 #@! TD*
G04 #@! TA.AperFunction,ComponentPad*
%ADD17O,1.700000X1.700000*%
G04 #@! TD*
G04 #@! TA.AperFunction,ComponentPad*
%ADD18R,1.600000X1.600000*%
G04 #@! TD*
G04 #@! TA.AperFunction,ComponentPad*
%ADD19O,1.600000X1.600000*%
G04 #@! TD*
G04 #@! TA.AperFunction,ComponentPad*
%ADD20RotRect,1.600000X1.600000X22.000000*%
G04 #@! TD*
G04 #@! TA.AperFunction,ComponentPad*
%ADD21HorizOval,1.600000X0.000000X0.000000X0.000000X0.000000X0*%
G04 #@! TD*
G04 #@! TA.AperFunction,ComponentPad*
%ADD22RotRect,1.600000X1.600000X158.000000*%
G04 #@! TD*
G04 #@! TA.AperFunction,ComponentPad*
%ADD23HorizOval,1.600000X0.000000X0.000000X0.000000X0.000000X0*%
G04 #@! TD*
G04 #@! TA.AperFunction,ComponentPad*
%ADD24C,4.400000*%
G04 #@! TD*
G04 #@! TA.AperFunction,WasherPad*
%ADD25O,3.200000X2.000000*%
G04 #@! TD*
G04 #@! TA.AperFunction,ComponentPad*
%ADD26R,2.000000X2.000000*%
G04 #@! TD*
G04 #@! TA.AperFunction,ComponentPad*
%ADD27C,2.000000*%
G04 #@! TD*
G04 #@! TA.AperFunction,ComponentPad*
%ADD28C,1.800000*%
G04 #@! TD*
G04 #@! TA.AperFunction,ViaPad*
%ADD29C,0.600000*%
G04 #@! TD*
G04 #@! TA.AperFunction,ViaPad*
%ADD30C,0.800000*%
G04 #@! TD*
G04 #@! TA.AperFunction,Conductor*
%ADD31C,0.250000*%
G04 #@! TD*
G04 #@! TA.AperFunction,Conductor*
%ADD32C,0.508000*%
G04 #@! TD*
G04 APERTURE END LIST*
D10*
X193703455Y-83071431D03*
D11*
X193703455Y-85611431D03*
X193703455Y-88151431D03*
X193703455Y-90691431D03*
X193703455Y-93231431D03*
X193703455Y-95771431D03*
X193703455Y-98311431D03*
X193703455Y-100851431D03*
X193703455Y-103391431D03*
X193703455Y-105931431D03*
X193703455Y-108471431D03*
X208943455Y-111011431D03*
X208943455Y-108471431D03*
X208943455Y-105931431D03*
X208943455Y-103391431D03*
X208943455Y-100851431D03*
X208943455Y-98311431D03*
X208943455Y-95771431D03*
X208943455Y-93231431D03*
X208943455Y-90691431D03*
X208943455Y-88151431D03*
X208943455Y-85611431D03*
X193703455Y-111011431D03*
X208943455Y-83071431D03*
D12*
X90716236Y-70674026D03*
D13*
X93570738Y-63608885D03*
D14*
X313023542Y-70744577D03*
D15*
X310169040Y-63679436D03*
D16*
X203848455Y-88640000D03*
D17*
X201308455Y-88640000D03*
X198768455Y-88640000D03*
D14*
X327472682Y-105998919D03*
D15*
X324618180Y-98933778D03*
D14*
X292146977Y-120271430D03*
D15*
X289292475Y-113206289D03*
D18*
X217823451Y-115061431D03*
D19*
X217823451Y-122681431D03*
D14*
X341745193Y-141324624D03*
D15*
X338890691Y-134259483D03*
D12*
X118883209Y-102665021D03*
D13*
X121737711Y-95599880D03*
D14*
X263976258Y-152253152D03*
D15*
X261121756Y-145188011D03*
D12*
X139940149Y-152253966D03*
D13*
X142794651Y-145188825D03*
D12*
X126041941Y-84946539D03*
D13*
X128896443Y-77881398D03*
D12*
X122277295Y-145117710D03*
D13*
X125131797Y-138052569D03*
D12*
X115159769Y-162734204D03*
D13*
X118014271Y-155669063D03*
D14*
X288756636Y-162733391D03*
D15*
X285902134Y-155668250D03*
D14*
X295537319Y-77809470D03*
D15*
X292682817Y-70744329D03*
D20*
X342578911Y-128132145D03*
D21*
X349644052Y-125277643D03*
D12*
X62171214Y-141325438D03*
D13*
X65025716Y-134260297D03*
D14*
X299301962Y-137980641D03*
D15*
X296447460Y-130915500D03*
D22*
X78055062Y-134887292D03*
D23*
X70989921Y-132032790D03*
D14*
X274484124Y-127407686D03*
D15*
X271629622Y-120342545D03*
D24*
X137287761Y-158818856D03*
D12*
X161367646Y-99219050D03*
D13*
X164222148Y-92153909D03*
D14*
X277874466Y-84945726D03*
D15*
X275019964Y-77880585D03*
D12*
X83557502Y-88392511D03*
D13*
X86412004Y-81327370D03*
D18*
X188123458Y-115061431D03*
D19*
X188123458Y-122681431D03*
D20*
X323797412Y-135720364D03*
D21*
X330862553Y-132865862D03*
D22*
X68201550Y-110424343D03*
D23*
X61136409Y-107569841D03*
D14*
X316964815Y-130844386D03*
D15*
X314110313Y-123779245D03*
D20*
X328273097Y-92724013D03*
D21*
X335338238Y-89869511D03*
D24*
X88045117Y-77285275D03*
D12*
X143704793Y-92082794D03*
D13*
X146559295Y-85017653D03*
D12*
X97496919Y-155597949D03*
D13*
X100351421Y-148532808D03*
D24*
X158696526Y-105830299D03*
D18*
X201323454Y-115061431D03*
D19*
X201323454Y-122681431D03*
D14*
X302696050Y-95527952D03*
D15*
X299841548Y-88462811D03*
D22*
X75356536Y-92715131D03*
D23*
X68291395Y-89860629D03*
D18*
X204623453Y-115061431D03*
D19*
X204623453Y-122681431D03*
D22*
X61087598Y-128031991D03*
D23*
X54022457Y-125177489D03*
D14*
X267370345Y-109800464D03*
D15*
X264515843Y-102735323D03*
D14*
X256821273Y-134543942D03*
D15*
X253966771Y-127478801D03*
D12*
X101220357Y-95528767D03*
D13*
X104074859Y-88463626D03*
D25*
X210252205Y-184951431D03*
X210252205Y-196151431D03*
D26*
X202752205Y-188051431D03*
D27*
X202752205Y-193051431D03*
X202752205Y-190551431D03*
X217252205Y-193051431D03*
X217252205Y-188051431D03*
D12*
X147095135Y-134544755D03*
D13*
X149949637Y-127479614D03*
D12*
X76443724Y-105999731D03*
D13*
X79298226Y-98934590D03*
D12*
X79834064Y-148461692D03*
D13*
X82688566Y-141396551D03*
D14*
X285033197Y-102664208D03*
D15*
X282178695Y-95599067D03*
D18*
X211223451Y-115061431D03*
D19*
X211223451Y-122681431D03*
D12*
X132822623Y-169870460D03*
D13*
X135677125Y-162805319D03*
D12*
X108379089Y-77810284D03*
D13*
X111233591Y-70745143D03*
D12*
X69288737Y-123708944D03*
D13*
X72143239Y-116643803D03*
D14*
X260211613Y-92081982D03*
D15*
X257357111Y-85016841D03*
D18*
X184823459Y-115061431D03*
D19*
X184823459Y-122681431D03*
D24*
X245219878Y-105829486D03*
D18*
X194723456Y-115061431D03*
D19*
X194723456Y-122681431D03*
D28*
X198073455Y-93521431D03*
X204573455Y-98021431D03*
X198073455Y-98021431D03*
X204573455Y-93521431D03*
D18*
X207923452Y-115061431D03*
D19*
X207923452Y-122681431D03*
D24*
X315871289Y-77284464D03*
X266628646Y-158818043D03*
D12*
X129432281Y-127408499D03*
D13*
X132286783Y-120343358D03*
D18*
X191423457Y-115061431D03*
D19*
X191423457Y-122681431D03*
D12*
X136546061Y-109801278D03*
D13*
X139400563Y-102736137D03*
D14*
X249707492Y-116936720D03*
D15*
X246852990Y-109871579D03*
D14*
X324082341Y-148460880D03*
D15*
X321227839Y-141395739D03*
D18*
X214523450Y-115061431D03*
D19*
X214523450Y-122681431D03*
D14*
X309809829Y-113135175D03*
D15*
X306955327Y-106070034D03*
D12*
X104614445Y-137981456D03*
D13*
X107468947Y-130916315D03*
D12*
X94106576Y-113135988D03*
D13*
X96961078Y-106070847D03*
D20*
X335442655Y-110469292D03*
D21*
X342507796Y-107614790D03*
D18*
X198023455Y-115061431D03*
D19*
X198023455Y-122681431D03*
D14*
X242548761Y-99218237D03*
D15*
X239694259Y-92153096D03*
D14*
X271093784Y-169869646D03*
D15*
X268239282Y-162804505D03*
D22*
X82496365Y-75043434D03*
D23*
X75431224Y-72188932D03*
D24*
X66636350Y-130273833D03*
D14*
X306419489Y-155597135D03*
D15*
X303564987Y-148531994D03*
D20*
X321170144Y-75143587D03*
D21*
X328235285Y-72289085D03*
D12*
X111769431Y-120272244D03*
D13*
X114623933Y-113207103D03*
D12*
X86951591Y-130845199D03*
D13*
X89806093Y-123780058D03*
D12*
X154208913Y-116937532D03*
D13*
X157063415Y-109872391D03*
D14*
X320358903Y-88391697D03*
D15*
X317504401Y-81326556D03*
D14*
X281639111Y-145116897D03*
D15*
X278784609Y-138051756D03*
D14*
X334627668Y-123708130D03*
D15*
X331773166Y-116642989D03*
D24*
X337280055Y-130273022D03*
D29*
X211792954Y-97737046D03*
D30*
X230100000Y-106800000D03*
X266400000Y-93200000D03*
X301500000Y-80300000D03*
X242500000Y-104200000D03*
X207200000Y-118825000D03*
X175000000Y-134700000D03*
X194423451Y-138271431D03*
X211723451Y-138271431D03*
X231344601Y-116801173D03*
X248531230Y-108886643D03*
X266427745Y-102195249D03*
X284136957Y-95040263D03*
X301715989Y-87830019D03*
X174900000Y-152400000D03*
X194423451Y-156071431D03*
X211823451Y-156171431D03*
X238219566Y-134084253D03*
X256116080Y-127392859D03*
X273695113Y-120182615D03*
X291571964Y-113175605D03*
X308945897Y-105724667D03*
X174900000Y-170200000D03*
X189489555Y-174865331D03*
X206397055Y-175590331D03*
X185719705Y-183357973D03*
X59456700Y-108815820D03*
X245374551Y-151793465D03*
X263028505Y-144768658D03*
X280662796Y-137428235D03*
X298409468Y-130365967D03*
X252566998Y-169595395D03*
X270163828Y-162162253D03*
X287780321Y-155044728D03*
X305564454Y-148075179D03*
X323180947Y-140957654D03*
D31*
X171475000Y-155788040D02*
X170125000Y-154438040D01*
X142510000Y-174540000D02*
X167587208Y-174540000D01*
X141952517Y-173982517D02*
X142510000Y-174540000D01*
X140160000Y-170259339D02*
X140160000Y-172177483D01*
X141952517Y-173970000D02*
X141952517Y-173982517D01*
X141844989Y-157925011D02*
X141844989Y-168574350D01*
X194230131Y-104730131D02*
X194904755Y-105404755D01*
X167587208Y-174540000D02*
X171475000Y-170652208D01*
X148981243Y-136430863D02*
X148981243Y-150788757D01*
X148981243Y-150788757D02*
X141844989Y-157925011D01*
X168875000Y-127646734D02*
X174000303Y-122521431D01*
X171475000Y-170652208D02*
X171475000Y-155788040D01*
X140160000Y-172177483D02*
X141952517Y-173970000D01*
X141844989Y-168574350D02*
X140160000Y-170259339D01*
X147095135Y-134544755D02*
X148981243Y-136430863D01*
X186098458Y-116350182D02*
X186098458Y-111627240D01*
X170125000Y-154438040D02*
X170125000Y-141561752D01*
X170125000Y-141561752D02*
X168875000Y-140311752D01*
X168875000Y-140311752D02*
X168875000Y-127646734D01*
X174000303Y-122521431D02*
X179927209Y-122521431D01*
X179927209Y-122521431D02*
X186098458Y-116350182D01*
X186098458Y-111627240D02*
X192995567Y-104730131D01*
X192995567Y-104730131D02*
X194230131Y-104730131D01*
X194904755Y-105404755D02*
X194904755Y-109810131D01*
X194904755Y-109810131D02*
X193703455Y-111011431D01*
X186998458Y-116722974D02*
X181060716Y-122660716D01*
X181060716Y-122660716D02*
X180300000Y-123421431D01*
X172375000Y-171025000D02*
X167950000Y-175450000D01*
X180300000Y-123421431D02*
X174373095Y-123421431D01*
X169775000Y-128019526D02*
X169775000Y-139938960D01*
X138402163Y-175450000D02*
X132822623Y-169870460D01*
X174373095Y-123421431D02*
X169775000Y-128019526D01*
X169775000Y-139938960D02*
X171025000Y-141188960D01*
X172375000Y-155415248D02*
X172375000Y-171025000D01*
X171025000Y-141188960D02*
X171025000Y-154065248D01*
X171025000Y-154065248D02*
X172375000Y-155415248D01*
X167950000Y-175450000D02*
X138402163Y-175450000D01*
X174186699Y-122971431D02*
X180113605Y-122971431D01*
X169325000Y-140125356D02*
X169325000Y-127833130D01*
X192430663Y-105931431D02*
X193703455Y-105931431D01*
X170575000Y-141375356D02*
X169325000Y-140125356D01*
X186548458Y-111813636D02*
X192430663Y-105931431D01*
X170575000Y-154251644D02*
X170575000Y-141375356D01*
X186548458Y-116536578D02*
X186548458Y-111813636D01*
X171925000Y-155601644D02*
X170575000Y-154251644D01*
X171925000Y-170838604D02*
X171925000Y-155601644D01*
X167763604Y-175000000D02*
X171925000Y-170838604D01*
X139940149Y-152253966D02*
X139940149Y-164814303D01*
X141791871Y-175000000D02*
X167763604Y-175000000D01*
X136615065Y-169823194D02*
X141791871Y-175000000D01*
X136615065Y-168139387D02*
X136615065Y-169823194D01*
X139940149Y-164814303D02*
X136615065Y-168139387D01*
X169325000Y-127833130D02*
X174186699Y-122971431D01*
X180113605Y-122971431D02*
X186548458Y-116536578D01*
D32*
X198768455Y-88640000D02*
X200072455Y-87336000D01*
X200072455Y-87336000D02*
X205588024Y-87336000D01*
X205588024Y-87336000D02*
X208943455Y-90691431D01*
X204573455Y-98021431D02*
X201338455Y-94786431D01*
X201338455Y-94786431D02*
X201338455Y-88640000D01*
X211792954Y-97737046D02*
X211792954Y-88460930D01*
X211792954Y-88460930D02*
X208943455Y-85611431D01*
D31*
X212727024Y-107175000D02*
X208943455Y-103391431D01*
X230100000Y-106800000D02*
X229725000Y-107175000D01*
X229725000Y-107175000D02*
X212727024Y-107175000D01*
X266400000Y-93200000D02*
X230200000Y-107625000D01*
X230200000Y-107625000D02*
X210637024Y-107625000D01*
X210637024Y-107625000D02*
X208943455Y-105931431D01*
X209314886Y-108100000D02*
X208943455Y-108471431D01*
X209428569Y-108471431D02*
X208943455Y-108471431D01*
X301500000Y-80300000D02*
X230300000Y-108070381D01*
X230295381Y-108075000D02*
X209825000Y-108075000D01*
X209825000Y-108075000D02*
X209428569Y-108471431D01*
X230300000Y-108070381D02*
X230295381Y-108075000D01*
X219300000Y-110000000D02*
X220775000Y-108525000D01*
X313023542Y-70744577D02*
X242548761Y-99218237D01*
X225100000Y-108525000D02*
X228200000Y-108525000D01*
X200122155Y-102190131D02*
X208943455Y-111011431D01*
X173248596Y-111100000D02*
X185352906Y-111100000D01*
X217823451Y-111476549D02*
X219300000Y-110000000D01*
X192000000Y-102700000D02*
X192509869Y-102190131D01*
X211223451Y-115061431D02*
X217823451Y-115061431D01*
X185352906Y-111100000D02*
X192000000Y-104452906D01*
X220775000Y-108525000D02*
X225100000Y-108525000D01*
X228200000Y-108525000D02*
X230400000Y-108525000D01*
X320711265Y-74007822D02*
X313023542Y-70744577D01*
X217823451Y-115061431D02*
X217823451Y-111476549D01*
X230400000Y-108525000D02*
X241909821Y-104025180D01*
X82925641Y-73980937D02*
X90716236Y-70674026D01*
X90716236Y-70674026D02*
X161367646Y-99219050D01*
X161367646Y-99219050D02*
X173248596Y-111100000D01*
X241909821Y-104025180D02*
X242500000Y-104200000D01*
X82496365Y-75043434D02*
X82925641Y-73980937D01*
X321170144Y-75143587D02*
X320711265Y-74007822D01*
X192000000Y-104452906D02*
X192000000Y-102700000D01*
X192509869Y-102190131D02*
X200122155Y-102190131D01*
X173813907Y-122071431D02*
X179740813Y-122071431D01*
X184823459Y-116988785D02*
X184823459Y-115061431D01*
X154208913Y-116937532D02*
X164571381Y-127300000D01*
X249707492Y-116936720D02*
X245286271Y-121357941D01*
X75766910Y-91699422D02*
X83557502Y-88392511D01*
X185648458Y-114236432D02*
X185648458Y-111440844D01*
X210512021Y-117650000D02*
X207923452Y-115061431D01*
X221694337Y-121357941D02*
X217986396Y-117650000D01*
X75356536Y-92715131D02*
X75766910Y-91699422D01*
X201323454Y-115061431D02*
X207923452Y-115061431D01*
X245286271Y-121357941D02*
X221694337Y-121357941D01*
X83557502Y-88392511D02*
X154208913Y-116937532D01*
X320358903Y-88391697D02*
X249707492Y-116936720D01*
X328273097Y-92724013D02*
X327798634Y-91549675D01*
X168585338Y-127300000D02*
X173813907Y-122071431D01*
X164571381Y-127300000D02*
X168585338Y-127300000D01*
X193697871Y-103391431D02*
X193703455Y-103391431D01*
X327798634Y-91549675D02*
X320358903Y-88391697D01*
X184823459Y-115061431D02*
X185648458Y-114236432D01*
X217986396Y-117650000D02*
X210512021Y-117650000D01*
X185648458Y-111440844D02*
X193697871Y-103391431D01*
X179740813Y-122071431D02*
X184823459Y-116988785D01*
X230200000Y-133463604D02*
X225318198Y-128581802D01*
X263976258Y-152253152D02*
X257529410Y-158700000D01*
X69288737Y-123708944D02*
X139940149Y-152253966D01*
X78184653Y-134566543D02*
X86951591Y-130845199D01*
X219650000Y-120650000D02*
X217550000Y-118550000D01*
X322833938Y-133335680D02*
X316964815Y-130844386D01*
X217200000Y-118550000D02*
X207700000Y-118550000D01*
X217550000Y-118550000D02*
X217200000Y-118550000D01*
X139940149Y-152253966D02*
X140053966Y-152253966D01*
X219650000Y-122913604D02*
X219650000Y-120650000D01*
X225318198Y-128581802D02*
X219650000Y-122913604D01*
X334627668Y-123708130D02*
X263976258Y-152253152D01*
X77901646Y-135267010D02*
X78184653Y-134566543D01*
X323797412Y-135720364D02*
X322833938Y-133335680D01*
X257529410Y-158700000D02*
X237400000Y-158700000D01*
X207700000Y-118550000D02*
X207475000Y-118550000D01*
X207475000Y-118550000D02*
X207200000Y-118825000D01*
X230200000Y-151500000D02*
X230200000Y-141900000D01*
X230200000Y-135200000D02*
X230200000Y-133463604D01*
X237400000Y-158700000D02*
X230200000Y-151500000D01*
X230200000Y-141900000D02*
X230200000Y-135200000D01*
X341745193Y-141324624D02*
X271093784Y-169869646D01*
X190528569Y-108471431D02*
X193703455Y-108471431D01*
X219200000Y-120836396D02*
X217913604Y-119550000D01*
X229750000Y-133650000D02*
X219200000Y-123100000D01*
X186998458Y-112501542D02*
X187000000Y-112500000D01*
X186998458Y-116722974D02*
X186998458Y-112501542D01*
X189825484Y-119550000D02*
X186998458Y-116722974D01*
X271093784Y-169869646D02*
X266616932Y-174346498D01*
X188849245Y-110149245D02*
X188850755Y-110149245D01*
X217913604Y-119550000D02*
X189825484Y-119550000D01*
X342578911Y-128132145D02*
X342972248Y-129105689D01*
X188850755Y-110149245D02*
X190528569Y-108471431D01*
X229750000Y-151686396D02*
X229750000Y-133650000D01*
X219200000Y-123100000D02*
X219200000Y-120836396D01*
X187000000Y-112500000D02*
X187000000Y-111998490D01*
X339814270Y-136545420D02*
X341745193Y-141324624D01*
X342972248Y-129105689D02*
X339814270Y-136545420D01*
X252410102Y-174346498D02*
X229750000Y-151686396D01*
X266616932Y-174346498D02*
X252410102Y-174346498D01*
X187000000Y-111998490D02*
X188849245Y-110149245D01*
X62171214Y-141325438D02*
X132822623Y-169870460D01*
X212133451Y-128371431D02*
X217823451Y-122681431D01*
X175000000Y-134700000D02*
X174725000Y-134425000D01*
X174725000Y-134425000D02*
X174725000Y-130075000D01*
X174725000Y-130075000D02*
X176423451Y-128376549D01*
X176423451Y-128376549D02*
X176423451Y-128371431D01*
X176423451Y-128371431D02*
X212133451Y-128371431D01*
X192123451Y-140571431D02*
X188423451Y-140571431D01*
X188423451Y-140571431D02*
X176771431Y-140571431D01*
X194423451Y-138271431D02*
X192123451Y-140571431D01*
X174275000Y-129883486D02*
X176237055Y-127921431D01*
X176771431Y-140571431D02*
X174275000Y-138075000D01*
X209283450Y-127921431D02*
X214523450Y-122681431D01*
X174275000Y-138075000D02*
X174275000Y-129883486D01*
X176237055Y-127921431D02*
X209283450Y-127921431D01*
X176860035Y-141296431D02*
X173825000Y-138261396D01*
X173825000Y-138261396D02*
X173825000Y-129697090D01*
X211723451Y-138271431D02*
X208698451Y-141296431D01*
X189523451Y-141296431D02*
X176860035Y-141296431D01*
X206433451Y-127471431D02*
X211223451Y-122681431D01*
X208698451Y-141296431D02*
X189523451Y-141296431D01*
X173825000Y-129697090D02*
X176050659Y-127471431D01*
X176050659Y-127471431D02*
X206433451Y-127471431D01*
X231344601Y-116801173D02*
X232673550Y-113670367D01*
X232673550Y-113670367D02*
X244523388Y-108882721D01*
X244523388Y-108882721D02*
X246852990Y-109871579D01*
X262186241Y-101746465D02*
X249362859Y-106927448D01*
X249362859Y-106927448D02*
X248531230Y-108886643D01*
X264515843Y-102735323D02*
X262186241Y-101746465D01*
X266427745Y-102195249D02*
X267535663Y-99585159D01*
X279849092Y-94610210D02*
X282178695Y-95599067D01*
X267535663Y-99585159D02*
X279849092Y-94610210D01*
X284136957Y-95040263D02*
X285244874Y-92430173D01*
X285244874Y-92430173D02*
X297511946Y-87473954D01*
X297511946Y-87473954D02*
X299841548Y-88462812D01*
X302768649Y-85350108D02*
X315174798Y-80337698D01*
X315174798Y-80337698D02*
X317504400Y-81326556D01*
X301715989Y-87830019D02*
X302768649Y-85350108D01*
X175864263Y-127021431D02*
X203583452Y-127021431D01*
X174625000Y-152125000D02*
X174625000Y-139697792D01*
X174625000Y-139697792D02*
X173375000Y-138447792D01*
X174900000Y-152400000D02*
X174625000Y-152125000D01*
X173375000Y-138447792D02*
X173375000Y-129510694D01*
X203583452Y-127021431D02*
X207923452Y-122681431D01*
X173375000Y-129510694D02*
X175864263Y-127021431D01*
X191823451Y-158671431D02*
X194423451Y-156071431D01*
X180085955Y-158671431D02*
X191823451Y-158671431D01*
X174175000Y-152760476D02*
X180085955Y-158671431D01*
X172925000Y-129324298D02*
X172925000Y-138634188D01*
X174175000Y-139884188D02*
X174175000Y-152760476D01*
X200733453Y-126571431D02*
X175677867Y-126571431D01*
X172925000Y-138634188D02*
X174175000Y-139884188D01*
X175677867Y-126571431D02*
X172925000Y-129324298D01*
X204623453Y-122681431D02*
X200733453Y-126571431D01*
X173725000Y-140070584D02*
X172475000Y-138820584D01*
X172475000Y-138820584D02*
X172475000Y-129137902D01*
X173725000Y-152946872D02*
X173725000Y-140070584D01*
X197883454Y-126121431D02*
X201323454Y-122681431D01*
X175491471Y-126121431D02*
X197883454Y-126121431D01*
X180174559Y-159396431D02*
X173725000Y-152946872D01*
X211823451Y-156171431D02*
X208598451Y-159396431D01*
X172475000Y-129137902D02*
X175491471Y-126121431D01*
X208598451Y-159396431D02*
X180174559Y-159396431D01*
X170225000Y-139752564D02*
X170225000Y-128205922D01*
X171475000Y-153878852D02*
X171475000Y-141002564D01*
X183633459Y-123871431D02*
X184823459Y-122681431D01*
X215927205Y-194376431D02*
X188909705Y-194376431D01*
X172825000Y-171099664D02*
X172825000Y-155228852D01*
X188909705Y-194376431D02*
X183760109Y-189226835D01*
X172825000Y-155228852D02*
X171475000Y-153878852D01*
X183760109Y-182034773D02*
X172825000Y-171099664D01*
X171475000Y-141002564D02*
X170225000Y-139752564D01*
X183760109Y-189226835D02*
X183760109Y-182034773D01*
X217252205Y-193051431D02*
X215927205Y-194376431D01*
X174559491Y-123871431D02*
X183633459Y-123871431D01*
X170225000Y-128205922D02*
X174559491Y-123871431D01*
X251715274Y-126523097D02*
X253966770Y-127478801D01*
X238219566Y-134084253D02*
X239299854Y-131539253D01*
X239299854Y-131539253D02*
X251715274Y-126523097D01*
X269378126Y-119386842D02*
X271629622Y-120342545D01*
X257472658Y-124196963D02*
X269378126Y-119386842D01*
X256116080Y-127392859D02*
X257472658Y-124196963D01*
X287040980Y-112250587D02*
X289292475Y-113206289D01*
X274996432Y-117116900D02*
X287040980Y-112250587D01*
X273695113Y-120182615D02*
X274996432Y-117116900D01*
X292983799Y-109849531D02*
X304703831Y-105114331D01*
X304703831Y-105114331D02*
X306955327Y-106070034D01*
X291571964Y-113175605D02*
X292983799Y-109849531D01*
X310136701Y-102919309D02*
X322366684Y-97978075D01*
X322366684Y-97978075D02*
X324618180Y-98933778D01*
X308945897Y-105724667D02*
X310136701Y-102919309D01*
X174900000Y-170200000D02*
X174625000Y-169925000D01*
X174625000Y-169925000D02*
X174625000Y-154483268D01*
X175305075Y-125671431D02*
X195033455Y-125671431D01*
X173275000Y-153133268D02*
X173275000Y-140256980D01*
X195033455Y-125671431D02*
X198023455Y-122681431D01*
X172025000Y-139006980D02*
X172025000Y-128951506D01*
X172025000Y-128951506D02*
X175305075Y-125671431D01*
X173275000Y-140256980D02*
X172025000Y-139006980D01*
X174625000Y-154483268D02*
X173275000Y-153133268D01*
X171575000Y-139193376D02*
X171575000Y-128765110D01*
X174175000Y-154669664D02*
X172825000Y-153319664D01*
X189259669Y-175140331D02*
X178774855Y-175140331D01*
X189489555Y-174865331D02*
X189489555Y-174910445D01*
X189489555Y-174910445D02*
X189259669Y-175140331D01*
X171575000Y-128765110D02*
X175118679Y-125221431D01*
X178774855Y-175140331D02*
X174175000Y-170540476D01*
X175118679Y-125221431D02*
X192183456Y-125221431D01*
X172825000Y-140443376D02*
X171575000Y-139193376D01*
X172825000Y-153319664D02*
X172825000Y-140443376D01*
X174175000Y-170540476D02*
X174175000Y-154669664D01*
X192183456Y-125221431D02*
X194723456Y-122681431D01*
X171125000Y-139379772D02*
X171125000Y-128578714D01*
X189333457Y-124771431D02*
X191423457Y-122681431D01*
X173725000Y-154856060D02*
X172375000Y-153506060D01*
X174932283Y-124771431D02*
X189333457Y-124771431D01*
X178588459Y-175590331D02*
X173725000Y-170726872D01*
X206397055Y-175590331D02*
X178588459Y-175590331D01*
X172375000Y-153506060D02*
X172375000Y-140629772D01*
X172375000Y-140629772D02*
X171125000Y-139379772D01*
X171125000Y-128578714D02*
X174932283Y-124771431D01*
X173725000Y-170726872D02*
X173725000Y-154856060D01*
X174745887Y-124321431D02*
X170675000Y-128392318D01*
X186483458Y-124321431D02*
X174745887Y-124321431D01*
X173275000Y-170913268D02*
X185719705Y-183357973D01*
X173275000Y-155042456D02*
X173275000Y-170913268D01*
X171925000Y-153692456D02*
X173275000Y-155042456D01*
X188123458Y-122681431D02*
X186483458Y-124321431D01*
X170675000Y-128392318D02*
X170675000Y-139566168D01*
X170675000Y-139566168D02*
X171925000Y-140816168D01*
X171925000Y-140816168D02*
X171925000Y-153692456D01*
X70758747Y-113382143D02*
X72143240Y-116643803D01*
X59456700Y-108815820D02*
X70758747Y-113382143D01*
X246482469Y-149183375D02*
X258805172Y-144204680D01*
X245374551Y-151793465D02*
X246482469Y-149183375D01*
X258805172Y-144204680D02*
X261121756Y-145188011D01*
X264191680Y-142028390D02*
X276468025Y-137068425D01*
X276468025Y-137068425D02*
X278784608Y-138051756D01*
X263028505Y-144768658D02*
X264191680Y-142028390D01*
X281715455Y-134948324D02*
X294130876Y-129932169D01*
X294130876Y-129932169D02*
X296447460Y-130915501D01*
X280662796Y-137428235D02*
X281715455Y-134948324D01*
X298409468Y-130365967D02*
X299517385Y-127755878D01*
X311793729Y-122795913D02*
X314110313Y-123779245D01*
X299517385Y-127755878D02*
X311793729Y-122795913D01*
X253757802Y-166790036D02*
X265987785Y-161848802D01*
X252566998Y-169595395D02*
X253757802Y-166790036D01*
X265987785Y-161848802D02*
X268239282Y-162804506D01*
X283650638Y-154712547D02*
X285902134Y-155668250D01*
X271188859Y-159747432D02*
X283650638Y-154712547D01*
X270163828Y-162162253D02*
X271188859Y-159747432D01*
X288805352Y-152629907D02*
X301313490Y-147576291D01*
X287780321Y-155044728D02*
X288805352Y-152629907D01*
X301313490Y-147576291D02*
X303564986Y-148531994D01*
X318976343Y-140440035D02*
X321227839Y-141395739D01*
X306700000Y-145400000D02*
X318976343Y-140440035D01*
X305564454Y-148075179D02*
X306700000Y-145400000D01*
X324316493Y-138282474D02*
X336639195Y-133303780D01*
X323180947Y-140957654D02*
X324316493Y-138282474D01*
X336639195Y-133303780D02*
X338890691Y-134259483D01*
X201062024Y-118100000D02*
X198023455Y-115061431D01*
X188123458Y-115061431D02*
X198023455Y-115061431D01*
X327472682Y-105998919D02*
X256821273Y-134543942D01*
X76443724Y-105999731D02*
X147095135Y-134544755D01*
X220100000Y-122727208D02*
X220100000Y-120400000D01*
X193703455Y-111011431D02*
X194723456Y-112031432D01*
X68653131Y-109306642D02*
X76443724Y-105999731D01*
X247865215Y-143500000D02*
X234500000Y-143500000D01*
X234500000Y-143500000D02*
X230650000Y-139650000D01*
X328002924Y-107311314D02*
X335442655Y-110469292D01*
X230650000Y-139650000D02*
X230650000Y-133277208D01*
X230650000Y-133277208D02*
X220100000Y-122727208D01*
X194723456Y-112031432D02*
X194723456Y-115061431D01*
X217800000Y-118100000D02*
X201062024Y-118100000D01*
X327472682Y-105998919D02*
X328002924Y-107311314D01*
X256821273Y-134543942D02*
X247865215Y-143500000D01*
X68201550Y-110424343D02*
X68653131Y-109306642D01*
X220100000Y-120400000D02*
X217800000Y-118100000D01*
M02*
