G04 #@! TF.GenerationSoftware,KiCad,Pcbnew,8.0.6*
G04 #@! TF.CreationDate,2024-10-27T19:10:16+01:00*
G04 #@! TF.ProjectId,pterodactyl,70746572-6f64-4616-9374-796c2e6b6963,rev?*
G04 #@! TF.SameCoordinates,Original*
G04 #@! TF.FileFunction,Profile,NP*
%FSLAX46Y46*%
G04 Gerber Fmt 4.6, Leading zero omitted, Abs format (unit mm)*
G04 Created by KiCad (PCBNEW 8.0.6) date 2024-10-27 19:10:16*
%MOMM*%
%LPD*%
G01*
G04 APERTURE LIST*
G04 #@! TA.AperFunction,Profile*
%ADD10C,0.200000*%
G04 #@! TD*
G04 APERTURE END LIST*
D10*
X262896764Y-221041964D02*
G75*
G02*
X262019811Y-221173003I-876964J2868964D01*
G01*
X157506532Y-221173000D02*
G75*
G02*
X156629224Y-221041865I-32J3000000D01*
G01*
X143196682Y-117465103D02*
G75*
G02*
X142319097Y-117333868I18J3000003D01*
G01*
X234186264Y-117465110D02*
G75*
G02*
X231599836Y-115985055I36J3000010D01*
G01*
X188059669Y-115979089D02*
G75*
G02*
X185469718Y-117465117I-2589969J1513989D01*
G01*
X277216863Y-117334001D02*
G75*
G02*
X276339696Y-117465101I-877163J2868901D01*
G01*
X200650596Y-94440000D02*
X218938596Y-94440000D01*
X276339696Y-117465103D02*
X234186264Y-117465110D01*
X200650596Y-94440000D02*
X188059669Y-115979089D01*
X218938596Y-94440000D02*
X231599814Y-115985068D01*
X143196682Y-117465103D02*
X185469718Y-117465103D01*
X262019811Y-221173000D02*
X157506532Y-221173000D01*
X37760149Y-88485931D02*
G75*
G02*
X41506192Y-86494086I2868928J-877069D01*
G01*
X407850090Y-173597055D02*
G75*
G02*
X405858302Y-177343119I-2868913J-877145D01*
G01*
X378082979Y-86494132D02*
G75*
G02*
X381828958Y-88485946I877098J-2868868D01*
G01*
X13730866Y-177343084D02*
G75*
G02*
X11739100Y-173597065I877111J2868884D01*
G01*
X41506178Y-86494132D02*
X142319095Y-117333873D01*
X11739067Y-173597055D02*
X37760149Y-88485931D01*
X381829008Y-88485931D02*
X407850090Y-173597055D01*
X405858291Y-177343084D02*
X262896764Y-221041964D01*
X277216863Y-117334001D02*
X378082979Y-86494132D01*
X13730866Y-177343084D02*
X156629227Y-221041856D01*
M02*
