%TF.GenerationSoftware,KiCad,Pcbnew,8.0.6*%
%TF.CreationDate,2024-10-27T19:10:12+01:00*%
%TF.ProjectId,pterodactyl,70746572-6f64-4616-9374-796c2e6b6963,rev?*%
%TF.SameCoordinates,Original*%
%TF.FileFunction,Drillmap*%
%TF.FilePolarity,Positive*%
%FSLAX45Y45*%
G04 Gerber Fmt 4.5, Leading zero omitted, Abs format (unit mm)*
G04 Created by KiCad (PCBNEW 8.0.6) date 2024-10-27 19:10:12*
%MOMM*%
%LPD*%
G01*
G04 APERTURE LIST*
%ADD10C,0.200000*%
%ADD11C,0.150000*%
%ADD12C,0.100000*%
%ADD13C,0.170180*%
%ADD14C,0.300000*%
%ADD15C,0.398780*%
G04 APERTURE END LIST*
D10*
X26289676Y-22104196D02*
G75*
G02*
X26201981Y-22117300I-87696J286896D01*
G01*
X15750653Y-22117300D02*
G75*
G02*
X15662922Y-22104187I-3J300000D01*
G01*
X14319668Y-11746510D02*
G75*
G02*
X14231910Y-11733387I2J300000D01*
G01*
X23418626Y-11746511D02*
G75*
G02*
X23159984Y-11598505I4J300001D01*
G01*
X18805967Y-11597909D02*
G75*
G02*
X18546972Y-11746512I-258997J151399D01*
G01*
X27721686Y-11733400D02*
G75*
G02*
X27633970Y-11746510I-87716J286890D01*
G01*
X20065060Y-9444000D02*
X21893860Y-9444000D01*
X27633970Y-11746510D02*
X23418626Y-11746511D01*
X20065060Y-9444000D02*
X18805967Y-11597909D01*
X21893860Y-9444000D02*
X23159981Y-11598507D01*
X14319668Y-11746510D02*
X18546972Y-11746510D01*
X26201981Y-22117300D02*
X15750653Y-22117300D01*
X3776015Y-8848593D02*
G75*
G02*
X4150619Y-8649409I286893J-87707D01*
G01*
X40785009Y-17359706D02*
G75*
G02*
X40585830Y-17734312I-286891J-87715D01*
G01*
X37808298Y-8649413D02*
G75*
G02*
X38182896Y-8848595I87710J-286887D01*
G01*
X1373087Y-17734308D02*
G75*
G02*
X1173910Y-17359707I87711J286888D01*
G01*
X4150618Y-8649413D02*
X14231909Y-11733387D01*
X1173907Y-17359706D02*
X3776015Y-8848593D01*
X38182901Y-8848593D02*
X40785009Y-17359706D01*
X40585829Y-17734308D02*
X26289676Y-22104196D01*
X27721686Y-11733400D02*
X37808298Y-8649413D01*
X1373087Y-17734308D02*
X15662923Y-22104186D01*
D11*
X18172700Y-16615750D02*
X18322700Y-16765750D01*
X18322700Y-16615750D02*
X18172700Y-16765750D01*
D12*
X18182700Y-16765750D02*
X18312700Y-16765750D01*
X18312700Y-16615750D02*
G75*
G02*
X18312700Y-16765750I0J-75000D01*
G01*
X18312700Y-16615750D02*
X18182700Y-16615750D01*
X18182700Y-16615750D02*
G75*
G03*
X18182700Y-16765750I0J-75000D01*
G01*
D11*
X18172700Y-17735750D02*
X18322700Y-17885750D01*
X18322700Y-17735750D02*
X18172700Y-17885750D01*
D12*
X18182700Y-17885750D02*
X18312700Y-17885750D01*
X18312700Y-17735750D02*
G75*
G02*
X18312700Y-17885750I0J-75000D01*
G01*
X18312700Y-17735750D02*
X18182700Y-17735750D01*
X18182700Y-17735750D02*
G75*
G03*
X18182700Y-17885750I0J-75000D01*
G01*
D13*
X1810989Y-16937798D02*
G75*
G02*
X1640809Y-16937798I-85090J0D01*
G01*
X1640809Y-16937798D02*
G75*
G02*
X1810989Y-16937798I85090J0D01*
G01*
X2365691Y-15123449D02*
G75*
G02*
X2195511Y-15123449I-85090J0D01*
G01*
X2195511Y-15123449D02*
G75*
G02*
X2365691Y-15123449I85090J0D01*
G01*
X2782595Y-17234848D02*
G75*
G02*
X2612415Y-17234848I-85090J0D01*
G01*
X2612415Y-17234848D02*
G75*
G02*
X2782595Y-17234848I85090J0D01*
G01*
X2920393Y-13309100D02*
G75*
G02*
X2750213Y-13309100I-85090J0D01*
G01*
X2750213Y-13309100D02*
G75*
G02*
X2920393Y-13309100I85090J0D01*
G01*
X3337297Y-15420499D02*
G75*
G02*
X3167117Y-15420499I-85090J0D01*
G01*
X3167117Y-15420499D02*
G75*
G02*
X3337297Y-15420499I85090J0D01*
G01*
X3475095Y-11494751D02*
G75*
G02*
X3304915Y-11494751I-85090J0D01*
G01*
X3304915Y-11494751D02*
G75*
G02*
X3475095Y-11494751I85090J0D01*
G01*
X3637340Y-17496170D02*
G75*
G02*
X3467160Y-17496170I-85090J0D01*
G01*
X3467160Y-17496170D02*
G75*
G02*
X3637340Y-17496170I85090J0D01*
G01*
X3891999Y-13606149D02*
G75*
G02*
X3721819Y-13606149I-85090J0D01*
G01*
X3721819Y-13606149D02*
G75*
G02*
X3891999Y-13606149I85090J0D01*
G01*
X4029798Y-9680402D02*
G75*
G02*
X3859618Y-9680402I-85090J0D01*
G01*
X3859618Y-9680402D02*
G75*
G02*
X4029798Y-9680402I85090J0D01*
G01*
X4192042Y-15681821D02*
G75*
G02*
X4021862Y-15681821I-85090J0D01*
G01*
X4021862Y-15681821D02*
G75*
G02*
X4192042Y-15681821I85090J0D01*
G01*
X4446701Y-11791800D02*
G75*
G02*
X4276521Y-11791800I-85090J0D01*
G01*
X4276521Y-11791800D02*
G75*
G02*
X4446701Y-11791800I85090J0D01*
G01*
X4608945Y-17793219D02*
G75*
G02*
X4438765Y-17793219I-85090J0D01*
G01*
X4438765Y-17793219D02*
G75*
G02*
X4608945Y-17793219I85090J0D01*
G01*
X4746744Y-13867471D02*
G75*
G02*
X4576564Y-13867471I-85090J0D01*
G01*
X4576564Y-13867471D02*
G75*
G02*
X4746744Y-13867471I85090J0D01*
G01*
X5001404Y-9977451D02*
G75*
G02*
X4831224Y-9977451I-85090J0D01*
G01*
X4831224Y-9977451D02*
G75*
G02*
X5001404Y-9977451I85090J0D01*
G01*
X5163647Y-15978870D02*
G75*
G02*
X4993467Y-15978870I-85090J0D01*
G01*
X4993467Y-15978870D02*
G75*
G02*
X5163647Y-15978870I85090J0D01*
G01*
X5301447Y-12053122D02*
G75*
G02*
X5131267Y-12053122I-85090J0D01*
G01*
X5131267Y-12053122D02*
G75*
G02*
X5301447Y-12053122I85090J0D01*
G01*
X5463691Y-18054541D02*
G75*
G02*
X5293511Y-18054541I-85090J0D01*
G01*
X5293511Y-18054541D02*
G75*
G02*
X5463691Y-18054541I85090J0D01*
G01*
X5718350Y-14164521D02*
G75*
G02*
X5548170Y-14164521I-85090J0D01*
G01*
X5548170Y-14164521D02*
G75*
G02*
X5718350Y-14164521I85090J0D01*
G01*
X5856149Y-10238773D02*
G75*
G02*
X5685969Y-10238773I-85090J0D01*
G01*
X5685969Y-10238773D02*
G75*
G02*
X5856149Y-10238773I85090J0D01*
G01*
X6018393Y-16240192D02*
G75*
G02*
X5848213Y-16240192I-85090J0D01*
G01*
X5848213Y-16240192D02*
G75*
G02*
X6018393Y-16240192I85090J0D01*
G01*
X6273052Y-12350172D02*
G75*
G02*
X6102872Y-12350172I-85090J0D01*
G01*
X6102872Y-12350172D02*
G75*
G02*
X6273052Y-12350172I85090J0D01*
G01*
X6435296Y-18351591D02*
G75*
G02*
X6265116Y-18351591I-85090J0D01*
G01*
X6265116Y-18351591D02*
G75*
G02*
X6435296Y-18351591I85090J0D01*
G01*
X6573095Y-14425843D02*
G75*
G02*
X6402915Y-14425843I-85090J0D01*
G01*
X6402915Y-14425843D02*
G75*
G02*
X6573095Y-14425843I85090J0D01*
G01*
X6827754Y-10535823D02*
G75*
G02*
X6657574Y-10535823I-85090J0D01*
G01*
X6657574Y-10535823D02*
G75*
G02*
X6827754Y-10535823I85090J0D01*
G01*
X6989998Y-16537242D02*
G75*
G02*
X6819818Y-16537242I-85090J0D01*
G01*
X6819818Y-16537242D02*
G75*
G02*
X6989998Y-16537242I85090J0D01*
G01*
X7127797Y-12611494D02*
G75*
G02*
X6957617Y-12611494I-85090J0D01*
G01*
X6957617Y-12611494D02*
G75*
G02*
X7127797Y-12611494I85090J0D01*
G01*
X7290042Y-18612913D02*
G75*
G02*
X7119862Y-18612913I-85090J0D01*
G01*
X7119862Y-18612913D02*
G75*
G02*
X7290042Y-18612913I85090J0D01*
G01*
X7544701Y-14722892D02*
G75*
G02*
X7374521Y-14722892I-85090J0D01*
G01*
X7374521Y-14722892D02*
G75*
G02*
X7544701Y-14722892I85090J0D01*
G01*
X7682499Y-10797144D02*
G75*
G02*
X7512319Y-10797144I-85090J0D01*
G01*
X7512319Y-10797144D02*
G75*
G02*
X7682499Y-10797144I85090J0D01*
G01*
X7844744Y-16798564D02*
G75*
G02*
X7674564Y-16798564I-85090J0D01*
G01*
X7674564Y-16798564D02*
G75*
G02*
X7844744Y-16798564I85090J0D01*
G01*
X8099403Y-12908543D02*
G75*
G02*
X7929223Y-12908543I-85090J0D01*
G01*
X7929223Y-12908543D02*
G75*
G02*
X8099403Y-12908543I85090J0D01*
G01*
X8261647Y-18909962D02*
G75*
G02*
X8091467Y-18909962I-85090J0D01*
G01*
X8091467Y-18909962D02*
G75*
G02*
X8261647Y-18909962I85090J0D01*
G01*
X8399446Y-14984214D02*
G75*
G02*
X8229266Y-14984214I-85090J0D01*
G01*
X8229266Y-14984214D02*
G75*
G02*
X8399446Y-14984214I85090J0D01*
G01*
X8654105Y-11094194D02*
G75*
G02*
X8483925Y-11094194I-85090J0D01*
G01*
X8483925Y-11094194D02*
G75*
G02*
X8654105Y-11094194I85090J0D01*
G01*
X8816349Y-17095613D02*
G75*
G02*
X8646169Y-17095613I-85090J0D01*
G01*
X8646169Y-17095613D02*
G75*
G02*
X8816349Y-17095613I85090J0D01*
G01*
X8954148Y-13169865D02*
G75*
G02*
X8783968Y-13169865I-85090J0D01*
G01*
X8783968Y-13169865D02*
G75*
G02*
X8954148Y-13169865I85090J0D01*
G01*
X9116392Y-19171284D02*
G75*
G02*
X8946212Y-19171284I-85090J0D01*
G01*
X8946212Y-19171284D02*
G75*
G02*
X9116392Y-19171284I85090J0D01*
G01*
X9371052Y-15281264D02*
G75*
G02*
X9200872Y-15281264I-85090J0D01*
G01*
X9200872Y-15281264D02*
G75*
G02*
X9371052Y-15281264I85090J0D01*
G01*
X9508850Y-11355516D02*
G75*
G02*
X9338670Y-11355516I-85090J0D01*
G01*
X9338670Y-11355516D02*
G75*
G02*
X9508850Y-11355516I85090J0D01*
G01*
X9671095Y-17356935D02*
G75*
G02*
X9500915Y-17356935I-85090J0D01*
G01*
X9500915Y-17356935D02*
G75*
G02*
X9671095Y-17356935I85090J0D01*
G01*
X9925754Y-13466915D02*
G75*
G02*
X9755574Y-13466915I-85090J0D01*
G01*
X9755574Y-13466915D02*
G75*
G02*
X9925754Y-13466915I85090J0D01*
G01*
X10087998Y-19468334D02*
G75*
G02*
X9917818Y-19468334I-85090J0D01*
G01*
X9917818Y-19468334D02*
G75*
G02*
X10087998Y-19468334I85090J0D01*
G01*
X10225797Y-15542586D02*
G75*
G02*
X10055617Y-15542586I-85090J0D01*
G01*
X10055617Y-15542586D02*
G75*
G02*
X10225797Y-15542586I85090J0D01*
G01*
X10480456Y-11652566D02*
G75*
G02*
X10310276Y-11652566I-85090J0D01*
G01*
X10310276Y-11652566D02*
G75*
G02*
X10480456Y-11652566I85090J0D01*
G01*
X10642700Y-17653985D02*
G75*
G02*
X10472520Y-17653985I-85090J0D01*
G01*
X10472520Y-17653985D02*
G75*
G02*
X10642700Y-17653985I85090J0D01*
G01*
X10780499Y-13728236D02*
G75*
G02*
X10610319Y-13728236I-85090J0D01*
G01*
X10610319Y-13728236D02*
G75*
G02*
X10780499Y-13728236I85090J0D01*
G01*
X10942743Y-19729656D02*
G75*
G02*
X10772563Y-19729656I-85090J0D01*
G01*
X10772563Y-19729656D02*
G75*
G02*
X10942743Y-19729656I85090J0D01*
G01*
X11197402Y-15839635D02*
G75*
G02*
X11027222Y-15839635I-85090J0D01*
G01*
X11027222Y-15839635D02*
G75*
G02*
X11197402Y-15839635I85090J0D01*
G01*
X11335201Y-11913887D02*
G75*
G02*
X11165021Y-11913887I-85090J0D01*
G01*
X11165021Y-11913887D02*
G75*
G02*
X11335201Y-11913887I85090J0D01*
G01*
X11497445Y-17915306D02*
G75*
G02*
X11327265Y-17915306I-85090J0D01*
G01*
X11327265Y-17915306D02*
G75*
G02*
X11497445Y-17915306I85090J0D01*
G01*
X11752104Y-14025286D02*
G75*
G02*
X11581924Y-14025286I-85090J0D01*
G01*
X11581924Y-14025286D02*
G75*
G02*
X11752104Y-14025286I85090J0D01*
G01*
X11914349Y-20026705D02*
G75*
G02*
X11744169Y-20026705I-85090J0D01*
G01*
X11744169Y-20026705D02*
G75*
G02*
X11914349Y-20026705I85090J0D01*
G01*
X12052147Y-16100957D02*
G75*
G02*
X11881967Y-16100957I-85090J0D01*
G01*
X11881967Y-16100957D02*
G75*
G02*
X12052147Y-16100957I85090J0D01*
G01*
X12306807Y-12210937D02*
G75*
G02*
X12136627Y-12210937I-85090J0D01*
G01*
X12136627Y-12210937D02*
G75*
G02*
X12306807Y-12210937I85090J0D01*
G01*
X12469051Y-18212356D02*
G75*
G02*
X12298871Y-18212356I-85090J0D01*
G01*
X12298871Y-18212356D02*
G75*
G02*
X12469051Y-18212356I85090J0D01*
G01*
X12606850Y-14286608D02*
G75*
G02*
X12436670Y-14286608I-85090J0D01*
G01*
X12436670Y-14286608D02*
G75*
G02*
X12606850Y-14286608I85090J0D01*
G01*
X12759722Y-20285162D02*
G75*
G02*
X12589542Y-20285162I-85090J0D01*
G01*
X12589542Y-20285162D02*
G75*
G02*
X12759722Y-20285162I85090J0D01*
G01*
X13023753Y-16398007D02*
G75*
G02*
X12853573Y-16398007I-85090J0D01*
G01*
X12853573Y-16398007D02*
G75*
G02*
X13023753Y-16398007I85090J0D01*
G01*
X13161552Y-12472259D02*
G75*
G02*
X12991372Y-12472259I-85090J0D01*
G01*
X12991372Y-12472259D02*
G75*
G02*
X13161552Y-12472259I85090J0D01*
G01*
X13314424Y-18470813D02*
G75*
G02*
X13144244Y-18470813I-85090J0D01*
G01*
X13144244Y-18470813D02*
G75*
G02*
X13314424Y-18470813I85090J0D01*
G01*
X13578455Y-14583658D02*
G75*
G02*
X13408275Y-14583658I-85090J0D01*
G01*
X13408275Y-14583658D02*
G75*
G02*
X13578455Y-14583658I85090J0D01*
G01*
X13731327Y-20582212D02*
G75*
G02*
X13561147Y-20582212I-85090J0D01*
G01*
X13561147Y-20582212D02*
G75*
G02*
X13731327Y-20582212I85090J0D01*
G01*
X14133158Y-12769309D02*
G75*
G02*
X13962978Y-12769309I-85090J0D01*
G01*
X13962978Y-12769309D02*
G75*
G02*
X14133158Y-12769309I85090J0D01*
G01*
X14286030Y-18767862D02*
G75*
G02*
X14115850Y-18767862I-85090J0D01*
G01*
X14115850Y-18767862D02*
G75*
G02*
X14286030Y-18767862I85090J0D01*
G01*
X17863290Y-19148000D02*
G75*
G02*
X17693110Y-19148000I-85090J0D01*
G01*
X17693110Y-19148000D02*
G75*
G02*
X17863290Y-19148000I85090J0D01*
G01*
X17863290Y-21045250D02*
G75*
G02*
X17693110Y-21045250I-85090J0D01*
G01*
X17693110Y-21045250D02*
G75*
G02*
X17863290Y-21045250I85090J0D01*
G01*
X18879290Y-19148000D02*
G75*
G02*
X18709110Y-19148000I-85090J0D01*
G01*
X18709110Y-19148000D02*
G75*
G02*
X18879290Y-19148000I85090J0D01*
G01*
X18879290Y-21045250D02*
G75*
G02*
X18709110Y-21045250I-85090J0D01*
G01*
X18709110Y-21045250D02*
G75*
G02*
X18879290Y-21045250I85090J0D01*
G01*
X19773090Y-17250750D02*
G75*
G02*
X19602910Y-17250750I-85090J0D01*
G01*
X19602910Y-17250750D02*
G75*
G02*
X19773090Y-17250750I85090J0D01*
G01*
X19773090Y-19148000D02*
G75*
G02*
X19602910Y-19148000I-85090J0D01*
G01*
X19602910Y-19148000D02*
G75*
G02*
X19773090Y-19148000I85090J0D01*
G01*
X19773090Y-21045250D02*
G75*
G02*
X19602910Y-21045250I-85090J0D01*
G01*
X19602910Y-21045250D02*
G75*
G02*
X19773090Y-21045250I85090J0D01*
G01*
X20789090Y-17250750D02*
G75*
G02*
X20618910Y-17250750I-85090J0D01*
G01*
X20618910Y-17250750D02*
G75*
G02*
X20789090Y-17250750I85090J0D01*
G01*
X20789090Y-19148000D02*
G75*
G02*
X20618910Y-19148000I-85090J0D01*
G01*
X20618910Y-19148000D02*
G75*
G02*
X20789090Y-19148000I85090J0D01*
G01*
X20789090Y-21045250D02*
G75*
G02*
X20618910Y-21045250I-85090J0D01*
G01*
X20618910Y-21045250D02*
G75*
G02*
X20789090Y-21045250I85090J0D01*
G01*
X21682890Y-17250750D02*
G75*
G02*
X21512710Y-17250750I-85090J0D01*
G01*
X21512710Y-17250750D02*
G75*
G02*
X21682890Y-17250750I85090J0D01*
G01*
X21682890Y-19148000D02*
G75*
G02*
X21512710Y-19148000I-85090J0D01*
G01*
X21512710Y-19148000D02*
G75*
G02*
X21682890Y-19148000I85090J0D01*
G01*
X21682890Y-21045250D02*
G75*
G02*
X21512710Y-21045250I-85090J0D01*
G01*
X21512710Y-21045250D02*
G75*
G02*
X21682890Y-21045250I85090J0D01*
G01*
X22698890Y-17250750D02*
G75*
G02*
X22528710Y-17250750I-85090J0D01*
G01*
X22528710Y-17250750D02*
G75*
G02*
X22698890Y-17250750I85090J0D01*
G01*
X22698890Y-19148000D02*
G75*
G02*
X22528710Y-19148000I-85090J0D01*
G01*
X22528710Y-19148000D02*
G75*
G02*
X22698890Y-19148000I85090J0D01*
G01*
X22698890Y-21045250D02*
G75*
G02*
X22528710Y-21045250I-85090J0D01*
G01*
X22528710Y-21045250D02*
G75*
G02*
X22698890Y-21045250I85090J0D01*
G01*
X23592690Y-17250750D02*
G75*
G02*
X23422510Y-17250750I-85090J0D01*
G01*
X23422510Y-17250750D02*
G75*
G02*
X23592690Y-17250750I85090J0D01*
G01*
X23592690Y-19148000D02*
G75*
G02*
X23422510Y-19148000I-85090J0D01*
G01*
X23422510Y-19148000D02*
G75*
G02*
X23592690Y-19148000I85090J0D01*
G01*
X23592690Y-21045250D02*
G75*
G02*
X23422510Y-21045250I-85090J0D01*
G01*
X23422510Y-21045250D02*
G75*
G02*
X23592690Y-21045250I85090J0D01*
G01*
X24608690Y-17250750D02*
G75*
G02*
X24438510Y-17250750I-85090J0D01*
G01*
X24438510Y-17250750D02*
G75*
G02*
X24608690Y-17250750I85090J0D01*
G01*
X24608690Y-19148000D02*
G75*
G02*
X24438510Y-19148000I-85090J0D01*
G01*
X24438510Y-19148000D02*
G75*
G02*
X24608690Y-19148000I85090J0D01*
G01*
X24608690Y-21045250D02*
G75*
G02*
X24438510Y-21045250I-85090J0D01*
G01*
X24438510Y-21045250D02*
G75*
G02*
X24608690Y-21045250I85090J0D01*
G01*
X27868452Y-18767862D02*
G75*
G02*
X27698272Y-18767862I-85090J0D01*
G01*
X27698272Y-18767862D02*
G75*
G02*
X27868452Y-18767862I85090J0D01*
G01*
X28030696Y-12766443D02*
G75*
G02*
X27860516Y-12766443I-85090J0D01*
G01*
X27860516Y-12766443D02*
G75*
G02*
X28030696Y-12766443I85090J0D01*
G01*
X28423154Y-20582212D02*
G75*
G02*
X28252974Y-20582212I-85090J0D01*
G01*
X28252974Y-20582212D02*
G75*
G02*
X28423154Y-20582212I85090J0D01*
G01*
X28585398Y-14580792D02*
G75*
G02*
X28415218Y-14580792I-85090J0D01*
G01*
X28415218Y-14580792D02*
G75*
G02*
X28585398Y-14580792I85090J0D01*
G01*
X28840057Y-18470813D02*
G75*
G02*
X28669877Y-18470813I-85090J0D01*
G01*
X28669877Y-18470813D02*
G75*
G02*
X28840057Y-18470813I85090J0D01*
G01*
X29002301Y-12469394D02*
G75*
G02*
X28832121Y-12469394I-85090J0D01*
G01*
X28832121Y-12469394D02*
G75*
G02*
X29002301Y-12469394I85090J0D01*
G01*
X29140100Y-16395142D02*
G75*
G02*
X28969920Y-16395142I-85090J0D01*
G01*
X28969920Y-16395142D02*
G75*
G02*
X29140100Y-16395142I85090J0D01*
G01*
X29394760Y-20285162D02*
G75*
G02*
X29224580Y-20285162I-85090J0D01*
G01*
X29224580Y-20285162D02*
G75*
G02*
X29394760Y-20285162I85090J0D01*
G01*
X29557004Y-14283743D02*
G75*
G02*
X29386824Y-14283743I-85090J0D01*
G01*
X29386824Y-14283743D02*
G75*
G02*
X29557004Y-14283743I85090J0D01*
G01*
X29694803Y-18209491D02*
G75*
G02*
X29524623Y-18209491I-85090J0D01*
G01*
X29524623Y-18209491D02*
G75*
G02*
X29694803Y-18209491I85090J0D01*
G01*
X29855172Y-12208645D02*
G75*
G02*
X29684992Y-12208645I-85090J0D01*
G01*
X29684992Y-12208645D02*
G75*
G02*
X29855172Y-12208645I85090J0D01*
G01*
X30111706Y-16098092D02*
G75*
G02*
X29941526Y-16098092I-85090J0D01*
G01*
X29941526Y-16098092D02*
G75*
G02*
X30111706Y-16098092I85090J0D01*
G01*
X30249505Y-20023840D02*
G75*
G02*
X30079325Y-20023840I-85090J0D01*
G01*
X30079325Y-20023840D02*
G75*
G02*
X30249505Y-20023840I85090J0D01*
G01*
X30411749Y-14022421D02*
G75*
G02*
X30241569Y-14022421I-85090J0D01*
G01*
X30241569Y-14022421D02*
G75*
G02*
X30411749Y-14022421I85090J0D01*
G01*
X30666408Y-17912441D02*
G75*
G02*
X30496228Y-17912441I-85090J0D01*
G01*
X30496228Y-17912441D02*
G75*
G02*
X30666408Y-17912441I85090J0D01*
G01*
X30826778Y-11911595D02*
G75*
G02*
X30656598Y-11911595I-85090J0D01*
G01*
X30656598Y-11911595D02*
G75*
G02*
X30826778Y-11911595I85090J0D01*
G01*
X30966451Y-15836770D02*
G75*
G02*
X30796271Y-15836770I-85090J0D01*
G01*
X30796271Y-15836770D02*
G75*
G02*
X30966451Y-15836770I85090J0D01*
G01*
X31221110Y-19726790D02*
G75*
G02*
X31050930Y-19726790I-85090J0D01*
G01*
X31050930Y-19726790D02*
G75*
G02*
X31221110Y-19726790I85090J0D01*
G01*
X31383355Y-13725371D02*
G75*
G02*
X31213175Y-13725371I-85090J0D01*
G01*
X31213175Y-13725371D02*
G75*
G02*
X31383355Y-13725371I85090J0D01*
G01*
X31521153Y-17651119D02*
G75*
G02*
X31350973Y-17651119I-85090J0D01*
G01*
X31350973Y-17651119D02*
G75*
G02*
X31521153Y-17651119I85090J0D01*
G01*
X31679649Y-11650846D02*
G75*
G02*
X31509469Y-11650846I-85090J0D01*
G01*
X31509469Y-11650846D02*
G75*
G02*
X31679649Y-11650846I85090J0D01*
G01*
X31938057Y-15539721D02*
G75*
G02*
X31767877Y-15539721I-85090J0D01*
G01*
X31767877Y-15539721D02*
G75*
G02*
X31938057Y-15539721I85090J0D01*
G01*
X32075855Y-19465469D02*
G75*
G02*
X31905675Y-19465469I-85090J0D01*
G01*
X31905675Y-19465469D02*
G75*
G02*
X32075855Y-19465469I85090J0D01*
G01*
X32238100Y-13464049D02*
G75*
G02*
X32067920Y-13464049I-85090J0D01*
G01*
X32067920Y-13464049D02*
G75*
G02*
X32238100Y-13464049I85090J0D01*
G01*
X32492759Y-17354070D02*
G75*
G02*
X32322579Y-17354070I-85090J0D01*
G01*
X32322579Y-17354070D02*
G75*
G02*
X32492759Y-17354070I85090J0D01*
G01*
X32651254Y-11353797D02*
G75*
G02*
X32481074Y-11353797I-85090J0D01*
G01*
X32481074Y-11353797D02*
G75*
G02*
X32651254Y-11353797I85090J0D01*
G01*
X32792802Y-15278399D02*
G75*
G02*
X32622622Y-15278399I-85090J0D01*
G01*
X32622622Y-15278399D02*
G75*
G02*
X32792802Y-15278399I85090J0D01*
G01*
X33047461Y-19168419D02*
G75*
G02*
X32877281Y-19168419I-85090J0D01*
G01*
X32877281Y-19168419D02*
G75*
G02*
X33047461Y-19168419I85090J0D01*
G01*
X33209705Y-13167000D02*
G75*
G02*
X33039525Y-13167000I-85090J0D01*
G01*
X33039525Y-13167000D02*
G75*
G02*
X33209705Y-13167000I85090J0D01*
G01*
X33347504Y-17092748D02*
G75*
G02*
X33177324Y-17092748I-85090J0D01*
G01*
X33177324Y-17092748D02*
G75*
G02*
X33347504Y-17092748I85090J0D01*
G01*
X33504125Y-11093048D02*
G75*
G02*
X33333945Y-11093048I-85090J0D01*
G01*
X33333945Y-11093048D02*
G75*
G02*
X33504125Y-11093048I85090J0D01*
G01*
X33764408Y-14981349D02*
G75*
G02*
X33594228Y-14981349I-85090J0D01*
G01*
X33594228Y-14981349D02*
G75*
G02*
X33764408Y-14981349I85090J0D01*
G01*
X33902206Y-18907097D02*
G75*
G02*
X33732026Y-18907097I-85090J0D01*
G01*
X33732026Y-18907097D02*
G75*
G02*
X33902206Y-18907097I85090J0D01*
G01*
X34064451Y-12905678D02*
G75*
G02*
X33894271Y-12905678I-85090J0D01*
G01*
X33894271Y-12905678D02*
G75*
G02*
X34064451Y-12905678I85090J0D01*
G01*
X34319110Y-16795698D02*
G75*
G02*
X34148930Y-16795698I-85090J0D01*
G01*
X34148930Y-16795698D02*
G75*
G02*
X34319110Y-16795698I85090J0D01*
G01*
X34475731Y-10795998D02*
G75*
G02*
X34305551Y-10795998I-85090J0D01*
G01*
X34305551Y-10795998D02*
G75*
G02*
X34475731Y-10795998I85090J0D01*
G01*
X34619153Y-14720027D02*
G75*
G02*
X34448973Y-14720027I-85090J0D01*
G01*
X34448973Y-14720027D02*
G75*
G02*
X34619153Y-14720027I85090J0D01*
G01*
X34873812Y-18610048D02*
G75*
G02*
X34703632Y-18610048I-85090J0D01*
G01*
X34703632Y-18610048D02*
G75*
G02*
X34873812Y-18610048I85090J0D01*
G01*
X35036056Y-12608628D02*
G75*
G02*
X34865876Y-12608628I-85090J0D01*
G01*
X34865876Y-12608628D02*
G75*
G02*
X35036056Y-12608628I85090J0D01*
G01*
X35173855Y-16534376D02*
G75*
G02*
X35003675Y-16534376I-85090J0D01*
G01*
X35003675Y-16534376D02*
G75*
G02*
X35173855Y-16534376I85090J0D01*
G01*
X35328602Y-10535249D02*
G75*
G02*
X35158422Y-10535249I-85090J0D01*
G01*
X35158422Y-10535249D02*
G75*
G02*
X35328602Y-10535249I85090J0D01*
G01*
X35590758Y-14422977D02*
G75*
G02*
X35420578Y-14422977I-85090J0D01*
G01*
X35420578Y-14422977D02*
G75*
G02*
X35590758Y-14422977I85090J0D01*
G01*
X35728557Y-18348726D02*
G75*
G02*
X35558377Y-18348726I-85090J0D01*
G01*
X35558377Y-18348726D02*
G75*
G02*
X35728557Y-18348726I85090J0D01*
G01*
X35890801Y-12347306D02*
G75*
G02*
X35720621Y-12347306I-85090J0D01*
G01*
X35720621Y-12347306D02*
G75*
G02*
X35890801Y-12347306I85090J0D01*
G01*
X36145460Y-16237327D02*
G75*
G02*
X35975280Y-16237327I-85090J0D01*
G01*
X35975280Y-16237327D02*
G75*
G02*
X36145460Y-16237327I85090J0D01*
G01*
X36300207Y-10238200D02*
G75*
G02*
X36130027Y-10238200I-85090J0D01*
G01*
X36130027Y-10238200D02*
G75*
G02*
X36300207Y-10238200I85090J0D01*
G01*
X36445503Y-14161656D02*
G75*
G02*
X36275323Y-14161656I-85090J0D01*
G01*
X36275323Y-14161656D02*
G75*
G02*
X36445503Y-14161656I85090J0D01*
G01*
X36700163Y-18051676D02*
G75*
G02*
X36529983Y-18051676I-85090J0D01*
G01*
X36529983Y-18051676D02*
G75*
G02*
X36700163Y-18051676I85090J0D01*
G01*
X36862407Y-12050257D02*
G75*
G02*
X36692227Y-12050257I-85090J0D01*
G01*
X36692227Y-12050257D02*
G75*
G02*
X36862407Y-12050257I85090J0D01*
G01*
X37000206Y-15976005D02*
G75*
G02*
X36830026Y-15976005I-85090J0D01*
G01*
X36830026Y-15976005D02*
G75*
G02*
X37000206Y-15976005I85090J0D01*
G01*
X37153078Y-9977451D02*
G75*
G02*
X36982898Y-9977451I-85090J0D01*
G01*
X36982898Y-9977451D02*
G75*
G02*
X37153078Y-9977451I85090J0D01*
G01*
X37417109Y-13864606D02*
G75*
G02*
X37246929Y-13864606I-85090J0D01*
G01*
X37246929Y-13864606D02*
G75*
G02*
X37417109Y-13864606I85090J0D01*
G01*
X37554908Y-17790354D02*
G75*
G02*
X37384728Y-17790354I-85090J0D01*
G01*
X37384728Y-17790354D02*
G75*
G02*
X37554908Y-17790354I85090J0D01*
G01*
X37707781Y-11791800D02*
G75*
G02*
X37537601Y-11791800I-85090J0D01*
G01*
X37537601Y-11791800D02*
G75*
G02*
X37707781Y-11791800I85090J0D01*
G01*
X37971812Y-15678955D02*
G75*
G02*
X37801632Y-15678955I-85090J0D01*
G01*
X37801632Y-15678955D02*
G75*
G02*
X37971812Y-15678955I85090J0D01*
G01*
X38124684Y-9680402D02*
G75*
G02*
X37954504Y-9680402I-85090J0D01*
G01*
X37954504Y-9680402D02*
G75*
G02*
X38124684Y-9680402I85090J0D01*
G01*
X38262483Y-13606149D02*
G75*
G02*
X38092303Y-13606149I-85090J0D01*
G01*
X38092303Y-13606149D02*
G75*
G02*
X38262483Y-13606149I85090J0D01*
G01*
X38526514Y-17493304D02*
G75*
G02*
X38356334Y-17493304I-85090J0D01*
G01*
X38356334Y-17493304D02*
G75*
G02*
X38526514Y-17493304I85090J0D01*
G01*
X38679386Y-11494751D02*
G75*
G02*
X38509206Y-11494751I-85090J0D01*
G01*
X38509206Y-11494751D02*
G75*
G02*
X38679386Y-11494751I85090J0D01*
G01*
X38817185Y-15420499D02*
G75*
G02*
X38647005Y-15420499I-85090J0D01*
G01*
X38647005Y-15420499D02*
G75*
G02*
X38817185Y-15420499I85090J0D01*
G01*
X39234088Y-13309100D02*
G75*
G02*
X39063908Y-13309100I-85090J0D01*
G01*
X39063908Y-13309100D02*
G75*
G02*
X39234088Y-13309100I85090J0D01*
G01*
X39371887Y-17234848D02*
G75*
G02*
X39201707Y-17234848I-85090J0D01*
G01*
X39201707Y-17234848D02*
G75*
G02*
X39371887Y-17234848I85090J0D01*
G01*
X39788790Y-15123449D02*
G75*
G02*
X39618610Y-15123449I-85090J0D01*
G01*
X39618610Y-15123449D02*
G75*
G02*
X39788790Y-15123449I85090J0D01*
G01*
X40343493Y-16937798D02*
G75*
G02*
X40173313Y-16937798I-85090J0D01*
G01*
X40173313Y-16937798D02*
G75*
G02*
X40343493Y-16937798I85090J0D01*
G01*
D14*
X1921612Y-16582028D02*
X1921612Y-16882028D01*
X1771612Y-16732028D02*
X2071612Y-16732028D01*
X2476314Y-14767679D02*
X2476314Y-15067679D01*
X2326314Y-14917679D02*
X2626314Y-14917679D01*
X2603128Y-16524783D02*
X2603128Y-16824783D01*
X2453128Y-16674783D02*
X2753128Y-16674783D01*
X3031016Y-12953330D02*
X3031016Y-13253330D01*
X2881016Y-13103330D02*
X3181016Y-13103330D01*
X3157830Y-14710433D02*
X3157830Y-15010433D01*
X3007830Y-14860433D02*
X3307830Y-14860433D01*
X3585718Y-11138981D02*
X3585718Y-11438980D01*
X3435718Y-11288980D02*
X3735718Y-11288980D01*
X3712532Y-12896084D02*
X3712532Y-13196084D01*
X3562532Y-13046084D02*
X3862532Y-13046084D01*
X3747963Y-17140400D02*
X3747963Y-17440400D01*
X3597963Y-17290400D02*
X3897963Y-17290400D01*
X4140421Y-9324631D02*
X4140421Y-9624631D01*
X3990421Y-9474631D02*
X4290421Y-9474631D01*
X4267234Y-11081735D02*
X4267234Y-11381735D01*
X4117234Y-11231735D02*
X4417234Y-11231735D01*
X4302665Y-15326050D02*
X4302665Y-15626050D01*
X4152665Y-15476050D02*
X4452665Y-15476050D01*
X4429479Y-17083154D02*
X4429479Y-17383154D01*
X4279479Y-17233154D02*
X4579479Y-17233154D01*
X4821937Y-9267386D02*
X4821937Y-9567386D01*
X4671937Y-9417386D02*
X4971937Y-9417386D01*
X4857367Y-13511701D02*
X4857367Y-13811701D01*
X4707367Y-13661701D02*
X5007367Y-13661701D01*
X4984181Y-15268805D02*
X4984181Y-15568805D01*
X4834181Y-15418805D02*
X5134181Y-15418805D01*
X5412070Y-11697352D02*
X5412070Y-11997352D01*
X5262070Y-11847352D02*
X5562070Y-11847352D01*
X5538883Y-13454456D02*
X5538883Y-13754456D01*
X5388883Y-13604456D02*
X5688883Y-13604456D01*
X5574314Y-17698771D02*
X5574314Y-17998771D01*
X5424314Y-17848771D02*
X5724314Y-17848771D01*
X5966772Y-9883003D02*
X5966772Y-10183003D01*
X5816772Y-10033003D02*
X6116772Y-10033003D01*
X6093586Y-11640107D02*
X6093586Y-11940107D01*
X5943586Y-11790107D02*
X6243586Y-11790107D01*
X6129016Y-15884422D02*
X6129016Y-16184422D01*
X5979016Y-16034422D02*
X6279016Y-16034422D01*
X6255829Y-17641526D02*
X6255829Y-17941526D01*
X6105829Y-17791526D02*
X6405829Y-17791526D01*
X6648288Y-9825757D02*
X6648288Y-10125757D01*
X6498288Y-9975757D02*
X6798288Y-9975757D01*
X6683718Y-14070073D02*
X6683718Y-14370073D01*
X6533718Y-14220073D02*
X6833718Y-14220073D01*
X6810532Y-15827176D02*
X6810532Y-16127176D01*
X6660532Y-15977176D02*
X6960532Y-15977176D01*
X7238420Y-12255723D02*
X7238420Y-12555723D01*
X7088420Y-12405723D02*
X7388420Y-12405723D01*
X7365234Y-14012827D02*
X7365234Y-14312827D01*
X7215234Y-14162827D02*
X7515234Y-14162827D01*
X7400665Y-18257143D02*
X7400665Y-18557143D01*
X7250665Y-18407143D02*
X7550665Y-18407143D01*
X7793123Y-10441374D02*
X7793123Y-10741374D01*
X7643123Y-10591374D02*
X7943123Y-10591374D01*
X7919936Y-12198478D02*
X7919936Y-12498478D01*
X7769936Y-12348478D02*
X8069936Y-12348478D01*
X7955367Y-16442793D02*
X7955367Y-16742793D01*
X7805367Y-16592793D02*
X8105367Y-16592793D01*
X8082181Y-18199897D02*
X8082181Y-18499897D01*
X7932181Y-18349897D02*
X8232181Y-18349897D01*
X8474639Y-10384129D02*
X8474639Y-10684129D01*
X8324638Y-10534129D02*
X8624639Y-10534129D01*
X8510069Y-14628444D02*
X8510069Y-14928444D01*
X8360069Y-14778444D02*
X8660069Y-14778444D01*
X8636883Y-16385548D02*
X8636883Y-16685548D01*
X8486883Y-16535548D02*
X8786883Y-16535548D01*
X9064771Y-12814095D02*
X9064771Y-13114095D01*
X8914771Y-12964095D02*
X9214771Y-12964095D01*
X9191585Y-14571199D02*
X9191585Y-14871199D01*
X9041585Y-14721199D02*
X9341585Y-14721199D01*
X9227015Y-18815514D02*
X9227015Y-19115514D01*
X9077015Y-18965514D02*
X9377015Y-18965514D01*
X9619473Y-10999746D02*
X9619473Y-11299746D01*
X9469473Y-11149746D02*
X9769473Y-11149746D01*
X9746287Y-12756850D02*
X9746287Y-13056850D01*
X9596287Y-12906850D02*
X9896287Y-12906850D01*
X9781718Y-17001165D02*
X9781718Y-17301165D01*
X9631718Y-17151165D02*
X9931718Y-17151165D01*
X9908531Y-18758269D02*
X9908531Y-19058269D01*
X9758531Y-18908269D02*
X10058531Y-18908269D01*
X10300989Y-10942501D02*
X10300989Y-11242500D01*
X10150989Y-11092501D02*
X10450989Y-11092501D01*
X10336420Y-15186815D02*
X10336420Y-15486815D01*
X10186420Y-15336815D02*
X10486420Y-15336815D01*
X10463234Y-16943920D02*
X10463234Y-17243920D01*
X10313234Y-17093920D02*
X10613234Y-17093920D01*
X10891122Y-13372466D02*
X10891122Y-13672466D01*
X10741122Y-13522466D02*
X11041122Y-13522466D01*
X11017936Y-15129570D02*
X11017936Y-15429570D01*
X10867936Y-15279570D02*
X11167936Y-15279570D01*
X11053366Y-19373886D02*
X11053366Y-19673886D01*
X10903366Y-19523886D02*
X11203366Y-19523886D01*
X11445824Y-11558117D02*
X11445824Y-11858117D01*
X11295824Y-11708117D02*
X11595824Y-11708117D01*
X11572638Y-13315221D02*
X11572638Y-13615221D01*
X11422638Y-13465221D02*
X11722638Y-13465221D01*
X11608068Y-17559536D02*
X11608068Y-17859536D01*
X11458068Y-17709536D02*
X11758068Y-17709536D01*
X11734882Y-19316640D02*
X11734882Y-19616640D01*
X11584882Y-19466640D02*
X11884882Y-19466640D01*
X12127340Y-11500872D02*
X12127340Y-11800872D01*
X11977340Y-11650872D02*
X12277340Y-11650872D01*
X12162770Y-15745187D02*
X12162770Y-16045187D01*
X12012770Y-15895187D02*
X12312770Y-15895187D01*
X12289584Y-17502291D02*
X12289584Y-17802291D01*
X12139584Y-17652291D02*
X12439584Y-17652291D01*
X12717473Y-13930838D02*
X12717473Y-14230838D01*
X12567473Y-14080838D02*
X12867473Y-14080838D01*
X12844286Y-15687942D02*
X12844286Y-15987942D01*
X12694286Y-15837942D02*
X12994286Y-15837942D01*
X12870345Y-19929392D02*
X12870345Y-20229392D01*
X12720345Y-20079392D02*
X13020345Y-20079392D01*
X13272175Y-12116489D02*
X13272175Y-12416489D01*
X13122175Y-12266489D02*
X13422175Y-12266489D01*
X13398989Y-13873593D02*
X13398989Y-14173593D01*
X13248989Y-14023593D02*
X13548989Y-14023593D01*
X13425048Y-18115043D02*
X13425048Y-18415043D01*
X13275048Y-18265043D02*
X13575048Y-18265043D01*
X13551861Y-19872146D02*
X13551861Y-20172146D01*
X13401861Y-20022146D02*
X13701861Y-20022146D01*
X13953691Y-12059243D02*
X13953691Y-12359243D01*
X13803691Y-12209243D02*
X14103691Y-12209243D01*
X14106563Y-18057797D02*
X14106563Y-18357797D01*
X13956563Y-18207797D02*
X14256563Y-18207797D01*
X17905200Y-18744000D02*
X17905200Y-19044000D01*
X17755200Y-18894000D02*
X18055200Y-18894000D01*
X17905200Y-20641250D02*
X17905200Y-20941250D01*
X17755200Y-20791250D02*
X18055200Y-20791250D01*
X18540200Y-18490000D02*
X18540200Y-18790000D01*
X18390200Y-18640000D02*
X18690200Y-18640000D01*
X18540200Y-20387250D02*
X18540200Y-20687250D01*
X18390200Y-20537250D02*
X18690200Y-20537250D01*
X19815000Y-16846750D02*
X19815000Y-17146750D01*
X19665000Y-16996750D02*
X19965000Y-16996750D01*
X19815000Y-18744000D02*
X19815000Y-19044000D01*
X19665000Y-18894000D02*
X19965000Y-18894000D01*
X19815000Y-20641250D02*
X19815000Y-20941250D01*
X19665000Y-20791250D02*
X19965000Y-20791250D01*
X20450000Y-16592750D02*
X20450000Y-16892750D01*
X20300000Y-16742750D02*
X20600000Y-16742750D01*
X20450000Y-18490000D02*
X20450000Y-18790000D01*
X20300000Y-18640000D02*
X20600000Y-18640000D01*
X20450000Y-20387250D02*
X20450000Y-20687250D01*
X20300000Y-20537250D02*
X20600000Y-20537250D01*
X21724800Y-16846750D02*
X21724800Y-17146750D01*
X21574800Y-16996750D02*
X21874800Y-16996750D01*
X21724800Y-18744000D02*
X21724800Y-19044000D01*
X21574800Y-18894000D02*
X21874800Y-18894000D01*
X21724800Y-20641250D02*
X21724800Y-20941250D01*
X21574800Y-20791250D02*
X21874800Y-20791250D01*
X22359800Y-16592750D02*
X22359800Y-16892750D01*
X22209800Y-16742750D02*
X22509800Y-16742750D01*
X22359800Y-18490000D02*
X22359800Y-18790000D01*
X22209800Y-18640000D02*
X22509800Y-18640000D01*
X22359800Y-20387250D02*
X22359800Y-20687250D01*
X22209800Y-20537250D02*
X22509800Y-20537250D01*
X23634600Y-16846750D02*
X23634600Y-17146750D01*
X23484600Y-16996750D02*
X23784600Y-16996750D01*
X23634600Y-18744000D02*
X23634600Y-19044000D01*
X23484600Y-18894000D02*
X23784600Y-18894000D01*
X23634600Y-20641250D02*
X23634600Y-20941250D01*
X23484600Y-20791250D02*
X23784600Y-20791250D01*
X24269600Y-16592750D02*
X24269600Y-16892750D01*
X24119600Y-16742750D02*
X24419600Y-16742750D01*
X24269600Y-18490000D02*
X24269600Y-18790000D01*
X24119600Y-18640000D02*
X24419600Y-18640000D01*
X24269600Y-20387250D02*
X24269600Y-20687250D01*
X24119600Y-20537250D02*
X24419600Y-20537250D01*
X27830550Y-18337830D02*
X27830550Y-18637830D01*
X27680550Y-18487830D02*
X27980550Y-18487830D01*
X27992794Y-12336411D02*
X27992794Y-12636411D01*
X27842794Y-12486411D02*
X28142794Y-12486411D01*
X28363541Y-17909272D02*
X28363541Y-18209272D01*
X28213541Y-18059272D02*
X28513541Y-18059272D01*
X28385252Y-20152179D02*
X28385252Y-20452179D01*
X28235252Y-20302179D02*
X28535252Y-20302179D01*
X28525785Y-11907853D02*
X28525785Y-12207853D01*
X28375785Y-12057853D02*
X28675785Y-12057853D01*
X28547496Y-14150760D02*
X28547496Y-14450760D01*
X28397496Y-14300760D02*
X28697496Y-14300760D01*
X28918243Y-19723622D02*
X28918243Y-20023622D01*
X28768243Y-19873622D02*
X29068243Y-19873622D01*
X29080487Y-13722202D02*
X29080487Y-14022202D01*
X28930487Y-13872202D02*
X29230487Y-13872202D01*
X29102199Y-15965109D02*
X29102199Y-16265109D01*
X28952199Y-16115109D02*
X29252199Y-16115109D01*
X29635190Y-15536552D02*
X29635190Y-15836552D01*
X29485190Y-15686552D02*
X29785190Y-15686552D01*
X29656901Y-17779458D02*
X29656901Y-18079458D01*
X29506901Y-17929458D02*
X29806901Y-17929458D01*
X29817271Y-11778612D02*
X29817271Y-12078612D01*
X29667271Y-11928612D02*
X29967271Y-11928612D01*
X30189892Y-17350901D02*
X30189892Y-17650901D01*
X30039892Y-17500901D02*
X30339892Y-17500901D01*
X30211603Y-19593807D02*
X30211603Y-19893807D01*
X30061603Y-19743807D02*
X30361603Y-19743807D01*
X30350262Y-11350055D02*
X30350262Y-11650055D01*
X30200262Y-11500055D02*
X30500262Y-11500055D01*
X30373847Y-13592388D02*
X30373847Y-13892388D01*
X30223847Y-13742388D02*
X30523847Y-13742388D01*
X30744594Y-19165250D02*
X30744594Y-19465250D01*
X30594594Y-19315250D02*
X30894594Y-19315250D01*
X30906838Y-13163831D02*
X30906838Y-13463831D01*
X30756838Y-13313831D02*
X31056838Y-13313831D01*
X30928549Y-15406738D02*
X30928549Y-15706738D01*
X30778549Y-15556738D02*
X31078549Y-15556738D01*
X31461541Y-14978180D02*
X31461541Y-15278180D01*
X31311541Y-15128180D02*
X31611541Y-15128180D01*
X31483252Y-17221087D02*
X31483252Y-17521087D01*
X31333252Y-17371087D02*
X31633252Y-17371087D01*
X31641747Y-11220814D02*
X31641747Y-11520814D01*
X31491747Y-11370814D02*
X31791747Y-11370814D01*
X32016243Y-16792529D02*
X32016243Y-17092529D01*
X31866243Y-16942529D02*
X32166243Y-16942529D01*
X32037954Y-19035436D02*
X32037954Y-19335436D01*
X31887954Y-19185436D02*
X32187954Y-19185436D01*
X32174738Y-10792256D02*
X32174738Y-11092256D01*
X32024738Y-10942256D02*
X32324738Y-10942256D01*
X32200198Y-13034017D02*
X32200198Y-13334017D01*
X32050198Y-13184017D02*
X32350198Y-13184017D01*
X32570945Y-18606879D02*
X32570945Y-18906879D01*
X32420945Y-18756879D02*
X32720945Y-18756879D01*
X32733189Y-12605459D02*
X32733189Y-12905459D01*
X32583189Y-12755459D02*
X32883189Y-12755459D01*
X32754900Y-14848366D02*
X32754900Y-15148366D01*
X32604900Y-14998366D02*
X32904900Y-14998366D01*
X33287891Y-14419809D02*
X33287891Y-14719809D01*
X33137891Y-14569809D02*
X33437891Y-14569809D01*
X33309602Y-16662715D02*
X33309602Y-16962715D01*
X33159602Y-16812715D02*
X33459602Y-16812715D01*
X33466223Y-10663015D02*
X33466223Y-10963015D01*
X33316223Y-10813015D02*
X33616223Y-10813015D01*
X33842593Y-16234158D02*
X33842593Y-16534158D01*
X33692593Y-16384158D02*
X33992593Y-16384158D01*
X33864305Y-18477065D02*
X33864305Y-18777065D01*
X33714305Y-18627065D02*
X34014305Y-18627065D01*
X33999215Y-10234458D02*
X33999215Y-10534458D01*
X33849215Y-10384458D02*
X34149215Y-10384458D01*
X34026549Y-12475645D02*
X34026549Y-12775645D01*
X33876549Y-12625645D02*
X34176549Y-12625645D01*
X34397296Y-18048507D02*
X34397296Y-18348507D01*
X34247296Y-18198507D02*
X34547296Y-18198507D01*
X34559540Y-12047088D02*
X34559540Y-12347088D01*
X34409540Y-12197088D02*
X34709540Y-12197088D01*
X34581251Y-14289994D02*
X34581251Y-14589994D01*
X34431251Y-14439994D02*
X34731251Y-14439994D01*
X35114242Y-13861437D02*
X35114242Y-14161437D01*
X34964242Y-14011437D02*
X35264242Y-14011437D01*
X35135953Y-16104344D02*
X35135953Y-16404344D01*
X34985953Y-16254344D02*
X35285953Y-16254344D01*
X35290700Y-10105217D02*
X35290700Y-10405217D01*
X35140700Y-10255217D02*
X35440700Y-10255217D01*
X35668944Y-15675786D02*
X35668944Y-15975786D01*
X35518944Y-15825786D02*
X35818944Y-15825786D01*
X35690656Y-17918693D02*
X35690656Y-18218693D01*
X35540656Y-18068693D02*
X35840656Y-18068693D01*
X35823691Y-9676659D02*
X35823691Y-9976659D01*
X35673691Y-9826659D02*
X35973691Y-9826659D01*
X35852900Y-11917274D02*
X35852900Y-12217274D01*
X35702900Y-12067274D02*
X36002900Y-12067274D01*
X36223647Y-17490136D02*
X36223647Y-17790136D01*
X36073647Y-17640136D02*
X36373647Y-17640136D01*
X36385891Y-11488716D02*
X36385891Y-11788716D01*
X36235891Y-11638716D02*
X36535891Y-11638716D01*
X36407602Y-13731623D02*
X36407602Y-14031623D01*
X36257602Y-13881623D02*
X36557602Y-13881623D01*
X36940593Y-13303066D02*
X36940593Y-13603066D01*
X36790593Y-13453066D02*
X37090593Y-13453066D01*
X36962304Y-15545972D02*
X36962304Y-15845972D01*
X36812304Y-15695972D02*
X37112304Y-15695972D01*
X37115177Y-9547419D02*
X37115177Y-9847419D01*
X36965177Y-9697419D02*
X37265177Y-9697419D01*
X37495295Y-15117415D02*
X37495295Y-15417415D01*
X37345295Y-15267415D02*
X37645295Y-15267415D01*
X37517006Y-17360321D02*
X37517006Y-17660321D01*
X37367006Y-17510321D02*
X37667006Y-17510321D01*
X37648168Y-9118861D02*
X37648168Y-9418861D01*
X37498168Y-9268861D02*
X37798168Y-9268861D01*
X37669879Y-11361768D02*
X37669879Y-11661768D01*
X37519879Y-11511768D02*
X37819879Y-11511768D01*
X38049998Y-16931764D02*
X38049998Y-17231764D01*
X37899998Y-17081764D02*
X38199998Y-17081764D01*
X38202870Y-10933210D02*
X38202870Y-11233210D01*
X38052870Y-11083210D02*
X38352870Y-11083210D01*
X38224581Y-13176117D02*
X38224581Y-13476117D01*
X38074581Y-13326117D02*
X38374581Y-13326117D01*
X38757572Y-12747559D02*
X38757572Y-13047559D01*
X38607572Y-12897559D02*
X38907572Y-12897559D01*
X38779283Y-14990466D02*
X38779283Y-15290466D01*
X38629283Y-15140466D02*
X38929283Y-15140466D01*
X39312274Y-14561909D02*
X39312274Y-14861909D01*
X39162274Y-14711909D02*
X39462274Y-14711909D01*
X39333985Y-16804815D02*
X39333985Y-17104815D01*
X39183985Y-16954815D02*
X39483985Y-16954815D01*
X39866976Y-16376258D02*
X39866976Y-16676258D01*
X39716976Y-16526258D02*
X40016976Y-16526258D01*
D15*
X2352693Y-17227314D02*
X2352693Y-16945332D01*
X2070710Y-16945332D01*
X2070710Y-17227314D01*
X2352693Y-17227314D01*
X2907395Y-15412965D02*
X2907395Y-15130982D01*
X2625413Y-15130982D01*
X2625413Y-15412965D01*
X2907395Y-15412965D01*
X3462097Y-13598616D02*
X3462097Y-13316633D01*
X3180115Y-13316633D01*
X3180115Y-13598616D01*
X3462097Y-13598616D01*
X4016800Y-11784267D02*
X4016800Y-11502284D01*
X3734817Y-11502284D01*
X3734817Y-11784267D01*
X4016800Y-11784267D01*
X4179044Y-17785686D02*
X4179044Y-17503703D01*
X3897061Y-17503703D01*
X3897061Y-17785686D01*
X4179044Y-17785686D01*
X4571502Y-9969918D02*
X4571502Y-9687935D01*
X4289519Y-9687935D01*
X4289519Y-9969918D01*
X4571502Y-9969918D01*
X4733746Y-15971337D02*
X4733746Y-15689354D01*
X4451763Y-15689354D01*
X4451763Y-15971337D01*
X4733746Y-15971337D01*
X5288448Y-14156988D02*
X5288448Y-13875005D01*
X5006466Y-13875005D01*
X5006466Y-14156988D01*
X5288448Y-14156988D01*
X5843151Y-12342638D02*
X5843151Y-12060656D01*
X5561168Y-12060656D01*
X5561168Y-12342638D01*
X5843151Y-12342638D01*
X6005395Y-18344058D02*
X6005395Y-18062075D01*
X5723412Y-18062075D01*
X5723412Y-18344058D01*
X6005395Y-18344058D01*
X6397853Y-10528289D02*
X6397853Y-10246306D01*
X6115870Y-10246306D01*
X6115870Y-10528289D01*
X6397853Y-10528289D01*
X6560097Y-16529708D02*
X6560097Y-16247725D01*
X6278114Y-16247725D01*
X6278114Y-16529708D01*
X6560097Y-16529708D01*
X7114799Y-14715359D02*
X7114799Y-14433376D01*
X6832817Y-14433376D01*
X6832817Y-14715359D01*
X7114799Y-14715359D01*
X7669502Y-12901010D02*
X7669502Y-12619027D01*
X7387519Y-12619027D01*
X7387519Y-12901010D01*
X7669502Y-12901010D01*
X7831746Y-18902429D02*
X7831746Y-18620446D01*
X7549763Y-18620446D01*
X7549763Y-18902429D01*
X7831746Y-18902429D01*
X8224204Y-11086661D02*
X8224204Y-10804678D01*
X7942221Y-10804678D01*
X7942221Y-11086661D01*
X8224204Y-11086661D01*
X8386448Y-17088080D02*
X8386448Y-16806097D01*
X8104465Y-16806097D01*
X8104465Y-17088080D01*
X8386448Y-17088080D01*
X8941150Y-15273730D02*
X8941150Y-14991748D01*
X8659167Y-14991748D01*
X8659167Y-15273730D01*
X8941150Y-15273730D01*
X9495852Y-13459381D02*
X9495852Y-13177399D01*
X9213870Y-13177399D01*
X9213870Y-13459381D01*
X9495852Y-13459381D01*
X9658097Y-19460801D02*
X9658097Y-19178818D01*
X9376114Y-19178818D01*
X9376114Y-19460801D01*
X9658097Y-19460801D01*
X10050555Y-11645032D02*
X10050555Y-11363049D01*
X9768572Y-11363049D01*
X9768572Y-11645032D01*
X10050555Y-11645032D01*
X10212799Y-17646451D02*
X10212799Y-17364469D01*
X9930816Y-17364469D01*
X9930816Y-17646451D01*
X10212799Y-17646451D01*
X10767501Y-15832102D02*
X10767501Y-15550119D01*
X10485518Y-15550119D01*
X10485518Y-15832102D01*
X10767501Y-15832102D01*
X11322203Y-14017753D02*
X11322203Y-13735770D01*
X11040220Y-13735770D01*
X11040220Y-14017753D01*
X11322203Y-14017753D01*
X11484447Y-20019172D02*
X11484447Y-19737189D01*
X11202464Y-19737189D01*
X11202464Y-20019172D01*
X11484447Y-20019172D01*
X11876905Y-12203404D02*
X11876905Y-11921421D01*
X11594922Y-11921421D01*
X11594922Y-12203404D01*
X11876905Y-12203404D01*
X12039149Y-18204823D02*
X12039149Y-17922840D01*
X11757167Y-17922840D01*
X11757167Y-18204823D01*
X12039149Y-18204823D01*
X12593852Y-16390473D02*
X12593852Y-16108491D01*
X12311869Y-16108491D01*
X12311869Y-16390473D01*
X12593852Y-16390473D01*
X13148554Y-14576124D02*
X13148554Y-14294142D01*
X12866571Y-14294142D01*
X12866571Y-14576124D01*
X13148554Y-14576124D01*
X13301426Y-20574678D02*
X13301426Y-20292695D01*
X13019443Y-20292695D01*
X13019443Y-20574678D01*
X13301426Y-20574678D01*
X13703256Y-12761775D02*
X13703256Y-12479792D01*
X13421273Y-12479792D01*
X13421273Y-12761775D01*
X13703256Y-12761775D01*
X13856129Y-18760329D02*
X13856129Y-18478346D01*
X13574146Y-18478346D01*
X13574146Y-18760329D01*
X13856129Y-18760329D01*
X18427191Y-19288991D02*
X18427191Y-19007009D01*
X18145209Y-19007009D01*
X18145209Y-19288991D01*
X18427191Y-19288991D01*
X18427191Y-21186241D02*
X18427191Y-20904259D01*
X18145209Y-20904259D01*
X18145209Y-21186241D01*
X18427191Y-21186241D01*
X20336991Y-17391741D02*
X20336991Y-17109759D01*
X20055009Y-17109759D01*
X20055009Y-17391741D01*
X20336991Y-17391741D01*
X20336991Y-19288991D02*
X20336991Y-19007009D01*
X20055009Y-19007009D01*
X20055009Y-19288991D01*
X20336991Y-19288991D01*
X20336991Y-21186241D02*
X20336991Y-20904259D01*
X20055009Y-20904259D01*
X20055009Y-21186241D01*
X20336991Y-21186241D01*
X22246791Y-17391741D02*
X22246791Y-17109759D01*
X21964809Y-17109759D01*
X21964809Y-17391741D01*
X22246791Y-17391741D01*
X22246791Y-19288991D02*
X22246791Y-19007009D01*
X21964809Y-19007009D01*
X21964809Y-19288991D01*
X22246791Y-19288991D01*
X22246791Y-21186241D02*
X22246791Y-20904259D01*
X21964809Y-20904259D01*
X21964809Y-21186241D01*
X22246791Y-21186241D01*
X24156591Y-17391741D02*
X24156591Y-17109759D01*
X23874609Y-17109759D01*
X23874609Y-17391741D01*
X24156591Y-17391741D01*
X24156591Y-19288991D02*
X24156591Y-19007009D01*
X23874609Y-19007009D01*
X23874609Y-19288991D01*
X24156591Y-19288991D01*
X24156591Y-21186241D02*
X24156591Y-20904259D01*
X23874609Y-20904259D01*
X23874609Y-21186241D01*
X24156591Y-21186241D01*
X28410156Y-18760329D02*
X28410156Y-18478346D01*
X28128173Y-18478346D01*
X28128173Y-18760329D01*
X28410156Y-18760329D01*
X28572400Y-12758910D02*
X28572400Y-12476927D01*
X28290417Y-12476927D01*
X28290417Y-12758910D01*
X28572400Y-12758910D01*
X28964858Y-20574678D02*
X28964858Y-20292695D01*
X28682875Y-20292695D01*
X28682875Y-20574678D01*
X28964858Y-20574678D01*
X29127102Y-14573259D02*
X29127102Y-14291276D01*
X28845119Y-14291276D01*
X28845119Y-14573259D01*
X29127102Y-14573259D01*
X29681805Y-16387608D02*
X29681805Y-16105625D01*
X29399822Y-16105625D01*
X29399822Y-16387608D01*
X29681805Y-16387608D01*
X30236507Y-18201957D02*
X30236507Y-17919975D01*
X29954524Y-17919975D01*
X29954524Y-18201957D01*
X30236507Y-18201957D01*
X30396877Y-12201111D02*
X30396877Y-11919128D01*
X30114894Y-11919128D01*
X30114894Y-12201111D01*
X30396877Y-12201111D01*
X30791209Y-20016307D02*
X30791209Y-19734324D01*
X30509226Y-19734324D01*
X30509226Y-20016307D01*
X30791209Y-20016307D01*
X30953453Y-14014888D02*
X30953453Y-13732905D01*
X30671470Y-13732905D01*
X30671470Y-14014888D01*
X30953453Y-14014888D01*
X31508155Y-15829237D02*
X31508155Y-15547254D01*
X31226173Y-15547254D01*
X31226173Y-15829237D01*
X31508155Y-15829237D01*
X32062857Y-17643586D02*
X32062857Y-17361603D01*
X31780875Y-17361603D01*
X31780875Y-17643586D01*
X32062857Y-17643586D01*
X32221353Y-11643313D02*
X32221353Y-11361330D01*
X31939370Y-11361330D01*
X31939370Y-11643313D01*
X32221353Y-11643313D01*
X32617560Y-19457935D02*
X32617560Y-19175952D01*
X32335577Y-19175952D01*
X32335577Y-19457935D01*
X32617560Y-19457935D01*
X32779804Y-13456516D02*
X32779804Y-13174533D01*
X32497821Y-13174533D01*
X32497821Y-13456516D01*
X32779804Y-13456516D01*
X33334506Y-15270865D02*
X33334506Y-14988882D01*
X33052523Y-14988882D01*
X33052523Y-15270865D01*
X33334506Y-15270865D01*
X33889208Y-17085215D02*
X33889208Y-16803232D01*
X33607225Y-16803232D01*
X33607225Y-17085215D01*
X33889208Y-17085215D01*
X34045829Y-11085515D02*
X34045829Y-10803532D01*
X33763847Y-10803532D01*
X33763847Y-11085515D01*
X34045829Y-11085515D01*
X34443911Y-18899564D02*
X34443911Y-18617581D01*
X34161928Y-18617581D01*
X34161928Y-18899564D01*
X34443911Y-18899564D01*
X34606155Y-12898145D02*
X34606155Y-12616162D01*
X34324172Y-12616162D01*
X34324172Y-12898145D01*
X34606155Y-12898145D01*
X35160857Y-14712494D02*
X35160857Y-14430511D01*
X34878874Y-14430511D01*
X34878874Y-14712494D01*
X35160857Y-14712494D01*
X35715559Y-16526843D02*
X35715559Y-16244860D01*
X35433576Y-16244860D01*
X35433576Y-16526843D01*
X35715559Y-16526843D01*
X35870306Y-10527716D02*
X35870306Y-10245733D01*
X35588323Y-10245733D01*
X35588323Y-10527716D01*
X35870306Y-10527716D01*
X36270262Y-18341192D02*
X36270262Y-18059209D01*
X35988279Y-18059209D01*
X35988279Y-18341192D01*
X36270262Y-18341192D01*
X36432506Y-12339773D02*
X36432506Y-12057790D01*
X36150523Y-12057790D01*
X36150523Y-12339773D01*
X36432506Y-12339773D01*
X36987208Y-14154122D02*
X36987208Y-13872139D01*
X36705225Y-13872139D01*
X36705225Y-14154122D01*
X36987208Y-14154122D01*
X37541910Y-15968471D02*
X37541910Y-15686489D01*
X37259927Y-15686489D01*
X37259927Y-15968471D01*
X37541910Y-15968471D01*
X37694782Y-9969918D02*
X37694782Y-9687935D01*
X37412800Y-9687935D01*
X37412800Y-9969918D01*
X37694782Y-9969918D01*
X38096612Y-17782821D02*
X38096612Y-17500838D01*
X37814630Y-17500838D01*
X37814630Y-17782821D01*
X38096612Y-17782821D01*
X38249485Y-11784267D02*
X38249485Y-11502284D01*
X37967502Y-11502284D01*
X37967502Y-11784267D01*
X38249485Y-11784267D01*
X38804187Y-13598616D02*
X38804187Y-13316633D01*
X38522204Y-13316633D01*
X38522204Y-13598616D01*
X38804187Y-13598616D01*
X39358889Y-15412965D02*
X39358889Y-15130982D01*
X39076906Y-15130982D01*
X39076906Y-15412965D01*
X39358889Y-15412965D01*
X39913591Y-17227315D02*
X39913591Y-16945332D01*
X39631608Y-16945332D01*
X39631608Y-17227315D01*
X39913591Y-17227315D01*
D10*
X1411577Y-22438784D02*
X1411577Y-22238784D01*
X1411577Y-22238784D02*
X1459196Y-22238784D01*
X1459196Y-22238784D02*
X1487768Y-22248308D01*
X1487768Y-22248308D02*
X1506816Y-22267355D01*
X1506816Y-22267355D02*
X1516339Y-22286403D01*
X1516339Y-22286403D02*
X1525863Y-22324498D01*
X1525863Y-22324498D02*
X1525863Y-22353070D01*
X1525863Y-22353070D02*
X1516339Y-22391165D01*
X1516339Y-22391165D02*
X1506816Y-22410212D01*
X1506816Y-22410212D02*
X1487768Y-22429260D01*
X1487768Y-22429260D02*
X1459196Y-22438784D01*
X1459196Y-22438784D02*
X1411577Y-22438784D01*
X1611577Y-22438784D02*
X1611577Y-22305450D01*
X1611577Y-22343546D02*
X1621101Y-22324498D01*
X1621101Y-22324498D02*
X1630625Y-22314974D01*
X1630625Y-22314974D02*
X1649673Y-22305450D01*
X1649673Y-22305450D02*
X1668720Y-22305450D01*
X1735387Y-22438784D02*
X1735387Y-22305450D01*
X1735387Y-22238784D02*
X1725863Y-22248308D01*
X1725863Y-22248308D02*
X1735387Y-22257831D01*
X1735387Y-22257831D02*
X1744911Y-22248308D01*
X1744911Y-22248308D02*
X1735387Y-22238784D01*
X1735387Y-22238784D02*
X1735387Y-22257831D01*
X1859196Y-22438784D02*
X1840149Y-22429260D01*
X1840149Y-22429260D02*
X1830625Y-22410212D01*
X1830625Y-22410212D02*
X1830625Y-22238784D01*
X1963958Y-22438784D02*
X1944911Y-22429260D01*
X1944911Y-22429260D02*
X1935387Y-22410212D01*
X1935387Y-22410212D02*
X1935387Y-22238784D01*
X2192530Y-22438784D02*
X2192530Y-22238784D01*
X2192530Y-22238784D02*
X2259197Y-22381641D01*
X2259197Y-22381641D02*
X2325863Y-22238784D01*
X2325863Y-22238784D02*
X2325863Y-22438784D01*
X2506816Y-22438784D02*
X2506816Y-22334022D01*
X2506816Y-22334022D02*
X2497292Y-22314974D01*
X2497292Y-22314974D02*
X2478244Y-22305450D01*
X2478244Y-22305450D02*
X2440149Y-22305450D01*
X2440149Y-22305450D02*
X2421101Y-22314974D01*
X2506816Y-22429260D02*
X2487768Y-22438784D01*
X2487768Y-22438784D02*
X2440149Y-22438784D01*
X2440149Y-22438784D02*
X2421101Y-22429260D01*
X2421101Y-22429260D02*
X2411578Y-22410212D01*
X2411578Y-22410212D02*
X2411578Y-22391165D01*
X2411578Y-22391165D02*
X2421101Y-22372117D01*
X2421101Y-22372117D02*
X2440149Y-22362593D01*
X2440149Y-22362593D02*
X2487768Y-22362593D01*
X2487768Y-22362593D02*
X2506816Y-22353070D01*
X2602054Y-22305450D02*
X2602054Y-22505450D01*
X2602054Y-22314974D02*
X2621101Y-22305450D01*
X2621101Y-22305450D02*
X2659197Y-22305450D01*
X2659197Y-22305450D02*
X2678244Y-22314974D01*
X2678244Y-22314974D02*
X2687768Y-22324498D01*
X2687768Y-22324498D02*
X2697292Y-22343546D01*
X2697292Y-22343546D02*
X2697292Y-22400688D01*
X2697292Y-22400688D02*
X2687768Y-22419736D01*
X2687768Y-22419736D02*
X2678244Y-22429260D01*
X2678244Y-22429260D02*
X2659197Y-22438784D01*
X2659197Y-22438784D02*
X2621101Y-22438784D01*
X2621101Y-22438784D02*
X2602054Y-22429260D01*
X2783006Y-22419736D02*
X2792530Y-22429260D01*
X2792530Y-22429260D02*
X2783006Y-22438784D01*
X2783006Y-22438784D02*
X2773482Y-22429260D01*
X2773482Y-22429260D02*
X2783006Y-22419736D01*
X2783006Y-22419736D02*
X2783006Y-22438784D01*
X2783006Y-22314974D02*
X2792530Y-22324498D01*
X2792530Y-22324498D02*
X2783006Y-22334022D01*
X2783006Y-22334022D02*
X2773482Y-22324498D01*
X2773482Y-22324498D02*
X2783006Y-22314974D01*
X2783006Y-22314974D02*
X2783006Y-22334022D01*
D11*
X1000801Y-22692300D02*
X1150801Y-22842300D01*
X1150801Y-22692300D02*
X1000801Y-22842300D01*
D10*
X1516339Y-22858784D02*
X1402054Y-22858784D01*
X1459196Y-22858784D02*
X1459196Y-22658784D01*
X1459196Y-22658784D02*
X1440149Y-22687355D01*
X1440149Y-22687355D02*
X1421101Y-22706403D01*
X1421101Y-22706403D02*
X1402054Y-22715927D01*
X1602054Y-22839736D02*
X1611577Y-22849260D01*
X1611577Y-22849260D02*
X1602054Y-22858784D01*
X1602054Y-22858784D02*
X1592530Y-22849260D01*
X1592530Y-22849260D02*
X1602054Y-22839736D01*
X1602054Y-22839736D02*
X1602054Y-22858784D01*
X1792530Y-22658784D02*
X1697292Y-22658784D01*
X1697292Y-22658784D02*
X1687768Y-22754022D01*
X1687768Y-22754022D02*
X1697292Y-22744498D01*
X1697292Y-22744498D02*
X1716339Y-22734974D01*
X1716339Y-22734974D02*
X1763958Y-22734974D01*
X1763958Y-22734974D02*
X1783006Y-22744498D01*
X1783006Y-22744498D02*
X1792530Y-22754022D01*
X1792530Y-22754022D02*
X1802054Y-22773069D01*
X1802054Y-22773069D02*
X1802054Y-22820688D01*
X1802054Y-22820688D02*
X1792530Y-22839736D01*
X1792530Y-22839736D02*
X1783006Y-22849260D01*
X1783006Y-22849260D02*
X1763958Y-22858784D01*
X1763958Y-22858784D02*
X1716339Y-22858784D01*
X1716339Y-22858784D02*
X1697292Y-22849260D01*
X1697292Y-22849260D02*
X1687768Y-22839736D01*
X1925863Y-22658784D02*
X1944911Y-22658784D01*
X1944911Y-22658784D02*
X1963958Y-22668308D01*
X1963958Y-22668308D02*
X1973482Y-22677831D01*
X1973482Y-22677831D02*
X1983006Y-22696879D01*
X1983006Y-22696879D02*
X1992530Y-22734974D01*
X1992530Y-22734974D02*
X1992530Y-22782593D01*
X1992530Y-22782593D02*
X1983006Y-22820688D01*
X1983006Y-22820688D02*
X1973482Y-22839736D01*
X1973482Y-22839736D02*
X1963958Y-22849260D01*
X1963958Y-22849260D02*
X1944911Y-22858784D01*
X1944911Y-22858784D02*
X1925863Y-22858784D01*
X1925863Y-22858784D02*
X1906816Y-22849260D01*
X1906816Y-22849260D02*
X1897292Y-22839736D01*
X1897292Y-22839736D02*
X1887768Y-22820688D01*
X1887768Y-22820688D02*
X1878244Y-22782593D01*
X1878244Y-22782593D02*
X1878244Y-22734974D01*
X1878244Y-22734974D02*
X1887768Y-22696879D01*
X1887768Y-22696879D02*
X1897292Y-22677831D01*
X1897292Y-22677831D02*
X1906816Y-22668308D01*
X1906816Y-22668308D02*
X1925863Y-22658784D01*
X2116339Y-22658784D02*
X2135387Y-22658784D01*
X2135387Y-22658784D02*
X2154435Y-22668308D01*
X2154435Y-22668308D02*
X2163959Y-22677831D01*
X2163959Y-22677831D02*
X2173482Y-22696879D01*
X2173482Y-22696879D02*
X2183006Y-22734974D01*
X2183006Y-22734974D02*
X2183006Y-22782593D01*
X2183006Y-22782593D02*
X2173482Y-22820688D01*
X2173482Y-22820688D02*
X2163959Y-22839736D01*
X2163959Y-22839736D02*
X2154435Y-22849260D01*
X2154435Y-22849260D02*
X2135387Y-22858784D01*
X2135387Y-22858784D02*
X2116339Y-22858784D01*
X2116339Y-22858784D02*
X2097292Y-22849260D01*
X2097292Y-22849260D02*
X2087768Y-22839736D01*
X2087768Y-22839736D02*
X2078244Y-22820688D01*
X2078244Y-22820688D02*
X2068720Y-22782593D01*
X2068720Y-22782593D02*
X2068720Y-22734974D01*
X2068720Y-22734974D02*
X2078244Y-22696879D01*
X2078244Y-22696879D02*
X2087768Y-22677831D01*
X2087768Y-22677831D02*
X2097292Y-22668308D01*
X2097292Y-22668308D02*
X2116339Y-22658784D01*
X2268720Y-22858784D02*
X2268720Y-22725450D01*
X2268720Y-22744498D02*
X2278244Y-22734974D01*
X2278244Y-22734974D02*
X2297292Y-22725450D01*
X2297292Y-22725450D02*
X2325863Y-22725450D01*
X2325863Y-22725450D02*
X2344911Y-22734974D01*
X2344911Y-22734974D02*
X2354435Y-22754022D01*
X2354435Y-22754022D02*
X2354435Y-22858784D01*
X2354435Y-22754022D02*
X2363959Y-22734974D01*
X2363959Y-22734974D02*
X2383006Y-22725450D01*
X2383006Y-22725450D02*
X2411578Y-22725450D01*
X2411578Y-22725450D02*
X2430625Y-22734974D01*
X2430625Y-22734974D02*
X2440149Y-22754022D01*
X2440149Y-22754022D02*
X2440149Y-22858784D01*
X2535387Y-22858784D02*
X2535387Y-22725450D01*
X2535387Y-22744498D02*
X2544911Y-22734974D01*
X2544911Y-22734974D02*
X2563959Y-22725450D01*
X2563959Y-22725450D02*
X2592530Y-22725450D01*
X2592530Y-22725450D02*
X2611578Y-22734974D01*
X2611578Y-22734974D02*
X2621101Y-22754022D01*
X2621101Y-22754022D02*
X2621101Y-22858784D01*
X2621101Y-22754022D02*
X2630625Y-22734974D01*
X2630625Y-22734974D02*
X2649673Y-22725450D01*
X2649673Y-22725450D02*
X2678244Y-22725450D01*
X2678244Y-22725450D02*
X2697292Y-22734974D01*
X2697292Y-22734974D02*
X2706816Y-22754022D01*
X2706816Y-22754022D02*
X2706816Y-22858784D01*
X3097292Y-22649260D02*
X2925863Y-22906403D01*
X3354435Y-22658784D02*
X3373482Y-22658784D01*
X3373482Y-22658784D02*
X3392530Y-22668308D01*
X3392530Y-22668308D02*
X3402054Y-22677831D01*
X3402054Y-22677831D02*
X3411578Y-22696879D01*
X3411578Y-22696879D02*
X3421101Y-22734974D01*
X3421101Y-22734974D02*
X3421101Y-22782593D01*
X3421101Y-22782593D02*
X3411578Y-22820688D01*
X3411578Y-22820688D02*
X3402054Y-22839736D01*
X3402054Y-22839736D02*
X3392530Y-22849260D01*
X3392530Y-22849260D02*
X3373482Y-22858784D01*
X3373482Y-22858784D02*
X3354435Y-22858784D01*
X3354435Y-22858784D02*
X3335387Y-22849260D01*
X3335387Y-22849260D02*
X3325863Y-22839736D01*
X3325863Y-22839736D02*
X3316340Y-22820688D01*
X3316340Y-22820688D02*
X3306816Y-22782593D01*
X3306816Y-22782593D02*
X3306816Y-22734974D01*
X3306816Y-22734974D02*
X3316340Y-22696879D01*
X3316340Y-22696879D02*
X3325863Y-22677831D01*
X3325863Y-22677831D02*
X3335387Y-22668308D01*
X3335387Y-22668308D02*
X3354435Y-22658784D01*
X3506816Y-22839736D02*
X3516340Y-22849260D01*
X3516340Y-22849260D02*
X3506816Y-22858784D01*
X3506816Y-22858784D02*
X3497292Y-22849260D01*
X3497292Y-22849260D02*
X3506816Y-22839736D01*
X3506816Y-22839736D02*
X3506816Y-22858784D01*
X3640149Y-22658784D02*
X3659197Y-22658784D01*
X3659197Y-22658784D02*
X3678244Y-22668308D01*
X3678244Y-22668308D02*
X3687768Y-22677831D01*
X3687768Y-22677831D02*
X3697292Y-22696879D01*
X3697292Y-22696879D02*
X3706816Y-22734974D01*
X3706816Y-22734974D02*
X3706816Y-22782593D01*
X3706816Y-22782593D02*
X3697292Y-22820688D01*
X3697292Y-22820688D02*
X3687768Y-22839736D01*
X3687768Y-22839736D02*
X3678244Y-22849260D01*
X3678244Y-22849260D02*
X3659197Y-22858784D01*
X3659197Y-22858784D02*
X3640149Y-22858784D01*
X3640149Y-22858784D02*
X3621101Y-22849260D01*
X3621101Y-22849260D02*
X3611578Y-22839736D01*
X3611578Y-22839736D02*
X3602054Y-22820688D01*
X3602054Y-22820688D02*
X3592530Y-22782593D01*
X3592530Y-22782593D02*
X3592530Y-22734974D01*
X3592530Y-22734974D02*
X3602054Y-22696879D01*
X3602054Y-22696879D02*
X3611578Y-22677831D01*
X3611578Y-22677831D02*
X3621101Y-22668308D01*
X3621101Y-22668308D02*
X3640149Y-22658784D01*
X3887768Y-22658784D02*
X3792530Y-22658784D01*
X3792530Y-22658784D02*
X3783006Y-22754022D01*
X3783006Y-22754022D02*
X3792530Y-22744498D01*
X3792530Y-22744498D02*
X3811578Y-22734974D01*
X3811578Y-22734974D02*
X3859197Y-22734974D01*
X3859197Y-22734974D02*
X3878244Y-22744498D01*
X3878244Y-22744498D02*
X3887768Y-22754022D01*
X3887768Y-22754022D02*
X3897292Y-22773069D01*
X3897292Y-22773069D02*
X3897292Y-22820688D01*
X3897292Y-22820688D02*
X3887768Y-22839736D01*
X3887768Y-22839736D02*
X3878244Y-22849260D01*
X3878244Y-22849260D02*
X3859197Y-22858784D01*
X3859197Y-22858784D02*
X3811578Y-22858784D01*
X3811578Y-22858784D02*
X3792530Y-22849260D01*
X3792530Y-22849260D02*
X3783006Y-22839736D01*
X3992530Y-22858784D02*
X4030625Y-22858784D01*
X4030625Y-22858784D02*
X4049673Y-22849260D01*
X4049673Y-22849260D02*
X4059197Y-22839736D01*
X4059197Y-22839736D02*
X4078244Y-22811165D01*
X4078244Y-22811165D02*
X4087768Y-22773069D01*
X4087768Y-22773069D02*
X4087768Y-22696879D01*
X4087768Y-22696879D02*
X4078244Y-22677831D01*
X4078244Y-22677831D02*
X4068721Y-22668308D01*
X4068721Y-22668308D02*
X4049673Y-22658784D01*
X4049673Y-22658784D02*
X4011578Y-22658784D01*
X4011578Y-22658784D02*
X3992530Y-22668308D01*
X3992530Y-22668308D02*
X3983006Y-22677831D01*
X3983006Y-22677831D02*
X3973482Y-22696879D01*
X3973482Y-22696879D02*
X3973482Y-22744498D01*
X3973482Y-22744498D02*
X3983006Y-22763546D01*
X3983006Y-22763546D02*
X3992530Y-22773069D01*
X3992530Y-22773069D02*
X4011578Y-22782593D01*
X4011578Y-22782593D02*
X4049673Y-22782593D01*
X4049673Y-22782593D02*
X4068721Y-22773069D01*
X4068721Y-22773069D02*
X4078244Y-22763546D01*
X4078244Y-22763546D02*
X4087768Y-22744498D01*
X4278244Y-22858784D02*
X4163959Y-22858784D01*
X4221102Y-22858784D02*
X4221102Y-22658784D01*
X4221102Y-22658784D02*
X4202054Y-22687355D01*
X4202054Y-22687355D02*
X4183006Y-22706403D01*
X4183006Y-22706403D02*
X4163959Y-22715927D01*
X4354435Y-22658784D02*
X4354435Y-22696879D01*
X4430625Y-22658784D02*
X4430625Y-22696879D01*
X4725864Y-22934974D02*
X4716340Y-22925450D01*
X4716340Y-22925450D02*
X4697292Y-22896879D01*
X4697292Y-22896879D02*
X4687768Y-22877831D01*
X4687768Y-22877831D02*
X4678245Y-22849260D01*
X4678245Y-22849260D02*
X4668721Y-22801641D01*
X4668721Y-22801641D02*
X4668721Y-22763546D01*
X4668721Y-22763546D02*
X4678245Y-22715927D01*
X4678245Y-22715927D02*
X4687768Y-22687355D01*
X4687768Y-22687355D02*
X4697292Y-22668308D01*
X4697292Y-22668308D02*
X4716340Y-22639736D01*
X4716340Y-22639736D02*
X4725864Y-22630212D01*
X4840149Y-22658784D02*
X4859197Y-22658784D01*
X4859197Y-22658784D02*
X4878245Y-22668308D01*
X4878245Y-22668308D02*
X4887768Y-22677831D01*
X4887768Y-22677831D02*
X4897292Y-22696879D01*
X4897292Y-22696879D02*
X4906816Y-22734974D01*
X4906816Y-22734974D02*
X4906816Y-22782593D01*
X4906816Y-22782593D02*
X4897292Y-22820688D01*
X4897292Y-22820688D02*
X4887768Y-22839736D01*
X4887768Y-22839736D02*
X4878245Y-22849260D01*
X4878245Y-22849260D02*
X4859197Y-22858784D01*
X4859197Y-22858784D02*
X4840149Y-22858784D01*
X4840149Y-22858784D02*
X4821102Y-22849260D01*
X4821102Y-22849260D02*
X4811578Y-22839736D01*
X4811578Y-22839736D02*
X4802054Y-22820688D01*
X4802054Y-22820688D02*
X4792530Y-22782593D01*
X4792530Y-22782593D02*
X4792530Y-22734974D01*
X4792530Y-22734974D02*
X4802054Y-22696879D01*
X4802054Y-22696879D02*
X4811578Y-22677831D01*
X4811578Y-22677831D02*
X4821102Y-22668308D01*
X4821102Y-22668308D02*
X4840149Y-22658784D01*
X5144911Y-22858784D02*
X5144911Y-22658784D01*
X5230626Y-22858784D02*
X5230626Y-22754022D01*
X5230626Y-22754022D02*
X5221102Y-22734974D01*
X5221102Y-22734974D02*
X5202054Y-22725450D01*
X5202054Y-22725450D02*
X5173483Y-22725450D01*
X5173483Y-22725450D02*
X5154435Y-22734974D01*
X5154435Y-22734974D02*
X5144911Y-22744498D01*
X5354435Y-22858784D02*
X5335387Y-22849260D01*
X5335387Y-22849260D02*
X5325864Y-22839736D01*
X5325864Y-22839736D02*
X5316340Y-22820688D01*
X5316340Y-22820688D02*
X5316340Y-22763546D01*
X5316340Y-22763546D02*
X5325864Y-22744498D01*
X5325864Y-22744498D02*
X5335387Y-22734974D01*
X5335387Y-22734974D02*
X5354435Y-22725450D01*
X5354435Y-22725450D02*
X5383007Y-22725450D01*
X5383007Y-22725450D02*
X5402054Y-22734974D01*
X5402054Y-22734974D02*
X5411578Y-22744498D01*
X5411578Y-22744498D02*
X5421102Y-22763546D01*
X5421102Y-22763546D02*
X5421102Y-22820688D01*
X5421102Y-22820688D02*
X5411578Y-22839736D01*
X5411578Y-22839736D02*
X5402054Y-22849260D01*
X5402054Y-22849260D02*
X5383007Y-22858784D01*
X5383007Y-22858784D02*
X5354435Y-22858784D01*
X5535387Y-22858784D02*
X5516340Y-22849260D01*
X5516340Y-22849260D02*
X5506816Y-22830212D01*
X5506816Y-22830212D02*
X5506816Y-22658784D01*
X5687768Y-22849260D02*
X5668721Y-22858784D01*
X5668721Y-22858784D02*
X5630625Y-22858784D01*
X5630625Y-22858784D02*
X5611578Y-22849260D01*
X5611578Y-22849260D02*
X5602054Y-22830212D01*
X5602054Y-22830212D02*
X5602054Y-22754022D01*
X5602054Y-22754022D02*
X5611578Y-22734974D01*
X5611578Y-22734974D02*
X5630625Y-22725450D01*
X5630625Y-22725450D02*
X5668721Y-22725450D01*
X5668721Y-22725450D02*
X5687768Y-22734974D01*
X5687768Y-22734974D02*
X5697292Y-22754022D01*
X5697292Y-22754022D02*
X5697292Y-22773069D01*
X5697292Y-22773069D02*
X5602054Y-22792117D01*
X5773483Y-22849260D02*
X5792530Y-22858784D01*
X5792530Y-22858784D02*
X5830625Y-22858784D01*
X5830625Y-22858784D02*
X5849673Y-22849260D01*
X5849673Y-22849260D02*
X5859197Y-22830212D01*
X5859197Y-22830212D02*
X5859197Y-22820688D01*
X5859197Y-22820688D02*
X5849673Y-22801641D01*
X5849673Y-22801641D02*
X5830625Y-22792117D01*
X5830625Y-22792117D02*
X5802054Y-22792117D01*
X5802054Y-22792117D02*
X5783006Y-22782593D01*
X5783006Y-22782593D02*
X5773483Y-22763546D01*
X5773483Y-22763546D02*
X5773483Y-22754022D01*
X5773483Y-22754022D02*
X5783006Y-22734974D01*
X5783006Y-22734974D02*
X5802054Y-22725450D01*
X5802054Y-22725450D02*
X5830625Y-22725450D01*
X5830625Y-22725450D02*
X5849673Y-22734974D01*
X6097292Y-22782593D02*
X6249673Y-22782593D01*
X6173483Y-22858784D02*
X6173483Y-22706403D01*
X6487768Y-22677831D02*
X6497292Y-22668308D01*
X6497292Y-22668308D02*
X6516340Y-22658784D01*
X6516340Y-22658784D02*
X6563959Y-22658784D01*
X6563959Y-22658784D02*
X6583007Y-22668308D01*
X6583007Y-22668308D02*
X6592530Y-22677831D01*
X6592530Y-22677831D02*
X6602054Y-22696879D01*
X6602054Y-22696879D02*
X6602054Y-22715927D01*
X6602054Y-22715927D02*
X6592530Y-22744498D01*
X6592530Y-22744498D02*
X6478245Y-22858784D01*
X6478245Y-22858784D02*
X6602054Y-22858784D01*
X6830626Y-22849260D02*
X6849673Y-22858784D01*
X6849673Y-22858784D02*
X6887768Y-22858784D01*
X6887768Y-22858784D02*
X6906816Y-22849260D01*
X6906816Y-22849260D02*
X6916340Y-22830212D01*
X6916340Y-22830212D02*
X6916340Y-22820688D01*
X6916340Y-22820688D02*
X6906816Y-22801641D01*
X6906816Y-22801641D02*
X6887768Y-22792117D01*
X6887768Y-22792117D02*
X6859197Y-22792117D01*
X6859197Y-22792117D02*
X6840149Y-22782593D01*
X6840149Y-22782593D02*
X6830626Y-22763546D01*
X6830626Y-22763546D02*
X6830626Y-22754022D01*
X6830626Y-22754022D02*
X6840149Y-22734974D01*
X6840149Y-22734974D02*
X6859197Y-22725450D01*
X6859197Y-22725450D02*
X6887768Y-22725450D01*
X6887768Y-22725450D02*
X6906816Y-22734974D01*
X7030626Y-22858784D02*
X7011578Y-22849260D01*
X7011578Y-22849260D02*
X7002054Y-22830212D01*
X7002054Y-22830212D02*
X7002054Y-22658784D01*
X7135388Y-22858784D02*
X7116340Y-22849260D01*
X7116340Y-22849260D02*
X7106816Y-22839736D01*
X7106816Y-22839736D02*
X7097292Y-22820688D01*
X7097292Y-22820688D02*
X7097292Y-22763546D01*
X7097292Y-22763546D02*
X7106816Y-22744498D01*
X7106816Y-22744498D02*
X7116340Y-22734974D01*
X7116340Y-22734974D02*
X7135388Y-22725450D01*
X7135388Y-22725450D02*
X7163959Y-22725450D01*
X7163959Y-22725450D02*
X7183007Y-22734974D01*
X7183007Y-22734974D02*
X7192530Y-22744498D01*
X7192530Y-22744498D02*
X7202054Y-22763546D01*
X7202054Y-22763546D02*
X7202054Y-22820688D01*
X7202054Y-22820688D02*
X7192530Y-22839736D01*
X7192530Y-22839736D02*
X7183007Y-22849260D01*
X7183007Y-22849260D02*
X7163959Y-22858784D01*
X7163959Y-22858784D02*
X7135388Y-22858784D01*
X7259197Y-22725450D02*
X7335388Y-22725450D01*
X7287769Y-22658784D02*
X7287769Y-22830212D01*
X7287769Y-22830212D02*
X7297292Y-22849260D01*
X7297292Y-22849260D02*
X7316340Y-22858784D01*
X7316340Y-22858784D02*
X7335388Y-22858784D01*
X7392530Y-22849260D02*
X7411578Y-22858784D01*
X7411578Y-22858784D02*
X7449673Y-22858784D01*
X7449673Y-22858784D02*
X7468721Y-22849260D01*
X7468721Y-22849260D02*
X7478245Y-22830212D01*
X7478245Y-22830212D02*
X7478245Y-22820688D01*
X7478245Y-22820688D02*
X7468721Y-22801641D01*
X7468721Y-22801641D02*
X7449673Y-22792117D01*
X7449673Y-22792117D02*
X7421102Y-22792117D01*
X7421102Y-22792117D02*
X7402054Y-22782593D01*
X7402054Y-22782593D02*
X7392530Y-22763546D01*
X7392530Y-22763546D02*
X7392530Y-22754022D01*
X7392530Y-22754022D02*
X7402054Y-22734974D01*
X7402054Y-22734974D02*
X7421102Y-22725450D01*
X7421102Y-22725450D02*
X7449673Y-22725450D01*
X7449673Y-22725450D02*
X7468721Y-22734974D01*
X7544911Y-22934974D02*
X7554435Y-22925450D01*
X7554435Y-22925450D02*
X7573483Y-22896879D01*
X7573483Y-22896879D02*
X7583007Y-22877831D01*
X7583007Y-22877831D02*
X7592530Y-22849260D01*
X7592530Y-22849260D02*
X7602054Y-22801641D01*
X7602054Y-22801641D02*
X7602054Y-22763546D01*
X7602054Y-22763546D02*
X7592530Y-22715927D01*
X7592530Y-22715927D02*
X7583007Y-22687355D01*
X7583007Y-22687355D02*
X7573483Y-22668308D01*
X7573483Y-22668308D02*
X7554435Y-22639736D01*
X7554435Y-22639736D02*
X7544911Y-22630212D01*
X7906816Y-22934974D02*
X7897292Y-22925450D01*
X7897292Y-22925450D02*
X7878245Y-22896879D01*
X7878245Y-22896879D02*
X7868721Y-22877831D01*
X7868721Y-22877831D02*
X7859197Y-22849260D01*
X7859197Y-22849260D02*
X7849673Y-22801641D01*
X7849673Y-22801641D02*
X7849673Y-22763546D01*
X7849673Y-22763546D02*
X7859197Y-22715927D01*
X7859197Y-22715927D02*
X7868721Y-22687355D01*
X7868721Y-22687355D02*
X7878245Y-22668308D01*
X7878245Y-22668308D02*
X7897292Y-22639736D01*
X7897292Y-22639736D02*
X7906816Y-22630212D01*
X7983007Y-22725450D02*
X7983007Y-22858784D01*
X7983007Y-22744498D02*
X7992530Y-22734974D01*
X7992530Y-22734974D02*
X8011578Y-22725450D01*
X8011578Y-22725450D02*
X8040150Y-22725450D01*
X8040150Y-22725450D02*
X8059197Y-22734974D01*
X8059197Y-22734974D02*
X8068721Y-22754022D01*
X8068721Y-22754022D02*
X8068721Y-22858784D01*
X8192530Y-22858784D02*
X8173483Y-22849260D01*
X8173483Y-22849260D02*
X8163959Y-22839736D01*
X8163959Y-22839736D02*
X8154435Y-22820688D01*
X8154435Y-22820688D02*
X8154435Y-22763546D01*
X8154435Y-22763546D02*
X8163959Y-22744498D01*
X8163959Y-22744498D02*
X8173483Y-22734974D01*
X8173483Y-22734974D02*
X8192530Y-22725450D01*
X8192530Y-22725450D02*
X8221102Y-22725450D01*
X8221102Y-22725450D02*
X8240150Y-22734974D01*
X8240150Y-22734974D02*
X8249673Y-22744498D01*
X8249673Y-22744498D02*
X8259197Y-22763546D01*
X8259197Y-22763546D02*
X8259197Y-22820688D01*
X8259197Y-22820688D02*
X8249673Y-22839736D01*
X8249673Y-22839736D02*
X8240150Y-22849260D01*
X8240150Y-22849260D02*
X8221102Y-22858784D01*
X8221102Y-22858784D02*
X8192530Y-22858784D01*
X8316340Y-22725450D02*
X8392531Y-22725450D01*
X8344911Y-22658784D02*
X8344911Y-22830212D01*
X8344911Y-22830212D02*
X8354435Y-22849260D01*
X8354435Y-22849260D02*
X8373483Y-22858784D01*
X8373483Y-22858784D02*
X8392531Y-22858784D01*
X8611578Y-22725450D02*
X8611578Y-22925450D01*
X8611578Y-22734974D02*
X8630626Y-22725450D01*
X8630626Y-22725450D02*
X8668721Y-22725450D01*
X8668721Y-22725450D02*
X8687769Y-22734974D01*
X8687769Y-22734974D02*
X8697293Y-22744498D01*
X8697293Y-22744498D02*
X8706816Y-22763546D01*
X8706816Y-22763546D02*
X8706816Y-22820688D01*
X8706816Y-22820688D02*
X8697293Y-22839736D01*
X8697293Y-22839736D02*
X8687769Y-22849260D01*
X8687769Y-22849260D02*
X8668721Y-22858784D01*
X8668721Y-22858784D02*
X8630626Y-22858784D01*
X8630626Y-22858784D02*
X8611578Y-22849260D01*
X8821102Y-22858784D02*
X8802054Y-22849260D01*
X8802054Y-22849260D02*
X8792531Y-22830212D01*
X8792531Y-22830212D02*
X8792531Y-22658784D01*
X8983007Y-22858784D02*
X8983007Y-22754022D01*
X8983007Y-22754022D02*
X8973483Y-22734974D01*
X8973483Y-22734974D02*
X8954435Y-22725450D01*
X8954435Y-22725450D02*
X8916340Y-22725450D01*
X8916340Y-22725450D02*
X8897293Y-22734974D01*
X8983007Y-22849260D02*
X8963959Y-22858784D01*
X8963959Y-22858784D02*
X8916340Y-22858784D01*
X8916340Y-22858784D02*
X8897293Y-22849260D01*
X8897293Y-22849260D02*
X8887769Y-22830212D01*
X8887769Y-22830212D02*
X8887769Y-22811165D01*
X8887769Y-22811165D02*
X8897293Y-22792117D01*
X8897293Y-22792117D02*
X8916340Y-22782593D01*
X8916340Y-22782593D02*
X8963959Y-22782593D01*
X8963959Y-22782593D02*
X8983007Y-22773069D01*
X9049674Y-22725450D02*
X9125864Y-22725450D01*
X9078245Y-22658784D02*
X9078245Y-22830212D01*
X9078245Y-22830212D02*
X9087769Y-22849260D01*
X9087769Y-22849260D02*
X9106816Y-22858784D01*
X9106816Y-22858784D02*
X9125864Y-22858784D01*
X9268721Y-22849260D02*
X9249674Y-22858784D01*
X9249674Y-22858784D02*
X9211578Y-22858784D01*
X9211578Y-22858784D02*
X9192531Y-22849260D01*
X9192531Y-22849260D02*
X9183007Y-22830212D01*
X9183007Y-22830212D02*
X9183007Y-22754022D01*
X9183007Y-22754022D02*
X9192531Y-22734974D01*
X9192531Y-22734974D02*
X9211578Y-22725450D01*
X9211578Y-22725450D02*
X9249674Y-22725450D01*
X9249674Y-22725450D02*
X9268721Y-22734974D01*
X9268721Y-22734974D02*
X9278245Y-22754022D01*
X9278245Y-22754022D02*
X9278245Y-22773069D01*
X9278245Y-22773069D02*
X9183007Y-22792117D01*
X9449674Y-22858784D02*
X9449674Y-22658784D01*
X9449674Y-22849260D02*
X9430626Y-22858784D01*
X9430626Y-22858784D02*
X9392531Y-22858784D01*
X9392531Y-22858784D02*
X9373483Y-22849260D01*
X9373483Y-22849260D02*
X9363959Y-22839736D01*
X9363959Y-22839736D02*
X9354435Y-22820688D01*
X9354435Y-22820688D02*
X9354435Y-22763546D01*
X9354435Y-22763546D02*
X9363959Y-22744498D01*
X9363959Y-22744498D02*
X9373483Y-22734974D01*
X9373483Y-22734974D02*
X9392531Y-22725450D01*
X9392531Y-22725450D02*
X9430626Y-22725450D01*
X9430626Y-22725450D02*
X9449674Y-22734974D01*
X9525864Y-22934974D02*
X9535388Y-22925450D01*
X9535388Y-22925450D02*
X9554435Y-22896879D01*
X9554435Y-22896879D02*
X9563959Y-22877831D01*
X9563959Y-22877831D02*
X9573483Y-22849260D01*
X9573483Y-22849260D02*
X9583007Y-22801641D01*
X9583007Y-22801641D02*
X9583007Y-22763546D01*
X9583007Y-22763546D02*
X9573483Y-22715927D01*
X9573483Y-22715927D02*
X9563959Y-22687355D01*
X9563959Y-22687355D02*
X9554435Y-22668308D01*
X9554435Y-22668308D02*
X9535388Y-22639736D01*
X9535388Y-22639736D02*
X9525864Y-22630212D01*
D13*
X1150801Y-23037300D02*
G75*
G02*
X980621Y-23037300I-85090J0D01*
G01*
X980621Y-23037300D02*
G75*
G02*
X1150801Y-23037300I85090J0D01*
G01*
D10*
X1516339Y-23128784D02*
X1402054Y-23128784D01*
X1459196Y-23128784D02*
X1459196Y-22928784D01*
X1459196Y-22928784D02*
X1440149Y-22957355D01*
X1440149Y-22957355D02*
X1421101Y-22976403D01*
X1421101Y-22976403D02*
X1402054Y-22985927D01*
X1602054Y-23109736D02*
X1611577Y-23119260D01*
X1611577Y-23119260D02*
X1602054Y-23128784D01*
X1602054Y-23128784D02*
X1592530Y-23119260D01*
X1592530Y-23119260D02*
X1602054Y-23109736D01*
X1602054Y-23109736D02*
X1602054Y-23128784D01*
X1678244Y-22928784D02*
X1811577Y-22928784D01*
X1811577Y-22928784D02*
X1725863Y-23128784D01*
X1925863Y-22928784D02*
X1944911Y-22928784D01*
X1944911Y-22928784D02*
X1963958Y-22938308D01*
X1963958Y-22938308D02*
X1973482Y-22947831D01*
X1973482Y-22947831D02*
X1983006Y-22966879D01*
X1983006Y-22966879D02*
X1992530Y-23004974D01*
X1992530Y-23004974D02*
X1992530Y-23052593D01*
X1992530Y-23052593D02*
X1983006Y-23090688D01*
X1983006Y-23090688D02*
X1973482Y-23109736D01*
X1973482Y-23109736D02*
X1963958Y-23119260D01*
X1963958Y-23119260D02*
X1944911Y-23128784D01*
X1944911Y-23128784D02*
X1925863Y-23128784D01*
X1925863Y-23128784D02*
X1906816Y-23119260D01*
X1906816Y-23119260D02*
X1897292Y-23109736D01*
X1897292Y-23109736D02*
X1887768Y-23090688D01*
X1887768Y-23090688D02*
X1878244Y-23052593D01*
X1878244Y-23052593D02*
X1878244Y-23004974D01*
X1878244Y-23004974D02*
X1887768Y-22966879D01*
X1887768Y-22966879D02*
X1897292Y-22947831D01*
X1897292Y-22947831D02*
X1906816Y-22938308D01*
X1906816Y-22938308D02*
X1925863Y-22928784D01*
X2068720Y-22947831D02*
X2078244Y-22938308D01*
X2078244Y-22938308D02*
X2097292Y-22928784D01*
X2097292Y-22928784D02*
X2144911Y-22928784D01*
X2144911Y-22928784D02*
X2163959Y-22938308D01*
X2163959Y-22938308D02*
X2173482Y-22947831D01*
X2173482Y-22947831D02*
X2183006Y-22966879D01*
X2183006Y-22966879D02*
X2183006Y-22985927D01*
X2183006Y-22985927D02*
X2173482Y-23014498D01*
X2173482Y-23014498D02*
X2059197Y-23128784D01*
X2059197Y-23128784D02*
X2183006Y-23128784D01*
X2268720Y-23128784D02*
X2268720Y-22995450D01*
X2268720Y-23014498D02*
X2278244Y-23004974D01*
X2278244Y-23004974D02*
X2297292Y-22995450D01*
X2297292Y-22995450D02*
X2325863Y-22995450D01*
X2325863Y-22995450D02*
X2344911Y-23004974D01*
X2344911Y-23004974D02*
X2354435Y-23024022D01*
X2354435Y-23024022D02*
X2354435Y-23128784D01*
X2354435Y-23024022D02*
X2363959Y-23004974D01*
X2363959Y-23004974D02*
X2383006Y-22995450D01*
X2383006Y-22995450D02*
X2411578Y-22995450D01*
X2411578Y-22995450D02*
X2430625Y-23004974D01*
X2430625Y-23004974D02*
X2440149Y-23024022D01*
X2440149Y-23024022D02*
X2440149Y-23128784D01*
X2535387Y-23128784D02*
X2535387Y-22995450D01*
X2535387Y-23014498D02*
X2544911Y-23004974D01*
X2544911Y-23004974D02*
X2563959Y-22995450D01*
X2563959Y-22995450D02*
X2592530Y-22995450D01*
X2592530Y-22995450D02*
X2611578Y-23004974D01*
X2611578Y-23004974D02*
X2621101Y-23024022D01*
X2621101Y-23024022D02*
X2621101Y-23128784D01*
X2621101Y-23024022D02*
X2630625Y-23004974D01*
X2630625Y-23004974D02*
X2649673Y-22995450D01*
X2649673Y-22995450D02*
X2678244Y-22995450D01*
X2678244Y-22995450D02*
X2697292Y-23004974D01*
X2697292Y-23004974D02*
X2706816Y-23024022D01*
X2706816Y-23024022D02*
X2706816Y-23128784D01*
X3097292Y-22919260D02*
X2925863Y-23176403D01*
X3354435Y-22928784D02*
X3373482Y-22928784D01*
X3373482Y-22928784D02*
X3392530Y-22938308D01*
X3392530Y-22938308D02*
X3402054Y-22947831D01*
X3402054Y-22947831D02*
X3411578Y-22966879D01*
X3411578Y-22966879D02*
X3421101Y-23004974D01*
X3421101Y-23004974D02*
X3421101Y-23052593D01*
X3421101Y-23052593D02*
X3411578Y-23090688D01*
X3411578Y-23090688D02*
X3402054Y-23109736D01*
X3402054Y-23109736D02*
X3392530Y-23119260D01*
X3392530Y-23119260D02*
X3373482Y-23128784D01*
X3373482Y-23128784D02*
X3354435Y-23128784D01*
X3354435Y-23128784D02*
X3335387Y-23119260D01*
X3335387Y-23119260D02*
X3325863Y-23109736D01*
X3325863Y-23109736D02*
X3316340Y-23090688D01*
X3316340Y-23090688D02*
X3306816Y-23052593D01*
X3306816Y-23052593D02*
X3306816Y-23004974D01*
X3306816Y-23004974D02*
X3316340Y-22966879D01*
X3316340Y-22966879D02*
X3325863Y-22947831D01*
X3325863Y-22947831D02*
X3335387Y-22938308D01*
X3335387Y-22938308D02*
X3354435Y-22928784D01*
X3506816Y-23109736D02*
X3516340Y-23119260D01*
X3516340Y-23119260D02*
X3506816Y-23128784D01*
X3506816Y-23128784D02*
X3497292Y-23119260D01*
X3497292Y-23119260D02*
X3506816Y-23109736D01*
X3506816Y-23109736D02*
X3506816Y-23128784D01*
X3640149Y-22928784D02*
X3659197Y-22928784D01*
X3659197Y-22928784D02*
X3678244Y-22938308D01*
X3678244Y-22938308D02*
X3687768Y-22947831D01*
X3687768Y-22947831D02*
X3697292Y-22966879D01*
X3697292Y-22966879D02*
X3706816Y-23004974D01*
X3706816Y-23004974D02*
X3706816Y-23052593D01*
X3706816Y-23052593D02*
X3697292Y-23090688D01*
X3697292Y-23090688D02*
X3687768Y-23109736D01*
X3687768Y-23109736D02*
X3678244Y-23119260D01*
X3678244Y-23119260D02*
X3659197Y-23128784D01*
X3659197Y-23128784D02*
X3640149Y-23128784D01*
X3640149Y-23128784D02*
X3621101Y-23119260D01*
X3621101Y-23119260D02*
X3611578Y-23109736D01*
X3611578Y-23109736D02*
X3602054Y-23090688D01*
X3602054Y-23090688D02*
X3592530Y-23052593D01*
X3592530Y-23052593D02*
X3592530Y-23004974D01*
X3592530Y-23004974D02*
X3602054Y-22966879D01*
X3602054Y-22966879D02*
X3611578Y-22947831D01*
X3611578Y-22947831D02*
X3621101Y-22938308D01*
X3621101Y-22938308D02*
X3640149Y-22928784D01*
X3878244Y-22928784D02*
X3840149Y-22928784D01*
X3840149Y-22928784D02*
X3821101Y-22938308D01*
X3821101Y-22938308D02*
X3811578Y-22947831D01*
X3811578Y-22947831D02*
X3792530Y-22976403D01*
X3792530Y-22976403D02*
X3783006Y-23014498D01*
X3783006Y-23014498D02*
X3783006Y-23090688D01*
X3783006Y-23090688D02*
X3792530Y-23109736D01*
X3792530Y-23109736D02*
X3802054Y-23119260D01*
X3802054Y-23119260D02*
X3821101Y-23128784D01*
X3821101Y-23128784D02*
X3859197Y-23128784D01*
X3859197Y-23128784D02*
X3878244Y-23119260D01*
X3878244Y-23119260D02*
X3887768Y-23109736D01*
X3887768Y-23109736D02*
X3897292Y-23090688D01*
X3897292Y-23090688D02*
X3897292Y-23043069D01*
X3897292Y-23043069D02*
X3887768Y-23024022D01*
X3887768Y-23024022D02*
X3878244Y-23014498D01*
X3878244Y-23014498D02*
X3859197Y-23004974D01*
X3859197Y-23004974D02*
X3821101Y-23004974D01*
X3821101Y-23004974D02*
X3802054Y-23014498D01*
X3802054Y-23014498D02*
X3792530Y-23024022D01*
X3792530Y-23024022D02*
X3783006Y-23043069D01*
X3963959Y-22928784D02*
X4097292Y-22928784D01*
X4097292Y-22928784D02*
X4011578Y-23128784D01*
X4211578Y-22928784D02*
X4230625Y-22928784D01*
X4230625Y-22928784D02*
X4249673Y-22938308D01*
X4249673Y-22938308D02*
X4259197Y-22947831D01*
X4259197Y-22947831D02*
X4268721Y-22966879D01*
X4268721Y-22966879D02*
X4278244Y-23004974D01*
X4278244Y-23004974D02*
X4278244Y-23052593D01*
X4278244Y-23052593D02*
X4268721Y-23090688D01*
X4268721Y-23090688D02*
X4259197Y-23109736D01*
X4259197Y-23109736D02*
X4249673Y-23119260D01*
X4249673Y-23119260D02*
X4230625Y-23128784D01*
X4230625Y-23128784D02*
X4211578Y-23128784D01*
X4211578Y-23128784D02*
X4192530Y-23119260D01*
X4192530Y-23119260D02*
X4183006Y-23109736D01*
X4183006Y-23109736D02*
X4173482Y-23090688D01*
X4173482Y-23090688D02*
X4163959Y-23052593D01*
X4163959Y-23052593D02*
X4163959Y-23004974D01*
X4163959Y-23004974D02*
X4173482Y-22966879D01*
X4173482Y-22966879D02*
X4183006Y-22947831D01*
X4183006Y-22947831D02*
X4192530Y-22938308D01*
X4192530Y-22938308D02*
X4211578Y-22928784D01*
X4354435Y-22928784D02*
X4354435Y-22966879D01*
X4430625Y-22928784D02*
X4430625Y-22966879D01*
X4725864Y-23204974D02*
X4716340Y-23195450D01*
X4716340Y-23195450D02*
X4697292Y-23166879D01*
X4697292Y-23166879D02*
X4687768Y-23147831D01*
X4687768Y-23147831D02*
X4678245Y-23119260D01*
X4678245Y-23119260D02*
X4668721Y-23071641D01*
X4668721Y-23071641D02*
X4668721Y-23033546D01*
X4668721Y-23033546D02*
X4678245Y-22985927D01*
X4678245Y-22985927D02*
X4687768Y-22957355D01*
X4687768Y-22957355D02*
X4697292Y-22938308D01*
X4697292Y-22938308D02*
X4716340Y-22909736D01*
X4716340Y-22909736D02*
X4725864Y-22900212D01*
X4906816Y-23128784D02*
X4792530Y-23128784D01*
X4849673Y-23128784D02*
X4849673Y-22928784D01*
X4849673Y-22928784D02*
X4830625Y-22957355D01*
X4830625Y-22957355D02*
X4811578Y-22976403D01*
X4811578Y-22976403D02*
X4792530Y-22985927D01*
X5087768Y-22928784D02*
X4992530Y-22928784D01*
X4992530Y-22928784D02*
X4983006Y-23024022D01*
X4983006Y-23024022D02*
X4992530Y-23014498D01*
X4992530Y-23014498D02*
X5011578Y-23004974D01*
X5011578Y-23004974D02*
X5059197Y-23004974D01*
X5059197Y-23004974D02*
X5078245Y-23014498D01*
X5078245Y-23014498D02*
X5087768Y-23024022D01*
X5087768Y-23024022D02*
X5097292Y-23043069D01*
X5097292Y-23043069D02*
X5097292Y-23090688D01*
X5097292Y-23090688D02*
X5087768Y-23109736D01*
X5087768Y-23109736D02*
X5078245Y-23119260D01*
X5078245Y-23119260D02*
X5059197Y-23128784D01*
X5059197Y-23128784D02*
X5011578Y-23128784D01*
X5011578Y-23128784D02*
X4992530Y-23119260D01*
X4992530Y-23119260D02*
X4983006Y-23109736D01*
X5221102Y-22928784D02*
X5240149Y-22928784D01*
X5240149Y-22928784D02*
X5259197Y-22938308D01*
X5259197Y-22938308D02*
X5268721Y-22947831D01*
X5268721Y-22947831D02*
X5278245Y-22966879D01*
X5278245Y-22966879D02*
X5287768Y-23004974D01*
X5287768Y-23004974D02*
X5287768Y-23052593D01*
X5287768Y-23052593D02*
X5278245Y-23090688D01*
X5278245Y-23090688D02*
X5268721Y-23109736D01*
X5268721Y-23109736D02*
X5259197Y-23119260D01*
X5259197Y-23119260D02*
X5240149Y-23128784D01*
X5240149Y-23128784D02*
X5221102Y-23128784D01*
X5221102Y-23128784D02*
X5202054Y-23119260D01*
X5202054Y-23119260D02*
X5192530Y-23109736D01*
X5192530Y-23109736D02*
X5183006Y-23090688D01*
X5183006Y-23090688D02*
X5173483Y-23052593D01*
X5173483Y-23052593D02*
X5173483Y-23004974D01*
X5173483Y-23004974D02*
X5183006Y-22966879D01*
X5183006Y-22966879D02*
X5192530Y-22947831D01*
X5192530Y-22947831D02*
X5202054Y-22938308D01*
X5202054Y-22938308D02*
X5221102Y-22928784D01*
X5525864Y-23128784D02*
X5525864Y-22928784D01*
X5611578Y-23128784D02*
X5611578Y-23024022D01*
X5611578Y-23024022D02*
X5602054Y-23004974D01*
X5602054Y-23004974D02*
X5583007Y-22995450D01*
X5583007Y-22995450D02*
X5554435Y-22995450D01*
X5554435Y-22995450D02*
X5535387Y-23004974D01*
X5535387Y-23004974D02*
X5525864Y-23014498D01*
X5735387Y-23128784D02*
X5716340Y-23119260D01*
X5716340Y-23119260D02*
X5706816Y-23109736D01*
X5706816Y-23109736D02*
X5697292Y-23090688D01*
X5697292Y-23090688D02*
X5697292Y-23033546D01*
X5697292Y-23033546D02*
X5706816Y-23014498D01*
X5706816Y-23014498D02*
X5716340Y-23004974D01*
X5716340Y-23004974D02*
X5735387Y-22995450D01*
X5735387Y-22995450D02*
X5763959Y-22995450D01*
X5763959Y-22995450D02*
X5783006Y-23004974D01*
X5783006Y-23004974D02*
X5792530Y-23014498D01*
X5792530Y-23014498D02*
X5802054Y-23033546D01*
X5802054Y-23033546D02*
X5802054Y-23090688D01*
X5802054Y-23090688D02*
X5792530Y-23109736D01*
X5792530Y-23109736D02*
X5783006Y-23119260D01*
X5783006Y-23119260D02*
X5763959Y-23128784D01*
X5763959Y-23128784D02*
X5735387Y-23128784D01*
X5916340Y-23128784D02*
X5897292Y-23119260D01*
X5897292Y-23119260D02*
X5887768Y-23100212D01*
X5887768Y-23100212D02*
X5887768Y-22928784D01*
X6068721Y-23119260D02*
X6049673Y-23128784D01*
X6049673Y-23128784D02*
X6011578Y-23128784D01*
X6011578Y-23128784D02*
X5992530Y-23119260D01*
X5992530Y-23119260D02*
X5983006Y-23100212D01*
X5983006Y-23100212D02*
X5983006Y-23024022D01*
X5983006Y-23024022D02*
X5992530Y-23004974D01*
X5992530Y-23004974D02*
X6011578Y-22995450D01*
X6011578Y-22995450D02*
X6049673Y-22995450D01*
X6049673Y-22995450D02*
X6068721Y-23004974D01*
X6068721Y-23004974D02*
X6078245Y-23024022D01*
X6078245Y-23024022D02*
X6078245Y-23043069D01*
X6078245Y-23043069D02*
X5983006Y-23062117D01*
X6154435Y-23119260D02*
X6173483Y-23128784D01*
X6173483Y-23128784D02*
X6211578Y-23128784D01*
X6211578Y-23128784D02*
X6230626Y-23119260D01*
X6230626Y-23119260D02*
X6240149Y-23100212D01*
X6240149Y-23100212D02*
X6240149Y-23090688D01*
X6240149Y-23090688D02*
X6230626Y-23071641D01*
X6230626Y-23071641D02*
X6211578Y-23062117D01*
X6211578Y-23062117D02*
X6183006Y-23062117D01*
X6183006Y-23062117D02*
X6163959Y-23052593D01*
X6163959Y-23052593D02*
X6154435Y-23033546D01*
X6154435Y-23033546D02*
X6154435Y-23024022D01*
X6154435Y-23024022D02*
X6163959Y-23004974D01*
X6163959Y-23004974D02*
X6183006Y-22995450D01*
X6183006Y-22995450D02*
X6211578Y-22995450D01*
X6211578Y-22995450D02*
X6230626Y-23004974D01*
X6306816Y-23204974D02*
X6316340Y-23195450D01*
X6316340Y-23195450D02*
X6335387Y-23166879D01*
X6335387Y-23166879D02*
X6344911Y-23147831D01*
X6344911Y-23147831D02*
X6354435Y-23119260D01*
X6354435Y-23119260D02*
X6363959Y-23071641D01*
X6363959Y-23071641D02*
X6363959Y-23033546D01*
X6363959Y-23033546D02*
X6354435Y-22985927D01*
X6354435Y-22985927D02*
X6344911Y-22957355D01*
X6344911Y-22957355D02*
X6335387Y-22938308D01*
X6335387Y-22938308D02*
X6316340Y-22909736D01*
X6316340Y-22909736D02*
X6306816Y-22900212D01*
X6668721Y-23204974D02*
X6659197Y-23195450D01*
X6659197Y-23195450D02*
X6640149Y-23166879D01*
X6640149Y-23166879D02*
X6630626Y-23147831D01*
X6630626Y-23147831D02*
X6621102Y-23119260D01*
X6621102Y-23119260D02*
X6611578Y-23071641D01*
X6611578Y-23071641D02*
X6611578Y-23033546D01*
X6611578Y-23033546D02*
X6621102Y-22985927D01*
X6621102Y-22985927D02*
X6630626Y-22957355D01*
X6630626Y-22957355D02*
X6640149Y-22938308D01*
X6640149Y-22938308D02*
X6659197Y-22909736D01*
X6659197Y-22909736D02*
X6668721Y-22900212D01*
X6744911Y-22995450D02*
X6744911Y-23128784D01*
X6744911Y-23014498D02*
X6754435Y-23004974D01*
X6754435Y-23004974D02*
X6773483Y-22995450D01*
X6773483Y-22995450D02*
X6802054Y-22995450D01*
X6802054Y-22995450D02*
X6821102Y-23004974D01*
X6821102Y-23004974D02*
X6830626Y-23024022D01*
X6830626Y-23024022D02*
X6830626Y-23128784D01*
X6954435Y-23128784D02*
X6935387Y-23119260D01*
X6935387Y-23119260D02*
X6925864Y-23109736D01*
X6925864Y-23109736D02*
X6916340Y-23090688D01*
X6916340Y-23090688D02*
X6916340Y-23033546D01*
X6916340Y-23033546D02*
X6925864Y-23014498D01*
X6925864Y-23014498D02*
X6935387Y-23004974D01*
X6935387Y-23004974D02*
X6954435Y-22995450D01*
X6954435Y-22995450D02*
X6983007Y-22995450D01*
X6983007Y-22995450D02*
X7002054Y-23004974D01*
X7002054Y-23004974D02*
X7011578Y-23014498D01*
X7011578Y-23014498D02*
X7021102Y-23033546D01*
X7021102Y-23033546D02*
X7021102Y-23090688D01*
X7021102Y-23090688D02*
X7011578Y-23109736D01*
X7011578Y-23109736D02*
X7002054Y-23119260D01*
X7002054Y-23119260D02*
X6983007Y-23128784D01*
X6983007Y-23128784D02*
X6954435Y-23128784D01*
X7078245Y-22995450D02*
X7154435Y-22995450D01*
X7106816Y-22928784D02*
X7106816Y-23100212D01*
X7106816Y-23100212D02*
X7116340Y-23119260D01*
X7116340Y-23119260D02*
X7135387Y-23128784D01*
X7135387Y-23128784D02*
X7154435Y-23128784D01*
X7373483Y-22995450D02*
X7373483Y-23195450D01*
X7373483Y-23004974D02*
X7392530Y-22995450D01*
X7392530Y-22995450D02*
X7430626Y-22995450D01*
X7430626Y-22995450D02*
X7449673Y-23004974D01*
X7449673Y-23004974D02*
X7459197Y-23014498D01*
X7459197Y-23014498D02*
X7468721Y-23033546D01*
X7468721Y-23033546D02*
X7468721Y-23090688D01*
X7468721Y-23090688D02*
X7459197Y-23109736D01*
X7459197Y-23109736D02*
X7449673Y-23119260D01*
X7449673Y-23119260D02*
X7430626Y-23128784D01*
X7430626Y-23128784D02*
X7392530Y-23128784D01*
X7392530Y-23128784D02*
X7373483Y-23119260D01*
X7583007Y-23128784D02*
X7563959Y-23119260D01*
X7563959Y-23119260D02*
X7554435Y-23100212D01*
X7554435Y-23100212D02*
X7554435Y-22928784D01*
X7744911Y-23128784D02*
X7744911Y-23024022D01*
X7744911Y-23024022D02*
X7735388Y-23004974D01*
X7735388Y-23004974D02*
X7716340Y-22995450D01*
X7716340Y-22995450D02*
X7678245Y-22995450D01*
X7678245Y-22995450D02*
X7659197Y-23004974D01*
X7744911Y-23119260D02*
X7725864Y-23128784D01*
X7725864Y-23128784D02*
X7678245Y-23128784D01*
X7678245Y-23128784D02*
X7659197Y-23119260D01*
X7659197Y-23119260D02*
X7649673Y-23100212D01*
X7649673Y-23100212D02*
X7649673Y-23081165D01*
X7649673Y-23081165D02*
X7659197Y-23062117D01*
X7659197Y-23062117D02*
X7678245Y-23052593D01*
X7678245Y-23052593D02*
X7725864Y-23052593D01*
X7725864Y-23052593D02*
X7744911Y-23043069D01*
X7811578Y-22995450D02*
X7887768Y-22995450D01*
X7840149Y-22928784D02*
X7840149Y-23100212D01*
X7840149Y-23100212D02*
X7849673Y-23119260D01*
X7849673Y-23119260D02*
X7868721Y-23128784D01*
X7868721Y-23128784D02*
X7887768Y-23128784D01*
X8030626Y-23119260D02*
X8011578Y-23128784D01*
X8011578Y-23128784D02*
X7973483Y-23128784D01*
X7973483Y-23128784D02*
X7954435Y-23119260D01*
X7954435Y-23119260D02*
X7944911Y-23100212D01*
X7944911Y-23100212D02*
X7944911Y-23024022D01*
X7944911Y-23024022D02*
X7954435Y-23004974D01*
X7954435Y-23004974D02*
X7973483Y-22995450D01*
X7973483Y-22995450D02*
X8011578Y-22995450D01*
X8011578Y-22995450D02*
X8030626Y-23004974D01*
X8030626Y-23004974D02*
X8040149Y-23024022D01*
X8040149Y-23024022D02*
X8040149Y-23043069D01*
X8040149Y-23043069D02*
X7944911Y-23062117D01*
X8211578Y-23128784D02*
X8211578Y-22928784D01*
X8211578Y-23119260D02*
X8192530Y-23128784D01*
X8192530Y-23128784D02*
X8154435Y-23128784D01*
X8154435Y-23128784D02*
X8135388Y-23119260D01*
X8135388Y-23119260D02*
X8125864Y-23109736D01*
X8125864Y-23109736D02*
X8116340Y-23090688D01*
X8116340Y-23090688D02*
X8116340Y-23033546D01*
X8116340Y-23033546D02*
X8125864Y-23014498D01*
X8125864Y-23014498D02*
X8135388Y-23004974D01*
X8135388Y-23004974D02*
X8154435Y-22995450D01*
X8154435Y-22995450D02*
X8192530Y-22995450D01*
X8192530Y-22995450D02*
X8211578Y-23004974D01*
X8287769Y-23204974D02*
X8297292Y-23195450D01*
X8297292Y-23195450D02*
X8316340Y-23166879D01*
X8316340Y-23166879D02*
X8325864Y-23147831D01*
X8325864Y-23147831D02*
X8335388Y-23119260D01*
X8335388Y-23119260D02*
X8344911Y-23071641D01*
X8344911Y-23071641D02*
X8344911Y-23033546D01*
X8344911Y-23033546D02*
X8335388Y-22985927D01*
X8335388Y-22985927D02*
X8325864Y-22957355D01*
X8325864Y-22957355D02*
X8316340Y-22938308D01*
X8316340Y-22938308D02*
X8297292Y-22909736D01*
X8297292Y-22909736D02*
X8287769Y-22900212D01*
X1050801Y-23227480D02*
X1050801Y-23427480D01*
X950801Y-23327480D02*
X1150801Y-23327480D01*
X1392530Y-23218964D02*
X1516339Y-23218964D01*
X1516339Y-23218964D02*
X1449673Y-23295154D01*
X1449673Y-23295154D02*
X1478244Y-23295154D01*
X1478244Y-23295154D02*
X1497292Y-23304678D01*
X1497292Y-23304678D02*
X1506816Y-23314202D01*
X1506816Y-23314202D02*
X1516339Y-23333249D01*
X1516339Y-23333249D02*
X1516339Y-23380868D01*
X1516339Y-23380868D02*
X1506816Y-23399916D01*
X1506816Y-23399916D02*
X1497292Y-23409440D01*
X1497292Y-23409440D02*
X1478244Y-23418964D01*
X1478244Y-23418964D02*
X1421101Y-23418964D01*
X1421101Y-23418964D02*
X1402054Y-23409440D01*
X1402054Y-23409440D02*
X1392530Y-23399916D01*
X1602054Y-23399916D02*
X1611577Y-23409440D01*
X1611577Y-23409440D02*
X1602054Y-23418964D01*
X1602054Y-23418964D02*
X1592530Y-23409440D01*
X1592530Y-23409440D02*
X1602054Y-23399916D01*
X1602054Y-23399916D02*
X1602054Y-23418964D01*
X1735387Y-23218964D02*
X1754435Y-23218964D01*
X1754435Y-23218964D02*
X1773482Y-23228488D01*
X1773482Y-23228488D02*
X1783006Y-23238011D01*
X1783006Y-23238011D02*
X1792530Y-23257059D01*
X1792530Y-23257059D02*
X1802054Y-23295154D01*
X1802054Y-23295154D02*
X1802054Y-23342773D01*
X1802054Y-23342773D02*
X1792530Y-23380868D01*
X1792530Y-23380868D02*
X1783006Y-23399916D01*
X1783006Y-23399916D02*
X1773482Y-23409440D01*
X1773482Y-23409440D02*
X1754435Y-23418964D01*
X1754435Y-23418964D02*
X1735387Y-23418964D01*
X1735387Y-23418964D02*
X1716339Y-23409440D01*
X1716339Y-23409440D02*
X1706816Y-23399916D01*
X1706816Y-23399916D02*
X1697292Y-23380868D01*
X1697292Y-23380868D02*
X1687768Y-23342773D01*
X1687768Y-23342773D02*
X1687768Y-23295154D01*
X1687768Y-23295154D02*
X1697292Y-23257059D01*
X1697292Y-23257059D02*
X1706816Y-23238011D01*
X1706816Y-23238011D02*
X1716339Y-23228488D01*
X1716339Y-23228488D02*
X1735387Y-23218964D01*
X1925863Y-23218964D02*
X1944911Y-23218964D01*
X1944911Y-23218964D02*
X1963958Y-23228488D01*
X1963958Y-23228488D02*
X1973482Y-23238011D01*
X1973482Y-23238011D02*
X1983006Y-23257059D01*
X1983006Y-23257059D02*
X1992530Y-23295154D01*
X1992530Y-23295154D02*
X1992530Y-23342773D01*
X1992530Y-23342773D02*
X1983006Y-23380868D01*
X1983006Y-23380868D02*
X1973482Y-23399916D01*
X1973482Y-23399916D02*
X1963958Y-23409440D01*
X1963958Y-23409440D02*
X1944911Y-23418964D01*
X1944911Y-23418964D02*
X1925863Y-23418964D01*
X1925863Y-23418964D02*
X1906816Y-23409440D01*
X1906816Y-23409440D02*
X1897292Y-23399916D01*
X1897292Y-23399916D02*
X1887768Y-23380868D01*
X1887768Y-23380868D02*
X1878244Y-23342773D01*
X1878244Y-23342773D02*
X1878244Y-23295154D01*
X1878244Y-23295154D02*
X1887768Y-23257059D01*
X1887768Y-23257059D02*
X1897292Y-23238011D01*
X1897292Y-23238011D02*
X1906816Y-23228488D01*
X1906816Y-23228488D02*
X1925863Y-23218964D01*
X2116339Y-23218964D02*
X2135387Y-23218964D01*
X2135387Y-23218964D02*
X2154435Y-23228488D01*
X2154435Y-23228488D02*
X2163959Y-23238011D01*
X2163959Y-23238011D02*
X2173482Y-23257059D01*
X2173482Y-23257059D02*
X2183006Y-23295154D01*
X2183006Y-23295154D02*
X2183006Y-23342773D01*
X2183006Y-23342773D02*
X2173482Y-23380868D01*
X2173482Y-23380868D02*
X2163959Y-23399916D01*
X2163959Y-23399916D02*
X2154435Y-23409440D01*
X2154435Y-23409440D02*
X2135387Y-23418964D01*
X2135387Y-23418964D02*
X2116339Y-23418964D01*
X2116339Y-23418964D02*
X2097292Y-23409440D01*
X2097292Y-23409440D02*
X2087768Y-23399916D01*
X2087768Y-23399916D02*
X2078244Y-23380868D01*
X2078244Y-23380868D02*
X2068720Y-23342773D01*
X2068720Y-23342773D02*
X2068720Y-23295154D01*
X2068720Y-23295154D02*
X2078244Y-23257059D01*
X2078244Y-23257059D02*
X2087768Y-23238011D01*
X2087768Y-23238011D02*
X2097292Y-23228488D01*
X2097292Y-23228488D02*
X2116339Y-23218964D01*
X2268720Y-23418964D02*
X2268720Y-23285630D01*
X2268720Y-23304678D02*
X2278244Y-23295154D01*
X2278244Y-23295154D02*
X2297292Y-23285630D01*
X2297292Y-23285630D02*
X2325863Y-23285630D01*
X2325863Y-23285630D02*
X2344911Y-23295154D01*
X2344911Y-23295154D02*
X2354435Y-23314202D01*
X2354435Y-23314202D02*
X2354435Y-23418964D01*
X2354435Y-23314202D02*
X2363959Y-23295154D01*
X2363959Y-23295154D02*
X2383006Y-23285630D01*
X2383006Y-23285630D02*
X2411578Y-23285630D01*
X2411578Y-23285630D02*
X2430625Y-23295154D01*
X2430625Y-23295154D02*
X2440149Y-23314202D01*
X2440149Y-23314202D02*
X2440149Y-23418964D01*
X2535387Y-23418964D02*
X2535387Y-23285630D01*
X2535387Y-23304678D02*
X2544911Y-23295154D01*
X2544911Y-23295154D02*
X2563959Y-23285630D01*
X2563959Y-23285630D02*
X2592530Y-23285630D01*
X2592530Y-23285630D02*
X2611578Y-23295154D01*
X2611578Y-23295154D02*
X2621101Y-23314202D01*
X2621101Y-23314202D02*
X2621101Y-23418964D01*
X2621101Y-23314202D02*
X2630625Y-23295154D01*
X2630625Y-23295154D02*
X2649673Y-23285630D01*
X2649673Y-23285630D02*
X2678244Y-23285630D01*
X2678244Y-23285630D02*
X2697292Y-23295154D01*
X2697292Y-23295154D02*
X2706816Y-23314202D01*
X2706816Y-23314202D02*
X2706816Y-23418964D01*
X3097292Y-23209440D02*
X2925863Y-23466583D01*
X3354435Y-23218964D02*
X3373482Y-23218964D01*
X3373482Y-23218964D02*
X3392530Y-23228488D01*
X3392530Y-23228488D02*
X3402054Y-23238011D01*
X3402054Y-23238011D02*
X3411578Y-23257059D01*
X3411578Y-23257059D02*
X3421101Y-23295154D01*
X3421101Y-23295154D02*
X3421101Y-23342773D01*
X3421101Y-23342773D02*
X3411578Y-23380868D01*
X3411578Y-23380868D02*
X3402054Y-23399916D01*
X3402054Y-23399916D02*
X3392530Y-23409440D01*
X3392530Y-23409440D02*
X3373482Y-23418964D01*
X3373482Y-23418964D02*
X3354435Y-23418964D01*
X3354435Y-23418964D02*
X3335387Y-23409440D01*
X3335387Y-23409440D02*
X3325863Y-23399916D01*
X3325863Y-23399916D02*
X3316340Y-23380868D01*
X3316340Y-23380868D02*
X3306816Y-23342773D01*
X3306816Y-23342773D02*
X3306816Y-23295154D01*
X3306816Y-23295154D02*
X3316340Y-23257059D01*
X3316340Y-23257059D02*
X3325863Y-23238011D01*
X3325863Y-23238011D02*
X3335387Y-23228488D01*
X3335387Y-23228488D02*
X3354435Y-23218964D01*
X3506816Y-23399916D02*
X3516340Y-23409440D01*
X3516340Y-23409440D02*
X3506816Y-23418964D01*
X3506816Y-23418964D02*
X3497292Y-23409440D01*
X3497292Y-23409440D02*
X3506816Y-23399916D01*
X3506816Y-23399916D02*
X3506816Y-23418964D01*
X3706816Y-23418964D02*
X3592530Y-23418964D01*
X3649673Y-23418964D02*
X3649673Y-23218964D01*
X3649673Y-23218964D02*
X3630625Y-23247535D01*
X3630625Y-23247535D02*
X3611578Y-23266583D01*
X3611578Y-23266583D02*
X3592530Y-23276107D01*
X3897292Y-23418964D02*
X3783006Y-23418964D01*
X3840149Y-23418964D02*
X3840149Y-23218964D01*
X3840149Y-23218964D02*
X3821101Y-23247535D01*
X3821101Y-23247535D02*
X3802054Y-23266583D01*
X3802054Y-23266583D02*
X3783006Y-23276107D01*
X4011578Y-23304678D02*
X3992530Y-23295154D01*
X3992530Y-23295154D02*
X3983006Y-23285630D01*
X3983006Y-23285630D02*
X3973482Y-23266583D01*
X3973482Y-23266583D02*
X3973482Y-23257059D01*
X3973482Y-23257059D02*
X3983006Y-23238011D01*
X3983006Y-23238011D02*
X3992530Y-23228488D01*
X3992530Y-23228488D02*
X4011578Y-23218964D01*
X4011578Y-23218964D02*
X4049673Y-23218964D01*
X4049673Y-23218964D02*
X4068721Y-23228488D01*
X4068721Y-23228488D02*
X4078244Y-23238011D01*
X4078244Y-23238011D02*
X4087768Y-23257059D01*
X4087768Y-23257059D02*
X4087768Y-23266583D01*
X4087768Y-23266583D02*
X4078244Y-23285630D01*
X4078244Y-23285630D02*
X4068721Y-23295154D01*
X4068721Y-23295154D02*
X4049673Y-23304678D01*
X4049673Y-23304678D02*
X4011578Y-23304678D01*
X4011578Y-23304678D02*
X3992530Y-23314202D01*
X3992530Y-23314202D02*
X3983006Y-23323726D01*
X3983006Y-23323726D02*
X3973482Y-23342773D01*
X3973482Y-23342773D02*
X3973482Y-23380868D01*
X3973482Y-23380868D02*
X3983006Y-23399916D01*
X3983006Y-23399916D02*
X3992530Y-23409440D01*
X3992530Y-23409440D02*
X4011578Y-23418964D01*
X4011578Y-23418964D02*
X4049673Y-23418964D01*
X4049673Y-23418964D02*
X4068721Y-23409440D01*
X4068721Y-23409440D02*
X4078244Y-23399916D01*
X4078244Y-23399916D02*
X4087768Y-23380868D01*
X4087768Y-23380868D02*
X4087768Y-23342773D01*
X4087768Y-23342773D02*
X4078244Y-23323726D01*
X4078244Y-23323726D02*
X4068721Y-23314202D01*
X4068721Y-23314202D02*
X4049673Y-23304678D01*
X4278244Y-23418964D02*
X4163959Y-23418964D01*
X4221102Y-23418964D02*
X4221102Y-23218964D01*
X4221102Y-23218964D02*
X4202054Y-23247535D01*
X4202054Y-23247535D02*
X4183006Y-23266583D01*
X4183006Y-23266583D02*
X4163959Y-23276107D01*
X4354435Y-23218964D02*
X4354435Y-23257059D01*
X4430625Y-23218964D02*
X4430625Y-23257059D01*
X4725864Y-23495154D02*
X4716340Y-23485630D01*
X4716340Y-23485630D02*
X4697292Y-23457059D01*
X4697292Y-23457059D02*
X4687768Y-23438011D01*
X4687768Y-23438011D02*
X4678245Y-23409440D01*
X4678245Y-23409440D02*
X4668721Y-23361821D01*
X4668721Y-23361821D02*
X4668721Y-23323726D01*
X4668721Y-23323726D02*
X4678245Y-23276107D01*
X4678245Y-23276107D02*
X4687768Y-23247535D01*
X4687768Y-23247535D02*
X4697292Y-23228488D01*
X4697292Y-23228488D02*
X4716340Y-23199916D01*
X4716340Y-23199916D02*
X4725864Y-23190392D01*
X4906816Y-23418964D02*
X4792530Y-23418964D01*
X4849673Y-23418964D02*
X4849673Y-23218964D01*
X4849673Y-23218964D02*
X4830625Y-23247535D01*
X4830625Y-23247535D02*
X4811578Y-23266583D01*
X4811578Y-23266583D02*
X4792530Y-23276107D01*
X5087768Y-23218964D02*
X4992530Y-23218964D01*
X4992530Y-23218964D02*
X4983006Y-23314202D01*
X4983006Y-23314202D02*
X4992530Y-23304678D01*
X4992530Y-23304678D02*
X5011578Y-23295154D01*
X5011578Y-23295154D02*
X5059197Y-23295154D01*
X5059197Y-23295154D02*
X5078245Y-23304678D01*
X5078245Y-23304678D02*
X5087768Y-23314202D01*
X5087768Y-23314202D02*
X5097292Y-23333249D01*
X5097292Y-23333249D02*
X5097292Y-23380868D01*
X5097292Y-23380868D02*
X5087768Y-23399916D01*
X5087768Y-23399916D02*
X5078245Y-23409440D01*
X5078245Y-23409440D02*
X5059197Y-23418964D01*
X5059197Y-23418964D02*
X5011578Y-23418964D01*
X5011578Y-23418964D02*
X4992530Y-23409440D01*
X4992530Y-23409440D02*
X4983006Y-23399916D01*
X5221102Y-23218964D02*
X5240149Y-23218964D01*
X5240149Y-23218964D02*
X5259197Y-23228488D01*
X5259197Y-23228488D02*
X5268721Y-23238011D01*
X5268721Y-23238011D02*
X5278245Y-23257059D01*
X5278245Y-23257059D02*
X5287768Y-23295154D01*
X5287768Y-23295154D02*
X5287768Y-23342773D01*
X5287768Y-23342773D02*
X5278245Y-23380868D01*
X5278245Y-23380868D02*
X5268721Y-23399916D01*
X5268721Y-23399916D02*
X5259197Y-23409440D01*
X5259197Y-23409440D02*
X5240149Y-23418964D01*
X5240149Y-23418964D02*
X5221102Y-23418964D01*
X5221102Y-23418964D02*
X5202054Y-23409440D01*
X5202054Y-23409440D02*
X5192530Y-23399916D01*
X5192530Y-23399916D02*
X5183006Y-23380868D01*
X5183006Y-23380868D02*
X5173483Y-23342773D01*
X5173483Y-23342773D02*
X5173483Y-23295154D01*
X5173483Y-23295154D02*
X5183006Y-23257059D01*
X5183006Y-23257059D02*
X5192530Y-23238011D01*
X5192530Y-23238011D02*
X5202054Y-23228488D01*
X5202054Y-23228488D02*
X5221102Y-23218964D01*
X5525864Y-23418964D02*
X5525864Y-23218964D01*
X5611578Y-23418964D02*
X5611578Y-23314202D01*
X5611578Y-23314202D02*
X5602054Y-23295154D01*
X5602054Y-23295154D02*
X5583007Y-23285630D01*
X5583007Y-23285630D02*
X5554435Y-23285630D01*
X5554435Y-23285630D02*
X5535387Y-23295154D01*
X5535387Y-23295154D02*
X5525864Y-23304678D01*
X5735387Y-23418964D02*
X5716340Y-23409440D01*
X5716340Y-23409440D02*
X5706816Y-23399916D01*
X5706816Y-23399916D02*
X5697292Y-23380868D01*
X5697292Y-23380868D02*
X5697292Y-23323726D01*
X5697292Y-23323726D02*
X5706816Y-23304678D01*
X5706816Y-23304678D02*
X5716340Y-23295154D01*
X5716340Y-23295154D02*
X5735387Y-23285630D01*
X5735387Y-23285630D02*
X5763959Y-23285630D01*
X5763959Y-23285630D02*
X5783006Y-23295154D01*
X5783006Y-23295154D02*
X5792530Y-23304678D01*
X5792530Y-23304678D02*
X5802054Y-23323726D01*
X5802054Y-23323726D02*
X5802054Y-23380868D01*
X5802054Y-23380868D02*
X5792530Y-23399916D01*
X5792530Y-23399916D02*
X5783006Y-23409440D01*
X5783006Y-23409440D02*
X5763959Y-23418964D01*
X5763959Y-23418964D02*
X5735387Y-23418964D01*
X5916340Y-23418964D02*
X5897292Y-23409440D01*
X5897292Y-23409440D02*
X5887768Y-23390392D01*
X5887768Y-23390392D02*
X5887768Y-23218964D01*
X6068721Y-23409440D02*
X6049673Y-23418964D01*
X6049673Y-23418964D02*
X6011578Y-23418964D01*
X6011578Y-23418964D02*
X5992530Y-23409440D01*
X5992530Y-23409440D02*
X5983006Y-23390392D01*
X5983006Y-23390392D02*
X5983006Y-23314202D01*
X5983006Y-23314202D02*
X5992530Y-23295154D01*
X5992530Y-23295154D02*
X6011578Y-23285630D01*
X6011578Y-23285630D02*
X6049673Y-23285630D01*
X6049673Y-23285630D02*
X6068721Y-23295154D01*
X6068721Y-23295154D02*
X6078245Y-23314202D01*
X6078245Y-23314202D02*
X6078245Y-23333249D01*
X6078245Y-23333249D02*
X5983006Y-23352297D01*
X6154435Y-23409440D02*
X6173483Y-23418964D01*
X6173483Y-23418964D02*
X6211578Y-23418964D01*
X6211578Y-23418964D02*
X6230626Y-23409440D01*
X6230626Y-23409440D02*
X6240149Y-23390392D01*
X6240149Y-23390392D02*
X6240149Y-23380868D01*
X6240149Y-23380868D02*
X6230626Y-23361821D01*
X6230626Y-23361821D02*
X6211578Y-23352297D01*
X6211578Y-23352297D02*
X6183006Y-23352297D01*
X6183006Y-23352297D02*
X6163959Y-23342773D01*
X6163959Y-23342773D02*
X6154435Y-23323726D01*
X6154435Y-23323726D02*
X6154435Y-23314202D01*
X6154435Y-23314202D02*
X6163959Y-23295154D01*
X6163959Y-23295154D02*
X6183006Y-23285630D01*
X6183006Y-23285630D02*
X6211578Y-23285630D01*
X6211578Y-23285630D02*
X6230626Y-23295154D01*
X6306816Y-23495154D02*
X6316340Y-23485630D01*
X6316340Y-23485630D02*
X6335387Y-23457059D01*
X6335387Y-23457059D02*
X6344911Y-23438011D01*
X6344911Y-23438011D02*
X6354435Y-23409440D01*
X6354435Y-23409440D02*
X6363959Y-23361821D01*
X6363959Y-23361821D02*
X6363959Y-23323726D01*
X6363959Y-23323726D02*
X6354435Y-23276107D01*
X6354435Y-23276107D02*
X6344911Y-23247535D01*
X6344911Y-23247535D02*
X6335387Y-23228488D01*
X6335387Y-23228488D02*
X6316340Y-23199916D01*
X6316340Y-23199916D02*
X6306816Y-23190392D01*
X6668721Y-23495154D02*
X6659197Y-23485630D01*
X6659197Y-23485630D02*
X6640149Y-23457059D01*
X6640149Y-23457059D02*
X6630626Y-23438011D01*
X6630626Y-23438011D02*
X6621102Y-23409440D01*
X6621102Y-23409440D02*
X6611578Y-23361821D01*
X6611578Y-23361821D02*
X6611578Y-23323726D01*
X6611578Y-23323726D02*
X6621102Y-23276107D01*
X6621102Y-23276107D02*
X6630626Y-23247535D01*
X6630626Y-23247535D02*
X6640149Y-23228488D01*
X6640149Y-23228488D02*
X6659197Y-23199916D01*
X6659197Y-23199916D02*
X6668721Y-23190392D01*
X6744911Y-23285630D02*
X6744911Y-23418964D01*
X6744911Y-23304678D02*
X6754435Y-23295154D01*
X6754435Y-23295154D02*
X6773483Y-23285630D01*
X6773483Y-23285630D02*
X6802054Y-23285630D01*
X6802054Y-23285630D02*
X6821102Y-23295154D01*
X6821102Y-23295154D02*
X6830626Y-23314202D01*
X6830626Y-23314202D02*
X6830626Y-23418964D01*
X6954435Y-23418964D02*
X6935387Y-23409440D01*
X6935387Y-23409440D02*
X6925864Y-23399916D01*
X6925864Y-23399916D02*
X6916340Y-23380868D01*
X6916340Y-23380868D02*
X6916340Y-23323726D01*
X6916340Y-23323726D02*
X6925864Y-23304678D01*
X6925864Y-23304678D02*
X6935387Y-23295154D01*
X6935387Y-23295154D02*
X6954435Y-23285630D01*
X6954435Y-23285630D02*
X6983007Y-23285630D01*
X6983007Y-23285630D02*
X7002054Y-23295154D01*
X7002054Y-23295154D02*
X7011578Y-23304678D01*
X7011578Y-23304678D02*
X7021102Y-23323726D01*
X7021102Y-23323726D02*
X7021102Y-23380868D01*
X7021102Y-23380868D02*
X7011578Y-23399916D01*
X7011578Y-23399916D02*
X7002054Y-23409440D01*
X7002054Y-23409440D02*
X6983007Y-23418964D01*
X6983007Y-23418964D02*
X6954435Y-23418964D01*
X7078245Y-23285630D02*
X7154435Y-23285630D01*
X7106816Y-23218964D02*
X7106816Y-23390392D01*
X7106816Y-23390392D02*
X7116340Y-23409440D01*
X7116340Y-23409440D02*
X7135387Y-23418964D01*
X7135387Y-23418964D02*
X7154435Y-23418964D01*
X7373483Y-23285630D02*
X7373483Y-23485630D01*
X7373483Y-23295154D02*
X7392530Y-23285630D01*
X7392530Y-23285630D02*
X7430626Y-23285630D01*
X7430626Y-23285630D02*
X7449673Y-23295154D01*
X7449673Y-23295154D02*
X7459197Y-23304678D01*
X7459197Y-23304678D02*
X7468721Y-23323726D01*
X7468721Y-23323726D02*
X7468721Y-23380868D01*
X7468721Y-23380868D02*
X7459197Y-23399916D01*
X7459197Y-23399916D02*
X7449673Y-23409440D01*
X7449673Y-23409440D02*
X7430626Y-23418964D01*
X7430626Y-23418964D02*
X7392530Y-23418964D01*
X7392530Y-23418964D02*
X7373483Y-23409440D01*
X7583007Y-23418964D02*
X7563959Y-23409440D01*
X7563959Y-23409440D02*
X7554435Y-23390392D01*
X7554435Y-23390392D02*
X7554435Y-23218964D01*
X7744911Y-23418964D02*
X7744911Y-23314202D01*
X7744911Y-23314202D02*
X7735388Y-23295154D01*
X7735388Y-23295154D02*
X7716340Y-23285630D01*
X7716340Y-23285630D02*
X7678245Y-23285630D01*
X7678245Y-23285630D02*
X7659197Y-23295154D01*
X7744911Y-23409440D02*
X7725864Y-23418964D01*
X7725864Y-23418964D02*
X7678245Y-23418964D01*
X7678245Y-23418964D02*
X7659197Y-23409440D01*
X7659197Y-23409440D02*
X7649673Y-23390392D01*
X7649673Y-23390392D02*
X7649673Y-23371345D01*
X7649673Y-23371345D02*
X7659197Y-23352297D01*
X7659197Y-23352297D02*
X7678245Y-23342773D01*
X7678245Y-23342773D02*
X7725864Y-23342773D01*
X7725864Y-23342773D02*
X7744911Y-23333249D01*
X7811578Y-23285630D02*
X7887768Y-23285630D01*
X7840149Y-23218964D02*
X7840149Y-23390392D01*
X7840149Y-23390392D02*
X7849673Y-23409440D01*
X7849673Y-23409440D02*
X7868721Y-23418964D01*
X7868721Y-23418964D02*
X7887768Y-23418964D01*
X8030626Y-23409440D02*
X8011578Y-23418964D01*
X8011578Y-23418964D02*
X7973483Y-23418964D01*
X7973483Y-23418964D02*
X7954435Y-23409440D01*
X7954435Y-23409440D02*
X7944911Y-23390392D01*
X7944911Y-23390392D02*
X7944911Y-23314202D01*
X7944911Y-23314202D02*
X7954435Y-23295154D01*
X7954435Y-23295154D02*
X7973483Y-23285630D01*
X7973483Y-23285630D02*
X8011578Y-23285630D01*
X8011578Y-23285630D02*
X8030626Y-23295154D01*
X8030626Y-23295154D02*
X8040149Y-23314202D01*
X8040149Y-23314202D02*
X8040149Y-23333249D01*
X8040149Y-23333249D02*
X7944911Y-23352297D01*
X8211578Y-23418964D02*
X8211578Y-23218964D01*
X8211578Y-23409440D02*
X8192530Y-23418964D01*
X8192530Y-23418964D02*
X8154435Y-23418964D01*
X8154435Y-23418964D02*
X8135388Y-23409440D01*
X8135388Y-23409440D02*
X8125864Y-23399916D01*
X8125864Y-23399916D02*
X8116340Y-23380868D01*
X8116340Y-23380868D02*
X8116340Y-23323726D01*
X8116340Y-23323726D02*
X8125864Y-23304678D01*
X8125864Y-23304678D02*
X8135388Y-23295154D01*
X8135388Y-23295154D02*
X8154435Y-23285630D01*
X8154435Y-23285630D02*
X8192530Y-23285630D01*
X8192530Y-23285630D02*
X8211578Y-23295154D01*
X8287769Y-23495154D02*
X8297292Y-23485630D01*
X8297292Y-23485630D02*
X8316340Y-23457059D01*
X8316340Y-23457059D02*
X8325864Y-23438011D01*
X8325864Y-23438011D02*
X8335388Y-23409440D01*
X8335388Y-23409440D02*
X8344911Y-23361821D01*
X8344911Y-23361821D02*
X8344911Y-23323726D01*
X8344911Y-23323726D02*
X8335388Y-23276107D01*
X8335388Y-23276107D02*
X8325864Y-23247535D01*
X8325864Y-23247535D02*
X8316340Y-23228488D01*
X8316340Y-23228488D02*
X8297292Y-23199916D01*
X8297292Y-23199916D02*
X8287769Y-23190392D01*
X1121512Y-23718191D02*
X1121512Y-23576769D01*
X980089Y-23576769D01*
X980089Y-23718191D01*
X1121512Y-23718191D01*
X1392530Y-23538964D02*
X1516339Y-23538964D01*
X1516339Y-23538964D02*
X1449673Y-23615154D01*
X1449673Y-23615154D02*
X1478244Y-23615154D01*
X1478244Y-23615154D02*
X1497292Y-23624678D01*
X1497292Y-23624678D02*
X1506816Y-23634202D01*
X1506816Y-23634202D02*
X1516339Y-23653249D01*
X1516339Y-23653249D02*
X1516339Y-23700868D01*
X1516339Y-23700868D02*
X1506816Y-23719916D01*
X1506816Y-23719916D02*
X1497292Y-23729440D01*
X1497292Y-23729440D02*
X1478244Y-23738964D01*
X1478244Y-23738964D02*
X1421101Y-23738964D01*
X1421101Y-23738964D02*
X1402054Y-23729440D01*
X1402054Y-23729440D02*
X1392530Y-23719916D01*
X1602054Y-23719916D02*
X1611577Y-23729440D01*
X1611577Y-23729440D02*
X1602054Y-23738964D01*
X1602054Y-23738964D02*
X1592530Y-23729440D01*
X1592530Y-23729440D02*
X1602054Y-23719916D01*
X1602054Y-23719916D02*
X1602054Y-23738964D01*
X1706816Y-23738964D02*
X1744911Y-23738964D01*
X1744911Y-23738964D02*
X1763958Y-23729440D01*
X1763958Y-23729440D02*
X1773482Y-23719916D01*
X1773482Y-23719916D02*
X1792530Y-23691345D01*
X1792530Y-23691345D02*
X1802054Y-23653249D01*
X1802054Y-23653249D02*
X1802054Y-23577059D01*
X1802054Y-23577059D02*
X1792530Y-23558011D01*
X1792530Y-23558011D02*
X1783006Y-23548488D01*
X1783006Y-23548488D02*
X1763958Y-23538964D01*
X1763958Y-23538964D02*
X1725863Y-23538964D01*
X1725863Y-23538964D02*
X1706816Y-23548488D01*
X1706816Y-23548488D02*
X1697292Y-23558011D01*
X1697292Y-23558011D02*
X1687768Y-23577059D01*
X1687768Y-23577059D02*
X1687768Y-23624678D01*
X1687768Y-23624678D02*
X1697292Y-23643726D01*
X1697292Y-23643726D02*
X1706816Y-23653249D01*
X1706816Y-23653249D02*
X1725863Y-23662773D01*
X1725863Y-23662773D02*
X1763958Y-23662773D01*
X1763958Y-23662773D02*
X1783006Y-23653249D01*
X1783006Y-23653249D02*
X1792530Y-23643726D01*
X1792530Y-23643726D02*
X1802054Y-23624678D01*
X1916339Y-23624678D02*
X1897292Y-23615154D01*
X1897292Y-23615154D02*
X1887768Y-23605630D01*
X1887768Y-23605630D02*
X1878244Y-23586583D01*
X1878244Y-23586583D02*
X1878244Y-23577059D01*
X1878244Y-23577059D02*
X1887768Y-23558011D01*
X1887768Y-23558011D02*
X1897292Y-23548488D01*
X1897292Y-23548488D02*
X1916339Y-23538964D01*
X1916339Y-23538964D02*
X1954435Y-23538964D01*
X1954435Y-23538964D02*
X1973482Y-23548488D01*
X1973482Y-23548488D02*
X1983006Y-23558011D01*
X1983006Y-23558011D02*
X1992530Y-23577059D01*
X1992530Y-23577059D02*
X1992530Y-23586583D01*
X1992530Y-23586583D02*
X1983006Y-23605630D01*
X1983006Y-23605630D02*
X1973482Y-23615154D01*
X1973482Y-23615154D02*
X1954435Y-23624678D01*
X1954435Y-23624678D02*
X1916339Y-23624678D01*
X1916339Y-23624678D02*
X1897292Y-23634202D01*
X1897292Y-23634202D02*
X1887768Y-23643726D01*
X1887768Y-23643726D02*
X1878244Y-23662773D01*
X1878244Y-23662773D02*
X1878244Y-23700868D01*
X1878244Y-23700868D02*
X1887768Y-23719916D01*
X1887768Y-23719916D02*
X1897292Y-23729440D01*
X1897292Y-23729440D02*
X1916339Y-23738964D01*
X1916339Y-23738964D02*
X1954435Y-23738964D01*
X1954435Y-23738964D02*
X1973482Y-23729440D01*
X1973482Y-23729440D02*
X1983006Y-23719916D01*
X1983006Y-23719916D02*
X1992530Y-23700868D01*
X1992530Y-23700868D02*
X1992530Y-23662773D01*
X1992530Y-23662773D02*
X1983006Y-23643726D01*
X1983006Y-23643726D02*
X1973482Y-23634202D01*
X1973482Y-23634202D02*
X1954435Y-23624678D01*
X2106816Y-23624678D02*
X2087768Y-23615154D01*
X2087768Y-23615154D02*
X2078244Y-23605630D01*
X2078244Y-23605630D02*
X2068720Y-23586583D01*
X2068720Y-23586583D02*
X2068720Y-23577059D01*
X2068720Y-23577059D02*
X2078244Y-23558011D01*
X2078244Y-23558011D02*
X2087768Y-23548488D01*
X2087768Y-23548488D02*
X2106816Y-23538964D01*
X2106816Y-23538964D02*
X2144911Y-23538964D01*
X2144911Y-23538964D02*
X2163959Y-23548488D01*
X2163959Y-23548488D02*
X2173482Y-23558011D01*
X2173482Y-23558011D02*
X2183006Y-23577059D01*
X2183006Y-23577059D02*
X2183006Y-23586583D01*
X2183006Y-23586583D02*
X2173482Y-23605630D01*
X2173482Y-23605630D02*
X2163959Y-23615154D01*
X2163959Y-23615154D02*
X2144911Y-23624678D01*
X2144911Y-23624678D02*
X2106816Y-23624678D01*
X2106816Y-23624678D02*
X2087768Y-23634202D01*
X2087768Y-23634202D02*
X2078244Y-23643726D01*
X2078244Y-23643726D02*
X2068720Y-23662773D01*
X2068720Y-23662773D02*
X2068720Y-23700868D01*
X2068720Y-23700868D02*
X2078244Y-23719916D01*
X2078244Y-23719916D02*
X2087768Y-23729440D01*
X2087768Y-23729440D02*
X2106816Y-23738964D01*
X2106816Y-23738964D02*
X2144911Y-23738964D01*
X2144911Y-23738964D02*
X2163959Y-23729440D01*
X2163959Y-23729440D02*
X2173482Y-23719916D01*
X2173482Y-23719916D02*
X2183006Y-23700868D01*
X2183006Y-23700868D02*
X2183006Y-23662773D01*
X2183006Y-23662773D02*
X2173482Y-23643726D01*
X2173482Y-23643726D02*
X2163959Y-23634202D01*
X2163959Y-23634202D02*
X2144911Y-23624678D01*
X2268720Y-23738964D02*
X2268720Y-23605630D01*
X2268720Y-23624678D02*
X2278244Y-23615154D01*
X2278244Y-23615154D02*
X2297292Y-23605630D01*
X2297292Y-23605630D02*
X2325863Y-23605630D01*
X2325863Y-23605630D02*
X2344911Y-23615154D01*
X2344911Y-23615154D02*
X2354435Y-23634202D01*
X2354435Y-23634202D02*
X2354435Y-23738964D01*
X2354435Y-23634202D02*
X2363959Y-23615154D01*
X2363959Y-23615154D02*
X2383006Y-23605630D01*
X2383006Y-23605630D02*
X2411578Y-23605630D01*
X2411578Y-23605630D02*
X2430625Y-23615154D01*
X2430625Y-23615154D02*
X2440149Y-23634202D01*
X2440149Y-23634202D02*
X2440149Y-23738964D01*
X2535387Y-23738964D02*
X2535387Y-23605630D01*
X2535387Y-23624678D02*
X2544911Y-23615154D01*
X2544911Y-23615154D02*
X2563959Y-23605630D01*
X2563959Y-23605630D02*
X2592530Y-23605630D01*
X2592530Y-23605630D02*
X2611578Y-23615154D01*
X2611578Y-23615154D02*
X2621101Y-23634202D01*
X2621101Y-23634202D02*
X2621101Y-23738964D01*
X2621101Y-23634202D02*
X2630625Y-23615154D01*
X2630625Y-23615154D02*
X2649673Y-23605630D01*
X2649673Y-23605630D02*
X2678244Y-23605630D01*
X2678244Y-23605630D02*
X2697292Y-23615154D01*
X2697292Y-23615154D02*
X2706816Y-23634202D01*
X2706816Y-23634202D02*
X2706816Y-23738964D01*
X3097292Y-23529440D02*
X2925863Y-23786583D01*
X3354435Y-23538964D02*
X3373482Y-23538964D01*
X3373482Y-23538964D02*
X3392530Y-23548488D01*
X3392530Y-23548488D02*
X3402054Y-23558011D01*
X3402054Y-23558011D02*
X3411578Y-23577059D01*
X3411578Y-23577059D02*
X3421101Y-23615154D01*
X3421101Y-23615154D02*
X3421101Y-23662773D01*
X3421101Y-23662773D02*
X3411578Y-23700868D01*
X3411578Y-23700868D02*
X3402054Y-23719916D01*
X3402054Y-23719916D02*
X3392530Y-23729440D01*
X3392530Y-23729440D02*
X3373482Y-23738964D01*
X3373482Y-23738964D02*
X3354435Y-23738964D01*
X3354435Y-23738964D02*
X3335387Y-23729440D01*
X3335387Y-23729440D02*
X3325863Y-23719916D01*
X3325863Y-23719916D02*
X3316340Y-23700868D01*
X3316340Y-23700868D02*
X3306816Y-23662773D01*
X3306816Y-23662773D02*
X3306816Y-23615154D01*
X3306816Y-23615154D02*
X3316340Y-23577059D01*
X3316340Y-23577059D02*
X3325863Y-23558011D01*
X3325863Y-23558011D02*
X3335387Y-23548488D01*
X3335387Y-23548488D02*
X3354435Y-23538964D01*
X3506816Y-23719916D02*
X3516340Y-23729440D01*
X3516340Y-23729440D02*
X3506816Y-23738964D01*
X3506816Y-23738964D02*
X3497292Y-23729440D01*
X3497292Y-23729440D02*
X3506816Y-23719916D01*
X3506816Y-23719916D02*
X3506816Y-23738964D01*
X3706816Y-23738964D02*
X3592530Y-23738964D01*
X3649673Y-23738964D02*
X3649673Y-23538964D01*
X3649673Y-23538964D02*
X3630625Y-23567535D01*
X3630625Y-23567535D02*
X3611578Y-23586583D01*
X3611578Y-23586583D02*
X3592530Y-23596107D01*
X3887768Y-23538964D02*
X3792530Y-23538964D01*
X3792530Y-23538964D02*
X3783006Y-23634202D01*
X3783006Y-23634202D02*
X3792530Y-23624678D01*
X3792530Y-23624678D02*
X3811578Y-23615154D01*
X3811578Y-23615154D02*
X3859197Y-23615154D01*
X3859197Y-23615154D02*
X3878244Y-23624678D01*
X3878244Y-23624678D02*
X3887768Y-23634202D01*
X3887768Y-23634202D02*
X3897292Y-23653249D01*
X3897292Y-23653249D02*
X3897292Y-23700868D01*
X3897292Y-23700868D02*
X3887768Y-23719916D01*
X3887768Y-23719916D02*
X3878244Y-23729440D01*
X3878244Y-23729440D02*
X3859197Y-23738964D01*
X3859197Y-23738964D02*
X3811578Y-23738964D01*
X3811578Y-23738964D02*
X3792530Y-23729440D01*
X3792530Y-23729440D02*
X3783006Y-23719916D01*
X3963959Y-23538964D02*
X4097292Y-23538964D01*
X4097292Y-23538964D02*
X4011578Y-23738964D01*
X4211578Y-23538964D02*
X4230625Y-23538964D01*
X4230625Y-23538964D02*
X4249673Y-23548488D01*
X4249673Y-23548488D02*
X4259197Y-23558011D01*
X4259197Y-23558011D02*
X4268721Y-23577059D01*
X4268721Y-23577059D02*
X4278244Y-23615154D01*
X4278244Y-23615154D02*
X4278244Y-23662773D01*
X4278244Y-23662773D02*
X4268721Y-23700868D01*
X4268721Y-23700868D02*
X4259197Y-23719916D01*
X4259197Y-23719916D02*
X4249673Y-23729440D01*
X4249673Y-23729440D02*
X4230625Y-23738964D01*
X4230625Y-23738964D02*
X4211578Y-23738964D01*
X4211578Y-23738964D02*
X4192530Y-23729440D01*
X4192530Y-23729440D02*
X4183006Y-23719916D01*
X4183006Y-23719916D02*
X4173482Y-23700868D01*
X4173482Y-23700868D02*
X4163959Y-23662773D01*
X4163959Y-23662773D02*
X4163959Y-23615154D01*
X4163959Y-23615154D02*
X4173482Y-23577059D01*
X4173482Y-23577059D02*
X4183006Y-23558011D01*
X4183006Y-23558011D02*
X4192530Y-23548488D01*
X4192530Y-23548488D02*
X4211578Y-23538964D01*
X4354435Y-23538964D02*
X4354435Y-23577059D01*
X4430625Y-23538964D02*
X4430625Y-23577059D01*
X4725864Y-23815154D02*
X4716340Y-23805630D01*
X4716340Y-23805630D02*
X4697292Y-23777059D01*
X4697292Y-23777059D02*
X4687768Y-23758011D01*
X4687768Y-23758011D02*
X4678245Y-23729440D01*
X4678245Y-23729440D02*
X4668721Y-23681821D01*
X4668721Y-23681821D02*
X4668721Y-23643726D01*
X4668721Y-23643726D02*
X4678245Y-23596107D01*
X4678245Y-23596107D02*
X4687768Y-23567535D01*
X4687768Y-23567535D02*
X4697292Y-23548488D01*
X4697292Y-23548488D02*
X4716340Y-23519916D01*
X4716340Y-23519916D02*
X4725864Y-23510392D01*
X4783006Y-23538964D02*
X4916340Y-23538964D01*
X4916340Y-23538964D02*
X4830625Y-23738964D01*
X5087768Y-23538964D02*
X4992530Y-23538964D01*
X4992530Y-23538964D02*
X4983006Y-23634202D01*
X4983006Y-23634202D02*
X4992530Y-23624678D01*
X4992530Y-23624678D02*
X5011578Y-23615154D01*
X5011578Y-23615154D02*
X5059197Y-23615154D01*
X5059197Y-23615154D02*
X5078245Y-23624678D01*
X5078245Y-23624678D02*
X5087768Y-23634202D01*
X5087768Y-23634202D02*
X5097292Y-23653249D01*
X5097292Y-23653249D02*
X5097292Y-23700868D01*
X5097292Y-23700868D02*
X5087768Y-23719916D01*
X5087768Y-23719916D02*
X5078245Y-23729440D01*
X5078245Y-23729440D02*
X5059197Y-23738964D01*
X5059197Y-23738964D02*
X5011578Y-23738964D01*
X5011578Y-23738964D02*
X4992530Y-23729440D01*
X4992530Y-23729440D02*
X4983006Y-23719916D01*
X5335387Y-23738964D02*
X5335387Y-23538964D01*
X5421102Y-23738964D02*
X5421102Y-23634202D01*
X5421102Y-23634202D02*
X5411578Y-23615154D01*
X5411578Y-23615154D02*
X5392530Y-23605630D01*
X5392530Y-23605630D02*
X5363959Y-23605630D01*
X5363959Y-23605630D02*
X5344911Y-23615154D01*
X5344911Y-23615154D02*
X5335387Y-23624678D01*
X5544911Y-23738964D02*
X5525864Y-23729440D01*
X5525864Y-23729440D02*
X5516340Y-23719916D01*
X5516340Y-23719916D02*
X5506816Y-23700868D01*
X5506816Y-23700868D02*
X5506816Y-23643726D01*
X5506816Y-23643726D02*
X5516340Y-23624678D01*
X5516340Y-23624678D02*
X5525864Y-23615154D01*
X5525864Y-23615154D02*
X5544911Y-23605630D01*
X5544911Y-23605630D02*
X5573483Y-23605630D01*
X5573483Y-23605630D02*
X5592530Y-23615154D01*
X5592530Y-23615154D02*
X5602054Y-23624678D01*
X5602054Y-23624678D02*
X5611578Y-23643726D01*
X5611578Y-23643726D02*
X5611578Y-23700868D01*
X5611578Y-23700868D02*
X5602054Y-23719916D01*
X5602054Y-23719916D02*
X5592530Y-23729440D01*
X5592530Y-23729440D02*
X5573483Y-23738964D01*
X5573483Y-23738964D02*
X5544911Y-23738964D01*
X5725864Y-23738964D02*
X5706816Y-23729440D01*
X5706816Y-23729440D02*
X5697292Y-23710392D01*
X5697292Y-23710392D02*
X5697292Y-23538964D01*
X5878245Y-23729440D02*
X5859197Y-23738964D01*
X5859197Y-23738964D02*
X5821102Y-23738964D01*
X5821102Y-23738964D02*
X5802054Y-23729440D01*
X5802054Y-23729440D02*
X5792530Y-23710392D01*
X5792530Y-23710392D02*
X5792530Y-23634202D01*
X5792530Y-23634202D02*
X5802054Y-23615154D01*
X5802054Y-23615154D02*
X5821102Y-23605630D01*
X5821102Y-23605630D02*
X5859197Y-23605630D01*
X5859197Y-23605630D02*
X5878245Y-23615154D01*
X5878245Y-23615154D02*
X5887768Y-23634202D01*
X5887768Y-23634202D02*
X5887768Y-23653249D01*
X5887768Y-23653249D02*
X5792530Y-23672297D01*
X5963959Y-23729440D02*
X5983006Y-23738964D01*
X5983006Y-23738964D02*
X6021102Y-23738964D01*
X6021102Y-23738964D02*
X6040149Y-23729440D01*
X6040149Y-23729440D02*
X6049673Y-23710392D01*
X6049673Y-23710392D02*
X6049673Y-23700868D01*
X6049673Y-23700868D02*
X6040149Y-23681821D01*
X6040149Y-23681821D02*
X6021102Y-23672297D01*
X6021102Y-23672297D02*
X5992530Y-23672297D01*
X5992530Y-23672297D02*
X5973483Y-23662773D01*
X5973483Y-23662773D02*
X5963959Y-23643726D01*
X5963959Y-23643726D02*
X5963959Y-23634202D01*
X5963959Y-23634202D02*
X5973483Y-23615154D01*
X5973483Y-23615154D02*
X5992530Y-23605630D01*
X5992530Y-23605630D02*
X6021102Y-23605630D01*
X6021102Y-23605630D02*
X6040149Y-23615154D01*
X6116340Y-23815154D02*
X6125864Y-23805630D01*
X6125864Y-23805630D02*
X6144911Y-23777059D01*
X6144911Y-23777059D02*
X6154435Y-23758011D01*
X6154435Y-23758011D02*
X6163959Y-23729440D01*
X6163959Y-23729440D02*
X6173483Y-23681821D01*
X6173483Y-23681821D02*
X6173483Y-23643726D01*
X6173483Y-23643726D02*
X6163959Y-23596107D01*
X6163959Y-23596107D02*
X6154435Y-23567535D01*
X6154435Y-23567535D02*
X6144911Y-23548488D01*
X6144911Y-23548488D02*
X6125864Y-23519916D01*
X6125864Y-23519916D02*
X6116340Y-23510392D01*
X6478245Y-23815154D02*
X6468721Y-23805630D01*
X6468721Y-23805630D02*
X6449673Y-23777059D01*
X6449673Y-23777059D02*
X6440149Y-23758011D01*
X6440149Y-23758011D02*
X6430626Y-23729440D01*
X6430626Y-23729440D02*
X6421102Y-23681821D01*
X6421102Y-23681821D02*
X6421102Y-23643726D01*
X6421102Y-23643726D02*
X6430626Y-23596107D01*
X6430626Y-23596107D02*
X6440149Y-23567535D01*
X6440149Y-23567535D02*
X6449673Y-23548488D01*
X6449673Y-23548488D02*
X6468721Y-23519916D01*
X6468721Y-23519916D02*
X6478245Y-23510392D01*
X6554435Y-23605630D02*
X6554435Y-23738964D01*
X6554435Y-23624678D02*
X6563959Y-23615154D01*
X6563959Y-23615154D02*
X6583006Y-23605630D01*
X6583006Y-23605630D02*
X6611578Y-23605630D01*
X6611578Y-23605630D02*
X6630626Y-23615154D01*
X6630626Y-23615154D02*
X6640149Y-23634202D01*
X6640149Y-23634202D02*
X6640149Y-23738964D01*
X6763959Y-23738964D02*
X6744911Y-23729440D01*
X6744911Y-23729440D02*
X6735387Y-23719916D01*
X6735387Y-23719916D02*
X6725864Y-23700868D01*
X6725864Y-23700868D02*
X6725864Y-23643726D01*
X6725864Y-23643726D02*
X6735387Y-23624678D01*
X6735387Y-23624678D02*
X6744911Y-23615154D01*
X6744911Y-23615154D02*
X6763959Y-23605630D01*
X6763959Y-23605630D02*
X6792530Y-23605630D01*
X6792530Y-23605630D02*
X6811578Y-23615154D01*
X6811578Y-23615154D02*
X6821102Y-23624678D01*
X6821102Y-23624678D02*
X6830626Y-23643726D01*
X6830626Y-23643726D02*
X6830626Y-23700868D01*
X6830626Y-23700868D02*
X6821102Y-23719916D01*
X6821102Y-23719916D02*
X6811578Y-23729440D01*
X6811578Y-23729440D02*
X6792530Y-23738964D01*
X6792530Y-23738964D02*
X6763959Y-23738964D01*
X6887768Y-23605630D02*
X6963959Y-23605630D01*
X6916340Y-23538964D02*
X6916340Y-23710392D01*
X6916340Y-23710392D02*
X6925864Y-23729440D01*
X6925864Y-23729440D02*
X6944911Y-23738964D01*
X6944911Y-23738964D02*
X6963959Y-23738964D01*
X7183007Y-23605630D02*
X7183007Y-23805630D01*
X7183007Y-23615154D02*
X7202054Y-23605630D01*
X7202054Y-23605630D02*
X7240149Y-23605630D01*
X7240149Y-23605630D02*
X7259197Y-23615154D01*
X7259197Y-23615154D02*
X7268721Y-23624678D01*
X7268721Y-23624678D02*
X7278245Y-23643726D01*
X7278245Y-23643726D02*
X7278245Y-23700868D01*
X7278245Y-23700868D02*
X7268721Y-23719916D01*
X7268721Y-23719916D02*
X7259197Y-23729440D01*
X7259197Y-23729440D02*
X7240149Y-23738964D01*
X7240149Y-23738964D02*
X7202054Y-23738964D01*
X7202054Y-23738964D02*
X7183007Y-23729440D01*
X7392530Y-23738964D02*
X7373483Y-23729440D01*
X7373483Y-23729440D02*
X7363959Y-23710392D01*
X7363959Y-23710392D02*
X7363959Y-23538964D01*
X7554435Y-23738964D02*
X7554435Y-23634202D01*
X7554435Y-23634202D02*
X7544911Y-23615154D01*
X7544911Y-23615154D02*
X7525864Y-23605630D01*
X7525864Y-23605630D02*
X7487768Y-23605630D01*
X7487768Y-23605630D02*
X7468721Y-23615154D01*
X7554435Y-23729440D02*
X7535388Y-23738964D01*
X7535388Y-23738964D02*
X7487768Y-23738964D01*
X7487768Y-23738964D02*
X7468721Y-23729440D01*
X7468721Y-23729440D02*
X7459197Y-23710392D01*
X7459197Y-23710392D02*
X7459197Y-23691345D01*
X7459197Y-23691345D02*
X7468721Y-23672297D01*
X7468721Y-23672297D02*
X7487768Y-23662773D01*
X7487768Y-23662773D02*
X7535388Y-23662773D01*
X7535388Y-23662773D02*
X7554435Y-23653249D01*
X7621102Y-23605630D02*
X7697292Y-23605630D01*
X7649673Y-23538964D02*
X7649673Y-23710392D01*
X7649673Y-23710392D02*
X7659197Y-23729440D01*
X7659197Y-23729440D02*
X7678245Y-23738964D01*
X7678245Y-23738964D02*
X7697292Y-23738964D01*
X7840149Y-23729440D02*
X7821102Y-23738964D01*
X7821102Y-23738964D02*
X7783007Y-23738964D01*
X7783007Y-23738964D02*
X7763959Y-23729440D01*
X7763959Y-23729440D02*
X7754435Y-23710392D01*
X7754435Y-23710392D02*
X7754435Y-23634202D01*
X7754435Y-23634202D02*
X7763959Y-23615154D01*
X7763959Y-23615154D02*
X7783007Y-23605630D01*
X7783007Y-23605630D02*
X7821102Y-23605630D01*
X7821102Y-23605630D02*
X7840149Y-23615154D01*
X7840149Y-23615154D02*
X7849673Y-23634202D01*
X7849673Y-23634202D02*
X7849673Y-23653249D01*
X7849673Y-23653249D02*
X7754435Y-23672297D01*
X8021102Y-23738964D02*
X8021102Y-23538964D01*
X8021102Y-23729440D02*
X8002054Y-23738964D01*
X8002054Y-23738964D02*
X7963959Y-23738964D01*
X7963959Y-23738964D02*
X7944911Y-23729440D01*
X7944911Y-23729440D02*
X7935388Y-23719916D01*
X7935388Y-23719916D02*
X7925864Y-23700868D01*
X7925864Y-23700868D02*
X7925864Y-23643726D01*
X7925864Y-23643726D02*
X7935388Y-23624678D01*
X7935388Y-23624678D02*
X7944911Y-23615154D01*
X7944911Y-23615154D02*
X7963959Y-23605630D01*
X7963959Y-23605630D02*
X8002054Y-23605630D01*
X8002054Y-23605630D02*
X8021102Y-23615154D01*
X8097292Y-23815154D02*
X8106816Y-23805630D01*
X8106816Y-23805630D02*
X8125864Y-23777059D01*
X8125864Y-23777059D02*
X8135388Y-23758011D01*
X8135388Y-23758011D02*
X8144911Y-23729440D01*
X8144911Y-23729440D02*
X8154435Y-23681821D01*
X8154435Y-23681821D02*
X8154435Y-23643726D01*
X8154435Y-23643726D02*
X8144911Y-23596107D01*
X8144911Y-23596107D02*
X8135388Y-23567535D01*
X8135388Y-23567535D02*
X8125864Y-23548488D01*
X8125864Y-23548488D02*
X8106816Y-23519916D01*
X8106816Y-23519916D02*
X8097292Y-23510392D01*
M02*
