M48
; DRILL file {KiCad 8.0.2} date 2024-05-12T11:37:09+0200
; FORMAT={-:-/ absolute / inch / decimal}
; #@! TF.CreationDate,2024-05-12T11:37:09+02:00
; #@! TF.GenerationSoftware,Kicad,Pcbnew,8.0.2
; #@! TF.FileFunction,Plated,1,2,PTH
FMAT,2
INCH
; #@! TA.AperFunction,Plated,PTH,ViaDrill
T1C0.0157
; #@! TA.AperFunction,Plated,PTH,ComponentDrill
T2C0.0315
; #@! TA.AperFunction,Plated,PTH,ComponentDrill
T3C0.0394
; #@! TA.AperFunction,Plated,PTH,ComponentDrill
T4C0.0430
; #@! TA.AperFunction,Plated,PTH,ComponentDrill
T5C0.0866
%
G90
G05
T1
X2.3408Y-4.2841
X6.8858Y-6.0
X6.8858Y-6.7008
X6.8898Y-5.3031
X7.3118Y-7.2188
X7.4602Y-6.8845
X7.6545Y-5.4438
X7.6545Y-6.1445
X8.1259Y-6.913
X8.1575Y-4.6781
X8.3356Y-5.4438
X8.3383Y-3.8479
X8.3395Y-6.1485
X9.0591Y-4.2047
X9.1081Y-4.5985
X9.3787Y-5.2789
X9.5472Y-4.1024
X9.6604Y-5.9761
X9.7847Y-4.2869
X9.9436Y-6.677
X10.0833Y-5.0155
X10.3555Y-5.6996
X10.4882Y-3.6693
X10.4893Y-4.0234
X10.6364Y-6.3843
X10.7754Y-4.7316
X11.0497Y-5.4106
X11.1865Y-3.7417
X11.3299Y-6.1041
X11.4792Y-4.4557
X11.7484Y-5.1325
X11.8701Y-3.1614
X11.8786Y-3.4579
X12.0301Y-5.8297
X12.1632Y-4.1624
X12.7237Y-5.5495
T2
X2.1269Y-4.9282
X2.405Y-5.0406
X2.4069Y-4.235
X2.4477Y-5.564
X2.5601Y-5.2858
X2.6851Y-4.3474
X2.6886Y-3.5378
X2.7279Y-4.8704
X2.7949Y-5.1981
X2.8403Y-4.5923
X2.9668Y-3.6502
X2.9697Y-2.8421
X3.0096Y-4.1732
X3.073Y-5.3105
X3.122Y-3.8951
X3.1431Y-5.8449
X3.2479Y-2.9545
X3.2555Y-5.5668
X3.2897Y-3.48
X3.402Y-3.2019
X3.4233Y-5.1514
X3.5357Y-4.8732
X3.5715Y-2.7824
X3.6839Y-2.5043
X3.705Y-4.4542
X3.8174Y-4.176
X3.8385Y-6.1259
X3.9508Y-5.8477
X3.9851Y-3.761
X4.0974Y-3.4828
X4.1187Y-5.4323
X4.2311Y-5.1542
X4.2669Y-3.0634
X4.3793Y-2.7852
X4.4004Y-4.7351
X4.5128Y-4.457
X4.5338Y-6.4069
X4.6462Y-6.1287
X4.6804Y-4.0419
X4.7928Y-3.7638
X4.8141Y-5.7133
X4.9264Y-5.4351
X4.9623Y-3.3444
X5.0747Y-3.0662
X5.0958Y-5.0161
X5.2081Y-4.7379
X5.2292Y-6.6878
X5.3416Y-6.4097
X5.3758Y-4.3229
X5.4882Y-4.0447
X5.5095Y-5.9943
X5.6218Y-5.7161
X5.6577Y-3.6253
X5.7701Y-3.3472
X5.7911Y-5.297
X5.9035Y-5.0189
X6.0712Y-4.6038
X6.1836Y-4.3257
X6.3531Y-3.9063
X6.4654Y-3.6281
X7.2765Y-4.53
X7.2765Y-4.83
X7.4064Y-4.53
X7.4064Y-4.83
X7.5364Y-4.53
X7.5364Y-4.83
X7.6663Y-4.53
X7.6663Y-4.83
X7.7962Y-4.53
X7.7962Y-4.83
X7.9261Y-4.53
X7.9261Y-4.83
X8.056Y-4.53
X8.056Y-4.83
X8.186Y-4.53
X8.186Y-4.83
X8.3159Y-4.53
X8.3159Y-4.83
X8.4458Y-4.53
X8.4458Y-4.83
X8.5757Y-4.53
X8.5757Y-4.83
X9.4368Y-3.6281
X9.5492Y-3.9062
X9.7186Y-4.3257
X9.831Y-4.6038
X9.9987Y-5.0189
X10.1111Y-5.297
X10.1322Y-3.3471
X10.2446Y-3.6253
X10.2804Y-5.7161
X10.3928Y-5.9942
X10.414Y-4.0447
X10.5264Y-4.3229
X10.5606Y-6.4096
X10.673Y-6.6878
X10.6941Y-4.7379
X10.8065Y-5.0161
X10.8276Y-3.0662
X10.9399Y-3.3443
X10.9758Y-5.4351
X11.0882Y-5.7133
X11.1094Y-3.7637
X11.2218Y-4.0419
X11.256Y-6.1287
X11.3684Y-6.4068
X11.3895Y-4.4569
X11.5018Y-4.7351
X11.5229Y-2.7852
X11.6353Y-3.0634
X11.6712Y-5.1542
X11.7835Y-5.4323
X11.8048Y-3.4828
X11.9172Y-3.7609
X11.9514Y-5.8477
X12.0638Y-6.1259
X12.0849Y-4.176
X12.1972Y-4.4541
X12.2114Y-2.5071
X12.3238Y-2.7852
X12.3665Y-4.8732
X12.4789Y-5.1514
X12.5002Y-3.2018
X12.6126Y-3.48
X12.6445Y-2.9584
X12.6468Y-5.5668
X12.7479Y-5.3433
X12.7591Y-5.8449
X12.7802Y-3.895
X12.8926Y-4.1732
X12.9226Y-2.846
X12.9241Y-3.6506
X13.0261Y-5.2309
X13.0619Y-4.5922
X13.1743Y-4.8704
X13.2023Y-3.5382
X13.2064Y-4.3492
X13.3422Y-5.2858
X13.4545Y-5.564
X13.4846Y-4.2368
X13.4874Y-5.0446
X13.7655Y-4.9322
T3
X7.7982Y-3.6819
X7.7982Y-3.8591
X7.8255Y-3.4898
X7.9255Y-3.4898
X7.9824Y-7.4036
X7.9824Y-7.502
X7.9824Y-7.6005
X8.0255Y-3.4898
X8.0541Y-3.6819
X8.0541Y-3.8591
X8.5532Y-7.4036
X8.5532Y-7.6005
T4
X7.6261Y-3.2705
X7.6261Y-3.3705
X7.6261Y-3.4705
X7.6261Y-3.5705
X7.6261Y-3.6705
X7.6261Y-3.7705
X7.6261Y-3.8705
X7.6261Y-3.9705
X7.6261Y-4.0705
X7.6261Y-4.1705
X7.6261Y-4.2705
X7.6261Y-4.3705
X8.2261Y-3.2705
X8.2261Y-3.3705
X8.2261Y-3.4705
X8.2261Y-3.5705
X8.2261Y-3.6705
X8.2261Y-3.7705
X8.2261Y-3.8705
X8.2261Y-3.9705
X8.2261Y-4.0705
X8.2261Y-4.1705
X8.2261Y-4.2705
X8.2261Y-4.3705
T5
X2.6235Y-5.1289
X3.4663Y-3.0427
X5.405Y-6.2527
X6.2479Y-4.1665
X9.6543Y-4.1665
X10.4972Y-6.2527
X12.4359Y-3.0427
X13.2787Y-5.1289
M30
