M48
; DRILL file {KiCad 8.0.6} date 2024-10-27T19:10:13+0100
; FORMAT={-:-/ absolute / inch / decimal}
; #@! TF.CreationDate,2024-10-27T19:10:13+01:00
; #@! TF.GenerationSoftware,Kicad,Pcbnew,8.0.6
; #@! TF.FileFunction,Plated,1,2,PTH
FMAT,2
INCH
; #@! TA.AperFunction,Plated,PTH,ViaDrill
T1C0.0157
; #@! TA.AperFunction,Plated,PTH,ComponentDrill
T2C0.0315
; #@! TA.AperFunction,Plated,PTH,ComponentDrill
T3C0.0394
; #@! TA.AperFunction,Plated,PTH,ComponentDrill
T4C0.0430
%
G90
G05
T1
X5.7175Y-4.7676
X6.9016Y-7.8772
X7.5108Y-8.6476
X7.6524Y-7.9394
X7.6539Y-7.1768
X8.2431Y-8.6762
X8.4039Y-8.676
X8.4059Y-7.9043
X8.4063Y-7.1764
X9.1563Y-8.6476
X9.1571Y-7.1478
X9.1622Y-7.878
X10.815Y-4.7667
X11.4616Y-8.2165
X11.6132Y-7.6713
T2
X0.8199Y-6.2947
X1.037Y-5.5846
X1.1068Y-6.3824
X1.1625Y-6.973
X1.2497Y-4.8889
X1.2502Y-6.6861
X1.3239Y-5.6724
X1.3809Y-6.2586
X1.4677Y-4.1756
X1.4686Y-5.9717
X1.5366Y-4.9766
X1.5389Y-6.5145
X1.5993Y-5.5443
X1.687Y-5.2574
X1.7546Y-4.2634
X1.8177Y-4.83
X1.8258Y-6.6023
X1.8815Y-7.1928
X1.9054Y-4.5431
X1.9693Y-6.9059
X2.0361Y-4.1157
X2.0999Y-6.4785
X2.1238Y-3.8288
X2.1876Y-6.1916
X2.3183Y-5.7642
X2.406Y-5.4773
X2.5367Y-5.0499
X2.6006Y-7.4126
X2.6244Y-4.763
X2.6883Y-7.1257
X2.7551Y-4.3355
X2.819Y-6.6983
X2.8428Y-4.0486
X2.9067Y-6.4114
X3.0373Y-5.984
X3.1251Y-5.6971
X3.2557Y-5.2697
X3.3196Y-7.6324
X3.3434Y-4.9828
X3.4073Y-7.3456
X3.4741Y-4.5554
X3.538Y-6.9181
X3.5618Y-4.2685
X3.6257Y-6.6312
X3.7564Y-6.2038
X3.8441Y-5.9169
X3.9748Y-5.4895
X4.0386Y-7.8523
X4.0625Y-5.2026
X4.1264Y-7.5654
X4.1932Y-4.7752
X4.257Y-7.138
X4.2809Y-4.4883
X4.3447Y-6.8511
X4.4754Y-6.4237
X4.5631Y-6.1368
X4.6938Y-5.7093
X4.7545Y-8.0711
X4.7815Y-5.4225
X4.8422Y-7.7842
X4.9122Y-4.995
X4.9729Y-7.3568
X4.9999Y-4.7081
X5.0606Y-7.0699
X7.2932Y-5.478
X7.2932Y-5.778
X7.4689Y-5.478
X7.4689Y-5.778
X7.6447Y-5.478
X7.6447Y-5.778
X7.8204Y-5.478
X7.8204Y-5.778
X7.9961Y-5.478
X7.9961Y-5.778
X8.1719Y-5.478
X8.1719Y-5.778
X8.3476Y-5.478
X8.3476Y-5.778
X8.5233Y-5.478
X8.5233Y-5.778
X8.6991Y-5.478
X8.6991Y-5.778
X8.8748Y-5.478
X8.8748Y-5.778
X9.0505Y-5.478
X9.0505Y-5.778
X9.2263Y-5.478
X9.2263Y-5.778
X11.0714Y-7.7388
X11.1353Y-5.376
X11.3537Y-6.0903
X11.3583Y-7.6511
X11.4213Y-7.0844
X11.4222Y-5.2883
X11.4849Y-4.7217
X11.5091Y-7.3713
X11.5721Y-6.8046
X11.5726Y-5.0086
X11.6397Y-7.7987
X11.6406Y-6.0026
X11.7032Y-5.4361
X11.7274Y-8.0856
X11.7905Y-7.5189
X11.791Y-5.7229
X11.859Y-6.7169
X11.9216Y-6.1504
X12.0093Y-6.4373
X12.0774Y-7.4312
X12.14Y-6.8647
X12.2032Y-4.5021
X12.2277Y-7.1516
X12.2909Y-4.789
X12.3584Y-7.579
X12.4215Y-5.2165
X12.4461Y-7.8659
X12.5092Y-5.5033
X12.6399Y-5.9308
X12.7276Y-6.2177
X12.8583Y-6.6451
X12.9214Y-4.2825
X12.946Y-6.932
X13.0092Y-4.5694
X13.0767Y-7.3594
X13.1398Y-4.9968
X13.1644Y-7.6463
X13.2275Y-5.2837
X13.3582Y-5.7112
X13.4459Y-5.998
X13.5766Y-6.4255
X13.6397Y-4.0629
X13.6643Y-6.7124
X13.7275Y-4.3498
X13.795Y-7.1398
X13.8581Y-4.7772
X13.8827Y-7.4267
X13.9458Y-5.0641
X14.0765Y-5.4915
X14.1642Y-5.7784
X14.2949Y-6.2059
X14.358Y-3.8433
X14.3826Y-6.4928
X14.4458Y-4.1302
X14.5133Y-6.9202
X14.5764Y-4.5576
X14.601Y-7.2071
X14.6641Y-4.8445
X14.7948Y-5.2719
X14.8825Y-5.5588
X15.0132Y-5.9863
X15.1009Y-6.2731
X15.2316Y-6.7006
X15.3193Y-6.9875
T3
X6.8889Y-6.6932
X6.8889Y-6.7916
X6.8889Y-6.8901
X7.4597Y-6.6932
X7.4597Y-6.8901
X8.171Y-3.9843
X8.171Y-4.2402
X8.2596Y-4.2715
X8.2596Y-4.3715
X8.2596Y-4.4715
X8.3482Y-3.9843
X8.3482Y-4.2402
T4
X7.9596Y-3.8839
X7.9596Y-3.9839
X7.9596Y-4.0839
X7.9596Y-4.1839
X7.9596Y-4.2839
X7.9596Y-4.3839
X7.9596Y-4.4839
X7.9596Y-4.5839
X7.9596Y-4.6839
X7.9596Y-4.7839
X7.9596Y-4.8839
X7.9686Y-4.9839
X8.0596Y-4.9839
X8.1596Y-4.9839
X8.2596Y-4.9839
X8.3596Y-4.9839
X8.4596Y-4.9839
X8.5596Y-3.8839
X8.5596Y-3.9839
X8.5596Y-4.0839
X8.5596Y-4.1839
X8.5596Y-4.2839
X8.5596Y-4.3839
X8.5596Y-4.4839
X8.5596Y-4.5839
X8.5596Y-4.6839
X8.5596Y-4.7839
X8.5596Y-4.8839
X8.5596Y-4.9839
M30
